G75*
%MOIN*%
%OFA0B0*%
%FSLAX25Y25*%
%IPPOS*%
%LPD*%
%AMOC8*
5,1,8,0,0,1.08239X$1,22.5*
%
%ADD10OC8,0.06800*%
%ADD11OC8,0.04800*%
%ADD12C,0.05728*%
%ADD13C,0.04800*%
%ADD14OC8,0.07000*%
%ADD15C,0.07400*%
%ADD16C,0.08600*%
%ADD17C,0.05400*%
%ADD18C,0.01200*%
%ADD19C,0.01600*%
%ADD20C,0.03200*%
%ADD21C,0.03400*%
D10*
X0110000Y0147524D03*
X0120000Y0147524D03*
X0130000Y0147524D03*
X0140000Y0147524D03*
X0140000Y0177524D03*
X0130000Y0177524D03*
X0120000Y0177524D03*
X0110000Y0177524D03*
X0110000Y0197524D03*
X0120000Y0197524D03*
X0130000Y0197524D03*
X0140000Y0197524D03*
X0140000Y0227524D03*
X0130000Y0227524D03*
X0120000Y0227524D03*
X0110000Y0227524D03*
D11*
X0082000Y0183024D03*
X0071000Y0196524D03*
X0071000Y0205524D03*
X0061000Y0205524D03*
X0061000Y0196524D03*
X0051000Y0196524D03*
X0051000Y0205524D03*
X0041000Y0205524D03*
X0041000Y0196524D03*
X0030900Y0196524D03*
X0031000Y0205524D03*
X0031000Y0245524D03*
X0041000Y0245524D03*
X0051000Y0245524D03*
X0061000Y0245524D03*
X0071000Y0245524D03*
X0053000Y0260524D03*
X0082000Y0163024D03*
X0071000Y0156524D03*
X0061000Y0156524D03*
X0051000Y0156524D03*
X0041000Y0156524D03*
X0030900Y0156524D03*
X0026000Y0124924D03*
X0026000Y0104924D03*
X0157000Y0187524D03*
X0167000Y0187524D03*
X0177000Y0187524D03*
X0175000Y0172524D03*
X0175000Y0152524D03*
X0177000Y0227524D03*
X0167000Y0227524D03*
X0157000Y0227524D03*
D12*
X0110500Y0138388D02*
X0110500Y0132659D01*
X0100500Y0132659D02*
X0100500Y0138388D01*
X0090500Y0138388D02*
X0090500Y0132659D01*
X0080500Y0132659D02*
X0080500Y0138388D01*
X0070500Y0138388D02*
X0070500Y0132659D01*
X0060500Y0132659D02*
X0060500Y0138388D01*
X0050500Y0138388D02*
X0050500Y0132659D01*
X0040500Y0132659D02*
X0040500Y0138388D01*
X0040500Y0108388D02*
X0040500Y0102659D01*
X0050500Y0102659D02*
X0050500Y0108388D01*
X0060500Y0108388D02*
X0060500Y0102659D01*
X0070500Y0102659D02*
X0070500Y0108388D01*
X0080500Y0108388D02*
X0080500Y0102659D01*
X0090500Y0102659D02*
X0090500Y0108388D01*
X0100500Y0108388D02*
X0100500Y0102659D01*
X0110500Y0102659D02*
X0110500Y0108388D01*
D13*
X0033000Y0260524D03*
D14*
X0080000Y0252524D03*
X0090000Y0252524D03*
X0100000Y0252524D03*
X0110000Y0252524D03*
X0120000Y0252524D03*
X0130000Y0252524D03*
X0140000Y0252524D03*
X0150000Y0252524D03*
D15*
X0205000Y0257524D03*
X0205000Y0267524D03*
X0205000Y0277524D03*
X0205000Y0247524D03*
X0205000Y0237524D03*
X0205000Y0227524D03*
X0205000Y0207524D03*
X0205000Y0197524D03*
X0205000Y0187524D03*
X0205000Y0177524D03*
X0205000Y0167524D03*
X0205000Y0157524D03*
X0205000Y0147524D03*
X0205000Y0137524D03*
X0015000Y0142524D03*
X0015000Y0132524D03*
X0015000Y0122524D03*
X0015000Y0112524D03*
X0015000Y0102524D03*
X0015000Y0152524D03*
X0015000Y0162524D03*
X0015000Y0172524D03*
X0015000Y0182524D03*
X0015000Y0192524D03*
X0015000Y0207524D03*
X0015000Y0217524D03*
X0015000Y0227524D03*
X0015000Y0237524D03*
X0015000Y0247524D03*
X0015000Y0257524D03*
X0015000Y0267524D03*
X0015000Y0277524D03*
D16*
X0132807Y0106524D03*
X0146587Y0106524D03*
X0160307Y0106524D03*
X0174087Y0106524D03*
X0187807Y0106524D03*
X0201587Y0106524D03*
D17*
X0094000Y0146524D02*
X0094000Y0151924D01*
X0084000Y0151924D02*
X0084000Y0146524D01*
D18*
X0084000Y0149224D02*
X0083100Y0149724D01*
X0041300Y0149724D01*
X0034700Y0156324D01*
X0031400Y0156324D01*
X0030900Y0156524D01*
X0016000Y0142024D02*
X0015000Y0142524D01*
X0016000Y0142024D02*
X0040200Y0117824D01*
X0040200Y0105724D01*
X0040500Y0105524D01*
X0050100Y0105724D02*
X0050500Y0105524D01*
X0050100Y0105724D02*
X0050100Y0116724D01*
X0014900Y0151924D01*
X0015000Y0152524D01*
X0009400Y0166224D02*
X0009400Y0100224D01*
X0012700Y0096924D01*
X0062200Y0096924D01*
X0069900Y0104624D01*
X0070500Y0105524D01*
X0071000Y0104624D01*
X0077600Y0098024D01*
X0138100Y0098024D01*
X0145800Y0105724D01*
X0146587Y0106524D01*
X0149100Y0113424D02*
X0098500Y0113424D01*
X0090800Y0105724D01*
X0090500Y0105524D01*
X0080900Y0105724D02*
X0090800Y0115624D01*
X0115000Y0115624D01*
X0115000Y0149724D01*
X0111700Y0153024D01*
X0106200Y0153024D01*
X0077600Y0181624D01*
X0016000Y0181624D01*
X0015000Y0182524D01*
X0015000Y0172524D02*
X0014900Y0171724D01*
X0009400Y0166224D01*
X0029200Y0191524D02*
X0045700Y0191524D01*
X0050100Y0195924D01*
X0051000Y0196524D01*
X0051200Y0204724D02*
X0051000Y0205524D01*
X0050100Y0205824D01*
X0041300Y0205824D01*
X0041000Y0205524D01*
X0041300Y0204724D01*
X0041300Y0197024D01*
X0041000Y0196524D01*
X0040200Y0197024D01*
X0031400Y0197024D01*
X0030900Y0196524D01*
X0029200Y0191524D02*
X0024800Y0195924D01*
X0024800Y0248724D01*
X0032500Y0256424D01*
X0032500Y0259724D01*
X0033000Y0260524D01*
X0033600Y0260824D01*
X0033600Y0266324D01*
X0054100Y0281924D01*
X0140700Y0281924D01*
X0167800Y0259724D01*
X0170000Y0259724D01*
X0176600Y0247624D02*
X0172200Y0243224D01*
X0172200Y0226724D01*
X0157900Y0212424D01*
X0157900Y0188224D01*
X0157000Y0187524D01*
X0167000Y0187524D02*
X0167800Y0188224D01*
X0167800Y0200324D01*
X0205000Y0237524D01*
X0205000Y0247524D02*
X0204100Y0247624D01*
X0176600Y0247624D01*
X0140300Y0277624D01*
X0056500Y0277624D01*
X0040900Y0266924D01*
X0036900Y0264124D01*
X0044600Y0265224D02*
X0087500Y0265224D01*
X0099600Y0253124D01*
X0100000Y0252524D01*
X0090800Y0252024D02*
X0090000Y0252524D01*
X0090800Y0252024D02*
X0090800Y0233324D01*
X0131500Y0233324D01*
X0137000Y0227824D01*
X0139200Y0227824D01*
X0140000Y0227524D01*
X0130000Y0227524D02*
X0129300Y0227824D01*
X0120500Y0227824D01*
X0120000Y0227524D01*
X0120000Y0197524D02*
X0126000Y0191524D01*
X0133700Y0191524D01*
X0145800Y0179424D01*
X0145800Y0167324D01*
X0181000Y0132124D01*
X0207400Y0132124D01*
X0210700Y0135424D01*
X0210700Y0259724D01*
X0205200Y0265224D01*
X0205200Y0267424D01*
X0205000Y0267524D01*
X0204100Y0277324D02*
X0205000Y0277524D01*
X0204100Y0277324D02*
X0181000Y0254224D01*
X0205000Y0227524D02*
X0204100Y0226724D01*
X0177700Y0200324D01*
X0177700Y0188224D01*
X0177000Y0187524D01*
X0130000Y0177524D02*
X0129300Y0177224D01*
X0120500Y0177224D01*
X0120000Y0177524D01*
X0119400Y0197024D02*
X0110600Y0197024D01*
X0110000Y0197524D01*
X0119400Y0197024D02*
X0120000Y0197524D01*
X0090800Y0188224D02*
X0090800Y0233324D01*
X0080000Y0252524D02*
X0079800Y0253124D01*
X0073200Y0259724D01*
X0053400Y0259724D01*
X0053000Y0260524D01*
X0052300Y0259724D01*
X0049000Y0259724D01*
X0035800Y0246524D01*
X0031400Y0246524D01*
X0031000Y0245524D01*
X0027000Y0247624D02*
X0027000Y0243224D01*
X0030300Y0239924D01*
X0030300Y0205824D01*
X0031000Y0205524D01*
X0051200Y0204724D02*
X0060000Y0195924D01*
X0061000Y0196524D01*
X0061100Y0197024D01*
X0071000Y0197024D01*
X0071000Y0196524D01*
X0072800Y0200724D02*
X0064400Y0200724D01*
X0061100Y0204724D01*
X0061000Y0205524D01*
X0061100Y0205824D01*
X0061100Y0235524D01*
X0071000Y0245424D01*
X0071000Y0245524D01*
X0044600Y0265224D02*
X0027000Y0247624D01*
X0072800Y0200724D02*
X0119400Y0154124D01*
X0119400Y0147524D01*
X0120000Y0147524D01*
X0110000Y0147524D02*
X0095200Y0147524D01*
X0094100Y0148624D01*
X0094000Y0149224D01*
X0090500Y0135524D02*
X0090800Y0135424D01*
X0099600Y0135424D01*
X0100500Y0135524D01*
X0100700Y0135424D01*
X0109500Y0135424D01*
X0110500Y0135524D01*
X0115000Y0115624D02*
X0164500Y0115624D01*
X0173300Y0106824D01*
X0174087Y0106524D01*
X0157900Y0100224D02*
X0153500Y0104624D01*
X0153500Y0109024D01*
X0149100Y0113424D01*
X0157900Y0100224D02*
X0190900Y0100224D01*
X0196400Y0105724D01*
X0200800Y0105724D01*
X0201587Y0106524D01*
X0090500Y0135524D02*
X0089700Y0135424D01*
X0080900Y0135424D01*
X0080500Y0135524D01*
X0079800Y0135424D01*
X0071000Y0135424D01*
X0070500Y0135524D01*
X0069900Y0135424D01*
X0061100Y0135424D01*
X0060500Y0135524D01*
X0060000Y0135424D01*
X0051200Y0135424D01*
X0050500Y0135524D01*
X0050100Y0135424D01*
X0041300Y0135424D01*
X0040500Y0135524D01*
X0025900Y0125524D02*
X0026000Y0124924D01*
X0025900Y0125524D02*
X0022600Y0125524D01*
X0016000Y0132124D01*
X0015000Y0132524D01*
X0015000Y0122524D02*
X0016000Y0122224D01*
X0025900Y0112324D01*
X0025900Y0105724D01*
X0026000Y0104924D01*
X0051000Y0156524D02*
X0051200Y0157424D01*
X0055600Y0157424D01*
X0058900Y0160724D01*
X0067700Y0160724D01*
X0071000Y0157424D01*
X0071000Y0156524D01*
X0080900Y0105724D02*
X0080500Y0105524D01*
D19*
X0011123Y0094824D02*
X0007221Y0094824D01*
X0007221Y0098725D01*
X0010496Y0095451D01*
X0011123Y0094824D01*
X0010226Y0095721D02*
X0007221Y0095721D01*
X0007221Y0097319D02*
X0008628Y0097319D01*
X0012000Y0107451D02*
X0012000Y0107597D01*
X0012176Y0107524D01*
X0012000Y0107451D01*
X0017824Y0107524D02*
X0018229Y0107691D01*
X0019832Y0109295D01*
X0020700Y0111390D01*
X0020700Y0113657D01*
X0020566Y0113981D01*
X0023300Y0111247D01*
X0023300Y0108446D01*
X0021600Y0106746D01*
X0021600Y0103101D01*
X0024177Y0100524D01*
X0027823Y0100524D01*
X0030400Y0103101D01*
X0030400Y0106746D01*
X0028500Y0108646D01*
X0028500Y0112841D01*
X0028104Y0113796D01*
X0020645Y0121256D01*
X0020700Y0121390D01*
X0020700Y0123657D01*
X0019832Y0125752D01*
X0018229Y0127356D01*
X0017536Y0127643D01*
X0017883Y0127820D01*
X0018583Y0128328D01*
X0019195Y0128941D01*
X0019704Y0129641D01*
X0020097Y0130412D01*
X0020365Y0131236D01*
X0020500Y0132091D01*
X0020500Y0132324D01*
X0015200Y0132324D01*
X0015200Y0132724D01*
X0020500Y0132724D01*
X0020500Y0132956D01*
X0020365Y0133812D01*
X0020282Y0134064D01*
X0025223Y0129124D01*
X0024260Y0129124D01*
X0021800Y0126663D01*
X0021800Y0124924D01*
X0026000Y0124924D01*
X0026000Y0124924D01*
X0021800Y0124924D01*
X0021800Y0123184D01*
X0024260Y0120724D01*
X0026000Y0120724D01*
X0027740Y0120724D01*
X0030200Y0123184D01*
X0030200Y0124147D01*
X0037600Y0116747D01*
X0037600Y0112367D01*
X0036376Y0111143D01*
X0035636Y0109355D01*
X0035636Y0101692D01*
X0036376Y0099904D01*
X0036757Y0099524D01*
X0019927Y0099524D01*
X0020700Y0101390D01*
X0020700Y0103657D01*
X0019832Y0105752D01*
X0018229Y0107356D01*
X0017824Y0107524D01*
X0018674Y0106910D02*
X0021764Y0106910D01*
X0021600Y0105312D02*
X0020015Y0105312D01*
X0020677Y0103713D02*
X0021600Y0103713D01*
X0020700Y0102115D02*
X0022586Y0102115D01*
X0020338Y0100516D02*
X0036123Y0100516D01*
X0035636Y0102115D02*
X0029414Y0102115D01*
X0030400Y0103713D02*
X0035636Y0103713D01*
X0035636Y0105312D02*
X0030400Y0105312D01*
X0030236Y0106910D02*
X0035636Y0106910D01*
X0035636Y0108509D02*
X0028637Y0108509D01*
X0028500Y0110107D02*
X0035947Y0110107D01*
X0036939Y0111706D02*
X0028500Y0111706D01*
X0028308Y0113304D02*
X0037600Y0113304D01*
X0037600Y0114903D02*
X0026998Y0114903D01*
X0025399Y0116501D02*
X0037600Y0116501D01*
X0036247Y0118100D02*
X0023801Y0118100D01*
X0022202Y0119698D02*
X0034648Y0119698D01*
X0033050Y0121297D02*
X0028313Y0121297D01*
X0029911Y0122895D02*
X0031451Y0122895D01*
X0034010Y0127691D02*
X0035456Y0127691D01*
X0035608Y0126092D02*
X0037054Y0126092D01*
X0037207Y0124494D02*
X0038653Y0124494D01*
X0038805Y0122895D02*
X0040251Y0122895D01*
X0040404Y0121297D02*
X0041850Y0121297D01*
X0042002Y0119698D02*
X0043448Y0119698D01*
X0042404Y0119296D02*
X0020586Y0141115D01*
X0020700Y0141390D01*
X0020700Y0142447D01*
X0047500Y0115647D01*
X0047500Y0112267D01*
X0046376Y0111143D01*
X0045636Y0109355D01*
X0045636Y0101692D01*
X0046376Y0099904D01*
X0046757Y0099524D01*
X0044243Y0099524D01*
X0044624Y0099904D01*
X0045364Y0101692D01*
X0045364Y0109355D01*
X0044624Y0111143D01*
X0043255Y0112511D01*
X0042800Y0112700D01*
X0042800Y0118341D01*
X0042404Y0119296D01*
X0042800Y0118100D02*
X0045047Y0118100D01*
X0046645Y0116501D02*
X0042800Y0116501D01*
X0042800Y0114903D02*
X0047500Y0114903D01*
X0047500Y0113304D02*
X0042800Y0113304D01*
X0044061Y0111706D02*
X0046939Y0111706D01*
X0045947Y0110107D02*
X0045053Y0110107D01*
X0045364Y0108509D02*
X0045636Y0108509D01*
X0045636Y0106910D02*
X0045364Y0106910D01*
X0045364Y0105312D02*
X0045636Y0105312D01*
X0045636Y0103713D02*
X0045364Y0103713D01*
X0045364Y0102115D02*
X0045636Y0102115D01*
X0046123Y0100516D02*
X0044877Y0100516D01*
X0054624Y0111143D02*
X0053255Y0112511D01*
X0052700Y0112741D01*
X0052700Y0117241D01*
X0052304Y0118196D01*
X0042195Y0128306D01*
X0042290Y0128337D01*
X0042945Y0128670D01*
X0043538Y0129102D01*
X0044058Y0129621D01*
X0044489Y0130215D01*
X0044822Y0130869D01*
X0045049Y0131567D01*
X0045164Y0132292D01*
X0045164Y0135369D01*
X0040655Y0135369D01*
X0040655Y0135678D01*
X0045164Y0135678D01*
X0045164Y0138755D01*
X0045049Y0139480D01*
X0044822Y0140178D01*
X0044489Y0140832D01*
X0044058Y0141426D01*
X0043538Y0141945D01*
X0042945Y0142377D01*
X0042290Y0142710D01*
X0041592Y0142937D01*
X0040867Y0143052D01*
X0040655Y0143052D01*
X0040655Y0135678D01*
X0040345Y0135678D01*
X0040345Y0135369D01*
X0035836Y0135369D01*
X0035836Y0134665D01*
X0020234Y0150266D01*
X0020700Y0151390D01*
X0020700Y0153657D01*
X0019832Y0155752D01*
X0018229Y0157356D01*
X0017824Y0157524D01*
X0018229Y0157691D01*
X0019832Y0159295D01*
X0020700Y0161390D01*
X0020700Y0163657D01*
X0019832Y0165752D01*
X0018229Y0167356D01*
X0017824Y0167524D01*
X0018229Y0167691D01*
X0019832Y0169295D01*
X0020700Y0171390D01*
X0020700Y0173657D01*
X0019832Y0175752D01*
X0018229Y0177356D01*
X0017824Y0177524D01*
X0018229Y0177691D01*
X0019561Y0179024D01*
X0076523Y0179024D01*
X0103996Y0151551D01*
X0104727Y0150819D01*
X0105386Y0150547D01*
X0104963Y0150124D01*
X0098700Y0150124D01*
X0098700Y0152859D01*
X0097984Y0154586D01*
X0096662Y0155908D01*
X0094935Y0156624D01*
X0093065Y0156624D01*
X0091338Y0155908D01*
X0090016Y0154586D01*
X0089300Y0152859D01*
X0089300Y0145589D01*
X0090016Y0143861D01*
X0090825Y0143052D01*
X0090655Y0143052D01*
X0090655Y0135678D01*
X0095164Y0135678D01*
X0095164Y0138755D01*
X0095049Y0139480D01*
X0094822Y0140178D01*
X0094489Y0140832D01*
X0094058Y0141426D01*
X0093660Y0141824D01*
X0094935Y0141824D01*
X0096662Y0142539D01*
X0097984Y0143861D01*
X0098424Y0144924D01*
X0104963Y0144924D01*
X0107739Y0142147D01*
X0107461Y0141945D01*
X0106942Y0141426D01*
X0106511Y0140832D01*
X0106178Y0140178D01*
X0105951Y0139480D01*
X0105836Y0138755D01*
X0105836Y0135678D01*
X0110345Y0135678D01*
X0110345Y0135369D01*
X0105836Y0135369D01*
X0105836Y0132292D01*
X0105951Y0131567D01*
X0106178Y0130869D01*
X0106511Y0130215D01*
X0106942Y0129621D01*
X0107461Y0129102D01*
X0108055Y0128670D01*
X0108710Y0128337D01*
X0109408Y0128110D01*
X0110133Y0127995D01*
X0110345Y0127995D01*
X0110345Y0135369D01*
X0110655Y0135369D01*
X0110655Y0127995D01*
X0110867Y0127995D01*
X0111592Y0128110D01*
X0112290Y0128337D01*
X0112400Y0128393D01*
X0112400Y0118224D01*
X0090283Y0118224D01*
X0089327Y0117828D01*
X0088596Y0117096D01*
X0083633Y0112134D01*
X0083255Y0112511D01*
X0081468Y0113252D01*
X0079532Y0113252D01*
X0077745Y0112511D01*
X0076376Y0111143D01*
X0075636Y0109355D01*
X0075636Y0103665D01*
X0075364Y0103936D01*
X0075364Y0109355D01*
X0074624Y0111143D01*
X0073255Y0112511D01*
X0071468Y0113252D01*
X0069532Y0113252D01*
X0067745Y0112511D01*
X0066376Y0111143D01*
X0065636Y0109355D01*
X0065636Y0104036D01*
X0065364Y0103765D01*
X0065364Y0109355D01*
X0064624Y0111143D01*
X0063255Y0112511D01*
X0061468Y0113252D01*
X0059532Y0113252D01*
X0057745Y0112511D01*
X0056376Y0111143D01*
X0055636Y0109355D01*
X0055636Y0101692D01*
X0056376Y0099904D01*
X0056757Y0099524D01*
X0054243Y0099524D01*
X0054624Y0099904D01*
X0055364Y0101692D01*
X0055364Y0109355D01*
X0054624Y0111143D01*
X0054061Y0111706D02*
X0056939Y0111706D01*
X0055947Y0110107D02*
X0055053Y0110107D01*
X0055364Y0108509D02*
X0055636Y0108509D01*
X0055636Y0106910D02*
X0055364Y0106910D01*
X0055364Y0105312D02*
X0055636Y0105312D01*
X0055636Y0103713D02*
X0055364Y0103713D01*
X0055364Y0102115D02*
X0055636Y0102115D01*
X0056123Y0100516D02*
X0054877Y0100516D01*
X0063777Y0094824D02*
X0067617Y0098664D01*
X0067745Y0098536D01*
X0069532Y0097795D01*
X0071468Y0097795D01*
X0073255Y0098536D01*
X0073333Y0098614D01*
X0075396Y0096551D01*
X0076127Y0095819D01*
X0077083Y0095424D01*
X0138617Y0095424D01*
X0139573Y0095819D01*
X0144374Y0100621D01*
X0145333Y0100224D01*
X0147840Y0100224D01*
X0150155Y0101183D01*
X0151710Y0102737D01*
X0152027Y0102419D01*
X0152027Y0102419D01*
X0156427Y0098019D01*
X0157383Y0097624D01*
X0191417Y0097624D01*
X0192373Y0098019D01*
X0193104Y0098751D01*
X0196777Y0102424D01*
X0198018Y0101183D01*
X0200333Y0100224D01*
X0202840Y0100224D01*
X0205155Y0101183D01*
X0206927Y0102955D01*
X0207887Y0105270D01*
X0207887Y0107777D01*
X0206927Y0110092D01*
X0205155Y0111864D01*
X0202840Y0112824D01*
X0200333Y0112824D01*
X0198018Y0111864D01*
X0196246Y0110092D01*
X0195437Y0108139D01*
X0194927Y0107928D01*
X0194196Y0107196D01*
X0193907Y0106908D01*
X0193907Y0107004D01*
X0193757Y0107952D01*
X0193460Y0108865D01*
X0193024Y0109721D01*
X0192460Y0110498D01*
X0191781Y0111176D01*
X0191004Y0111741D01*
X0190149Y0112177D01*
X0189236Y0112473D01*
X0188287Y0112624D01*
X0187991Y0112624D01*
X0187991Y0106708D01*
X0187623Y0106708D01*
X0187623Y0112624D01*
X0187327Y0112624D01*
X0186379Y0112473D01*
X0185465Y0112177D01*
X0184610Y0111741D01*
X0183833Y0111176D01*
X0183154Y0110498D01*
X0182590Y0109721D01*
X0182154Y0108865D01*
X0181857Y0107952D01*
X0181707Y0107004D01*
X0181707Y0106708D01*
X0187623Y0106708D01*
X0187623Y0106339D01*
X0181707Y0106339D01*
X0181707Y0106044D01*
X0181857Y0105095D01*
X0182154Y0104182D01*
X0182590Y0103327D01*
X0182955Y0102824D01*
X0179296Y0102824D01*
X0179427Y0102955D01*
X0180387Y0105270D01*
X0180387Y0107777D01*
X0179427Y0110092D01*
X0177655Y0111864D01*
X0175340Y0112824D01*
X0172833Y0112824D01*
X0171521Y0112280D01*
X0165973Y0117828D01*
X0165017Y0118224D01*
X0117600Y0118224D01*
X0117600Y0142287D01*
X0117763Y0142124D01*
X0122237Y0142124D01*
X0125141Y0145028D01*
X0127846Y0142324D01*
X0130000Y0142324D01*
X0132154Y0142324D01*
X0135000Y0145170D01*
X0137846Y0142324D01*
X0140000Y0142324D01*
X0142154Y0142324D01*
X0145200Y0145370D01*
X0145200Y0147524D01*
X0145200Y0149678D01*
X0142154Y0152724D01*
X0140000Y0152724D01*
X0137846Y0152724D01*
X0135000Y0149878D01*
X0132154Y0152724D01*
X0130000Y0152724D01*
X0127846Y0152724D01*
X0125141Y0150019D01*
X0122237Y0152924D01*
X0122000Y0152924D01*
X0122000Y0154641D01*
X0121604Y0155596D01*
X0092343Y0184858D01*
X0092896Y0185087D01*
X0093937Y0186128D01*
X0094500Y0187488D01*
X0094500Y0188960D01*
X0093937Y0190320D01*
X0093400Y0190856D01*
X0093400Y0230724D01*
X0105563Y0230724D01*
X0105216Y0230376D01*
X0101472Y0230417D01*
X0101457Y0230424D01*
X0100916Y0230424D01*
X0100374Y0230430D01*
X0100359Y0230424D01*
X0100343Y0230424D01*
X0099843Y0230216D01*
X0099340Y0230015D01*
X0099329Y0230003D01*
X0099314Y0229997D01*
X0098931Y0229614D01*
X0098544Y0229236D01*
X0098538Y0229221D01*
X0098526Y0229210D01*
X0098319Y0228709D01*
X0098106Y0228211D01*
X0098106Y0228195D01*
X0098100Y0228181D01*
X0098100Y0227639D01*
X0098094Y0227097D01*
X0098100Y0227083D01*
X0098100Y0186856D01*
X0098091Y0186834D01*
X0098100Y0186300D01*
X0098100Y0185767D01*
X0098109Y0185744D01*
X0098110Y0185720D01*
X0098322Y0185231D01*
X0098526Y0184738D01*
X0098544Y0184720D01*
X0098553Y0184698D01*
X0098936Y0184327D01*
X0099314Y0183950D01*
X0099336Y0183941D01*
X0104600Y0178851D01*
X0104600Y0175287D01*
X0107763Y0172124D01*
X0112237Y0172124D01*
X0115000Y0174887D01*
X0117763Y0172124D01*
X0122237Y0172124D01*
X0124737Y0174624D01*
X0125263Y0174624D01*
X0127763Y0172124D01*
X0132237Y0172124D01*
X0135000Y0174887D01*
X0137763Y0172124D01*
X0142237Y0172124D01*
X0143200Y0173087D01*
X0143200Y0166806D01*
X0143596Y0165851D01*
X0144327Y0165119D01*
X0179527Y0129919D01*
X0180483Y0129524D01*
X0207917Y0129524D01*
X0208873Y0129919D01*
X0209604Y0130651D01*
X0212621Y0133668D01*
X0212621Y0094824D01*
X0063777Y0094824D01*
X0064674Y0095721D02*
X0076366Y0095721D01*
X0074628Y0097319D02*
X0066272Y0097319D01*
X0065636Y0105312D02*
X0065364Y0105312D01*
X0065364Y0106910D02*
X0065636Y0106910D01*
X0065636Y0108509D02*
X0065364Y0108509D01*
X0065053Y0110107D02*
X0065947Y0110107D01*
X0066939Y0111706D02*
X0064061Y0111706D01*
X0074061Y0111706D02*
X0076939Y0111706D01*
X0075947Y0110107D02*
X0075053Y0110107D01*
X0075364Y0108509D02*
X0075636Y0108509D01*
X0075636Y0106910D02*
X0075364Y0106910D01*
X0075364Y0105312D02*
X0075636Y0105312D01*
X0075587Y0103713D02*
X0075636Y0103713D01*
X0085364Y0103713D02*
X0085636Y0103713D01*
X0085636Y0102115D02*
X0085364Y0102115D01*
X0085364Y0101692D02*
X0085364Y0106511D01*
X0085636Y0106783D01*
X0085636Y0101692D01*
X0086078Y0100624D01*
X0084922Y0100624D01*
X0085364Y0101692D01*
X0085364Y0105312D02*
X0085636Y0105312D01*
X0084804Y0113304D02*
X0052700Y0113304D01*
X0052700Y0114903D02*
X0086402Y0114903D01*
X0088001Y0116501D02*
X0052700Y0116501D01*
X0052344Y0118100D02*
X0089984Y0118100D01*
X0092019Y0113024D02*
X0094423Y0113024D01*
X0093583Y0112184D01*
X0093255Y0112511D01*
X0092019Y0113024D01*
X0095636Y0106883D02*
X0095364Y0106611D01*
X0095364Y0101692D01*
X0094922Y0100624D01*
X0096078Y0100624D01*
X0095636Y0101692D01*
X0095636Y0106883D01*
X0095636Y0105312D02*
X0095364Y0105312D01*
X0095364Y0103713D02*
X0095636Y0103713D01*
X0095636Y0102115D02*
X0095364Y0102115D01*
X0104922Y0100624D02*
X0105364Y0101692D01*
X0105364Y0109355D01*
X0104756Y0110824D01*
X0106244Y0110824D01*
X0105636Y0109355D01*
X0105636Y0101692D01*
X0106078Y0100624D01*
X0104922Y0100624D01*
X0105364Y0102115D02*
X0105636Y0102115D01*
X0105636Y0103713D02*
X0105364Y0103713D01*
X0105364Y0105312D02*
X0105636Y0105312D01*
X0105636Y0106910D02*
X0105364Y0106910D01*
X0105364Y0108509D02*
X0105636Y0108509D01*
X0105947Y0110107D02*
X0105053Y0110107D01*
X0114756Y0110824D02*
X0128480Y0110824D01*
X0128154Y0110498D01*
X0127590Y0109721D01*
X0127154Y0108865D01*
X0126857Y0107952D01*
X0126707Y0107004D01*
X0126707Y0106708D01*
X0132623Y0106708D01*
X0132623Y0106339D01*
X0126707Y0106339D01*
X0126707Y0106044D01*
X0126857Y0105095D01*
X0127154Y0104182D01*
X0127590Y0103327D01*
X0128154Y0102550D01*
X0128833Y0101871D01*
X0129610Y0101306D01*
X0130465Y0100871D01*
X0131225Y0100624D01*
X0114922Y0100624D01*
X0115364Y0101692D01*
X0115364Y0109355D01*
X0114756Y0110824D01*
X0115053Y0110107D02*
X0127871Y0110107D01*
X0127038Y0108509D02*
X0115364Y0108509D01*
X0115364Y0106910D02*
X0126707Y0106910D01*
X0126823Y0105312D02*
X0115364Y0105312D01*
X0115364Y0103713D02*
X0127393Y0103713D01*
X0128589Y0102115D02*
X0115364Y0102115D01*
X0117600Y0119698D02*
X0212621Y0119698D01*
X0212621Y0118100D02*
X0165316Y0118100D01*
X0167299Y0116501D02*
X0212621Y0116501D01*
X0212621Y0114903D02*
X0168898Y0114903D01*
X0170496Y0113304D02*
X0212621Y0113304D01*
X0212621Y0111706D02*
X0205314Y0111706D01*
X0206913Y0110107D02*
X0212621Y0110107D01*
X0212621Y0108509D02*
X0207583Y0108509D01*
X0207887Y0106910D02*
X0212621Y0106910D01*
X0212621Y0105312D02*
X0207887Y0105312D01*
X0207242Y0103713D02*
X0212621Y0103713D01*
X0212621Y0102115D02*
X0206087Y0102115D01*
X0203546Y0100516D02*
X0212621Y0100516D01*
X0212621Y0098918D02*
X0193271Y0098918D01*
X0193104Y0098751D02*
X0193104Y0098751D01*
X0194869Y0100516D02*
X0199627Y0100516D01*
X0197086Y0102115D02*
X0196468Y0102115D01*
X0193910Y0106910D02*
X0193907Y0106910D01*
X0194196Y0107196D02*
X0194196Y0107196D01*
X0193576Y0108509D02*
X0195590Y0108509D01*
X0196261Y0110107D02*
X0192743Y0110107D01*
X0191052Y0111706D02*
X0197859Y0111706D01*
X0187991Y0111706D02*
X0187623Y0111706D01*
X0187623Y0110107D02*
X0187991Y0110107D01*
X0187991Y0108509D02*
X0187623Y0108509D01*
X0187623Y0106910D02*
X0187991Y0106910D01*
X0184562Y0111706D02*
X0177814Y0111706D01*
X0179413Y0110107D02*
X0182871Y0110107D01*
X0182038Y0108509D02*
X0180083Y0108509D01*
X0180387Y0106910D02*
X0181707Y0106910D01*
X0181823Y0105312D02*
X0180387Y0105312D01*
X0179742Y0103713D02*
X0182393Y0103713D01*
X0168877Y0102824D02*
X0165159Y0102824D01*
X0165524Y0103327D01*
X0165960Y0104182D01*
X0166257Y0105095D01*
X0166407Y0106044D01*
X0166407Y0106339D01*
X0160491Y0106339D01*
X0160491Y0106708D01*
X0160123Y0106708D01*
X0160123Y0112624D01*
X0159827Y0112624D01*
X0158879Y0112473D01*
X0157965Y0112177D01*
X0157110Y0111741D01*
X0156333Y0111176D01*
X0155679Y0110522D01*
X0153177Y0113024D01*
X0163423Y0113024D01*
X0168045Y0108401D01*
X0167787Y0107777D01*
X0167787Y0105270D01*
X0168746Y0102955D01*
X0168877Y0102824D01*
X0168432Y0103713D02*
X0165721Y0103713D01*
X0166291Y0105312D02*
X0167787Y0105312D01*
X0167787Y0106910D02*
X0166407Y0106910D01*
X0166407Y0107004D02*
X0166257Y0107952D01*
X0165960Y0108865D01*
X0165524Y0109721D01*
X0164960Y0110498D01*
X0164281Y0111176D01*
X0163504Y0111741D01*
X0162649Y0112177D01*
X0161736Y0112473D01*
X0160787Y0112624D01*
X0160491Y0112624D01*
X0160491Y0106708D01*
X0166407Y0106708D01*
X0166407Y0107004D01*
X0166076Y0108509D02*
X0167938Y0108509D01*
X0166339Y0110107D02*
X0165243Y0110107D01*
X0164741Y0111706D02*
X0163552Y0111706D01*
X0160491Y0111706D02*
X0160123Y0111706D01*
X0160123Y0110107D02*
X0160491Y0110107D01*
X0160491Y0108509D02*
X0160123Y0108509D01*
X0160123Y0106910D02*
X0160491Y0106910D01*
X0157062Y0111706D02*
X0154495Y0111706D01*
X0152332Y0102115D02*
X0151087Y0102115D01*
X0148546Y0100516D02*
X0153930Y0100516D01*
X0155529Y0098918D02*
X0142671Y0098918D01*
X0144269Y0100516D02*
X0144627Y0100516D01*
X0141072Y0097319D02*
X0212621Y0097319D01*
X0212621Y0095721D02*
X0139334Y0095721D01*
X0137023Y0100624D02*
X0134389Y0100624D01*
X0135149Y0100871D01*
X0136004Y0101306D01*
X0136781Y0101871D01*
X0137460Y0102550D01*
X0138024Y0103327D01*
X0138460Y0104182D01*
X0138757Y0105095D01*
X0138907Y0106044D01*
X0138907Y0106339D01*
X0132991Y0106339D01*
X0132991Y0106708D01*
X0138907Y0106708D01*
X0138907Y0107004D01*
X0138757Y0107952D01*
X0138460Y0108865D01*
X0138024Y0109721D01*
X0137460Y0110498D01*
X0137134Y0110824D01*
X0141977Y0110824D01*
X0141246Y0110092D01*
X0140287Y0107777D01*
X0140287Y0105270D01*
X0140692Y0104292D01*
X0137023Y0100624D01*
X0137025Y0102115D02*
X0138514Y0102115D01*
X0138221Y0103713D02*
X0140113Y0103713D01*
X0140287Y0105312D02*
X0138791Y0105312D01*
X0138907Y0106910D02*
X0140287Y0106910D01*
X0140590Y0108509D02*
X0138576Y0108509D01*
X0137743Y0110107D02*
X0141261Y0110107D01*
X0117600Y0121297D02*
X0212621Y0121297D01*
X0212621Y0122895D02*
X0117600Y0122895D01*
X0117600Y0124494D02*
X0212621Y0124494D01*
X0212621Y0126092D02*
X0117600Y0126092D01*
X0117600Y0127691D02*
X0212621Y0127691D01*
X0212621Y0129289D02*
X0117600Y0129289D01*
X0117600Y0130888D02*
X0178559Y0130888D01*
X0176960Y0132486D02*
X0117600Y0132486D01*
X0117600Y0134085D02*
X0175362Y0134085D01*
X0173763Y0135683D02*
X0117600Y0135683D01*
X0117600Y0137282D02*
X0172165Y0137282D01*
X0170566Y0138880D02*
X0117600Y0138880D01*
X0117600Y0140479D02*
X0168968Y0140479D01*
X0167369Y0142077D02*
X0117600Y0142077D01*
X0123789Y0143676D02*
X0126494Y0143676D01*
X0130000Y0143676D02*
X0130000Y0143676D01*
X0130000Y0142324D02*
X0130000Y0147523D01*
X0130000Y0147523D01*
X0130000Y0142324D01*
X0130000Y0145274D02*
X0130000Y0145274D01*
X0130000Y0146873D02*
X0130000Y0146873D01*
X0130000Y0147524D02*
X0130000Y0147524D01*
X0130000Y0152724D01*
X0130000Y0147524D01*
X0130000Y0147524D01*
X0140000Y0147524D01*
X0140000Y0152724D01*
X0140000Y0147524D01*
X0140000Y0147524D01*
X0145200Y0147524D01*
X0140000Y0147524D01*
X0140000Y0147524D01*
X0140000Y0147524D01*
X0134800Y0147524D01*
X0130000Y0147524D01*
X0130000Y0148472D02*
X0130000Y0148472D01*
X0130000Y0150070D02*
X0130000Y0150070D01*
X0130000Y0151669D02*
X0130000Y0151669D01*
X0126791Y0151669D02*
X0123492Y0151669D01*
X0122000Y0153267D02*
X0156180Y0153267D01*
X0157778Y0151669D02*
X0143209Y0151669D01*
X0144807Y0150070D02*
X0159377Y0150070D01*
X0160975Y0148472D02*
X0145200Y0148472D01*
X0145200Y0146873D02*
X0162574Y0146873D01*
X0164172Y0145274D02*
X0145105Y0145274D01*
X0143506Y0143676D02*
X0165771Y0143676D01*
X0168329Y0148472D02*
X0172830Y0148472D01*
X0173177Y0148124D02*
X0176823Y0148124D01*
X0177623Y0148924D01*
X0185716Y0148924D01*
X0187039Y0149472D01*
X0188052Y0150484D01*
X0188600Y0151808D01*
X0188600Y0168924D01*
X0199410Y0168924D01*
X0199300Y0168657D01*
X0199300Y0166390D01*
X0200168Y0164295D01*
X0201771Y0162691D01*
X0202176Y0162524D01*
X0201771Y0162356D01*
X0200168Y0160752D01*
X0199300Y0158657D01*
X0199300Y0156390D01*
X0200168Y0154295D01*
X0201771Y0152691D01*
X0202176Y0152524D01*
X0201771Y0152356D01*
X0200168Y0150752D01*
X0199300Y0148657D01*
X0199300Y0146390D01*
X0200168Y0144295D01*
X0201771Y0142691D01*
X0202176Y0142524D01*
X0201771Y0142356D01*
X0200168Y0140752D01*
X0199300Y0138657D01*
X0199300Y0136390D01*
X0199990Y0134724D01*
X0182077Y0134724D01*
X0157867Y0158933D01*
X0170600Y0151020D01*
X0170600Y0150701D01*
X0173177Y0148124D01*
X0171231Y0150070D02*
X0166731Y0150070D01*
X0165132Y0151669D02*
X0169556Y0151669D01*
X0166984Y0153267D02*
X0163534Y0153267D01*
X0164412Y0154866D02*
X0161935Y0154866D01*
X0161840Y0156464D02*
X0160336Y0156464D01*
X0159268Y0158063D02*
X0158738Y0158063D01*
X0154581Y0154866D02*
X0121907Y0154866D01*
X0120736Y0156464D02*
X0152983Y0156464D01*
X0151384Y0158063D02*
X0119138Y0158063D01*
X0117539Y0159661D02*
X0149786Y0159661D01*
X0148187Y0161260D02*
X0115941Y0161260D01*
X0114342Y0162858D02*
X0146589Y0162858D01*
X0144990Y0164457D02*
X0112744Y0164457D01*
X0111145Y0166055D02*
X0143511Y0166055D01*
X0143200Y0167654D02*
X0109547Y0167654D01*
X0107948Y0169252D02*
X0143200Y0169252D01*
X0143200Y0170851D02*
X0106350Y0170851D01*
X0107438Y0172449D02*
X0104751Y0172449D01*
X0105839Y0174048D02*
X0103153Y0174048D01*
X0104600Y0175646D02*
X0101554Y0175646D01*
X0099956Y0177245D02*
X0104600Y0177245D01*
X0104600Y0178843D02*
X0098357Y0178843D01*
X0096759Y0180442D02*
X0102955Y0180442D01*
X0101302Y0182040D02*
X0095160Y0182040D01*
X0093562Y0183639D02*
X0099649Y0183639D01*
X0098319Y0185237D02*
X0093046Y0185237D01*
X0094230Y0186836D02*
X0098092Y0186836D01*
X0098100Y0188434D02*
X0094500Y0188434D01*
X0094055Y0190033D02*
X0098100Y0190033D01*
X0098100Y0191631D02*
X0093400Y0191631D01*
X0093400Y0193230D02*
X0098100Y0193230D01*
X0098100Y0194828D02*
X0093400Y0194828D01*
X0093400Y0196427D02*
X0098100Y0196427D01*
X0098100Y0198025D02*
X0093400Y0198025D01*
X0093400Y0199624D02*
X0098100Y0199624D01*
X0098100Y0201222D02*
X0093400Y0201222D01*
X0093400Y0202821D02*
X0098100Y0202821D01*
X0098100Y0204419D02*
X0093400Y0204419D01*
X0093400Y0206018D02*
X0098100Y0206018D01*
X0098100Y0207616D02*
X0093400Y0207616D01*
X0093400Y0209215D02*
X0098100Y0209215D01*
X0098100Y0210813D02*
X0093400Y0210813D01*
X0093400Y0212412D02*
X0098100Y0212412D01*
X0098100Y0214010D02*
X0093400Y0214010D01*
X0093400Y0215609D02*
X0098100Y0215609D01*
X0098100Y0217208D02*
X0093400Y0217208D01*
X0093400Y0218806D02*
X0098100Y0218806D01*
X0098100Y0220405D02*
X0093400Y0220405D01*
X0093400Y0222003D02*
X0098100Y0222003D01*
X0098100Y0223602D02*
X0093400Y0223602D01*
X0093400Y0225200D02*
X0098100Y0225200D01*
X0098100Y0226799D02*
X0093400Y0226799D01*
X0093400Y0228397D02*
X0098186Y0228397D01*
X0099312Y0229996D02*
X0093400Y0229996D01*
X0093400Y0235924D02*
X0093400Y0248145D01*
X0095000Y0249745D01*
X0097722Y0247024D01*
X0102278Y0247024D01*
X0105000Y0249745D01*
X0107722Y0247024D01*
X0112278Y0247024D01*
X0115000Y0249745D01*
X0117722Y0247024D01*
X0122278Y0247024D01*
X0125000Y0249745D01*
X0127722Y0247024D01*
X0132278Y0247024D01*
X0135000Y0249745D01*
X0137722Y0247024D01*
X0142278Y0247024D01*
X0145000Y0249745D01*
X0146300Y0248445D01*
X0146300Y0182601D01*
X0135904Y0192996D01*
X0135173Y0193728D01*
X0134231Y0194118D01*
X0135141Y0195028D01*
X0137846Y0192324D01*
X0140000Y0192324D01*
X0142154Y0192324D01*
X0145200Y0195370D01*
X0145200Y0197524D01*
X0145200Y0199678D01*
X0142154Y0202724D01*
X0140000Y0202724D01*
X0137846Y0202724D01*
X0135141Y0200019D01*
X0132237Y0202924D01*
X0127763Y0202924D01*
X0125000Y0200160D01*
X0122237Y0202924D01*
X0117763Y0202924D01*
X0115000Y0200160D01*
X0112237Y0202924D01*
X0107763Y0202924D01*
X0104600Y0199760D01*
X0104600Y0195287D01*
X0107763Y0192124D01*
X0112237Y0192124D01*
X0114537Y0194424D01*
X0115463Y0194424D01*
X0117763Y0192124D01*
X0121723Y0192124D01*
X0124527Y0189319D01*
X0125483Y0188924D01*
X0132623Y0188924D01*
X0138623Y0182924D01*
X0137763Y0182924D01*
X0135000Y0180160D01*
X0132237Y0182924D01*
X0127763Y0182924D01*
X0125000Y0180160D01*
X0122237Y0182924D01*
X0117763Y0182924D01*
X0115000Y0180160D01*
X0112237Y0182924D01*
X0108444Y0182924D01*
X0103700Y0187511D01*
X0103700Y0224793D01*
X0105110Y0224777D01*
X0107763Y0222124D01*
X0112237Y0222124D01*
X0115000Y0224887D01*
X0117763Y0222124D01*
X0122237Y0222124D01*
X0125000Y0224887D01*
X0127763Y0222124D01*
X0132237Y0222124D01*
X0135000Y0224887D01*
X0137763Y0222124D01*
X0142237Y0222124D01*
X0145400Y0225287D01*
X0145400Y0229760D01*
X0142237Y0232924D01*
X0137763Y0232924D01*
X0136670Y0231830D01*
X0133704Y0234796D01*
X0132973Y0235528D01*
X0132017Y0235924D01*
X0093400Y0235924D01*
X0093400Y0236390D02*
X0146300Y0236390D01*
X0146300Y0237988D02*
X0093400Y0237988D01*
X0093400Y0239587D02*
X0146300Y0239587D01*
X0146300Y0241185D02*
X0093400Y0241185D01*
X0093400Y0242784D02*
X0146300Y0242784D01*
X0146300Y0244382D02*
X0093400Y0244382D01*
X0093400Y0245981D02*
X0146300Y0245981D01*
X0146300Y0247579D02*
X0142834Y0247579D01*
X0144432Y0249178D02*
X0145568Y0249178D01*
X0145000Y0255302D02*
X0142278Y0258024D01*
X0137722Y0258024D01*
X0135000Y0255302D01*
X0132278Y0258024D01*
X0127722Y0258024D01*
X0125000Y0255302D01*
X0122278Y0258024D01*
X0117722Y0258024D01*
X0115000Y0255302D01*
X0112278Y0258024D01*
X0107722Y0258024D01*
X0105000Y0255302D01*
X0102278Y0258024D01*
X0098377Y0258024D01*
X0088973Y0267428D01*
X0088017Y0267824D01*
X0086983Y0267824D01*
X0046809Y0267824D01*
X0057306Y0275024D01*
X0139365Y0275024D01*
X0172740Y0247441D01*
X0169996Y0244696D01*
X0169600Y0243741D01*
X0169600Y0231146D01*
X0168823Y0231924D01*
X0165177Y0231924D01*
X0162600Y0229346D01*
X0162600Y0225701D01*
X0165050Y0223251D01*
X0155696Y0213896D01*
X0155300Y0212941D01*
X0155300Y0191924D01*
X0155177Y0191924D01*
X0153500Y0190246D01*
X0153500Y0224801D01*
X0155177Y0223124D01*
X0158823Y0223124D01*
X0161400Y0225701D01*
X0161400Y0229346D01*
X0158823Y0231924D01*
X0155177Y0231924D01*
X0153500Y0230246D01*
X0153500Y0248245D01*
X0155500Y0250245D01*
X0155500Y0254802D01*
X0152278Y0258024D01*
X0147722Y0258024D01*
X0145000Y0255302D01*
X0144730Y0255572D02*
X0145270Y0255572D01*
X0146869Y0257170D02*
X0143131Y0257170D01*
X0136869Y0257170D02*
X0133131Y0257170D01*
X0134730Y0255572D02*
X0135270Y0255572D01*
X0135568Y0249178D02*
X0134432Y0249178D01*
X0132834Y0247579D02*
X0137166Y0247579D01*
X0133709Y0234791D02*
X0146300Y0234791D01*
X0146300Y0233193D02*
X0135308Y0233193D01*
X0136285Y0223602D02*
X0133715Y0223602D01*
X0126285Y0223602D02*
X0123715Y0223602D01*
X0124737Y0230424D02*
X0124437Y0230724D01*
X0125563Y0230724D01*
X0125263Y0230424D01*
X0124737Y0230424D01*
X0115563Y0230724D02*
X0115000Y0230160D01*
X0114437Y0230724D01*
X0115563Y0230724D01*
X0110000Y0227524D02*
X0100900Y0227624D01*
X0100900Y0186324D01*
X0110000Y0177524D01*
X0114161Y0174048D02*
X0115839Y0174048D01*
X0117438Y0172449D02*
X0112562Y0172449D01*
X0114719Y0180442D02*
X0115281Y0180442D01*
X0116880Y0182040D02*
X0113120Y0182040D01*
X0107704Y0183639D02*
X0137908Y0183639D01*
X0136880Y0182040D02*
X0133120Y0182040D01*
X0134719Y0180442D02*
X0135281Y0180442D01*
X0136309Y0185237D02*
X0106051Y0185237D01*
X0104398Y0186836D02*
X0134711Y0186836D01*
X0133112Y0188434D02*
X0103700Y0188434D01*
X0103700Y0190033D02*
X0123814Y0190033D01*
X0122215Y0191631D02*
X0103700Y0191631D01*
X0103700Y0193230D02*
X0106657Y0193230D01*
X0105059Y0194828D02*
X0103700Y0194828D01*
X0103700Y0196427D02*
X0104600Y0196427D01*
X0104600Y0198025D02*
X0103700Y0198025D01*
X0103700Y0199624D02*
X0104600Y0199624D01*
X0103700Y0201222D02*
X0106062Y0201222D01*
X0107661Y0202821D02*
X0103700Y0202821D01*
X0103700Y0204419D02*
X0146300Y0204419D01*
X0146300Y0202821D02*
X0132339Y0202821D01*
X0133938Y0201222D02*
X0136345Y0201222D01*
X0140000Y0201222D02*
X0140000Y0201222D01*
X0140000Y0202724D02*
X0140000Y0197524D01*
X0140000Y0197524D01*
X0140000Y0202724D01*
X0140000Y0199624D02*
X0140000Y0199624D01*
X0140000Y0198025D02*
X0140000Y0198025D01*
X0140000Y0197524D02*
X0145200Y0197524D01*
X0140000Y0197524D01*
X0140000Y0197524D01*
X0140000Y0197523D02*
X0140000Y0192324D01*
X0140000Y0197523D01*
X0140000Y0197523D01*
X0140000Y0196427D02*
X0140000Y0196427D01*
X0140000Y0194828D02*
X0140000Y0194828D01*
X0140000Y0193230D02*
X0140000Y0193230D01*
X0143060Y0193230D02*
X0146300Y0193230D01*
X0146300Y0194828D02*
X0144659Y0194828D01*
X0145200Y0196427D02*
X0146300Y0196427D01*
X0146300Y0198025D02*
X0145200Y0198025D01*
X0145200Y0199624D02*
X0146300Y0199624D01*
X0146300Y0201222D02*
X0143655Y0201222D01*
X0146300Y0206018D02*
X0103700Y0206018D01*
X0103700Y0207616D02*
X0146300Y0207616D01*
X0146300Y0209215D02*
X0103700Y0209215D01*
X0103700Y0210813D02*
X0146300Y0210813D01*
X0146300Y0212412D02*
X0103700Y0212412D01*
X0103700Y0214010D02*
X0146300Y0214010D01*
X0146300Y0215609D02*
X0103700Y0215609D01*
X0103700Y0217208D02*
X0146300Y0217208D01*
X0146300Y0218806D02*
X0103700Y0218806D01*
X0103700Y0220405D02*
X0146300Y0220405D01*
X0146300Y0222003D02*
X0103700Y0222003D01*
X0103700Y0223602D02*
X0106285Y0223602D01*
X0113715Y0223602D02*
X0116285Y0223602D01*
X0117661Y0202821D02*
X0112339Y0202821D01*
X0113938Y0201222D02*
X0116062Y0201222D01*
X0122339Y0202821D02*
X0127661Y0202821D01*
X0126062Y0201222D02*
X0123938Y0201222D01*
X0116657Y0193230D02*
X0113343Y0193230D01*
X0123120Y0182040D02*
X0126880Y0182040D01*
X0125281Y0180442D02*
X0124719Y0180442D01*
X0124161Y0174048D02*
X0125839Y0174048D01*
X0127438Y0172449D02*
X0122562Y0172449D01*
X0132562Y0172449D02*
X0137438Y0172449D01*
X0135839Y0174048D02*
X0134161Y0174048D01*
X0142562Y0172449D02*
X0143200Y0172449D01*
X0153500Y0172449D02*
X0170800Y0172449D01*
X0170800Y0172524D02*
X0170800Y0170784D01*
X0173260Y0168324D01*
X0175000Y0168324D01*
X0176740Y0168324D01*
X0179200Y0170784D01*
X0179200Y0172524D01*
X0179200Y0174263D01*
X0176740Y0176724D01*
X0175000Y0176724D01*
X0173260Y0176724D01*
X0170800Y0174263D01*
X0170800Y0172524D01*
X0175000Y0172524D01*
X0175000Y0176724D01*
X0175000Y0172524D01*
X0175000Y0172524D01*
X0179200Y0172524D01*
X0175000Y0172524D01*
X0175000Y0172524D01*
X0175000Y0172524D01*
X0170800Y0172524D01*
X0170800Y0174048D02*
X0153500Y0174048D01*
X0153500Y0175646D02*
X0172183Y0175646D01*
X0175000Y0175646D02*
X0175000Y0175646D01*
X0175000Y0174048D02*
X0175000Y0174048D01*
X0175000Y0172523D02*
X0175000Y0168324D01*
X0175000Y0172523D01*
X0175000Y0172523D01*
X0175000Y0172449D02*
X0175000Y0172449D01*
X0175000Y0170851D02*
X0175000Y0170851D01*
X0175000Y0169252D02*
X0175000Y0169252D01*
X0177668Y0169252D02*
X0181400Y0169252D01*
X0181400Y0167654D02*
X0157476Y0167654D01*
X0154904Y0169252D02*
X0172332Y0169252D01*
X0170800Y0170851D02*
X0153500Y0170851D01*
X0153500Y0170125D02*
X0153500Y0184801D01*
X0155177Y0183124D01*
X0158823Y0183124D01*
X0161400Y0185701D01*
X0161400Y0189346D01*
X0160500Y0190246D01*
X0160500Y0211347D01*
X0173673Y0224519D01*
X0173727Y0224574D01*
X0175177Y0223124D01*
X0178823Y0223124D01*
X0181400Y0225701D01*
X0181400Y0229346D01*
X0178823Y0231924D01*
X0175177Y0231924D01*
X0174800Y0231546D01*
X0174800Y0242147D01*
X0177677Y0245024D01*
X0199866Y0245024D01*
X0200168Y0244295D01*
X0201771Y0242691D01*
X0202176Y0242524D01*
X0201771Y0242356D01*
X0200168Y0240752D01*
X0199300Y0238657D01*
X0199300Y0236390D01*
X0199560Y0235761D01*
X0165596Y0201796D01*
X0165200Y0200841D01*
X0165200Y0191924D01*
X0165177Y0191924D01*
X0162600Y0189346D01*
X0162600Y0185701D01*
X0165177Y0183124D01*
X0168823Y0183124D01*
X0171400Y0185701D01*
X0171400Y0189346D01*
X0170400Y0190346D01*
X0170400Y0199247D01*
X0199300Y0228147D01*
X0199300Y0226390D01*
X0199531Y0225832D01*
X0175496Y0201796D01*
X0175100Y0200841D01*
X0175100Y0191846D01*
X0172600Y0189346D01*
X0172600Y0185701D01*
X0175177Y0183124D01*
X0178823Y0183124D01*
X0181400Y0185701D01*
X0181400Y0189346D01*
X0180300Y0190446D01*
X0180300Y0199247D01*
X0203167Y0222113D01*
X0203866Y0221824D01*
X0206134Y0221824D01*
X0208100Y0222638D01*
X0208100Y0212409D01*
X0206134Y0213224D01*
X0203866Y0213224D01*
X0201771Y0212356D01*
X0200168Y0210752D01*
X0199300Y0208657D01*
X0199300Y0206390D01*
X0200168Y0204295D01*
X0201771Y0202691D01*
X0202464Y0202404D01*
X0202117Y0202228D01*
X0201417Y0201719D01*
X0200805Y0201107D01*
X0200296Y0200406D01*
X0199903Y0199635D01*
X0199635Y0198812D01*
X0199500Y0197956D01*
X0199500Y0197724D01*
X0204800Y0197724D01*
X0204800Y0197324D01*
X0199500Y0197324D01*
X0199500Y0197091D01*
X0199635Y0196236D01*
X0199903Y0195412D01*
X0200296Y0194641D01*
X0200805Y0193941D01*
X0201417Y0193328D01*
X0202117Y0192820D01*
X0202698Y0192524D01*
X0202117Y0192228D01*
X0201417Y0191719D01*
X0200805Y0191107D01*
X0200296Y0190406D01*
X0199903Y0189635D01*
X0199635Y0188812D01*
X0199500Y0187956D01*
X0199500Y0187724D01*
X0204800Y0187724D01*
X0204800Y0197324D01*
X0205200Y0197324D01*
X0205200Y0192024D01*
X0205200Y0187724D01*
X0204800Y0187724D01*
X0204800Y0187324D01*
X0199500Y0187324D01*
X0199500Y0187091D01*
X0199635Y0186236D01*
X0199903Y0185412D01*
X0200296Y0184641D01*
X0200805Y0183941D01*
X0201417Y0183328D01*
X0202117Y0182820D01*
X0202464Y0182643D01*
X0201771Y0182356D01*
X0200168Y0180752D01*
X0199300Y0178657D01*
X0199300Y0176915D01*
X0198509Y0176124D01*
X0186284Y0176124D01*
X0184961Y0175576D01*
X0182961Y0173576D01*
X0181948Y0172563D01*
X0181400Y0171240D01*
X0181400Y0156124D01*
X0177623Y0156124D01*
X0176823Y0156924D01*
X0174740Y0156924D01*
X0153500Y0170125D01*
X0153500Y0177245D02*
X0199300Y0177245D01*
X0199377Y0178843D02*
X0153500Y0178843D01*
X0153500Y0180442D02*
X0200039Y0180442D01*
X0201456Y0182040D02*
X0153500Y0182040D01*
X0153500Y0183639D02*
X0154662Y0183639D01*
X0159338Y0183639D02*
X0164662Y0183639D01*
X0163064Y0185237D02*
X0160936Y0185237D01*
X0161400Y0186836D02*
X0162600Y0186836D01*
X0162600Y0188434D02*
X0161400Y0188434D01*
X0160713Y0190033D02*
X0163287Y0190033D01*
X0164885Y0191631D02*
X0160500Y0191631D01*
X0160500Y0193230D02*
X0165200Y0193230D01*
X0165200Y0194828D02*
X0160500Y0194828D01*
X0160500Y0196427D02*
X0165200Y0196427D01*
X0165200Y0198025D02*
X0160500Y0198025D01*
X0160500Y0199624D02*
X0165200Y0199624D01*
X0165358Y0201222D02*
X0160500Y0201222D01*
X0160500Y0202821D02*
X0166620Y0202821D01*
X0168219Y0204419D02*
X0160500Y0204419D01*
X0160500Y0206018D02*
X0169817Y0206018D01*
X0171416Y0207616D02*
X0160500Y0207616D01*
X0160500Y0209215D02*
X0173014Y0209215D01*
X0174613Y0210813D02*
X0160500Y0210813D01*
X0161565Y0212412D02*
X0176211Y0212412D01*
X0177810Y0214010D02*
X0163164Y0214010D01*
X0164762Y0215609D02*
X0179408Y0215609D01*
X0181007Y0217208D02*
X0166361Y0217208D01*
X0167959Y0218806D02*
X0182605Y0218806D01*
X0184204Y0220405D02*
X0169558Y0220405D01*
X0171156Y0222003D02*
X0185802Y0222003D01*
X0187401Y0223602D02*
X0179300Y0223602D01*
X0180899Y0225200D02*
X0189000Y0225200D01*
X0190598Y0226799D02*
X0181400Y0226799D01*
X0181400Y0228397D02*
X0192197Y0228397D01*
X0193795Y0229996D02*
X0180751Y0229996D01*
X0179152Y0231594D02*
X0195394Y0231594D01*
X0196992Y0233193D02*
X0174800Y0233193D01*
X0174800Y0234791D02*
X0198591Y0234791D01*
X0199300Y0236390D02*
X0174800Y0236390D01*
X0174800Y0237988D02*
X0199300Y0237988D01*
X0199685Y0239587D02*
X0174800Y0239587D01*
X0174800Y0241185D02*
X0200601Y0241185D01*
X0201679Y0242784D02*
X0175437Y0242784D01*
X0177036Y0244382D02*
X0200132Y0244382D01*
X0199949Y0250224D02*
X0177535Y0250224D01*
X0170517Y0256024D01*
X0170736Y0256024D01*
X0172096Y0256587D01*
X0173137Y0257628D01*
X0173700Y0258988D01*
X0173700Y0260460D01*
X0173137Y0261820D01*
X0172096Y0262860D01*
X0170736Y0263424D01*
X0169264Y0263424D01*
X0168017Y0262907D01*
X0142447Y0283853D01*
X0142173Y0284128D01*
X0142050Y0284179D01*
X0141948Y0284263D01*
X0141576Y0284375D01*
X0141217Y0284524D01*
X0141084Y0284524D01*
X0140957Y0284562D01*
X0140571Y0284524D01*
X0054276Y0284524D01*
X0053937Y0284570D01*
X0053763Y0284524D01*
X0053583Y0284524D01*
X0053267Y0284393D01*
X0052937Y0284306D01*
X0052794Y0284197D01*
X0052627Y0284128D01*
X0052386Y0283886D01*
X0032294Y0268597D01*
X0032127Y0268528D01*
X0031886Y0268286D01*
X0031614Y0268079D01*
X0031523Y0267924D01*
X0031396Y0267796D01*
X0031265Y0267481D01*
X0031093Y0267186D01*
X0031069Y0267007D01*
X0031000Y0266841D01*
X0031000Y0266499D01*
X0030954Y0266161D01*
X0031000Y0265987D01*
X0031000Y0264458D01*
X0030508Y0264254D01*
X0029270Y0263016D01*
X0028600Y0261399D01*
X0028600Y0259648D01*
X0029270Y0258031D01*
X0029850Y0257451D01*
X0023327Y0250928D01*
X0022596Y0250196D01*
X0022200Y0249241D01*
X0022200Y0195406D01*
X0022596Y0194451D01*
X0026996Y0190051D01*
X0027727Y0189319D01*
X0028683Y0188924D01*
X0046217Y0188924D01*
X0047173Y0189319D01*
X0049977Y0192124D01*
X0052823Y0192124D01*
X0055400Y0194701D01*
X0055400Y0198346D01*
X0052823Y0200924D01*
X0049177Y0200924D01*
X0046600Y0198346D01*
X0046600Y0196101D01*
X0044623Y0194124D01*
X0044540Y0194124D01*
X0045200Y0194784D01*
X0045200Y0196524D01*
X0045200Y0198263D01*
X0042740Y0200724D01*
X0041000Y0200724D01*
X0039260Y0200724D01*
X0036800Y0198263D01*
X0036800Y0196524D01*
X0041000Y0196524D01*
X0041000Y0200724D01*
X0041000Y0196524D01*
X0041000Y0196524D01*
X0045200Y0196524D01*
X0041000Y0196524D01*
X0041000Y0196524D01*
X0041000Y0196524D01*
X0036800Y0196524D01*
X0036800Y0194784D01*
X0037460Y0194124D01*
X0034440Y0194124D01*
X0035100Y0194784D01*
X0035100Y0196524D01*
X0035100Y0198263D01*
X0032640Y0200724D01*
X0030900Y0200724D01*
X0029160Y0200724D01*
X0027400Y0198963D01*
X0027400Y0202901D01*
X0029177Y0201124D01*
X0032823Y0201124D01*
X0035400Y0203701D01*
X0035400Y0207346D01*
X0032900Y0209846D01*
X0032900Y0240441D01*
X0032534Y0241324D01*
X0032740Y0241324D01*
X0035200Y0243784D01*
X0035200Y0245524D01*
X0035200Y0247263D01*
X0032758Y0249705D01*
X0045677Y0262624D01*
X0049160Y0262624D01*
X0048800Y0262263D01*
X0048800Y0260524D01*
X0053000Y0260524D01*
X0057200Y0260524D01*
X0057200Y0262263D01*
X0056840Y0262624D01*
X0086423Y0262624D01*
X0091023Y0258024D01*
X0087722Y0258024D01*
X0084859Y0255160D01*
X0082195Y0257824D01*
X0080200Y0257824D01*
X0080200Y0252724D01*
X0079800Y0252724D01*
X0079800Y0257824D01*
X0077805Y0257824D01*
X0074700Y0254719D01*
X0074700Y0252724D01*
X0079800Y0252724D01*
X0079800Y0252324D01*
X0074700Y0252324D01*
X0074700Y0250328D01*
X0077805Y0247224D01*
X0079800Y0247224D01*
X0079800Y0252324D01*
X0080200Y0252324D01*
X0080200Y0247224D01*
X0082195Y0247224D01*
X0084859Y0249887D01*
X0087722Y0247024D01*
X0088200Y0247024D01*
X0088200Y0190856D01*
X0087663Y0190320D01*
X0087434Y0189766D01*
X0075004Y0202196D01*
X0074450Y0202751D01*
X0075400Y0203701D01*
X0075400Y0207346D01*
X0072823Y0209924D01*
X0069177Y0209924D01*
X0066600Y0207346D01*
X0066600Y0203701D01*
X0066977Y0203324D01*
X0065626Y0203324D01*
X0065353Y0203654D01*
X0065400Y0203701D01*
X0065400Y0207346D01*
X0063700Y0209046D01*
X0063700Y0234447D01*
X0070377Y0241124D01*
X0072823Y0241124D01*
X0075400Y0243701D01*
X0075400Y0247346D01*
X0072823Y0249924D01*
X0069177Y0249924D01*
X0066600Y0247346D01*
X0066600Y0244701D01*
X0058896Y0236996D01*
X0058500Y0236041D01*
X0058500Y0209246D01*
X0056600Y0207346D01*
X0056600Y0203701D01*
X0059177Y0201124D01*
X0060699Y0201124D01*
X0061029Y0200724D01*
X0061000Y0200724D01*
X0059260Y0200724D01*
X0056800Y0198263D01*
X0056800Y0196524D01*
X0061000Y0196524D01*
X0061000Y0200724D01*
X0061000Y0196524D01*
X0061000Y0196524D01*
X0065200Y0196524D01*
X0065200Y0198124D01*
X0066800Y0198124D01*
X0066800Y0196524D01*
X0071000Y0196524D01*
X0071000Y0198124D01*
X0071000Y0198124D01*
X0071000Y0196524D01*
X0071000Y0196524D01*
X0071000Y0196524D01*
X0066800Y0196524D01*
X0066800Y0194784D01*
X0069260Y0192324D01*
X0071000Y0192324D01*
X0072740Y0192324D01*
X0075131Y0194715D01*
X0082623Y0187224D01*
X0082000Y0187224D01*
X0080260Y0187224D01*
X0077800Y0184763D01*
X0077800Y0184224D01*
X0020465Y0184224D01*
X0019832Y0185752D01*
X0018229Y0187356D01*
X0017824Y0187524D01*
X0018229Y0187691D01*
X0019832Y0189295D01*
X0020700Y0191390D01*
X0020700Y0193657D01*
X0019832Y0195752D01*
X0018229Y0197356D01*
X0016134Y0198224D01*
X0013866Y0198224D01*
X0011771Y0197356D01*
X0010168Y0195752D01*
X0009300Y0193657D01*
X0009300Y0191390D01*
X0010168Y0189295D01*
X0011771Y0187691D01*
X0012176Y0187524D01*
X0011771Y0187356D01*
X0010168Y0185752D01*
X0009300Y0183657D01*
X0009300Y0181390D01*
X0010168Y0179295D01*
X0011771Y0177691D01*
X0012176Y0177524D01*
X0011771Y0177356D01*
X0010168Y0175752D01*
X0009300Y0173657D01*
X0009300Y0171390D01*
X0009765Y0170266D01*
X0007927Y0168428D01*
X0007221Y0167722D01*
X0007221Y0285615D01*
X0212621Y0284832D01*
X0212621Y0261479D01*
X0212173Y0261928D01*
X0209819Y0264282D01*
X0209832Y0264295D01*
X0210700Y0266390D01*
X0210700Y0268657D01*
X0209832Y0270752D01*
X0208229Y0272356D01*
X0207824Y0272524D01*
X0208229Y0272691D01*
X0209832Y0274295D01*
X0210700Y0276390D01*
X0210700Y0278657D01*
X0209832Y0280752D01*
X0208229Y0282356D01*
X0206134Y0283224D01*
X0203866Y0283224D01*
X0201771Y0282356D01*
X0200168Y0280752D01*
X0199300Y0278657D01*
X0199300Y0276390D01*
X0199355Y0276256D01*
X0181023Y0257924D01*
X0180264Y0257924D01*
X0178904Y0257360D01*
X0177863Y0256320D01*
X0177300Y0254960D01*
X0177300Y0253488D01*
X0177863Y0252128D01*
X0178904Y0251087D01*
X0180264Y0250524D01*
X0181736Y0250524D01*
X0183096Y0251087D01*
X0184137Y0252128D01*
X0184700Y0253488D01*
X0184700Y0254247D01*
X0199434Y0268981D01*
X0199300Y0268657D01*
X0199300Y0266390D01*
X0200168Y0264295D01*
X0201771Y0262691D01*
X0202176Y0262524D01*
X0201771Y0262356D01*
X0200168Y0260752D01*
X0199300Y0258657D01*
X0199300Y0256390D01*
X0200168Y0254295D01*
X0201771Y0252691D01*
X0202176Y0252524D01*
X0201771Y0252356D01*
X0200168Y0250752D01*
X0199949Y0250224D01*
X0200192Y0250776D02*
X0182346Y0250776D01*
X0184239Y0252375D02*
X0201817Y0252375D01*
X0200489Y0253973D02*
X0184700Y0253973D01*
X0186025Y0255572D02*
X0199639Y0255572D01*
X0199300Y0257170D02*
X0187624Y0257170D01*
X0189222Y0258769D02*
X0199346Y0258769D01*
X0200008Y0260367D02*
X0190821Y0260367D01*
X0192419Y0261966D02*
X0201381Y0261966D01*
X0200898Y0263564D02*
X0194018Y0263564D01*
X0195616Y0265163D02*
X0199808Y0265163D01*
X0199300Y0266761D02*
X0197215Y0266761D01*
X0198813Y0268360D02*
X0199300Y0268360D01*
X0194656Y0271557D02*
X0179499Y0271557D01*
X0179290Y0271053D02*
X0180599Y0274213D01*
X0180599Y0277634D01*
X0179290Y0280795D01*
X0176871Y0283214D01*
X0173710Y0284523D01*
X0170290Y0284523D01*
X0167129Y0283214D01*
X0164710Y0280795D01*
X0163401Y0277634D01*
X0163401Y0274213D01*
X0164710Y0271053D01*
X0167129Y0268634D01*
X0170290Y0267324D01*
X0173710Y0267324D01*
X0176871Y0268634D01*
X0179290Y0271053D01*
X0178196Y0269958D02*
X0193058Y0269958D01*
X0191459Y0268360D02*
X0176210Y0268360D01*
X0180161Y0273155D02*
X0196255Y0273155D01*
X0197853Y0274754D02*
X0180599Y0274754D01*
X0180599Y0276352D02*
X0199315Y0276352D01*
X0199300Y0277951D02*
X0180468Y0277951D01*
X0179806Y0279549D02*
X0199669Y0279549D01*
X0200563Y0281148D02*
X0178937Y0281148D01*
X0177338Y0282746D02*
X0202714Y0282746D01*
X0207286Y0282746D02*
X0212621Y0282746D01*
X0212621Y0281148D02*
X0209437Y0281148D01*
X0210331Y0279549D02*
X0212621Y0279549D01*
X0212621Y0277951D02*
X0210700Y0277951D01*
X0210684Y0276352D02*
X0212621Y0276352D01*
X0212621Y0274754D02*
X0210022Y0274754D01*
X0208693Y0273155D02*
X0212621Y0273155D01*
X0212621Y0271557D02*
X0209028Y0271557D01*
X0210161Y0269958D02*
X0212621Y0269958D01*
X0212621Y0268360D02*
X0210700Y0268360D01*
X0210700Y0266761D02*
X0212621Y0266761D01*
X0212621Y0265163D02*
X0210192Y0265163D01*
X0210536Y0263564D02*
X0212621Y0263564D01*
X0212621Y0261966D02*
X0212135Y0261966D01*
X0208100Y0252638D02*
X0208100Y0252409D01*
X0207824Y0252524D01*
X0208100Y0252638D01*
X0208100Y0242638D02*
X0208100Y0242409D01*
X0207824Y0242524D01*
X0208100Y0242638D01*
X0208100Y0232638D02*
X0208100Y0232409D01*
X0207824Y0232524D01*
X0208100Y0232638D01*
X0208100Y0222003D02*
X0206567Y0222003D01*
X0208100Y0220405D02*
X0201458Y0220405D01*
X0203056Y0222003D02*
X0203433Y0222003D01*
X0199859Y0218806D02*
X0208100Y0218806D01*
X0208100Y0217208D02*
X0198261Y0217208D01*
X0196662Y0215609D02*
X0208100Y0215609D01*
X0208100Y0214010D02*
X0195064Y0214010D01*
X0193465Y0212412D02*
X0201907Y0212412D01*
X0200229Y0210813D02*
X0191867Y0210813D01*
X0190268Y0209215D02*
X0199531Y0209215D01*
X0199300Y0207616D02*
X0188670Y0207616D01*
X0187071Y0206018D02*
X0199454Y0206018D01*
X0200116Y0204419D02*
X0185473Y0204419D01*
X0183874Y0202821D02*
X0201642Y0202821D01*
X0200921Y0201222D02*
X0182276Y0201222D01*
X0180677Y0199624D02*
X0199899Y0199624D01*
X0199511Y0198025D02*
X0180300Y0198025D01*
X0180300Y0196427D02*
X0199605Y0196427D01*
X0200201Y0194828D02*
X0180300Y0194828D01*
X0180300Y0193230D02*
X0201553Y0193230D01*
X0201330Y0191631D02*
X0180300Y0191631D01*
X0180713Y0190033D02*
X0200106Y0190033D01*
X0199576Y0188434D02*
X0181400Y0188434D01*
X0181400Y0186836D02*
X0199540Y0186836D01*
X0199992Y0185237D02*
X0180936Y0185237D01*
X0179338Y0183639D02*
X0201107Y0183639D01*
X0204800Y0188434D02*
X0205200Y0188434D01*
X0205200Y0190033D02*
X0204800Y0190033D01*
X0204800Y0191631D02*
X0205200Y0191631D01*
X0205200Y0193230D02*
X0204800Y0193230D01*
X0204800Y0194828D02*
X0205200Y0194828D01*
X0205200Y0196427D02*
X0204800Y0196427D01*
X0207302Y0192524D02*
X0207883Y0192820D01*
X0208100Y0192978D01*
X0208100Y0192070D01*
X0207883Y0192228D01*
X0207302Y0192524D01*
X0208100Y0202070D02*
X0207883Y0202228D01*
X0207536Y0202404D01*
X0208100Y0202638D01*
X0208100Y0202070D01*
X0208093Y0212412D02*
X0208100Y0212412D01*
X0197301Y0223602D02*
X0194755Y0223602D01*
X0195702Y0222003D02*
X0193156Y0222003D01*
X0194104Y0220405D02*
X0191558Y0220405D01*
X0192505Y0218806D02*
X0189959Y0218806D01*
X0190907Y0217208D02*
X0188361Y0217208D01*
X0189308Y0215609D02*
X0186762Y0215609D01*
X0187710Y0214010D02*
X0185164Y0214010D01*
X0186111Y0212412D02*
X0183565Y0212412D01*
X0184513Y0210813D02*
X0181967Y0210813D01*
X0182914Y0209215D02*
X0180368Y0209215D01*
X0181316Y0207616D02*
X0178770Y0207616D01*
X0179717Y0206018D02*
X0177171Y0206018D01*
X0178119Y0204419D02*
X0175573Y0204419D01*
X0176520Y0202821D02*
X0173974Y0202821D01*
X0175258Y0201222D02*
X0172376Y0201222D01*
X0170777Y0199624D02*
X0175100Y0199624D01*
X0175100Y0198025D02*
X0170400Y0198025D01*
X0170400Y0196427D02*
X0175100Y0196427D01*
X0175100Y0194828D02*
X0170400Y0194828D01*
X0170400Y0193230D02*
X0175100Y0193230D01*
X0174885Y0191631D02*
X0170400Y0191631D01*
X0170713Y0190033D02*
X0173287Y0190033D01*
X0172600Y0188434D02*
X0171400Y0188434D01*
X0171400Y0186836D02*
X0172600Y0186836D01*
X0173064Y0185237D02*
X0170936Y0185237D01*
X0169338Y0183639D02*
X0174662Y0183639D01*
X0177817Y0175646D02*
X0185131Y0175646D01*
X0183433Y0174048D02*
X0179200Y0174048D01*
X0179200Y0172449D02*
X0181901Y0172449D01*
X0181400Y0170851D02*
X0179200Y0170851D01*
X0181400Y0166055D02*
X0160048Y0166055D01*
X0162620Y0164457D02*
X0181400Y0164457D01*
X0181400Y0162858D02*
X0165192Y0162858D01*
X0167764Y0161260D02*
X0181400Y0161260D01*
X0181400Y0159661D02*
X0170336Y0159661D01*
X0172908Y0158063D02*
X0181400Y0158063D01*
X0181400Y0156464D02*
X0177282Y0156464D01*
X0177170Y0148472D02*
X0199300Y0148472D01*
X0199300Y0146873D02*
X0169928Y0146873D01*
X0171526Y0145274D02*
X0199762Y0145274D01*
X0200787Y0143676D02*
X0173125Y0143676D01*
X0174723Y0142077D02*
X0201493Y0142077D01*
X0200055Y0140479D02*
X0176322Y0140479D01*
X0177920Y0138880D02*
X0199392Y0138880D01*
X0199300Y0137282D02*
X0179519Y0137282D01*
X0181117Y0135683D02*
X0199593Y0135683D01*
X0207824Y0142524D02*
X0208100Y0142409D01*
X0208100Y0142638D01*
X0207824Y0142524D01*
X0208100Y0152409D02*
X0207824Y0152524D01*
X0208100Y0152638D01*
X0208100Y0152409D01*
X0201196Y0153267D02*
X0188600Y0153267D01*
X0188600Y0154866D02*
X0199931Y0154866D01*
X0199300Y0156464D02*
X0188600Y0156464D01*
X0188600Y0158063D02*
X0199300Y0158063D01*
X0199716Y0159661D02*
X0188600Y0159661D01*
X0188600Y0161260D02*
X0200675Y0161260D01*
X0201604Y0162858D02*
X0188600Y0162858D01*
X0188600Y0164457D02*
X0200101Y0164457D01*
X0199439Y0166055D02*
X0188600Y0166055D01*
X0188600Y0167654D02*
X0199300Y0167654D01*
X0207824Y0172524D02*
X0208100Y0172409D01*
X0208100Y0172638D01*
X0207824Y0172524D01*
X0208003Y0172449D02*
X0208100Y0172449D01*
X0208100Y0162638D02*
X0208100Y0162409D01*
X0207824Y0162524D01*
X0208100Y0162638D01*
X0201084Y0151669D02*
X0188542Y0151669D01*
X0187638Y0150070D02*
X0199885Y0150070D01*
X0211440Y0132486D02*
X0212621Y0132486D01*
X0212621Y0130888D02*
X0209841Y0130888D01*
X0208100Y0182409D02*
X0207536Y0182643D01*
X0207883Y0182820D01*
X0208100Y0182978D01*
X0208100Y0182409D01*
X0198899Y0225200D02*
X0196353Y0225200D01*
X0197952Y0226799D02*
X0199300Y0226799D01*
X0179654Y0250776D02*
X0176867Y0250776D01*
X0177761Y0252375D02*
X0174932Y0252375D01*
X0172998Y0253973D02*
X0177300Y0253973D01*
X0177554Y0255572D02*
X0171064Y0255572D01*
X0172679Y0257170D02*
X0178714Y0257170D01*
X0181868Y0258769D02*
X0173609Y0258769D01*
X0173700Y0260367D02*
X0183467Y0260367D01*
X0185065Y0261966D02*
X0172990Y0261966D01*
X0167214Y0263564D02*
X0186664Y0263564D01*
X0188262Y0265163D02*
X0165263Y0265163D01*
X0163312Y0266761D02*
X0189861Y0266761D01*
X0174140Y0284345D02*
X0212621Y0284345D01*
X0174848Y0231594D02*
X0174800Y0231594D01*
X0169600Y0231594D02*
X0169152Y0231594D01*
X0169600Y0233193D02*
X0153500Y0233193D01*
X0153500Y0234791D02*
X0169600Y0234791D01*
X0169600Y0236390D02*
X0153500Y0236390D01*
X0153500Y0237988D02*
X0169600Y0237988D01*
X0169600Y0239587D02*
X0153500Y0239587D01*
X0153500Y0241185D02*
X0169600Y0241185D01*
X0169600Y0242784D02*
X0153500Y0242784D01*
X0153500Y0244382D02*
X0169866Y0244382D01*
X0171280Y0245981D02*
X0153500Y0245981D01*
X0153500Y0247579D02*
X0172572Y0247579D01*
X0170638Y0249178D02*
X0154432Y0249178D01*
X0155500Y0250776D02*
X0168704Y0250776D01*
X0166770Y0252375D02*
X0155500Y0252375D01*
X0155500Y0253973D02*
X0164836Y0253973D01*
X0162901Y0255572D02*
X0154730Y0255572D01*
X0153131Y0257170D02*
X0160967Y0257170D01*
X0159033Y0258769D02*
X0097632Y0258769D01*
X0096033Y0260367D02*
X0157099Y0260367D01*
X0155165Y0261966D02*
X0094435Y0261966D01*
X0092836Y0263564D02*
X0153230Y0263564D01*
X0151296Y0265163D02*
X0091238Y0265163D01*
X0089639Y0266761D02*
X0149362Y0266761D01*
X0147428Y0268360D02*
X0047591Y0268360D01*
X0049921Y0269958D02*
X0145494Y0269958D01*
X0143559Y0271557D02*
X0052252Y0271557D01*
X0054582Y0273155D02*
X0141625Y0273155D01*
X0139691Y0274754D02*
X0056913Y0274754D01*
X0050888Y0282746D02*
X0017286Y0282746D01*
X0018229Y0282356D02*
X0016134Y0283224D01*
X0013866Y0283224D01*
X0011771Y0282356D01*
X0010168Y0280752D01*
X0009300Y0278657D01*
X0009300Y0276390D01*
X0010168Y0274295D01*
X0011771Y0272691D01*
X0012176Y0272524D01*
X0011771Y0272356D01*
X0010168Y0270752D01*
X0009300Y0268657D01*
X0009300Y0266390D01*
X0010168Y0264295D01*
X0011771Y0262691D01*
X0012176Y0262524D01*
X0011771Y0262356D01*
X0010168Y0260752D01*
X0009300Y0258657D01*
X0009300Y0256390D01*
X0010168Y0254295D01*
X0011771Y0252691D01*
X0012176Y0252524D01*
X0011771Y0252356D01*
X0010168Y0250752D01*
X0009300Y0248657D01*
X0009300Y0246390D01*
X0010168Y0244295D01*
X0011771Y0242691D01*
X0012176Y0242524D01*
X0011771Y0242356D01*
X0010168Y0240752D01*
X0009300Y0238657D01*
X0009300Y0236390D01*
X0010168Y0234295D01*
X0011771Y0232691D01*
X0012176Y0232524D01*
X0011771Y0232356D01*
X0010168Y0230752D01*
X0009300Y0228657D01*
X0009300Y0226390D01*
X0010168Y0224295D01*
X0011771Y0222691D01*
X0012176Y0222524D01*
X0011771Y0222356D01*
X0010168Y0220752D01*
X0009300Y0218657D01*
X0009300Y0216390D01*
X0010168Y0214295D01*
X0011771Y0212691D01*
X0012176Y0212524D01*
X0011771Y0212356D01*
X0010168Y0210752D01*
X0009300Y0208657D01*
X0009300Y0206390D01*
X0010168Y0204295D01*
X0011771Y0202691D01*
X0013866Y0201824D01*
X0016134Y0201824D01*
X0018229Y0202691D01*
X0019832Y0204295D01*
X0020700Y0206390D01*
X0020700Y0208657D01*
X0019832Y0210752D01*
X0018229Y0212356D01*
X0017824Y0212524D01*
X0018229Y0212691D01*
X0019832Y0214295D01*
X0020700Y0216390D01*
X0020700Y0218657D01*
X0019832Y0220752D01*
X0018229Y0222356D01*
X0017824Y0222524D01*
X0018229Y0222691D01*
X0019832Y0224295D01*
X0020700Y0226390D01*
X0020700Y0228657D01*
X0019832Y0230752D01*
X0018229Y0232356D01*
X0017824Y0232524D01*
X0018229Y0232691D01*
X0019832Y0234295D01*
X0020700Y0236390D01*
X0020700Y0238657D01*
X0019832Y0240752D01*
X0018229Y0242356D01*
X0017824Y0242524D01*
X0018229Y0242691D01*
X0019832Y0244295D01*
X0020700Y0246390D01*
X0020700Y0248657D01*
X0019832Y0250752D01*
X0018229Y0252356D01*
X0017824Y0252524D01*
X0018229Y0252691D01*
X0019832Y0254295D01*
X0020700Y0256390D01*
X0020700Y0258657D01*
X0019832Y0260752D01*
X0018229Y0262356D01*
X0017824Y0262524D01*
X0018229Y0262691D01*
X0019832Y0264295D01*
X0020700Y0266390D01*
X0020700Y0268657D01*
X0019832Y0270752D01*
X0018229Y0272356D01*
X0017824Y0272524D01*
X0018229Y0272691D01*
X0019832Y0274295D01*
X0020700Y0276390D01*
X0020700Y0278657D01*
X0019832Y0280752D01*
X0018229Y0282356D01*
X0019437Y0281148D02*
X0048787Y0281148D01*
X0046687Y0279549D02*
X0020331Y0279549D01*
X0020700Y0277951D02*
X0044586Y0277951D01*
X0042485Y0276352D02*
X0020684Y0276352D01*
X0020022Y0274754D02*
X0040385Y0274754D01*
X0038284Y0273155D02*
X0018693Y0273155D01*
X0019028Y0271557D02*
X0036184Y0271557D01*
X0034083Y0269958D02*
X0020161Y0269958D01*
X0020700Y0268360D02*
X0031959Y0268360D01*
X0031000Y0266761D02*
X0020700Y0266761D01*
X0020192Y0265163D02*
X0031000Y0265163D01*
X0029818Y0263564D02*
X0019102Y0263564D01*
X0018619Y0261966D02*
X0028835Y0261966D01*
X0028600Y0260367D02*
X0019992Y0260367D01*
X0020654Y0258769D02*
X0028964Y0258769D01*
X0029570Y0257170D02*
X0020700Y0257170D01*
X0020361Y0255572D02*
X0027971Y0255572D01*
X0026373Y0253973D02*
X0019511Y0253973D01*
X0018183Y0252375D02*
X0024774Y0252375D01*
X0023327Y0250928D02*
X0023327Y0250928D01*
X0023176Y0250776D02*
X0019808Y0250776D01*
X0020484Y0249178D02*
X0022200Y0249178D01*
X0022200Y0247579D02*
X0020700Y0247579D01*
X0020531Y0245981D02*
X0022200Y0245981D01*
X0022200Y0244382D02*
X0019868Y0244382D01*
X0018321Y0242784D02*
X0022200Y0242784D01*
X0022200Y0241185D02*
X0019399Y0241185D01*
X0020315Y0239587D02*
X0022200Y0239587D01*
X0022200Y0237988D02*
X0020700Y0237988D01*
X0020700Y0236390D02*
X0022200Y0236390D01*
X0022200Y0234791D02*
X0020038Y0234791D01*
X0018730Y0233193D02*
X0022200Y0233193D01*
X0022200Y0231594D02*
X0018991Y0231594D01*
X0020146Y0229996D02*
X0022200Y0229996D01*
X0022200Y0228397D02*
X0020700Y0228397D01*
X0020700Y0226799D02*
X0022200Y0226799D01*
X0022200Y0225200D02*
X0020207Y0225200D01*
X0019139Y0223602D02*
X0022200Y0223602D01*
X0022200Y0222003D02*
X0018582Y0222003D01*
X0019976Y0220405D02*
X0022200Y0220405D01*
X0022200Y0218806D02*
X0020638Y0218806D01*
X0020700Y0217208D02*
X0022200Y0217208D01*
X0022200Y0215609D02*
X0020377Y0215609D01*
X0019548Y0214010D02*
X0022200Y0214010D01*
X0022200Y0212412D02*
X0018093Y0212412D01*
X0019771Y0210813D02*
X0022200Y0210813D01*
X0022200Y0209215D02*
X0020469Y0209215D01*
X0020700Y0207616D02*
X0022200Y0207616D01*
X0022200Y0206018D02*
X0020546Y0206018D01*
X0019884Y0204419D02*
X0022200Y0204419D01*
X0022200Y0202821D02*
X0018358Y0202821D01*
X0016612Y0198025D02*
X0022200Y0198025D01*
X0022200Y0196427D02*
X0019158Y0196427D01*
X0020215Y0194828D02*
X0022439Y0194828D01*
X0023817Y0193230D02*
X0020700Y0193230D01*
X0020700Y0191631D02*
X0025415Y0191631D01*
X0027014Y0190033D02*
X0020138Y0190033D01*
X0018972Y0188434D02*
X0081412Y0188434D01*
X0082000Y0187224D02*
X0082000Y0183024D01*
X0082000Y0183024D01*
X0082000Y0187224D01*
X0082000Y0186836D02*
X0082000Y0186836D01*
X0082000Y0185237D02*
X0082000Y0185237D01*
X0082000Y0183639D02*
X0082000Y0183639D01*
X0082000Y0183024D02*
X0086200Y0183024D01*
X0086200Y0183647D01*
X0116800Y0153047D01*
X0116800Y0151960D01*
X0116620Y0151780D01*
X0116473Y0151928D01*
X0113173Y0155228D01*
X0112217Y0155624D01*
X0107277Y0155624D01*
X0083908Y0178992D01*
X0086200Y0181284D01*
X0086200Y0183024D01*
X0082000Y0183024D01*
X0082000Y0183024D01*
X0078274Y0185237D02*
X0020046Y0185237D01*
X0018749Y0186836D02*
X0079872Y0186836D01*
X0079814Y0190033D02*
X0047886Y0190033D01*
X0049485Y0191631D02*
X0078215Y0191631D01*
X0076617Y0193230D02*
X0073646Y0193230D01*
X0071000Y0193230D02*
X0071000Y0193230D01*
X0071000Y0192324D02*
X0071000Y0196523D01*
X0071000Y0196523D01*
X0071000Y0192324D01*
X0071000Y0194828D02*
X0071000Y0194828D01*
X0071000Y0196427D02*
X0071000Y0196427D01*
X0071000Y0198025D02*
X0071000Y0198025D01*
X0066800Y0198025D02*
X0065200Y0198025D01*
X0065200Y0196524D02*
X0061000Y0196524D01*
X0061000Y0196524D01*
X0061000Y0196524D01*
X0056800Y0196524D01*
X0056800Y0194784D01*
X0059260Y0192324D01*
X0061000Y0192324D01*
X0062740Y0192324D01*
X0065200Y0194784D01*
X0065200Y0196524D01*
X0065200Y0196427D02*
X0066800Y0196427D01*
X0066800Y0194828D02*
X0065200Y0194828D01*
X0063646Y0193230D02*
X0068354Y0193230D01*
X0061000Y0193230D02*
X0061000Y0193230D01*
X0061000Y0192324D02*
X0061000Y0196523D01*
X0061000Y0196523D01*
X0061000Y0192324D01*
X0061000Y0194828D02*
X0061000Y0194828D01*
X0061000Y0196427D02*
X0061000Y0196427D01*
X0061000Y0198025D02*
X0061000Y0198025D01*
X0061000Y0199624D02*
X0061000Y0199624D01*
X0059079Y0201222D02*
X0032921Y0201222D01*
X0033739Y0199624D02*
X0038161Y0199624D01*
X0039260Y0201324D02*
X0036800Y0203784D01*
X0036800Y0205524D01*
X0041000Y0205524D01*
X0041000Y0209724D01*
X0039260Y0209724D01*
X0036800Y0207263D01*
X0036800Y0205524D01*
X0041000Y0205524D01*
X0041000Y0205524D01*
X0041000Y0209724D01*
X0042740Y0209724D01*
X0045200Y0207263D01*
X0045200Y0205524D01*
X0041000Y0205524D01*
X0041000Y0205524D01*
X0041000Y0205524D01*
X0045200Y0205524D01*
X0045200Y0203784D01*
X0042740Y0201324D01*
X0041000Y0201324D01*
X0041000Y0205523D01*
X0041000Y0205523D01*
X0041000Y0201324D01*
X0039260Y0201324D01*
X0037763Y0202821D02*
X0034520Y0202821D01*
X0035400Y0204419D02*
X0036800Y0204419D01*
X0036800Y0206018D02*
X0035400Y0206018D01*
X0035130Y0207616D02*
X0037153Y0207616D01*
X0038752Y0209215D02*
X0033531Y0209215D01*
X0032900Y0210813D02*
X0058500Y0210813D01*
X0058469Y0209215D02*
X0053248Y0209215D01*
X0052740Y0209724D02*
X0051000Y0209724D01*
X0049260Y0209724D01*
X0046800Y0207263D01*
X0046800Y0205524D01*
X0051000Y0205524D01*
X0051000Y0209724D01*
X0051000Y0205524D01*
X0051000Y0205524D01*
X0055200Y0205524D01*
X0055200Y0207263D01*
X0052740Y0209724D01*
X0051000Y0209215D02*
X0051000Y0209215D01*
X0051000Y0207616D02*
X0051000Y0207616D01*
X0051000Y0206018D02*
X0051000Y0206018D01*
X0051000Y0205524D02*
X0051000Y0205524D01*
X0051000Y0205524D01*
X0046800Y0205524D01*
X0046800Y0203784D01*
X0049260Y0201324D01*
X0051000Y0201324D01*
X0052740Y0201324D01*
X0055200Y0203784D01*
X0055200Y0205524D01*
X0051000Y0205524D01*
X0051000Y0205523D02*
X0051000Y0201324D01*
X0051000Y0205523D01*
X0051000Y0205523D01*
X0051000Y0204419D02*
X0051000Y0204419D01*
X0051000Y0202821D02*
X0051000Y0202821D01*
X0047763Y0202821D02*
X0044237Y0202821D01*
X0045200Y0204419D02*
X0046800Y0204419D01*
X0046800Y0206018D02*
X0045200Y0206018D01*
X0044847Y0207616D02*
X0047153Y0207616D01*
X0048752Y0209215D02*
X0043248Y0209215D01*
X0041000Y0209215D02*
X0041000Y0209215D01*
X0041000Y0207616D02*
X0041000Y0207616D01*
X0041000Y0206018D02*
X0041000Y0206018D01*
X0041000Y0204419D02*
X0041000Y0204419D01*
X0041000Y0202821D02*
X0041000Y0202821D01*
X0041000Y0199624D02*
X0041000Y0199624D01*
X0041000Y0198025D02*
X0041000Y0198025D01*
X0043839Y0199624D02*
X0047878Y0199624D01*
X0046600Y0198025D02*
X0045200Y0198025D01*
X0045200Y0196427D02*
X0046600Y0196427D01*
X0045328Y0194828D02*
X0045200Y0194828D01*
X0036800Y0194828D02*
X0035100Y0194828D01*
X0035100Y0196427D02*
X0036800Y0196427D01*
X0036800Y0198025D02*
X0035100Y0198025D01*
X0035100Y0196524D02*
X0030900Y0196524D01*
X0030900Y0200724D01*
X0030900Y0196524D01*
X0030900Y0196524D01*
X0030900Y0196524D01*
X0035100Y0196524D01*
X0030900Y0198025D02*
X0030900Y0198025D01*
X0030900Y0199624D02*
X0030900Y0199624D01*
X0029079Y0201222D02*
X0027400Y0201222D01*
X0027400Y0199624D02*
X0028061Y0199624D01*
X0027480Y0202821D02*
X0027400Y0202821D01*
X0027400Y0208146D02*
X0027700Y0208446D01*
X0027700Y0238847D01*
X0027400Y0239147D01*
X0027400Y0208146D01*
X0027400Y0209215D02*
X0027700Y0209215D01*
X0027700Y0210813D02*
X0027400Y0210813D01*
X0027400Y0212412D02*
X0027700Y0212412D01*
X0027700Y0214010D02*
X0027400Y0214010D01*
X0027400Y0215609D02*
X0027700Y0215609D01*
X0027700Y0217208D02*
X0027400Y0217208D01*
X0027400Y0218806D02*
X0027700Y0218806D01*
X0027700Y0220405D02*
X0027400Y0220405D01*
X0027400Y0222003D02*
X0027700Y0222003D01*
X0027700Y0223602D02*
X0027400Y0223602D01*
X0027400Y0225200D02*
X0027700Y0225200D01*
X0027700Y0226799D02*
X0027400Y0226799D01*
X0027400Y0228397D02*
X0027700Y0228397D01*
X0027700Y0229996D02*
X0027400Y0229996D01*
X0027400Y0231594D02*
X0027700Y0231594D01*
X0027700Y0233193D02*
X0027400Y0233193D01*
X0027400Y0234791D02*
X0027700Y0234791D01*
X0027700Y0236390D02*
X0027400Y0236390D01*
X0027400Y0237988D02*
X0027700Y0237988D01*
X0032900Y0237988D02*
X0059888Y0237988D01*
X0058645Y0236390D02*
X0032900Y0236390D01*
X0032900Y0234791D02*
X0058500Y0234791D01*
X0058500Y0233193D02*
X0032900Y0233193D01*
X0032900Y0231594D02*
X0058500Y0231594D01*
X0058500Y0229996D02*
X0032900Y0229996D01*
X0032900Y0228397D02*
X0058500Y0228397D01*
X0058500Y0226799D02*
X0032900Y0226799D01*
X0032900Y0225200D02*
X0058500Y0225200D01*
X0058500Y0223602D02*
X0032900Y0223602D01*
X0032900Y0222003D02*
X0058500Y0222003D01*
X0058500Y0220405D02*
X0032900Y0220405D01*
X0032900Y0218806D02*
X0058500Y0218806D01*
X0058500Y0217208D02*
X0032900Y0217208D01*
X0032900Y0215609D02*
X0058500Y0215609D01*
X0058500Y0214010D02*
X0032900Y0214010D01*
X0032900Y0212412D02*
X0058500Y0212412D01*
X0056870Y0207616D02*
X0054847Y0207616D01*
X0055200Y0206018D02*
X0056600Y0206018D01*
X0056600Y0204419D02*
X0055200Y0204419D01*
X0054237Y0202821D02*
X0057480Y0202821D01*
X0058161Y0199624D02*
X0054122Y0199624D01*
X0055400Y0198025D02*
X0056800Y0198025D01*
X0056800Y0196427D02*
X0055400Y0196427D01*
X0055400Y0194828D02*
X0056800Y0194828D01*
X0058354Y0193230D02*
X0053929Y0193230D01*
X0063700Y0209215D02*
X0068469Y0209215D01*
X0066870Y0207616D02*
X0065130Y0207616D01*
X0065400Y0206018D02*
X0066600Y0206018D01*
X0066600Y0204419D02*
X0065400Y0204419D01*
X0063700Y0210813D02*
X0088200Y0210813D01*
X0088200Y0209215D02*
X0073531Y0209215D01*
X0075130Y0207616D02*
X0088200Y0207616D01*
X0088200Y0206018D02*
X0075400Y0206018D01*
X0075400Y0204419D02*
X0088200Y0204419D01*
X0088200Y0202821D02*
X0074520Y0202821D01*
X0075978Y0201222D02*
X0088200Y0201222D01*
X0088200Y0199624D02*
X0077577Y0199624D01*
X0079175Y0198025D02*
X0088200Y0198025D01*
X0088200Y0196427D02*
X0080774Y0196427D01*
X0082372Y0194828D02*
X0088200Y0194828D01*
X0088200Y0193230D02*
X0083971Y0193230D01*
X0085569Y0191631D02*
X0088200Y0191631D01*
X0087545Y0190033D02*
X0087168Y0190033D01*
X0086208Y0183639D02*
X0086200Y0183639D01*
X0086200Y0182040D02*
X0087806Y0182040D01*
X0089405Y0180442D02*
X0085358Y0180442D01*
X0084057Y0178843D02*
X0091003Y0178843D01*
X0092602Y0177245D02*
X0085656Y0177245D01*
X0087254Y0175646D02*
X0094200Y0175646D01*
X0095799Y0174048D02*
X0088853Y0174048D01*
X0090451Y0172449D02*
X0097397Y0172449D01*
X0098996Y0170851D02*
X0092050Y0170851D01*
X0093648Y0169252D02*
X0100595Y0169252D01*
X0102193Y0167654D02*
X0095247Y0167654D01*
X0096845Y0166055D02*
X0103792Y0166055D01*
X0105390Y0164457D02*
X0098444Y0164457D01*
X0100042Y0162858D02*
X0106989Y0162858D01*
X0108587Y0161260D02*
X0101641Y0161260D01*
X0103239Y0159661D02*
X0110186Y0159661D01*
X0111784Y0158063D02*
X0104838Y0158063D01*
X0106436Y0156464D02*
X0113383Y0156464D01*
X0113535Y0154866D02*
X0114981Y0154866D01*
X0115134Y0153267D02*
X0116580Y0153267D01*
X0125090Y0150070D02*
X0125193Y0150070D01*
X0133209Y0151669D02*
X0136791Y0151669D01*
X0135193Y0150070D02*
X0134807Y0150070D01*
X0140000Y0150070D02*
X0140000Y0150070D01*
X0140000Y0148472D02*
X0140000Y0148472D01*
X0140000Y0147523D02*
X0140000Y0142324D01*
X0140000Y0147523D01*
X0140000Y0147523D01*
X0140000Y0146873D02*
X0140000Y0146873D01*
X0140000Y0145274D02*
X0140000Y0145274D01*
X0140000Y0143676D02*
X0140000Y0143676D01*
X0136494Y0143676D02*
X0133506Y0143676D01*
X0140000Y0151669D02*
X0140000Y0151669D01*
X0145262Y0183639D02*
X0146300Y0183639D01*
X0146300Y0185237D02*
X0143663Y0185237D01*
X0142065Y0186836D02*
X0146300Y0186836D01*
X0146300Y0188434D02*
X0140466Y0188434D01*
X0138868Y0190033D02*
X0146300Y0190033D01*
X0146300Y0191631D02*
X0137269Y0191631D01*
X0136940Y0193230D02*
X0135671Y0193230D01*
X0135341Y0194828D02*
X0134941Y0194828D01*
X0153500Y0194828D02*
X0155300Y0194828D01*
X0155300Y0193230D02*
X0153500Y0193230D01*
X0153500Y0191631D02*
X0154885Y0191631D01*
X0155300Y0196427D02*
X0153500Y0196427D01*
X0153500Y0198025D02*
X0155300Y0198025D01*
X0155300Y0199624D02*
X0153500Y0199624D01*
X0153500Y0201222D02*
X0155300Y0201222D01*
X0155300Y0202821D02*
X0153500Y0202821D01*
X0153500Y0204419D02*
X0155300Y0204419D01*
X0155300Y0206018D02*
X0153500Y0206018D01*
X0153500Y0207616D02*
X0155300Y0207616D01*
X0155300Y0209215D02*
X0153500Y0209215D01*
X0153500Y0210813D02*
X0155300Y0210813D01*
X0155300Y0212412D02*
X0153500Y0212412D01*
X0153500Y0214010D02*
X0155810Y0214010D01*
X0157408Y0215609D02*
X0153500Y0215609D01*
X0153500Y0217208D02*
X0159007Y0217208D01*
X0160605Y0218806D02*
X0153500Y0218806D01*
X0153500Y0220405D02*
X0162204Y0220405D01*
X0163802Y0222003D02*
X0153500Y0222003D01*
X0153500Y0223602D02*
X0154700Y0223602D01*
X0159300Y0223602D02*
X0164700Y0223602D01*
X0163101Y0225200D02*
X0160899Y0225200D01*
X0161400Y0226799D02*
X0162600Y0226799D01*
X0162600Y0228397D02*
X0161400Y0228397D01*
X0160751Y0229996D02*
X0163249Y0229996D01*
X0164848Y0231594D02*
X0159152Y0231594D01*
X0154848Y0231594D02*
X0153500Y0231594D01*
X0146300Y0231594D02*
X0143566Y0231594D01*
X0145165Y0229996D02*
X0146300Y0229996D01*
X0146300Y0228397D02*
X0145400Y0228397D01*
X0145400Y0226799D02*
X0146300Y0226799D01*
X0146300Y0225200D02*
X0145313Y0225200D01*
X0146300Y0223602D02*
X0143715Y0223602D01*
X0127166Y0247579D02*
X0122834Y0247579D01*
X0124432Y0249178D02*
X0125568Y0249178D01*
X0125270Y0255572D02*
X0124730Y0255572D01*
X0123131Y0257170D02*
X0126869Y0257170D01*
X0117166Y0247579D02*
X0112834Y0247579D01*
X0114432Y0249178D02*
X0115568Y0249178D01*
X0115270Y0255572D02*
X0114730Y0255572D01*
X0113131Y0257170D02*
X0116869Y0257170D01*
X0106869Y0257170D02*
X0103131Y0257170D01*
X0104730Y0255572D02*
X0105270Y0255572D01*
X0105568Y0249178D02*
X0104432Y0249178D01*
X0102834Y0247579D02*
X0107166Y0247579D01*
X0097166Y0247579D02*
X0093400Y0247579D01*
X0094432Y0249178D02*
X0095568Y0249178D01*
X0090278Y0258769D02*
X0057185Y0258769D01*
X0057200Y0258784D02*
X0057200Y0260524D01*
X0053000Y0260524D01*
X0053000Y0260524D01*
X0053000Y0260524D01*
X0048800Y0260524D01*
X0048800Y0258784D01*
X0051260Y0256324D01*
X0053000Y0256324D01*
X0054740Y0256324D01*
X0057200Y0258784D01*
X0057200Y0260367D02*
X0088679Y0260367D01*
X0087081Y0261966D02*
X0057200Y0261966D01*
X0055586Y0257170D02*
X0077151Y0257170D01*
X0075553Y0255572D02*
X0038625Y0255572D01*
X0040224Y0257170D02*
X0050414Y0257170D01*
X0048815Y0258769D02*
X0041822Y0258769D01*
X0043421Y0260367D02*
X0048800Y0260367D01*
X0048800Y0261966D02*
X0045019Y0261966D01*
X0037027Y0253973D02*
X0074700Y0253973D01*
X0074700Y0250776D02*
X0033830Y0250776D01*
X0033286Y0249178D02*
X0038432Y0249178D01*
X0039177Y0249924D02*
X0036600Y0247346D01*
X0036600Y0243701D01*
X0039177Y0241124D01*
X0042823Y0241124D01*
X0045400Y0243701D01*
X0045400Y0247346D01*
X0042823Y0249924D01*
X0039177Y0249924D01*
X0036833Y0247579D02*
X0034884Y0247579D01*
X0035200Y0245981D02*
X0036600Y0245981D01*
X0035200Y0245524D02*
X0031000Y0245524D01*
X0031000Y0245524D01*
X0035200Y0245524D01*
X0035200Y0244382D02*
X0036600Y0244382D01*
X0037517Y0242784D02*
X0034200Y0242784D01*
X0032592Y0241185D02*
X0039116Y0241185D01*
X0042884Y0241185D02*
X0049116Y0241185D01*
X0049177Y0241124D02*
X0052823Y0241124D01*
X0055400Y0243701D01*
X0055400Y0247346D01*
X0052823Y0249924D01*
X0049177Y0249924D01*
X0046600Y0247346D01*
X0046600Y0243701D01*
X0049177Y0241124D01*
X0047517Y0242784D02*
X0044483Y0242784D01*
X0045400Y0244382D02*
X0046600Y0244382D01*
X0046600Y0245981D02*
X0045400Y0245981D01*
X0045167Y0247579D02*
X0046833Y0247579D01*
X0048432Y0249178D02*
X0043568Y0249178D01*
X0035428Y0252375D02*
X0079800Y0252375D01*
X0079800Y0253973D02*
X0080200Y0253973D01*
X0080200Y0255572D02*
X0079800Y0255572D01*
X0079800Y0257170D02*
X0080200Y0257170D01*
X0082849Y0257170D02*
X0086869Y0257170D01*
X0085270Y0255572D02*
X0084447Y0255572D01*
X0084149Y0249178D02*
X0085568Y0249178D01*
X0087166Y0247579D02*
X0082551Y0247579D01*
X0080200Y0247579D02*
X0079800Y0247579D01*
X0079800Y0249178D02*
X0080200Y0249178D01*
X0080200Y0250776D02*
X0079800Y0250776D01*
X0077449Y0247579D02*
X0075167Y0247579D01*
X0075400Y0245981D02*
X0088200Y0245981D01*
X0088200Y0244382D02*
X0075400Y0244382D01*
X0074483Y0242784D02*
X0088200Y0242784D01*
X0088200Y0241185D02*
X0072884Y0241185D01*
X0068840Y0239587D02*
X0088200Y0239587D01*
X0088200Y0237988D02*
X0067241Y0237988D01*
X0065643Y0236390D02*
X0088200Y0236390D01*
X0088200Y0234791D02*
X0064044Y0234791D01*
X0063700Y0233193D02*
X0088200Y0233193D01*
X0088200Y0231594D02*
X0063700Y0231594D01*
X0063700Y0229996D02*
X0088200Y0229996D01*
X0088200Y0228397D02*
X0063700Y0228397D01*
X0063700Y0226799D02*
X0088200Y0226799D01*
X0088200Y0225200D02*
X0063700Y0225200D01*
X0063700Y0223602D02*
X0088200Y0223602D01*
X0088200Y0222003D02*
X0063700Y0222003D01*
X0063700Y0220405D02*
X0088200Y0220405D01*
X0088200Y0218806D02*
X0063700Y0218806D01*
X0063700Y0217208D02*
X0088200Y0217208D01*
X0088200Y0215609D02*
X0063700Y0215609D01*
X0063700Y0214010D02*
X0088200Y0214010D01*
X0088200Y0212412D02*
X0063700Y0212412D01*
X0061486Y0239587D02*
X0032900Y0239587D01*
X0052884Y0241185D02*
X0059116Y0241185D01*
X0059177Y0241124D02*
X0062823Y0241124D01*
X0065400Y0243701D01*
X0065400Y0247346D01*
X0062823Y0249924D01*
X0059177Y0249924D01*
X0056600Y0247346D01*
X0056600Y0243701D01*
X0059177Y0241124D01*
X0057517Y0242784D02*
X0054483Y0242784D01*
X0055400Y0244382D02*
X0056600Y0244382D01*
X0056600Y0245981D02*
X0055400Y0245981D01*
X0055167Y0247579D02*
X0056833Y0247579D01*
X0058432Y0249178D02*
X0053568Y0249178D01*
X0053000Y0256324D02*
X0053000Y0260523D01*
X0053000Y0260523D01*
X0053000Y0256324D01*
X0053000Y0257170D02*
X0053000Y0257170D01*
X0053000Y0258769D02*
X0053000Y0258769D01*
X0053000Y0260367D02*
X0053000Y0260367D01*
X0063568Y0249178D02*
X0068432Y0249178D01*
X0066833Y0247579D02*
X0065167Y0247579D01*
X0065400Y0245981D02*
X0066600Y0245981D01*
X0066282Y0244382D02*
X0065400Y0244382D01*
X0064683Y0242784D02*
X0064483Y0242784D01*
X0063085Y0241185D02*
X0062884Y0241185D01*
X0073568Y0249178D02*
X0075851Y0249178D01*
X0053086Y0284345D02*
X0007221Y0284345D01*
X0007221Y0282746D02*
X0012714Y0282746D01*
X0010563Y0281148D02*
X0007221Y0281148D01*
X0007221Y0279549D02*
X0009669Y0279549D01*
X0009300Y0277951D02*
X0007221Y0277951D01*
X0007221Y0276352D02*
X0009315Y0276352D01*
X0009978Y0274754D02*
X0007221Y0274754D01*
X0007221Y0273155D02*
X0011307Y0273155D01*
X0010972Y0271557D02*
X0007221Y0271557D01*
X0007221Y0269958D02*
X0009839Y0269958D01*
X0009300Y0268360D02*
X0007221Y0268360D01*
X0007221Y0266761D02*
X0009300Y0266761D01*
X0009808Y0265163D02*
X0007221Y0265163D01*
X0007221Y0263564D02*
X0010898Y0263564D01*
X0011381Y0261966D02*
X0007221Y0261966D01*
X0007221Y0260367D02*
X0010008Y0260367D01*
X0009346Y0258769D02*
X0007221Y0258769D01*
X0007221Y0257170D02*
X0009300Y0257170D01*
X0009639Y0255572D02*
X0007221Y0255572D01*
X0007221Y0253973D02*
X0010489Y0253973D01*
X0011817Y0252375D02*
X0007221Y0252375D01*
X0007221Y0250776D02*
X0010192Y0250776D01*
X0009516Y0249178D02*
X0007221Y0249178D01*
X0007221Y0247579D02*
X0009300Y0247579D01*
X0009469Y0245981D02*
X0007221Y0245981D01*
X0007221Y0244382D02*
X0010132Y0244382D01*
X0011679Y0242784D02*
X0007221Y0242784D01*
X0007221Y0241185D02*
X0010601Y0241185D01*
X0009685Y0239587D02*
X0007221Y0239587D01*
X0007221Y0237988D02*
X0009300Y0237988D01*
X0009300Y0236390D02*
X0007221Y0236390D01*
X0007221Y0234791D02*
X0009962Y0234791D01*
X0011270Y0233193D02*
X0007221Y0233193D01*
X0007221Y0231594D02*
X0011009Y0231594D01*
X0009854Y0229996D02*
X0007221Y0229996D01*
X0007221Y0228397D02*
X0009300Y0228397D01*
X0009300Y0226799D02*
X0007221Y0226799D01*
X0007221Y0225200D02*
X0009793Y0225200D01*
X0010861Y0223602D02*
X0007221Y0223602D01*
X0007221Y0222003D02*
X0011418Y0222003D01*
X0010024Y0220405D02*
X0007221Y0220405D01*
X0007221Y0218806D02*
X0009362Y0218806D01*
X0009300Y0217208D02*
X0007221Y0217208D01*
X0007221Y0215609D02*
X0009623Y0215609D01*
X0010452Y0214010D02*
X0007221Y0214010D01*
X0007221Y0212412D02*
X0011907Y0212412D01*
X0010229Y0210813D02*
X0007221Y0210813D01*
X0007221Y0209215D02*
X0009531Y0209215D01*
X0009300Y0207616D02*
X0007221Y0207616D01*
X0007221Y0206018D02*
X0009454Y0206018D01*
X0010116Y0204419D02*
X0007221Y0204419D01*
X0007221Y0202821D02*
X0011642Y0202821D01*
X0013388Y0198025D02*
X0007221Y0198025D01*
X0007221Y0196427D02*
X0010842Y0196427D01*
X0009785Y0194828D02*
X0007221Y0194828D01*
X0007221Y0193230D02*
X0009300Y0193230D01*
X0009300Y0191631D02*
X0007221Y0191631D01*
X0007221Y0190033D02*
X0009862Y0190033D01*
X0011028Y0188434D02*
X0007221Y0188434D01*
X0007221Y0186836D02*
X0011251Y0186836D01*
X0009954Y0185237D02*
X0007221Y0185237D01*
X0007221Y0183639D02*
X0009300Y0183639D01*
X0009300Y0182040D02*
X0007221Y0182040D01*
X0007221Y0180442D02*
X0009693Y0180442D01*
X0010619Y0178843D02*
X0007221Y0178843D01*
X0007221Y0177245D02*
X0011660Y0177245D01*
X0010124Y0175646D02*
X0007221Y0175646D01*
X0007221Y0174048D02*
X0009462Y0174048D01*
X0009300Y0172449D02*
X0007221Y0172449D01*
X0007221Y0170851D02*
X0009523Y0170851D01*
X0008752Y0169252D02*
X0007221Y0169252D01*
X0012000Y0157597D02*
X0012176Y0157524D01*
X0012000Y0157451D01*
X0012000Y0157597D01*
X0018600Y0158063D02*
X0026500Y0158063D01*
X0026500Y0158346D02*
X0026500Y0154701D01*
X0029077Y0152124D01*
X0032723Y0152124D01*
X0033973Y0153374D01*
X0039096Y0148251D01*
X0039827Y0147519D01*
X0040783Y0147124D01*
X0079300Y0147124D01*
X0079300Y0145589D01*
X0080016Y0143861D01*
X0080825Y0143052D01*
X0080655Y0143052D01*
X0080655Y0135678D01*
X0085164Y0135678D01*
X0085164Y0138755D01*
X0085049Y0139480D01*
X0084822Y0140178D01*
X0084489Y0140832D01*
X0084058Y0141426D01*
X0083660Y0141824D01*
X0084935Y0141824D01*
X0086662Y0142539D01*
X0087984Y0143861D01*
X0088700Y0145589D01*
X0088700Y0152859D01*
X0087984Y0154586D01*
X0086662Y0155908D01*
X0084935Y0156624D01*
X0083065Y0156624D01*
X0081338Y0155908D01*
X0080016Y0154586D01*
X0079300Y0152859D01*
X0079300Y0152324D01*
X0073023Y0152324D01*
X0075400Y0154701D01*
X0075400Y0158346D01*
X0072823Y0160924D01*
X0071177Y0160924D01*
X0069173Y0162928D01*
X0068217Y0163324D01*
X0058383Y0163324D01*
X0057427Y0162928D01*
X0056696Y0162196D01*
X0054523Y0160024D01*
X0053723Y0160024D01*
X0052823Y0160924D01*
X0049177Y0160924D01*
X0046600Y0158346D01*
X0046600Y0154701D01*
X0048977Y0152324D01*
X0043023Y0152324D01*
X0045400Y0154701D01*
X0045400Y0158346D01*
X0042823Y0160924D01*
X0039177Y0160924D01*
X0036600Y0158346D01*
X0036600Y0158101D01*
X0036173Y0158528D01*
X0035217Y0158924D01*
X0034723Y0158924D01*
X0032723Y0160924D01*
X0029077Y0160924D01*
X0026500Y0158346D01*
X0027815Y0159661D02*
X0019984Y0159661D01*
X0020646Y0161260D02*
X0055759Y0161260D01*
X0057358Y0162858D02*
X0020700Y0162858D01*
X0020369Y0164457D02*
X0077600Y0164457D01*
X0077600Y0164846D02*
X0077600Y0161201D01*
X0080177Y0158624D01*
X0083823Y0158624D01*
X0086400Y0161201D01*
X0086400Y0164846D01*
X0083823Y0167424D01*
X0080177Y0167424D01*
X0077600Y0164846D01*
X0078809Y0166055D02*
X0019529Y0166055D01*
X0018138Y0167654D02*
X0087893Y0167654D01*
X0086295Y0169252D02*
X0019790Y0169252D01*
X0020477Y0170851D02*
X0084696Y0170851D01*
X0083097Y0172449D02*
X0020700Y0172449D01*
X0020538Y0174048D02*
X0081499Y0174048D01*
X0079900Y0175646D02*
X0019876Y0175646D01*
X0018340Y0177245D02*
X0078302Y0177245D01*
X0076703Y0178843D02*
X0019381Y0178843D01*
X0022200Y0199624D02*
X0007221Y0199624D01*
X0007221Y0201222D02*
X0022200Y0201222D01*
X0033985Y0159661D02*
X0037915Y0159661D01*
X0034080Y0153267D02*
X0033866Y0153267D01*
X0035678Y0151669D02*
X0020700Y0151669D01*
X0020700Y0153267D02*
X0027934Y0153267D01*
X0026500Y0154866D02*
X0020200Y0154866D01*
X0019121Y0156464D02*
X0026500Y0156464D01*
X0020431Y0150070D02*
X0037277Y0150070D01*
X0038875Y0148472D02*
X0022029Y0148472D01*
X0023628Y0146873D02*
X0079300Y0146873D01*
X0079430Y0145274D02*
X0025226Y0145274D01*
X0026825Y0143676D02*
X0080201Y0143676D01*
X0080133Y0143052D02*
X0079408Y0142937D01*
X0078710Y0142710D01*
X0078055Y0142377D01*
X0077461Y0141945D01*
X0076942Y0141426D01*
X0076511Y0140832D01*
X0076178Y0140178D01*
X0075951Y0139480D01*
X0075836Y0138755D01*
X0075836Y0135678D01*
X0080345Y0135678D01*
X0080345Y0135369D01*
X0075836Y0135369D01*
X0075836Y0132292D01*
X0075951Y0131567D01*
X0076178Y0130869D01*
X0076511Y0130215D01*
X0076942Y0129621D01*
X0077461Y0129102D01*
X0078055Y0128670D01*
X0078710Y0128337D01*
X0079408Y0128110D01*
X0080133Y0127995D01*
X0080345Y0127995D01*
X0080345Y0135369D01*
X0080655Y0135369D01*
X0080655Y0135678D01*
X0080345Y0135678D01*
X0080345Y0143052D01*
X0080133Y0143052D01*
X0080345Y0142077D02*
X0080655Y0142077D01*
X0080655Y0140479D02*
X0080345Y0140479D01*
X0080345Y0138880D02*
X0080655Y0138880D01*
X0080655Y0137282D02*
X0080345Y0137282D01*
X0080345Y0135683D02*
X0080655Y0135683D01*
X0080655Y0135369D02*
X0085164Y0135369D01*
X0085164Y0132292D01*
X0085049Y0131567D01*
X0084822Y0130869D01*
X0084489Y0130215D01*
X0084058Y0129621D01*
X0083538Y0129102D01*
X0082945Y0128670D01*
X0082290Y0128337D01*
X0081592Y0128110D01*
X0080867Y0127995D01*
X0080655Y0127995D01*
X0080655Y0135369D01*
X0080655Y0134085D02*
X0080345Y0134085D01*
X0080345Y0132486D02*
X0080655Y0132486D01*
X0080655Y0130888D02*
X0080345Y0130888D01*
X0080345Y0129289D02*
X0080655Y0129289D01*
X0083726Y0129289D02*
X0087274Y0129289D01*
X0087461Y0129102D02*
X0088055Y0128670D01*
X0088710Y0128337D01*
X0089408Y0128110D01*
X0090133Y0127995D01*
X0090345Y0127995D01*
X0090345Y0135369D01*
X0085836Y0135369D01*
X0085836Y0132292D01*
X0085951Y0131567D01*
X0086178Y0130869D01*
X0086511Y0130215D01*
X0086942Y0129621D01*
X0087461Y0129102D01*
X0086171Y0130888D02*
X0084829Y0130888D01*
X0085164Y0132486D02*
X0085836Y0132486D01*
X0085836Y0134085D02*
X0085164Y0134085D01*
X0085164Y0135683D02*
X0085836Y0135683D01*
X0085836Y0135678D02*
X0090345Y0135678D01*
X0090345Y0135369D01*
X0090655Y0135369D01*
X0090655Y0135678D01*
X0090345Y0135678D01*
X0090345Y0143052D01*
X0090133Y0143052D01*
X0089408Y0142937D01*
X0088710Y0142710D01*
X0088055Y0142377D01*
X0087461Y0141945D01*
X0086942Y0141426D01*
X0086511Y0140832D01*
X0086178Y0140178D01*
X0085951Y0139480D01*
X0085836Y0138755D01*
X0085836Y0135678D01*
X0085836Y0137282D02*
X0085164Y0137282D01*
X0085144Y0138880D02*
X0085856Y0138880D01*
X0086331Y0140479D02*
X0084669Y0140479D01*
X0085548Y0142077D02*
X0087643Y0142077D01*
X0087799Y0143676D02*
X0090201Y0143676D01*
X0090345Y0142077D02*
X0090655Y0142077D01*
X0090655Y0140479D02*
X0090345Y0140479D01*
X0090345Y0138880D02*
X0090655Y0138880D01*
X0090655Y0137282D02*
X0090345Y0137282D01*
X0090345Y0135683D02*
X0090655Y0135683D01*
X0090655Y0135369D02*
X0095164Y0135369D01*
X0095164Y0132292D01*
X0095049Y0131567D01*
X0094822Y0130869D01*
X0094489Y0130215D01*
X0094058Y0129621D01*
X0093538Y0129102D01*
X0092945Y0128670D01*
X0092290Y0128337D01*
X0091592Y0128110D01*
X0090867Y0127995D01*
X0090655Y0127995D01*
X0090655Y0135369D01*
X0090655Y0134085D02*
X0090345Y0134085D01*
X0090345Y0132486D02*
X0090655Y0132486D01*
X0090655Y0130888D02*
X0090345Y0130888D01*
X0090345Y0129289D02*
X0090655Y0129289D01*
X0093726Y0129289D02*
X0097274Y0129289D01*
X0097461Y0129102D02*
X0098055Y0128670D01*
X0098710Y0128337D01*
X0099408Y0128110D01*
X0100133Y0127995D01*
X0100345Y0127995D01*
X0100345Y0135369D01*
X0095836Y0135369D01*
X0095836Y0132292D01*
X0095951Y0131567D01*
X0096178Y0130869D01*
X0096511Y0130215D01*
X0096942Y0129621D01*
X0097461Y0129102D01*
X0096171Y0130888D02*
X0094829Y0130888D01*
X0095164Y0132486D02*
X0095836Y0132486D01*
X0095836Y0134085D02*
X0095164Y0134085D01*
X0095164Y0135683D02*
X0095836Y0135683D01*
X0095836Y0135678D02*
X0100345Y0135678D01*
X0100345Y0135369D01*
X0100655Y0135369D01*
X0100655Y0135678D01*
X0105164Y0135678D01*
X0105164Y0138755D01*
X0105049Y0139480D01*
X0104822Y0140178D01*
X0104489Y0140832D01*
X0104058Y0141426D01*
X0103538Y0141945D01*
X0102945Y0142377D01*
X0102290Y0142710D01*
X0101592Y0142937D01*
X0100867Y0143052D01*
X0100655Y0143052D01*
X0100655Y0135678D01*
X0100345Y0135678D01*
X0100345Y0143052D01*
X0100133Y0143052D01*
X0099408Y0142937D01*
X0098710Y0142710D01*
X0098055Y0142377D01*
X0097461Y0141945D01*
X0096942Y0141426D01*
X0096511Y0140832D01*
X0096178Y0140178D01*
X0095951Y0139480D01*
X0095836Y0138755D01*
X0095836Y0135678D01*
X0095836Y0137282D02*
X0095164Y0137282D01*
X0095144Y0138880D02*
X0095856Y0138880D01*
X0096331Y0140479D02*
X0094669Y0140479D01*
X0095548Y0142077D02*
X0097643Y0142077D01*
X0097799Y0143676D02*
X0106211Y0143676D01*
X0107643Y0142077D02*
X0103357Y0142077D01*
X0104669Y0140479D02*
X0106331Y0140479D01*
X0105856Y0138880D02*
X0105144Y0138880D01*
X0105164Y0137282D02*
X0105836Y0137282D01*
X0105836Y0135683D02*
X0105164Y0135683D01*
X0105164Y0135369D02*
X0100655Y0135369D01*
X0100655Y0127995D01*
X0100867Y0127995D01*
X0101592Y0128110D01*
X0102290Y0128337D01*
X0102945Y0128670D01*
X0103538Y0129102D01*
X0104058Y0129621D01*
X0104489Y0130215D01*
X0104822Y0130869D01*
X0105049Y0131567D01*
X0105164Y0132292D01*
X0105164Y0135369D01*
X0105164Y0134085D02*
X0105836Y0134085D01*
X0105836Y0132486D02*
X0105164Y0132486D01*
X0104829Y0130888D02*
X0106171Y0130888D01*
X0107274Y0129289D02*
X0103726Y0129289D01*
X0100655Y0129289D02*
X0100345Y0129289D01*
X0100345Y0130888D02*
X0100655Y0130888D01*
X0100655Y0132486D02*
X0100345Y0132486D01*
X0100345Y0134085D02*
X0100655Y0134085D01*
X0100655Y0135683D02*
X0100345Y0135683D01*
X0100345Y0137282D02*
X0100655Y0137282D01*
X0100655Y0138880D02*
X0100345Y0138880D01*
X0100345Y0140479D02*
X0100655Y0140479D01*
X0100655Y0142077D02*
X0100345Y0142077D01*
X0098700Y0151669D02*
X0103878Y0151669D01*
X0102280Y0153267D02*
X0098531Y0153267D01*
X0097705Y0154866D02*
X0100681Y0154866D01*
X0099083Y0156464D02*
X0095320Y0156464D01*
X0092680Y0156464D02*
X0085320Y0156464D01*
X0082680Y0156464D02*
X0075400Y0156464D01*
X0075400Y0154866D02*
X0080295Y0154866D01*
X0079469Y0153267D02*
X0073966Y0153267D01*
X0075400Y0158063D02*
X0097484Y0158063D01*
X0095886Y0159661D02*
X0084860Y0159661D01*
X0086400Y0161260D02*
X0094287Y0161260D01*
X0092689Y0162858D02*
X0086400Y0162858D01*
X0086400Y0164457D02*
X0091090Y0164457D01*
X0089492Y0166055D02*
X0085191Y0166055D01*
X0079140Y0159661D02*
X0074085Y0159661D01*
X0070841Y0161260D02*
X0077600Y0161260D01*
X0077600Y0162858D02*
X0069242Y0162858D01*
X0066600Y0158124D02*
X0066600Y0154701D01*
X0068977Y0152324D01*
X0063023Y0152324D01*
X0065400Y0154701D01*
X0065400Y0158124D01*
X0066600Y0158124D01*
X0066600Y0158063D02*
X0065400Y0158063D01*
X0065400Y0156464D02*
X0066600Y0156464D01*
X0066600Y0154866D02*
X0065400Y0154866D01*
X0063966Y0153267D02*
X0068034Y0153267D01*
X0058977Y0152324D02*
X0053023Y0152324D01*
X0055400Y0154701D01*
X0055400Y0154824D01*
X0056117Y0154824D01*
X0056600Y0155024D01*
X0056600Y0154701D01*
X0058977Y0152324D01*
X0058034Y0153267D02*
X0053966Y0153267D01*
X0056218Y0154866D02*
X0056600Y0154866D01*
X0048034Y0153267D02*
X0043966Y0153267D01*
X0045400Y0154866D02*
X0046600Y0154866D01*
X0046600Y0156464D02*
X0045400Y0156464D01*
X0045400Y0158063D02*
X0046600Y0158063D01*
X0047915Y0159661D02*
X0044085Y0159661D01*
X0040345Y0143052D02*
X0040133Y0143052D01*
X0039408Y0142937D01*
X0038710Y0142710D01*
X0038055Y0142377D01*
X0037461Y0141945D01*
X0036942Y0141426D01*
X0036511Y0140832D01*
X0036178Y0140178D01*
X0035951Y0139480D01*
X0035836Y0138755D01*
X0035836Y0135678D01*
X0040345Y0135678D01*
X0040345Y0143052D01*
X0040345Y0142077D02*
X0040655Y0142077D01*
X0040655Y0140479D02*
X0040345Y0140479D01*
X0040345Y0138880D02*
X0040655Y0138880D01*
X0040655Y0137282D02*
X0040345Y0137282D01*
X0040345Y0135683D02*
X0040655Y0135683D01*
X0045164Y0135683D02*
X0045836Y0135683D01*
X0045836Y0135678D02*
X0050345Y0135678D01*
X0050345Y0135369D01*
X0045836Y0135369D01*
X0045836Y0132292D01*
X0045951Y0131567D01*
X0046178Y0130869D01*
X0046511Y0130215D01*
X0046942Y0129621D01*
X0047461Y0129102D01*
X0048055Y0128670D01*
X0048710Y0128337D01*
X0049408Y0128110D01*
X0050133Y0127995D01*
X0050345Y0127995D01*
X0050345Y0135369D01*
X0050655Y0135369D01*
X0050655Y0135678D01*
X0055164Y0135678D01*
X0055164Y0138755D01*
X0055049Y0139480D01*
X0054822Y0140178D01*
X0054489Y0140832D01*
X0054058Y0141426D01*
X0053538Y0141945D01*
X0052945Y0142377D01*
X0052290Y0142710D01*
X0051592Y0142937D01*
X0050867Y0143052D01*
X0050655Y0143052D01*
X0050655Y0135678D01*
X0050345Y0135678D01*
X0050345Y0143052D01*
X0050133Y0143052D01*
X0049408Y0142937D01*
X0048710Y0142710D01*
X0048055Y0142377D01*
X0047461Y0141945D01*
X0046942Y0141426D01*
X0046511Y0140832D01*
X0046178Y0140178D01*
X0045951Y0139480D01*
X0045836Y0138755D01*
X0045836Y0135678D01*
X0045836Y0134085D02*
X0045164Y0134085D01*
X0045164Y0132486D02*
X0045836Y0132486D01*
X0046171Y0130888D02*
X0044829Y0130888D01*
X0043726Y0129289D02*
X0047274Y0129289D01*
X0044408Y0126092D02*
X0112400Y0126092D01*
X0112400Y0124494D02*
X0046007Y0124494D01*
X0047605Y0122895D02*
X0112400Y0122895D01*
X0112400Y0121297D02*
X0049204Y0121297D01*
X0050802Y0119698D02*
X0112400Y0119698D01*
X0112400Y0127691D02*
X0042810Y0127691D01*
X0045164Y0137282D02*
X0045836Y0137282D01*
X0045856Y0138880D02*
X0045144Y0138880D01*
X0044669Y0140479D02*
X0046331Y0140479D01*
X0047643Y0142077D02*
X0043357Y0142077D01*
X0037643Y0142077D02*
X0028423Y0142077D01*
X0030022Y0140479D02*
X0036331Y0140479D01*
X0035856Y0138880D02*
X0031620Y0138880D01*
X0033219Y0137282D02*
X0035836Y0137282D01*
X0035836Y0135683D02*
X0034817Y0135683D01*
X0030660Y0132486D02*
X0029214Y0132486D01*
X0029062Y0134085D02*
X0027616Y0134085D01*
X0027463Y0135683D02*
X0026017Y0135683D01*
X0025865Y0137282D02*
X0024419Y0137282D01*
X0024266Y0138880D02*
X0022820Y0138880D01*
X0022668Y0140479D02*
X0021222Y0140479D01*
X0021069Y0142077D02*
X0020700Y0142077D01*
X0021860Y0132486D02*
X0015200Y0132486D01*
X0019449Y0129289D02*
X0025057Y0129289D01*
X0023459Y0130888D02*
X0020252Y0130888D01*
X0022828Y0127691D02*
X0017630Y0127691D01*
X0019492Y0126092D02*
X0021800Y0126092D01*
X0021800Y0124494D02*
X0020354Y0124494D01*
X0020700Y0122895D02*
X0022089Y0122895D01*
X0020661Y0121297D02*
X0023687Y0121297D01*
X0026000Y0121297D02*
X0026000Y0121297D01*
X0026000Y0120724D02*
X0026000Y0124923D01*
X0026000Y0124923D01*
X0026000Y0120724D01*
X0026000Y0122895D02*
X0026000Y0122895D01*
X0026000Y0124494D02*
X0026000Y0124494D01*
X0030813Y0130888D02*
X0032259Y0130888D01*
X0032411Y0129289D02*
X0033857Y0129289D01*
X0021242Y0113304D02*
X0020700Y0113304D01*
X0020700Y0111706D02*
X0022841Y0111706D01*
X0023300Y0110107D02*
X0020169Y0110107D01*
X0019046Y0108509D02*
X0023300Y0108509D01*
X0012176Y0117524D02*
X0012000Y0117597D01*
X0012000Y0117451D01*
X0012176Y0117524D01*
X0012000Y0127451D02*
X0012000Y0127905D01*
X0012117Y0127820D01*
X0012464Y0127643D01*
X0012000Y0127451D01*
X0012000Y0127691D02*
X0012370Y0127691D01*
X0012000Y0137142D02*
X0012000Y0137597D01*
X0012464Y0137404D01*
X0012117Y0137228D01*
X0012000Y0137142D01*
X0012000Y0137282D02*
X0012224Y0137282D01*
X0012000Y0147451D02*
X0012000Y0147597D01*
X0012176Y0147524D01*
X0012000Y0147451D01*
X0050345Y0142077D02*
X0050655Y0142077D01*
X0050655Y0140479D02*
X0050345Y0140479D01*
X0050345Y0138880D02*
X0050655Y0138880D01*
X0050655Y0137282D02*
X0050345Y0137282D01*
X0050345Y0135683D02*
X0050655Y0135683D01*
X0050655Y0135369D02*
X0055164Y0135369D01*
X0055164Y0132292D01*
X0055049Y0131567D01*
X0054822Y0130869D01*
X0054489Y0130215D01*
X0054058Y0129621D01*
X0053538Y0129102D01*
X0052945Y0128670D01*
X0052290Y0128337D01*
X0051592Y0128110D01*
X0050867Y0127995D01*
X0050655Y0127995D01*
X0050655Y0135369D01*
X0050655Y0134085D02*
X0050345Y0134085D01*
X0050345Y0132486D02*
X0050655Y0132486D01*
X0050655Y0130888D02*
X0050345Y0130888D01*
X0050345Y0129289D02*
X0050655Y0129289D01*
X0053726Y0129289D02*
X0057274Y0129289D01*
X0057461Y0129102D02*
X0058055Y0128670D01*
X0058710Y0128337D01*
X0059408Y0128110D01*
X0060133Y0127995D01*
X0060345Y0127995D01*
X0060345Y0135369D01*
X0055836Y0135369D01*
X0055836Y0132292D01*
X0055951Y0131567D01*
X0056178Y0130869D01*
X0056511Y0130215D01*
X0056942Y0129621D01*
X0057461Y0129102D01*
X0056171Y0130888D02*
X0054829Y0130888D01*
X0055164Y0132486D02*
X0055836Y0132486D01*
X0055836Y0134085D02*
X0055164Y0134085D01*
X0055164Y0135683D02*
X0055836Y0135683D01*
X0055836Y0135678D02*
X0060345Y0135678D01*
X0060345Y0135369D01*
X0060655Y0135369D01*
X0060655Y0135678D01*
X0065164Y0135678D01*
X0065164Y0138755D01*
X0065049Y0139480D01*
X0064822Y0140178D01*
X0064489Y0140832D01*
X0064058Y0141426D01*
X0063538Y0141945D01*
X0062945Y0142377D01*
X0062290Y0142710D01*
X0061592Y0142937D01*
X0060867Y0143052D01*
X0060655Y0143052D01*
X0060655Y0135678D01*
X0060345Y0135678D01*
X0060345Y0143052D01*
X0060133Y0143052D01*
X0059408Y0142937D01*
X0058710Y0142710D01*
X0058055Y0142377D01*
X0057461Y0141945D01*
X0056942Y0141426D01*
X0056511Y0140832D01*
X0056178Y0140178D01*
X0055951Y0139480D01*
X0055836Y0138755D01*
X0055836Y0135678D01*
X0055836Y0137282D02*
X0055164Y0137282D01*
X0055144Y0138880D02*
X0055856Y0138880D01*
X0056331Y0140479D02*
X0054669Y0140479D01*
X0053357Y0142077D02*
X0057643Y0142077D01*
X0060345Y0142077D02*
X0060655Y0142077D01*
X0060655Y0140479D02*
X0060345Y0140479D01*
X0060345Y0138880D02*
X0060655Y0138880D01*
X0060655Y0137282D02*
X0060345Y0137282D01*
X0060345Y0135683D02*
X0060655Y0135683D01*
X0060655Y0135369D02*
X0065164Y0135369D01*
X0065164Y0132292D01*
X0065049Y0131567D01*
X0064822Y0130869D01*
X0064489Y0130215D01*
X0064058Y0129621D01*
X0063538Y0129102D01*
X0062945Y0128670D01*
X0062290Y0128337D01*
X0061592Y0128110D01*
X0060867Y0127995D01*
X0060655Y0127995D01*
X0060655Y0135369D01*
X0060655Y0134085D02*
X0060345Y0134085D01*
X0060345Y0132486D02*
X0060655Y0132486D01*
X0060655Y0130888D02*
X0060345Y0130888D01*
X0060345Y0129289D02*
X0060655Y0129289D01*
X0063726Y0129289D02*
X0067274Y0129289D01*
X0067461Y0129102D02*
X0068055Y0128670D01*
X0068710Y0128337D01*
X0069408Y0128110D01*
X0070133Y0127995D01*
X0070345Y0127995D01*
X0070345Y0135369D01*
X0065836Y0135369D01*
X0065836Y0132292D01*
X0065951Y0131567D01*
X0066178Y0130869D01*
X0066511Y0130215D01*
X0066942Y0129621D01*
X0067461Y0129102D01*
X0066171Y0130888D02*
X0064829Y0130888D01*
X0065164Y0132486D02*
X0065836Y0132486D01*
X0065836Y0134085D02*
X0065164Y0134085D01*
X0065164Y0135683D02*
X0065836Y0135683D01*
X0065836Y0135678D02*
X0070345Y0135678D01*
X0070345Y0135369D01*
X0070655Y0135369D01*
X0070655Y0135678D01*
X0075164Y0135678D01*
X0075164Y0138755D01*
X0075049Y0139480D01*
X0074822Y0140178D01*
X0074489Y0140832D01*
X0074058Y0141426D01*
X0073538Y0141945D01*
X0072945Y0142377D01*
X0072290Y0142710D01*
X0071592Y0142937D01*
X0070867Y0143052D01*
X0070655Y0143052D01*
X0070655Y0135678D01*
X0070345Y0135678D01*
X0070345Y0143052D01*
X0070133Y0143052D01*
X0069408Y0142937D01*
X0068710Y0142710D01*
X0068055Y0142377D01*
X0067461Y0141945D01*
X0066942Y0141426D01*
X0066511Y0140832D01*
X0066178Y0140178D01*
X0065951Y0139480D01*
X0065836Y0138755D01*
X0065836Y0135678D01*
X0065836Y0137282D02*
X0065164Y0137282D01*
X0065144Y0138880D02*
X0065856Y0138880D01*
X0066331Y0140479D02*
X0064669Y0140479D01*
X0063357Y0142077D02*
X0067643Y0142077D01*
X0070345Y0142077D02*
X0070655Y0142077D01*
X0070655Y0140479D02*
X0070345Y0140479D01*
X0070345Y0138880D02*
X0070655Y0138880D01*
X0070655Y0137282D02*
X0070345Y0137282D01*
X0070345Y0135683D02*
X0070655Y0135683D01*
X0070655Y0135369D02*
X0075164Y0135369D01*
X0075164Y0132292D01*
X0075049Y0131567D01*
X0074822Y0130869D01*
X0074489Y0130215D01*
X0074058Y0129621D01*
X0073538Y0129102D01*
X0072945Y0128670D01*
X0072290Y0128337D01*
X0071592Y0128110D01*
X0070867Y0127995D01*
X0070655Y0127995D01*
X0070655Y0135369D01*
X0070655Y0134085D02*
X0070345Y0134085D01*
X0070345Y0132486D02*
X0070655Y0132486D01*
X0070655Y0130888D02*
X0070345Y0130888D01*
X0070345Y0129289D02*
X0070655Y0129289D01*
X0073726Y0129289D02*
X0077274Y0129289D01*
X0076171Y0130888D02*
X0074829Y0130888D01*
X0075164Y0132486D02*
X0075836Y0132486D01*
X0075836Y0134085D02*
X0075164Y0134085D01*
X0075164Y0135683D02*
X0075836Y0135683D01*
X0075836Y0137282D02*
X0075164Y0137282D01*
X0075144Y0138880D02*
X0075856Y0138880D01*
X0076331Y0140479D02*
X0074669Y0140479D01*
X0073357Y0142077D02*
X0077643Y0142077D01*
X0088570Y0145274D02*
X0089430Y0145274D01*
X0089300Y0146873D02*
X0088700Y0146873D01*
X0088700Y0148472D02*
X0089300Y0148472D01*
X0089300Y0150070D02*
X0088700Y0150070D01*
X0088700Y0151669D02*
X0089300Y0151669D01*
X0089469Y0153267D02*
X0088531Y0153267D01*
X0087705Y0154866D02*
X0090295Y0154866D01*
X0110345Y0134085D02*
X0110655Y0134085D01*
X0110655Y0132486D02*
X0110345Y0132486D01*
X0110345Y0130888D02*
X0110655Y0130888D01*
X0110655Y0129289D02*
X0110345Y0129289D01*
X0172755Y0223602D02*
X0174700Y0223602D01*
X0167790Y0268360D02*
X0161360Y0268360D01*
X0159409Y0269958D02*
X0165804Y0269958D01*
X0164501Y0271557D02*
X0157458Y0271557D01*
X0155506Y0273155D02*
X0163839Y0273155D01*
X0163401Y0274754D02*
X0153555Y0274754D01*
X0151604Y0276352D02*
X0163401Y0276352D01*
X0163532Y0277951D02*
X0149652Y0277951D01*
X0147701Y0279549D02*
X0164194Y0279549D01*
X0165063Y0281148D02*
X0145750Y0281148D01*
X0143798Y0282746D02*
X0166662Y0282746D01*
X0169860Y0284345D02*
X0141675Y0284345D01*
D20*
X0149900Y0252524D02*
X0149900Y0168124D01*
X0175000Y0152524D01*
X0185000Y0152524D01*
X0185000Y0170524D01*
X0187000Y0172524D01*
X0200000Y0172524D01*
X0205000Y0177524D01*
X0150000Y0252524D02*
X0149900Y0252524D01*
D21*
X0170000Y0259724D03*
X0181000Y0254224D03*
X0090800Y0188224D03*
X0036900Y0264124D03*
M02*
