G75*
%MOIN*%
%OFA0B0*%
%FSLAX25Y25*%
%IPPOS*%
%LPD*%
%AMOC8*
5,1,8,0,0,1.08239X$1,22.5*
%
%ADD10C,0.00600*%
D10*
X0137637Y0125356D02*
X0138705Y0124288D01*
X0139772Y0124288D01*
X0137637Y0125356D02*
X0137637Y0130694D01*
X0137637Y0126424D02*
X0140840Y0126424D01*
X0141907Y0127491D01*
X0141907Y0130694D01*
X0144076Y0130694D02*
X0145143Y0130694D01*
X0147279Y0128559D01*
X0147279Y0126424D02*
X0147279Y0130694D01*
X0149440Y0130694D02*
X0151576Y0130694D01*
X0150508Y0131762D02*
X0150508Y0127491D01*
X0149440Y0126424D01*
X0153751Y0128559D02*
X0158021Y0128559D01*
X0158021Y0129626D02*
X0158021Y0127491D01*
X0156953Y0126424D01*
X0154818Y0126424D01*
X0153751Y0128559D02*
X0153751Y0129626D01*
X0154818Y0130694D01*
X0156953Y0130694D01*
X0158021Y0129626D01*
X0160196Y0129626D02*
X0160196Y0126424D01*
X0162331Y0126424D02*
X0162331Y0129626D01*
X0161264Y0130694D01*
X0160196Y0129626D01*
X0162331Y0129626D02*
X0163399Y0130694D01*
X0164467Y0130694D01*
X0164467Y0126424D01*
X0166642Y0128559D02*
X0166642Y0129626D01*
X0167709Y0130694D01*
X0169844Y0130694D01*
X0170912Y0129626D01*
X0170912Y0127491D01*
X0169844Y0126424D01*
X0167709Y0126424D01*
X0166642Y0128559D02*
X0170912Y0128559D01*
X0173074Y0126424D02*
X0175209Y0126424D01*
X0174141Y0126424D02*
X0174141Y0132829D01*
X0175209Y0132829D01*
X0177384Y0129626D02*
X0177384Y0128559D01*
X0181655Y0128559D01*
X0181655Y0129626D02*
X0181655Y0127491D01*
X0180587Y0126424D01*
X0178452Y0126424D01*
X0177384Y0129626D02*
X0178452Y0130694D01*
X0180587Y0130694D01*
X0181655Y0129626D01*
X0183830Y0132829D02*
X0188100Y0132829D01*
X0185965Y0132829D02*
X0185965Y0126424D01*
X0184897Y0122329D02*
X0183830Y0121262D01*
X0183830Y0119126D01*
X0184897Y0118059D01*
X0188100Y0118059D01*
X0185965Y0118059D02*
X0183830Y0115924D01*
X0181655Y0116991D02*
X0181655Y0119126D01*
X0180587Y0120194D01*
X0178452Y0120194D01*
X0177384Y0119126D01*
X0177384Y0118059D01*
X0181655Y0118059D01*
X0181655Y0116991D02*
X0180587Y0115924D01*
X0178452Y0115924D01*
X0175209Y0120194D02*
X0173074Y0115924D01*
X0170939Y0120194D01*
X0162318Y0119126D02*
X0159115Y0119126D01*
X0158048Y0118059D01*
X0158048Y0116991D01*
X0159115Y0115924D01*
X0162318Y0115924D01*
X0162318Y0122329D01*
X0159115Y0122329D01*
X0158048Y0121262D01*
X0158048Y0120194D01*
X0159115Y0119126D01*
X0158048Y0136924D02*
X0161250Y0136924D01*
X0162318Y0137991D01*
X0161250Y0139059D01*
X0158048Y0139059D01*
X0158048Y0140126D02*
X0158048Y0136924D01*
X0155873Y0136924D02*
X0153737Y0136924D01*
X0154805Y0136924D02*
X0154805Y0143329D01*
X0155873Y0143329D01*
X0158048Y0140126D02*
X0159115Y0141194D01*
X0161250Y0141194D01*
X0164493Y0142262D02*
X0165561Y0143329D01*
X0167696Y0143329D01*
X0168764Y0142262D01*
X0168764Y0137991D01*
X0167696Y0136924D01*
X0165561Y0136924D01*
X0164493Y0137991D01*
X0170939Y0137991D02*
X0172006Y0136924D01*
X0174141Y0136924D01*
X0175209Y0137991D01*
X0175209Y0142262D01*
X0174141Y0143329D01*
X0172006Y0143329D01*
X0170939Y0142262D01*
X0170939Y0137991D01*
X0170939Y0136924D02*
X0173074Y0139059D01*
X0177384Y0139059D02*
X0177384Y0137991D01*
X0178452Y0136924D01*
X0180587Y0136924D01*
X0181655Y0137991D01*
X0180587Y0140126D02*
X0178452Y0140126D01*
X0177384Y0139059D01*
X0177384Y0142262D02*
X0178452Y0143329D01*
X0180587Y0143329D01*
X0181655Y0142262D01*
X0181655Y0141194D01*
X0180587Y0140126D01*
X0183830Y0143329D02*
X0188100Y0143329D01*
X0188100Y0136924D01*
X0188100Y0140126D02*
X0185965Y0140126D01*
X0184897Y0122329D02*
X0188100Y0122329D01*
X0188100Y0115924D01*
X0151576Y0136924D02*
X0149440Y0136924D01*
X0150508Y0136924D02*
X0150508Y0143329D01*
X0151576Y0143329D01*
M02*
