G75*
%MOIN*%
%OFA0B0*%
%FSLAX25Y25*%
%IPPOS*%
%LPD*%
%AMOC8*
5,1,8,0,0,1.08239X$1,22.5*
%
%ADD10C,0.13098*%
%ADD11OC8,0.07300*%
%ADD12OC8,0.05300*%
%ADD13C,0.06228*%
%ADD14C,0.05300*%
%ADD15OC8,0.07500*%
%ADD16C,0.07900*%
%ADD17C,0.09100*%
%ADD18C,0.05900*%
%ADD19C,0.03900*%
D10*
X0172000Y0275924D03*
D11*
X0140000Y0227524D03*
X0130000Y0227524D03*
X0120000Y0227524D03*
X0110000Y0227524D03*
X0110000Y0197524D03*
X0120000Y0197524D03*
X0130000Y0197524D03*
X0140000Y0197524D03*
X0140000Y0177524D03*
X0130000Y0177524D03*
X0120000Y0177524D03*
X0110000Y0177524D03*
X0110000Y0147524D03*
X0120000Y0147524D03*
X0130000Y0147524D03*
X0140000Y0147524D03*
D12*
X0157000Y0187524D03*
X0167000Y0187524D03*
X0177000Y0187524D03*
X0175000Y0172524D03*
X0175000Y0152524D03*
X0177000Y0227524D03*
X0167000Y0227524D03*
X0157000Y0227524D03*
X0082000Y0183024D03*
X0071000Y0196524D03*
X0071000Y0205524D03*
X0061000Y0205524D03*
X0061000Y0196524D03*
X0051000Y0196524D03*
X0051000Y0205524D03*
X0041000Y0205524D03*
X0041000Y0196524D03*
X0030900Y0196524D03*
X0031000Y0205524D03*
X0031000Y0245524D03*
X0041000Y0245524D03*
X0051000Y0245524D03*
X0061000Y0245524D03*
X0071000Y0245524D03*
X0053000Y0260524D03*
X0082000Y0163024D03*
X0071000Y0156524D03*
X0061000Y0156524D03*
X0051000Y0156524D03*
X0041000Y0156524D03*
X0030900Y0156524D03*
X0026000Y0124924D03*
X0026000Y0104924D03*
D13*
X0040500Y0102659D02*
X0040500Y0108388D01*
X0050500Y0108388D02*
X0050500Y0102659D01*
X0060500Y0102659D02*
X0060500Y0108388D01*
X0070500Y0108388D02*
X0070500Y0102659D01*
X0080500Y0102659D02*
X0080500Y0108388D01*
X0090500Y0108388D02*
X0090500Y0102659D01*
X0100500Y0102659D02*
X0100500Y0108388D01*
X0110500Y0108388D02*
X0110500Y0102659D01*
X0110500Y0132659D02*
X0110500Y0138388D01*
X0100500Y0138388D02*
X0100500Y0132659D01*
X0090500Y0132659D02*
X0090500Y0138388D01*
X0080500Y0138388D02*
X0080500Y0132659D01*
X0070500Y0132659D02*
X0070500Y0138388D01*
X0060500Y0138388D02*
X0060500Y0132659D01*
X0050500Y0132659D02*
X0050500Y0138388D01*
X0040500Y0138388D02*
X0040500Y0132659D01*
D14*
X0033000Y0260524D03*
D15*
X0080000Y0252524D03*
X0090000Y0252524D03*
X0100000Y0252524D03*
X0110000Y0252524D03*
X0120000Y0252524D03*
X0130000Y0252524D03*
X0140000Y0252524D03*
X0150000Y0252524D03*
D16*
X0015000Y0102524D03*
X0015000Y0112524D03*
X0015000Y0122524D03*
X0015000Y0132524D03*
X0015000Y0142524D03*
X0015000Y0152524D03*
X0015000Y0162524D03*
X0015000Y0172524D03*
X0015000Y0182524D03*
X0015000Y0192524D03*
X0015000Y0207524D03*
X0015000Y0217524D03*
X0015000Y0227524D03*
X0015000Y0237524D03*
X0015000Y0247524D03*
X0015000Y0257524D03*
X0015000Y0267524D03*
X0015000Y0277524D03*
X0205000Y0277524D03*
X0205000Y0267524D03*
X0205000Y0257524D03*
X0205000Y0247524D03*
X0205000Y0237524D03*
X0205000Y0227524D03*
X0205000Y0207524D03*
X0205000Y0197524D03*
X0205000Y0187524D03*
X0205000Y0177524D03*
X0205000Y0167524D03*
X0205000Y0157524D03*
X0205000Y0147524D03*
X0205000Y0137524D03*
D17*
X0201587Y0106524D03*
X0187807Y0106524D03*
X0174087Y0106524D03*
X0160307Y0106524D03*
X0146587Y0106524D03*
X0132807Y0106524D03*
D18*
X0094000Y0146524D02*
X0094000Y0151924D01*
X0084000Y0151924D02*
X0084000Y0146524D01*
D19*
X0090800Y0188224D03*
X0036900Y0264124D03*
X0170000Y0259724D03*
X0181000Y0254224D03*
M02*
