G75*
%MOIN*%
%OFA0B0*%
%FSLAX25Y25*%
%IPPOS*%
%LPD*%
%AMOC8*
5,1,8,0,0,1.08239X$1,22.5*
%
%ADD10OC8,0.06800*%
%ADD11OC8,0.04800*%
%ADD12C,0.05728*%
%ADD13C,0.04800*%
%ADD14OC8,0.07000*%
%ADD15C,0.07400*%
%ADD16C,0.08600*%
%ADD17C,0.05400*%
%ADD18C,0.01200*%
%ADD19C,0.03762*%
%ADD20C,0.01600*%
%ADD21R,0.03762X0.03762*%
%ADD22C,0.03200*%
%ADD23C,0.03800*%
D10*
X0110000Y0147524D03*
X0120000Y0147524D03*
X0130000Y0147524D03*
X0140000Y0147524D03*
X0140000Y0177524D03*
X0130000Y0177524D03*
X0120000Y0177524D03*
X0110000Y0177524D03*
X0110000Y0197524D03*
X0120000Y0197524D03*
X0130000Y0197524D03*
X0140000Y0197524D03*
X0140000Y0227524D03*
X0130000Y0227524D03*
X0120000Y0227524D03*
X0110000Y0227524D03*
D11*
X0082000Y0183024D03*
X0071000Y0196524D03*
X0071000Y0205524D03*
X0061000Y0205524D03*
X0061000Y0196524D03*
X0051000Y0196524D03*
X0051000Y0205524D03*
X0041000Y0205524D03*
X0041000Y0196524D03*
X0030900Y0196524D03*
X0031000Y0205524D03*
X0031000Y0245524D03*
X0041000Y0245524D03*
X0051000Y0245524D03*
X0061000Y0245524D03*
X0071000Y0245524D03*
X0053000Y0260524D03*
X0082000Y0163024D03*
X0071000Y0156524D03*
X0061000Y0156524D03*
X0051000Y0156524D03*
X0041000Y0156524D03*
X0030900Y0156524D03*
X0026000Y0124924D03*
X0026000Y0104924D03*
X0157000Y0187524D03*
X0167000Y0187524D03*
X0177000Y0187524D03*
X0175000Y0172524D03*
X0175000Y0152524D03*
X0177000Y0227524D03*
X0167000Y0227524D03*
X0157000Y0227524D03*
D12*
X0110500Y0138388D02*
X0110500Y0132659D01*
X0100500Y0132659D02*
X0100500Y0138388D01*
X0090500Y0138388D02*
X0090500Y0132659D01*
X0080500Y0132659D02*
X0080500Y0138388D01*
X0070500Y0138388D02*
X0070500Y0132659D01*
X0060500Y0132659D02*
X0060500Y0138388D01*
X0050500Y0138388D02*
X0050500Y0132659D01*
X0040500Y0132659D02*
X0040500Y0138388D01*
X0040500Y0108388D02*
X0040500Y0102659D01*
X0050500Y0102659D02*
X0050500Y0108388D01*
X0060500Y0108388D02*
X0060500Y0102659D01*
X0070500Y0102659D02*
X0070500Y0108388D01*
X0080500Y0108388D02*
X0080500Y0102659D01*
X0090500Y0102659D02*
X0090500Y0108388D01*
X0100500Y0108388D02*
X0100500Y0102659D01*
X0110500Y0102659D02*
X0110500Y0108388D01*
D13*
X0033000Y0260524D03*
D14*
X0080000Y0252524D03*
X0090000Y0252524D03*
X0100000Y0252524D03*
X0110000Y0252524D03*
X0120000Y0252524D03*
X0130000Y0252524D03*
X0140000Y0252524D03*
X0150000Y0252524D03*
D15*
X0205000Y0257524D03*
X0205000Y0267524D03*
X0205000Y0277524D03*
X0205000Y0247524D03*
X0205000Y0237524D03*
X0205000Y0227524D03*
X0205000Y0207524D03*
X0205000Y0197524D03*
X0205000Y0187524D03*
X0205000Y0177524D03*
X0205000Y0167524D03*
X0205000Y0157524D03*
X0205000Y0147524D03*
X0205000Y0137524D03*
X0015000Y0142524D03*
X0015000Y0132524D03*
X0015000Y0122524D03*
X0015000Y0112524D03*
X0015000Y0102524D03*
X0015000Y0152524D03*
X0015000Y0162524D03*
X0015000Y0172524D03*
X0015000Y0182524D03*
X0015000Y0192524D03*
X0015000Y0207524D03*
X0015000Y0217524D03*
X0015000Y0227524D03*
X0015000Y0237524D03*
X0015000Y0247524D03*
X0015000Y0257524D03*
X0015000Y0267524D03*
X0015000Y0277524D03*
D16*
X0132807Y0106524D03*
X0146587Y0106524D03*
X0160307Y0106524D03*
X0174087Y0106524D03*
X0187807Y0106524D03*
X0201587Y0106524D03*
D17*
X0094700Y0144424D02*
X0094700Y0149824D01*
X0084700Y0149824D02*
X0084700Y0144424D01*
D18*
X0007200Y0094724D02*
X0007200Y0285024D01*
X0212721Y0285024D01*
X0212721Y0094724D01*
X0007200Y0094724D01*
X0007200Y0094921D02*
X0212721Y0094921D01*
X0212721Y0096119D02*
X0136855Y0096119D01*
X0136386Y0095650D02*
X0142327Y0101591D01*
X0142905Y0101013D01*
X0145294Y0100024D01*
X0147880Y0100024D01*
X0150269Y0101013D01*
X0152097Y0102842D01*
X0153087Y0105231D01*
X0153087Y0107817D01*
X0152097Y0110206D01*
X0150269Y0112034D01*
X0147880Y0113024D01*
X0145294Y0113024D01*
X0142905Y0112034D01*
X0141076Y0110206D01*
X0140087Y0107817D01*
X0140087Y0107270D01*
X0138675Y0105859D01*
X0138707Y0106059D01*
X0138707Y0106139D01*
X0133191Y0106139D01*
X0133191Y0106908D01*
X0132423Y0106908D01*
X0132423Y0112424D01*
X0132343Y0112424D01*
X0131425Y0112278D01*
X0130542Y0111991D01*
X0129715Y0111570D01*
X0128963Y0111024D01*
X0128307Y0110367D01*
X0127761Y0109616D01*
X0127339Y0108788D01*
X0127052Y0107905D01*
X0126907Y0106988D01*
X0126907Y0106908D01*
X0132423Y0106908D01*
X0132423Y0106139D01*
X0126907Y0106139D01*
X0126907Y0106059D01*
X0127052Y0105142D01*
X0127339Y0104259D01*
X0127761Y0103431D01*
X0128307Y0102680D01*
X0128963Y0102023D01*
X0129715Y0101477D01*
X0130542Y0101056D01*
X0131257Y0100824D01*
X0115221Y0100824D01*
X0115564Y0101652D01*
X0115564Y0109395D01*
X0114793Y0111256D01*
X0113369Y0112681D01*
X0111507Y0113452D01*
X0109493Y0113452D01*
X0107631Y0112681D01*
X0106207Y0111256D01*
X0105500Y0109550D01*
X0104793Y0111256D01*
X0103369Y0112681D01*
X0101507Y0113452D01*
X0099493Y0113452D01*
X0097631Y0112681D01*
X0096207Y0111256D01*
X0095500Y0109550D01*
X0094793Y0111256D01*
X0093369Y0112681D01*
X0091507Y0113452D01*
X0089493Y0113452D01*
X0087631Y0112681D01*
X0086207Y0111256D01*
X0085500Y0109550D01*
X0084793Y0111256D01*
X0083369Y0112681D01*
X0081507Y0113452D01*
X0079493Y0113452D01*
X0077631Y0112681D01*
X0076207Y0111256D01*
X0075500Y0109550D01*
X0074793Y0111256D01*
X0073369Y0112681D01*
X0071507Y0113452D01*
X0069493Y0113452D01*
X0067631Y0112681D01*
X0066207Y0111256D01*
X0065500Y0109550D01*
X0064793Y0111256D01*
X0063369Y0112681D01*
X0061507Y0113452D01*
X0059493Y0113452D01*
X0057631Y0112681D01*
X0057317Y0112366D01*
X0041401Y0128282D01*
X0041545Y0128305D01*
X0042214Y0128522D01*
X0042840Y0128841D01*
X0043408Y0129254D01*
X0043905Y0129751D01*
X0044318Y0130320D01*
X0044637Y0130946D01*
X0044854Y0131614D01*
X0044964Y0132308D01*
X0044964Y0135169D01*
X0040855Y0135169D01*
X0040855Y0135878D01*
X0044964Y0135878D01*
X0044964Y0138739D01*
X0044854Y0139433D01*
X0044637Y0140101D01*
X0044318Y0140728D01*
X0043905Y0141296D01*
X0043408Y0141793D01*
X0042840Y0142206D01*
X0042805Y0142224D01*
X0048195Y0142224D01*
X0048160Y0142206D01*
X0047592Y0141793D01*
X0047095Y0141296D01*
X0046682Y0140728D01*
X0046363Y0140101D01*
X0046146Y0139433D01*
X0046036Y0138739D01*
X0046036Y0135878D01*
X0050145Y0135878D01*
X0050145Y0135169D01*
X0046036Y0135169D01*
X0046036Y0132308D01*
X0046146Y0131614D01*
X0046363Y0130946D01*
X0046682Y0130320D01*
X0047095Y0129751D01*
X0047592Y0129254D01*
X0048160Y0128841D01*
X0048786Y0128522D01*
X0049455Y0128305D01*
X0050145Y0128196D01*
X0050145Y0135169D01*
X0050855Y0135169D01*
X0050855Y0135878D01*
X0054964Y0135878D01*
X0054964Y0138739D01*
X0054854Y0139433D01*
X0054637Y0140101D01*
X0054318Y0140728D01*
X0053905Y0141296D01*
X0053408Y0141793D01*
X0052840Y0142206D01*
X0052805Y0142224D01*
X0058195Y0142224D01*
X0058160Y0142206D01*
X0057592Y0141793D01*
X0057095Y0141296D01*
X0056682Y0140728D01*
X0056363Y0140101D01*
X0056146Y0139433D01*
X0056036Y0138739D01*
X0056036Y0135878D01*
X0060145Y0135878D01*
X0060145Y0135169D01*
X0056036Y0135169D01*
X0056036Y0132308D01*
X0056146Y0131614D01*
X0056363Y0130946D01*
X0056682Y0130320D01*
X0057095Y0129751D01*
X0057592Y0129254D01*
X0058160Y0128841D01*
X0058786Y0128522D01*
X0059455Y0128305D01*
X0060145Y0128196D01*
X0060145Y0135169D01*
X0060855Y0135169D01*
X0060855Y0135878D01*
X0064964Y0135878D01*
X0064964Y0138739D01*
X0064854Y0139433D01*
X0064637Y0140101D01*
X0064318Y0140728D01*
X0063905Y0141296D01*
X0063408Y0141793D01*
X0062840Y0142206D01*
X0062805Y0142224D01*
X0068195Y0142224D01*
X0068160Y0142206D01*
X0067592Y0141793D01*
X0067095Y0141296D01*
X0066682Y0140728D01*
X0066363Y0140101D01*
X0066146Y0139433D01*
X0066036Y0138739D01*
X0066036Y0135878D01*
X0070145Y0135878D01*
X0070145Y0135169D01*
X0066036Y0135169D01*
X0066036Y0132308D01*
X0066146Y0131614D01*
X0066363Y0130946D01*
X0066682Y0130320D01*
X0067095Y0129751D01*
X0067592Y0129254D01*
X0068160Y0128841D01*
X0068786Y0128522D01*
X0069455Y0128305D01*
X0070145Y0128196D01*
X0070145Y0135169D01*
X0070855Y0135169D01*
X0070855Y0135878D01*
X0074964Y0135878D01*
X0074964Y0138739D01*
X0074854Y0139433D01*
X0074637Y0140101D01*
X0074318Y0140728D01*
X0073905Y0141296D01*
X0073408Y0141793D01*
X0072840Y0142206D01*
X0072805Y0142224D01*
X0073255Y0142224D01*
X0073461Y0142172D01*
X0073807Y0142224D01*
X0074157Y0142224D01*
X0074353Y0142305D01*
X0074563Y0142336D01*
X0074863Y0142516D01*
X0075186Y0142650D01*
X0075336Y0142800D01*
X0077876Y0144324D01*
X0079800Y0144324D01*
X0079800Y0143449D01*
X0080054Y0142837D01*
X0079455Y0142742D01*
X0078786Y0142525D01*
X0078160Y0142206D01*
X0077592Y0141793D01*
X0077095Y0141296D01*
X0076682Y0140728D01*
X0076363Y0140101D01*
X0076146Y0139433D01*
X0076036Y0138739D01*
X0076036Y0135878D01*
X0080145Y0135878D01*
X0080145Y0135169D01*
X0076036Y0135169D01*
X0076036Y0132308D01*
X0076146Y0131614D01*
X0076363Y0130946D01*
X0076682Y0130320D01*
X0077095Y0129751D01*
X0077592Y0129254D01*
X0078160Y0128841D01*
X0078786Y0128522D01*
X0079455Y0128305D01*
X0080145Y0128196D01*
X0080145Y0135169D01*
X0080855Y0135169D01*
X0080855Y0135878D01*
X0084964Y0135878D01*
X0084964Y0138739D01*
X0084854Y0139433D01*
X0084825Y0139524D01*
X0085675Y0139524D01*
X0086253Y0139763D01*
X0086146Y0139433D01*
X0086036Y0138739D01*
X0086036Y0135878D01*
X0090145Y0135878D01*
X0090145Y0135169D01*
X0086036Y0135169D01*
X0086036Y0132308D01*
X0086146Y0131614D01*
X0086363Y0130946D01*
X0086682Y0130320D01*
X0087095Y0129751D01*
X0087592Y0129254D01*
X0088160Y0128841D01*
X0088786Y0128522D01*
X0089455Y0128305D01*
X0090145Y0128196D01*
X0090145Y0135169D01*
X0090855Y0135169D01*
X0090855Y0135878D01*
X0094964Y0135878D01*
X0094964Y0138739D01*
X0094854Y0139433D01*
X0094825Y0139524D01*
X0095675Y0139524D01*
X0096253Y0139763D01*
X0096146Y0139433D01*
X0096036Y0138739D01*
X0096036Y0135878D01*
X0100145Y0135878D01*
X0100145Y0135169D01*
X0096036Y0135169D01*
X0096036Y0132308D01*
X0096146Y0131614D01*
X0096363Y0130946D01*
X0096682Y0130320D01*
X0097095Y0129751D01*
X0097592Y0129254D01*
X0098160Y0128841D01*
X0098786Y0128522D01*
X0099455Y0128305D01*
X0100145Y0128196D01*
X0100145Y0135169D01*
X0100855Y0135169D01*
X0100855Y0135878D01*
X0104964Y0135878D01*
X0104964Y0138739D01*
X0104854Y0139433D01*
X0104637Y0140101D01*
X0104318Y0140728D01*
X0103905Y0141296D01*
X0103408Y0141793D01*
X0102840Y0142206D01*
X0102214Y0142525D01*
X0101545Y0142742D01*
X0100855Y0142851D01*
X0100855Y0135878D01*
X0100145Y0135878D01*
X0100145Y0142851D01*
X0099455Y0142742D01*
X0099284Y0142687D01*
X0099600Y0143449D01*
X0099600Y0150798D01*
X0099212Y0151735D01*
X0099920Y0151499D01*
X0100343Y0151324D01*
X0100446Y0151324D01*
X0100543Y0151291D01*
X0100999Y0151324D01*
X0105880Y0151324D01*
X0104400Y0149843D01*
X0104400Y0145204D01*
X0107680Y0141924D01*
X0107772Y0141924D01*
X0107592Y0141793D01*
X0107095Y0141296D01*
X0106682Y0140728D01*
X0106363Y0140101D01*
X0106146Y0139433D01*
X0106036Y0138739D01*
X0106036Y0135878D01*
X0110145Y0135878D01*
X0110145Y0135169D01*
X0106036Y0135169D01*
X0106036Y0132308D01*
X0106146Y0131614D01*
X0106363Y0130946D01*
X0106682Y0130320D01*
X0107095Y0129751D01*
X0107592Y0129254D01*
X0108160Y0128841D01*
X0108786Y0128522D01*
X0109455Y0128305D01*
X0110145Y0128196D01*
X0110145Y0135169D01*
X0110855Y0135169D01*
X0110855Y0135878D01*
X0114964Y0135878D01*
X0114964Y0138739D01*
X0114854Y0139433D01*
X0114637Y0140101D01*
X0114318Y0140728D01*
X0113905Y0141296D01*
X0113408Y0141793D01*
X0112840Y0142206D01*
X0112682Y0142286D01*
X0115000Y0144604D01*
X0117680Y0141924D01*
X0122320Y0141924D01*
X0125424Y0145028D01*
X0127929Y0142524D01*
X0129800Y0142524D01*
X0129800Y0147324D01*
X0125600Y0147324D01*
X0125600Y0147724D01*
X0129800Y0147724D01*
X0129800Y0147324D01*
X0130200Y0147324D01*
X0130200Y0147724D01*
X0135000Y0147724D01*
X0139800Y0147724D01*
X0139800Y0147324D01*
X0135000Y0147324D01*
X0135000Y0145453D01*
X0137929Y0142524D01*
X0139800Y0142524D01*
X0139800Y0147324D01*
X0140200Y0147324D01*
X0140200Y0147724D01*
X0145000Y0147724D01*
X0145000Y0149595D01*
X0143271Y0151324D01*
X0150502Y0151324D01*
X0151178Y0150648D01*
X0152684Y0150024D01*
X0154316Y0150024D01*
X0155822Y0150648D01*
X0156976Y0151801D01*
X0157600Y0153308D01*
X0157600Y0154939D01*
X0156976Y0156446D01*
X0155822Y0157599D01*
X0154316Y0158224D01*
X0152684Y0158224D01*
X0151178Y0157599D01*
X0150502Y0156924D01*
X0139600Y0156924D01*
X0139600Y0157410D01*
X0139747Y0171924D01*
X0142320Y0171924D01*
X0145600Y0175204D01*
X0145600Y0179843D01*
X0143520Y0181924D01*
X0148060Y0181924D01*
X0158419Y0178816D01*
X0158419Y0177931D01*
X0159708Y0176643D01*
X0163900Y0176643D01*
X0163900Y0170322D01*
X0163224Y0169646D01*
X0162600Y0168139D01*
X0162600Y0166508D01*
X0163224Y0165001D01*
X0164378Y0163848D01*
X0165884Y0163224D01*
X0167516Y0163224D01*
X0169022Y0163848D01*
X0170176Y0165001D01*
X0170800Y0166508D01*
X0170800Y0168139D01*
X0170176Y0169646D01*
X0169500Y0170322D01*
X0169500Y0176064D01*
X0176360Y0182924D01*
X0178905Y0182924D01*
X0181600Y0185618D01*
X0181600Y0188164D01*
X0199301Y0205865D01*
X0199998Y0204182D01*
X0201658Y0202522D01*
X0202473Y0202184D01*
X0202222Y0202057D01*
X0201547Y0201566D01*
X0200957Y0200976D01*
X0200467Y0200301D01*
X0200088Y0199558D01*
X0199830Y0198765D01*
X0199700Y0197941D01*
X0199700Y0197924D01*
X0204600Y0197924D01*
X0204600Y0197124D01*
X0199700Y0197124D01*
X0199700Y0197106D01*
X0199830Y0196283D01*
X0200088Y0195489D01*
X0200467Y0194746D01*
X0200957Y0194071D01*
X0201547Y0193481D01*
X0202222Y0192991D01*
X0202966Y0192612D01*
X0203237Y0192524D01*
X0202966Y0192435D01*
X0202222Y0192057D01*
X0201547Y0191566D01*
X0200957Y0190976D01*
X0200467Y0190301D01*
X0200088Y0189558D01*
X0199830Y0188765D01*
X0199700Y0187941D01*
X0199700Y0187924D01*
X0204600Y0187924D01*
X0204600Y0197124D01*
X0205400Y0197124D01*
X0205400Y0197924D01*
X0210300Y0197924D01*
X0210300Y0197941D01*
X0210169Y0198765D01*
X0209912Y0199558D01*
X0209533Y0200301D01*
X0209043Y0200976D01*
X0208453Y0201566D01*
X0207778Y0202057D01*
X0207527Y0202184D01*
X0208342Y0202522D01*
X0210002Y0204182D01*
X0210900Y0206350D01*
X0210900Y0208697D01*
X0210002Y0210866D01*
X0208342Y0212525D01*
X0206566Y0213261D01*
X0206900Y0214067D01*
X0206900Y0221925D01*
X0208342Y0222522D01*
X0210002Y0224182D01*
X0210900Y0226350D01*
X0210900Y0228697D01*
X0210002Y0230866D01*
X0208344Y0232524D01*
X0210002Y0234182D01*
X0210900Y0236350D01*
X0210900Y0238697D01*
X0210002Y0240866D01*
X0208344Y0242524D01*
X0210002Y0244182D01*
X0210900Y0246350D01*
X0210900Y0248697D01*
X0210002Y0250866D01*
X0208344Y0252524D01*
X0210002Y0254182D01*
X0210900Y0256350D01*
X0210900Y0258697D01*
X0210002Y0260866D01*
X0208344Y0262524D01*
X0210002Y0264182D01*
X0210900Y0266350D01*
X0210900Y0268697D01*
X0210002Y0270866D01*
X0208344Y0272524D01*
X0210002Y0274182D01*
X0210900Y0276350D01*
X0210900Y0278697D01*
X0210002Y0280866D01*
X0208342Y0282525D01*
X0206174Y0283424D01*
X0203826Y0283424D01*
X0201658Y0282525D01*
X0199998Y0280866D01*
X0199100Y0278697D01*
X0199100Y0276350D01*
X0199764Y0274747D01*
X0170614Y0245597D01*
X0169826Y0244810D01*
X0169400Y0243781D01*
X0169400Y0231629D01*
X0168905Y0232124D01*
X0165095Y0232124D01*
X0164000Y0231029D01*
X0164000Y0252581D01*
X0163574Y0253610D01*
X0154774Y0262410D01*
X0153986Y0263197D01*
X0152957Y0263624D01*
X0097943Y0263624D01*
X0096914Y0263197D01*
X0091940Y0258224D01*
X0088560Y0258224D01*
X0083274Y0263510D01*
X0082486Y0264297D01*
X0081457Y0264724D01*
X0063222Y0264724D01*
X0055196Y0271488D01*
X0054886Y0271797D01*
X0054772Y0271844D01*
X0054678Y0271924D01*
X0054261Y0272056D01*
X0053857Y0272224D01*
X0053734Y0272224D01*
X0053617Y0272261D01*
X0053181Y0272224D01*
X0032347Y0272224D01*
X0032042Y0272278D01*
X0031795Y0272224D01*
X0031543Y0272224D01*
X0031257Y0272105D01*
X0030954Y0272038D01*
X0030747Y0271894D01*
X0030514Y0271797D01*
X0030295Y0271578D01*
X0030041Y0271401D01*
X0029905Y0271188D01*
X0029726Y0271010D01*
X0029608Y0270723D01*
X0023705Y0261488D01*
X0023526Y0261310D01*
X0023408Y0261023D01*
X0023241Y0260762D01*
X0023197Y0260514D01*
X0023100Y0260281D01*
X0023100Y0259971D01*
X0023046Y0259666D01*
X0023100Y0259419D01*
X0023100Y0193967D01*
X0023526Y0192938D01*
X0024314Y0192150D01*
X0057200Y0159264D01*
X0057200Y0159229D01*
X0056400Y0158429D01*
X0056400Y0158383D01*
X0056086Y0158697D01*
X0055057Y0159124D01*
X0054905Y0159124D01*
X0052905Y0161124D01*
X0049095Y0161124D01*
X0046436Y0158465D01*
X0046293Y0158622D01*
X0046233Y0158650D01*
X0046186Y0158697D01*
X0045731Y0158886D01*
X0045284Y0159095D01*
X0045218Y0159098D01*
X0045157Y0159124D01*
X0044905Y0159124D01*
X0042905Y0161124D01*
X0039095Y0161124D01*
X0036400Y0158429D01*
X0036400Y0154618D01*
X0039095Y0151924D01*
X0042905Y0151924D01*
X0043909Y0152927D01*
X0048566Y0147824D01*
X0033700Y0147824D01*
X0033700Y0152818D01*
X0035500Y0154618D01*
X0035500Y0158429D01*
X0032805Y0161124D01*
X0028995Y0161124D01*
X0026300Y0158429D01*
X0026300Y0154618D01*
X0028100Y0152818D01*
X0028100Y0144467D01*
X0028526Y0143438D01*
X0029314Y0142650D01*
X0030343Y0142224D01*
X0038195Y0142224D01*
X0038160Y0142206D01*
X0037592Y0141793D01*
X0037095Y0141296D01*
X0036682Y0140728D01*
X0036363Y0140101D01*
X0036146Y0139433D01*
X0036036Y0138739D01*
X0036036Y0135878D01*
X0040145Y0135878D01*
X0040145Y0135169D01*
X0036036Y0135169D01*
X0036036Y0133648D01*
X0025400Y0144283D01*
X0025400Y0155781D01*
X0024974Y0156810D01*
X0020763Y0161020D01*
X0020900Y0161350D01*
X0020900Y0163697D01*
X0020002Y0165866D01*
X0018344Y0167524D01*
X0020002Y0169182D01*
X0020900Y0171350D01*
X0020900Y0173697D01*
X0020002Y0175866D01*
X0018344Y0177524D01*
X0020002Y0179182D01*
X0020900Y0181350D01*
X0020900Y0183697D01*
X0020002Y0185866D01*
X0018344Y0187524D01*
X0020002Y0189182D01*
X0020900Y0191350D01*
X0020900Y0193697D01*
X0020002Y0195866D01*
X0018342Y0197525D01*
X0016174Y0198424D01*
X0013826Y0198424D01*
X0011658Y0197525D01*
X0009998Y0195866D01*
X0009100Y0193697D01*
X0009100Y0191350D01*
X0009998Y0189182D01*
X0011656Y0187524D01*
X0009998Y0185866D01*
X0009100Y0183697D01*
X0009100Y0181350D01*
X0009998Y0179182D01*
X0011656Y0177524D01*
X0009998Y0175866D01*
X0009100Y0173697D01*
X0009100Y0171350D01*
X0009998Y0169182D01*
X0011656Y0167524D01*
X0009998Y0165866D01*
X0009100Y0163697D01*
X0009100Y0161350D01*
X0009998Y0159182D01*
X0011656Y0157524D01*
X0009998Y0155866D01*
X0009100Y0153697D01*
X0009100Y0151350D01*
X0009998Y0149182D01*
X0011656Y0147524D01*
X0009998Y0145866D01*
X0009100Y0143697D01*
X0009100Y0141350D01*
X0009998Y0139182D01*
X0011658Y0137522D01*
X0012473Y0137184D01*
X0012222Y0137057D01*
X0011547Y0136566D01*
X0010957Y0135976D01*
X0010467Y0135301D01*
X0010088Y0134558D01*
X0009830Y0133765D01*
X0009700Y0132941D01*
X0009700Y0132924D01*
X0014600Y0132924D01*
X0014600Y0132124D01*
X0009700Y0132124D01*
X0009700Y0132106D01*
X0009830Y0131283D01*
X0010088Y0130489D01*
X0010467Y0129746D01*
X0010957Y0129071D01*
X0011547Y0128481D01*
X0012222Y0127991D01*
X0012473Y0127863D01*
X0011658Y0127525D01*
X0009998Y0125866D01*
X0009100Y0123697D01*
X0009100Y0121350D01*
X0009998Y0119182D01*
X0011656Y0117524D01*
X0009998Y0115866D01*
X0009100Y0113697D01*
X0009100Y0111350D01*
X0009998Y0109182D01*
X0011656Y0107524D01*
X0009998Y0105866D01*
X0009100Y0103697D01*
X0009100Y0101350D01*
X0009998Y0099182D01*
X0011658Y0097522D01*
X0013826Y0096624D01*
X0016174Y0096624D01*
X0018342Y0097522D01*
X0020002Y0099182D01*
X0020900Y0101350D01*
X0020900Y0103697D01*
X0020002Y0105866D01*
X0018344Y0107524D01*
X0020002Y0109182D01*
X0020900Y0111350D01*
X0020900Y0113697D01*
X0020002Y0115866D01*
X0018344Y0117524D01*
X0020002Y0119182D01*
X0020900Y0121350D01*
X0020900Y0123697D01*
X0020002Y0125866D01*
X0018342Y0127525D01*
X0017527Y0127863D01*
X0017778Y0127991D01*
X0018453Y0128481D01*
X0019043Y0129071D01*
X0019533Y0129746D01*
X0019912Y0130489D01*
X0020169Y0131283D01*
X0020300Y0132106D01*
X0020300Y0132124D01*
X0015400Y0132124D01*
X0015400Y0132924D01*
X0020300Y0132924D01*
X0020300Y0132941D01*
X0020169Y0133765D01*
X0020107Y0133957D01*
X0025140Y0128924D01*
X0024343Y0128924D01*
X0022000Y0126580D01*
X0022000Y0125124D01*
X0025800Y0125124D01*
X0025800Y0124724D01*
X0022000Y0124724D01*
X0022000Y0123267D01*
X0024343Y0120924D01*
X0025800Y0120924D01*
X0025800Y0124724D01*
X0026200Y0124724D01*
X0026200Y0120924D01*
X0027657Y0120924D01*
X0030000Y0123267D01*
X0030000Y0124064D01*
X0037400Y0116664D01*
X0037400Y0112450D01*
X0036207Y0111256D01*
X0035436Y0109395D01*
X0035436Y0101652D01*
X0036207Y0099791D01*
X0037631Y0098366D01*
X0039493Y0097595D01*
X0041507Y0097595D01*
X0043369Y0098366D01*
X0044793Y0099791D01*
X0045500Y0101497D01*
X0046207Y0099791D01*
X0047631Y0098366D01*
X0049493Y0097595D01*
X0051507Y0097595D01*
X0053369Y0098366D01*
X0054793Y0099791D01*
X0055500Y0101497D01*
X0056207Y0099791D01*
X0057631Y0098366D01*
X0059493Y0097595D01*
X0061507Y0097595D01*
X0063369Y0098366D01*
X0064793Y0099791D01*
X0065500Y0101497D01*
X0066207Y0099791D01*
X0067631Y0098366D01*
X0069493Y0097595D01*
X0071507Y0097595D01*
X0073318Y0098345D01*
X0075226Y0096438D01*
X0076014Y0095650D01*
X0077043Y0095224D01*
X0135357Y0095224D01*
X0136386Y0095650D01*
X0138054Y0097318D02*
X0212721Y0097318D01*
X0212721Y0098516D02*
X0139252Y0098516D01*
X0140451Y0099715D02*
X0212721Y0099715D01*
X0212721Y0100913D02*
X0205027Y0100913D01*
X0205269Y0101013D02*
X0207097Y0102842D01*
X0208087Y0105231D01*
X0208087Y0107817D01*
X0207097Y0110206D01*
X0205269Y0112034D01*
X0202880Y0113024D01*
X0200294Y0113024D01*
X0197905Y0112034D01*
X0196076Y0110206D01*
X0195087Y0107817D01*
X0195087Y0105231D01*
X0196076Y0102842D01*
X0197905Y0101013D01*
X0200294Y0100024D01*
X0202880Y0100024D01*
X0205269Y0101013D01*
X0206367Y0102112D02*
X0212721Y0102112D01*
X0212721Y0103310D02*
X0207291Y0103310D01*
X0207788Y0104509D02*
X0212721Y0104509D01*
X0212721Y0105707D02*
X0208087Y0105707D01*
X0208087Y0106906D02*
X0212721Y0106906D01*
X0212721Y0108104D02*
X0207967Y0108104D01*
X0207471Y0109303D02*
X0212721Y0109303D01*
X0212721Y0110501D02*
X0206801Y0110501D01*
X0205603Y0111700D02*
X0212721Y0111700D01*
X0212721Y0112898D02*
X0203182Y0112898D01*
X0199991Y0112898D02*
X0175682Y0112898D01*
X0175380Y0113024D02*
X0172794Y0113024D01*
X0170405Y0112034D01*
X0168576Y0110206D01*
X0167587Y0107817D01*
X0167587Y0105231D01*
X0168576Y0102842D01*
X0170405Y0101013D01*
X0172794Y0100024D01*
X0175380Y0100024D01*
X0177769Y0101013D01*
X0179597Y0102842D01*
X0180587Y0105231D01*
X0180587Y0107817D01*
X0179597Y0110206D01*
X0177769Y0112034D01*
X0175380Y0113024D01*
X0172491Y0112898D02*
X0148182Y0112898D01*
X0150603Y0111700D02*
X0157470Y0111700D01*
X0157215Y0111570D02*
X0156463Y0111024D01*
X0155807Y0110367D01*
X0155261Y0109616D01*
X0154839Y0108788D01*
X0154552Y0107905D01*
X0154407Y0106988D01*
X0154407Y0106908D01*
X0159923Y0106908D01*
X0159923Y0112424D01*
X0159843Y0112424D01*
X0158925Y0112278D01*
X0158042Y0111991D01*
X0157215Y0111570D01*
X0155941Y0110501D02*
X0151801Y0110501D01*
X0152471Y0109303D02*
X0155101Y0109303D01*
X0154617Y0108104D02*
X0152967Y0108104D01*
X0153087Y0106906D02*
X0159923Y0106906D01*
X0159923Y0106908D02*
X0159923Y0106139D01*
X0160691Y0106139D01*
X0160691Y0100624D01*
X0160771Y0100624D01*
X0161689Y0100769D01*
X0162572Y0101056D01*
X0163399Y0101477D01*
X0164151Y0102023D01*
X0164807Y0102680D01*
X0165353Y0103431D01*
X0165775Y0104259D01*
X0166062Y0105142D01*
X0166207Y0106059D01*
X0166207Y0106139D01*
X0160691Y0106139D01*
X0160691Y0106908D01*
X0159923Y0106908D01*
X0160307Y0106524D02*
X0161200Y0105724D01*
X0166700Y0100224D01*
X0176600Y0100224D01*
X0182100Y0105724D01*
X0181963Y0105707D02*
X0180587Y0105707D01*
X0180587Y0106906D02*
X0187423Y0106906D01*
X0187423Y0106908D02*
X0187423Y0106139D01*
X0188191Y0106139D01*
X0188191Y0100624D01*
X0188271Y0100624D01*
X0189189Y0100769D01*
X0190072Y0101056D01*
X0190899Y0101477D01*
X0191651Y0102023D01*
X0192307Y0102680D01*
X0192853Y0103431D01*
X0193275Y0104259D01*
X0193562Y0105142D01*
X0193707Y0106059D01*
X0193707Y0106139D01*
X0188191Y0106139D01*
X0188191Y0106908D01*
X0187423Y0106908D01*
X0187423Y0112424D01*
X0187343Y0112424D01*
X0186425Y0112278D01*
X0185542Y0111991D01*
X0184715Y0111570D01*
X0183963Y0111024D01*
X0183307Y0110367D01*
X0182761Y0109616D01*
X0182339Y0108788D01*
X0182052Y0107905D01*
X0181907Y0106988D01*
X0181907Y0106908D01*
X0187423Y0106908D01*
X0187807Y0106524D02*
X0201000Y0124724D01*
X0203826Y0131624D02*
X0201658Y0132522D01*
X0199998Y0134182D01*
X0199100Y0136350D01*
X0199100Y0138697D01*
X0199998Y0140866D01*
X0201656Y0142524D01*
X0199998Y0144182D01*
X0199100Y0146350D01*
X0199100Y0148697D01*
X0199998Y0150866D01*
X0201656Y0152524D01*
X0199998Y0154182D01*
X0199100Y0156350D01*
X0199100Y0158697D01*
X0199998Y0160866D01*
X0201656Y0162524D01*
X0199998Y0164182D01*
X0199100Y0166350D01*
X0199100Y0168697D01*
X0199111Y0168724D01*
X0188800Y0168724D01*
X0188800Y0151768D01*
X0188221Y0150371D01*
X0187153Y0149302D01*
X0185756Y0148724D01*
X0177705Y0148724D01*
X0176905Y0147924D01*
X0173095Y0147924D01*
X0170400Y0150618D01*
X0170400Y0150804D01*
X0150058Y0162643D01*
X0147808Y0162643D01*
X0146519Y0163931D01*
X0146519Y0169516D01*
X0147808Y0170805D01*
X0153392Y0170805D01*
X0154681Y0169516D01*
X0154681Y0168745D01*
X0174651Y0157124D01*
X0176905Y0157124D01*
X0177705Y0156324D01*
X0181200Y0156324D01*
X0181200Y0171279D01*
X0181779Y0172676D01*
X0182847Y0173745D01*
X0184847Y0175745D01*
X0186244Y0176324D01*
X0198426Y0176324D01*
X0199100Y0176998D01*
X0199100Y0178697D01*
X0199998Y0180866D01*
X0201658Y0182525D01*
X0202473Y0182863D01*
X0202222Y0182991D01*
X0201547Y0183481D01*
X0200957Y0184071D01*
X0200467Y0184746D01*
X0200088Y0185489D01*
X0199830Y0186283D01*
X0199700Y0187106D01*
X0199700Y0187124D01*
X0204600Y0187124D01*
X0204600Y0187924D01*
X0205400Y0187924D01*
X0205400Y0192224D01*
X0205400Y0197124D01*
X0210300Y0197124D01*
X0210300Y0197106D01*
X0210169Y0196283D01*
X0209912Y0195489D01*
X0209533Y0194746D01*
X0209043Y0194071D01*
X0208453Y0193481D01*
X0207778Y0192991D01*
X0207034Y0192612D01*
X0206763Y0192524D01*
X0207034Y0192435D01*
X0207778Y0192057D01*
X0208453Y0191566D01*
X0209043Y0190976D01*
X0209533Y0190301D01*
X0209912Y0189558D01*
X0210169Y0188765D01*
X0210300Y0187941D01*
X0210300Y0187924D01*
X0205400Y0187924D01*
X0205400Y0187124D01*
X0210300Y0187124D01*
X0210300Y0187106D01*
X0210169Y0186283D01*
X0209912Y0185489D01*
X0209533Y0184746D01*
X0209043Y0184071D01*
X0208453Y0183481D01*
X0207778Y0182991D01*
X0207527Y0182863D01*
X0208342Y0182525D01*
X0210002Y0180866D01*
X0210900Y0178697D01*
X0210900Y0176350D01*
X0210002Y0174182D01*
X0208344Y0172524D01*
X0210002Y0170866D01*
X0210900Y0168697D01*
X0210900Y0166350D01*
X0210002Y0164182D01*
X0208344Y0162524D01*
X0210002Y0160866D01*
X0210900Y0158697D01*
X0210900Y0156350D01*
X0210002Y0154182D01*
X0208344Y0152524D01*
X0210002Y0150866D01*
X0210900Y0148697D01*
X0210900Y0146350D01*
X0210002Y0144182D01*
X0208344Y0142524D01*
X0210002Y0140866D01*
X0210900Y0138697D01*
X0210900Y0136350D01*
X0210002Y0134182D01*
X0208342Y0132522D01*
X0206174Y0131624D01*
X0203826Y0131624D01*
X0202738Y0132074D02*
X0114927Y0132074D01*
X0114964Y0132308D02*
X0114964Y0135169D01*
X0110855Y0135169D01*
X0110855Y0128196D01*
X0111545Y0128305D01*
X0112214Y0128522D01*
X0112840Y0128841D01*
X0113408Y0129254D01*
X0113905Y0129751D01*
X0114318Y0130320D01*
X0114637Y0130946D01*
X0114854Y0131614D01*
X0114964Y0132308D01*
X0114964Y0133273D02*
X0200907Y0133273D01*
X0199878Y0134472D02*
X0114964Y0134472D01*
X0114964Y0136869D02*
X0199100Y0136869D01*
X0199100Y0138067D02*
X0114964Y0138067D01*
X0114881Y0139266D02*
X0199335Y0139266D01*
X0199832Y0140464D02*
X0114452Y0140464D01*
X0113538Y0141663D02*
X0200795Y0141663D01*
X0201319Y0142861D02*
X0142409Y0142861D01*
X0142071Y0142524D02*
X0145000Y0145453D01*
X0145000Y0147324D01*
X0140200Y0147324D01*
X0140200Y0142524D01*
X0142071Y0142524D01*
X0140200Y0142861D02*
X0139800Y0142861D01*
X0139800Y0144060D02*
X0140200Y0144060D01*
X0140200Y0145258D02*
X0139800Y0145258D01*
X0139800Y0146457D02*
X0140200Y0146457D01*
X0140200Y0147655D02*
X0199100Y0147655D01*
X0199100Y0146457D02*
X0145000Y0146457D01*
X0144806Y0145258D02*
X0199552Y0145258D01*
X0200120Y0144060D02*
X0143607Y0144060D01*
X0145000Y0148854D02*
X0172165Y0148854D01*
X0170966Y0150052D02*
X0154384Y0150052D01*
X0152616Y0150052D02*
X0144542Y0150052D01*
X0143344Y0151251D02*
X0150575Y0151251D01*
X0153500Y0154124D02*
X0100900Y0154124D01*
X0098800Y0154824D01*
X0075700Y0154824D01*
X0072900Y0148524D01*
X0051900Y0148324D01*
X0044600Y0156324D01*
X0041300Y0156324D01*
X0041000Y0156524D01*
X0037611Y0159640D02*
X0034289Y0159640D01*
X0035487Y0158442D02*
X0036413Y0158442D01*
X0036400Y0157243D02*
X0035500Y0157243D01*
X0035500Y0156045D02*
X0036400Y0156045D01*
X0036400Y0154846D02*
X0035500Y0154846D01*
X0034529Y0153648D02*
X0037371Y0153648D01*
X0038569Y0152449D02*
X0033700Y0152449D01*
X0033700Y0151251D02*
X0045439Y0151251D01*
X0046532Y0150052D02*
X0033700Y0150052D01*
X0033700Y0148854D02*
X0047626Y0148854D01*
X0044345Y0152449D02*
X0043431Y0152449D01*
X0044389Y0159640D02*
X0047611Y0159640D01*
X0048810Y0160839D02*
X0043190Y0160839D01*
X0038810Y0160839D02*
X0033090Y0160839D01*
X0030900Y0156524D02*
X0030900Y0145024D01*
X0073600Y0145024D01*
X0077100Y0147124D01*
X0084700Y0147124D01*
X0089600Y0147655D02*
X0089800Y0147655D01*
X0089800Y0146457D02*
X0089600Y0146457D01*
X0089600Y0145258D02*
X0089800Y0145258D01*
X0089800Y0144060D02*
X0089600Y0144060D01*
X0089600Y0143449D02*
X0089600Y0150798D01*
X0089092Y0152024D01*
X0090308Y0152024D01*
X0089800Y0150798D01*
X0089800Y0143449D01*
X0090054Y0142837D01*
X0089455Y0142742D01*
X0089284Y0142687D01*
X0089600Y0143449D01*
X0089356Y0142861D02*
X0090043Y0142861D01*
X0090145Y0142615D02*
X0090546Y0141648D01*
X0090855Y0141339D01*
X0090855Y0135878D01*
X0090145Y0135878D01*
X0090145Y0142615D01*
X0090145Y0141663D02*
X0090540Y0141663D01*
X0090855Y0140464D02*
X0090145Y0140464D01*
X0090145Y0139266D02*
X0090855Y0139266D01*
X0090855Y0138067D02*
X0090145Y0138067D01*
X0090145Y0136869D02*
X0090855Y0136869D01*
X0090800Y0136524D02*
X0090500Y0135524D01*
X0089700Y0136524D01*
X0080900Y0136524D01*
X0080500Y0135524D01*
X0079800Y0136524D01*
X0071000Y0136524D01*
X0070500Y0135524D01*
X0069900Y0136524D01*
X0061100Y0136524D01*
X0060500Y0135524D01*
X0060000Y0136524D01*
X0051200Y0136524D01*
X0050500Y0135524D01*
X0050100Y0136524D01*
X0041300Y0136524D01*
X0040500Y0135524D01*
X0040855Y0135670D02*
X0050145Y0135670D01*
X0050855Y0135670D02*
X0060145Y0135670D01*
X0060855Y0135670D02*
X0070145Y0135670D01*
X0070855Y0135670D02*
X0080145Y0135670D01*
X0080855Y0135670D02*
X0090145Y0135670D01*
X0090855Y0135670D02*
X0100145Y0135670D01*
X0100500Y0135524D02*
X0099600Y0136524D01*
X0090800Y0136524D01*
X0090855Y0135169D02*
X0094964Y0135169D01*
X0094964Y0132308D01*
X0094854Y0131614D01*
X0094637Y0130946D01*
X0094318Y0130320D01*
X0093905Y0129751D01*
X0093408Y0129254D01*
X0092840Y0128841D01*
X0092214Y0128522D01*
X0091545Y0128305D01*
X0090855Y0128196D01*
X0090855Y0135169D01*
X0090855Y0134472D02*
X0090145Y0134472D01*
X0090145Y0133273D02*
X0090855Y0133273D01*
X0090855Y0132074D02*
X0090145Y0132074D01*
X0090145Y0130876D02*
X0090855Y0130876D01*
X0090855Y0129677D02*
X0090145Y0129677D01*
X0090145Y0128479D02*
X0090855Y0128479D01*
X0092080Y0128479D02*
X0098920Y0128479D01*
X0100145Y0128479D02*
X0100855Y0128479D01*
X0100855Y0128196D02*
X0101545Y0128305D01*
X0102214Y0128522D01*
X0102840Y0128841D01*
X0103408Y0129254D01*
X0103905Y0129751D01*
X0104318Y0130320D01*
X0104637Y0130946D01*
X0104854Y0131614D01*
X0104964Y0132308D01*
X0104964Y0135169D01*
X0100855Y0135169D01*
X0100855Y0128196D01*
X0102080Y0128479D02*
X0108920Y0128479D01*
X0110145Y0128479D02*
X0110855Y0128479D01*
X0110855Y0129677D02*
X0110145Y0129677D01*
X0110145Y0130876D02*
X0110855Y0130876D01*
X0110855Y0132074D02*
X0110145Y0132074D01*
X0110145Y0133273D02*
X0110855Y0133273D01*
X0110855Y0134472D02*
X0110145Y0134472D01*
X0110500Y0135524D02*
X0109500Y0136524D01*
X0100700Y0136524D01*
X0100500Y0135524D01*
X0100855Y0135670D02*
X0110145Y0135670D01*
X0110500Y0135524D02*
X0113900Y0132124D01*
X0129300Y0147524D01*
X0130000Y0147524D01*
X0130200Y0147655D02*
X0139800Y0147655D01*
X0136656Y0151251D02*
X0133344Y0151251D01*
X0133271Y0151324D02*
X0136729Y0151324D01*
X0135000Y0149595D01*
X0135000Y0147724D01*
X0135000Y0149595D01*
X0133271Y0151324D01*
X0134542Y0150052D02*
X0135458Y0150052D01*
X0135000Y0148854D02*
X0135000Y0148854D01*
X0135000Y0147324D02*
X0130200Y0147324D01*
X0130200Y0142524D01*
X0132071Y0142524D01*
X0135000Y0145453D01*
X0135000Y0147324D01*
X0135000Y0146457D02*
X0135000Y0146457D01*
X0134806Y0145258D02*
X0135194Y0145258D01*
X0136393Y0144060D02*
X0133607Y0144060D01*
X0132409Y0142861D02*
X0137591Y0142861D01*
X0130200Y0142861D02*
X0129800Y0142861D01*
X0129800Y0144060D02*
X0130200Y0144060D01*
X0130200Y0145258D02*
X0129800Y0145258D01*
X0129800Y0146457D02*
X0130200Y0146457D01*
X0129800Y0147655D02*
X0125600Y0147655D01*
X0125424Y0150019D02*
X0126729Y0151324D01*
X0124120Y0151324D01*
X0125424Y0150019D01*
X0125391Y0150052D02*
X0125458Y0150052D01*
X0126656Y0151251D02*
X0124193Y0151251D01*
X0124456Y0144060D02*
X0126393Y0144060D01*
X0127591Y0142861D02*
X0123257Y0142861D01*
X0116743Y0142861D02*
X0113257Y0142861D01*
X0114456Y0144060D02*
X0115544Y0144060D01*
X0115000Y0150443D02*
X0114120Y0151324D01*
X0115880Y0151324D01*
X0115000Y0150443D01*
X0114193Y0151251D02*
X0115807Y0151251D01*
X0106743Y0142861D02*
X0099356Y0142861D01*
X0099600Y0144060D02*
X0105544Y0144060D01*
X0104400Y0145258D02*
X0099600Y0145258D01*
X0099600Y0146457D02*
X0104400Y0146457D01*
X0104400Y0147655D02*
X0099600Y0147655D01*
X0099600Y0148854D02*
X0104400Y0148854D01*
X0104609Y0150052D02*
X0099600Y0150052D01*
X0099413Y0151251D02*
X0105807Y0151251D01*
X0107462Y0141663D02*
X0103538Y0141663D01*
X0104452Y0140464D02*
X0106548Y0140464D01*
X0106119Y0139266D02*
X0104881Y0139266D01*
X0104964Y0138067D02*
X0106036Y0138067D01*
X0106036Y0136869D02*
X0104964Y0136869D01*
X0104964Y0134472D02*
X0106036Y0134472D01*
X0106036Y0133273D02*
X0104964Y0133273D01*
X0104927Y0132074D02*
X0106073Y0132074D01*
X0106398Y0130876D02*
X0104602Y0130876D01*
X0103831Y0129677D02*
X0107169Y0129677D01*
X0112080Y0128479D02*
X0212721Y0128479D01*
X0212721Y0129677D02*
X0113831Y0129677D01*
X0114602Y0130876D02*
X0212721Y0130876D01*
X0212721Y0132074D02*
X0207262Y0132074D01*
X0209093Y0133273D02*
X0212721Y0133273D01*
X0212721Y0134472D02*
X0210122Y0134472D01*
X0210618Y0135670D02*
X0212721Y0135670D01*
X0212721Y0136869D02*
X0210900Y0136869D01*
X0210900Y0138067D02*
X0212721Y0138067D01*
X0212721Y0139266D02*
X0210665Y0139266D01*
X0210168Y0140464D02*
X0212721Y0140464D01*
X0212721Y0141663D02*
X0209205Y0141663D01*
X0208681Y0142861D02*
X0212721Y0142861D01*
X0212721Y0144060D02*
X0209880Y0144060D01*
X0210448Y0145258D02*
X0212721Y0145258D01*
X0212721Y0146457D02*
X0210900Y0146457D01*
X0210900Y0147655D02*
X0212721Y0147655D01*
X0212721Y0148854D02*
X0210835Y0148854D01*
X0210339Y0150052D02*
X0212721Y0150052D01*
X0212721Y0151251D02*
X0209617Y0151251D01*
X0208418Y0152449D02*
X0212721Y0152449D01*
X0212721Y0153648D02*
X0209468Y0153648D01*
X0210277Y0154846D02*
X0212721Y0154846D01*
X0212721Y0156045D02*
X0210774Y0156045D01*
X0210900Y0157243D02*
X0212721Y0157243D01*
X0212721Y0158442D02*
X0210900Y0158442D01*
X0210509Y0159640D02*
X0212721Y0159640D01*
X0212721Y0160839D02*
X0210013Y0160839D01*
X0208830Y0162037D02*
X0212721Y0162037D01*
X0212721Y0163236D02*
X0209056Y0163236D01*
X0210106Y0164434D02*
X0212721Y0164434D01*
X0212721Y0165633D02*
X0210603Y0165633D01*
X0210900Y0166831D02*
X0212721Y0166831D01*
X0212721Y0168030D02*
X0210900Y0168030D01*
X0210680Y0169228D02*
X0212721Y0169228D01*
X0212721Y0170427D02*
X0210184Y0170427D01*
X0209242Y0171625D02*
X0212721Y0171625D01*
X0212721Y0172824D02*
X0208644Y0172824D01*
X0209843Y0174022D02*
X0212721Y0174022D01*
X0212721Y0175221D02*
X0210432Y0175221D01*
X0210900Y0176419D02*
X0212721Y0176419D01*
X0212721Y0177618D02*
X0210900Y0177618D01*
X0210851Y0178816D02*
X0212721Y0178816D01*
X0212721Y0180015D02*
X0210354Y0180015D01*
X0209654Y0181213D02*
X0212721Y0181213D01*
X0212721Y0182412D02*
X0208455Y0182412D01*
X0208582Y0183610D02*
X0212721Y0183610D01*
X0212721Y0184809D02*
X0209565Y0184809D01*
X0210080Y0186008D02*
X0212721Y0186008D01*
X0212721Y0187206D02*
X0205400Y0187206D01*
X0204600Y0187206D02*
X0181600Y0187206D01*
X0181600Y0186008D02*
X0199920Y0186008D01*
X0200435Y0184809D02*
X0180791Y0184809D01*
X0179592Y0183610D02*
X0201418Y0183610D01*
X0201544Y0182412D02*
X0175848Y0182412D01*
X0174650Y0181213D02*
X0200346Y0181213D01*
X0199646Y0180015D02*
X0173451Y0180015D01*
X0172253Y0178816D02*
X0199149Y0178816D01*
X0199100Y0177618D02*
X0171054Y0177618D01*
X0169856Y0176419D02*
X0173239Y0176419D01*
X0173343Y0176524D02*
X0171000Y0174180D01*
X0171000Y0172724D01*
X0174800Y0172724D01*
X0174800Y0176524D01*
X0173343Y0176524D01*
X0174800Y0176419D02*
X0175200Y0176419D01*
X0175200Y0176524D02*
X0175200Y0172724D01*
X0174800Y0172724D01*
X0174800Y0172324D01*
X0171000Y0172324D01*
X0171000Y0170867D01*
X0173343Y0168524D01*
X0174800Y0168524D01*
X0174800Y0172324D01*
X0175200Y0172324D01*
X0175200Y0172724D01*
X0179000Y0172724D01*
X0179000Y0174180D01*
X0176657Y0176524D01*
X0175200Y0176524D01*
X0175200Y0175221D02*
X0174800Y0175221D01*
X0174800Y0174022D02*
X0175200Y0174022D01*
X0175200Y0172824D02*
X0174800Y0172824D01*
X0175200Y0172324D02*
X0179000Y0172324D01*
X0179000Y0170867D01*
X0176657Y0168524D01*
X0175200Y0168524D01*
X0175200Y0172324D01*
X0175200Y0171625D02*
X0174800Y0171625D01*
X0174800Y0170427D02*
X0175200Y0170427D01*
X0175200Y0169228D02*
X0174800Y0169228D01*
X0172638Y0169228D02*
X0170349Y0169228D01*
X0170800Y0168030D02*
X0181200Y0168030D01*
X0181200Y0169228D02*
X0177362Y0169228D01*
X0178560Y0170427D02*
X0181200Y0170427D01*
X0181343Y0171625D02*
X0179000Y0171625D01*
X0179000Y0172824D02*
X0181926Y0172824D01*
X0183125Y0174022D02*
X0179000Y0174022D01*
X0177960Y0175221D02*
X0184323Y0175221D01*
X0188800Y0168030D02*
X0199100Y0168030D01*
X0199100Y0166831D02*
X0188800Y0166831D01*
X0188800Y0165633D02*
X0199397Y0165633D01*
X0199894Y0164434D02*
X0188800Y0164434D01*
X0188800Y0163236D02*
X0200944Y0163236D01*
X0201170Y0162037D02*
X0188800Y0162037D01*
X0188800Y0160839D02*
X0199987Y0160839D01*
X0199491Y0159640D02*
X0188800Y0159640D01*
X0188800Y0158442D02*
X0199100Y0158442D01*
X0199100Y0157243D02*
X0188800Y0157243D01*
X0188800Y0156045D02*
X0199226Y0156045D01*
X0199723Y0154846D02*
X0188800Y0154846D01*
X0188800Y0153648D02*
X0200532Y0153648D01*
X0201582Y0152449D02*
X0188800Y0152449D01*
X0188586Y0151251D02*
X0200383Y0151251D01*
X0199661Y0150052D02*
X0187903Y0150052D01*
X0186070Y0148854D02*
X0199165Y0148854D01*
X0199382Y0135670D02*
X0110855Y0135670D01*
X0113900Y0132124D02*
X0129300Y0116724D01*
X0129300Y0106824D01*
X0127117Y0108104D02*
X0115564Y0108104D01*
X0115564Y0106906D02*
X0132423Y0106906D01*
X0133191Y0106908D02*
X0133191Y0112424D01*
X0133271Y0112424D01*
X0134189Y0112278D01*
X0135072Y0111991D01*
X0135899Y0111570D01*
X0136651Y0111024D01*
X0137307Y0110367D01*
X0137853Y0109616D01*
X0138275Y0108788D01*
X0138562Y0107905D01*
X0138707Y0106988D01*
X0138707Y0106908D01*
X0133191Y0106908D01*
X0133191Y0106906D02*
X0139722Y0106906D01*
X0140206Y0108104D02*
X0138497Y0108104D01*
X0138013Y0109303D02*
X0140702Y0109303D01*
X0141372Y0110501D02*
X0137173Y0110501D01*
X0135644Y0111700D02*
X0142570Y0111700D01*
X0144991Y0112898D02*
X0112844Y0112898D01*
X0114350Y0111700D02*
X0129970Y0111700D01*
X0128441Y0110501D02*
X0115106Y0110501D01*
X0115564Y0109303D02*
X0127601Y0109303D01*
X0126963Y0105707D02*
X0115564Y0105707D01*
X0115564Y0104509D02*
X0127258Y0104509D01*
X0127849Y0103310D02*
X0115564Y0103310D01*
X0115564Y0102112D02*
X0128875Y0102112D01*
X0130981Y0100913D02*
X0115258Y0100913D01*
X0106650Y0111700D02*
X0104350Y0111700D01*
X0105106Y0110501D02*
X0105894Y0110501D01*
X0108156Y0112898D02*
X0102844Y0112898D01*
X0098156Y0112898D02*
X0092844Y0112898D01*
X0094350Y0111700D02*
X0096650Y0111700D01*
X0095894Y0110501D02*
X0095106Y0110501D01*
X0088156Y0112898D02*
X0082844Y0112898D01*
X0084350Y0111700D02*
X0086650Y0111700D01*
X0085894Y0110501D02*
X0085106Y0110501D01*
X0078156Y0112898D02*
X0072844Y0112898D01*
X0074350Y0111700D02*
X0076650Y0111700D01*
X0075894Y0110501D02*
X0075106Y0110501D01*
X0070500Y0105524D02*
X0071000Y0104624D01*
X0077600Y0098024D01*
X0134800Y0098024D01*
X0142500Y0105724D01*
X0146587Y0106524D01*
X0151367Y0102112D02*
X0156375Y0102112D01*
X0156463Y0102023D02*
X0157215Y0101477D01*
X0158042Y0101056D01*
X0158925Y0100769D01*
X0159843Y0100624D01*
X0159923Y0100624D01*
X0159923Y0106139D01*
X0154407Y0106139D01*
X0154407Y0106059D01*
X0154552Y0105142D01*
X0154839Y0104259D01*
X0155261Y0103431D01*
X0155807Y0102680D01*
X0156463Y0102023D01*
X0155349Y0103310D02*
X0152291Y0103310D01*
X0152788Y0104509D02*
X0154758Y0104509D01*
X0154463Y0105707D02*
X0153087Y0105707D01*
X0150027Y0100913D02*
X0158481Y0100913D01*
X0159923Y0100913D02*
X0160691Y0100913D01*
X0160691Y0102112D02*
X0159923Y0102112D01*
X0159923Y0103310D02*
X0160691Y0103310D01*
X0160691Y0104509D02*
X0159923Y0104509D01*
X0159923Y0105707D02*
X0160691Y0105707D01*
X0160691Y0106906D02*
X0167587Y0106906D01*
X0167587Y0105707D02*
X0166151Y0105707D01*
X0166207Y0106908D02*
X0166207Y0106988D01*
X0166062Y0107905D01*
X0165775Y0108788D01*
X0165353Y0109616D01*
X0164807Y0110367D01*
X0164151Y0111024D01*
X0163399Y0111570D01*
X0162572Y0111991D01*
X0161689Y0112278D01*
X0160771Y0112424D01*
X0160691Y0112424D01*
X0160691Y0106908D01*
X0166207Y0106908D01*
X0165997Y0108104D02*
X0167706Y0108104D01*
X0168202Y0109303D02*
X0165513Y0109303D01*
X0164673Y0110501D02*
X0168872Y0110501D01*
X0170070Y0111700D02*
X0163144Y0111700D01*
X0160691Y0111700D02*
X0159923Y0111700D01*
X0159923Y0110501D02*
X0160691Y0110501D01*
X0160691Y0109303D02*
X0159923Y0109303D01*
X0159923Y0108104D02*
X0160691Y0108104D01*
X0165856Y0104509D02*
X0167886Y0104509D01*
X0168382Y0103310D02*
X0165265Y0103310D01*
X0164239Y0102112D02*
X0169306Y0102112D01*
X0170646Y0100913D02*
X0162133Y0100913D01*
X0177527Y0100913D02*
X0185981Y0100913D01*
X0185542Y0101056D02*
X0186425Y0100769D01*
X0187343Y0100624D01*
X0187423Y0100624D01*
X0187423Y0106139D01*
X0181907Y0106139D01*
X0181907Y0106059D01*
X0182052Y0105142D01*
X0182339Y0104259D01*
X0182761Y0103431D01*
X0183307Y0102680D01*
X0183963Y0102023D01*
X0184715Y0101477D01*
X0185542Y0101056D01*
X0187423Y0100913D02*
X0188191Y0100913D01*
X0188191Y0102112D02*
X0187423Y0102112D01*
X0187423Y0103310D02*
X0188191Y0103310D01*
X0188191Y0104509D02*
X0187423Y0104509D01*
X0187423Y0105707D02*
X0188191Y0105707D01*
X0188191Y0106906D02*
X0195087Y0106906D01*
X0195087Y0105707D02*
X0193651Y0105707D01*
X0193707Y0106908D02*
X0193707Y0106988D01*
X0193562Y0107905D01*
X0193275Y0108788D01*
X0192853Y0109616D01*
X0192307Y0110367D01*
X0191651Y0111024D01*
X0190899Y0111570D01*
X0190072Y0111991D01*
X0189189Y0112278D01*
X0188271Y0112424D01*
X0188191Y0112424D01*
X0188191Y0106908D01*
X0193707Y0106908D01*
X0193497Y0108104D02*
X0195206Y0108104D01*
X0195702Y0109303D02*
X0193013Y0109303D01*
X0192173Y0110501D02*
X0196372Y0110501D01*
X0197570Y0111700D02*
X0190644Y0111700D01*
X0188191Y0111700D02*
X0187423Y0111700D01*
X0187423Y0110501D02*
X0188191Y0110501D01*
X0188191Y0109303D02*
X0187423Y0109303D01*
X0187423Y0108104D02*
X0188191Y0108104D01*
X0184970Y0111700D02*
X0178103Y0111700D01*
X0179301Y0110501D02*
X0183441Y0110501D01*
X0182601Y0109303D02*
X0179971Y0109303D01*
X0180467Y0108104D02*
X0182117Y0108104D01*
X0182258Y0104509D02*
X0180288Y0104509D01*
X0179791Y0103310D02*
X0182849Y0103310D01*
X0183875Y0102112D02*
X0178867Y0102112D01*
X0189633Y0100913D02*
X0198146Y0100913D01*
X0196806Y0102112D02*
X0191739Y0102112D01*
X0192765Y0103310D02*
X0195882Y0103310D01*
X0195386Y0104509D02*
X0193356Y0104509D01*
X0212721Y0114097D02*
X0055587Y0114097D01*
X0056785Y0112898D02*
X0058156Y0112898D01*
X0054388Y0115295D02*
X0212721Y0115295D01*
X0212721Y0116494D02*
X0053190Y0116494D01*
X0051991Y0117692D02*
X0212721Y0117692D01*
X0212721Y0118891D02*
X0050793Y0118891D01*
X0049594Y0120089D02*
X0212721Y0120089D01*
X0212721Y0121288D02*
X0048395Y0121288D01*
X0047197Y0122486D02*
X0212721Y0122486D01*
X0212721Y0123685D02*
X0045998Y0123685D01*
X0044800Y0124883D02*
X0212721Y0124883D01*
X0212721Y0126082D02*
X0043601Y0126082D01*
X0042403Y0127280D02*
X0212721Y0127280D01*
X0181200Y0157243D02*
X0174445Y0157243D01*
X0172386Y0158442D02*
X0181200Y0158442D01*
X0181200Y0159640D02*
X0170326Y0159640D01*
X0168267Y0160839D02*
X0181200Y0160839D01*
X0181200Y0162037D02*
X0166207Y0162037D01*
X0165855Y0163236D02*
X0164148Y0163236D01*
X0163791Y0164434D02*
X0162089Y0164434D01*
X0162963Y0165633D02*
X0160029Y0165633D01*
X0157970Y0166831D02*
X0162600Y0166831D01*
X0162600Y0168030D02*
X0155910Y0168030D01*
X0154681Y0169228D02*
X0163051Y0169228D01*
X0163900Y0170427D02*
X0153770Y0170427D01*
X0147430Y0170427D02*
X0139731Y0170427D01*
X0139744Y0171625D02*
X0163900Y0171625D01*
X0163900Y0172824D02*
X0143220Y0172824D01*
X0144418Y0174022D02*
X0163900Y0174022D01*
X0163900Y0175221D02*
X0145600Y0175221D01*
X0145600Y0176419D02*
X0163900Y0176419D01*
X0166700Y0177224D02*
X0177000Y0187524D01*
X0204100Y0214624D01*
X0204100Y0226724D01*
X0205000Y0227524D01*
X0201656Y0232524D02*
X0199998Y0230866D01*
X0199100Y0228697D01*
X0199100Y0226350D01*
X0199998Y0224182D01*
X0201300Y0222880D01*
X0201300Y0215783D01*
X0177640Y0192124D01*
X0175095Y0192124D01*
X0172400Y0189429D01*
X0172400Y0186883D01*
X0171600Y0186083D01*
X0171600Y0189429D01*
X0168905Y0192124D01*
X0165760Y0192124D01*
X0188874Y0215238D01*
X0189300Y0216267D01*
X0189300Y0217381D01*
X0189300Y0225564D01*
X0199389Y0235653D01*
X0199998Y0234182D01*
X0201656Y0232524D01*
X0201430Y0232749D02*
X0196486Y0232749D01*
X0195287Y0231551D02*
X0200683Y0231551D01*
X0199786Y0230352D02*
X0194089Y0230352D01*
X0192890Y0229154D02*
X0199289Y0229154D01*
X0199100Y0227955D02*
X0191692Y0227955D01*
X0190493Y0226757D02*
X0199100Y0226757D01*
X0199428Y0225558D02*
X0189300Y0225558D01*
X0189300Y0224360D02*
X0199924Y0224360D01*
X0201018Y0223161D02*
X0189300Y0223161D01*
X0189300Y0221963D02*
X0201300Y0221963D01*
X0201300Y0220764D02*
X0189300Y0220764D01*
X0189300Y0219566D02*
X0201300Y0219566D01*
X0201300Y0218367D02*
X0189300Y0218367D01*
X0189300Y0217169D02*
X0201300Y0217169D01*
X0201300Y0215970D02*
X0189177Y0215970D01*
X0188408Y0214772D02*
X0200288Y0214772D01*
X0199090Y0213573D02*
X0187209Y0213573D01*
X0186011Y0212375D02*
X0197891Y0212375D01*
X0196693Y0211176D02*
X0184812Y0211176D01*
X0183614Y0209978D02*
X0195494Y0209978D01*
X0194296Y0208779D02*
X0182415Y0208779D01*
X0181217Y0207581D02*
X0193097Y0207581D01*
X0191899Y0206382D02*
X0180018Y0206382D01*
X0178820Y0205184D02*
X0190700Y0205184D01*
X0189502Y0203985D02*
X0177621Y0203985D01*
X0176423Y0202787D02*
X0188303Y0202787D01*
X0187105Y0201588D02*
X0175224Y0201588D01*
X0174026Y0200390D02*
X0185906Y0200390D01*
X0184708Y0199191D02*
X0172827Y0199191D01*
X0171629Y0197993D02*
X0183509Y0197993D01*
X0182311Y0196794D02*
X0170430Y0196794D01*
X0169232Y0195596D02*
X0181112Y0195596D01*
X0179914Y0194397D02*
X0168033Y0194397D01*
X0166835Y0193199D02*
X0178715Y0193199D01*
X0181841Y0188405D02*
X0199773Y0188405D01*
X0200111Y0189603D02*
X0183039Y0189603D01*
X0184238Y0190802D02*
X0200830Y0190802D01*
X0202144Y0192000D02*
X0185436Y0192000D01*
X0186635Y0193199D02*
X0201936Y0193199D01*
X0200720Y0194397D02*
X0187833Y0194397D01*
X0189032Y0195596D02*
X0200054Y0195596D01*
X0199749Y0196794D02*
X0190230Y0196794D01*
X0191429Y0197993D02*
X0199708Y0197993D01*
X0199969Y0199191D02*
X0192627Y0199191D01*
X0193826Y0200390D02*
X0200531Y0200390D01*
X0201577Y0201588D02*
X0195024Y0201588D01*
X0196223Y0202787D02*
X0201393Y0202787D01*
X0200195Y0203985D02*
X0197421Y0203985D01*
X0198620Y0205184D02*
X0199583Y0205184D01*
X0204600Y0196794D02*
X0205400Y0196794D01*
X0205400Y0195596D02*
X0204600Y0195596D01*
X0204600Y0194397D02*
X0205400Y0194397D01*
X0205400Y0193199D02*
X0204600Y0193199D01*
X0204600Y0192000D02*
X0205400Y0192000D01*
X0205400Y0190802D02*
X0204600Y0190802D01*
X0204600Y0189603D02*
X0205400Y0189603D01*
X0205400Y0188405D02*
X0204600Y0188405D01*
X0207856Y0192000D02*
X0212721Y0192000D01*
X0212721Y0190802D02*
X0209170Y0190802D01*
X0209889Y0189603D02*
X0212721Y0189603D01*
X0212721Y0188405D02*
X0210227Y0188405D01*
X0208064Y0193199D02*
X0212721Y0193199D01*
X0212721Y0194397D02*
X0209280Y0194397D01*
X0209946Y0195596D02*
X0212721Y0195596D01*
X0212721Y0196794D02*
X0210251Y0196794D01*
X0210292Y0197993D02*
X0212721Y0197993D01*
X0212721Y0199191D02*
X0210031Y0199191D01*
X0209469Y0200390D02*
X0212721Y0200390D01*
X0212721Y0201588D02*
X0208423Y0201588D01*
X0208607Y0202787D02*
X0212721Y0202787D01*
X0212721Y0203985D02*
X0209805Y0203985D01*
X0210417Y0205184D02*
X0212721Y0205184D01*
X0212721Y0206382D02*
X0210900Y0206382D01*
X0210900Y0207581D02*
X0212721Y0207581D01*
X0212721Y0208779D02*
X0210866Y0208779D01*
X0210370Y0209978D02*
X0212721Y0209978D01*
X0212721Y0211176D02*
X0209691Y0211176D01*
X0208493Y0212375D02*
X0212721Y0212375D01*
X0212721Y0213573D02*
X0206696Y0213573D01*
X0206900Y0214772D02*
X0212721Y0214772D01*
X0212721Y0215970D02*
X0206900Y0215970D01*
X0206900Y0217169D02*
X0212721Y0217169D01*
X0212721Y0218367D02*
X0206900Y0218367D01*
X0206900Y0219566D02*
X0212721Y0219566D01*
X0212721Y0220764D02*
X0206900Y0220764D01*
X0206993Y0221963D02*
X0212721Y0221963D01*
X0212721Y0223161D02*
X0208982Y0223161D01*
X0210076Y0224360D02*
X0212721Y0224360D01*
X0212721Y0225558D02*
X0210572Y0225558D01*
X0210900Y0226757D02*
X0212721Y0226757D01*
X0212721Y0227955D02*
X0210900Y0227955D01*
X0210711Y0229154D02*
X0212721Y0229154D01*
X0212721Y0230352D02*
X0210214Y0230352D01*
X0209317Y0231551D02*
X0212721Y0231551D01*
X0212721Y0232749D02*
X0208570Y0232749D01*
X0209768Y0233948D02*
X0212721Y0233948D01*
X0212721Y0235146D02*
X0210401Y0235146D01*
X0210898Y0236345D02*
X0212721Y0236345D01*
X0212721Y0237543D02*
X0210900Y0237543D01*
X0210881Y0238742D02*
X0212721Y0238742D01*
X0212721Y0239941D02*
X0210385Y0239941D01*
X0209728Y0241139D02*
X0212721Y0241139D01*
X0212721Y0242338D02*
X0208530Y0242338D01*
X0209356Y0243536D02*
X0212721Y0243536D01*
X0212721Y0244735D02*
X0210231Y0244735D01*
X0210727Y0245933D02*
X0212721Y0245933D01*
X0212721Y0247132D02*
X0210900Y0247132D01*
X0210900Y0248330D02*
X0212721Y0248330D01*
X0212721Y0249529D02*
X0210556Y0249529D01*
X0210059Y0250727D02*
X0212721Y0250727D01*
X0212721Y0251926D02*
X0208942Y0251926D01*
X0208944Y0253124D02*
X0212721Y0253124D01*
X0212721Y0254323D02*
X0210060Y0254323D01*
X0210557Y0255521D02*
X0212721Y0255521D01*
X0212721Y0256720D02*
X0210900Y0256720D01*
X0210900Y0257918D02*
X0212721Y0257918D01*
X0212721Y0259117D02*
X0210726Y0259117D01*
X0210230Y0260315D02*
X0212721Y0260315D01*
X0212721Y0261514D02*
X0209354Y0261514D01*
X0208532Y0262712D02*
X0212721Y0262712D01*
X0212721Y0263911D02*
X0209731Y0263911D01*
X0210386Y0265109D02*
X0212721Y0265109D01*
X0212721Y0266308D02*
X0210882Y0266308D01*
X0210900Y0267506D02*
X0212721Y0267506D01*
X0212721Y0268705D02*
X0210897Y0268705D01*
X0210400Y0269903D02*
X0212721Y0269903D01*
X0212721Y0271102D02*
X0209766Y0271102D01*
X0208567Y0272300D02*
X0212721Y0272300D01*
X0212721Y0273499D02*
X0209319Y0273499D01*
X0210215Y0274697D02*
X0212721Y0274697D01*
X0212721Y0275896D02*
X0210712Y0275896D01*
X0210900Y0277094D02*
X0212721Y0277094D01*
X0212721Y0278293D02*
X0210900Y0278293D01*
X0210571Y0279491D02*
X0212721Y0279491D01*
X0212721Y0280690D02*
X0210075Y0280690D01*
X0208979Y0281888D02*
X0212721Y0281888D01*
X0212721Y0283087D02*
X0206986Y0283087D01*
X0203014Y0283087D02*
X0016986Y0283087D01*
X0016174Y0283424D02*
X0013826Y0283424D01*
X0011658Y0282525D01*
X0009998Y0280866D01*
X0009100Y0278697D01*
X0009100Y0276350D01*
X0009998Y0274182D01*
X0011656Y0272524D01*
X0009998Y0270866D01*
X0009100Y0268697D01*
X0009100Y0266350D01*
X0009998Y0264182D01*
X0011656Y0262524D01*
X0009998Y0260866D01*
X0009100Y0258697D01*
X0009100Y0256350D01*
X0009998Y0254182D01*
X0011656Y0252524D01*
X0009998Y0250866D01*
X0009100Y0248697D01*
X0009100Y0246350D01*
X0009998Y0244182D01*
X0011656Y0242524D01*
X0009998Y0240866D01*
X0009100Y0238697D01*
X0009100Y0236350D01*
X0009998Y0234182D01*
X0011656Y0232524D01*
X0009998Y0230866D01*
X0009100Y0228697D01*
X0009100Y0226350D01*
X0009998Y0224182D01*
X0011656Y0222524D01*
X0009998Y0220866D01*
X0009100Y0218697D01*
X0009100Y0216350D01*
X0009998Y0214182D01*
X0011656Y0212524D01*
X0009998Y0210866D01*
X0009100Y0208697D01*
X0009100Y0206350D01*
X0009998Y0204182D01*
X0011658Y0202522D01*
X0013826Y0201624D01*
X0016174Y0201624D01*
X0018342Y0202522D01*
X0020002Y0204182D01*
X0020900Y0206350D01*
X0020900Y0208697D01*
X0020002Y0210866D01*
X0018344Y0212524D01*
X0020002Y0214182D01*
X0020900Y0216350D01*
X0020900Y0218697D01*
X0020002Y0220866D01*
X0018344Y0222524D01*
X0020002Y0224182D01*
X0020900Y0226350D01*
X0020900Y0228697D01*
X0020002Y0230866D01*
X0018344Y0232524D01*
X0020002Y0234182D01*
X0020900Y0236350D01*
X0020900Y0238697D01*
X0020002Y0240866D01*
X0018344Y0242524D01*
X0020002Y0244182D01*
X0020900Y0246350D01*
X0020900Y0248697D01*
X0020002Y0250866D01*
X0018344Y0252524D01*
X0020002Y0254182D01*
X0020900Y0256350D01*
X0020900Y0258697D01*
X0020002Y0260866D01*
X0018344Y0262524D01*
X0020002Y0264182D01*
X0020900Y0266350D01*
X0020900Y0268697D01*
X0020002Y0270866D01*
X0018344Y0272524D01*
X0020002Y0274182D01*
X0020900Y0276350D01*
X0020900Y0278697D01*
X0020002Y0280866D01*
X0018342Y0282525D01*
X0016174Y0283424D01*
X0013014Y0283087D02*
X0007200Y0283087D01*
X0007200Y0284285D02*
X0212721Y0284285D01*
X0205000Y0277524D02*
X0204100Y0277324D01*
X0204100Y0275124D01*
X0172200Y0243224D01*
X0172200Y0226724D01*
X0165600Y0220124D01*
X0137000Y0220124D01*
X0130400Y0226724D01*
X0130000Y0227524D01*
X0129300Y0227824D01*
X0120500Y0227824D01*
X0120000Y0227524D01*
X0124820Y0230624D02*
X0122320Y0233124D01*
X0117680Y0233124D01*
X0115000Y0230443D01*
X0112320Y0233124D01*
X0107680Y0233124D01*
X0105144Y0230587D01*
X0102915Y0230616D01*
X0102897Y0230624D01*
X0102319Y0230624D01*
X0101742Y0230631D01*
X0101723Y0230624D01*
X0101703Y0230624D01*
X0101170Y0230403D01*
X0100634Y0230189D01*
X0100619Y0230175D01*
X0100601Y0230167D01*
X0100192Y0229759D01*
X0099779Y0229356D01*
X0099771Y0229337D01*
X0099757Y0229323D01*
X0099536Y0228790D01*
X0099308Y0228259D01*
X0099308Y0228239D01*
X0099300Y0228220D01*
X0099300Y0227643D01*
X0099293Y0227066D01*
X0099300Y0227047D01*
X0099300Y0185489D01*
X0099289Y0185461D01*
X0099300Y0184894D01*
X0099300Y0184327D01*
X0099312Y0184298D01*
X0099312Y0184267D01*
X0099540Y0183748D01*
X0099757Y0183224D01*
X0099779Y0183202D01*
X0099791Y0183174D01*
X0100200Y0182781D01*
X0100601Y0182380D01*
X0100629Y0182369D01*
X0104400Y0178745D01*
X0104400Y0178591D01*
X0096867Y0175705D01*
X0092800Y0175705D01*
X0092800Y0237124D01*
X0150656Y0237124D01*
X0152053Y0237702D01*
X0153121Y0238771D01*
X0153700Y0240168D01*
X0153700Y0248163D01*
X0154000Y0248463D01*
X0154000Y0231029D01*
X0152400Y0229429D01*
X0152400Y0229299D01*
X0151857Y0229524D01*
X0145600Y0229524D01*
X0145600Y0229843D01*
X0142320Y0233124D01*
X0137680Y0233124D01*
X0135000Y0230443D01*
X0132320Y0233124D01*
X0127680Y0233124D01*
X0125180Y0230624D01*
X0124820Y0230624D01*
X0123892Y0231551D02*
X0126108Y0231551D01*
X0127306Y0232749D02*
X0122694Y0232749D01*
X0117306Y0232749D02*
X0112694Y0232749D01*
X0113892Y0231551D02*
X0116108Y0231551D01*
X0115000Y0224604D02*
X0117680Y0221924D01*
X0122320Y0221924D01*
X0125000Y0224604D01*
X0127680Y0221924D01*
X0131240Y0221924D01*
X0135414Y0217750D01*
X0136443Y0217324D01*
X0166157Y0217324D01*
X0167186Y0217750D01*
X0167974Y0218538D01*
X0173727Y0224291D01*
X0175095Y0222924D01*
X0175440Y0222924D01*
X0157840Y0205324D01*
X0124343Y0205324D01*
X0123314Y0204897D01*
X0121540Y0203124D01*
X0117680Y0203124D01*
X0115480Y0200924D01*
X0114520Y0200924D01*
X0112320Y0203124D01*
X0107680Y0203124D01*
X0105300Y0200743D01*
X0105300Y0224304D01*
X0107680Y0221924D01*
X0112320Y0221924D01*
X0115000Y0224604D01*
X0114756Y0224360D02*
X0115244Y0224360D01*
X0116443Y0223161D02*
X0113557Y0223161D01*
X0112359Y0221963D02*
X0117641Y0221963D01*
X0122359Y0221963D02*
X0127641Y0221963D01*
X0126443Y0223161D02*
X0123557Y0223161D01*
X0124756Y0224360D02*
X0125244Y0224360D01*
X0132399Y0220764D02*
X0105300Y0220764D01*
X0105300Y0219566D02*
X0133598Y0219566D01*
X0134797Y0218367D02*
X0105300Y0218367D01*
X0105300Y0217169D02*
X0169685Y0217169D01*
X0168487Y0215970D02*
X0105300Y0215970D01*
X0105300Y0214772D02*
X0167288Y0214772D01*
X0166090Y0213573D02*
X0105300Y0213573D01*
X0105300Y0212375D02*
X0164891Y0212375D01*
X0163693Y0211176D02*
X0105300Y0211176D01*
X0105300Y0209978D02*
X0162494Y0209978D01*
X0161296Y0208779D02*
X0105300Y0208779D01*
X0105300Y0207581D02*
X0160097Y0207581D01*
X0158899Y0206382D02*
X0105300Y0206382D01*
X0105300Y0205184D02*
X0124005Y0205184D01*
X0122402Y0203985D02*
X0105300Y0203985D01*
X0105300Y0202787D02*
X0107343Y0202787D01*
X0106145Y0201588D02*
X0105300Y0201588D01*
X0110000Y0197524D02*
X0110600Y0198124D01*
X0119400Y0198124D01*
X0120000Y0197524D01*
X0120500Y0198124D01*
X0124900Y0202524D01*
X0159000Y0202524D01*
X0182100Y0225624D01*
X0182100Y0242124D01*
X0204100Y0264124D01*
X0204100Y0267424D01*
X0205000Y0267524D01*
X0199614Y0265109D02*
X0198045Y0265109D01*
X0199155Y0266218D02*
X0175000Y0242064D01*
X0175000Y0232029D01*
X0175095Y0232124D01*
X0178905Y0232124D01*
X0179300Y0231729D01*
X0179300Y0242681D01*
X0179726Y0243710D01*
X0180514Y0244497D01*
X0180514Y0244497D01*
X0200098Y0264082D01*
X0199998Y0264182D01*
X0199155Y0266218D01*
X0199927Y0263911D02*
X0196847Y0263911D01*
X0195648Y0262712D02*
X0198729Y0262712D01*
X0197530Y0261514D02*
X0194450Y0261514D01*
X0193251Y0260315D02*
X0196332Y0260315D01*
X0195133Y0259117D02*
X0192053Y0259117D01*
X0190854Y0257918D02*
X0193935Y0257918D01*
X0192736Y0256720D02*
X0189656Y0256720D01*
X0188457Y0255521D02*
X0191538Y0255521D01*
X0190339Y0254323D02*
X0187259Y0254323D01*
X0186060Y0253124D02*
X0189141Y0253124D01*
X0187942Y0251926D02*
X0184862Y0251926D01*
X0183663Y0250727D02*
X0186744Y0250727D01*
X0185545Y0249529D02*
X0182465Y0249529D01*
X0181266Y0248330D02*
X0184347Y0248330D01*
X0183148Y0247132D02*
X0180068Y0247132D01*
X0178869Y0245933D02*
X0181950Y0245933D01*
X0180751Y0244735D02*
X0177671Y0244735D01*
X0176472Y0243536D02*
X0179654Y0243536D01*
X0179300Y0242338D02*
X0175274Y0242338D01*
X0175000Y0241139D02*
X0179300Y0241139D01*
X0179300Y0239941D02*
X0175000Y0239941D01*
X0175000Y0238742D02*
X0179300Y0238742D01*
X0179300Y0237543D02*
X0175000Y0237543D01*
X0175000Y0236345D02*
X0179300Y0236345D01*
X0179300Y0235146D02*
X0175000Y0235146D01*
X0175000Y0233948D02*
X0179300Y0233948D01*
X0179300Y0232749D02*
X0175000Y0232749D01*
X0169400Y0232749D02*
X0164000Y0232749D01*
X0164000Y0231551D02*
X0164522Y0231551D01*
X0164000Y0233948D02*
X0169400Y0233948D01*
X0169400Y0235146D02*
X0164000Y0235146D01*
X0164000Y0236345D02*
X0169400Y0236345D01*
X0169400Y0237543D02*
X0164000Y0237543D01*
X0164000Y0238742D02*
X0169400Y0238742D01*
X0169400Y0239941D02*
X0164000Y0239941D01*
X0164000Y0241139D02*
X0169400Y0241139D01*
X0169400Y0242338D02*
X0164000Y0242338D01*
X0164000Y0243536D02*
X0169400Y0243536D01*
X0169795Y0244735D02*
X0164000Y0244735D01*
X0164000Y0245933D02*
X0170950Y0245933D01*
X0172148Y0247132D02*
X0164000Y0247132D01*
X0164000Y0248330D02*
X0173347Y0248330D01*
X0174545Y0249529D02*
X0164000Y0249529D01*
X0164000Y0250727D02*
X0175744Y0250727D01*
X0176942Y0251926D02*
X0164000Y0251926D01*
X0163775Y0253124D02*
X0178141Y0253124D01*
X0179339Y0254323D02*
X0162861Y0254323D01*
X0161662Y0255521D02*
X0180538Y0255521D01*
X0181736Y0256720D02*
X0160464Y0256720D01*
X0159265Y0257918D02*
X0182935Y0257918D01*
X0184133Y0259117D02*
X0158067Y0259117D01*
X0156868Y0260315D02*
X0185332Y0260315D01*
X0186530Y0261514D02*
X0155670Y0261514D01*
X0154471Y0262712D02*
X0187729Y0262712D01*
X0188927Y0263911D02*
X0082873Y0263911D01*
X0083274Y0263510D02*
X0083274Y0263510D01*
X0084071Y0262712D02*
X0096429Y0262712D01*
X0095230Y0261514D02*
X0085270Y0261514D01*
X0086468Y0260315D02*
X0094032Y0260315D01*
X0092833Y0259117D02*
X0087667Y0259117D01*
X0089700Y0253124D02*
X0090000Y0252524D01*
X0090800Y0253124D01*
X0098500Y0260824D01*
X0152400Y0260824D01*
X0161200Y0252024D01*
X0161200Y0225624D01*
X0157900Y0222324D01*
X0155700Y0222324D01*
X0151300Y0226724D01*
X0140300Y0226724D01*
X0140000Y0227524D01*
X0137306Y0232749D02*
X0132694Y0232749D01*
X0133892Y0231551D02*
X0136108Y0231551D01*
X0142694Y0232749D02*
X0154000Y0232749D01*
X0154000Y0231551D02*
X0143892Y0231551D01*
X0145091Y0230352D02*
X0153323Y0230352D01*
X0154000Y0233948D02*
X0092800Y0233948D01*
X0092800Y0235146D02*
X0154000Y0235146D01*
X0154000Y0236345D02*
X0092800Y0236345D01*
X0092800Y0232749D02*
X0107306Y0232749D01*
X0106108Y0231551D02*
X0092800Y0231551D01*
X0092800Y0230352D02*
X0101044Y0230352D01*
X0099687Y0229154D02*
X0092800Y0229154D01*
X0092800Y0227955D02*
X0099300Y0227955D01*
X0099300Y0226757D02*
X0092800Y0226757D01*
X0092800Y0225558D02*
X0099300Y0225558D01*
X0099300Y0224360D02*
X0092800Y0224360D01*
X0092800Y0223161D02*
X0099300Y0223161D01*
X0099300Y0221963D02*
X0092800Y0221963D01*
X0092800Y0220764D02*
X0099300Y0220764D01*
X0099300Y0219566D02*
X0092800Y0219566D01*
X0092800Y0218367D02*
X0099300Y0218367D01*
X0099300Y0217169D02*
X0092800Y0217169D01*
X0092800Y0215970D02*
X0099300Y0215970D01*
X0099300Y0214772D02*
X0092800Y0214772D01*
X0092800Y0213573D02*
X0099300Y0213573D01*
X0099300Y0212375D02*
X0092800Y0212375D01*
X0092800Y0211176D02*
X0099300Y0211176D01*
X0099300Y0209978D02*
X0092800Y0209978D01*
X0092800Y0208779D02*
X0099300Y0208779D01*
X0099300Y0207581D02*
X0092800Y0207581D01*
X0092800Y0206382D02*
X0099300Y0206382D01*
X0099300Y0205184D02*
X0092800Y0205184D01*
X0092800Y0203985D02*
X0099300Y0203985D01*
X0099300Y0202787D02*
X0092800Y0202787D01*
X0092800Y0201588D02*
X0099300Y0201588D01*
X0099300Y0200390D02*
X0092800Y0200390D01*
X0092800Y0199191D02*
X0099300Y0199191D01*
X0099300Y0197993D02*
X0092800Y0197993D01*
X0092800Y0196794D02*
X0099300Y0196794D01*
X0099300Y0195596D02*
X0092800Y0195596D01*
X0092800Y0194397D02*
X0099300Y0194397D01*
X0099300Y0193199D02*
X0092800Y0193199D01*
X0092800Y0192000D02*
X0099300Y0192000D01*
X0099300Y0190802D02*
X0092800Y0190802D01*
X0092800Y0189603D02*
X0099300Y0189603D01*
X0099300Y0188405D02*
X0092800Y0188405D01*
X0092800Y0187206D02*
X0099300Y0187206D01*
X0099300Y0186008D02*
X0092800Y0186008D01*
X0092800Y0184809D02*
X0099300Y0184809D01*
X0099597Y0183610D02*
X0092800Y0183610D01*
X0092800Y0182412D02*
X0100569Y0182412D01*
X0101831Y0181213D02*
X0092800Y0181213D01*
X0092800Y0180015D02*
X0103078Y0180015D01*
X0104325Y0178816D02*
X0092800Y0178816D01*
X0092800Y0177618D02*
X0101861Y0177618D01*
X0098732Y0176419D02*
X0092800Y0176419D01*
X0085200Y0176419D02*
X0047964Y0176419D01*
X0049162Y0175221D02*
X0085200Y0175221D01*
X0085200Y0174022D02*
X0050361Y0174022D01*
X0051560Y0172824D02*
X0085200Y0172824D01*
X0085200Y0171625D02*
X0052758Y0171625D01*
X0053957Y0170427D02*
X0085200Y0170427D01*
X0085200Y0169228D02*
X0055155Y0169228D01*
X0056354Y0168030D02*
X0085200Y0168030D01*
X0085200Y0166831D02*
X0084698Y0166831D01*
X0085200Y0166329D02*
X0083905Y0167624D01*
X0080095Y0167624D01*
X0077400Y0164929D01*
X0077400Y0161118D01*
X0078295Y0160224D01*
X0073805Y0160224D01*
X0072905Y0161124D01*
X0069095Y0161124D01*
X0066400Y0158429D01*
X0066400Y0155683D01*
X0065600Y0154883D01*
X0065600Y0158429D01*
X0062905Y0161124D01*
X0062741Y0161124D01*
X0062374Y0162010D01*
X0031860Y0192524D01*
X0032557Y0192524D01*
X0034900Y0194867D01*
X0034900Y0196324D01*
X0031100Y0196324D01*
X0031100Y0196724D01*
X0030700Y0196724D01*
X0030700Y0200524D01*
X0029243Y0200524D01*
X0028700Y0199980D01*
X0028700Y0201318D01*
X0029095Y0200924D01*
X0032905Y0200924D01*
X0035600Y0203618D01*
X0035600Y0207429D01*
X0032905Y0210124D01*
X0029095Y0210124D01*
X0028700Y0209729D01*
X0028700Y0242167D01*
X0029343Y0241524D01*
X0030800Y0241524D01*
X0030800Y0245324D01*
X0031200Y0245324D01*
X0031200Y0245724D01*
X0030800Y0245724D01*
X0030800Y0249524D01*
X0029343Y0249524D01*
X0028700Y0248880D01*
X0028700Y0258884D01*
X0029100Y0257918D01*
X0028700Y0257918D01*
X0029100Y0257918D02*
X0030394Y0256624D01*
X0032085Y0255924D01*
X0033440Y0255924D01*
X0039240Y0250124D01*
X0039095Y0250124D01*
X0036400Y0247429D01*
X0036400Y0243618D01*
X0039095Y0240924D01*
X0042905Y0240924D01*
X0044000Y0242018D01*
X0044000Y0208180D01*
X0042657Y0209524D01*
X0041200Y0209524D01*
X0041200Y0205724D01*
X0040800Y0205724D01*
X0040800Y0209524D01*
X0039343Y0209524D01*
X0037000Y0207180D01*
X0037000Y0205724D01*
X0040800Y0205724D01*
X0040800Y0205324D01*
X0037000Y0205324D01*
X0037000Y0203867D01*
X0039343Y0201524D01*
X0040800Y0201524D01*
X0040800Y0205324D01*
X0041200Y0205324D01*
X0041200Y0201524D01*
X0042657Y0201524D01*
X0044000Y0202867D01*
X0044000Y0199767D01*
X0044415Y0198766D01*
X0042657Y0200524D01*
X0041200Y0200524D01*
X0041200Y0196724D01*
X0040800Y0196724D01*
X0040800Y0200524D01*
X0039343Y0200524D01*
X0037000Y0198180D01*
X0037000Y0196724D01*
X0040800Y0196724D01*
X0040800Y0196324D01*
X0037000Y0196324D01*
X0037000Y0194867D01*
X0039343Y0192524D01*
X0040800Y0192524D01*
X0040800Y0196324D01*
X0041200Y0196324D01*
X0041200Y0196724D01*
X0045000Y0196724D01*
X0045000Y0198164D01*
X0046400Y0196764D01*
X0046400Y0194618D01*
X0049095Y0191924D01*
X0052905Y0191924D01*
X0055600Y0194618D01*
X0055600Y0198429D01*
X0052905Y0201124D01*
X0049960Y0201124D01*
X0049600Y0201483D01*
X0049600Y0201524D01*
X0050800Y0201524D01*
X0050800Y0205324D01*
X0051200Y0205324D01*
X0051200Y0205724D01*
X0050800Y0205724D01*
X0050800Y0209524D01*
X0049600Y0209524D01*
X0049600Y0240924D01*
X0052905Y0240924D01*
X0055600Y0243618D01*
X0055600Y0247429D01*
X0052905Y0250124D01*
X0049095Y0250124D01*
X0048127Y0249156D01*
X0037600Y0259683D01*
X0037600Y0261439D01*
X0036900Y0263129D01*
X0035606Y0264423D01*
X0033915Y0265124D01*
X0032675Y0265124D01*
X0033633Y0266624D01*
X0052278Y0266624D01*
X0060304Y0259859D01*
X0060614Y0259550D01*
X0060728Y0259503D01*
X0060822Y0259424D01*
X0061239Y0259291D01*
X0061643Y0259124D01*
X0061766Y0259124D01*
X0061883Y0259086D01*
X0062319Y0259124D01*
X0079740Y0259124D01*
X0081240Y0257624D01*
X0080400Y0257624D01*
X0080400Y0252924D01*
X0079600Y0252924D01*
X0079600Y0257624D01*
X0077888Y0257624D01*
X0074900Y0254636D01*
X0074900Y0252924D01*
X0079600Y0252924D01*
X0079600Y0252124D01*
X0077060Y0252124D01*
X0076986Y0252197D01*
X0075957Y0252624D01*
X0068243Y0252624D01*
X0067214Y0252197D01*
X0066426Y0251410D01*
X0064340Y0249324D01*
X0063705Y0249324D01*
X0062905Y0250124D01*
X0059095Y0250124D01*
X0056400Y0247429D01*
X0056400Y0243618D01*
X0059095Y0240924D01*
X0062905Y0240924D01*
X0065600Y0243618D01*
X0065600Y0243724D01*
X0066057Y0243724D01*
X0066400Y0243866D01*
X0066400Y0243618D01*
X0068000Y0242018D01*
X0068000Y0233097D01*
X0066719Y0231816D01*
X0066719Y0226231D01*
X0068008Y0224943D01*
X0073592Y0224943D01*
X0074881Y0226231D01*
X0074881Y0231816D01*
X0073600Y0233097D01*
X0073600Y0241618D01*
X0075600Y0243618D01*
X0075600Y0245664D01*
X0076326Y0244938D01*
X0077114Y0244150D01*
X0078143Y0243724D01*
X0086426Y0243724D01*
X0085779Y0243076D01*
X0085200Y0241679D01*
X0085200Y0224824D01*
X0060173Y0224824D01*
X0058892Y0226105D01*
X0053308Y0226105D01*
X0052019Y0224816D01*
X0052019Y0219231D01*
X0053308Y0217943D01*
X0058892Y0217943D01*
X0060173Y0219224D01*
X0085200Y0219224D01*
X0085200Y0185480D01*
X0083657Y0187024D01*
X0082200Y0187024D01*
X0082200Y0183224D01*
X0081800Y0183224D01*
X0081800Y0187024D01*
X0080343Y0187024D01*
X0078000Y0184680D01*
X0078000Y0183224D01*
X0081800Y0183224D01*
X0081800Y0182824D01*
X0078000Y0182824D01*
X0078000Y0181367D01*
X0080343Y0179024D01*
X0081800Y0179024D01*
X0081800Y0182824D01*
X0082200Y0182824D01*
X0082200Y0179024D01*
X0083657Y0179024D01*
X0085200Y0180567D01*
X0085200Y0166329D01*
X0086600Y0163750D02*
X0086847Y0163502D01*
X0088244Y0162924D01*
X0127227Y0162924D01*
X0127508Y0162643D01*
X0133092Y0162643D01*
X0134062Y0163613D01*
X0134028Y0160224D01*
X0085705Y0160224D01*
X0086600Y0161118D01*
X0086600Y0163750D01*
X0086600Y0163236D02*
X0087490Y0163236D01*
X0086600Y0162037D02*
X0134046Y0162037D01*
X0134034Y0160839D02*
X0086321Y0160839D01*
X0079302Y0166831D02*
X0057552Y0166831D01*
X0058751Y0165633D02*
X0078104Y0165633D01*
X0077400Y0164434D02*
X0059949Y0164434D01*
X0061148Y0163236D02*
X0077400Y0163236D01*
X0077400Y0162037D02*
X0062346Y0162037D01*
X0063190Y0160839D02*
X0068810Y0160839D01*
X0067611Y0159640D02*
X0064389Y0159640D01*
X0065587Y0158442D02*
X0066413Y0158442D01*
X0066400Y0157243D02*
X0065600Y0157243D01*
X0065600Y0156045D02*
X0066400Y0156045D01*
X0066600Y0151924D02*
X0071000Y0156324D01*
X0071000Y0156524D01*
X0071000Y0157424D01*
X0136800Y0157424D01*
X0137000Y0177224D01*
X0139200Y0177224D01*
X0140000Y0177524D01*
X0136480Y0181924D02*
X0135000Y0180443D01*
X0133520Y0181924D01*
X0136480Y0181924D01*
X0135770Y0181213D02*
X0134230Y0181213D01*
X0130000Y0177524D02*
X0129300Y0178324D01*
X0120500Y0178324D01*
X0120000Y0177524D01*
X0124230Y0181213D02*
X0125770Y0181213D01*
X0125680Y0181124D02*
X0126480Y0181924D01*
X0123520Y0181924D01*
X0124320Y0181124D01*
X0125680Y0181124D01*
X0125000Y0174604D02*
X0127680Y0171924D01*
X0132320Y0171924D01*
X0134165Y0173769D01*
X0134125Y0169772D01*
X0133092Y0170805D01*
X0127508Y0170805D01*
X0127227Y0170524D01*
X0100114Y0170524D01*
X0106597Y0173007D01*
X0107680Y0171924D01*
X0112320Y0171924D01*
X0115000Y0174604D01*
X0117680Y0171924D01*
X0122320Y0171924D01*
X0125000Y0174604D01*
X0124418Y0174022D02*
X0125582Y0174022D01*
X0126780Y0172824D02*
X0123220Y0172824D01*
X0116780Y0172824D02*
X0113220Y0172824D01*
X0114418Y0174022D02*
X0115582Y0174022D01*
X0113600Y0184693D02*
X0113600Y0185064D01*
X0113960Y0185424D01*
X0114429Y0185424D01*
X0113600Y0184693D01*
X0113600Y0184809D02*
X0113732Y0184809D01*
X0112800Y0188224D02*
X0109500Y0184924D01*
X0109640Y0189024D02*
X0108684Y0189024D01*
X0107178Y0188399D01*
X0106024Y0187246D01*
X0105508Y0186001D01*
X0105300Y0186201D01*
X0105300Y0194304D01*
X0107680Y0191924D01*
X0112320Y0191924D01*
X0115000Y0194604D01*
X0117680Y0191924D01*
X0122320Y0191924D01*
X0125000Y0194604D01*
X0127680Y0191924D01*
X0132320Y0191924D01*
X0135424Y0195028D01*
X0137929Y0192524D01*
X0139800Y0192524D01*
X0139800Y0197324D01*
X0140200Y0197324D01*
X0140200Y0197724D01*
X0145000Y0197724D01*
X0145000Y0199595D01*
X0144871Y0199724D01*
X0155540Y0199724D01*
X0146840Y0191024D01*
X0112243Y0191024D01*
X0111214Y0190597D01*
X0109640Y0189024D01*
X0110220Y0189603D02*
X0105300Y0189603D01*
X0105300Y0188405D02*
X0107190Y0188405D01*
X0106008Y0187206D02*
X0105300Y0187206D01*
X0105502Y0186008D02*
X0105511Y0186008D01*
X0105300Y0190802D02*
X0111707Y0190802D01*
X0112396Y0192000D02*
X0117604Y0192000D01*
X0116405Y0193199D02*
X0113595Y0193199D01*
X0114793Y0194397D02*
X0115207Y0194397D01*
X0116145Y0201588D02*
X0113855Y0201588D01*
X0112657Y0202787D02*
X0117343Y0202787D01*
X0124793Y0194397D02*
X0125207Y0194397D01*
X0126405Y0193199D02*
X0123595Y0193199D01*
X0122396Y0192000D02*
X0127604Y0192000D01*
X0132396Y0192000D02*
X0147817Y0192000D01*
X0149015Y0193199D02*
X0142746Y0193199D01*
X0142071Y0192524D02*
X0145000Y0195453D01*
X0145000Y0197324D01*
X0140200Y0197324D01*
X0140200Y0192524D01*
X0142071Y0192524D01*
X0140200Y0193199D02*
X0139800Y0193199D01*
X0139800Y0194397D02*
X0140200Y0194397D01*
X0140200Y0195596D02*
X0139800Y0195596D01*
X0139800Y0196794D02*
X0140200Y0196794D01*
X0137254Y0193199D02*
X0133595Y0193199D01*
X0134793Y0194397D02*
X0136055Y0194397D01*
X0143945Y0194397D02*
X0150214Y0194397D01*
X0151412Y0195596D02*
X0145000Y0195596D01*
X0145000Y0196794D02*
X0152611Y0196794D01*
X0153809Y0197993D02*
X0145000Y0197993D01*
X0145000Y0199191D02*
X0155008Y0199191D01*
X0159332Y0195596D02*
X0161312Y0195596D01*
X0160530Y0196794D02*
X0162511Y0196794D01*
X0161729Y0197993D02*
X0163709Y0197993D01*
X0162927Y0199191D02*
X0164908Y0199191D01*
X0164126Y0200390D02*
X0166106Y0200390D01*
X0165324Y0201588D02*
X0167305Y0201588D01*
X0166523Y0202787D02*
X0168503Y0202787D01*
X0167721Y0203985D02*
X0169702Y0203985D01*
X0168920Y0205184D02*
X0170900Y0205184D01*
X0170118Y0206382D02*
X0172099Y0206382D01*
X0171317Y0207581D02*
X0173297Y0207581D01*
X0172515Y0208779D02*
X0174496Y0208779D01*
X0173714Y0209978D02*
X0175694Y0209978D01*
X0174912Y0211176D02*
X0176893Y0211176D01*
X0176111Y0212375D02*
X0178091Y0212375D01*
X0177309Y0213573D02*
X0179290Y0213573D01*
X0178508Y0214772D02*
X0180488Y0214772D01*
X0179706Y0215970D02*
X0181687Y0215970D01*
X0180905Y0217169D02*
X0182885Y0217169D01*
X0183700Y0217983D02*
X0183700Y0219964D01*
X0155860Y0192124D01*
X0157840Y0192124D01*
X0183700Y0217983D01*
X0183700Y0218367D02*
X0182103Y0218367D01*
X0183302Y0219566D02*
X0183700Y0219566D01*
X0186500Y0216824D02*
X0186500Y0226724D01*
X0204100Y0244324D01*
X0204100Y0246524D01*
X0205000Y0247524D01*
X0199418Y0245582D02*
X0199998Y0244182D01*
X0187100Y0231283D01*
X0187100Y0233264D01*
X0199418Y0245582D01*
X0199769Y0244735D02*
X0198571Y0244735D01*
X0199353Y0243536D02*
X0197372Y0243536D01*
X0198154Y0242338D02*
X0196174Y0242338D01*
X0196956Y0241139D02*
X0194975Y0241139D01*
X0195757Y0239941D02*
X0193777Y0239941D01*
X0194559Y0238742D02*
X0192578Y0238742D01*
X0193360Y0237543D02*
X0191380Y0237543D01*
X0192162Y0236345D02*
X0190181Y0236345D01*
X0190963Y0235146D02*
X0188983Y0235146D01*
X0189765Y0233948D02*
X0187784Y0233948D01*
X0187100Y0232749D02*
X0188566Y0232749D01*
X0187368Y0231551D02*
X0187100Y0231551D01*
X0184300Y0234424D02*
X0184300Y0224524D01*
X0148000Y0188224D01*
X0112800Y0188224D01*
X0107604Y0192000D02*
X0105300Y0192000D01*
X0105300Y0193199D02*
X0106405Y0193199D01*
X0106118Y0172824D02*
X0106780Y0172824D01*
X0102990Y0171625D02*
X0134143Y0171625D01*
X0134131Y0170427D02*
X0133470Y0170427D01*
X0133220Y0172824D02*
X0134155Y0172824D01*
X0139719Y0169228D02*
X0146519Y0169228D01*
X0146519Y0168030D02*
X0139707Y0168030D01*
X0139695Y0166831D02*
X0146519Y0166831D01*
X0146519Y0165633D02*
X0139683Y0165633D01*
X0139671Y0164434D02*
X0146519Y0164434D01*
X0147214Y0163236D02*
X0139659Y0163236D01*
X0139647Y0162037D02*
X0151098Y0162037D01*
X0153157Y0160839D02*
X0139635Y0160839D01*
X0139623Y0159640D02*
X0155217Y0159640D01*
X0157276Y0158442D02*
X0139610Y0158442D01*
X0139600Y0157243D02*
X0150821Y0157243D01*
X0156179Y0157243D02*
X0159335Y0157243D01*
X0161395Y0156045D02*
X0157142Y0156045D01*
X0157600Y0154846D02*
X0163454Y0154846D01*
X0165514Y0153648D02*
X0157600Y0153648D01*
X0157244Y0152449D02*
X0167573Y0152449D01*
X0169632Y0151251D02*
X0156425Y0151251D01*
X0167545Y0163236D02*
X0181200Y0163236D01*
X0181200Y0164434D02*
X0169609Y0164434D01*
X0170437Y0165633D02*
X0181200Y0165633D01*
X0181200Y0166831D02*
X0170800Y0166831D01*
X0171440Y0170427D02*
X0169500Y0170427D01*
X0169500Y0171625D02*
X0171000Y0171625D01*
X0171000Y0172824D02*
X0169500Y0172824D01*
X0169500Y0174022D02*
X0171000Y0174022D01*
X0172040Y0175221D02*
X0169500Y0175221D01*
X0166700Y0177224D02*
X0166700Y0167324D01*
X0158732Y0177618D02*
X0145600Y0177618D01*
X0145600Y0178816D02*
X0158417Y0178816D01*
X0154422Y0180015D02*
X0145428Y0180015D01*
X0144230Y0181213D02*
X0150427Y0181213D01*
X0152400Y0186886D02*
X0151032Y0187296D01*
X0152400Y0188664D01*
X0152400Y0186886D01*
X0152400Y0187206D02*
X0151332Y0187206D01*
X0152141Y0188405D02*
X0152400Y0188405D01*
X0157000Y0187524D02*
X0157900Y0188224D01*
X0186500Y0216824D01*
X0174479Y0221963D02*
X0171399Y0221963D01*
X0172598Y0223161D02*
X0174857Y0223161D01*
X0173281Y0220764D02*
X0170200Y0220764D01*
X0169002Y0219566D02*
X0172082Y0219566D01*
X0170884Y0218367D02*
X0167803Y0218367D01*
X0164440Y0222924D02*
X0164767Y0223251D01*
X0163693Y0224325D01*
X0163574Y0224038D01*
X0162786Y0223250D01*
X0162460Y0222924D01*
X0164440Y0222924D01*
X0164678Y0223161D02*
X0162698Y0223161D01*
X0157000Y0227524D02*
X0156800Y0227824D01*
X0156800Y0253124D01*
X0151300Y0258624D01*
X0126000Y0258624D01*
X0120500Y0253124D01*
X0120000Y0252524D01*
X0116135Y0256720D02*
X0113865Y0256720D01*
X0115000Y0255585D02*
X0112561Y0258024D01*
X0117439Y0258024D01*
X0115000Y0255585D01*
X0112666Y0257918D02*
X0117334Y0257918D01*
X0115000Y0249463D02*
X0117639Y0246824D01*
X0122361Y0246824D01*
X0125000Y0249463D01*
X0127639Y0246824D01*
X0132361Y0246824D01*
X0135000Y0249463D01*
X0137639Y0246824D01*
X0142361Y0246824D01*
X0145000Y0249463D01*
X0146100Y0248363D01*
X0146100Y0244724D01*
X0106160Y0244724D01*
X0108260Y0246824D01*
X0112361Y0246824D01*
X0115000Y0249463D01*
X0113867Y0248330D02*
X0116133Y0248330D01*
X0117331Y0247132D02*
X0112669Y0247132D01*
X0110000Y0252524D02*
X0104000Y0246524D01*
X0078700Y0246524D01*
X0075400Y0249824D01*
X0068800Y0249824D01*
X0065500Y0246524D01*
X0061100Y0246524D01*
X0061000Y0245524D01*
X0064319Y0242338D02*
X0067681Y0242338D01*
X0068000Y0241139D02*
X0063121Y0241139D01*
X0065518Y0243536D02*
X0066482Y0243536D01*
X0068000Y0239941D02*
X0049600Y0239941D01*
X0049600Y0238742D02*
X0068000Y0238742D01*
X0068000Y0237543D02*
X0049600Y0237543D01*
X0049600Y0236345D02*
X0068000Y0236345D01*
X0068000Y0235146D02*
X0049600Y0235146D01*
X0049600Y0233948D02*
X0068000Y0233948D01*
X0067652Y0232749D02*
X0049600Y0232749D01*
X0049600Y0231551D02*
X0066719Y0231551D01*
X0066719Y0230352D02*
X0049600Y0230352D01*
X0049600Y0229154D02*
X0066719Y0229154D01*
X0066719Y0227955D02*
X0049600Y0227955D01*
X0049600Y0226757D02*
X0066719Y0226757D01*
X0067392Y0225558D02*
X0059439Y0225558D01*
X0056100Y0222024D02*
X0089000Y0222024D01*
X0085200Y0225558D02*
X0074208Y0225558D01*
X0074881Y0226757D02*
X0085200Y0226757D01*
X0085200Y0227955D02*
X0074881Y0227955D01*
X0074881Y0229154D02*
X0085200Y0229154D01*
X0085200Y0230352D02*
X0074881Y0230352D01*
X0074881Y0231551D02*
X0085200Y0231551D01*
X0085200Y0232749D02*
X0073948Y0232749D01*
X0073600Y0233948D02*
X0085200Y0233948D01*
X0085200Y0235146D02*
X0073600Y0235146D01*
X0073600Y0236345D02*
X0085200Y0236345D01*
X0085200Y0237543D02*
X0073600Y0237543D01*
X0073600Y0238742D02*
X0085200Y0238742D01*
X0085200Y0239941D02*
X0073600Y0239941D01*
X0073600Y0241139D02*
X0085200Y0241139D01*
X0085473Y0242338D02*
X0074319Y0242338D01*
X0075518Y0243536D02*
X0086238Y0243536D01*
X0085139Y0249324D02*
X0084012Y0249324D01*
X0084576Y0249887D01*
X0085139Y0249324D01*
X0084934Y0249529D02*
X0084217Y0249529D01*
X0080400Y0253124D02*
X0079600Y0253124D01*
X0079800Y0253124D02*
X0080000Y0252524D01*
X0079800Y0253124D02*
X0073200Y0259724D01*
X0053400Y0259724D01*
X0053000Y0260524D01*
X0053200Y0260724D02*
X0057000Y0260724D01*
X0057000Y0262180D01*
X0054657Y0264524D01*
X0053200Y0264524D01*
X0053200Y0260724D01*
X0052800Y0260724D01*
X0052800Y0264524D01*
X0051343Y0264524D01*
X0049000Y0262180D01*
X0049000Y0260724D01*
X0052800Y0260724D01*
X0052800Y0260324D01*
X0049000Y0260324D01*
X0049000Y0258867D01*
X0051343Y0256524D01*
X0052800Y0256524D01*
X0052800Y0260324D01*
X0053200Y0260324D01*
X0053200Y0260724D01*
X0053200Y0260324D02*
X0057000Y0260324D01*
X0057000Y0258867D01*
X0054657Y0256524D01*
X0053200Y0256524D01*
X0053200Y0260324D01*
X0053200Y0260315D02*
X0052800Y0260315D01*
X0052800Y0259117D02*
X0053200Y0259117D01*
X0053200Y0257918D02*
X0052800Y0257918D01*
X0052800Y0256720D02*
X0053200Y0256720D01*
X0054853Y0256720D02*
X0076984Y0256720D01*
X0075785Y0255521D02*
X0041762Y0255521D01*
X0040564Y0256720D02*
X0051147Y0256720D01*
X0049949Y0257918D02*
X0039365Y0257918D01*
X0038167Y0259117D02*
X0049000Y0259117D01*
X0049000Y0260315D02*
X0037600Y0260315D01*
X0037569Y0261514D02*
X0049000Y0261514D01*
X0049532Y0262712D02*
X0037072Y0262712D01*
X0036118Y0263911D02*
X0050730Y0263911D01*
X0052800Y0263911D02*
X0053200Y0263911D01*
X0053200Y0262712D02*
X0052800Y0262712D01*
X0052800Y0261514D02*
X0053200Y0261514D01*
X0055270Y0263911D02*
X0055497Y0263911D01*
X0056468Y0262712D02*
X0056919Y0262712D01*
X0057000Y0261514D02*
X0058341Y0261514D01*
X0057000Y0260315D02*
X0059764Y0260315D01*
X0061788Y0259117D02*
X0057000Y0259117D01*
X0056051Y0257918D02*
X0080946Y0257918D01*
X0080400Y0256720D02*
X0079600Y0256720D01*
X0079600Y0255521D02*
X0080400Y0255521D01*
X0080400Y0254323D02*
X0079600Y0254323D01*
X0079747Y0259117D02*
X0062238Y0259117D01*
X0062200Y0261924D02*
X0080900Y0261924D01*
X0089700Y0253124D01*
X0094861Y0249324D02*
X0095000Y0249463D01*
X0095139Y0249324D01*
X0094861Y0249324D01*
X0102666Y0257918D02*
X0107334Y0257918D01*
X0107439Y0258024D02*
X0105000Y0255585D01*
X0102561Y0258024D01*
X0107439Y0258024D01*
X0106135Y0256720D02*
X0103865Y0256720D01*
X0107369Y0245933D02*
X0146100Y0245933D01*
X0146100Y0244735D02*
X0106171Y0244735D01*
X0122669Y0247132D02*
X0127331Y0247132D01*
X0126133Y0248330D02*
X0123867Y0248330D01*
X0132669Y0247132D02*
X0137331Y0247132D01*
X0136133Y0248330D02*
X0133867Y0248330D01*
X0135000Y0255585D02*
X0135239Y0255824D01*
X0134761Y0255824D01*
X0135000Y0255585D01*
X0142669Y0247132D02*
X0146100Y0247132D01*
X0146100Y0248330D02*
X0143867Y0248330D01*
X0145000Y0255585D02*
X0145239Y0255824D01*
X0144761Y0255824D01*
X0145000Y0255585D01*
X0153700Y0247132D02*
X0154000Y0247132D01*
X0154000Y0248330D02*
X0153867Y0248330D01*
X0154000Y0245933D02*
X0153700Y0245933D01*
X0153700Y0244735D02*
X0154000Y0244735D01*
X0154000Y0243536D02*
X0153700Y0243536D01*
X0153700Y0242338D02*
X0154000Y0242338D01*
X0154000Y0241139D02*
X0153700Y0241139D01*
X0153606Y0239941D02*
X0154000Y0239941D01*
X0154000Y0238742D02*
X0153092Y0238742D01*
X0154000Y0237543D02*
X0151670Y0237543D01*
X0150140Y0223924D02*
X0144320Y0223924D01*
X0143320Y0222924D01*
X0151140Y0222924D01*
X0150140Y0223924D01*
X0150902Y0223161D02*
X0143557Y0223161D01*
X0158133Y0194397D02*
X0160114Y0194397D01*
X0158915Y0193199D02*
X0156935Y0193199D01*
X0162041Y0188405D02*
X0162400Y0188405D01*
X0162400Y0188764D02*
X0162400Y0185618D01*
X0163214Y0184805D01*
X0160786Y0184805D01*
X0161600Y0185618D01*
X0161600Y0187964D01*
X0162400Y0188764D01*
X0162400Y0187206D02*
X0161600Y0187206D01*
X0161600Y0186008D02*
X0162400Y0186008D01*
X0163209Y0184809D02*
X0160791Y0184809D01*
X0166581Y0182924D02*
X0166581Y0181064D01*
X0168440Y0182924D01*
X0166581Y0182924D01*
X0166581Y0182412D02*
X0167929Y0182412D01*
X0166730Y0181213D02*
X0166581Y0181213D01*
X0171600Y0187206D02*
X0172400Y0187206D01*
X0172400Y0188405D02*
X0171600Y0188405D01*
X0171426Y0189603D02*
X0172574Y0189603D01*
X0173773Y0190802D02*
X0170227Y0190802D01*
X0169029Y0192000D02*
X0174971Y0192000D01*
X0176761Y0176419D02*
X0198522Y0176419D01*
X0197684Y0233948D02*
X0200232Y0233948D01*
X0199599Y0235146D02*
X0198883Y0235146D01*
X0190651Y0244735D02*
X0188671Y0244735D01*
X0189453Y0243536D02*
X0187472Y0243536D01*
X0188254Y0242338D02*
X0186274Y0242338D01*
X0187056Y0241139D02*
X0185075Y0241139D01*
X0184900Y0240964D02*
X0199447Y0255511D01*
X0199998Y0254182D01*
X0200048Y0254132D01*
X0184900Y0238983D01*
X0184900Y0240964D01*
X0184900Y0239941D02*
X0185857Y0239941D01*
X0184300Y0234424D02*
X0204100Y0254224D01*
X0204100Y0257524D01*
X0205000Y0257524D01*
X0199940Y0254323D02*
X0198259Y0254323D01*
X0199041Y0253124D02*
X0197060Y0253124D01*
X0197842Y0251926D02*
X0195862Y0251926D01*
X0196644Y0250727D02*
X0194663Y0250727D01*
X0195445Y0249529D02*
X0193465Y0249529D01*
X0194247Y0248330D02*
X0192266Y0248330D01*
X0193048Y0247132D02*
X0191068Y0247132D01*
X0191850Y0245933D02*
X0189869Y0245933D01*
X0190126Y0265109D02*
X0062765Y0265109D01*
X0063309Y0266024D02*
X0060186Y0267318D01*
X0057795Y0269709D01*
X0056501Y0272833D01*
X0056501Y0276214D01*
X0057795Y0279338D01*
X0060186Y0281729D01*
X0063309Y0283023D01*
X0066691Y0283023D01*
X0069814Y0281729D01*
X0072205Y0279338D01*
X0073499Y0276214D01*
X0073499Y0272833D01*
X0072205Y0269709D01*
X0069814Y0267318D01*
X0066691Y0266024D01*
X0063309Y0266024D01*
X0062625Y0266308D02*
X0061343Y0266308D01*
X0061000Y0266124D02*
X0052600Y0274524D01*
X0046300Y0274524D01*
X0053300Y0269424D02*
X0062200Y0261924D01*
X0061000Y0266124D02*
X0072200Y0266124D01*
X0079900Y0274524D01*
X0149200Y0274524D01*
X0161800Y0263324D01*
X0171600Y0263324D01*
X0183500Y0275224D01*
X0173499Y0274697D02*
X0199714Y0274697D01*
X0199288Y0275896D02*
X0173499Y0275896D01*
X0173499Y0276214D02*
X0172205Y0279338D01*
X0169814Y0281729D01*
X0166691Y0283023D01*
X0163309Y0283023D01*
X0160186Y0281729D01*
X0157795Y0279338D01*
X0156501Y0276214D01*
X0156501Y0272833D01*
X0157795Y0269709D01*
X0160186Y0267318D01*
X0163309Y0266024D01*
X0166691Y0266024D01*
X0169814Y0267318D01*
X0172205Y0269709D01*
X0173499Y0272833D01*
X0173499Y0276214D01*
X0173135Y0277094D02*
X0199100Y0277094D01*
X0199100Y0278293D02*
X0172638Y0278293D01*
X0172052Y0279491D02*
X0199429Y0279491D01*
X0199925Y0280690D02*
X0170853Y0280690D01*
X0169429Y0281888D02*
X0201021Y0281888D01*
X0198515Y0273499D02*
X0173499Y0273499D01*
X0173279Y0272300D02*
X0197317Y0272300D01*
X0196118Y0271102D02*
X0172782Y0271102D01*
X0172286Y0269903D02*
X0194920Y0269903D01*
X0193721Y0268705D02*
X0171201Y0268705D01*
X0170002Y0267506D02*
X0192523Y0267506D01*
X0191324Y0266308D02*
X0167375Y0266308D01*
X0162625Y0266308D02*
X0067375Y0266308D01*
X0070002Y0267506D02*
X0159998Y0267506D01*
X0158799Y0268705D02*
X0071201Y0268705D01*
X0072286Y0269903D02*
X0157714Y0269903D01*
X0157218Y0271102D02*
X0072782Y0271102D01*
X0073279Y0272300D02*
X0156721Y0272300D01*
X0156501Y0273499D02*
X0073499Y0273499D01*
X0073499Y0274697D02*
X0156501Y0274697D01*
X0156501Y0275896D02*
X0073499Y0275896D01*
X0073135Y0277094D02*
X0156865Y0277094D01*
X0157362Y0278293D02*
X0072638Y0278293D01*
X0072052Y0279491D02*
X0157948Y0279491D01*
X0159147Y0280690D02*
X0070853Y0280690D01*
X0069429Y0281888D02*
X0160571Y0281888D01*
X0106443Y0223161D02*
X0105300Y0223161D01*
X0105300Y0221963D02*
X0107641Y0221963D01*
X0085200Y0218367D02*
X0059317Y0218367D01*
X0052883Y0218367D02*
X0049600Y0218367D01*
X0049600Y0217169D02*
X0085200Y0217169D01*
X0085200Y0215970D02*
X0049600Y0215970D01*
X0049600Y0214772D02*
X0085200Y0214772D01*
X0085200Y0213573D02*
X0049600Y0213573D01*
X0049600Y0212375D02*
X0085200Y0212375D01*
X0085200Y0211176D02*
X0049600Y0211176D01*
X0049600Y0209978D02*
X0058949Y0209978D01*
X0059095Y0210124D02*
X0056400Y0207429D01*
X0056400Y0203618D01*
X0059095Y0200924D01*
X0062905Y0200924D01*
X0065600Y0203618D01*
X0065600Y0207429D01*
X0062905Y0210124D01*
X0059095Y0210124D01*
X0057750Y0208779D02*
X0053401Y0208779D01*
X0052657Y0209524D02*
X0051200Y0209524D01*
X0051200Y0205724D01*
X0055000Y0205724D01*
X0055000Y0207180D01*
X0052657Y0209524D01*
X0051200Y0208779D02*
X0050800Y0208779D01*
X0050800Y0207581D02*
X0051200Y0207581D01*
X0051200Y0206382D02*
X0050800Y0206382D01*
X0051200Y0205824D02*
X0051000Y0205524D01*
X0051200Y0205324D02*
X0051200Y0201524D01*
X0052657Y0201524D01*
X0055000Y0203867D01*
X0055000Y0205324D01*
X0051200Y0205324D01*
X0051200Y0205184D02*
X0050800Y0205184D01*
X0051200Y0205824D02*
X0060000Y0197024D01*
X0061000Y0196524D01*
X0061100Y0197024D01*
X0071000Y0197024D01*
X0071000Y0196524D01*
X0071200Y0196724D02*
X0070800Y0196724D01*
X0070800Y0200524D01*
X0069343Y0200524D01*
X0067000Y0198180D01*
X0067000Y0196724D01*
X0070800Y0196724D01*
X0070800Y0196324D01*
X0067000Y0196324D01*
X0067000Y0194867D01*
X0069343Y0192524D01*
X0070800Y0192524D01*
X0070800Y0196324D01*
X0071200Y0196324D01*
X0071200Y0196724D01*
X0071200Y0200524D01*
X0072657Y0200524D01*
X0075000Y0198180D01*
X0075000Y0196724D01*
X0071200Y0196724D01*
X0071200Y0196794D02*
X0070800Y0196794D01*
X0071200Y0196324D02*
X0075000Y0196324D01*
X0075000Y0194867D01*
X0072657Y0192524D01*
X0071200Y0192524D01*
X0071200Y0196324D01*
X0071200Y0195596D02*
X0070800Y0195596D01*
X0070800Y0194397D02*
X0071200Y0194397D01*
X0071200Y0193199D02*
X0070800Y0193199D01*
X0068668Y0193199D02*
X0063332Y0193199D01*
X0062657Y0192524D02*
X0065000Y0194867D01*
X0065000Y0196324D01*
X0061200Y0196324D01*
X0061200Y0196724D01*
X0060800Y0196724D01*
X0060800Y0200524D01*
X0059343Y0200524D01*
X0057000Y0198180D01*
X0057000Y0196724D01*
X0060800Y0196724D01*
X0060800Y0196324D01*
X0057000Y0196324D01*
X0057000Y0194867D01*
X0059343Y0192524D01*
X0060800Y0192524D01*
X0060800Y0196324D01*
X0061200Y0196324D01*
X0061200Y0192524D01*
X0062657Y0192524D01*
X0061200Y0193199D02*
X0060800Y0193199D01*
X0060800Y0194397D02*
X0061200Y0194397D01*
X0061200Y0195596D02*
X0060800Y0195596D01*
X0061200Y0196724D02*
X0065000Y0196724D01*
X0065000Y0198180D01*
X0062657Y0200524D01*
X0061200Y0200524D01*
X0061200Y0196724D01*
X0061200Y0196794D02*
X0060800Y0196794D01*
X0060800Y0197993D02*
X0061200Y0197993D01*
X0061200Y0199191D02*
X0060800Y0199191D01*
X0060800Y0200390D02*
X0061200Y0200390D01*
X0062791Y0200390D02*
X0069209Y0200390D01*
X0069095Y0200924D02*
X0072905Y0200924D01*
X0075600Y0203618D01*
X0075600Y0207429D01*
X0072905Y0210124D01*
X0069095Y0210124D01*
X0066400Y0207429D01*
X0066400Y0203618D01*
X0069095Y0200924D01*
X0068430Y0201588D02*
X0063570Y0201588D01*
X0064768Y0202787D02*
X0067232Y0202787D01*
X0066400Y0203985D02*
X0065600Y0203985D01*
X0065600Y0205184D02*
X0066400Y0205184D01*
X0066400Y0206382D02*
X0065600Y0206382D01*
X0065448Y0207581D02*
X0066552Y0207581D01*
X0067750Y0208779D02*
X0064250Y0208779D01*
X0063051Y0209978D02*
X0068949Y0209978D01*
X0073051Y0209978D02*
X0085200Y0209978D01*
X0085200Y0208779D02*
X0074250Y0208779D01*
X0075448Y0207581D02*
X0085200Y0207581D01*
X0085200Y0206382D02*
X0075600Y0206382D01*
X0075600Y0205184D02*
X0085200Y0205184D01*
X0085200Y0203985D02*
X0075600Y0203985D01*
X0074768Y0202787D02*
X0085200Y0202787D01*
X0085200Y0201588D02*
X0073570Y0201588D01*
X0072791Y0200390D02*
X0085200Y0200390D01*
X0085200Y0199191D02*
X0073989Y0199191D01*
X0075000Y0197993D02*
X0085200Y0197993D01*
X0085200Y0196794D02*
X0075000Y0196794D01*
X0075000Y0195596D02*
X0085200Y0195596D01*
X0085200Y0194397D02*
X0074530Y0194397D01*
X0073332Y0193199D02*
X0085200Y0193199D01*
X0085200Y0192000D02*
X0052982Y0192000D01*
X0054180Y0193199D02*
X0058668Y0193199D01*
X0057470Y0194397D02*
X0055379Y0194397D01*
X0055600Y0195596D02*
X0057000Y0195596D01*
X0057000Y0196794D02*
X0055600Y0196794D01*
X0055600Y0197993D02*
X0057000Y0197993D01*
X0058011Y0199191D02*
X0054838Y0199191D01*
X0053639Y0200390D02*
X0059209Y0200390D01*
X0058430Y0201588D02*
X0052721Y0201588D01*
X0051200Y0201588D02*
X0050800Y0201588D01*
X0050800Y0202787D02*
X0051200Y0202787D01*
X0051200Y0203985D02*
X0050800Y0203985D01*
X0053920Y0202787D02*
X0057232Y0202787D01*
X0056400Y0203985D02*
X0055000Y0203985D01*
X0055000Y0205184D02*
X0056400Y0205184D01*
X0056400Y0206382D02*
X0055000Y0206382D01*
X0054600Y0207581D02*
X0056552Y0207581D01*
X0061100Y0205824D02*
X0061000Y0205524D01*
X0063989Y0199191D02*
X0068011Y0199191D01*
X0067000Y0197993D02*
X0065000Y0197993D01*
X0065000Y0196794D02*
X0067000Y0196794D01*
X0067000Y0195596D02*
X0065000Y0195596D01*
X0064530Y0194397D02*
X0067470Y0194397D01*
X0070800Y0197993D02*
X0071200Y0197993D01*
X0071200Y0199191D02*
X0070800Y0199191D01*
X0070800Y0200390D02*
X0071200Y0200390D01*
X0079327Y0186008D02*
X0038376Y0186008D01*
X0037177Y0187206D02*
X0085200Y0187206D01*
X0085200Y0186008D02*
X0084673Y0186008D01*
X0085200Y0188405D02*
X0035979Y0188405D01*
X0034780Y0189603D02*
X0085200Y0189603D01*
X0085200Y0190802D02*
X0033582Y0190802D01*
X0032383Y0192000D02*
X0049018Y0192000D01*
X0047820Y0193199D02*
X0043332Y0193199D01*
X0042657Y0192524D02*
X0045000Y0194867D01*
X0045000Y0196324D01*
X0041200Y0196324D01*
X0041200Y0192524D01*
X0042657Y0192524D01*
X0041200Y0193199D02*
X0040800Y0193199D01*
X0040800Y0194397D02*
X0041200Y0194397D01*
X0041200Y0195596D02*
X0040800Y0195596D01*
X0041000Y0196524D02*
X0030900Y0196524D01*
X0031100Y0196724D02*
X0031100Y0200524D01*
X0032557Y0200524D01*
X0034900Y0198180D01*
X0034900Y0196724D01*
X0031100Y0196724D01*
X0031100Y0196794D02*
X0030700Y0196794D01*
X0030700Y0197993D02*
X0031100Y0197993D01*
X0031100Y0199191D02*
X0030700Y0199191D01*
X0030700Y0200390D02*
X0031100Y0200390D01*
X0032691Y0200390D02*
X0039209Y0200390D01*
X0039279Y0201588D02*
X0033570Y0201588D01*
X0034768Y0202787D02*
X0038080Y0202787D01*
X0037000Y0203985D02*
X0035600Y0203985D01*
X0035600Y0205184D02*
X0037000Y0205184D01*
X0037000Y0206382D02*
X0035600Y0206382D01*
X0035448Y0207581D02*
X0037400Y0207581D01*
X0038599Y0208779D02*
X0034250Y0208779D01*
X0033051Y0209978D02*
X0044000Y0209978D01*
X0044000Y0211176D02*
X0028700Y0211176D01*
X0028700Y0209978D02*
X0028949Y0209978D01*
X0028700Y0212375D02*
X0044000Y0212375D01*
X0044000Y0213573D02*
X0028700Y0213573D01*
X0028700Y0214772D02*
X0044000Y0214772D01*
X0044000Y0215970D02*
X0028700Y0215970D01*
X0028700Y0217169D02*
X0044000Y0217169D01*
X0044000Y0218367D02*
X0028700Y0218367D01*
X0028700Y0219566D02*
X0044000Y0219566D01*
X0044000Y0220764D02*
X0028700Y0220764D01*
X0028700Y0221963D02*
X0044000Y0221963D01*
X0044000Y0223161D02*
X0028700Y0223161D01*
X0028700Y0224360D02*
X0044000Y0224360D01*
X0044000Y0225558D02*
X0028700Y0225558D01*
X0028700Y0226757D02*
X0044000Y0226757D01*
X0044000Y0227955D02*
X0028700Y0227955D01*
X0028700Y0229154D02*
X0044000Y0229154D01*
X0044000Y0230352D02*
X0028700Y0230352D01*
X0028700Y0231551D02*
X0044000Y0231551D01*
X0044000Y0232749D02*
X0028700Y0232749D01*
X0028700Y0233948D02*
X0044000Y0233948D01*
X0044000Y0235146D02*
X0028700Y0235146D01*
X0028700Y0236345D02*
X0044000Y0236345D01*
X0044000Y0237543D02*
X0028700Y0237543D01*
X0028700Y0238742D02*
X0044000Y0238742D01*
X0044000Y0239941D02*
X0028700Y0239941D01*
X0028700Y0241139D02*
X0038879Y0241139D01*
X0037681Y0242338D02*
X0033471Y0242338D01*
X0032657Y0241524D02*
X0031200Y0241524D01*
X0031200Y0245324D01*
X0035000Y0245324D01*
X0035000Y0243867D01*
X0032657Y0241524D01*
X0031200Y0242338D02*
X0030800Y0242338D01*
X0030800Y0243536D02*
X0031200Y0243536D01*
X0031200Y0244735D02*
X0030800Y0244735D01*
X0031000Y0245524D02*
X0031400Y0245424D01*
X0040200Y0236624D01*
X0040200Y0205824D01*
X0041000Y0205524D01*
X0041300Y0204724D01*
X0041300Y0197024D01*
X0041000Y0196524D01*
X0040800Y0196794D02*
X0041200Y0196794D01*
X0041200Y0197993D02*
X0040800Y0197993D01*
X0040800Y0199191D02*
X0041200Y0199191D01*
X0041200Y0200390D02*
X0040800Y0200390D01*
X0040800Y0201588D02*
X0041200Y0201588D01*
X0041200Y0202787D02*
X0040800Y0202787D01*
X0040800Y0203985D02*
X0041200Y0203985D01*
X0041200Y0205184D02*
X0040800Y0205184D01*
X0040800Y0206382D02*
X0041200Y0206382D01*
X0041200Y0207581D02*
X0040800Y0207581D01*
X0040800Y0208779D02*
X0041200Y0208779D01*
X0043401Y0208779D02*
X0044000Y0208779D01*
X0043920Y0202787D02*
X0044000Y0202787D01*
X0044000Y0201588D02*
X0042721Y0201588D01*
X0042791Y0200390D02*
X0044000Y0200390D01*
X0043989Y0199191D02*
X0044238Y0199191D01*
X0045000Y0197993D02*
X0045171Y0197993D01*
X0045000Y0196794D02*
X0046370Y0196794D01*
X0046400Y0195596D02*
X0045000Y0195596D01*
X0044530Y0194397D02*
X0046621Y0194397D01*
X0050100Y0197024D02*
X0046800Y0200324D01*
X0046800Y0246524D01*
X0033600Y0259724D01*
X0033000Y0260524D01*
X0033950Y0265109D02*
X0054075Y0265109D01*
X0052652Y0266308D02*
X0033432Y0266308D01*
X0032100Y0269424D02*
X0053300Y0269424D01*
X0055654Y0271102D02*
X0057218Y0271102D01*
X0057076Y0269903D02*
X0057714Y0269903D01*
X0058498Y0268705D02*
X0058799Y0268705D01*
X0059920Y0267506D02*
X0059998Y0267506D01*
X0056721Y0272300D02*
X0018567Y0272300D01*
X0019319Y0273499D02*
X0056501Y0273499D01*
X0056501Y0274697D02*
X0020215Y0274697D01*
X0020712Y0275896D02*
X0056501Y0275896D01*
X0056865Y0277094D02*
X0020900Y0277094D01*
X0020900Y0278293D02*
X0057362Y0278293D01*
X0057948Y0279491D02*
X0020571Y0279491D01*
X0020075Y0280690D02*
X0059147Y0280690D01*
X0060571Y0281888D02*
X0018979Y0281888D01*
X0011021Y0281888D02*
X0007200Y0281888D01*
X0007200Y0280690D02*
X0009925Y0280690D01*
X0009429Y0279491D02*
X0007200Y0279491D01*
X0007200Y0278293D02*
X0009100Y0278293D01*
X0009100Y0277094D02*
X0007200Y0277094D01*
X0007200Y0275896D02*
X0009288Y0275896D01*
X0009785Y0274697D02*
X0007200Y0274697D01*
X0007200Y0273499D02*
X0010681Y0273499D01*
X0011433Y0272300D02*
X0007200Y0272300D01*
X0007200Y0271102D02*
X0010234Y0271102D01*
X0009600Y0269903D02*
X0007200Y0269903D01*
X0007200Y0268705D02*
X0009103Y0268705D01*
X0009100Y0267506D02*
X0007200Y0267506D01*
X0007200Y0266308D02*
X0009117Y0266308D01*
X0009614Y0265109D02*
X0007200Y0265109D01*
X0007200Y0263911D02*
X0010269Y0263911D01*
X0011468Y0262712D02*
X0007200Y0262712D01*
X0007200Y0261514D02*
X0010646Y0261514D01*
X0009770Y0260315D02*
X0007200Y0260315D01*
X0007200Y0259117D02*
X0009274Y0259117D01*
X0009100Y0257918D02*
X0007200Y0257918D01*
X0007200Y0256720D02*
X0009100Y0256720D01*
X0009443Y0255521D02*
X0007200Y0255521D01*
X0007200Y0254323D02*
X0009940Y0254323D01*
X0011056Y0253124D02*
X0007200Y0253124D01*
X0007200Y0251926D02*
X0011058Y0251926D01*
X0009941Y0250727D02*
X0007200Y0250727D01*
X0007200Y0249529D02*
X0009444Y0249529D01*
X0009100Y0248330D02*
X0007200Y0248330D01*
X0007200Y0247132D02*
X0009100Y0247132D01*
X0009273Y0245933D02*
X0007200Y0245933D01*
X0007200Y0244735D02*
X0009769Y0244735D01*
X0010644Y0243536D02*
X0007200Y0243536D01*
X0007200Y0242338D02*
X0011470Y0242338D01*
X0010272Y0241139D02*
X0007200Y0241139D01*
X0007200Y0239941D02*
X0009615Y0239941D01*
X0009119Y0238742D02*
X0007200Y0238742D01*
X0007200Y0237543D02*
X0009100Y0237543D01*
X0009102Y0236345D02*
X0007200Y0236345D01*
X0007200Y0235146D02*
X0009599Y0235146D01*
X0010232Y0233948D02*
X0007200Y0233948D01*
X0007200Y0232749D02*
X0011430Y0232749D01*
X0010683Y0231551D02*
X0007200Y0231551D01*
X0007200Y0230352D02*
X0009786Y0230352D01*
X0009289Y0229154D02*
X0007200Y0229154D01*
X0007200Y0227955D02*
X0009100Y0227955D01*
X0009100Y0226757D02*
X0007200Y0226757D01*
X0007200Y0225558D02*
X0009428Y0225558D01*
X0009924Y0224360D02*
X0007200Y0224360D01*
X0007200Y0223161D02*
X0011018Y0223161D01*
X0011095Y0221963D02*
X0007200Y0221963D01*
X0007200Y0220764D02*
X0009956Y0220764D01*
X0009460Y0219566D02*
X0007200Y0219566D01*
X0007200Y0218367D02*
X0009100Y0218367D01*
X0009100Y0217169D02*
X0007200Y0217169D01*
X0007200Y0215970D02*
X0009257Y0215970D01*
X0009754Y0214772D02*
X0007200Y0214772D01*
X0007200Y0213573D02*
X0010606Y0213573D01*
X0011507Y0212375D02*
X0007200Y0212375D01*
X0007200Y0211176D02*
X0010309Y0211176D01*
X0009630Y0209978D02*
X0007200Y0209978D01*
X0007200Y0208779D02*
X0009134Y0208779D01*
X0009100Y0207581D02*
X0007200Y0207581D01*
X0007200Y0206382D02*
X0009100Y0206382D01*
X0009583Y0205184D02*
X0007200Y0205184D01*
X0007200Y0203985D02*
X0010195Y0203985D01*
X0011393Y0202787D02*
X0007200Y0202787D01*
X0007200Y0201588D02*
X0023100Y0201588D01*
X0023100Y0200390D02*
X0007200Y0200390D01*
X0007200Y0199191D02*
X0023100Y0199191D01*
X0023100Y0197993D02*
X0017214Y0197993D01*
X0019073Y0196794D02*
X0023100Y0196794D01*
X0023100Y0195596D02*
X0020114Y0195596D01*
X0020610Y0194397D02*
X0023100Y0194397D01*
X0023418Y0193199D02*
X0020900Y0193199D01*
X0020900Y0192000D02*
X0024464Y0192000D01*
X0025662Y0190802D02*
X0020673Y0190802D01*
X0020176Y0189603D02*
X0026861Y0189603D01*
X0028059Y0188405D02*
X0019225Y0188405D01*
X0018661Y0187206D02*
X0029258Y0187206D01*
X0030456Y0186008D02*
X0019860Y0186008D01*
X0020439Y0184809D02*
X0031655Y0184809D01*
X0032853Y0183610D02*
X0020900Y0183610D01*
X0020900Y0182412D02*
X0034052Y0182412D01*
X0035250Y0181213D02*
X0020843Y0181213D01*
X0020347Y0180015D02*
X0036449Y0180015D01*
X0037647Y0178816D02*
X0019637Y0178816D01*
X0018438Y0177618D02*
X0038846Y0177618D01*
X0040044Y0176419D02*
X0019448Y0176419D01*
X0020269Y0175221D02*
X0041243Y0175221D01*
X0042441Y0174022D02*
X0020765Y0174022D01*
X0020900Y0172824D02*
X0043640Y0172824D01*
X0044838Y0171625D02*
X0020900Y0171625D01*
X0020518Y0170427D02*
X0046037Y0170427D01*
X0047235Y0169228D02*
X0020021Y0169228D01*
X0018850Y0168030D02*
X0048434Y0168030D01*
X0049632Y0166831D02*
X0019036Y0166831D01*
X0020098Y0165633D02*
X0050831Y0165633D01*
X0052030Y0164434D02*
X0020595Y0164434D01*
X0020900Y0163236D02*
X0053228Y0163236D01*
X0054427Y0162037D02*
X0020900Y0162037D01*
X0020945Y0160839D02*
X0028710Y0160839D01*
X0027511Y0159640D02*
X0022143Y0159640D01*
X0023342Y0158442D02*
X0026313Y0158442D01*
X0026300Y0157243D02*
X0024540Y0157243D01*
X0025291Y0156045D02*
X0026300Y0156045D01*
X0026300Y0154846D02*
X0025400Y0154846D01*
X0025400Y0153648D02*
X0027271Y0153648D01*
X0028100Y0152449D02*
X0025400Y0152449D01*
X0025400Y0151251D02*
X0028100Y0151251D01*
X0028100Y0150052D02*
X0025400Y0150052D01*
X0025400Y0148854D02*
X0028100Y0148854D01*
X0028100Y0147655D02*
X0025400Y0147655D01*
X0025400Y0146457D02*
X0028100Y0146457D01*
X0028100Y0145258D02*
X0025400Y0145258D01*
X0025624Y0144060D02*
X0028269Y0144060D01*
X0029103Y0142861D02*
X0026822Y0142861D01*
X0028021Y0141663D02*
X0037462Y0141663D01*
X0036548Y0140464D02*
X0029219Y0140464D01*
X0030418Y0139266D02*
X0036119Y0139266D01*
X0036036Y0138067D02*
X0031616Y0138067D01*
X0032815Y0136869D02*
X0036036Y0136869D01*
X0034013Y0135670D02*
X0040145Y0135670D01*
X0036036Y0134472D02*
X0035212Y0134472D01*
X0042080Y0128479D02*
X0048920Y0128479D01*
X0050145Y0128479D02*
X0050855Y0128479D01*
X0050855Y0128196D02*
X0051545Y0128305D01*
X0052214Y0128522D01*
X0052840Y0128841D01*
X0053408Y0129254D01*
X0053905Y0129751D01*
X0054318Y0130320D01*
X0054637Y0130946D01*
X0054854Y0131614D01*
X0054964Y0132308D01*
X0054964Y0135169D01*
X0050855Y0135169D01*
X0050855Y0128196D01*
X0052080Y0128479D02*
X0058920Y0128479D01*
X0060145Y0128479D02*
X0060855Y0128479D01*
X0060855Y0128196D02*
X0061545Y0128305D01*
X0062214Y0128522D01*
X0062840Y0128841D01*
X0063408Y0129254D01*
X0063905Y0129751D01*
X0064318Y0130320D01*
X0064637Y0130946D01*
X0064854Y0131614D01*
X0064964Y0132308D01*
X0064964Y0135169D01*
X0060855Y0135169D01*
X0060855Y0128196D01*
X0062080Y0128479D02*
X0068920Y0128479D01*
X0070145Y0128479D02*
X0070855Y0128479D01*
X0070855Y0128196D02*
X0071545Y0128305D01*
X0072214Y0128522D01*
X0072840Y0128841D01*
X0073408Y0129254D01*
X0073905Y0129751D01*
X0074318Y0130320D01*
X0074637Y0130946D01*
X0074854Y0131614D01*
X0074964Y0132308D01*
X0074964Y0135169D01*
X0070855Y0135169D01*
X0070855Y0128196D01*
X0072080Y0128479D02*
X0078920Y0128479D01*
X0080145Y0128479D02*
X0080855Y0128479D01*
X0080855Y0128196D02*
X0081545Y0128305D01*
X0082214Y0128522D01*
X0082840Y0128841D01*
X0083408Y0129254D01*
X0083905Y0129751D01*
X0084318Y0130320D01*
X0084637Y0130946D01*
X0084854Y0131614D01*
X0084964Y0132308D01*
X0084964Y0135169D01*
X0080855Y0135169D01*
X0080855Y0128196D01*
X0082080Y0128479D02*
X0088920Y0128479D01*
X0087169Y0129677D02*
X0083831Y0129677D01*
X0084602Y0130876D02*
X0086398Y0130876D01*
X0086073Y0132074D02*
X0084927Y0132074D01*
X0084964Y0133273D02*
X0086036Y0133273D01*
X0086036Y0134472D02*
X0084964Y0134472D01*
X0084964Y0136869D02*
X0086036Y0136869D01*
X0086036Y0138067D02*
X0084964Y0138067D01*
X0084881Y0139266D02*
X0086119Y0139266D01*
X0080855Y0134472D02*
X0080145Y0134472D01*
X0080145Y0133273D02*
X0080855Y0133273D01*
X0080855Y0132074D02*
X0080145Y0132074D01*
X0080145Y0130876D02*
X0080855Y0130876D01*
X0080855Y0129677D02*
X0080145Y0129677D01*
X0077169Y0129677D02*
X0073831Y0129677D01*
X0074602Y0130876D02*
X0076398Y0130876D01*
X0076073Y0132074D02*
X0074927Y0132074D01*
X0074964Y0133273D02*
X0076036Y0133273D01*
X0076036Y0134472D02*
X0074964Y0134472D01*
X0074964Y0136869D02*
X0076036Y0136869D01*
X0076036Y0138067D02*
X0074964Y0138067D01*
X0074881Y0139266D02*
X0076119Y0139266D01*
X0076548Y0140464D02*
X0074452Y0140464D01*
X0073538Y0141663D02*
X0077462Y0141663D01*
X0075438Y0142861D02*
X0080043Y0142861D01*
X0079800Y0144060D02*
X0077436Y0144060D01*
X0077445Y0149924D02*
X0077239Y0149975D01*
X0076893Y0149924D01*
X0076586Y0149924D01*
X0077520Y0152024D01*
X0080308Y0152024D01*
X0079800Y0150798D01*
X0079800Y0149924D01*
X0077445Y0149924D01*
X0076643Y0150052D02*
X0079800Y0150052D01*
X0079987Y0151251D02*
X0077176Y0151251D01*
X0071347Y0151924D02*
X0070560Y0151924D01*
X0069932Y0151295D01*
X0071073Y0151306D01*
X0071347Y0151924D01*
X0066600Y0151924D02*
X0058900Y0151924D01*
X0054500Y0156324D01*
X0051200Y0156324D01*
X0051000Y0156524D01*
X0053923Y0152941D02*
X0055704Y0151160D01*
X0053125Y0151135D01*
X0052405Y0151924D01*
X0052905Y0151924D01*
X0053923Y0152941D01*
X0053431Y0152449D02*
X0054415Y0152449D01*
X0055613Y0151251D02*
X0053020Y0151251D01*
X0056342Y0158442D02*
X0056413Y0158442D01*
X0056824Y0159640D02*
X0054389Y0159640D01*
X0053190Y0160839D02*
X0055625Y0160839D01*
X0060000Y0160424D02*
X0060000Y0157424D01*
X0061000Y0156524D01*
X0060000Y0160424D02*
X0025900Y0194524D01*
X0025900Y0259724D01*
X0032100Y0269424D01*
X0029818Y0271102D02*
X0019766Y0271102D01*
X0020400Y0269903D02*
X0029084Y0269903D01*
X0028317Y0268705D02*
X0020897Y0268705D01*
X0020900Y0267506D02*
X0027551Y0267506D01*
X0026785Y0266308D02*
X0020882Y0266308D01*
X0020386Y0265109D02*
X0026019Y0265109D01*
X0025253Y0263911D02*
X0019731Y0263911D01*
X0018532Y0262712D02*
X0024487Y0262712D01*
X0023721Y0261514D02*
X0019354Y0261514D01*
X0020230Y0260315D02*
X0023114Y0260315D01*
X0023100Y0259117D02*
X0020726Y0259117D01*
X0020900Y0257918D02*
X0023100Y0257918D01*
X0023100Y0256720D02*
X0020900Y0256720D01*
X0020557Y0255521D02*
X0023100Y0255521D01*
X0023100Y0254323D02*
X0020060Y0254323D01*
X0018944Y0253124D02*
X0023100Y0253124D01*
X0023100Y0251926D02*
X0018942Y0251926D01*
X0020059Y0250727D02*
X0023100Y0250727D01*
X0023100Y0249529D02*
X0020556Y0249529D01*
X0020900Y0248330D02*
X0023100Y0248330D01*
X0023100Y0247132D02*
X0020900Y0247132D01*
X0020727Y0245933D02*
X0023100Y0245933D01*
X0023100Y0244735D02*
X0020231Y0244735D01*
X0019356Y0243536D02*
X0023100Y0243536D01*
X0023100Y0242338D02*
X0018530Y0242338D01*
X0019728Y0241139D02*
X0023100Y0241139D01*
X0023100Y0239941D02*
X0020385Y0239941D01*
X0020881Y0238742D02*
X0023100Y0238742D01*
X0023100Y0237543D02*
X0020900Y0237543D01*
X0020898Y0236345D02*
X0023100Y0236345D01*
X0023100Y0235146D02*
X0020401Y0235146D01*
X0019768Y0233948D02*
X0023100Y0233948D01*
X0023100Y0232749D02*
X0018570Y0232749D01*
X0019317Y0231551D02*
X0023100Y0231551D01*
X0023100Y0230352D02*
X0020214Y0230352D01*
X0020711Y0229154D02*
X0023100Y0229154D01*
X0023100Y0227955D02*
X0020900Y0227955D01*
X0020900Y0226757D02*
X0023100Y0226757D01*
X0023100Y0225558D02*
X0020572Y0225558D01*
X0020076Y0224360D02*
X0023100Y0224360D01*
X0023100Y0223161D02*
X0018982Y0223161D01*
X0018905Y0221963D02*
X0023100Y0221963D01*
X0023100Y0220764D02*
X0020044Y0220764D01*
X0020540Y0219566D02*
X0023100Y0219566D01*
X0023100Y0218367D02*
X0020900Y0218367D01*
X0020900Y0217169D02*
X0023100Y0217169D01*
X0023100Y0215970D02*
X0020743Y0215970D01*
X0020246Y0214772D02*
X0023100Y0214772D01*
X0023100Y0213573D02*
X0019394Y0213573D01*
X0018493Y0212375D02*
X0023100Y0212375D01*
X0023100Y0211176D02*
X0019691Y0211176D01*
X0020370Y0209978D02*
X0023100Y0209978D01*
X0023100Y0208779D02*
X0020866Y0208779D01*
X0020900Y0207581D02*
X0023100Y0207581D01*
X0023100Y0206382D02*
X0020900Y0206382D01*
X0020417Y0205184D02*
X0023100Y0205184D01*
X0023100Y0203985D02*
X0019805Y0203985D01*
X0018607Y0202787D02*
X0023100Y0202787D01*
X0028700Y0200390D02*
X0029109Y0200390D01*
X0033889Y0199191D02*
X0038011Y0199191D01*
X0037000Y0197993D02*
X0034900Y0197993D01*
X0034900Y0196794D02*
X0037000Y0196794D01*
X0037000Y0195596D02*
X0034900Y0195596D01*
X0034430Y0194397D02*
X0037470Y0194397D01*
X0038668Y0193199D02*
X0033232Y0193199D01*
X0039574Y0184809D02*
X0078129Y0184809D01*
X0078000Y0183610D02*
X0040773Y0183610D01*
X0041971Y0182412D02*
X0078000Y0182412D01*
X0078153Y0181213D02*
X0043170Y0181213D01*
X0044368Y0180015D02*
X0079352Y0180015D01*
X0081800Y0180015D02*
X0082200Y0180015D01*
X0082200Y0181213D02*
X0081800Y0181213D01*
X0081800Y0182412D02*
X0082200Y0182412D01*
X0082200Y0183610D02*
X0081800Y0183610D01*
X0081800Y0184809D02*
X0082200Y0184809D01*
X0082200Y0186008D02*
X0081800Y0186008D01*
X0084648Y0180015D02*
X0085200Y0180015D01*
X0085200Y0178816D02*
X0045567Y0178816D01*
X0046765Y0177618D02*
X0085200Y0177618D01*
X0077679Y0160839D02*
X0073190Y0160839D01*
X0067462Y0141663D02*
X0063538Y0141663D01*
X0064452Y0140464D02*
X0066548Y0140464D01*
X0066119Y0139266D02*
X0064881Y0139266D01*
X0064964Y0138067D02*
X0066036Y0138067D01*
X0066036Y0136869D02*
X0064964Y0136869D01*
X0064964Y0134472D02*
X0066036Y0134472D01*
X0066036Y0133273D02*
X0064964Y0133273D01*
X0064927Y0132074D02*
X0066073Y0132074D01*
X0066398Y0130876D02*
X0064602Y0130876D01*
X0063831Y0129677D02*
X0067169Y0129677D01*
X0070145Y0129677D02*
X0070855Y0129677D01*
X0070855Y0130876D02*
X0070145Y0130876D01*
X0070145Y0132074D02*
X0070855Y0132074D01*
X0070855Y0133273D02*
X0070145Y0133273D01*
X0070145Y0134472D02*
X0070855Y0134472D01*
X0060855Y0134472D02*
X0060145Y0134472D01*
X0060145Y0133273D02*
X0060855Y0133273D01*
X0060855Y0132074D02*
X0060145Y0132074D01*
X0060145Y0130876D02*
X0060855Y0130876D01*
X0060855Y0129677D02*
X0060145Y0129677D01*
X0057169Y0129677D02*
X0053831Y0129677D01*
X0054602Y0130876D02*
X0056398Y0130876D01*
X0056073Y0132074D02*
X0054927Y0132074D01*
X0054964Y0133273D02*
X0056036Y0133273D01*
X0056036Y0134472D02*
X0054964Y0134472D01*
X0054964Y0136869D02*
X0056036Y0136869D01*
X0056036Y0138067D02*
X0054964Y0138067D01*
X0054881Y0139266D02*
X0056119Y0139266D01*
X0056548Y0140464D02*
X0054452Y0140464D01*
X0053538Y0141663D02*
X0057462Y0141663D01*
X0050855Y0134472D02*
X0050145Y0134472D01*
X0050145Y0133273D02*
X0050855Y0133273D01*
X0050855Y0132074D02*
X0050145Y0132074D01*
X0050145Y0130876D02*
X0050855Y0130876D01*
X0050855Y0129677D02*
X0050145Y0129677D01*
X0047169Y0129677D02*
X0043831Y0129677D01*
X0044602Y0130876D02*
X0046398Y0130876D01*
X0046073Y0132074D02*
X0044927Y0132074D01*
X0044964Y0133273D02*
X0046036Y0133273D01*
X0046036Y0134472D02*
X0044964Y0134472D01*
X0044964Y0136869D02*
X0046036Y0136869D01*
X0046036Y0138067D02*
X0044964Y0138067D01*
X0044881Y0139266D02*
X0046119Y0139266D01*
X0046548Y0140464D02*
X0044452Y0140464D01*
X0043538Y0141663D02*
X0047462Y0141663D01*
X0030379Y0123685D02*
X0030000Y0123685D01*
X0029220Y0122486D02*
X0031577Y0122486D01*
X0032776Y0121288D02*
X0028021Y0121288D01*
X0026200Y0121288D02*
X0025800Y0121288D01*
X0025800Y0122486D02*
X0026200Y0122486D01*
X0026200Y0123685D02*
X0025800Y0123685D01*
X0025800Y0124883D02*
X0020409Y0124883D01*
X0020900Y0123685D02*
X0022000Y0123685D01*
X0022780Y0122486D02*
X0020900Y0122486D01*
X0020874Y0121288D02*
X0023979Y0121288D01*
X0020378Y0120089D02*
X0033974Y0120089D01*
X0035173Y0118891D02*
X0019711Y0118891D01*
X0018513Y0117692D02*
X0036371Y0117692D01*
X0037400Y0116494D02*
X0019374Y0116494D01*
X0020238Y0115295D02*
X0037400Y0115295D01*
X0037400Y0114097D02*
X0020734Y0114097D01*
X0020900Y0112898D02*
X0037400Y0112898D01*
X0036650Y0111700D02*
X0020900Y0111700D01*
X0020548Y0110501D02*
X0035894Y0110501D01*
X0035436Y0109303D02*
X0028126Y0109303D01*
X0027905Y0109524D02*
X0024095Y0109524D01*
X0021400Y0106829D01*
X0021400Y0103018D01*
X0024095Y0100324D01*
X0027905Y0100324D01*
X0030600Y0103018D01*
X0030600Y0106829D01*
X0027905Y0109524D01*
X0029325Y0108104D02*
X0035436Y0108104D01*
X0035436Y0106906D02*
X0030523Y0106906D01*
X0030600Y0105707D02*
X0035436Y0105707D01*
X0035436Y0104509D02*
X0030600Y0104509D01*
X0030600Y0103310D02*
X0035436Y0103310D01*
X0035436Y0102112D02*
X0029693Y0102112D01*
X0028495Y0100913D02*
X0035742Y0100913D01*
X0036283Y0099715D02*
X0020223Y0099715D01*
X0020719Y0100913D02*
X0023505Y0100913D01*
X0022307Y0102112D02*
X0020900Y0102112D01*
X0020900Y0103310D02*
X0021400Y0103310D01*
X0021400Y0104509D02*
X0020564Y0104509D01*
X0020067Y0105707D02*
X0021400Y0105707D01*
X0021477Y0106906D02*
X0018962Y0106906D01*
X0018924Y0108104D02*
X0022675Y0108104D01*
X0023874Y0109303D02*
X0020052Y0109303D01*
X0011075Y0108104D02*
X0007200Y0108104D01*
X0007200Y0106906D02*
X0011038Y0106906D01*
X0009933Y0105707D02*
X0007200Y0105707D01*
X0007200Y0104509D02*
X0009436Y0104509D01*
X0009100Y0103310D02*
X0007200Y0103310D01*
X0007200Y0102112D02*
X0009100Y0102112D01*
X0009281Y0100913D02*
X0007200Y0100913D01*
X0007200Y0099715D02*
X0009777Y0099715D01*
X0010664Y0098516D02*
X0007200Y0098516D01*
X0007200Y0097318D02*
X0012151Y0097318D01*
X0007200Y0096119D02*
X0075545Y0096119D01*
X0074346Y0097318D02*
X0017849Y0097318D01*
X0019336Y0098516D02*
X0037481Y0098516D01*
X0043519Y0098516D02*
X0047481Y0098516D01*
X0046283Y0099715D02*
X0044717Y0099715D01*
X0045258Y0100913D02*
X0045742Y0100913D01*
X0050100Y0105724D02*
X0050500Y0105524D01*
X0050100Y0105724D02*
X0050100Y0112324D01*
X0020400Y0142024D01*
X0020400Y0147524D01*
X0016000Y0151924D01*
X0015000Y0152524D01*
X0011376Y0157243D02*
X0007200Y0157243D01*
X0007200Y0156045D02*
X0010177Y0156045D01*
X0009576Y0154846D02*
X0007200Y0154846D01*
X0007200Y0153648D02*
X0009100Y0153648D01*
X0009100Y0152449D02*
X0007200Y0152449D01*
X0007200Y0151251D02*
X0009141Y0151251D01*
X0009638Y0150052D02*
X0007200Y0150052D01*
X0007200Y0148854D02*
X0010326Y0148854D01*
X0011525Y0147655D02*
X0007200Y0147655D01*
X0007200Y0146457D02*
X0010589Y0146457D01*
X0009747Y0145258D02*
X0007200Y0145258D01*
X0007200Y0144060D02*
X0009250Y0144060D01*
X0009100Y0142861D02*
X0007200Y0142861D01*
X0007200Y0141663D02*
X0009100Y0141663D01*
X0009467Y0140464D02*
X0007200Y0140464D01*
X0007200Y0139266D02*
X0009963Y0139266D01*
X0011113Y0138067D02*
X0007200Y0138067D01*
X0007200Y0136869D02*
X0011963Y0136869D01*
X0010735Y0135670D02*
X0007200Y0135670D01*
X0007200Y0134472D02*
X0010060Y0134472D01*
X0009753Y0133273D02*
X0007200Y0133273D01*
X0007200Y0132074D02*
X0009705Y0132074D01*
X0009963Y0130876D02*
X0007200Y0130876D01*
X0007200Y0129677D02*
X0010517Y0129677D01*
X0011550Y0128479D02*
X0007200Y0128479D01*
X0007200Y0127280D02*
X0011413Y0127280D01*
X0010214Y0126082D02*
X0007200Y0126082D01*
X0007200Y0124883D02*
X0009591Y0124883D01*
X0009100Y0123685D02*
X0007200Y0123685D01*
X0007200Y0122486D02*
X0009100Y0122486D01*
X0009126Y0121288D02*
X0007200Y0121288D01*
X0007200Y0120089D02*
X0009622Y0120089D01*
X0010289Y0118891D02*
X0007200Y0118891D01*
X0007200Y0117692D02*
X0011487Y0117692D01*
X0010626Y0116494D02*
X0007200Y0116494D01*
X0007200Y0115295D02*
X0009762Y0115295D01*
X0009266Y0114097D02*
X0007200Y0114097D01*
X0007200Y0112898D02*
X0009100Y0112898D01*
X0009100Y0111700D02*
X0007200Y0111700D01*
X0007200Y0110501D02*
X0009452Y0110501D01*
X0009948Y0109303D02*
X0007200Y0109303D01*
X0019786Y0126082D02*
X0022000Y0126082D01*
X0022700Y0127280D02*
X0018587Y0127280D01*
X0018450Y0128479D02*
X0023898Y0128479D01*
X0024386Y0129677D02*
X0019483Y0129677D01*
X0020037Y0130876D02*
X0023188Y0130876D01*
X0021989Y0132074D02*
X0020295Y0132074D01*
X0020247Y0133273D02*
X0020791Y0133273D01*
X0016000Y0142024D02*
X0015000Y0142524D01*
X0016000Y0142024D02*
X0040200Y0117824D01*
X0040200Y0105724D01*
X0040500Y0105524D01*
X0045500Y0109550D02*
X0044793Y0111256D01*
X0043369Y0112681D01*
X0043000Y0112834D01*
X0043000Y0115464D01*
X0046707Y0111757D01*
X0046207Y0111256D01*
X0045500Y0109550D01*
X0045106Y0110501D02*
X0045894Y0110501D01*
X0046650Y0111700D02*
X0044350Y0111700D01*
X0045566Y0112898D02*
X0043000Y0112898D01*
X0043000Y0114097D02*
X0044367Y0114097D01*
X0043168Y0115295D02*
X0043000Y0115295D01*
X0055258Y0100913D02*
X0055742Y0100913D01*
X0056283Y0099715D02*
X0054717Y0099715D01*
X0053519Y0098516D02*
X0057481Y0098516D01*
X0063519Y0098516D02*
X0067481Y0098516D01*
X0066283Y0099715D02*
X0064717Y0099715D01*
X0065258Y0100913D02*
X0065742Y0100913D01*
X0060500Y0105524D02*
X0060000Y0105724D01*
X0022600Y0143124D01*
X0022600Y0155224D01*
X0016000Y0161824D01*
X0015000Y0162524D01*
X0010964Y0166831D02*
X0007200Y0166831D01*
X0007200Y0165633D02*
X0009902Y0165633D01*
X0009405Y0164434D02*
X0007200Y0164434D01*
X0007200Y0163236D02*
X0009100Y0163236D01*
X0009100Y0162037D02*
X0007200Y0162037D01*
X0007200Y0160839D02*
X0009312Y0160839D01*
X0009808Y0159640D02*
X0007200Y0159640D01*
X0007200Y0158442D02*
X0010738Y0158442D01*
X0011150Y0168030D02*
X0007200Y0168030D01*
X0007200Y0169228D02*
X0009979Y0169228D01*
X0009482Y0170427D02*
X0007200Y0170427D01*
X0007200Y0171625D02*
X0009100Y0171625D01*
X0009100Y0172824D02*
X0007200Y0172824D01*
X0007200Y0174022D02*
X0009235Y0174022D01*
X0009731Y0175221D02*
X0007200Y0175221D01*
X0007200Y0176419D02*
X0010552Y0176419D01*
X0011562Y0177618D02*
X0007200Y0177618D01*
X0007200Y0178816D02*
X0010363Y0178816D01*
X0009653Y0180015D02*
X0007200Y0180015D01*
X0007200Y0181213D02*
X0009157Y0181213D01*
X0009100Y0182412D02*
X0007200Y0182412D01*
X0007200Y0183610D02*
X0009100Y0183610D01*
X0009561Y0184809D02*
X0007200Y0184809D01*
X0007200Y0186008D02*
X0010140Y0186008D01*
X0011339Y0187206D02*
X0007200Y0187206D01*
X0007200Y0188405D02*
X0010775Y0188405D01*
X0009824Y0189603D02*
X0007200Y0189603D01*
X0007200Y0190802D02*
X0009327Y0190802D01*
X0009100Y0192000D02*
X0007200Y0192000D01*
X0007200Y0193199D02*
X0009100Y0193199D01*
X0009390Y0194397D02*
X0007200Y0194397D01*
X0007200Y0195596D02*
X0009886Y0195596D01*
X0010927Y0196794D02*
X0007200Y0196794D01*
X0007200Y0197993D02*
X0012786Y0197993D01*
X0043121Y0241139D02*
X0044000Y0241139D01*
X0047755Y0249529D02*
X0048500Y0249529D01*
X0046556Y0250727D02*
X0065744Y0250727D01*
X0066942Y0251926D02*
X0045358Y0251926D01*
X0044159Y0253124D02*
X0074900Y0253124D01*
X0074900Y0254323D02*
X0042961Y0254323D01*
X0038637Y0250727D02*
X0028700Y0250727D01*
X0028700Y0249529D02*
X0038500Y0249529D01*
X0037301Y0248330D02*
X0033850Y0248330D01*
X0035000Y0247180D02*
X0032657Y0249524D01*
X0031200Y0249524D01*
X0031200Y0245724D01*
X0035000Y0245724D01*
X0035000Y0247180D01*
X0035000Y0247132D02*
X0036400Y0247132D01*
X0036400Y0245933D02*
X0035000Y0245933D01*
X0035000Y0244735D02*
X0036400Y0244735D01*
X0036482Y0243536D02*
X0034669Y0243536D01*
X0031200Y0245933D02*
X0030800Y0245933D01*
X0030800Y0247132D02*
X0031200Y0247132D01*
X0031200Y0248330D02*
X0030800Y0248330D01*
X0028700Y0251926D02*
X0037438Y0251926D01*
X0036240Y0253124D02*
X0028700Y0253124D01*
X0028700Y0254323D02*
X0035041Y0254323D01*
X0033843Y0255521D02*
X0028700Y0255521D01*
X0028700Y0256720D02*
X0030299Y0256720D01*
X0049600Y0225558D02*
X0052761Y0225558D01*
X0052019Y0224360D02*
X0049600Y0224360D01*
X0049600Y0223161D02*
X0052019Y0223161D01*
X0052019Y0221963D02*
X0049600Y0221963D01*
X0049600Y0220764D02*
X0052019Y0220764D01*
X0052019Y0219566D02*
X0049600Y0219566D01*
X0053121Y0241139D02*
X0058879Y0241139D01*
X0057681Y0242338D02*
X0054319Y0242338D01*
X0055518Y0243536D02*
X0056482Y0243536D01*
X0056400Y0244735D02*
X0055600Y0244735D01*
X0055600Y0245933D02*
X0056400Y0245933D01*
X0056400Y0247132D02*
X0055600Y0247132D01*
X0054699Y0248330D02*
X0057301Y0248330D01*
X0058500Y0249529D02*
X0053500Y0249529D01*
X0063500Y0249529D02*
X0064545Y0249529D01*
X0070800Y0245424D02*
X0070800Y0229024D01*
X0075600Y0244735D02*
X0076529Y0244735D01*
X0071000Y0245424D02*
X0070800Y0245424D01*
X0071000Y0245424D02*
X0071000Y0245524D01*
X0133686Y0163236D02*
X0134059Y0163236D01*
X0100855Y0141663D02*
X0100145Y0141663D01*
X0100145Y0140464D02*
X0100855Y0140464D01*
X0100855Y0139266D02*
X0100145Y0139266D01*
X0100145Y0138067D02*
X0100855Y0138067D01*
X0100855Y0136869D02*
X0100145Y0136869D01*
X0100145Y0134472D02*
X0100855Y0134472D01*
X0100855Y0133273D02*
X0100145Y0133273D01*
X0100145Y0132074D02*
X0100855Y0132074D01*
X0100855Y0130876D02*
X0100145Y0130876D01*
X0100145Y0129677D02*
X0100855Y0129677D01*
X0097169Y0129677D02*
X0093831Y0129677D01*
X0094602Y0130876D02*
X0096398Y0130876D01*
X0096073Y0132074D02*
X0094927Y0132074D01*
X0094964Y0133273D02*
X0096036Y0133273D01*
X0096036Y0134472D02*
X0094964Y0134472D01*
X0094964Y0136869D02*
X0096036Y0136869D01*
X0096036Y0138067D02*
X0094964Y0138067D01*
X0094881Y0139266D02*
X0096119Y0139266D01*
X0089800Y0148854D02*
X0089600Y0148854D01*
X0089600Y0150052D02*
X0089800Y0150052D01*
X0089987Y0151251D02*
X0089413Y0151251D01*
X0068156Y0112898D02*
X0062844Y0112898D01*
X0064350Y0111700D02*
X0066650Y0111700D01*
X0065894Y0110501D02*
X0065106Y0110501D01*
X0085500Y0101497D02*
X0085221Y0100824D01*
X0085779Y0100824D01*
X0085500Y0101497D01*
X0085258Y0100913D02*
X0085742Y0100913D01*
X0095221Y0100824D02*
X0095500Y0101497D01*
X0095779Y0100824D01*
X0095221Y0100824D01*
X0095258Y0100913D02*
X0095742Y0100913D01*
X0105221Y0100824D02*
X0105500Y0101497D01*
X0105779Y0100824D01*
X0105221Y0100824D01*
X0105258Y0100913D02*
X0105742Y0100913D01*
X0132423Y0108104D02*
X0133191Y0108104D01*
X0133191Y0109303D02*
X0132423Y0109303D01*
X0132423Y0110501D02*
X0133191Y0110501D01*
X0133191Y0111700D02*
X0132423Y0111700D01*
X0141649Y0100913D02*
X0143146Y0100913D01*
D19*
X0201000Y0124724D03*
X0183500Y0275224D03*
X0046300Y0274524D03*
D20*
X0102300Y0227624D02*
X0110000Y0227524D01*
X0102300Y0227624D02*
X0102300Y0184924D01*
X0110000Y0177524D01*
X0118400Y0184924D01*
X0148500Y0184924D01*
X0162500Y0180724D01*
X0110000Y0177524D02*
X0094600Y0171624D01*
X0082000Y0183024D02*
X0082000Y0196124D01*
X0071000Y0196524D01*
X0129300Y0106824D02*
X0132807Y0106524D01*
X0182100Y0105724D02*
X0187807Y0106524D01*
D21*
X0150600Y0166724D03*
X0162500Y0180724D03*
X0130300Y0166724D03*
X0094600Y0171624D03*
X0056100Y0222024D03*
X0070800Y0229024D03*
D22*
X0089000Y0222024D02*
X0089000Y0166724D01*
X0130300Y0166724D01*
X0150600Y0166724D02*
X0175000Y0152524D01*
X0185000Y0152524D01*
X0185000Y0170524D01*
X0187000Y0172524D01*
X0200000Y0172524D01*
X0205000Y0177524D01*
X0149900Y0240924D02*
X0149900Y0252524D01*
X0150000Y0252524D01*
X0149900Y0240924D02*
X0089000Y0240924D01*
X0089000Y0222024D01*
D23*
X0109500Y0184924D03*
X0153500Y0154124D03*
X0166700Y0167324D03*
M02*
