%
M48
M72
T01C0.0236
T02C0.0240
T03C0.0320
T04C0.0360
T05C0.0382
T06C0.0394
T07C0.0400
T08C0.1260
%
T01
X9460Y17162
X13030Y16672
X15060Y16672
X16250Y18072
X20100Y12472
X18350Y27522
X7080Y22902
X5610Y22202
X4630Y27452
T02
X10950Y18492
X15350Y15412
X16670Y16732
T03
X17500Y17252
X17700Y18752
X16700Y18752
X15700Y18752
X14000Y17752
X13000Y17752
X12000Y17752
X11000Y17752
X11000Y19752
X12000Y19752
X13000Y19752
X14000Y19752
X14000Y22752
X13000Y22752
X12000Y22752
X11000Y22752
X8200Y18302
X7100Y19652
X7100Y20552
X6100Y20552
X6100Y19652
X5100Y19652
X5100Y20552
X4100Y20552
X4100Y19652
X3090Y19652
X3100Y20552
X3100Y24552
X4100Y24552
X5100Y24552
X6100Y24552
X7100Y24552
X5300Y26052
X3300Y26052
X8200Y16302
X7100Y15652
X6100Y15652
X5100Y15652
X4100Y15652
X3090Y15652
X2600Y12492
X2600Y10492
X11000Y14752
X12000Y14752
X13000Y14752
X14000Y14752
X17500Y15252
X17700Y22752
X16700Y22752
X15700Y22752
T04
X9470Y14712
X8470Y14712
T05
X8050Y13552
X9050Y13552
X10050Y13552
X11050Y13552
X11050Y10552
X10050Y10552
X9050Y10552
X8050Y10552
X7050Y10552
X6050Y10552
X5050Y10552
X4050Y10552
X4050Y13552
X5050Y13552
X6050Y13552
X7050Y13552
T06
X13281Y10652
X14659Y10652
X16031Y10652
X17409Y10652
X18781Y10652
X20159Y10652
T07
X1500Y10252
X1500Y11252
X1500Y12252
X1500Y13252
X1500Y14252
X1500Y15252
X1500Y16252
X1500Y17252
X1500Y18252
X1500Y19252
X1500Y20752
X1500Y21752
X1500Y22752
X1500Y23752
X1500Y24752
X1500Y25752
X1500Y26752
X1500Y27752
X8000Y25252
X9000Y25252
X10000Y25252
X11000Y25252
X12000Y25252
X13000Y25252
X14000Y25252
X15000Y25252
X20500Y24752
X20500Y23752
X20500Y22752
X20500Y20752
X20500Y19752
X20500Y18752
X20500Y17752
X20500Y16752
X20500Y15752
X20500Y14752
X20500Y13752
X20500Y25752
X20500Y26752
X20500Y27752
T08
X16500Y27452
X6500Y27452
M30
