G75*
%MOIN*%
%OFA0B0*%
%FSLAX25Y25*%
%IPPOS*%
%LPD*%
%AMOC8*
5,1,8,0,0,1.08239X$1,22.5*
%
%ADD10OC8,0.06800*%
%ADD11OC8,0.04800*%
%ADD12C,0.05728*%
%ADD13C,0.04800*%
%ADD14OC8,0.07000*%
%ADD15C,0.07400*%
%ADD16C,0.08600*%
%ADD17C,0.05400*%
%ADD18C,0.03200*%
%ADD19C,0.01200*%
%ADD20C,0.01600*%
%ADD21C,0.03400*%
D10*
X0110000Y0147524D03*
X0120000Y0147524D03*
X0130000Y0147524D03*
X0140000Y0147524D03*
X0140000Y0177524D03*
X0130000Y0177524D03*
X0120000Y0177524D03*
X0110000Y0177524D03*
X0110000Y0197524D03*
X0120000Y0197524D03*
X0130000Y0197524D03*
X0140000Y0197524D03*
X0140000Y0227524D03*
X0130000Y0227524D03*
X0120000Y0227524D03*
X0110000Y0227524D03*
D11*
X0082000Y0183024D03*
X0071000Y0196524D03*
X0071000Y0205524D03*
X0061000Y0205524D03*
X0061000Y0196524D03*
X0051000Y0196524D03*
X0051000Y0205524D03*
X0041000Y0205524D03*
X0041000Y0196524D03*
X0030900Y0196524D03*
X0031000Y0205524D03*
X0031000Y0245524D03*
X0041000Y0245524D03*
X0051000Y0245524D03*
X0061000Y0245524D03*
X0071000Y0245524D03*
X0053000Y0260524D03*
X0082000Y0163024D03*
X0071000Y0156524D03*
X0061000Y0156524D03*
X0051000Y0156524D03*
X0041000Y0156524D03*
X0030900Y0156524D03*
X0026000Y0124924D03*
X0026000Y0104924D03*
X0157000Y0187524D03*
X0167000Y0187524D03*
X0177000Y0187524D03*
X0175000Y0172524D03*
X0175000Y0152524D03*
X0177000Y0227524D03*
X0167000Y0227524D03*
X0157000Y0227524D03*
D12*
X0110500Y0138388D02*
X0110500Y0132659D01*
X0100500Y0132659D02*
X0100500Y0138388D01*
X0090500Y0138388D02*
X0090500Y0132659D01*
X0080500Y0132659D02*
X0080500Y0138388D01*
X0070500Y0138388D02*
X0070500Y0132659D01*
X0060500Y0132659D02*
X0060500Y0138388D01*
X0050500Y0138388D02*
X0050500Y0132659D01*
X0040500Y0132659D02*
X0040500Y0138388D01*
X0040500Y0108388D02*
X0040500Y0102659D01*
X0050500Y0102659D02*
X0050500Y0108388D01*
X0060500Y0108388D02*
X0060500Y0102659D01*
X0070500Y0102659D02*
X0070500Y0108388D01*
X0080500Y0108388D02*
X0080500Y0102659D01*
X0090500Y0102659D02*
X0090500Y0108388D01*
X0100500Y0108388D02*
X0100500Y0102659D01*
X0110500Y0102659D02*
X0110500Y0108388D01*
D13*
X0033000Y0260524D03*
D14*
X0080000Y0252524D03*
X0090000Y0252524D03*
X0100000Y0252524D03*
X0110000Y0252524D03*
X0120000Y0252524D03*
X0130000Y0252524D03*
X0140000Y0252524D03*
X0150000Y0252524D03*
D15*
X0205000Y0257524D03*
X0205000Y0267524D03*
X0205000Y0277524D03*
X0205000Y0247524D03*
X0205000Y0237524D03*
X0205000Y0227524D03*
X0205000Y0207524D03*
X0205000Y0197524D03*
X0205000Y0187524D03*
X0205000Y0177524D03*
X0205000Y0167524D03*
X0205000Y0157524D03*
X0205000Y0147524D03*
X0205000Y0137524D03*
X0015000Y0142524D03*
X0015000Y0132524D03*
X0015000Y0122524D03*
X0015000Y0112524D03*
X0015000Y0102524D03*
X0015000Y0152524D03*
X0015000Y0162524D03*
X0015000Y0172524D03*
X0015000Y0182524D03*
X0015000Y0192524D03*
X0015000Y0207524D03*
X0015000Y0217524D03*
X0015000Y0227524D03*
X0015000Y0237524D03*
X0015000Y0247524D03*
X0015000Y0257524D03*
X0015000Y0267524D03*
X0015000Y0277524D03*
D16*
X0132807Y0106524D03*
X0146587Y0106524D03*
X0160307Y0106524D03*
X0174087Y0106524D03*
X0187807Y0106524D03*
X0201587Y0106524D03*
D17*
X0094000Y0146524D02*
X0094000Y0151924D01*
X0084000Y0151924D02*
X0084000Y0146524D01*
D18*
X0107200Y0188424D02*
X0137300Y0188424D01*
X0140000Y0197524D01*
X0147000Y0190524D01*
X0147000Y0184524D01*
X0159000Y0172524D01*
X0175000Y0172524D01*
X0165000Y0172524D01*
X0140000Y0147524D01*
X0133700Y0147524D01*
X0130000Y0147524D01*
X0107200Y0188424D02*
X0082185Y0195479D01*
X0079900Y0196124D01*
X0080000Y0252524D01*
X0175000Y0172524D02*
X0189000Y0186524D01*
X0189000Y0196524D01*
X0190000Y0197524D01*
X0205000Y0197524D01*
X0205000Y0187524D02*
X0190000Y0187524D01*
X0189000Y0186524D01*
D19*
X0210700Y0221224D02*
X0205200Y0226724D01*
X0205000Y0227524D01*
X0210700Y0221224D02*
X0210700Y0135424D01*
X0195300Y0120024D01*
X0195300Y0104624D01*
X0188700Y0098024D01*
X0078700Y0098024D01*
X0075400Y0101324D01*
X0075400Y0110124D01*
X0055600Y0129924D01*
X0055600Y0139824D01*
X0041300Y0154124D01*
X0041300Y0156324D01*
X0041000Y0156524D01*
X0045700Y0155224D02*
X0045700Y0161824D01*
X0015000Y0192524D01*
X0015000Y0162524D02*
X0016000Y0161824D01*
X0025900Y0151924D01*
X0033600Y0151924D01*
X0045700Y0139824D01*
X0045700Y0131024D01*
X0060000Y0116724D01*
X0060000Y0105724D01*
X0060500Y0105524D01*
X0065500Y0129924D02*
X0065500Y0139824D01*
X0053400Y0151924D01*
X0049000Y0151924D01*
X0045700Y0155224D01*
X0056700Y0154124D02*
X0067700Y0143124D01*
X0072100Y0143124D01*
X0075400Y0139824D01*
X0075400Y0131024D01*
X0078700Y0127724D01*
X0082000Y0127724D01*
X0085300Y0131024D01*
X0085300Y0140924D01*
X0093000Y0148624D01*
X0094000Y0149224D01*
X0110500Y0135524D02*
X0110600Y0135424D01*
X0133700Y0135424D01*
X0133700Y0106824D01*
X0132807Y0106524D01*
X0133700Y0105724D01*
X0138100Y0105724D01*
X0143600Y0100224D01*
X0154600Y0100224D01*
X0160100Y0105724D01*
X0160307Y0106524D01*
X0161200Y0105724D01*
X0166700Y0100224D01*
X0176600Y0100224D01*
X0182100Y0105724D01*
X0187600Y0105724D01*
X0187807Y0106524D01*
X0140000Y0177524D02*
X0139200Y0177224D01*
X0137000Y0177224D01*
X0117200Y0157424D01*
X0071000Y0157424D01*
X0071000Y0156524D01*
X0065500Y0167324D02*
X0056700Y0158524D01*
X0056700Y0154124D01*
X0061000Y0156524D02*
X0061100Y0157424D01*
X0082000Y0178324D01*
X0083100Y0178324D01*
X0090800Y0186024D01*
X0090800Y0188224D01*
X0082000Y0183024D02*
X0082000Y0194824D01*
X0082185Y0195479D01*
X0079900Y0196124D02*
X0078700Y0195924D01*
X0071000Y0195924D01*
X0071000Y0196524D01*
X0065500Y0197024D02*
X0071000Y0202524D01*
X0071000Y0205524D01*
X0071000Y0205824D01*
X0036900Y0239924D01*
X0036900Y0245424D01*
X0028100Y0254224D01*
X0028100Y0261924D01*
X0033600Y0267424D01*
X0039100Y0267424D01*
X0041300Y0265224D01*
X0179900Y0265224D01*
X0187600Y0257524D01*
X0205000Y0257524D01*
X0204100Y0237724D02*
X0205000Y0237524D01*
X0204100Y0237724D02*
X0178800Y0263024D01*
X0072100Y0263024D01*
X0056700Y0247624D01*
X0056700Y0245424D01*
X0052300Y0241024D01*
X0049000Y0241024D01*
X0044600Y0245424D01*
X0041300Y0245424D01*
X0041000Y0245524D01*
X0050100Y0246524D02*
X0051000Y0245524D01*
X0050100Y0246524D02*
X0050100Y0250924D01*
X0036900Y0264124D01*
X0061100Y0246524D02*
X0061000Y0245524D01*
X0061100Y0246524D02*
X0065500Y0246524D01*
X0077600Y0258624D01*
X0104000Y0258624D01*
X0109500Y0253124D01*
X0110000Y0252524D01*
X0100700Y0252024D02*
X0100000Y0252524D01*
X0100700Y0252024D02*
X0100700Y0224524D01*
X0127100Y0198124D01*
X0129300Y0198124D01*
X0130000Y0197524D01*
X0134800Y0222324D02*
X0130400Y0226724D01*
X0130000Y0227524D01*
X0134800Y0222324D02*
X0177700Y0222324D01*
X0181000Y0225624D01*
X0181000Y0254224D01*
X0170000Y0259724D02*
X0156800Y0259724D01*
X0150200Y0253124D01*
X0150000Y0252524D01*
X0145800Y0246524D02*
X0140300Y0252024D01*
X0140000Y0252524D01*
X0145800Y0246524D02*
X0154600Y0246524D01*
X0173300Y0227824D01*
X0176600Y0227824D01*
X0177000Y0227524D01*
X0167000Y0227524D02*
X0166700Y0227824D01*
X0163400Y0227824D01*
X0146900Y0244324D01*
X0138100Y0244324D01*
X0130400Y0252024D01*
X0130000Y0252524D01*
X0122700Y0252024D02*
X0120500Y0252024D01*
X0120000Y0252524D01*
X0122700Y0252024D02*
X0146900Y0227824D01*
X0156800Y0227824D01*
X0157000Y0227524D01*
X0133700Y0147524D02*
X0133700Y0135424D01*
X0090500Y0105524D02*
X0089700Y0105724D01*
X0065500Y0129924D01*
X0040500Y0135524D02*
X0040200Y0135424D01*
X0030300Y0125524D01*
X0027000Y0125524D01*
X0026000Y0124924D01*
X0065500Y0167324D02*
X0065500Y0197024D01*
D20*
X0007221Y0285615D02*
X0007221Y0094824D01*
X0212621Y0094824D01*
X0212621Y0133668D01*
X0212173Y0133219D01*
X0197900Y0118947D01*
X0197900Y0111747D01*
X0198018Y0111864D01*
X0200333Y0112824D01*
X0202840Y0112824D01*
X0205155Y0111864D01*
X0206927Y0110092D01*
X0207887Y0107777D01*
X0207887Y0105270D01*
X0206927Y0102955D01*
X0205155Y0101183D01*
X0202840Y0100224D01*
X0200333Y0100224D01*
X0198018Y0101183D01*
X0196777Y0102424D01*
X0196773Y0102419D01*
X0190173Y0095819D01*
X0189217Y0095424D01*
X0078183Y0095424D01*
X0077227Y0095819D01*
X0076496Y0096551D01*
X0073883Y0099164D01*
X0073255Y0098536D01*
X0071468Y0097795D01*
X0069532Y0097795D01*
X0067745Y0098536D01*
X0066376Y0099904D01*
X0065636Y0101692D01*
X0065636Y0109355D01*
X0066376Y0111143D01*
X0067745Y0112511D01*
X0068869Y0112977D01*
X0053396Y0128451D01*
X0053222Y0128872D01*
X0052945Y0128670D01*
X0052290Y0128337D01*
X0052119Y0128281D01*
X0062204Y0118196D01*
X0062600Y0117241D01*
X0062600Y0112783D01*
X0063255Y0112511D01*
X0064624Y0111143D01*
X0065364Y0109355D01*
X0065364Y0101692D01*
X0064624Y0099904D01*
X0063255Y0098536D01*
X0061468Y0097795D01*
X0059532Y0097795D01*
X0057745Y0098536D01*
X0056376Y0099904D01*
X0055636Y0101692D01*
X0055636Y0109355D01*
X0056376Y0111143D01*
X0057400Y0112167D01*
X0057400Y0115647D01*
X0044227Y0128819D01*
X0043742Y0129305D01*
X0043538Y0129102D01*
X0042945Y0128670D01*
X0042290Y0128337D01*
X0041592Y0128110D01*
X0040867Y0127995D01*
X0040655Y0127995D01*
X0040655Y0135369D01*
X0040345Y0135369D01*
X0035836Y0135369D01*
X0035836Y0132292D01*
X0035951Y0131567D01*
X0036178Y0130869D01*
X0036511Y0130215D01*
X0036942Y0129621D01*
X0037461Y0129102D01*
X0038055Y0128670D01*
X0038710Y0128337D01*
X0039408Y0128110D01*
X0040133Y0127995D01*
X0040345Y0127995D01*
X0040345Y0135369D01*
X0040345Y0135678D01*
X0035836Y0135678D01*
X0035836Y0138755D01*
X0035951Y0139480D01*
X0036178Y0140178D01*
X0036511Y0140832D01*
X0036942Y0141426D01*
X0037461Y0141945D01*
X0038055Y0142377D01*
X0038710Y0142710D01*
X0039032Y0142815D01*
X0032523Y0149324D01*
X0025383Y0149324D01*
X0024427Y0149719D01*
X0020700Y0153447D01*
X0020700Y0151390D01*
X0019832Y0149295D01*
X0018229Y0147691D01*
X0017824Y0147524D01*
X0018229Y0147356D01*
X0019832Y0145752D01*
X0020700Y0143657D01*
X0020700Y0141390D01*
X0019832Y0139295D01*
X0018229Y0137691D01*
X0017536Y0137404D01*
X0017883Y0137228D01*
X0018583Y0136719D01*
X0019195Y0136107D01*
X0019704Y0135406D01*
X0020097Y0134635D01*
X0020365Y0133812D01*
X0020500Y0132956D01*
X0020500Y0132724D01*
X0015200Y0132724D01*
X0015200Y0132324D01*
X0020500Y0132324D01*
X0020500Y0132091D01*
X0020365Y0131236D01*
X0020097Y0130412D01*
X0019704Y0129641D01*
X0019195Y0128941D01*
X0018583Y0128328D01*
X0017883Y0127820D01*
X0017536Y0127643D01*
X0018229Y0127356D01*
X0019832Y0125752D01*
X0020700Y0123657D01*
X0020700Y0121390D01*
X0019832Y0119295D01*
X0018229Y0117691D01*
X0017824Y0117524D01*
X0018229Y0117356D01*
X0019832Y0115752D01*
X0020700Y0113657D01*
X0020700Y0111390D01*
X0019832Y0109295D01*
X0018229Y0107691D01*
X0017824Y0107524D01*
X0018229Y0107356D01*
X0019832Y0105752D01*
X0020700Y0103657D01*
X0020700Y0101390D01*
X0019832Y0099295D01*
X0018229Y0097691D01*
X0016134Y0096824D01*
X0013866Y0096824D01*
X0011771Y0097691D01*
X0010168Y0099295D01*
X0009300Y0101390D01*
X0009300Y0103657D01*
X0010168Y0105752D01*
X0011771Y0107356D01*
X0012176Y0107524D01*
X0011771Y0107691D01*
X0010168Y0109295D01*
X0009300Y0111390D01*
X0009300Y0113657D01*
X0010168Y0115752D01*
X0011771Y0117356D01*
X0012176Y0117524D01*
X0011771Y0117691D01*
X0010168Y0119295D01*
X0009300Y0121390D01*
X0009300Y0123657D01*
X0010168Y0125752D01*
X0011771Y0127356D01*
X0012464Y0127643D01*
X0012117Y0127820D01*
X0011417Y0128328D01*
X0010805Y0128941D01*
X0010296Y0129641D01*
X0009903Y0130412D01*
X0009635Y0131236D01*
X0009500Y0132091D01*
X0009500Y0132324D01*
X0014800Y0132324D01*
X0014800Y0132724D01*
X0009500Y0132724D01*
X0009500Y0132956D01*
X0009635Y0133812D01*
X0009903Y0134635D01*
X0010296Y0135406D01*
X0010805Y0136107D01*
X0011417Y0136719D01*
X0012117Y0137228D01*
X0012464Y0137404D01*
X0011771Y0137691D01*
X0010168Y0139295D01*
X0009300Y0141390D01*
X0009300Y0143657D01*
X0010168Y0145752D01*
X0011771Y0147356D01*
X0012176Y0147524D01*
X0011771Y0147691D01*
X0010168Y0149295D01*
X0009300Y0151390D01*
X0009300Y0153657D01*
X0010168Y0155752D01*
X0011771Y0157356D01*
X0012176Y0157524D01*
X0011771Y0157691D01*
X0010168Y0159295D01*
X0009300Y0161390D01*
X0009300Y0163657D01*
X0010168Y0165752D01*
X0011771Y0167356D01*
X0012176Y0167524D01*
X0011771Y0167691D01*
X0010168Y0169295D01*
X0009300Y0171390D01*
X0009300Y0173657D01*
X0010168Y0175752D01*
X0011771Y0177356D01*
X0012176Y0177524D01*
X0011771Y0177691D01*
X0010168Y0179295D01*
X0009300Y0181390D01*
X0009300Y0183657D01*
X0010168Y0185752D01*
X0011771Y0187356D01*
X0012176Y0187524D01*
X0011771Y0187691D01*
X0010168Y0189295D01*
X0009300Y0191390D01*
X0009300Y0193657D01*
X0010168Y0195752D01*
X0011771Y0197356D01*
X0013866Y0198224D01*
X0016134Y0198224D01*
X0018229Y0197356D01*
X0019832Y0195752D01*
X0020700Y0193657D01*
X0020700Y0191390D01*
X0020440Y0190761D01*
X0047904Y0163296D01*
X0048300Y0162341D01*
X0048300Y0160046D01*
X0049177Y0160924D01*
X0052823Y0160924D01*
X0054277Y0159469D01*
X0054496Y0159996D01*
X0055227Y0160728D01*
X0062900Y0168401D01*
X0062900Y0192484D01*
X0062740Y0192324D01*
X0061000Y0192324D01*
X0061000Y0196523D01*
X0061000Y0196523D01*
X0061000Y0192324D01*
X0059260Y0192324D01*
X0056800Y0194784D01*
X0056800Y0196524D01*
X0061000Y0196524D01*
X0061000Y0200724D01*
X0059260Y0200724D01*
X0056800Y0198263D01*
X0056800Y0196524D01*
X0061000Y0196524D01*
X0061000Y0196524D01*
X0061000Y0200724D01*
X0062740Y0200724D01*
X0064131Y0199332D01*
X0067550Y0202751D01*
X0066600Y0203701D01*
X0066600Y0206547D01*
X0034696Y0238451D01*
X0034300Y0239406D01*
X0034300Y0242884D01*
X0032740Y0241324D01*
X0031000Y0241324D01*
X0031000Y0245523D01*
X0031000Y0245523D01*
X0031000Y0241324D01*
X0029260Y0241324D01*
X0026800Y0243784D01*
X0026800Y0245524D01*
X0031000Y0245524D01*
X0031000Y0245524D01*
X0026800Y0245524D01*
X0026800Y0247263D01*
X0029092Y0249555D01*
X0025896Y0252751D01*
X0025500Y0253706D01*
X0025500Y0262441D01*
X0025896Y0263396D01*
X0026627Y0264128D01*
X0032127Y0269628D01*
X0033083Y0270024D01*
X0039617Y0270024D01*
X0040573Y0269628D01*
X0041304Y0268896D01*
X0042377Y0267824D01*
X0169084Y0267824D01*
X0167129Y0268634D01*
X0164710Y0271053D01*
X0163401Y0274213D01*
X0163401Y0277634D01*
X0164710Y0280795D01*
X0167129Y0283214D01*
X0170290Y0284523D01*
X0173710Y0284523D01*
X0176871Y0283214D01*
X0179290Y0280795D01*
X0180599Y0277634D01*
X0180599Y0274213D01*
X0179290Y0271053D01*
X0176871Y0268634D01*
X0174916Y0267824D01*
X0180417Y0267824D01*
X0181373Y0267428D01*
X0182104Y0266696D01*
X0188677Y0260124D01*
X0199907Y0260124D01*
X0200168Y0260752D01*
X0201771Y0262356D01*
X0202176Y0262524D01*
X0201771Y0262691D01*
X0200168Y0264295D01*
X0199300Y0266390D01*
X0199300Y0268657D01*
X0200168Y0270752D01*
X0201771Y0272356D01*
X0202176Y0272524D01*
X0201771Y0272691D01*
X0200168Y0274295D01*
X0199300Y0276390D01*
X0199300Y0278657D01*
X0200168Y0280752D01*
X0201771Y0282356D01*
X0203866Y0283224D01*
X0206134Y0283224D01*
X0208229Y0282356D01*
X0209832Y0280752D01*
X0210700Y0278657D01*
X0210700Y0276390D01*
X0209832Y0274295D01*
X0208229Y0272691D01*
X0207824Y0272524D01*
X0208229Y0272356D01*
X0209832Y0270752D01*
X0210700Y0268657D01*
X0210700Y0266390D01*
X0209832Y0264295D01*
X0208229Y0262691D01*
X0207824Y0262524D01*
X0208229Y0262356D01*
X0209832Y0260752D01*
X0210700Y0258657D01*
X0210700Y0256390D01*
X0209832Y0254295D01*
X0208229Y0252691D01*
X0207824Y0252524D01*
X0208229Y0252356D01*
X0209832Y0250752D01*
X0210700Y0248657D01*
X0210700Y0246390D01*
X0209832Y0244295D01*
X0208229Y0242691D01*
X0207824Y0242524D01*
X0208229Y0242356D01*
X0209832Y0240752D01*
X0210700Y0238657D01*
X0210700Y0236390D01*
X0209832Y0234295D01*
X0208229Y0232691D01*
X0207824Y0232524D01*
X0208229Y0232356D01*
X0209832Y0230752D01*
X0210700Y0228657D01*
X0210700Y0226390D01*
X0210264Y0225337D01*
X0212621Y0222979D01*
X0212621Y0284832D01*
X0007221Y0285615D01*
X0007221Y0284345D02*
X0169860Y0284345D01*
X0166662Y0282746D02*
X0017286Y0282746D01*
X0018229Y0282356D02*
X0016134Y0283224D01*
X0013866Y0283224D01*
X0011771Y0282356D01*
X0010168Y0280752D01*
X0009300Y0278657D01*
X0009300Y0276390D01*
X0010168Y0274295D01*
X0011771Y0272691D01*
X0012176Y0272524D01*
X0011771Y0272356D01*
X0010168Y0270752D01*
X0009300Y0268657D01*
X0009300Y0266390D01*
X0010168Y0264295D01*
X0011771Y0262691D01*
X0012176Y0262524D01*
X0011771Y0262356D01*
X0010168Y0260752D01*
X0009300Y0258657D01*
X0009300Y0256390D01*
X0010168Y0254295D01*
X0011771Y0252691D01*
X0012176Y0252524D01*
X0011771Y0252356D01*
X0010168Y0250752D01*
X0009300Y0248657D01*
X0009300Y0246390D01*
X0010168Y0244295D01*
X0011771Y0242691D01*
X0012176Y0242524D01*
X0011771Y0242356D01*
X0010168Y0240752D01*
X0009300Y0238657D01*
X0009300Y0236390D01*
X0010168Y0234295D01*
X0011771Y0232691D01*
X0012176Y0232524D01*
X0011771Y0232356D01*
X0010168Y0230752D01*
X0009300Y0228657D01*
X0009300Y0226390D01*
X0010168Y0224295D01*
X0011771Y0222691D01*
X0012176Y0222524D01*
X0011771Y0222356D01*
X0010168Y0220752D01*
X0009300Y0218657D01*
X0009300Y0216390D01*
X0010168Y0214295D01*
X0011771Y0212691D01*
X0012176Y0212524D01*
X0011771Y0212356D01*
X0010168Y0210752D01*
X0009300Y0208657D01*
X0009300Y0206390D01*
X0010168Y0204295D01*
X0011771Y0202691D01*
X0013866Y0201824D01*
X0016134Y0201824D01*
X0018229Y0202691D01*
X0019832Y0204295D01*
X0020700Y0206390D01*
X0020700Y0208657D01*
X0019832Y0210752D01*
X0018229Y0212356D01*
X0017824Y0212524D01*
X0018229Y0212691D01*
X0019832Y0214295D01*
X0020700Y0216390D01*
X0020700Y0218657D01*
X0019832Y0220752D01*
X0018229Y0222356D01*
X0017824Y0222524D01*
X0018229Y0222691D01*
X0019832Y0224295D01*
X0020700Y0226390D01*
X0020700Y0228657D01*
X0019832Y0230752D01*
X0018229Y0232356D01*
X0017824Y0232524D01*
X0018229Y0232691D01*
X0019832Y0234295D01*
X0020700Y0236390D01*
X0020700Y0238657D01*
X0019832Y0240752D01*
X0018229Y0242356D01*
X0017824Y0242524D01*
X0018229Y0242691D01*
X0019832Y0244295D01*
X0020700Y0246390D01*
X0020700Y0248657D01*
X0019832Y0250752D01*
X0018229Y0252356D01*
X0017824Y0252524D01*
X0018229Y0252691D01*
X0019832Y0254295D01*
X0020700Y0256390D01*
X0020700Y0258657D01*
X0019832Y0260752D01*
X0018229Y0262356D01*
X0017824Y0262524D01*
X0018229Y0262691D01*
X0019832Y0264295D01*
X0020700Y0266390D01*
X0020700Y0268657D01*
X0019832Y0270752D01*
X0018229Y0272356D01*
X0017824Y0272524D01*
X0018229Y0272691D01*
X0019832Y0274295D01*
X0020700Y0276390D01*
X0020700Y0278657D01*
X0019832Y0280752D01*
X0018229Y0282356D01*
X0019437Y0281148D02*
X0165063Y0281148D01*
X0164194Y0279549D02*
X0020331Y0279549D01*
X0020700Y0277951D02*
X0163532Y0277951D01*
X0163401Y0276352D02*
X0020684Y0276352D01*
X0020022Y0274754D02*
X0163401Y0274754D01*
X0163839Y0273155D02*
X0018693Y0273155D01*
X0019028Y0271557D02*
X0164501Y0271557D01*
X0165804Y0269958D02*
X0039775Y0269958D01*
X0041841Y0268360D02*
X0167790Y0268360D01*
X0173700Y0260424D02*
X0173700Y0258988D01*
X0173137Y0257628D01*
X0172096Y0256587D01*
X0170736Y0256024D01*
X0169264Y0256024D01*
X0167904Y0256587D01*
X0167367Y0257124D01*
X0157877Y0257124D01*
X0155500Y0254747D01*
X0155500Y0250245D01*
X0154378Y0249124D01*
X0155117Y0249124D01*
X0156073Y0248728D01*
X0156804Y0247996D01*
X0174027Y0230773D01*
X0175177Y0231924D01*
X0178400Y0231924D01*
X0178400Y0251591D01*
X0177863Y0252128D01*
X0177300Y0253488D01*
X0177300Y0254960D01*
X0177863Y0256320D01*
X0178904Y0257360D01*
X0180235Y0257912D01*
X0177723Y0260424D01*
X0173700Y0260424D01*
X0173700Y0260367D02*
X0177779Y0260367D01*
X0179378Y0258769D02*
X0173609Y0258769D01*
X0172679Y0257170D02*
X0178714Y0257170D01*
X0177554Y0255572D02*
X0156325Y0255572D01*
X0155500Y0253973D02*
X0177300Y0253973D01*
X0177761Y0252375D02*
X0155500Y0252375D01*
X0155500Y0250776D02*
X0178400Y0250776D01*
X0178400Y0249178D02*
X0154432Y0249178D01*
X0157221Y0247579D02*
X0178400Y0247579D01*
X0178400Y0245981D02*
X0158820Y0245981D01*
X0160418Y0244382D02*
X0178400Y0244382D01*
X0178400Y0242784D02*
X0162017Y0242784D01*
X0163615Y0241185D02*
X0178400Y0241185D01*
X0178400Y0239587D02*
X0165214Y0239587D01*
X0166812Y0237988D02*
X0178400Y0237988D01*
X0178400Y0236390D02*
X0168411Y0236390D01*
X0170009Y0234791D02*
X0178400Y0234791D01*
X0178400Y0233193D02*
X0171608Y0233193D01*
X0173206Y0231594D02*
X0174848Y0231594D01*
X0171400Y0226047D02*
X0171827Y0225619D01*
X0172783Y0225224D01*
X0173077Y0225224D01*
X0173377Y0224924D01*
X0170623Y0224924D01*
X0171400Y0225701D01*
X0171400Y0226047D01*
X0170899Y0225200D02*
X0173101Y0225200D01*
X0178217Y0219724D02*
X0179173Y0220119D01*
X0179904Y0220851D01*
X0183204Y0224151D01*
X0183600Y0225106D01*
X0183600Y0251591D01*
X0184137Y0252128D01*
X0184688Y0253459D01*
X0199355Y0238791D01*
X0199300Y0238657D01*
X0199300Y0236390D01*
X0200168Y0234295D01*
X0201771Y0232691D01*
X0202176Y0232524D01*
X0201771Y0232356D01*
X0200168Y0230752D01*
X0199300Y0228657D01*
X0199300Y0226390D01*
X0200168Y0224295D01*
X0201771Y0222691D01*
X0203866Y0221824D01*
X0206134Y0221824D01*
X0206338Y0221908D01*
X0208100Y0220147D01*
X0208100Y0212409D01*
X0206134Y0213224D01*
X0203866Y0213224D01*
X0201771Y0212356D01*
X0200168Y0210752D01*
X0199983Y0210306D01*
X0147533Y0210125D01*
X0112800Y0221266D01*
X0112800Y0222687D01*
X0115000Y0224887D01*
X0117763Y0222124D01*
X0122237Y0222124D01*
X0125000Y0224887D01*
X0127763Y0222124D01*
X0131323Y0222124D01*
X0133327Y0220119D01*
X0134283Y0219724D01*
X0178217Y0219724D01*
X0179458Y0220405D02*
X0207842Y0220405D01*
X0208100Y0218806D02*
X0120469Y0218806D01*
X0115486Y0220405D02*
X0133042Y0220405D01*
X0131444Y0222003D02*
X0112800Y0222003D01*
X0113715Y0223602D02*
X0116285Y0223602D01*
X0115000Y0230160D02*
X0112237Y0232924D01*
X0107763Y0232924D01*
X0104600Y0229760D01*
X0104600Y0225287D01*
X0107200Y0222687D01*
X0107200Y0221701D01*
X0103300Y0225601D01*
X0103300Y0248045D01*
X0105000Y0249745D01*
X0107722Y0247024D01*
X0112278Y0247024D01*
X0115000Y0249745D01*
X0117722Y0247024D01*
X0122278Y0247024D01*
X0123151Y0247896D01*
X0138123Y0232924D01*
X0137763Y0232924D01*
X0135000Y0230160D01*
X0132237Y0232924D01*
X0127763Y0232924D01*
X0125000Y0230160D01*
X0122237Y0232924D01*
X0117763Y0232924D01*
X0115000Y0230160D01*
X0113566Y0231594D02*
X0116434Y0231594D01*
X0123566Y0231594D02*
X0126434Y0231594D01*
X0133566Y0231594D02*
X0136434Y0231594D01*
X0137854Y0233193D02*
X0103300Y0233193D01*
X0103300Y0234791D02*
X0136256Y0234791D01*
X0134657Y0236390D02*
X0103300Y0236390D01*
X0103300Y0237988D02*
X0133059Y0237988D01*
X0131460Y0239587D02*
X0103300Y0239587D01*
X0103300Y0241185D02*
X0129862Y0241185D01*
X0128263Y0242784D02*
X0103300Y0242784D01*
X0103300Y0244382D02*
X0126664Y0244382D01*
X0125066Y0245981D02*
X0103300Y0245981D01*
X0103300Y0247579D02*
X0107166Y0247579D01*
X0105568Y0249178D02*
X0104432Y0249178D01*
X0098100Y0247024D02*
X0098100Y0224006D01*
X0098496Y0223051D01*
X0099227Y0222319D01*
X0118623Y0202924D01*
X0117763Y0202924D01*
X0115000Y0200160D01*
X0112237Y0202924D01*
X0107763Y0202924D01*
X0104600Y0199760D01*
X0104600Y0195287D01*
X0107763Y0192124D01*
X0112237Y0192124D01*
X0115000Y0194887D01*
X0117763Y0192124D01*
X0122237Y0192124D01*
X0125000Y0194887D01*
X0127763Y0192124D01*
X0132237Y0192124D01*
X0135141Y0195028D01*
X0137846Y0192324D01*
X0140000Y0192324D01*
X0142154Y0192324D01*
X0145200Y0195370D01*
X0145200Y0197524D01*
X0145200Y0199678D01*
X0142154Y0202724D01*
X0140000Y0202724D01*
X0137846Y0202724D01*
X0135141Y0200019D01*
X0132237Y0202924D01*
X0127763Y0202924D01*
X0126870Y0202030D01*
X0113853Y0215047D01*
X0146140Y0204691D01*
X0146553Y0204522D01*
X0146667Y0204522D01*
X0146775Y0204487D01*
X0147220Y0204524D01*
X0199997Y0204706D01*
X0200168Y0204295D01*
X0201771Y0202691D01*
X0202464Y0202404D01*
X0202117Y0202228D01*
X0201417Y0201719D01*
X0200805Y0201107D01*
X0200296Y0200406D01*
X0199903Y0199635D01*
X0199635Y0198812D01*
X0199500Y0197956D01*
X0199500Y0197724D01*
X0204800Y0197724D01*
X0204800Y0197324D01*
X0199500Y0197324D01*
X0199500Y0197091D01*
X0199635Y0196236D01*
X0199903Y0195412D01*
X0200296Y0194641D01*
X0200805Y0193941D01*
X0201417Y0193328D01*
X0202117Y0192820D01*
X0202698Y0192524D01*
X0202117Y0192228D01*
X0201417Y0191719D01*
X0200805Y0191107D01*
X0200296Y0190406D01*
X0199903Y0189635D01*
X0199635Y0188812D01*
X0199500Y0187956D01*
X0199500Y0187724D01*
X0204800Y0187724D01*
X0204800Y0197324D01*
X0205200Y0197324D01*
X0205200Y0192024D01*
X0205200Y0187724D01*
X0204800Y0187724D01*
X0204800Y0187324D01*
X0199500Y0187324D01*
X0199500Y0187091D01*
X0199635Y0186236D01*
X0199903Y0185412D01*
X0200296Y0184641D01*
X0200805Y0183941D01*
X0201417Y0183328D01*
X0202117Y0182820D01*
X0202464Y0182643D01*
X0201771Y0182356D01*
X0200168Y0180752D01*
X0199300Y0178657D01*
X0199300Y0176390D01*
X0200168Y0174295D01*
X0201771Y0172691D01*
X0202176Y0172524D01*
X0201771Y0172356D01*
X0200168Y0170752D01*
X0199300Y0168657D01*
X0199300Y0166390D01*
X0200168Y0164295D01*
X0201771Y0162691D01*
X0202176Y0162524D01*
X0201771Y0162356D01*
X0200168Y0160752D01*
X0199300Y0158657D01*
X0199300Y0156390D01*
X0200168Y0154295D01*
X0201771Y0152691D01*
X0202176Y0152524D01*
X0201771Y0152356D01*
X0200168Y0150752D01*
X0199300Y0148657D01*
X0199300Y0146390D01*
X0200168Y0144295D01*
X0201771Y0142691D01*
X0202176Y0142524D01*
X0201771Y0142356D01*
X0200168Y0140752D01*
X0199300Y0138657D01*
X0199300Y0136390D01*
X0200168Y0134295D01*
X0201771Y0132691D01*
X0203553Y0131953D01*
X0193096Y0121496D01*
X0192700Y0120541D01*
X0192700Y0110167D01*
X0192460Y0110498D01*
X0191781Y0111176D01*
X0191004Y0111741D01*
X0190149Y0112177D01*
X0189236Y0112473D01*
X0188287Y0112624D01*
X0187991Y0112624D01*
X0187991Y0106708D01*
X0187623Y0106708D01*
X0187623Y0112624D01*
X0187327Y0112624D01*
X0186379Y0112473D01*
X0185465Y0112177D01*
X0184610Y0111741D01*
X0183833Y0111176D01*
X0183154Y0110498D01*
X0182590Y0109721D01*
X0182154Y0108865D01*
X0181857Y0107952D01*
X0181707Y0107004D01*
X0181707Y0106708D01*
X0187623Y0106708D01*
X0187623Y0106339D01*
X0181707Y0106339D01*
X0181707Y0106044D01*
X0181857Y0105095D01*
X0182154Y0104182D01*
X0182590Y0103327D01*
X0183154Y0102550D01*
X0183833Y0101871D01*
X0184610Y0101306D01*
X0185465Y0100871D01*
X0186225Y0100624D01*
X0176305Y0100624D01*
X0177655Y0101183D01*
X0179427Y0102955D01*
X0180387Y0105270D01*
X0180387Y0107777D01*
X0179427Y0110092D01*
X0177655Y0111864D01*
X0175340Y0112824D01*
X0172833Y0112824D01*
X0170518Y0111864D01*
X0168746Y0110092D01*
X0167787Y0107777D01*
X0167787Y0105270D01*
X0168746Y0102955D01*
X0170518Y0101183D01*
X0171868Y0100624D01*
X0161889Y0100624D01*
X0162649Y0100871D01*
X0163504Y0101306D01*
X0164281Y0101871D01*
X0164960Y0102550D01*
X0165524Y0103327D01*
X0165960Y0104182D01*
X0166257Y0105095D01*
X0166407Y0106044D01*
X0166407Y0106339D01*
X0160491Y0106339D01*
X0160491Y0106708D01*
X0160123Y0106708D01*
X0160123Y0112624D01*
X0159827Y0112624D01*
X0158879Y0112473D01*
X0157965Y0112177D01*
X0157110Y0111741D01*
X0156333Y0111176D01*
X0155654Y0110498D01*
X0155090Y0109721D01*
X0154654Y0108865D01*
X0154357Y0107952D01*
X0154207Y0107004D01*
X0154207Y0106708D01*
X0160123Y0106708D01*
X0160123Y0106339D01*
X0154207Y0106339D01*
X0154207Y0106044D01*
X0154357Y0105095D01*
X0154654Y0104182D01*
X0155090Y0103327D01*
X0155654Y0102550D01*
X0156333Y0101871D01*
X0157110Y0101306D01*
X0157965Y0100871D01*
X0158725Y0100624D01*
X0148805Y0100624D01*
X0150155Y0101183D01*
X0151927Y0102955D01*
X0152887Y0105270D01*
X0152887Y0107777D01*
X0151927Y0110092D01*
X0150155Y0111864D01*
X0147840Y0112824D01*
X0145333Y0112824D01*
X0143018Y0111864D01*
X0141246Y0110092D01*
X0140287Y0107777D01*
X0140287Y0105270D01*
X0141246Y0102955D01*
X0143018Y0101183D01*
X0144368Y0100624D01*
X0134389Y0100624D01*
X0135149Y0100871D01*
X0136004Y0101306D01*
X0136781Y0101871D01*
X0137460Y0102550D01*
X0138024Y0103327D01*
X0138460Y0104182D01*
X0138757Y0105095D01*
X0138907Y0106044D01*
X0138907Y0106339D01*
X0132991Y0106339D01*
X0132991Y0106708D01*
X0132623Y0106708D01*
X0132623Y0112624D01*
X0132327Y0112624D01*
X0131379Y0112473D01*
X0130465Y0112177D01*
X0129610Y0111741D01*
X0128833Y0111176D01*
X0128154Y0110498D01*
X0127590Y0109721D01*
X0127154Y0108865D01*
X0126857Y0107952D01*
X0126707Y0107004D01*
X0126707Y0106708D01*
X0132623Y0106708D01*
X0132623Y0106339D01*
X0126707Y0106339D01*
X0126707Y0106044D01*
X0126857Y0105095D01*
X0127154Y0104182D01*
X0127590Y0103327D01*
X0128154Y0102550D01*
X0128833Y0101871D01*
X0129610Y0101306D01*
X0130465Y0100871D01*
X0131225Y0100624D01*
X0114922Y0100624D01*
X0115364Y0101692D01*
X0115364Y0109355D01*
X0114624Y0111143D01*
X0113255Y0112511D01*
X0111468Y0113252D01*
X0109532Y0113252D01*
X0107745Y0112511D01*
X0106376Y0111143D01*
X0105636Y0109355D01*
X0105636Y0101692D01*
X0106078Y0100624D01*
X0104922Y0100624D01*
X0105364Y0101692D01*
X0105364Y0109355D01*
X0104624Y0111143D01*
X0103255Y0112511D01*
X0101468Y0113252D01*
X0099532Y0113252D01*
X0097745Y0112511D01*
X0096376Y0111143D01*
X0095636Y0109355D01*
X0095636Y0101692D01*
X0096078Y0100624D01*
X0094922Y0100624D01*
X0095364Y0101692D01*
X0095364Y0109355D01*
X0094624Y0111143D01*
X0093255Y0112511D01*
X0091468Y0113252D01*
X0089532Y0113252D01*
X0087745Y0112511D01*
X0087167Y0111934D01*
X0071073Y0128028D01*
X0071592Y0128110D01*
X0072290Y0128337D01*
X0072945Y0128670D01*
X0073538Y0129102D01*
X0073592Y0129155D01*
X0076496Y0126251D01*
X0077227Y0125519D01*
X0078183Y0125124D01*
X0082517Y0125124D01*
X0083473Y0125519D01*
X0086773Y0128819D01*
X0087258Y0129305D01*
X0087461Y0129102D01*
X0088055Y0128670D01*
X0088710Y0128337D01*
X0089408Y0128110D01*
X0090133Y0127995D01*
X0090345Y0127995D01*
X0090345Y0135369D01*
X0090655Y0135369D01*
X0090655Y0135678D01*
X0095164Y0135678D01*
X0095164Y0138755D01*
X0095049Y0139480D01*
X0094822Y0140178D01*
X0094489Y0140832D01*
X0094058Y0141426D01*
X0093660Y0141824D01*
X0094935Y0141824D01*
X0096662Y0142539D01*
X0097984Y0143861D01*
X0098700Y0145589D01*
X0098700Y0152859D01*
X0097984Y0154586D01*
X0097747Y0154824D01*
X0117717Y0154824D01*
X0118673Y0155219D01*
X0119404Y0155951D01*
X0136670Y0173217D01*
X0137763Y0172124D01*
X0142237Y0172124D01*
X0145400Y0175287D01*
X0145400Y0179760D01*
X0142237Y0182924D01*
X0137763Y0182924D01*
X0135000Y0180160D01*
X0132237Y0182924D01*
X0127763Y0182924D01*
X0125000Y0180160D01*
X0122237Y0182924D01*
X0117763Y0182924D01*
X0115000Y0180160D01*
X0112237Y0182924D01*
X0107763Y0182924D01*
X0104600Y0179760D01*
X0104600Y0177880D01*
X0084022Y0167224D01*
X0083823Y0167424D01*
X0080177Y0167424D01*
X0077600Y0164846D01*
X0077600Y0161201D01*
X0078777Y0160024D01*
X0073723Y0160024D01*
X0072823Y0160924D01*
X0069177Y0160924D01*
X0066600Y0158346D01*
X0066600Y0154701D01*
X0069177Y0152124D01*
X0072823Y0152124D01*
X0075400Y0154701D01*
X0075400Y0154824D01*
X0080253Y0154824D01*
X0080016Y0154586D01*
X0079300Y0152859D01*
X0079300Y0145589D01*
X0080016Y0143861D01*
X0080825Y0143052D01*
X0080655Y0143052D01*
X0080655Y0135678D01*
X0080345Y0135678D01*
X0080345Y0143052D01*
X0080133Y0143052D01*
X0079408Y0142937D01*
X0078710Y0142710D01*
X0078055Y0142377D01*
X0077461Y0141945D01*
X0077208Y0141692D01*
X0076873Y0142028D01*
X0073573Y0145328D01*
X0072617Y0145724D01*
X0068777Y0145724D01*
X0062377Y0152124D01*
X0062823Y0152124D01*
X0065400Y0154701D01*
X0065400Y0158047D01*
X0083077Y0175724D01*
X0083617Y0175724D01*
X0084573Y0176119D01*
X0092273Y0183819D01*
X0093004Y0184551D01*
X0093400Y0185506D01*
X0093400Y0185591D01*
X0093937Y0186128D01*
X0094500Y0187488D01*
X0094500Y0188960D01*
X0093937Y0190320D01*
X0092896Y0191360D01*
X0091536Y0191924D01*
X0090064Y0191924D01*
X0088704Y0191360D01*
X0087663Y0190320D01*
X0087100Y0188960D01*
X0087100Y0187488D01*
X0087536Y0186436D01*
X0086031Y0184932D01*
X0083740Y0187224D01*
X0082000Y0187224D01*
X0080260Y0187224D01*
X0077800Y0184763D01*
X0077800Y0183024D01*
X0082000Y0183024D01*
X0082000Y0187224D01*
X0082000Y0183024D01*
X0082000Y0183024D01*
X0082000Y0183024D01*
X0077800Y0183024D01*
X0077800Y0181284D01*
X0079542Y0179542D01*
X0068100Y0168101D01*
X0068100Y0193484D01*
X0069260Y0192324D01*
X0071000Y0192324D01*
X0072740Y0192324D01*
X0075200Y0194784D01*
X0075200Y0196524D01*
X0075200Y0198263D01*
X0072808Y0200655D01*
X0073204Y0201051D01*
X0073525Y0201827D01*
X0075400Y0203701D01*
X0075400Y0207346D01*
X0072823Y0209924D01*
X0070577Y0209924D01*
X0039500Y0241001D01*
X0039500Y0241124D01*
X0042823Y0241124D01*
X0044023Y0242324D01*
X0046796Y0239551D01*
X0046796Y0239551D01*
X0047527Y0238819D01*
X0048483Y0238424D01*
X0052817Y0238424D01*
X0053773Y0238819D01*
X0057627Y0242674D01*
X0059177Y0241124D01*
X0062823Y0241124D01*
X0065400Y0243701D01*
X0065400Y0243924D01*
X0066017Y0243924D01*
X0066600Y0244165D01*
X0066600Y0243701D01*
X0069177Y0241124D01*
X0072823Y0241124D01*
X0075400Y0243701D01*
X0075400Y0247346D01*
X0072823Y0249924D01*
X0072577Y0249924D01*
X0074700Y0252047D01*
X0074700Y0250328D01*
X0077805Y0247224D01*
X0079800Y0247224D01*
X0079800Y0252324D01*
X0080200Y0252324D01*
X0080200Y0247224D01*
X0082195Y0247224D01*
X0084859Y0249887D01*
X0087722Y0247024D01*
X0092278Y0247024D01*
X0095000Y0249745D01*
X0097722Y0247024D01*
X0098100Y0247024D01*
X0098100Y0245981D02*
X0075400Y0245981D01*
X0075400Y0244382D02*
X0098100Y0244382D01*
X0098100Y0242784D02*
X0074483Y0242784D01*
X0072884Y0241185D02*
X0098100Y0241185D01*
X0098100Y0239587D02*
X0054540Y0239587D01*
X0056138Y0241185D02*
X0059116Y0241185D01*
X0062884Y0241185D02*
X0069116Y0241185D01*
X0067517Y0242784D02*
X0064483Y0242784D01*
X0064423Y0249124D02*
X0063623Y0249124D01*
X0062823Y0249924D01*
X0062677Y0249924D01*
X0073177Y0260424D01*
X0075723Y0260424D01*
X0075396Y0260096D01*
X0064423Y0249124D01*
X0064477Y0249178D02*
X0063568Y0249178D01*
X0063530Y0250776D02*
X0066076Y0250776D01*
X0065128Y0252375D02*
X0067674Y0252375D01*
X0066727Y0253973D02*
X0069273Y0253973D01*
X0068325Y0255572D02*
X0070871Y0255572D01*
X0069924Y0257170D02*
X0072470Y0257170D01*
X0071522Y0258769D02*
X0074068Y0258769D01*
X0073121Y0260367D02*
X0075667Y0260367D01*
X0068023Y0262624D02*
X0054496Y0249096D01*
X0054248Y0248498D01*
X0052823Y0249924D01*
X0052700Y0249924D01*
X0052700Y0251441D01*
X0052304Y0252396D01*
X0042077Y0262624D01*
X0049160Y0262624D01*
X0048800Y0262263D01*
X0048800Y0260524D01*
X0053000Y0260524D01*
X0057200Y0260524D01*
X0057200Y0262263D01*
X0056840Y0262624D01*
X0068023Y0262624D01*
X0067365Y0261966D02*
X0057200Y0261966D01*
X0057200Y0260524D02*
X0053000Y0260524D01*
X0053000Y0260524D01*
X0053000Y0260524D01*
X0048800Y0260524D01*
X0048800Y0258784D01*
X0051260Y0256324D01*
X0053000Y0256324D01*
X0054740Y0256324D01*
X0057200Y0258784D01*
X0057200Y0260524D01*
X0057200Y0260367D02*
X0065767Y0260367D01*
X0064168Y0258769D02*
X0057185Y0258769D01*
X0055586Y0257170D02*
X0062570Y0257170D01*
X0060971Y0255572D02*
X0049129Y0255572D01*
X0050414Y0257170D02*
X0047530Y0257170D01*
X0048815Y0258769D02*
X0045932Y0258769D01*
X0044333Y0260367D02*
X0048800Y0260367D01*
X0048800Y0261966D02*
X0042735Y0261966D01*
X0040176Y0257170D02*
X0035869Y0257170D01*
X0035492Y0256793D02*
X0036730Y0258031D01*
X0037400Y0259648D01*
X0037400Y0259947D01*
X0047500Y0249847D01*
X0047500Y0248246D01*
X0046600Y0247346D01*
X0046600Y0247101D01*
X0046073Y0247628D01*
X0045117Y0248024D01*
X0044723Y0248024D01*
X0042823Y0249924D01*
X0039177Y0249924D01*
X0037627Y0248373D01*
X0030700Y0255301D01*
X0030700Y0256714D01*
X0032125Y0256124D01*
X0033875Y0256124D01*
X0035492Y0256793D01*
X0037036Y0258769D02*
X0038578Y0258769D01*
X0041775Y0255572D02*
X0030700Y0255572D01*
X0032027Y0253973D02*
X0043373Y0253973D01*
X0044972Y0252375D02*
X0033626Y0252375D01*
X0035224Y0250776D02*
X0046570Y0250776D01*
X0047500Y0249178D02*
X0043568Y0249178D01*
X0046121Y0247579D02*
X0046833Y0247579D01*
X0045162Y0241185D02*
X0042884Y0241185D01*
X0040914Y0239587D02*
X0046760Y0239587D01*
X0044111Y0236390D02*
X0098100Y0236390D01*
X0098100Y0237988D02*
X0042512Y0237988D01*
X0045709Y0234791D02*
X0098100Y0234791D01*
X0098100Y0233193D02*
X0047308Y0233193D01*
X0048906Y0231594D02*
X0098100Y0231594D01*
X0098100Y0229996D02*
X0050505Y0229996D01*
X0052103Y0228397D02*
X0098100Y0228397D01*
X0098100Y0226799D02*
X0053702Y0226799D01*
X0055300Y0225200D02*
X0098100Y0225200D01*
X0098268Y0223602D02*
X0056899Y0223602D01*
X0058498Y0222003D02*
X0099544Y0222003D01*
X0101142Y0220405D02*
X0060096Y0220405D01*
X0061695Y0218806D02*
X0102741Y0218806D01*
X0104339Y0217208D02*
X0063293Y0217208D01*
X0064892Y0215609D02*
X0105938Y0215609D01*
X0107536Y0214010D02*
X0066490Y0214010D01*
X0068089Y0212412D02*
X0109135Y0212412D01*
X0110733Y0210813D02*
X0069687Y0210813D01*
X0073531Y0209215D02*
X0112332Y0209215D01*
X0113930Y0207616D02*
X0075130Y0207616D01*
X0075400Y0206018D02*
X0115529Y0206018D01*
X0117127Y0204419D02*
X0075400Y0204419D01*
X0074520Y0202821D02*
X0107661Y0202821D01*
X0106062Y0201222D02*
X0073275Y0201222D01*
X0073839Y0199624D02*
X0104600Y0199624D01*
X0104600Y0198025D02*
X0075200Y0198025D01*
X0075200Y0196524D02*
X0071000Y0196524D01*
X0071000Y0196524D01*
X0075200Y0196524D01*
X0075200Y0196427D02*
X0104600Y0196427D01*
X0105059Y0194828D02*
X0075200Y0194828D01*
X0073646Y0193230D02*
X0106657Y0193230D01*
X0113343Y0193230D02*
X0116657Y0193230D01*
X0115059Y0194828D02*
X0114941Y0194828D01*
X0113938Y0201222D02*
X0116062Y0201222D01*
X0117661Y0202821D02*
X0112339Y0202821D01*
X0118087Y0210813D02*
X0127052Y0210813D01*
X0122069Y0212412D02*
X0116489Y0212412D01*
X0117085Y0214010D02*
X0114890Y0214010D01*
X0110000Y0219224D02*
X0110000Y0227524D01*
X0106434Y0231594D02*
X0103300Y0231594D01*
X0103300Y0229996D02*
X0104835Y0229996D01*
X0104600Y0228397D02*
X0103300Y0228397D01*
X0103300Y0226799D02*
X0104600Y0226799D01*
X0104687Y0225200D02*
X0103700Y0225200D01*
X0105299Y0223602D02*
X0106285Y0223602D01*
X0106898Y0222003D02*
X0107200Y0222003D01*
X0110000Y0219224D02*
X0147100Y0207324D01*
X0205000Y0207524D01*
X0207536Y0202404D02*
X0208100Y0202638D01*
X0208100Y0202070D01*
X0207883Y0202228D01*
X0207536Y0202404D01*
X0201642Y0202821D02*
X0132339Y0202821D01*
X0133938Y0201222D02*
X0136345Y0201222D01*
X0140000Y0201222D02*
X0140000Y0201222D01*
X0140000Y0202724D02*
X0140000Y0197524D01*
X0140000Y0197524D01*
X0140000Y0202724D01*
X0140000Y0199624D02*
X0140000Y0199624D01*
X0140000Y0198025D02*
X0140000Y0198025D01*
X0140000Y0197524D02*
X0145200Y0197524D01*
X0140000Y0197524D01*
X0140000Y0197524D01*
X0140000Y0197523D02*
X0140000Y0192324D01*
X0140000Y0197523D01*
X0140000Y0197523D01*
X0140000Y0196427D02*
X0140000Y0196427D01*
X0140000Y0194828D02*
X0140000Y0194828D01*
X0140000Y0193230D02*
X0140000Y0193230D01*
X0143060Y0193230D02*
X0201553Y0193230D01*
X0201330Y0191631D02*
X0179115Y0191631D01*
X0178823Y0191924D02*
X0175177Y0191924D01*
X0172600Y0189346D01*
X0172600Y0185701D01*
X0175177Y0183124D01*
X0178823Y0183124D01*
X0181400Y0185701D01*
X0181400Y0189346D01*
X0178823Y0191924D01*
X0180713Y0190033D02*
X0200106Y0190033D01*
X0199576Y0188434D02*
X0181400Y0188434D01*
X0181400Y0186836D02*
X0199540Y0186836D01*
X0199992Y0185237D02*
X0180936Y0185237D01*
X0179338Y0183639D02*
X0201107Y0183639D01*
X0201456Y0182040D02*
X0143120Y0182040D01*
X0144719Y0180442D02*
X0200039Y0180442D01*
X0199377Y0178843D02*
X0145400Y0178843D01*
X0145400Y0177245D02*
X0199300Y0177245D01*
X0199608Y0175646D02*
X0177817Y0175646D01*
X0176740Y0176724D02*
X0179200Y0174263D01*
X0179200Y0172524D01*
X0175000Y0172524D01*
X0175000Y0176724D01*
X0173260Y0176724D01*
X0170800Y0174263D01*
X0170800Y0172524D01*
X0175000Y0172524D01*
X0175000Y0172524D01*
X0175000Y0176724D01*
X0176740Y0176724D01*
X0175000Y0175646D02*
X0175000Y0175646D01*
X0175000Y0174048D02*
X0175000Y0174048D01*
X0175000Y0172524D02*
X0175000Y0172524D01*
X0175000Y0172524D01*
X0170800Y0172524D01*
X0170800Y0170784D01*
X0173260Y0168324D01*
X0175000Y0168324D01*
X0176740Y0168324D01*
X0179200Y0170784D01*
X0179200Y0172524D01*
X0175000Y0172524D01*
X0175000Y0172523D02*
X0175000Y0168324D01*
X0175000Y0172523D01*
X0175000Y0172523D01*
X0175000Y0172449D02*
X0175000Y0172449D01*
X0175000Y0170851D02*
X0175000Y0170851D01*
X0175000Y0169252D02*
X0175000Y0169252D01*
X0177668Y0169252D02*
X0199546Y0169252D01*
X0199300Y0167654D02*
X0131107Y0167654D01*
X0132705Y0169252D02*
X0172332Y0169252D01*
X0170800Y0170851D02*
X0134304Y0170851D01*
X0135903Y0172449D02*
X0137438Y0172449D01*
X0142562Y0172449D02*
X0170800Y0172449D01*
X0170800Y0174048D02*
X0144161Y0174048D01*
X0145400Y0175646D02*
X0172183Y0175646D01*
X0179200Y0174048D02*
X0200415Y0174048D01*
X0201997Y0172449D02*
X0179200Y0172449D01*
X0179200Y0170851D02*
X0200266Y0170851D01*
X0199439Y0166055D02*
X0129508Y0166055D01*
X0127910Y0164457D02*
X0200101Y0164457D01*
X0201604Y0162858D02*
X0126311Y0162858D01*
X0124713Y0161260D02*
X0200675Y0161260D01*
X0199716Y0159661D02*
X0123114Y0159661D01*
X0121516Y0158063D02*
X0199300Y0158063D01*
X0199300Y0156464D02*
X0177282Y0156464D01*
X0176823Y0156924D02*
X0173177Y0156924D01*
X0170600Y0154346D01*
X0170600Y0150701D01*
X0173177Y0148124D01*
X0176823Y0148124D01*
X0179400Y0150701D01*
X0179400Y0154346D01*
X0176823Y0156924D01*
X0178881Y0154866D02*
X0199931Y0154866D01*
X0201196Y0153267D02*
X0179400Y0153267D01*
X0179400Y0151669D02*
X0201084Y0151669D01*
X0199885Y0150070D02*
X0178769Y0150070D01*
X0177170Y0148472D02*
X0199300Y0148472D01*
X0199300Y0146873D02*
X0145200Y0146873D01*
X0145200Y0147524D02*
X0140000Y0147524D01*
X0140000Y0152724D01*
X0137846Y0152724D01*
X0135000Y0149878D01*
X0132154Y0152724D01*
X0130000Y0152724D01*
X0127846Y0152724D01*
X0125141Y0150019D01*
X0122237Y0152924D01*
X0117763Y0152924D01*
X0115000Y0150160D01*
X0112237Y0152924D01*
X0107763Y0152924D01*
X0104600Y0149760D01*
X0104600Y0145287D01*
X0107739Y0142147D01*
X0107461Y0141945D01*
X0106942Y0141426D01*
X0106511Y0140832D01*
X0106178Y0140178D01*
X0105951Y0139480D01*
X0105836Y0138755D01*
X0105836Y0135678D01*
X0110345Y0135678D01*
X0110345Y0135369D01*
X0105836Y0135369D01*
X0105836Y0132292D01*
X0105951Y0131567D01*
X0106178Y0130869D01*
X0106511Y0130215D01*
X0106942Y0129621D01*
X0107461Y0129102D01*
X0108055Y0128670D01*
X0108710Y0128337D01*
X0109408Y0128110D01*
X0110133Y0127995D01*
X0110345Y0127995D01*
X0110345Y0135369D01*
X0110655Y0135369D01*
X0110655Y0135678D01*
X0115164Y0135678D01*
X0115164Y0138755D01*
X0115049Y0139480D01*
X0114822Y0140178D01*
X0114489Y0140832D01*
X0114058Y0141426D01*
X0113538Y0141945D01*
X0112945Y0142377D01*
X0112643Y0142530D01*
X0115000Y0144887D01*
X0117763Y0142124D01*
X0122237Y0142124D01*
X0125141Y0145028D01*
X0127846Y0142324D01*
X0130000Y0142324D01*
X0132154Y0142324D01*
X0135000Y0145170D01*
X0137846Y0142324D01*
X0140000Y0142324D01*
X0142154Y0142324D01*
X0145200Y0145370D01*
X0145200Y0147524D01*
X0145200Y0149678D01*
X0142154Y0152724D01*
X0140000Y0152724D01*
X0140000Y0147524D01*
X0140000Y0147524D01*
X0145200Y0147524D01*
X0145200Y0148472D02*
X0172830Y0148472D01*
X0171231Y0150070D02*
X0144807Y0150070D01*
X0143209Y0151669D02*
X0170600Y0151669D01*
X0170600Y0153267D02*
X0098531Y0153267D01*
X0098700Y0151669D02*
X0106508Y0151669D01*
X0104910Y0150070D02*
X0098700Y0150070D01*
X0098700Y0148472D02*
X0104600Y0148472D01*
X0104600Y0146873D02*
X0098700Y0146873D01*
X0098570Y0145274D02*
X0104612Y0145274D01*
X0106211Y0143676D02*
X0097799Y0143676D01*
X0098055Y0142377D02*
X0097461Y0141945D01*
X0096942Y0141426D01*
X0096511Y0140832D01*
X0096178Y0140178D01*
X0095951Y0139480D01*
X0095836Y0138755D01*
X0095836Y0135678D01*
X0100345Y0135678D01*
X0100345Y0135369D01*
X0095836Y0135369D01*
X0095836Y0132292D01*
X0095951Y0131567D01*
X0096178Y0130869D01*
X0096511Y0130215D01*
X0096942Y0129621D01*
X0097461Y0129102D01*
X0098055Y0128670D01*
X0098710Y0128337D01*
X0099408Y0128110D01*
X0100133Y0127995D01*
X0100345Y0127995D01*
X0100345Y0135369D01*
X0100655Y0135369D01*
X0100655Y0135678D01*
X0105164Y0135678D01*
X0105164Y0138755D01*
X0105049Y0139480D01*
X0104822Y0140178D01*
X0104489Y0140832D01*
X0104058Y0141426D01*
X0103538Y0141945D01*
X0102945Y0142377D01*
X0102290Y0142710D01*
X0101592Y0142937D01*
X0100867Y0143052D01*
X0100655Y0143052D01*
X0100655Y0135678D01*
X0100345Y0135678D01*
X0100345Y0143052D01*
X0100133Y0143052D01*
X0099408Y0142937D01*
X0098710Y0142710D01*
X0098055Y0142377D01*
X0097643Y0142077D02*
X0095548Y0142077D01*
X0096331Y0140479D02*
X0094669Y0140479D01*
X0095144Y0138880D02*
X0095856Y0138880D01*
X0095836Y0137282D02*
X0095164Y0137282D01*
X0095164Y0135683D02*
X0095836Y0135683D01*
X0095164Y0135369D02*
X0095164Y0132292D01*
X0095049Y0131567D01*
X0094822Y0130869D01*
X0094489Y0130215D01*
X0094058Y0129621D01*
X0093538Y0129102D01*
X0092945Y0128670D01*
X0092290Y0128337D01*
X0091592Y0128110D01*
X0090867Y0127995D01*
X0090655Y0127995D01*
X0090655Y0135369D01*
X0095164Y0135369D01*
X0095164Y0134085D02*
X0095836Y0134085D01*
X0095836Y0132486D02*
X0095164Y0132486D01*
X0094829Y0130888D02*
X0096171Y0130888D01*
X0097274Y0129289D02*
X0093726Y0129289D01*
X0090655Y0129289D02*
X0090345Y0129289D01*
X0090345Y0130888D02*
X0090655Y0130888D01*
X0090655Y0132486D02*
X0090345Y0132486D01*
X0090345Y0134085D02*
X0090655Y0134085D01*
X0087274Y0129289D02*
X0087243Y0129289D01*
X0085644Y0127691D02*
X0199290Y0127691D01*
X0197692Y0126092D02*
X0084046Y0126092D01*
X0079402Y0119698D02*
X0192700Y0119698D01*
X0192700Y0118100D02*
X0081001Y0118100D01*
X0082599Y0116501D02*
X0192700Y0116501D01*
X0192700Y0114903D02*
X0084198Y0114903D01*
X0085796Y0113304D02*
X0192700Y0113304D01*
X0192700Y0111706D02*
X0191052Y0111706D01*
X0187991Y0111706D02*
X0187623Y0111706D01*
X0187623Y0110107D02*
X0187991Y0110107D01*
X0187991Y0108509D02*
X0187623Y0108509D01*
X0187623Y0106910D02*
X0187991Y0106910D01*
X0184562Y0111706D02*
X0177814Y0111706D01*
X0179413Y0110107D02*
X0182871Y0110107D01*
X0182038Y0108509D02*
X0180083Y0108509D01*
X0180387Y0106910D02*
X0181707Y0106910D01*
X0181823Y0105312D02*
X0180387Y0105312D01*
X0179742Y0103713D02*
X0182393Y0103713D01*
X0183589Y0102115D02*
X0178587Y0102115D01*
X0169586Y0102115D02*
X0164525Y0102115D01*
X0165721Y0103713D02*
X0168432Y0103713D01*
X0167787Y0105312D02*
X0166291Y0105312D01*
X0166407Y0106708D02*
X0166407Y0107004D01*
X0166257Y0107952D01*
X0165960Y0108865D01*
X0165524Y0109721D01*
X0164960Y0110498D01*
X0164281Y0111176D01*
X0163504Y0111741D01*
X0162649Y0112177D01*
X0161736Y0112473D01*
X0160787Y0112624D01*
X0160491Y0112624D01*
X0160491Y0106708D01*
X0166407Y0106708D01*
X0166407Y0106910D02*
X0167787Y0106910D01*
X0168090Y0108509D02*
X0166076Y0108509D01*
X0165243Y0110107D02*
X0168761Y0110107D01*
X0170359Y0111706D02*
X0163552Y0111706D01*
X0160491Y0111706D02*
X0160123Y0111706D01*
X0160123Y0110107D02*
X0160491Y0110107D01*
X0160491Y0108509D02*
X0160123Y0108509D01*
X0160123Y0106910D02*
X0160491Y0106910D01*
X0157062Y0111706D02*
X0150314Y0111706D01*
X0151913Y0110107D02*
X0155371Y0110107D01*
X0154538Y0108509D02*
X0152583Y0108509D01*
X0152887Y0106910D02*
X0154207Y0106910D01*
X0154323Y0105312D02*
X0152887Y0105312D01*
X0152242Y0103713D02*
X0154893Y0103713D01*
X0156089Y0102115D02*
X0151087Y0102115D01*
X0142086Y0102115D02*
X0137025Y0102115D01*
X0138221Y0103713D02*
X0140932Y0103713D01*
X0140287Y0105312D02*
X0138791Y0105312D01*
X0138907Y0106708D02*
X0138907Y0107004D01*
X0138757Y0107952D01*
X0138460Y0108865D01*
X0138024Y0109721D01*
X0137460Y0110498D01*
X0136781Y0111176D01*
X0136004Y0111741D01*
X0135149Y0112177D01*
X0134236Y0112473D01*
X0133287Y0112624D01*
X0132991Y0112624D01*
X0132991Y0106708D01*
X0138907Y0106708D01*
X0138907Y0106910D02*
X0140287Y0106910D01*
X0140590Y0108509D02*
X0138576Y0108509D01*
X0137743Y0110107D02*
X0141261Y0110107D01*
X0142859Y0111706D02*
X0136052Y0111706D01*
X0132991Y0111706D02*
X0132623Y0111706D01*
X0132623Y0110107D02*
X0132991Y0110107D01*
X0132991Y0108509D02*
X0132623Y0108509D01*
X0132623Y0106910D02*
X0132991Y0106910D01*
X0129562Y0111706D02*
X0114061Y0111706D01*
X0115053Y0110107D02*
X0127871Y0110107D01*
X0127038Y0108509D02*
X0115364Y0108509D01*
X0115364Y0106910D02*
X0126707Y0106910D01*
X0126823Y0105312D02*
X0115364Y0105312D01*
X0115364Y0103713D02*
X0127393Y0103713D01*
X0128589Y0102115D02*
X0115364Y0102115D01*
X0106939Y0111706D02*
X0104061Y0111706D01*
X0105053Y0110107D02*
X0105947Y0110107D01*
X0105636Y0108509D02*
X0105364Y0108509D01*
X0105364Y0106910D02*
X0105636Y0106910D01*
X0105636Y0105312D02*
X0105364Y0105312D01*
X0105364Y0103713D02*
X0105636Y0103713D01*
X0105636Y0102115D02*
X0105364Y0102115D01*
X0095636Y0102115D02*
X0095364Y0102115D01*
X0095364Y0103713D02*
X0095636Y0103713D01*
X0095636Y0105312D02*
X0095364Y0105312D01*
X0095364Y0106910D02*
X0095636Y0106910D01*
X0095636Y0108509D02*
X0095364Y0108509D01*
X0095053Y0110107D02*
X0095947Y0110107D01*
X0096939Y0111706D02*
X0094061Y0111706D01*
X0085636Y0106111D02*
X0085636Y0101692D01*
X0086078Y0100624D01*
X0084922Y0100624D01*
X0085364Y0101692D01*
X0085364Y0106383D01*
X0085636Y0106111D01*
X0085636Y0105312D02*
X0085364Y0105312D01*
X0085364Y0103713D02*
X0085636Y0103713D01*
X0085636Y0102115D02*
X0085364Y0102115D01*
X0078799Y0112948D02*
X0077745Y0112511D01*
X0077217Y0111984D01*
X0076873Y0112328D01*
X0061159Y0128042D01*
X0061592Y0128110D01*
X0062290Y0128337D01*
X0062945Y0128670D01*
X0063145Y0128816D01*
X0063296Y0128451D01*
X0064027Y0127719D01*
X0064027Y0127719D01*
X0078799Y0112948D01*
X0078442Y0113304D02*
X0075896Y0113304D01*
X0076844Y0114903D02*
X0074298Y0114903D01*
X0075245Y0116501D02*
X0072699Y0116501D01*
X0073647Y0118100D02*
X0071101Y0118100D01*
X0072048Y0119698D02*
X0069502Y0119698D01*
X0070450Y0121297D02*
X0067904Y0121297D01*
X0068851Y0122895D02*
X0066305Y0122895D01*
X0067253Y0124494D02*
X0064707Y0124494D01*
X0065654Y0126092D02*
X0063108Y0126092D01*
X0064056Y0127691D02*
X0061510Y0127691D01*
X0058951Y0122895D02*
X0057505Y0122895D01*
X0057353Y0124494D02*
X0055907Y0124494D01*
X0055754Y0126092D02*
X0054308Y0126092D01*
X0054156Y0127691D02*
X0052710Y0127691D01*
X0050151Y0122895D02*
X0029911Y0122895D01*
X0030200Y0123184D02*
X0030200Y0124924D01*
X0030200Y0126663D01*
X0027740Y0129124D01*
X0026000Y0129124D01*
X0024260Y0129124D01*
X0021800Y0126663D01*
X0021800Y0124924D01*
X0026000Y0124924D01*
X0026000Y0129124D01*
X0026000Y0124924D01*
X0026000Y0124924D01*
X0030200Y0124924D01*
X0026000Y0124924D01*
X0026000Y0124924D01*
X0026000Y0124924D01*
X0021800Y0124924D01*
X0021800Y0123184D01*
X0024260Y0120724D01*
X0026000Y0120724D01*
X0027740Y0120724D01*
X0030200Y0123184D01*
X0030200Y0124494D02*
X0048553Y0124494D01*
X0046954Y0126092D02*
X0030200Y0126092D01*
X0029172Y0127691D02*
X0045356Y0127691D01*
X0043757Y0129289D02*
X0043726Y0129289D01*
X0040655Y0129289D02*
X0040345Y0129289D01*
X0040345Y0130888D02*
X0040655Y0130888D01*
X0040655Y0132486D02*
X0040345Y0132486D01*
X0040345Y0134085D02*
X0040655Y0134085D01*
X0037274Y0129289D02*
X0019449Y0129289D01*
X0020252Y0130888D02*
X0036171Y0130888D01*
X0035836Y0132486D02*
X0015200Y0132486D01*
X0014800Y0132486D02*
X0007221Y0132486D01*
X0007221Y0130888D02*
X0009748Y0130888D01*
X0010551Y0129289D02*
X0007221Y0129289D01*
X0007221Y0127691D02*
X0012370Y0127691D01*
X0010508Y0126092D02*
X0007221Y0126092D01*
X0007221Y0124494D02*
X0009646Y0124494D01*
X0009300Y0122895D02*
X0007221Y0122895D01*
X0007221Y0121297D02*
X0009339Y0121297D01*
X0010001Y0119698D02*
X0007221Y0119698D01*
X0007221Y0118100D02*
X0011363Y0118100D01*
X0010917Y0116501D02*
X0007221Y0116501D01*
X0007221Y0114903D02*
X0009816Y0114903D01*
X0009300Y0113304D02*
X0007221Y0113304D01*
X0007221Y0111706D02*
X0009300Y0111706D01*
X0009831Y0110107D02*
X0007221Y0110107D01*
X0007221Y0108509D02*
X0010954Y0108509D01*
X0011326Y0106910D02*
X0007221Y0106910D01*
X0007221Y0105312D02*
X0009985Y0105312D01*
X0009323Y0103713D02*
X0007221Y0103713D01*
X0007221Y0102115D02*
X0009300Y0102115D01*
X0009662Y0100516D02*
X0007221Y0100516D01*
X0007221Y0098918D02*
X0010545Y0098918D01*
X0012670Y0097319D02*
X0007221Y0097319D01*
X0007221Y0095721D02*
X0077466Y0095721D01*
X0075728Y0097319D02*
X0017330Y0097319D01*
X0019455Y0098918D02*
X0037363Y0098918D01*
X0037745Y0098536D02*
X0039532Y0097795D01*
X0041468Y0097795D01*
X0043255Y0098536D01*
X0044624Y0099904D01*
X0045364Y0101692D01*
X0045364Y0109355D01*
X0044624Y0111143D01*
X0043255Y0112511D01*
X0041468Y0113252D01*
X0039532Y0113252D01*
X0037745Y0112511D01*
X0036376Y0111143D01*
X0035636Y0109355D01*
X0035636Y0101692D01*
X0036376Y0099904D01*
X0037745Y0098536D01*
X0036123Y0100516D02*
X0020338Y0100516D01*
X0020700Y0102115D02*
X0022586Y0102115D01*
X0021600Y0103101D02*
X0021600Y0106746D01*
X0024177Y0109324D01*
X0027823Y0109324D01*
X0030400Y0106746D01*
X0030400Y0103101D01*
X0027823Y0100524D01*
X0024177Y0100524D01*
X0021600Y0103101D01*
X0021600Y0103713D02*
X0020677Y0103713D01*
X0020015Y0105312D02*
X0021600Y0105312D01*
X0021764Y0106910D02*
X0018674Y0106910D01*
X0019046Y0108509D02*
X0023363Y0108509D01*
X0020169Y0110107D02*
X0035947Y0110107D01*
X0035636Y0108509D02*
X0028637Y0108509D01*
X0030236Y0106910D02*
X0035636Y0106910D01*
X0035636Y0105312D02*
X0030400Y0105312D01*
X0030400Y0103713D02*
X0035636Y0103713D01*
X0035636Y0102115D02*
X0029414Y0102115D01*
X0036939Y0111706D02*
X0020700Y0111706D01*
X0020700Y0113304D02*
X0057400Y0113304D01*
X0057400Y0114903D02*
X0020184Y0114903D01*
X0019083Y0116501D02*
X0056545Y0116501D01*
X0054947Y0118100D02*
X0018637Y0118100D01*
X0019999Y0119698D02*
X0053348Y0119698D01*
X0051750Y0121297D02*
X0028313Y0121297D01*
X0026000Y0121297D02*
X0026000Y0121297D01*
X0026000Y0120724D02*
X0026000Y0124923D01*
X0026000Y0124923D01*
X0026000Y0120724D01*
X0026000Y0122895D02*
X0026000Y0122895D01*
X0026000Y0124494D02*
X0026000Y0124494D01*
X0026000Y0126092D02*
X0026000Y0126092D01*
X0026000Y0127691D02*
X0026000Y0127691D01*
X0022828Y0127691D02*
X0017630Y0127691D01*
X0019492Y0126092D02*
X0021800Y0126092D01*
X0021800Y0124494D02*
X0020354Y0124494D01*
X0020700Y0122895D02*
X0022089Y0122895D01*
X0020661Y0121297D02*
X0023687Y0121297D01*
X0020276Y0134085D02*
X0035836Y0134085D01*
X0035836Y0135683D02*
X0019503Y0135683D01*
X0017776Y0137282D02*
X0035836Y0137282D01*
X0035856Y0138880D02*
X0019418Y0138880D01*
X0020323Y0140479D02*
X0036331Y0140479D01*
X0037643Y0142077D02*
X0020700Y0142077D01*
X0020692Y0143676D02*
X0038171Y0143676D01*
X0036572Y0145274D02*
X0020030Y0145274D01*
X0018712Y0146873D02*
X0034974Y0146873D01*
X0033375Y0148472D02*
X0019009Y0148472D01*
X0020153Y0150070D02*
X0024077Y0150070D01*
X0022478Y0151669D02*
X0020700Y0151669D01*
X0020700Y0153267D02*
X0020880Y0153267D01*
X0023438Y0158063D02*
X0026500Y0158063D01*
X0026500Y0158346D02*
X0026500Y0155001D01*
X0020527Y0160973D01*
X0020700Y0161390D01*
X0020700Y0163657D01*
X0019832Y0165752D01*
X0018229Y0167356D01*
X0017824Y0167524D01*
X0018229Y0167691D01*
X0019832Y0169295D01*
X0020700Y0171390D01*
X0020700Y0173657D01*
X0019832Y0175752D01*
X0018229Y0177356D01*
X0017824Y0177524D01*
X0018229Y0177691D01*
X0019832Y0179295D01*
X0020700Y0181390D01*
X0020700Y0183147D01*
X0043100Y0160747D01*
X0043100Y0160646D01*
X0042823Y0160924D01*
X0039177Y0160924D01*
X0036600Y0158346D01*
X0036600Y0154701D01*
X0039177Y0152124D01*
X0039623Y0152124D01*
X0048956Y0142790D01*
X0048710Y0142710D01*
X0048055Y0142377D01*
X0047461Y0141945D01*
X0047358Y0141842D01*
X0035804Y0153396D01*
X0035073Y0154128D01*
X0034828Y0154229D01*
X0035300Y0154701D01*
X0035300Y0158346D01*
X0032723Y0160924D01*
X0029077Y0160924D01*
X0026500Y0158346D01*
X0027815Y0159661D02*
X0021839Y0159661D01*
X0020646Y0161260D02*
X0042587Y0161260D01*
X0040989Y0162858D02*
X0020700Y0162858D01*
X0020369Y0164457D02*
X0039390Y0164457D01*
X0037792Y0166055D02*
X0019529Y0166055D01*
X0018138Y0167654D02*
X0036193Y0167654D01*
X0034595Y0169252D02*
X0019790Y0169252D01*
X0020477Y0170851D02*
X0032996Y0170851D01*
X0031397Y0172449D02*
X0020700Y0172449D01*
X0020538Y0174048D02*
X0029799Y0174048D01*
X0028200Y0175646D02*
X0019876Y0175646D01*
X0018340Y0177245D02*
X0026602Y0177245D01*
X0025003Y0178843D02*
X0019381Y0178843D01*
X0020307Y0180442D02*
X0023405Y0180442D01*
X0021806Y0182040D02*
X0020700Y0182040D01*
X0024365Y0186836D02*
X0062900Y0186836D01*
X0062900Y0188434D02*
X0022766Y0188434D01*
X0021168Y0190033D02*
X0062900Y0190033D01*
X0062900Y0191631D02*
X0020700Y0191631D01*
X0020700Y0193230D02*
X0028254Y0193230D01*
X0029160Y0192324D02*
X0026700Y0194784D01*
X0026700Y0196524D01*
X0030900Y0196524D01*
X0030900Y0200724D01*
X0029160Y0200724D01*
X0026700Y0198263D01*
X0026700Y0196524D01*
X0030900Y0196524D01*
X0030900Y0196524D01*
X0030900Y0200724D01*
X0032640Y0200724D01*
X0035100Y0198263D01*
X0035100Y0196524D01*
X0030900Y0196524D01*
X0030900Y0196524D01*
X0030900Y0196524D01*
X0035100Y0196524D01*
X0035100Y0194784D01*
X0032640Y0192324D01*
X0030900Y0192324D01*
X0030900Y0196523D01*
X0030900Y0196523D01*
X0030900Y0192324D01*
X0029160Y0192324D01*
X0030900Y0193230D02*
X0030900Y0193230D01*
X0030900Y0194828D02*
X0030900Y0194828D01*
X0030900Y0196427D02*
X0030900Y0196427D01*
X0030900Y0198025D02*
X0030900Y0198025D01*
X0030900Y0199624D02*
X0030900Y0199624D01*
X0029177Y0201124D02*
X0032823Y0201124D01*
X0035400Y0203701D01*
X0035400Y0207346D01*
X0032823Y0209924D01*
X0029177Y0209924D01*
X0026600Y0207346D01*
X0026600Y0203701D01*
X0029177Y0201124D01*
X0029079Y0201222D02*
X0007221Y0201222D01*
X0007221Y0199624D02*
X0028061Y0199624D01*
X0026700Y0198025D02*
X0016612Y0198025D01*
X0019158Y0196427D02*
X0026700Y0196427D01*
X0026700Y0194828D02*
X0020215Y0194828D01*
X0018358Y0202821D02*
X0027480Y0202821D01*
X0026600Y0204419D02*
X0019884Y0204419D01*
X0020546Y0206018D02*
X0026600Y0206018D01*
X0026870Y0207616D02*
X0020700Y0207616D01*
X0020469Y0209215D02*
X0028469Y0209215D01*
X0033531Y0209215D02*
X0038752Y0209215D01*
X0039260Y0209724D02*
X0036800Y0207263D01*
X0036800Y0205524D01*
X0041000Y0205524D01*
X0041000Y0209724D01*
X0039260Y0209724D01*
X0041000Y0209724D02*
X0041000Y0205524D01*
X0041000Y0205524D01*
X0045200Y0205524D01*
X0045200Y0207263D01*
X0042740Y0209724D01*
X0041000Y0209724D01*
X0041000Y0209215D02*
X0041000Y0209215D01*
X0041000Y0207616D02*
X0041000Y0207616D01*
X0041000Y0206018D02*
X0041000Y0206018D01*
X0041000Y0205524D02*
X0041000Y0205524D01*
X0041000Y0205524D01*
X0036800Y0205524D01*
X0036800Y0203784D01*
X0039260Y0201324D01*
X0041000Y0201324D01*
X0042740Y0201324D01*
X0045200Y0203784D01*
X0045200Y0205524D01*
X0041000Y0205524D01*
X0041000Y0205523D02*
X0041000Y0201324D01*
X0041000Y0205523D01*
X0041000Y0205523D01*
X0041000Y0204419D02*
X0041000Y0204419D01*
X0041000Y0202821D02*
X0041000Y0202821D01*
X0041000Y0200724D02*
X0039260Y0200724D01*
X0036800Y0198263D01*
X0036800Y0196524D01*
X0041000Y0196524D01*
X0041000Y0200724D01*
X0041000Y0196524D01*
X0041000Y0196524D01*
X0045200Y0196524D01*
X0045200Y0198263D01*
X0042740Y0200724D01*
X0041000Y0200724D01*
X0041000Y0199624D02*
X0041000Y0199624D01*
X0041000Y0198025D02*
X0041000Y0198025D01*
X0041000Y0196524D02*
X0041000Y0196524D01*
X0041000Y0196524D01*
X0036800Y0196524D01*
X0036800Y0194784D01*
X0039260Y0192324D01*
X0041000Y0192324D01*
X0042740Y0192324D01*
X0045200Y0194784D01*
X0045200Y0196524D01*
X0041000Y0196524D01*
X0041000Y0196523D02*
X0041000Y0192324D01*
X0041000Y0196523D01*
X0041000Y0196523D01*
X0041000Y0196427D02*
X0041000Y0196427D01*
X0041000Y0194828D02*
X0041000Y0194828D01*
X0041000Y0193230D02*
X0041000Y0193230D01*
X0038354Y0193230D02*
X0033546Y0193230D01*
X0035100Y0194828D02*
X0036800Y0194828D01*
X0036800Y0196427D02*
X0035100Y0196427D01*
X0035100Y0198025D02*
X0036800Y0198025D01*
X0038161Y0199624D02*
X0033739Y0199624D01*
X0032921Y0201222D02*
X0059079Y0201222D01*
X0059177Y0201124D02*
X0062823Y0201124D01*
X0065400Y0203701D01*
X0065400Y0207346D01*
X0062823Y0209924D01*
X0059177Y0209924D01*
X0056600Y0207346D01*
X0056600Y0203701D01*
X0059177Y0201124D01*
X0058161Y0199624D02*
X0054122Y0199624D01*
X0055400Y0198346D02*
X0052823Y0200924D01*
X0049177Y0200924D01*
X0046600Y0198346D01*
X0046600Y0194701D01*
X0049177Y0192124D01*
X0052823Y0192124D01*
X0055400Y0194701D01*
X0055400Y0198346D01*
X0055400Y0198025D02*
X0056800Y0198025D01*
X0056800Y0196427D02*
X0055400Y0196427D01*
X0055400Y0194828D02*
X0056800Y0194828D01*
X0058354Y0193230D02*
X0053929Y0193230D01*
X0048071Y0193230D02*
X0043646Y0193230D01*
X0045200Y0194828D02*
X0046600Y0194828D01*
X0046600Y0196427D02*
X0045200Y0196427D01*
X0045200Y0198025D02*
X0046600Y0198025D01*
X0047878Y0199624D02*
X0043839Y0199624D01*
X0044237Y0202821D02*
X0047763Y0202821D01*
X0046800Y0203784D02*
X0049260Y0201324D01*
X0051000Y0201324D01*
X0052740Y0201324D01*
X0055200Y0203784D01*
X0055200Y0205524D01*
X0055200Y0207263D01*
X0052740Y0209724D01*
X0051000Y0209724D01*
X0049260Y0209724D01*
X0046800Y0207263D01*
X0046800Y0205524D01*
X0051000Y0205524D01*
X0051000Y0209724D01*
X0051000Y0205524D01*
X0051000Y0205524D01*
X0055200Y0205524D01*
X0051000Y0205524D01*
X0051000Y0205524D01*
X0051000Y0205524D01*
X0046800Y0205524D01*
X0046800Y0203784D01*
X0046800Y0204419D02*
X0045200Y0204419D01*
X0045200Y0206018D02*
X0046800Y0206018D01*
X0047153Y0207616D02*
X0044847Y0207616D01*
X0043248Y0209215D02*
X0048752Y0209215D01*
X0051000Y0209215D02*
X0051000Y0209215D01*
X0051000Y0207616D02*
X0051000Y0207616D01*
X0051000Y0206018D02*
X0051000Y0206018D01*
X0051000Y0205523D02*
X0051000Y0201324D01*
X0051000Y0205523D01*
X0051000Y0205523D01*
X0051000Y0204419D02*
X0051000Y0204419D01*
X0051000Y0202821D02*
X0051000Y0202821D01*
X0054237Y0202821D02*
X0057480Y0202821D01*
X0056600Y0204419D02*
X0055200Y0204419D01*
X0055200Y0206018D02*
X0056600Y0206018D01*
X0056870Y0207616D02*
X0054847Y0207616D01*
X0053248Y0209215D02*
X0058469Y0209215D01*
X0060735Y0212412D02*
X0018093Y0212412D01*
X0019548Y0214010D02*
X0059136Y0214010D01*
X0057538Y0215609D02*
X0020377Y0215609D01*
X0020700Y0217208D02*
X0055939Y0217208D01*
X0054341Y0218806D02*
X0020638Y0218806D01*
X0019976Y0220405D02*
X0052742Y0220405D01*
X0051144Y0222003D02*
X0018582Y0222003D01*
X0019139Y0223602D02*
X0049545Y0223602D01*
X0047947Y0225200D02*
X0020207Y0225200D01*
X0020700Y0226799D02*
X0046348Y0226799D01*
X0044750Y0228397D02*
X0020700Y0228397D01*
X0020146Y0229996D02*
X0043151Y0229996D01*
X0041553Y0231594D02*
X0018991Y0231594D01*
X0018730Y0233193D02*
X0039954Y0233193D01*
X0038356Y0234791D02*
X0020038Y0234791D01*
X0020700Y0236390D02*
X0036757Y0236390D01*
X0035159Y0237988D02*
X0020700Y0237988D01*
X0020315Y0239587D02*
X0034300Y0239587D01*
X0034300Y0241185D02*
X0019399Y0241185D01*
X0018321Y0242784D02*
X0027800Y0242784D01*
X0026800Y0244382D02*
X0019868Y0244382D01*
X0020531Y0245981D02*
X0026800Y0245981D01*
X0027116Y0247579D02*
X0020700Y0247579D01*
X0020484Y0249178D02*
X0028714Y0249178D01*
X0027870Y0250776D02*
X0019808Y0250776D01*
X0018183Y0252375D02*
X0026272Y0252375D01*
X0025500Y0253973D02*
X0019511Y0253973D01*
X0020361Y0255572D02*
X0025500Y0255572D01*
X0025500Y0257170D02*
X0020700Y0257170D01*
X0020654Y0258769D02*
X0025500Y0258769D01*
X0025500Y0260367D02*
X0019992Y0260367D01*
X0018619Y0261966D02*
X0025500Y0261966D01*
X0026064Y0263564D02*
X0019102Y0263564D01*
X0020192Y0265163D02*
X0027662Y0265163D01*
X0029261Y0266761D02*
X0020700Y0266761D01*
X0020700Y0268360D02*
X0030859Y0268360D01*
X0032925Y0269958D02*
X0020161Y0269958D01*
X0010972Y0271557D02*
X0007221Y0271557D01*
X0007221Y0273155D02*
X0011307Y0273155D01*
X0009978Y0274754D02*
X0007221Y0274754D01*
X0007221Y0276352D02*
X0009315Y0276352D01*
X0009300Y0277951D02*
X0007221Y0277951D01*
X0007221Y0279549D02*
X0009669Y0279549D01*
X0010563Y0281148D02*
X0007221Y0281148D01*
X0007221Y0282746D02*
X0012714Y0282746D01*
X0009839Y0269958D02*
X0007221Y0269958D01*
X0007221Y0268360D02*
X0009300Y0268360D01*
X0009300Y0266761D02*
X0007221Y0266761D01*
X0007221Y0265163D02*
X0009808Y0265163D01*
X0010898Y0263564D02*
X0007221Y0263564D01*
X0007221Y0261966D02*
X0011381Y0261966D01*
X0010008Y0260367D02*
X0007221Y0260367D01*
X0007221Y0258769D02*
X0009346Y0258769D01*
X0009300Y0257170D02*
X0007221Y0257170D01*
X0007221Y0255572D02*
X0009639Y0255572D01*
X0010489Y0253973D02*
X0007221Y0253973D01*
X0007221Y0252375D02*
X0011817Y0252375D01*
X0010192Y0250776D02*
X0007221Y0250776D01*
X0007221Y0249178D02*
X0009516Y0249178D01*
X0009300Y0247579D02*
X0007221Y0247579D01*
X0007221Y0245981D02*
X0009469Y0245981D01*
X0010132Y0244382D02*
X0007221Y0244382D01*
X0007221Y0242784D02*
X0011679Y0242784D01*
X0010601Y0241185D02*
X0007221Y0241185D01*
X0007221Y0239587D02*
X0009685Y0239587D01*
X0009300Y0237988D02*
X0007221Y0237988D01*
X0007221Y0236390D02*
X0009300Y0236390D01*
X0009962Y0234791D02*
X0007221Y0234791D01*
X0007221Y0233193D02*
X0011270Y0233193D01*
X0011009Y0231594D02*
X0007221Y0231594D01*
X0007221Y0229996D02*
X0009854Y0229996D01*
X0009300Y0228397D02*
X0007221Y0228397D01*
X0007221Y0226799D02*
X0009300Y0226799D01*
X0009793Y0225200D02*
X0007221Y0225200D01*
X0007221Y0223602D02*
X0010861Y0223602D01*
X0011418Y0222003D02*
X0007221Y0222003D01*
X0007221Y0220405D02*
X0010024Y0220405D01*
X0009362Y0218806D02*
X0007221Y0218806D01*
X0007221Y0217208D02*
X0009300Y0217208D01*
X0009623Y0215609D02*
X0007221Y0215609D01*
X0007221Y0214010D02*
X0010452Y0214010D01*
X0011907Y0212412D02*
X0007221Y0212412D01*
X0007221Y0210813D02*
X0010229Y0210813D01*
X0009531Y0209215D02*
X0007221Y0209215D01*
X0007221Y0207616D02*
X0009300Y0207616D01*
X0009454Y0206018D02*
X0007221Y0206018D01*
X0007221Y0204419D02*
X0010116Y0204419D01*
X0011642Y0202821D02*
X0007221Y0202821D01*
X0007221Y0198025D02*
X0013388Y0198025D01*
X0010842Y0196427D02*
X0007221Y0196427D01*
X0007221Y0194828D02*
X0009785Y0194828D01*
X0009300Y0193230D02*
X0007221Y0193230D01*
X0007221Y0191631D02*
X0009300Y0191631D01*
X0009862Y0190033D02*
X0007221Y0190033D01*
X0007221Y0188434D02*
X0011028Y0188434D01*
X0011251Y0186836D02*
X0007221Y0186836D01*
X0007221Y0185237D02*
X0009954Y0185237D01*
X0009300Y0183639D02*
X0007221Y0183639D01*
X0007221Y0182040D02*
X0009300Y0182040D01*
X0009693Y0180442D02*
X0007221Y0180442D01*
X0007221Y0178843D02*
X0010619Y0178843D01*
X0011660Y0177245D02*
X0007221Y0177245D01*
X0007221Y0175646D02*
X0010124Y0175646D01*
X0009462Y0174048D02*
X0007221Y0174048D01*
X0007221Y0172449D02*
X0009300Y0172449D01*
X0009523Y0170851D02*
X0007221Y0170851D01*
X0007221Y0169252D02*
X0010210Y0169252D01*
X0011862Y0167654D02*
X0007221Y0167654D01*
X0007221Y0166055D02*
X0010470Y0166055D01*
X0009631Y0164457D02*
X0007221Y0164457D01*
X0007221Y0162858D02*
X0009300Y0162858D01*
X0009354Y0161260D02*
X0007221Y0161260D01*
X0007221Y0159661D02*
X0010016Y0159661D01*
X0011400Y0158063D02*
X0007221Y0158063D01*
X0007221Y0156464D02*
X0010879Y0156464D01*
X0009800Y0154866D02*
X0007221Y0154866D01*
X0007221Y0153267D02*
X0009300Y0153267D01*
X0009300Y0151669D02*
X0007221Y0151669D01*
X0007221Y0150070D02*
X0009847Y0150070D01*
X0010991Y0148472D02*
X0007221Y0148472D01*
X0007221Y0146873D02*
X0011288Y0146873D01*
X0009970Y0145274D02*
X0007221Y0145274D01*
X0007221Y0143676D02*
X0009308Y0143676D01*
X0009300Y0142077D02*
X0007221Y0142077D01*
X0007221Y0140479D02*
X0009677Y0140479D01*
X0010582Y0138880D02*
X0007221Y0138880D01*
X0007221Y0137282D02*
X0012224Y0137282D01*
X0010497Y0135683D02*
X0007221Y0135683D01*
X0007221Y0134085D02*
X0009724Y0134085D01*
X0025036Y0156464D02*
X0026500Y0156464D01*
X0033985Y0159661D02*
X0037915Y0159661D01*
X0036600Y0158063D02*
X0035300Y0158063D01*
X0035300Y0156464D02*
X0036600Y0156464D01*
X0036600Y0154866D02*
X0035300Y0154866D01*
X0035934Y0153267D02*
X0038034Y0153267D01*
X0037532Y0151669D02*
X0040078Y0151669D01*
X0039131Y0150070D02*
X0041677Y0150070D01*
X0040729Y0148472D02*
X0043275Y0148472D01*
X0042328Y0146873D02*
X0044874Y0146873D01*
X0043926Y0145274D02*
X0046472Y0145274D01*
X0045525Y0143676D02*
X0048071Y0143676D01*
X0047643Y0142077D02*
X0047123Y0142077D01*
X0050629Y0148472D02*
X0053175Y0148472D01*
X0052323Y0149324D02*
X0058881Y0142766D01*
X0058710Y0142710D01*
X0058055Y0142377D01*
X0057461Y0141945D01*
X0057308Y0141792D01*
X0057073Y0142028D01*
X0049777Y0149324D01*
X0052323Y0149324D01*
X0052228Y0146873D02*
X0054774Y0146873D01*
X0053826Y0145274D02*
X0056372Y0145274D01*
X0055425Y0143676D02*
X0057971Y0143676D01*
X0057643Y0142077D02*
X0057023Y0142077D01*
X0064431Y0150070D02*
X0079300Y0150070D01*
X0079300Y0148472D02*
X0066029Y0148472D01*
X0067628Y0146873D02*
X0079300Y0146873D01*
X0079430Y0145274D02*
X0073626Y0145274D01*
X0075225Y0143676D02*
X0080201Y0143676D01*
X0080345Y0142077D02*
X0080655Y0142077D01*
X0080655Y0140479D02*
X0080345Y0140479D01*
X0080345Y0138880D02*
X0080655Y0138880D01*
X0080655Y0137282D02*
X0080345Y0137282D01*
X0080345Y0135683D02*
X0080655Y0135683D01*
X0077643Y0142077D02*
X0076823Y0142077D01*
X0079300Y0151669D02*
X0062832Y0151669D01*
X0063966Y0153267D02*
X0068034Y0153267D01*
X0066600Y0154866D02*
X0065400Y0154866D01*
X0065400Y0156464D02*
X0066600Y0156464D01*
X0066600Y0158063D02*
X0065416Y0158063D01*
X0067014Y0159661D02*
X0067915Y0159661D01*
X0068613Y0161260D02*
X0077600Y0161260D01*
X0077600Y0162858D02*
X0070211Y0162858D01*
X0071810Y0164457D02*
X0077600Y0164457D01*
X0078809Y0166055D02*
X0073408Y0166055D01*
X0075007Y0167654D02*
X0084852Y0167654D01*
X0087939Y0169252D02*
X0076605Y0169252D01*
X0078204Y0170851D02*
X0091025Y0170851D01*
X0094112Y0172449D02*
X0079803Y0172449D01*
X0081401Y0174048D02*
X0097199Y0174048D01*
X0100286Y0175646D02*
X0083000Y0175646D01*
X0085698Y0177245D02*
X0103373Y0177245D01*
X0104600Y0178843D02*
X0087297Y0178843D01*
X0088895Y0180442D02*
X0105281Y0180442D01*
X0106880Y0182040D02*
X0090494Y0182040D01*
X0092092Y0183639D02*
X0154662Y0183639D01*
X0155177Y0183124D02*
X0158823Y0183124D01*
X0161400Y0185701D01*
X0161400Y0189346D01*
X0158823Y0191924D01*
X0155177Y0191924D01*
X0152600Y0189346D01*
X0152600Y0185701D01*
X0155177Y0183124D01*
X0153064Y0185237D02*
X0093288Y0185237D01*
X0094230Y0186836D02*
X0152600Y0186836D01*
X0152600Y0188434D02*
X0094500Y0188434D01*
X0094055Y0190033D02*
X0153287Y0190033D01*
X0154885Y0191631D02*
X0092242Y0191631D01*
X0089358Y0191631D02*
X0068100Y0191631D01*
X0068100Y0190033D02*
X0087545Y0190033D01*
X0087100Y0188434D02*
X0068100Y0188434D01*
X0068100Y0186836D02*
X0079872Y0186836D01*
X0082000Y0186836D02*
X0082000Y0186836D01*
X0082000Y0185237D02*
X0082000Y0185237D01*
X0082000Y0183639D02*
X0082000Y0183639D01*
X0084128Y0186836D02*
X0087370Y0186836D01*
X0086337Y0185237D02*
X0085726Y0185237D01*
X0078274Y0185237D02*
X0068100Y0185237D01*
X0068100Y0183639D02*
X0077800Y0183639D01*
X0077800Y0182040D02*
X0068100Y0182040D01*
X0068100Y0180442D02*
X0078642Y0180442D01*
X0078843Y0178843D02*
X0068100Y0178843D01*
X0068100Y0177245D02*
X0077244Y0177245D01*
X0075646Y0175646D02*
X0068100Y0175646D01*
X0068100Y0174048D02*
X0074047Y0174048D01*
X0072449Y0172449D02*
X0068100Y0172449D01*
X0068100Y0170851D02*
X0070850Y0170851D01*
X0069252Y0169252D02*
X0068100Y0169252D01*
X0062900Y0169252D02*
X0041948Y0169252D01*
X0040350Y0170851D02*
X0062900Y0170851D01*
X0062900Y0172449D02*
X0038751Y0172449D01*
X0037153Y0174048D02*
X0062900Y0174048D01*
X0062900Y0175646D02*
X0035554Y0175646D01*
X0033956Y0177245D02*
X0062900Y0177245D01*
X0062900Y0178843D02*
X0032357Y0178843D01*
X0030759Y0180442D02*
X0062900Y0180442D01*
X0062900Y0182040D02*
X0029160Y0182040D01*
X0027562Y0183639D02*
X0062900Y0183639D01*
X0062900Y0185237D02*
X0025963Y0185237D01*
X0034520Y0202821D02*
X0037763Y0202821D01*
X0036800Y0204419D02*
X0035400Y0204419D01*
X0035400Y0206018D02*
X0036800Y0206018D01*
X0037153Y0207616D02*
X0035130Y0207616D01*
X0019771Y0210813D02*
X0062333Y0210813D01*
X0063531Y0209215D02*
X0063932Y0209215D01*
X0065130Y0207616D02*
X0065530Y0207616D01*
X0065400Y0206018D02*
X0066600Y0206018D01*
X0066600Y0204419D02*
X0065400Y0204419D01*
X0064520Y0202821D02*
X0067480Y0202821D01*
X0066022Y0201222D02*
X0062921Y0201222D01*
X0063839Y0199624D02*
X0064423Y0199624D01*
X0061000Y0199624D02*
X0061000Y0199624D01*
X0061000Y0198025D02*
X0061000Y0198025D01*
X0061000Y0196524D02*
X0061000Y0196524D01*
X0061000Y0196427D02*
X0061000Y0196427D01*
X0061000Y0194828D02*
X0061000Y0194828D01*
X0061000Y0193230D02*
X0061000Y0193230D01*
X0068100Y0193230D02*
X0068354Y0193230D01*
X0071000Y0193230D02*
X0071000Y0193230D01*
X0071000Y0192324D02*
X0071000Y0196523D01*
X0071000Y0196523D01*
X0071000Y0192324D01*
X0071000Y0194828D02*
X0071000Y0194828D01*
X0071000Y0196427D02*
X0071000Y0196427D01*
X0062153Y0167654D02*
X0043547Y0167654D01*
X0045145Y0166055D02*
X0060555Y0166055D01*
X0058956Y0164457D02*
X0046744Y0164457D01*
X0048086Y0162858D02*
X0057358Y0162858D01*
X0055759Y0161260D02*
X0048300Y0161260D01*
X0054085Y0159661D02*
X0054357Y0159661D01*
X0073966Y0153267D02*
X0079469Y0153267D01*
X0085223Y0160024D02*
X0086400Y0161201D01*
X0086400Y0162149D01*
X0107046Y0172841D01*
X0107763Y0172124D01*
X0112237Y0172124D01*
X0115000Y0174887D01*
X0117763Y0172124D01*
X0122237Y0172124D01*
X0125000Y0174887D01*
X0127763Y0172124D01*
X0128223Y0172124D01*
X0116123Y0160024D01*
X0085223Y0160024D01*
X0086400Y0161260D02*
X0117359Y0161260D01*
X0118958Y0162858D02*
X0087769Y0162858D01*
X0090856Y0164457D02*
X0120556Y0164457D01*
X0122155Y0166055D02*
X0093943Y0166055D01*
X0097030Y0167654D02*
X0123753Y0167654D01*
X0125352Y0169252D02*
X0100116Y0169252D01*
X0103203Y0170851D02*
X0126950Y0170851D01*
X0127438Y0172449D02*
X0122562Y0172449D01*
X0124161Y0174048D02*
X0125839Y0174048D01*
X0125281Y0180442D02*
X0124719Y0180442D01*
X0123120Y0182040D02*
X0126880Y0182040D01*
X0133120Y0182040D02*
X0136880Y0182040D01*
X0135281Y0180442D02*
X0134719Y0180442D01*
X0133343Y0193230D02*
X0136940Y0193230D01*
X0135341Y0194828D02*
X0134941Y0194828D01*
X0142003Y0206018D02*
X0122883Y0206018D01*
X0124481Y0204419D02*
X0200116Y0204419D01*
X0200921Y0201222D02*
X0143655Y0201222D01*
X0145200Y0199624D02*
X0199899Y0199624D01*
X0199511Y0198025D02*
X0145200Y0198025D01*
X0145200Y0196427D02*
X0199605Y0196427D01*
X0200201Y0194828D02*
X0144659Y0194828D01*
X0137020Y0207616D02*
X0121284Y0207616D01*
X0119686Y0209215D02*
X0132036Y0209215D01*
X0135420Y0214010D02*
X0208100Y0214010D01*
X0208093Y0212412D02*
X0208100Y0212412D01*
X0208100Y0215609D02*
X0130437Y0215609D01*
X0126285Y0223602D02*
X0123715Y0223602D01*
X0125453Y0217208D02*
X0208100Y0217208D01*
X0203433Y0222003D02*
X0181056Y0222003D01*
X0182655Y0223602D02*
X0200861Y0223602D01*
X0199793Y0225200D02*
X0183600Y0225200D01*
X0183600Y0226799D02*
X0199300Y0226799D01*
X0199300Y0228397D02*
X0183600Y0228397D01*
X0183600Y0229996D02*
X0199854Y0229996D01*
X0201009Y0231594D02*
X0183600Y0231594D01*
X0183600Y0233193D02*
X0201270Y0233193D01*
X0199962Y0234791D02*
X0183600Y0234791D01*
X0183600Y0236390D02*
X0199300Y0236390D01*
X0199300Y0237988D02*
X0183600Y0237988D01*
X0183600Y0239587D02*
X0198560Y0239587D01*
X0196962Y0241185D02*
X0183600Y0241185D01*
X0183600Y0242784D02*
X0195363Y0242784D01*
X0193764Y0244382D02*
X0183600Y0244382D01*
X0183600Y0245981D02*
X0192166Y0245981D01*
X0190567Y0247579D02*
X0183600Y0247579D01*
X0183600Y0249178D02*
X0188969Y0249178D01*
X0187370Y0250776D02*
X0183600Y0250776D01*
X0184239Y0252375D02*
X0185772Y0252375D01*
X0190577Y0254924D02*
X0199907Y0254924D01*
X0200168Y0254295D01*
X0201771Y0252691D01*
X0202176Y0252524D01*
X0201771Y0252356D01*
X0200168Y0250752D01*
X0199300Y0248657D01*
X0199300Y0246390D01*
X0199434Y0246067D01*
X0190577Y0254924D01*
X0191527Y0253973D02*
X0200489Y0253973D01*
X0201817Y0252375D02*
X0193126Y0252375D01*
X0194724Y0250776D02*
X0200192Y0250776D01*
X0199516Y0249178D02*
X0196323Y0249178D01*
X0197921Y0247579D02*
X0199300Y0247579D01*
X0208183Y0252375D02*
X0212621Y0252375D01*
X0212621Y0253973D02*
X0209511Y0253973D01*
X0210361Y0255572D02*
X0212621Y0255572D01*
X0212621Y0257170D02*
X0210700Y0257170D01*
X0210654Y0258769D02*
X0212621Y0258769D01*
X0212621Y0260367D02*
X0209992Y0260367D01*
X0208619Y0261966D02*
X0212621Y0261966D01*
X0212621Y0263564D02*
X0209102Y0263564D01*
X0210192Y0265163D02*
X0212621Y0265163D01*
X0212621Y0266761D02*
X0210700Y0266761D01*
X0210700Y0268360D02*
X0212621Y0268360D01*
X0212621Y0269958D02*
X0210161Y0269958D01*
X0209028Y0271557D02*
X0212621Y0271557D01*
X0212621Y0273155D02*
X0208693Y0273155D01*
X0210022Y0274754D02*
X0212621Y0274754D01*
X0212621Y0276352D02*
X0210684Y0276352D01*
X0210700Y0277951D02*
X0212621Y0277951D01*
X0212621Y0279549D02*
X0210331Y0279549D01*
X0209437Y0281148D02*
X0212621Y0281148D01*
X0212621Y0282746D02*
X0207286Y0282746D01*
X0202714Y0282746D02*
X0177338Y0282746D01*
X0178937Y0281148D02*
X0200563Y0281148D01*
X0199669Y0279549D02*
X0179806Y0279549D01*
X0180468Y0277951D02*
X0199300Y0277951D01*
X0199315Y0276352D02*
X0180599Y0276352D01*
X0180599Y0274754D02*
X0199978Y0274754D01*
X0201307Y0273155D02*
X0180161Y0273155D01*
X0179499Y0271557D02*
X0200972Y0271557D01*
X0199839Y0269958D02*
X0178196Y0269958D01*
X0176210Y0268360D02*
X0199300Y0268360D01*
X0199300Y0266761D02*
X0182039Y0266761D01*
X0183638Y0265163D02*
X0199808Y0265163D01*
X0200898Y0263564D02*
X0185236Y0263564D01*
X0186835Y0261966D02*
X0201381Y0261966D01*
X0200008Y0260367D02*
X0188433Y0260367D01*
X0174140Y0284345D02*
X0212621Y0284345D01*
X0212621Y0250776D02*
X0209808Y0250776D01*
X0210484Y0249178D02*
X0212621Y0249178D01*
X0212621Y0247579D02*
X0210700Y0247579D01*
X0210531Y0245981D02*
X0212621Y0245981D01*
X0212621Y0244382D02*
X0209868Y0244382D01*
X0208321Y0242784D02*
X0212621Y0242784D01*
X0212621Y0241185D02*
X0209399Y0241185D01*
X0210315Y0239587D02*
X0212621Y0239587D01*
X0212621Y0237988D02*
X0210700Y0237988D01*
X0210700Y0236390D02*
X0212621Y0236390D01*
X0212621Y0234791D02*
X0210038Y0234791D01*
X0208730Y0233193D02*
X0212621Y0233193D01*
X0212621Y0231594D02*
X0208991Y0231594D01*
X0210146Y0229996D02*
X0212621Y0229996D01*
X0212621Y0228397D02*
X0210700Y0228397D01*
X0210700Y0226799D02*
X0212621Y0226799D01*
X0212621Y0225200D02*
X0210400Y0225200D01*
X0211999Y0223602D02*
X0212621Y0223602D01*
X0201907Y0212412D02*
X0140404Y0212412D01*
X0145387Y0210813D02*
X0200229Y0210813D01*
X0204800Y0196427D02*
X0205200Y0196427D01*
X0205200Y0194828D02*
X0204800Y0194828D01*
X0204800Y0193230D02*
X0205200Y0193230D01*
X0205200Y0191631D02*
X0204800Y0191631D01*
X0204800Y0190033D02*
X0205200Y0190033D01*
X0205200Y0188434D02*
X0204800Y0188434D01*
X0207302Y0192524D02*
X0207883Y0192820D01*
X0208100Y0192978D01*
X0208100Y0192070D01*
X0207883Y0192228D01*
X0207302Y0192524D01*
X0208100Y0182978D02*
X0208100Y0182409D01*
X0207536Y0182643D01*
X0207883Y0182820D01*
X0208100Y0182978D01*
X0208100Y0172638D02*
X0208100Y0172409D01*
X0207824Y0172524D01*
X0208100Y0172638D01*
X0208100Y0172449D02*
X0208003Y0172449D01*
X0208100Y0162638D02*
X0208100Y0162409D01*
X0207824Y0162524D01*
X0208100Y0162638D01*
X0208100Y0152638D02*
X0208100Y0152409D01*
X0207824Y0152524D01*
X0208100Y0152638D01*
X0199762Y0145274D02*
X0145105Y0145274D01*
X0143506Y0143676D02*
X0200787Y0143676D01*
X0201493Y0142077D02*
X0113357Y0142077D01*
X0113789Y0143676D02*
X0116211Y0143676D01*
X0114669Y0140479D02*
X0200055Y0140479D01*
X0199392Y0138880D02*
X0115144Y0138880D01*
X0115164Y0137282D02*
X0199300Y0137282D01*
X0199593Y0135683D02*
X0115164Y0135683D01*
X0115164Y0135369D02*
X0110655Y0135369D01*
X0110655Y0127995D01*
X0110867Y0127995D01*
X0111592Y0128110D01*
X0112290Y0128337D01*
X0112945Y0128670D01*
X0113538Y0129102D01*
X0114058Y0129621D01*
X0114489Y0130215D01*
X0114822Y0130869D01*
X0115049Y0131567D01*
X0115164Y0132292D01*
X0115164Y0135369D01*
X0115164Y0134085D02*
X0200378Y0134085D01*
X0202266Y0132486D02*
X0115164Y0132486D01*
X0114829Y0130888D02*
X0202487Y0130888D01*
X0200889Y0129289D02*
X0113726Y0129289D01*
X0110655Y0129289D02*
X0110345Y0129289D01*
X0110345Y0130888D02*
X0110655Y0130888D01*
X0110655Y0132486D02*
X0110345Y0132486D01*
X0110345Y0134085D02*
X0110655Y0134085D01*
X0107274Y0129289D02*
X0103726Y0129289D01*
X0103538Y0129102D02*
X0104058Y0129621D01*
X0104489Y0130215D01*
X0104822Y0130869D01*
X0105049Y0131567D01*
X0105164Y0132292D01*
X0105164Y0135369D01*
X0100655Y0135369D01*
X0100655Y0127995D01*
X0100867Y0127995D01*
X0101592Y0128110D01*
X0102290Y0128337D01*
X0102945Y0128670D01*
X0103538Y0129102D01*
X0104829Y0130888D02*
X0106171Y0130888D01*
X0105836Y0132486D02*
X0105164Y0132486D01*
X0105164Y0134085D02*
X0105836Y0134085D01*
X0105836Y0135683D02*
X0105164Y0135683D01*
X0105164Y0137282D02*
X0105836Y0137282D01*
X0105856Y0138880D02*
X0105144Y0138880D01*
X0104669Y0140479D02*
X0106331Y0140479D01*
X0107643Y0142077D02*
X0103357Y0142077D01*
X0100655Y0142077D02*
X0100345Y0142077D01*
X0100345Y0140479D02*
X0100655Y0140479D01*
X0100655Y0138880D02*
X0100345Y0138880D01*
X0100345Y0137282D02*
X0100655Y0137282D01*
X0100655Y0135683D02*
X0100345Y0135683D01*
X0100345Y0134085D02*
X0100655Y0134085D01*
X0100655Y0132486D02*
X0100345Y0132486D01*
X0100345Y0130888D02*
X0100655Y0130888D01*
X0100655Y0129289D02*
X0100345Y0129289D01*
X0088700Y0148001D02*
X0088700Y0152859D01*
X0087984Y0154586D01*
X0087747Y0154824D01*
X0090253Y0154824D01*
X0090016Y0154586D01*
X0089300Y0152859D01*
X0089300Y0148601D01*
X0088700Y0148001D01*
X0088700Y0148472D02*
X0089171Y0148472D01*
X0089300Y0150070D02*
X0088700Y0150070D01*
X0088700Y0151669D02*
X0089300Y0151669D01*
X0089469Y0153267D02*
X0088531Y0153267D01*
X0082000Y0163024D02*
X0110000Y0177524D01*
X0114161Y0174048D02*
X0115839Y0174048D01*
X0117438Y0172449D02*
X0112562Y0172449D01*
X0107438Y0172449D02*
X0106290Y0172449D01*
X0114719Y0180442D02*
X0115281Y0180442D01*
X0116880Y0182040D02*
X0113120Y0182040D01*
X0123343Y0193230D02*
X0126657Y0193230D01*
X0125059Y0194828D02*
X0124941Y0194828D01*
X0126080Y0202821D02*
X0127661Y0202821D01*
X0145037Y0224924D02*
X0145400Y0225287D01*
X0145400Y0225647D01*
X0145427Y0225619D01*
X0146383Y0225224D01*
X0153077Y0225224D01*
X0153377Y0224924D01*
X0145037Y0224924D01*
X0145313Y0225200D02*
X0153101Y0225200D01*
X0153677Y0230424D02*
X0147977Y0230424D01*
X0131377Y0247024D01*
X0131723Y0247024D01*
X0136627Y0242119D01*
X0137583Y0241724D01*
X0145823Y0241724D01*
X0155623Y0231924D01*
X0155177Y0231924D01*
X0153677Y0230424D01*
X0154848Y0231594D02*
X0146806Y0231594D01*
X0145208Y0233193D02*
X0154354Y0233193D01*
X0152756Y0234791D02*
X0143609Y0234791D01*
X0142011Y0236390D02*
X0151157Y0236390D01*
X0149559Y0237988D02*
X0140412Y0237988D01*
X0138814Y0239587D02*
X0147960Y0239587D01*
X0146361Y0241185D02*
X0137215Y0241185D01*
X0135963Y0242784D02*
X0135617Y0242784D01*
X0134364Y0244382D02*
X0134018Y0244382D01*
X0132766Y0245981D02*
X0132420Y0245981D01*
X0139077Y0247024D02*
X0141623Y0247024D01*
X0141723Y0246924D01*
X0139177Y0246924D01*
X0139077Y0247024D01*
X0135000Y0255302D02*
X0132278Y0258024D01*
X0127722Y0258024D01*
X0125000Y0255302D01*
X0122278Y0258024D01*
X0117722Y0258024D01*
X0115000Y0255302D01*
X0112278Y0258024D01*
X0108277Y0258024D01*
X0105877Y0260424D01*
X0153823Y0260424D01*
X0151423Y0258024D01*
X0147722Y0258024D01*
X0145000Y0255302D01*
X0142278Y0258024D01*
X0137722Y0258024D01*
X0135000Y0255302D01*
X0134730Y0255572D02*
X0135270Y0255572D01*
X0136869Y0257170D02*
X0133131Y0257170D01*
X0126869Y0257170D02*
X0123131Y0257170D01*
X0124730Y0255572D02*
X0125270Y0255572D01*
X0123467Y0247579D02*
X0122834Y0247579D01*
X0117166Y0247579D02*
X0112834Y0247579D01*
X0114432Y0249178D02*
X0115568Y0249178D01*
X0115270Y0255572D02*
X0114730Y0255572D01*
X0113131Y0257170D02*
X0116869Y0257170D01*
X0107532Y0258769D02*
X0152168Y0258769D01*
X0153767Y0260367D02*
X0105933Y0260367D01*
X0095722Y0256024D02*
X0095000Y0255302D01*
X0094278Y0256024D01*
X0095722Y0256024D01*
X0095270Y0255572D02*
X0094730Y0255572D01*
X0094432Y0249178D02*
X0095568Y0249178D01*
X0097166Y0247579D02*
X0092834Y0247579D01*
X0087166Y0247579D02*
X0082551Y0247579D01*
X0084149Y0249178D02*
X0085568Y0249178D01*
X0084859Y0255160D02*
X0083995Y0256024D01*
X0085722Y0256024D01*
X0084859Y0255160D01*
X0085270Y0255572D02*
X0084447Y0255572D01*
X0080200Y0250776D02*
X0079800Y0250776D01*
X0079800Y0249178D02*
X0080200Y0249178D01*
X0080200Y0247579D02*
X0079800Y0247579D01*
X0077449Y0247579D02*
X0075167Y0247579D01*
X0075851Y0249178D02*
X0073568Y0249178D01*
X0073430Y0250776D02*
X0074700Y0250776D01*
X0059373Y0253973D02*
X0050727Y0253973D01*
X0052313Y0252375D02*
X0057774Y0252375D01*
X0056176Y0250776D02*
X0052700Y0250776D01*
X0053568Y0249178D02*
X0054577Y0249178D01*
X0053000Y0256324D02*
X0053000Y0260523D01*
X0053000Y0260523D01*
X0053000Y0256324D01*
X0053000Y0257170D02*
X0053000Y0257170D01*
X0053000Y0258769D02*
X0053000Y0258769D01*
X0053000Y0260367D02*
X0053000Y0260367D01*
X0038432Y0249178D02*
X0036823Y0249178D01*
X0034300Y0242784D02*
X0034200Y0242784D01*
X0031000Y0242784D02*
X0031000Y0242784D01*
X0031000Y0244382D02*
X0031000Y0244382D01*
X0113492Y0151669D02*
X0116508Y0151669D01*
X0117818Y0154866D02*
X0171119Y0154866D01*
X0172718Y0156464D02*
X0119917Y0156464D01*
X0123492Y0151669D02*
X0126791Y0151669D01*
X0125193Y0150070D02*
X0125090Y0150070D01*
X0130000Y0150070D02*
X0130000Y0150070D01*
X0130000Y0148472D02*
X0130000Y0148472D01*
X0130000Y0147524D02*
X0130000Y0152724D01*
X0130000Y0147524D01*
X0130000Y0147524D01*
X0140000Y0147524D01*
X0140000Y0147524D01*
X0140000Y0147524D01*
X0134800Y0147524D01*
X0130000Y0147524D01*
X0130000Y0147524D01*
X0130000Y0147523D02*
X0130000Y0142324D01*
X0130000Y0147523D01*
X0130000Y0147523D01*
X0130000Y0146873D02*
X0130000Y0146873D01*
X0130000Y0145274D02*
X0130000Y0145274D01*
X0130000Y0143676D02*
X0130000Y0143676D01*
X0126494Y0143676D02*
X0123789Y0143676D01*
X0130000Y0151669D02*
X0130000Y0151669D01*
X0133209Y0151669D02*
X0136791Y0151669D01*
X0135193Y0150070D02*
X0134807Y0150070D01*
X0140000Y0150070D02*
X0140000Y0150070D01*
X0140000Y0148472D02*
X0140000Y0148472D01*
X0140000Y0147523D02*
X0140000Y0142324D01*
X0140000Y0147523D01*
X0140000Y0147523D01*
X0140000Y0146873D02*
X0140000Y0146873D01*
X0140000Y0145274D02*
X0140000Y0145274D01*
X0140000Y0143676D02*
X0140000Y0143676D01*
X0136494Y0143676D02*
X0133506Y0143676D01*
X0140000Y0151669D02*
X0140000Y0151669D01*
X0159338Y0183639D02*
X0164662Y0183639D01*
X0165177Y0183124D02*
X0162600Y0185701D01*
X0162600Y0189346D01*
X0165177Y0191924D01*
X0168823Y0191924D01*
X0171400Y0189346D01*
X0171400Y0185701D01*
X0168823Y0183124D01*
X0165177Y0183124D01*
X0163064Y0185237D02*
X0160936Y0185237D01*
X0161400Y0186836D02*
X0162600Y0186836D01*
X0162600Y0188434D02*
X0161400Y0188434D01*
X0160713Y0190033D02*
X0163287Y0190033D01*
X0164885Y0191631D02*
X0159115Y0191631D01*
X0169115Y0191631D02*
X0174885Y0191631D01*
X0173287Y0190033D02*
X0170713Y0190033D01*
X0171400Y0188434D02*
X0172600Y0188434D01*
X0172600Y0186836D02*
X0171400Y0186836D01*
X0170936Y0185237D02*
X0173064Y0185237D01*
X0174662Y0183639D02*
X0169338Y0183639D01*
X0163377Y0224924D02*
X0160623Y0224924D01*
X0161400Y0225701D01*
X0161400Y0226147D01*
X0161927Y0225619D01*
X0162883Y0225224D01*
X0163077Y0225224D01*
X0163377Y0224924D01*
X0163101Y0225200D02*
X0160899Y0225200D01*
X0164077Y0230823D02*
X0150977Y0243924D01*
X0153523Y0243924D01*
X0165523Y0231924D01*
X0165177Y0231924D01*
X0164077Y0230823D01*
X0163306Y0231594D02*
X0164848Y0231594D01*
X0164254Y0233193D02*
X0161708Y0233193D01*
X0162656Y0234791D02*
X0160109Y0234791D01*
X0161057Y0236390D02*
X0158511Y0236390D01*
X0159459Y0237988D02*
X0156912Y0237988D01*
X0157860Y0239587D02*
X0155314Y0239587D01*
X0156261Y0241185D02*
X0153715Y0241185D01*
X0154663Y0242784D02*
X0152117Y0242784D01*
X0145270Y0255572D02*
X0144730Y0255572D01*
X0143131Y0257170D02*
X0146869Y0257170D01*
X0207824Y0142524D02*
X0208100Y0142409D01*
X0208100Y0142638D01*
X0207824Y0142524D01*
X0211440Y0132486D02*
X0212621Y0132486D01*
X0212621Y0130888D02*
X0209841Y0130888D01*
X0208243Y0129289D02*
X0212621Y0129289D01*
X0212621Y0127691D02*
X0206644Y0127691D01*
X0205046Y0126092D02*
X0212621Y0126092D01*
X0212621Y0124494D02*
X0203447Y0124494D01*
X0201849Y0122895D02*
X0212621Y0122895D01*
X0212621Y0121297D02*
X0200250Y0121297D01*
X0198652Y0119698D02*
X0212621Y0119698D01*
X0212621Y0118100D02*
X0197900Y0118100D01*
X0197900Y0116501D02*
X0212621Y0116501D01*
X0212621Y0114903D02*
X0197900Y0114903D01*
X0197900Y0113304D02*
X0212621Y0113304D01*
X0212621Y0111706D02*
X0205314Y0111706D01*
X0206913Y0110107D02*
X0212621Y0110107D01*
X0212621Y0108509D02*
X0207583Y0108509D01*
X0207887Y0106910D02*
X0212621Y0106910D01*
X0212621Y0105312D02*
X0207887Y0105312D01*
X0207242Y0103713D02*
X0212621Y0103713D01*
X0212621Y0102115D02*
X0206087Y0102115D01*
X0203546Y0100516D02*
X0212621Y0100516D01*
X0212621Y0098918D02*
X0193271Y0098918D01*
X0194870Y0100516D02*
X0199627Y0100516D01*
X0197086Y0102115D02*
X0196468Y0102115D01*
X0191672Y0097319D02*
X0212621Y0097319D01*
X0212621Y0095721D02*
X0189934Y0095721D01*
X0193013Y0121297D02*
X0077804Y0121297D01*
X0076205Y0122895D02*
X0194495Y0122895D01*
X0196093Y0124494D02*
X0074607Y0124494D01*
X0073008Y0126092D02*
X0076654Y0126092D01*
X0075056Y0127691D02*
X0071410Y0127691D01*
X0063747Y0118100D02*
X0062244Y0118100D01*
X0062148Y0119698D02*
X0060702Y0119698D01*
X0060550Y0121297D02*
X0059104Y0121297D01*
X0062600Y0116501D02*
X0065345Y0116501D01*
X0066944Y0114903D02*
X0062600Y0114903D01*
X0062600Y0113304D02*
X0068542Y0113304D01*
X0066939Y0111706D02*
X0064061Y0111706D01*
X0065053Y0110107D02*
X0065947Y0110107D01*
X0065636Y0108509D02*
X0065364Y0108509D01*
X0065364Y0106910D02*
X0065636Y0106910D01*
X0065636Y0105312D02*
X0065364Y0105312D01*
X0065364Y0103713D02*
X0065636Y0103713D01*
X0065636Y0102115D02*
X0065364Y0102115D01*
X0064877Y0100516D02*
X0066123Y0100516D01*
X0067363Y0098918D02*
X0063637Y0098918D01*
X0057363Y0098918D02*
X0053637Y0098918D01*
X0053255Y0098536D02*
X0051468Y0097795D01*
X0049532Y0097795D01*
X0047745Y0098536D01*
X0046376Y0099904D01*
X0045636Y0101692D01*
X0045636Y0109355D01*
X0046376Y0111143D01*
X0047745Y0112511D01*
X0049532Y0113252D01*
X0051468Y0113252D01*
X0053255Y0112511D01*
X0054624Y0111143D01*
X0055364Y0109355D01*
X0055364Y0101692D01*
X0054624Y0099904D01*
X0053255Y0098536D01*
X0054877Y0100516D02*
X0056123Y0100516D01*
X0055636Y0102115D02*
X0055364Y0102115D01*
X0055364Y0103713D02*
X0055636Y0103713D01*
X0055636Y0105312D02*
X0055364Y0105312D01*
X0055364Y0106910D02*
X0055636Y0106910D01*
X0055636Y0108509D02*
X0055364Y0108509D01*
X0055053Y0110107D02*
X0055947Y0110107D01*
X0056939Y0111706D02*
X0054061Y0111706D01*
X0046939Y0111706D02*
X0044061Y0111706D01*
X0045053Y0110107D02*
X0045947Y0110107D01*
X0045636Y0108509D02*
X0045364Y0108509D01*
X0045364Y0106910D02*
X0045636Y0106910D01*
X0045636Y0105312D02*
X0045364Y0105312D01*
X0045364Y0103713D02*
X0045636Y0103713D01*
X0045636Y0102115D02*
X0045364Y0102115D01*
X0044877Y0100516D02*
X0046123Y0100516D01*
X0047363Y0098918D02*
X0043637Y0098918D01*
X0073637Y0098918D02*
X0074129Y0098918D01*
D21*
X0090800Y0188224D03*
X0036900Y0264124D03*
X0170000Y0259724D03*
X0181000Y0254224D03*
M02*
