G75*
%MOIN*%
%OFA0B0*%
%FSLAX25Y25*%
%IPPOS*%
%LPD*%
%AMOC8*
5,1,8,0,0,1.08239X$1,22.5*
%
%ADD10OC8,0.06800*%
%ADD11OC8,0.04800*%
%ADD12C,0.05728*%
%ADD13C,0.04800*%
%ADD14OC8,0.07000*%
%ADD15C,0.07400*%
%ADD16C,0.08600*%
%ADD17C,0.05400*%
%ADD18C,0.03200*%
%ADD19C,0.01200*%
%ADD20C,0.03762*%
%ADD21C,0.01600*%
%ADD22R,0.03762X0.03762*%
%ADD23C,0.03800*%
D10*
X0110000Y0147524D03*
X0120000Y0147524D03*
X0130000Y0147524D03*
X0140000Y0147524D03*
X0140000Y0177524D03*
X0130000Y0177524D03*
X0120000Y0177524D03*
X0110000Y0177524D03*
X0110000Y0197524D03*
X0120000Y0197524D03*
X0130000Y0197524D03*
X0140000Y0197524D03*
X0140000Y0227524D03*
X0130000Y0227524D03*
X0120000Y0227524D03*
X0110000Y0227524D03*
D11*
X0082000Y0183024D03*
X0071000Y0196524D03*
X0071000Y0205524D03*
X0061000Y0205524D03*
X0061000Y0196524D03*
X0051000Y0196524D03*
X0051000Y0205524D03*
X0041000Y0205524D03*
X0041000Y0196524D03*
X0030900Y0196524D03*
X0031000Y0205524D03*
X0031000Y0245524D03*
X0041000Y0245524D03*
X0051000Y0245524D03*
X0061000Y0245524D03*
X0071000Y0245524D03*
X0053000Y0260524D03*
X0082000Y0163024D03*
X0071000Y0156524D03*
X0061000Y0156524D03*
X0051000Y0156524D03*
X0041000Y0156524D03*
X0030900Y0156524D03*
X0026000Y0124924D03*
X0026000Y0104924D03*
X0157000Y0187524D03*
X0167000Y0187524D03*
X0177000Y0187524D03*
X0175000Y0172524D03*
X0175000Y0152524D03*
X0177000Y0227524D03*
X0167000Y0227524D03*
X0157000Y0227524D03*
D12*
X0110500Y0138388D02*
X0110500Y0132659D01*
X0100500Y0132659D02*
X0100500Y0138388D01*
X0090500Y0138388D02*
X0090500Y0132659D01*
X0080500Y0132659D02*
X0080500Y0138388D01*
X0070500Y0138388D02*
X0070500Y0132659D01*
X0060500Y0132659D02*
X0060500Y0138388D01*
X0050500Y0138388D02*
X0050500Y0132659D01*
X0040500Y0132659D02*
X0040500Y0138388D01*
X0040500Y0108388D02*
X0040500Y0102659D01*
X0050500Y0102659D02*
X0050500Y0108388D01*
X0060500Y0108388D02*
X0060500Y0102659D01*
X0070500Y0102659D02*
X0070500Y0108388D01*
X0080500Y0108388D02*
X0080500Y0102659D01*
X0090500Y0102659D02*
X0090500Y0108388D01*
X0100500Y0108388D02*
X0100500Y0102659D01*
X0110500Y0102659D02*
X0110500Y0108388D01*
D13*
X0033000Y0260524D03*
D14*
X0080000Y0252524D03*
X0090000Y0252524D03*
X0100000Y0252524D03*
X0110000Y0252524D03*
X0120000Y0252524D03*
X0130000Y0252524D03*
X0140000Y0252524D03*
X0150000Y0252524D03*
D15*
X0205000Y0257524D03*
X0205000Y0267524D03*
X0205000Y0277524D03*
X0205000Y0247524D03*
X0205000Y0237524D03*
X0205000Y0227524D03*
X0205000Y0207524D03*
X0205000Y0197524D03*
X0205000Y0187524D03*
X0205000Y0177524D03*
X0205000Y0167524D03*
X0205000Y0157524D03*
X0205000Y0147524D03*
X0205000Y0137524D03*
X0015000Y0142524D03*
X0015000Y0132524D03*
X0015000Y0122524D03*
X0015000Y0112524D03*
X0015000Y0102524D03*
X0015000Y0152524D03*
X0015000Y0162524D03*
X0015000Y0172524D03*
X0015000Y0182524D03*
X0015000Y0192524D03*
X0015000Y0207524D03*
X0015000Y0217524D03*
X0015000Y0227524D03*
X0015000Y0237524D03*
X0015000Y0247524D03*
X0015000Y0257524D03*
X0015000Y0267524D03*
X0015000Y0277524D03*
D16*
X0132807Y0106524D03*
X0146587Y0106524D03*
X0160307Y0106524D03*
X0174087Y0106524D03*
X0187807Y0106524D03*
X0201587Y0106524D03*
D17*
X0094700Y0144424D02*
X0094700Y0149824D01*
X0084700Y0149824D02*
X0084700Y0144424D01*
D18*
X0130000Y0147524D02*
X0140000Y0147524D01*
X0165000Y0172524D01*
X0175000Y0172524D01*
X0159000Y0172524D01*
X0147000Y0184524D01*
X0147000Y0190524D01*
X0140000Y0197524D01*
X0147000Y0206524D01*
X0147000Y0242524D01*
X0083000Y0242524D01*
X0080000Y0245524D01*
X0080000Y0252524D01*
X0130300Y0166724D02*
X0150600Y0166724D01*
X0175000Y0172524D02*
X0189000Y0186524D01*
X0189000Y0196524D01*
X0190000Y0197524D01*
X0205000Y0197524D01*
X0205000Y0187524D02*
X0190000Y0187524D01*
X0189000Y0186524D01*
D19*
X0007200Y0094724D02*
X0007200Y0285024D01*
X0212721Y0285024D01*
X0212721Y0094724D01*
X0007200Y0094724D01*
X0007200Y0094921D02*
X0212721Y0094921D01*
X0212721Y0096119D02*
X0167655Y0096119D01*
X0167186Y0095650D02*
X0166157Y0095224D01*
X0086943Y0095224D01*
X0085914Y0095650D01*
X0085126Y0096438D01*
X0083248Y0098316D01*
X0081507Y0097595D01*
X0079493Y0097595D01*
X0077631Y0098366D01*
X0076207Y0099791D01*
X0075500Y0101497D01*
X0074793Y0099791D01*
X0073369Y0098366D01*
X0071507Y0097595D01*
X0069493Y0097595D01*
X0067631Y0098366D01*
X0066207Y0099791D01*
X0065500Y0101497D01*
X0064793Y0099791D01*
X0063369Y0098366D01*
X0061507Y0097595D01*
X0059493Y0097595D01*
X0057631Y0098366D01*
X0056207Y0099791D01*
X0055500Y0101497D01*
X0054793Y0099791D01*
X0053369Y0098366D01*
X0051507Y0097595D01*
X0049493Y0097595D01*
X0047631Y0098366D01*
X0046207Y0099791D01*
X0045500Y0101497D01*
X0044793Y0099791D01*
X0043369Y0098366D01*
X0041507Y0097595D01*
X0039493Y0097595D01*
X0037631Y0098366D01*
X0036207Y0099791D01*
X0035436Y0101652D01*
X0035436Y0109395D01*
X0036207Y0111256D01*
X0037631Y0112681D01*
X0039493Y0113452D01*
X0041507Y0113452D01*
X0043369Y0112681D01*
X0044793Y0111256D01*
X0045500Y0109550D01*
X0046207Y0111256D01*
X0047631Y0112681D01*
X0049493Y0113452D01*
X0051507Y0113452D01*
X0053369Y0112681D01*
X0054793Y0111256D01*
X0055500Y0109550D01*
X0056207Y0111256D01*
X0057631Y0112681D01*
X0058587Y0113077D01*
X0043326Y0128338D01*
X0043053Y0128997D01*
X0042840Y0128841D01*
X0042214Y0128522D01*
X0041545Y0128305D01*
X0040855Y0128196D01*
X0040855Y0135169D01*
X0040145Y0135169D01*
X0036036Y0135169D01*
X0036036Y0132308D01*
X0036146Y0131614D01*
X0036363Y0130946D01*
X0036682Y0130320D01*
X0037095Y0129751D01*
X0037592Y0129254D01*
X0038160Y0128841D01*
X0038786Y0128522D01*
X0039455Y0128305D01*
X0040145Y0128196D01*
X0040145Y0135169D01*
X0040145Y0135878D01*
X0036036Y0135878D01*
X0036036Y0138739D01*
X0036146Y0139433D01*
X0036363Y0140101D01*
X0036682Y0140728D01*
X0036752Y0140824D01*
X0024743Y0140824D01*
X0023714Y0141250D01*
X0022926Y0142038D01*
X0022500Y0143067D01*
X0022500Y0154936D01*
X0018916Y0158007D01*
X0018854Y0158033D01*
X0018344Y0157524D01*
X0020002Y0155866D01*
X0020900Y0153697D01*
X0020900Y0151350D01*
X0020002Y0149182D01*
X0018344Y0147524D01*
X0020002Y0145866D01*
X0020900Y0143697D01*
X0020900Y0141350D01*
X0020002Y0139182D01*
X0018342Y0137522D01*
X0017527Y0137184D01*
X0017778Y0137057D01*
X0018453Y0136566D01*
X0019043Y0135976D01*
X0019533Y0135301D01*
X0019912Y0134558D01*
X0020169Y0133765D01*
X0020300Y0132941D01*
X0020300Y0132924D01*
X0015400Y0132924D01*
X0015400Y0132124D01*
X0020300Y0132124D01*
X0020300Y0132106D01*
X0020169Y0131283D01*
X0019912Y0130489D01*
X0019533Y0129746D01*
X0019043Y0129071D01*
X0018453Y0128481D01*
X0017778Y0127991D01*
X0017527Y0127863D01*
X0018342Y0127525D01*
X0020002Y0125866D01*
X0020900Y0123697D01*
X0020900Y0121350D01*
X0020675Y0120808D01*
X0028374Y0113110D01*
X0028800Y0112081D01*
X0028800Y0108629D01*
X0030600Y0106829D01*
X0030600Y0103018D01*
X0027905Y0100324D01*
X0024095Y0100324D01*
X0021400Y0103018D01*
X0021400Y0106829D01*
X0023200Y0108629D01*
X0023200Y0110364D01*
X0020900Y0112664D01*
X0020900Y0111350D01*
X0020002Y0109182D01*
X0018344Y0107524D01*
X0020002Y0105866D01*
X0020900Y0103697D01*
X0020900Y0101350D01*
X0020002Y0099182D01*
X0018342Y0097522D01*
X0016174Y0096624D01*
X0013826Y0096624D01*
X0011658Y0097522D01*
X0009998Y0099182D01*
X0009100Y0101350D01*
X0009100Y0103697D01*
X0009998Y0105866D01*
X0011656Y0107524D01*
X0009998Y0109182D01*
X0009100Y0111350D01*
X0009100Y0113697D01*
X0009998Y0115866D01*
X0011656Y0117524D01*
X0009998Y0119182D01*
X0009100Y0121350D01*
X0009100Y0123697D01*
X0009998Y0125866D01*
X0011658Y0127525D01*
X0012473Y0127863D01*
X0012222Y0127991D01*
X0011547Y0128481D01*
X0010957Y0129071D01*
X0010467Y0129746D01*
X0010088Y0130489D01*
X0009830Y0131283D01*
X0009700Y0132106D01*
X0009700Y0132124D01*
X0014600Y0132124D01*
X0014600Y0132924D01*
X0009700Y0132924D01*
X0009700Y0132941D01*
X0009830Y0133765D01*
X0010088Y0134558D01*
X0010467Y0135301D01*
X0010957Y0135976D01*
X0011547Y0136566D01*
X0012222Y0137057D01*
X0012473Y0137184D01*
X0011658Y0137522D01*
X0009998Y0139182D01*
X0009100Y0141350D01*
X0009100Y0143697D01*
X0009998Y0145866D01*
X0011656Y0147524D01*
X0009998Y0149182D01*
X0009100Y0151350D01*
X0009100Y0153697D01*
X0009998Y0155866D01*
X0011656Y0157524D01*
X0009998Y0159182D01*
X0009100Y0161350D01*
X0009100Y0163697D01*
X0009998Y0165866D01*
X0011656Y0167524D01*
X0009998Y0169182D01*
X0009100Y0171350D01*
X0009100Y0173697D01*
X0009998Y0175866D01*
X0011656Y0177524D01*
X0009998Y0179182D01*
X0009100Y0181350D01*
X0009100Y0183697D01*
X0009998Y0185866D01*
X0011656Y0187524D01*
X0009998Y0189182D01*
X0009100Y0191350D01*
X0009100Y0193697D01*
X0009998Y0195866D01*
X0011658Y0197525D01*
X0013826Y0198424D01*
X0016174Y0198424D01*
X0018342Y0197525D01*
X0020002Y0195866D01*
X0020641Y0194324D01*
X0023157Y0194324D01*
X0024186Y0193897D01*
X0058027Y0160056D01*
X0059095Y0161124D01*
X0062905Y0161124D01*
X0065600Y0158429D01*
X0065600Y0154618D01*
X0062905Y0151924D01*
X0059500Y0151924D01*
X0059500Y0149783D01*
X0067086Y0142197D01*
X0067541Y0141742D01*
X0067592Y0141793D01*
X0068160Y0142206D01*
X0068786Y0142525D01*
X0069455Y0142742D01*
X0070145Y0142851D01*
X0070145Y0135878D01*
X0070855Y0135878D01*
X0074964Y0135878D01*
X0074964Y0138739D01*
X0074854Y0139433D01*
X0074637Y0140101D01*
X0074318Y0140728D01*
X0073905Y0141296D01*
X0073408Y0141793D01*
X0072840Y0142206D01*
X0072214Y0142525D01*
X0071545Y0142742D01*
X0070855Y0142851D01*
X0070855Y0135878D01*
X0070855Y0135169D01*
X0074964Y0135169D01*
X0074964Y0132308D01*
X0074854Y0131614D01*
X0074637Y0130946D01*
X0074318Y0130320D01*
X0073905Y0129751D01*
X0073408Y0129254D01*
X0072840Y0128841D01*
X0072214Y0128522D01*
X0071545Y0128305D01*
X0071142Y0128241D01*
X0087167Y0112216D01*
X0087631Y0112681D01*
X0089493Y0113452D01*
X0091507Y0113452D01*
X0093369Y0112681D01*
X0093583Y0112466D01*
X0096126Y0115010D01*
X0096914Y0115797D01*
X0097943Y0116224D01*
X0197297Y0116224D01*
X0197647Y0116275D01*
X0197849Y0116224D01*
X0198057Y0116224D01*
X0198384Y0116088D01*
X0198727Y0116001D01*
X0198894Y0115877D01*
X0199086Y0115797D01*
X0199336Y0115547D01*
X0199620Y0115336D01*
X0199726Y0115157D01*
X0199874Y0115010D01*
X0200009Y0114683D01*
X0200998Y0113024D01*
X0202880Y0113024D01*
X0205269Y0112034D01*
X0207097Y0110206D01*
X0208087Y0107817D01*
X0208087Y0105231D01*
X0207097Y0102842D01*
X0205269Y0101013D01*
X0202880Y0100024D01*
X0200294Y0100024D01*
X0197905Y0101013D01*
X0196076Y0102842D01*
X0195087Y0105231D01*
X0195087Y0107817D01*
X0196076Y0110206D01*
X0196128Y0110257D01*
X0195909Y0110624D01*
X0192051Y0110624D01*
X0192307Y0110367D01*
X0192853Y0109616D01*
X0193275Y0108788D01*
X0193562Y0107905D01*
X0193707Y0106988D01*
X0193707Y0106908D01*
X0188191Y0106908D01*
X0188191Y0106139D01*
X0188191Y0100624D01*
X0188271Y0100624D01*
X0189189Y0100769D01*
X0190072Y0101056D01*
X0190899Y0101477D01*
X0191651Y0102023D01*
X0192307Y0102680D01*
X0192853Y0103431D01*
X0193275Y0104259D01*
X0193562Y0105142D01*
X0193707Y0106059D01*
X0193707Y0106139D01*
X0188191Y0106139D01*
X0187423Y0106139D01*
X0187423Y0100624D01*
X0187343Y0100624D01*
X0186425Y0100769D01*
X0185542Y0101056D01*
X0184715Y0101477D01*
X0183963Y0102023D01*
X0183307Y0102680D01*
X0182761Y0103431D01*
X0182339Y0104259D01*
X0182052Y0105142D01*
X0181907Y0106059D01*
X0181907Y0106139D01*
X0187423Y0106139D01*
X0187423Y0106908D01*
X0181907Y0106908D01*
X0181907Y0106988D01*
X0182052Y0107905D01*
X0182339Y0108788D01*
X0182761Y0109616D01*
X0183307Y0110367D01*
X0183563Y0110624D01*
X0179179Y0110624D01*
X0179597Y0110206D01*
X0180587Y0107817D01*
X0180587Y0105231D01*
X0179597Y0102842D01*
X0177769Y0101013D01*
X0175380Y0100024D01*
X0172794Y0100024D01*
X0171921Y0100385D01*
X0167186Y0095650D01*
X0168854Y0097318D02*
X0212721Y0097318D01*
X0212721Y0098516D02*
X0170052Y0098516D01*
X0171251Y0099715D02*
X0212721Y0099715D01*
X0212721Y0100913D02*
X0205027Y0100913D01*
X0206367Y0102112D02*
X0212721Y0102112D01*
X0212721Y0103310D02*
X0207291Y0103310D01*
X0207788Y0104509D02*
X0212721Y0104509D01*
X0212721Y0105707D02*
X0208087Y0105707D01*
X0208087Y0106906D02*
X0212721Y0106906D01*
X0212721Y0108104D02*
X0207967Y0108104D01*
X0207471Y0109303D02*
X0212721Y0109303D01*
X0212721Y0110501D02*
X0206801Y0110501D01*
X0205603Y0111700D02*
X0212721Y0111700D01*
X0212721Y0112898D02*
X0203182Y0112898D01*
X0200358Y0114097D02*
X0212721Y0114097D01*
X0212721Y0115295D02*
X0199644Y0115295D01*
X0197500Y0113424D02*
X0200600Y0108224D01*
X0201587Y0106524D01*
X0198146Y0100913D02*
X0189633Y0100913D01*
X0188191Y0100913D02*
X0187423Y0100913D01*
X0187423Y0102112D02*
X0188191Y0102112D01*
X0188191Y0103310D02*
X0187423Y0103310D01*
X0187423Y0104509D02*
X0188191Y0104509D01*
X0188191Y0105707D02*
X0187423Y0105707D01*
X0187423Y0106906D02*
X0180587Y0106906D01*
X0180587Y0105707D02*
X0181963Y0105707D01*
X0182258Y0104509D02*
X0180288Y0104509D01*
X0179791Y0103310D02*
X0182849Y0103310D01*
X0183875Y0102112D02*
X0178867Y0102112D01*
X0177527Y0100913D02*
X0185981Y0100913D01*
X0188191Y0106906D02*
X0195087Y0106906D01*
X0195087Y0105707D02*
X0193651Y0105707D01*
X0193356Y0104509D02*
X0195386Y0104509D01*
X0195882Y0103310D02*
X0192765Y0103310D01*
X0191739Y0102112D02*
X0196806Y0102112D01*
X0195206Y0108104D02*
X0193497Y0108104D01*
X0193013Y0109303D02*
X0195702Y0109303D01*
X0195982Y0110501D02*
X0192173Y0110501D01*
X0197500Y0113424D02*
X0098500Y0113424D01*
X0090800Y0105724D01*
X0090500Y0105524D01*
X0089700Y0105724D01*
X0065500Y0129924D01*
X0065500Y0139824D01*
X0056700Y0148624D01*
X0056700Y0157424D01*
X0022600Y0191524D01*
X0016000Y0191524D01*
X0015000Y0192524D01*
X0010927Y0196794D02*
X0007200Y0196794D01*
X0007200Y0195596D02*
X0009886Y0195596D01*
X0009390Y0194397D02*
X0007200Y0194397D01*
X0007200Y0193199D02*
X0009100Y0193199D01*
X0009100Y0192000D02*
X0007200Y0192000D01*
X0007200Y0190802D02*
X0009327Y0190802D01*
X0009824Y0189603D02*
X0007200Y0189603D01*
X0007200Y0188405D02*
X0010775Y0188405D01*
X0011339Y0187206D02*
X0007200Y0187206D01*
X0007200Y0186008D02*
X0010140Y0186008D01*
X0009561Y0184809D02*
X0007200Y0184809D01*
X0007200Y0183610D02*
X0009100Y0183610D01*
X0009100Y0182412D02*
X0007200Y0182412D01*
X0007200Y0181213D02*
X0009157Y0181213D01*
X0009653Y0180015D02*
X0007200Y0180015D01*
X0007200Y0178816D02*
X0010363Y0178816D01*
X0011562Y0177618D02*
X0007200Y0177618D01*
X0007200Y0176419D02*
X0010552Y0176419D01*
X0009731Y0175221D02*
X0007200Y0175221D01*
X0007200Y0174022D02*
X0009235Y0174022D01*
X0009100Y0172824D02*
X0007200Y0172824D01*
X0007200Y0171625D02*
X0009100Y0171625D01*
X0009482Y0170427D02*
X0007200Y0170427D01*
X0007200Y0169228D02*
X0009979Y0169228D01*
X0011150Y0168030D02*
X0007200Y0168030D01*
X0007200Y0166831D02*
X0010964Y0166831D01*
X0009902Y0165633D02*
X0007200Y0165633D01*
X0007200Y0164434D02*
X0009405Y0164434D01*
X0009100Y0163236D02*
X0007200Y0163236D01*
X0007200Y0162037D02*
X0009100Y0162037D01*
X0009312Y0160839D02*
X0007200Y0160839D01*
X0007200Y0159640D02*
X0009808Y0159640D01*
X0010738Y0158442D02*
X0007200Y0158442D01*
X0007200Y0157243D02*
X0011376Y0157243D01*
X0010177Y0156045D02*
X0007200Y0156045D01*
X0007200Y0154846D02*
X0009576Y0154846D01*
X0009100Y0153648D02*
X0007200Y0153648D01*
X0007200Y0152449D02*
X0009100Y0152449D01*
X0009141Y0151251D02*
X0007200Y0151251D01*
X0007200Y0150052D02*
X0009638Y0150052D01*
X0010326Y0148854D02*
X0007200Y0148854D01*
X0007200Y0147655D02*
X0011525Y0147655D01*
X0010589Y0146457D02*
X0007200Y0146457D01*
X0007200Y0145258D02*
X0009747Y0145258D01*
X0009250Y0144060D02*
X0007200Y0144060D01*
X0007200Y0142861D02*
X0009100Y0142861D01*
X0009100Y0141663D02*
X0007200Y0141663D01*
X0007200Y0140464D02*
X0009467Y0140464D01*
X0009963Y0139266D02*
X0007200Y0139266D01*
X0007200Y0138067D02*
X0011113Y0138067D01*
X0011963Y0136869D02*
X0007200Y0136869D01*
X0007200Y0135670D02*
X0010735Y0135670D01*
X0010060Y0134472D02*
X0007200Y0134472D01*
X0007200Y0133273D02*
X0009753Y0133273D01*
X0009705Y0132074D02*
X0007200Y0132074D01*
X0007200Y0130876D02*
X0009963Y0130876D01*
X0010517Y0129677D02*
X0007200Y0129677D01*
X0007200Y0128479D02*
X0011550Y0128479D01*
X0011413Y0127280D02*
X0007200Y0127280D01*
X0007200Y0126082D02*
X0010214Y0126082D01*
X0009591Y0124883D02*
X0007200Y0124883D01*
X0007200Y0123685D02*
X0009100Y0123685D01*
X0009100Y0122486D02*
X0007200Y0122486D01*
X0007200Y0121288D02*
X0009126Y0121288D01*
X0009622Y0120089D02*
X0007200Y0120089D01*
X0007200Y0118891D02*
X0010289Y0118891D01*
X0011487Y0117692D02*
X0007200Y0117692D01*
X0007200Y0116494D02*
X0010626Y0116494D01*
X0009762Y0115295D02*
X0007200Y0115295D01*
X0007200Y0114097D02*
X0009266Y0114097D01*
X0009100Y0112898D02*
X0007200Y0112898D01*
X0007200Y0111700D02*
X0009100Y0111700D01*
X0009452Y0110501D02*
X0007200Y0110501D01*
X0007200Y0109303D02*
X0009948Y0109303D01*
X0011075Y0108104D02*
X0007200Y0108104D01*
X0007200Y0106906D02*
X0011038Y0106906D01*
X0009933Y0105707D02*
X0007200Y0105707D01*
X0007200Y0104509D02*
X0009436Y0104509D01*
X0009100Y0103310D02*
X0007200Y0103310D01*
X0007200Y0102112D02*
X0009100Y0102112D01*
X0009281Y0100913D02*
X0007200Y0100913D01*
X0007200Y0099715D02*
X0009777Y0099715D01*
X0010664Y0098516D02*
X0007200Y0098516D01*
X0007200Y0097318D02*
X0012151Y0097318D01*
X0007200Y0096119D02*
X0085445Y0096119D01*
X0084246Y0097318D02*
X0017849Y0097318D01*
X0019336Y0098516D02*
X0037481Y0098516D01*
X0036283Y0099715D02*
X0020223Y0099715D01*
X0020719Y0100913D02*
X0023505Y0100913D01*
X0022307Y0102112D02*
X0020900Y0102112D01*
X0020900Y0103310D02*
X0021400Y0103310D01*
X0021400Y0104509D02*
X0020564Y0104509D01*
X0020067Y0105707D02*
X0021400Y0105707D01*
X0021477Y0106906D02*
X0018962Y0106906D01*
X0018924Y0108104D02*
X0022675Y0108104D01*
X0023200Y0109303D02*
X0020052Y0109303D01*
X0020548Y0110501D02*
X0023063Y0110501D01*
X0021864Y0111700D02*
X0020900Y0111700D01*
X0024990Y0116494D02*
X0055170Y0116494D01*
X0053971Y0117692D02*
X0023791Y0117692D01*
X0022593Y0118891D02*
X0052773Y0118891D01*
X0051574Y0120089D02*
X0021394Y0120089D01*
X0020874Y0121288D02*
X0023979Y0121288D01*
X0024343Y0120924D02*
X0022000Y0123267D01*
X0022000Y0124724D01*
X0025800Y0124724D01*
X0025800Y0125124D01*
X0025800Y0128924D01*
X0024343Y0128924D01*
X0022000Y0126580D01*
X0022000Y0125124D01*
X0025800Y0125124D01*
X0026200Y0125124D01*
X0026200Y0128924D01*
X0027657Y0128924D01*
X0030000Y0126580D01*
X0030000Y0125124D01*
X0026200Y0125124D01*
X0026200Y0124724D01*
X0030000Y0124724D01*
X0030000Y0123267D01*
X0027657Y0120924D01*
X0026200Y0120924D01*
X0026200Y0124724D01*
X0025800Y0124724D01*
X0025800Y0120924D01*
X0024343Y0120924D01*
X0025800Y0121288D02*
X0026200Y0121288D01*
X0026200Y0122486D02*
X0025800Y0122486D01*
X0025800Y0123685D02*
X0026200Y0123685D01*
X0026200Y0124883D02*
X0046780Y0124883D01*
X0047979Y0123685D02*
X0030000Y0123685D01*
X0029220Y0122486D02*
X0049177Y0122486D01*
X0050376Y0121288D02*
X0028021Y0121288D01*
X0026000Y0124924D02*
X0022600Y0124924D01*
X0015000Y0132524D01*
X0016000Y0133224D01*
X0038000Y0133224D01*
X0040200Y0135424D01*
X0040500Y0135524D01*
X0040145Y0135670D02*
X0019265Y0135670D01*
X0019940Y0134472D02*
X0036036Y0134472D01*
X0036036Y0133273D02*
X0020247Y0133273D01*
X0020295Y0132074D02*
X0036073Y0132074D01*
X0036398Y0130876D02*
X0020037Y0130876D01*
X0019483Y0129677D02*
X0037169Y0129677D01*
X0038920Y0128479D02*
X0028101Y0128479D01*
X0029300Y0127280D02*
X0044383Y0127280D01*
X0043268Y0128479D02*
X0042080Y0128479D01*
X0040855Y0128479D02*
X0040145Y0128479D01*
X0040145Y0129677D02*
X0040855Y0129677D01*
X0040855Y0130876D02*
X0040145Y0130876D01*
X0040145Y0132074D02*
X0040855Y0132074D01*
X0040855Y0133273D02*
X0040145Y0133273D01*
X0040145Y0134472D02*
X0040855Y0134472D01*
X0036036Y0136869D02*
X0018037Y0136869D01*
X0018887Y0138067D02*
X0036036Y0138067D01*
X0036119Y0139266D02*
X0020037Y0139266D01*
X0020533Y0140464D02*
X0036548Y0140464D01*
X0044200Y0143624D02*
X0025300Y0143624D01*
X0025300Y0156224D01*
X0020400Y0160424D01*
X0020400Y0168824D01*
X0015000Y0172524D01*
X0019448Y0176419D02*
X0023844Y0176419D01*
X0025043Y0175221D02*
X0020269Y0175221D01*
X0020002Y0175866D02*
X0018344Y0177524D01*
X0019644Y0178824D01*
X0021440Y0178824D01*
X0039140Y0161124D01*
X0039095Y0161124D01*
X0036400Y0158429D01*
X0036400Y0154618D01*
X0039095Y0151924D01*
X0042905Y0151924D01*
X0044000Y0153018D01*
X0044000Y0148067D01*
X0044426Y0147038D01*
X0045239Y0146225D01*
X0044804Y0146414D01*
X0044779Y0146414D01*
X0044757Y0146424D01*
X0044223Y0146424D01*
X0043690Y0146433D01*
X0043667Y0146424D01*
X0028100Y0146424D01*
X0028100Y0152818D01*
X0028995Y0151924D01*
X0032805Y0151924D01*
X0035500Y0154618D01*
X0035500Y0158429D01*
X0032805Y0161124D01*
X0028995Y0161124D01*
X0026637Y0158766D01*
X0023200Y0161711D01*
X0023200Y0168531D01*
X0023255Y0168790D01*
X0023200Y0169083D01*
X0023200Y0169381D01*
X0023099Y0169625D01*
X0023050Y0169885D01*
X0022888Y0170135D01*
X0022774Y0170410D01*
X0022587Y0170597D01*
X0022442Y0170819D01*
X0022197Y0170987D01*
X0021986Y0171197D01*
X0021742Y0171299D01*
X0020900Y0171875D01*
X0020900Y0173697D01*
X0020002Y0175866D01*
X0020765Y0174022D02*
X0026241Y0174022D01*
X0027440Y0172824D02*
X0020900Y0172824D01*
X0021265Y0171625D02*
X0028638Y0171625D01*
X0029837Y0170427D02*
X0022757Y0170427D01*
X0023200Y0169228D02*
X0031035Y0169228D01*
X0032234Y0168030D02*
X0023200Y0168030D01*
X0023200Y0166831D02*
X0033432Y0166831D01*
X0034631Y0165633D02*
X0023200Y0165633D01*
X0023200Y0164434D02*
X0035830Y0164434D01*
X0037028Y0163236D02*
X0023200Y0163236D01*
X0023200Y0162037D02*
X0038227Y0162037D01*
X0038810Y0160839D02*
X0033090Y0160839D01*
X0034289Y0159640D02*
X0037611Y0159640D01*
X0036413Y0158442D02*
X0035487Y0158442D01*
X0035500Y0157243D02*
X0036400Y0157243D01*
X0036400Y0156045D02*
X0035500Y0156045D01*
X0035500Y0154846D02*
X0036400Y0154846D01*
X0037371Y0153648D02*
X0034529Y0153648D01*
X0033331Y0152449D02*
X0038569Y0152449D01*
X0043431Y0152449D02*
X0044000Y0152449D01*
X0044000Y0151251D02*
X0028100Y0151251D01*
X0028100Y0152449D02*
X0028469Y0152449D01*
X0028100Y0150052D02*
X0044000Y0150052D01*
X0044000Y0148854D02*
X0028100Y0148854D01*
X0028100Y0147655D02*
X0044170Y0147655D01*
X0045007Y0146457D02*
X0028100Y0146457D01*
X0022500Y0146457D02*
X0019411Y0146457D01*
X0020253Y0145258D02*
X0022500Y0145258D01*
X0022500Y0144060D02*
X0020750Y0144060D01*
X0020900Y0142861D02*
X0022585Y0142861D01*
X0023301Y0141663D02*
X0020900Y0141663D01*
X0022500Y0147655D02*
X0018475Y0147655D01*
X0019674Y0148854D02*
X0022500Y0148854D01*
X0022500Y0150052D02*
X0020362Y0150052D01*
X0020859Y0151251D02*
X0022500Y0151251D01*
X0022500Y0152449D02*
X0020900Y0152449D01*
X0020900Y0153648D02*
X0022500Y0153648D01*
X0022500Y0154846D02*
X0020424Y0154846D01*
X0019823Y0156045D02*
X0021206Y0156045D01*
X0019808Y0157243D02*
X0018624Y0157243D01*
X0024218Y0160839D02*
X0028710Y0160839D01*
X0027511Y0159640D02*
X0025616Y0159640D01*
X0036558Y0171625D02*
X0038538Y0171625D01*
X0037757Y0170427D02*
X0039737Y0170427D01*
X0038955Y0169228D02*
X0040935Y0169228D01*
X0040154Y0168030D02*
X0042134Y0168030D01*
X0041352Y0166831D02*
X0043332Y0166831D01*
X0042551Y0165633D02*
X0044531Y0165633D01*
X0043749Y0164434D02*
X0045730Y0164434D01*
X0044948Y0163236D02*
X0046928Y0163236D01*
X0046146Y0162037D02*
X0048127Y0162037D01*
X0049067Y0161096D02*
X0048077Y0160106D01*
X0024186Y0183997D01*
X0023157Y0184424D01*
X0020599Y0184424D01*
X0020002Y0185866D01*
X0018344Y0187524D01*
X0019544Y0188724D01*
X0021440Y0188724D01*
X0049067Y0161096D01*
X0048810Y0160839D02*
X0047345Y0160839D01*
X0046800Y0157424D02*
X0046800Y0148624D01*
X0055600Y0139824D01*
X0055600Y0129924D01*
X0079800Y0105724D01*
X0080500Y0105524D01*
X0080900Y0104624D01*
X0087500Y0098024D01*
X0165600Y0098024D01*
X0173300Y0105724D01*
X0174087Y0106524D01*
X0168994Y0110624D02*
X0168576Y0110206D01*
X0167587Y0107817D01*
X0167587Y0105231D01*
X0167956Y0104339D01*
X0164440Y0100824D01*
X0161857Y0100824D01*
X0162572Y0101056D01*
X0163399Y0101477D01*
X0164151Y0102023D01*
X0164807Y0102680D01*
X0165353Y0103431D01*
X0165775Y0104259D01*
X0166062Y0105142D01*
X0166207Y0106059D01*
X0166207Y0106139D01*
X0160691Y0106139D01*
X0160691Y0100824D01*
X0159923Y0100824D01*
X0159923Y0106139D01*
X0160691Y0106139D01*
X0160691Y0106908D01*
X0166207Y0106908D01*
X0166207Y0106988D01*
X0166062Y0107905D01*
X0165775Y0108788D01*
X0165353Y0109616D01*
X0164807Y0110367D01*
X0164551Y0110624D01*
X0168994Y0110624D01*
X0168872Y0110501D02*
X0164673Y0110501D01*
X0165513Y0109303D02*
X0168202Y0109303D01*
X0167706Y0108104D02*
X0165997Y0108104D01*
X0167587Y0106906D02*
X0160691Y0106906D01*
X0160307Y0106524D02*
X0160100Y0105724D01*
X0154600Y0100224D01*
X0140300Y0100224D01*
X0134800Y0105724D01*
X0133191Y0106139D02*
X0133191Y0106908D01*
X0138707Y0106908D01*
X0138707Y0106988D01*
X0138562Y0107905D01*
X0138275Y0108788D01*
X0137853Y0109616D01*
X0137307Y0110367D01*
X0137051Y0110624D01*
X0141494Y0110624D01*
X0141076Y0110206D01*
X0140087Y0107817D01*
X0140087Y0105231D01*
X0141076Y0102842D01*
X0142905Y0101013D01*
X0143362Y0100824D01*
X0134357Y0100824D01*
X0135072Y0101056D01*
X0135899Y0101477D01*
X0136651Y0102023D01*
X0137307Y0102680D01*
X0137853Y0103431D01*
X0138275Y0104259D01*
X0138562Y0105142D01*
X0138707Y0106059D01*
X0138707Y0106139D01*
X0133191Y0106139D01*
X0133191Y0106906D02*
X0140087Y0106906D01*
X0140087Y0105707D02*
X0138651Y0105707D01*
X0138356Y0104509D02*
X0140386Y0104509D01*
X0140882Y0103310D02*
X0137765Y0103310D01*
X0136739Y0102112D02*
X0141806Y0102112D01*
X0143146Y0100913D02*
X0134633Y0100913D01*
X0131257Y0100824D02*
X0115221Y0100824D01*
X0115564Y0101652D01*
X0115564Y0109395D01*
X0115055Y0110624D01*
X0128563Y0110624D01*
X0128307Y0110367D01*
X0127761Y0109616D01*
X0127339Y0108788D01*
X0127052Y0107905D01*
X0126907Y0106988D01*
X0126907Y0106908D01*
X0132423Y0106908D01*
X0132423Y0106139D01*
X0126907Y0106139D01*
X0126907Y0106059D01*
X0127052Y0105142D01*
X0127339Y0104259D01*
X0127761Y0103431D01*
X0128307Y0102680D01*
X0128963Y0102023D01*
X0129715Y0101477D01*
X0130542Y0101056D01*
X0131257Y0100824D01*
X0130981Y0100913D02*
X0115258Y0100913D01*
X0115564Y0102112D02*
X0128875Y0102112D01*
X0127849Y0103310D02*
X0115564Y0103310D01*
X0115564Y0104509D02*
X0127258Y0104509D01*
X0126963Y0105707D02*
X0115564Y0105707D01*
X0115564Y0106906D02*
X0132423Y0106906D01*
X0128441Y0110501D02*
X0115106Y0110501D01*
X0115564Y0109303D02*
X0127601Y0109303D01*
X0127117Y0108104D02*
X0115564Y0108104D01*
X0105945Y0110624D02*
X0105500Y0109550D01*
X0105055Y0110624D01*
X0105945Y0110624D01*
X0105894Y0110501D02*
X0105106Y0110501D01*
X0105500Y0101497D02*
X0105221Y0100824D01*
X0105779Y0100824D01*
X0105500Y0101497D01*
X0105258Y0100913D02*
X0105742Y0100913D01*
X0095779Y0100824D02*
X0095221Y0100824D01*
X0095500Y0101497D01*
X0095779Y0100824D01*
X0095742Y0100913D02*
X0095258Y0100913D01*
X0094015Y0112898D02*
X0092844Y0112898D01*
X0095213Y0114097D02*
X0085287Y0114097D01*
X0086485Y0112898D02*
X0088156Y0112898D01*
X0084088Y0115295D02*
X0096412Y0115295D01*
X0099455Y0128305D02*
X0100145Y0128196D01*
X0100145Y0135169D01*
X0096036Y0135169D01*
X0096036Y0132308D01*
X0096146Y0131614D01*
X0096363Y0130946D01*
X0096682Y0130320D01*
X0097095Y0129751D01*
X0097592Y0129254D01*
X0098160Y0128841D01*
X0098786Y0128522D01*
X0099455Y0128305D01*
X0098920Y0128479D02*
X0092080Y0128479D01*
X0092214Y0128522D02*
X0092840Y0128841D01*
X0093408Y0129254D01*
X0093905Y0129751D01*
X0094318Y0130320D01*
X0094637Y0130946D01*
X0094854Y0131614D01*
X0094964Y0132308D01*
X0094964Y0135169D01*
X0090855Y0135169D01*
X0090855Y0135878D01*
X0094964Y0135878D01*
X0094964Y0138739D01*
X0094854Y0139433D01*
X0094825Y0139524D01*
X0095675Y0139524D01*
X0096253Y0139763D01*
X0096146Y0139433D01*
X0096036Y0138739D01*
X0096036Y0135878D01*
X0100145Y0135878D01*
X0100145Y0135169D01*
X0100855Y0135169D01*
X0100855Y0135878D01*
X0104964Y0135878D01*
X0104964Y0138739D01*
X0104854Y0139433D01*
X0104637Y0140101D01*
X0104318Y0140728D01*
X0103905Y0141296D01*
X0103408Y0141793D01*
X0102840Y0142206D01*
X0102214Y0142525D01*
X0101545Y0142742D01*
X0100855Y0142851D01*
X0100855Y0135878D01*
X0100145Y0135878D01*
X0100145Y0142851D01*
X0099455Y0142742D01*
X0099284Y0142687D01*
X0099600Y0143449D01*
X0099600Y0143458D01*
X0102022Y0143049D01*
X0102055Y0143030D01*
X0102570Y0142957D01*
X0103083Y0142870D01*
X0103120Y0142878D01*
X0103158Y0142873D01*
X0103662Y0143003D01*
X0104169Y0143119D01*
X0104200Y0143141D01*
X0106000Y0143604D01*
X0107680Y0141924D01*
X0107772Y0141924D01*
X0107592Y0141793D01*
X0107095Y0141296D01*
X0106682Y0140728D01*
X0106363Y0140101D01*
X0106146Y0139433D01*
X0106036Y0138739D01*
X0106036Y0135878D01*
X0110145Y0135878D01*
X0110145Y0135169D01*
X0106036Y0135169D01*
X0106036Y0132308D01*
X0106146Y0131614D01*
X0106363Y0130946D01*
X0106682Y0130320D01*
X0107095Y0129751D01*
X0107592Y0129254D01*
X0108160Y0128841D01*
X0108786Y0128522D01*
X0109455Y0128305D01*
X0110145Y0128196D01*
X0110145Y0135169D01*
X0110855Y0135169D01*
X0110855Y0135878D01*
X0114964Y0135878D01*
X0114964Y0138739D01*
X0114854Y0139433D01*
X0114637Y0140101D01*
X0114318Y0140728D01*
X0113905Y0141296D01*
X0113408Y0141793D01*
X0112840Y0142206D01*
X0112682Y0142286D01*
X0115000Y0144604D01*
X0117680Y0141924D01*
X0122320Y0141924D01*
X0125424Y0145028D01*
X0127929Y0142524D01*
X0129800Y0142524D01*
X0129800Y0147324D01*
X0130200Y0147324D01*
X0130200Y0147724D01*
X0129800Y0147724D01*
X0129800Y0152524D01*
X0127929Y0152524D01*
X0125424Y0150019D01*
X0122320Y0153124D01*
X0122200Y0153124D01*
X0122200Y0171181D01*
X0121892Y0171924D01*
X0122320Y0171924D01*
X0125000Y0174604D01*
X0127680Y0171924D01*
X0132320Y0171924D01*
X0135000Y0174604D01*
X0137680Y0171924D01*
X0142320Y0171924D01*
X0145600Y0175204D01*
X0145600Y0179843D01*
X0142320Y0183124D01*
X0137680Y0183124D01*
X0135000Y0180443D01*
X0132320Y0183124D01*
X0127680Y0183124D01*
X0125000Y0180443D01*
X0122320Y0183124D01*
X0117800Y0183124D01*
X0117800Y0185481D01*
X0117374Y0186510D01*
X0111960Y0191924D01*
X0112320Y0191924D01*
X0115000Y0194604D01*
X0117680Y0191924D01*
X0122320Y0191924D01*
X0125000Y0194604D01*
X0127680Y0191924D01*
X0132320Y0191924D01*
X0135424Y0195028D01*
X0137929Y0192524D01*
X0139800Y0192524D01*
X0139800Y0197324D01*
X0140200Y0197324D01*
X0140200Y0197724D01*
X0139800Y0197724D01*
X0139800Y0202524D01*
X0137929Y0202524D01*
X0135424Y0200019D01*
X0132320Y0203124D01*
X0127680Y0203124D01*
X0126870Y0202313D01*
X0088774Y0240410D01*
X0087986Y0241197D01*
X0086957Y0241624D01*
X0073605Y0241624D01*
X0075600Y0243618D01*
X0075600Y0247429D01*
X0072983Y0250046D01*
X0074900Y0251964D01*
X0074900Y0250411D01*
X0077888Y0247424D01*
X0079600Y0247424D01*
X0079600Y0252124D01*
X0080400Y0252124D01*
X0080400Y0247424D01*
X0082112Y0247424D01*
X0084576Y0249887D01*
X0087639Y0246824D01*
X0092361Y0246824D01*
X0095000Y0249463D01*
X0097639Y0246824D01*
X0102361Y0246824D01*
X0105000Y0249463D01*
X0107639Y0246824D01*
X0112361Y0246824D01*
X0115000Y0249463D01*
X0117639Y0246824D01*
X0122361Y0246824D01*
X0125000Y0249463D01*
X0127639Y0246824D01*
X0131640Y0246824D01*
X0134314Y0244150D01*
X0135343Y0243724D01*
X0146840Y0243724D01*
X0158440Y0232124D01*
X0155095Y0232124D01*
X0152400Y0229429D01*
X0152400Y0225618D01*
X0155095Y0222924D01*
X0158905Y0222924D01*
X0161600Y0225618D01*
X0161600Y0228964D01*
X0162400Y0228164D01*
X0162400Y0225618D01*
X0165095Y0222924D01*
X0168905Y0222924D01*
X0171600Y0225618D01*
X0171600Y0229429D01*
X0168905Y0232124D01*
X0166360Y0232124D01*
X0151660Y0246824D01*
X0152361Y0246824D01*
X0155700Y0250163D01*
X0155700Y0250264D01*
X0173800Y0232164D01*
X0173800Y0230829D01*
X0172400Y0229429D01*
X0172400Y0225618D01*
X0175095Y0222924D01*
X0178905Y0222924D01*
X0179300Y0223318D01*
X0179300Y0219083D01*
X0156314Y0196097D01*
X0155526Y0195310D01*
X0155100Y0194281D01*
X0155100Y0192124D01*
X0155095Y0192124D01*
X0152400Y0189429D01*
X0152400Y0185618D01*
X0155095Y0182924D01*
X0158419Y0182924D01*
X0158419Y0177931D01*
X0159708Y0176643D01*
X0165292Y0176643D01*
X0166373Y0177724D01*
X0172897Y0177724D01*
X0173999Y0178180D01*
X0174843Y0179024D01*
X0175300Y0180127D01*
X0175300Y0182924D01*
X0178905Y0182924D01*
X0181600Y0185618D01*
X0181600Y0189429D01*
X0178905Y0192124D01*
X0176743Y0192124D01*
X0188957Y0204338D01*
X0199881Y0204464D01*
X0199998Y0204182D01*
X0201658Y0202522D01*
X0202473Y0202184D01*
X0202222Y0202057D01*
X0201547Y0201566D01*
X0200957Y0200976D01*
X0200467Y0200301D01*
X0200088Y0199558D01*
X0199830Y0198765D01*
X0199700Y0197941D01*
X0199700Y0197924D01*
X0204600Y0197924D01*
X0204600Y0197124D01*
X0199700Y0197124D01*
X0199700Y0197106D01*
X0199830Y0196283D01*
X0200088Y0195489D01*
X0200467Y0194746D01*
X0200957Y0194071D01*
X0201547Y0193481D01*
X0202222Y0192991D01*
X0202966Y0192612D01*
X0203237Y0192524D01*
X0202966Y0192435D01*
X0202222Y0192057D01*
X0201547Y0191566D01*
X0200957Y0190976D01*
X0200467Y0190301D01*
X0200088Y0189558D01*
X0199830Y0188765D01*
X0199700Y0187941D01*
X0199700Y0187924D01*
X0204600Y0187924D01*
X0204600Y0197124D01*
X0205400Y0197124D01*
X0205400Y0197924D01*
X0210300Y0197924D01*
X0210300Y0197941D01*
X0210169Y0198765D01*
X0209912Y0199558D01*
X0209533Y0200301D01*
X0209043Y0200976D01*
X0208453Y0201566D01*
X0207778Y0202057D01*
X0207527Y0202184D01*
X0208342Y0202522D01*
X0210002Y0204182D01*
X0210900Y0206350D01*
X0210900Y0208697D01*
X0210002Y0210866D01*
X0208342Y0212525D01*
X0206174Y0213424D01*
X0203826Y0213424D01*
X0201658Y0212525D01*
X0199998Y0210866D01*
X0199832Y0210464D01*
X0187683Y0210324D01*
X0187103Y0210324D01*
X0187087Y0210317D01*
X0187069Y0210317D01*
X0186536Y0210089D01*
X0186001Y0209867D01*
X0185988Y0209854D01*
X0185971Y0209847D01*
X0185567Y0209433D01*
X0170601Y0194467D01*
X0170600Y0194466D01*
X0170600Y0199164D01*
X0193586Y0222150D01*
X0193586Y0222150D01*
X0194374Y0222938D01*
X0199100Y0227664D01*
X0199100Y0226350D01*
X0199998Y0224182D01*
X0201658Y0222522D01*
X0203826Y0221624D01*
X0206174Y0221624D01*
X0208342Y0222522D01*
X0210002Y0224182D01*
X0210900Y0226350D01*
X0210900Y0228697D01*
X0210002Y0230866D01*
X0208344Y0232524D01*
X0210002Y0234182D01*
X0210900Y0236350D01*
X0210900Y0238697D01*
X0210002Y0240866D01*
X0208344Y0242524D01*
X0210002Y0244182D01*
X0210900Y0246350D01*
X0210900Y0248697D01*
X0210002Y0250866D01*
X0208344Y0252524D01*
X0210002Y0254182D01*
X0210900Y0256350D01*
X0210900Y0258697D01*
X0210002Y0260866D01*
X0208344Y0262524D01*
X0210002Y0264182D01*
X0210900Y0266350D01*
X0210900Y0268697D01*
X0210002Y0270866D01*
X0208344Y0272524D01*
X0210002Y0274182D01*
X0210900Y0276350D01*
X0210900Y0278697D01*
X0210002Y0280866D01*
X0208342Y0282525D01*
X0206174Y0283424D01*
X0203826Y0283424D01*
X0201658Y0282525D01*
X0199998Y0280866D01*
X0199100Y0278697D01*
X0199100Y0276350D01*
X0199998Y0274182D01*
X0201656Y0272524D01*
X0199998Y0270866D01*
X0199100Y0268697D01*
X0199100Y0266350D01*
X0199998Y0264182D01*
X0201656Y0262524D01*
X0199998Y0260866D01*
X0199100Y0258697D01*
X0199100Y0256350D01*
X0199998Y0254182D01*
X0201656Y0252524D01*
X0199998Y0250866D01*
X0199100Y0248697D01*
X0199100Y0246350D01*
X0199998Y0244182D01*
X0201656Y0242524D01*
X0199998Y0240866D01*
X0199100Y0238697D01*
X0199100Y0236350D01*
X0199325Y0235808D01*
X0192000Y0228483D01*
X0155086Y0265397D01*
X0154057Y0265824D01*
X0061643Y0265824D01*
X0060614Y0265397D01*
X0059826Y0264610D01*
X0057000Y0261783D01*
X0057000Y0262180D01*
X0054657Y0264524D01*
X0053200Y0264524D01*
X0053200Y0260724D01*
X0052800Y0260724D01*
X0052800Y0264524D01*
X0051343Y0264524D01*
X0049000Y0262180D01*
X0049000Y0260724D01*
X0052800Y0260724D01*
X0052800Y0260324D01*
X0049000Y0260324D01*
X0049000Y0258867D01*
X0051343Y0256524D01*
X0051740Y0256524D01*
X0044540Y0249324D01*
X0043705Y0249324D01*
X0042905Y0250124D01*
X0039095Y0250124D01*
X0036400Y0247429D01*
X0036400Y0243618D01*
X0039095Y0240924D01*
X0042905Y0240924D01*
X0045600Y0243618D01*
X0045600Y0243724D01*
X0046257Y0243724D01*
X0046400Y0243783D01*
X0046400Y0243618D01*
X0049095Y0240924D01*
X0052905Y0240924D01*
X0055600Y0243618D01*
X0055600Y0243724D01*
X0056157Y0243724D01*
X0056400Y0243824D01*
X0056400Y0243618D01*
X0059095Y0240924D01*
X0059240Y0240924D01*
X0029026Y0210710D01*
X0028600Y0209681D01*
X0028600Y0209629D01*
X0026400Y0207429D01*
X0026400Y0203618D01*
X0029095Y0200924D01*
X0032905Y0200924D01*
X0035600Y0203618D01*
X0035600Y0207429D01*
X0034633Y0208396D01*
X0065500Y0239264D01*
X0068314Y0236450D01*
X0069343Y0236024D01*
X0085240Y0236024D01*
X0118140Y0203124D01*
X0117680Y0203124D01*
X0115000Y0200443D01*
X0112320Y0203124D01*
X0107680Y0203124D01*
X0104400Y0199843D01*
X0104400Y0199483D01*
X0092074Y0211810D01*
X0091286Y0212597D01*
X0090257Y0213024D01*
X0072760Y0213024D01*
X0073174Y0213438D01*
X0073600Y0214467D01*
X0073600Y0224950D01*
X0074881Y0226231D01*
X0074881Y0231816D01*
X0073592Y0233105D01*
X0068008Y0233105D01*
X0066719Y0231816D01*
X0066719Y0226231D01*
X0068000Y0224950D01*
X0068000Y0217824D01*
X0060443Y0217824D01*
X0059414Y0217397D01*
X0058900Y0216883D01*
X0058900Y0217950D01*
X0060181Y0219231D01*
X0060181Y0224816D01*
X0058892Y0226105D01*
X0053308Y0226105D01*
X0052019Y0224816D01*
X0052019Y0219231D01*
X0053300Y0217950D01*
X0053300Y0208880D01*
X0052657Y0209524D01*
X0051200Y0209524D01*
X0051200Y0205724D01*
X0050800Y0205724D01*
X0050800Y0209524D01*
X0049343Y0209524D01*
X0047000Y0207180D01*
X0047000Y0205724D01*
X0050800Y0205724D01*
X0050800Y0205324D01*
X0047000Y0205324D01*
X0047000Y0203867D01*
X0049343Y0201524D01*
X0050800Y0201524D01*
X0050800Y0205324D01*
X0051200Y0205324D01*
X0051200Y0201699D01*
X0050798Y0201124D01*
X0049095Y0201124D01*
X0046400Y0198429D01*
X0046400Y0194618D01*
X0049095Y0191924D01*
X0052905Y0191924D01*
X0055600Y0194618D01*
X0055600Y0198219D01*
X0058150Y0201869D01*
X0059095Y0200924D01*
X0062905Y0200924D01*
X0065600Y0203618D01*
X0065600Y0206364D01*
X0066400Y0207164D01*
X0066400Y0203618D01*
X0068305Y0201713D01*
X0068626Y0200938D01*
X0069192Y0200372D01*
X0067000Y0198180D01*
X0067000Y0196724D01*
X0070800Y0196724D01*
X0070800Y0196324D01*
X0067000Y0196324D01*
X0067000Y0194867D01*
X0069343Y0192524D01*
X0070800Y0192524D01*
X0070800Y0196324D01*
X0071200Y0196324D01*
X0071200Y0192524D01*
X0072657Y0192524D01*
X0074849Y0194715D01*
X0082540Y0187024D01*
X0082200Y0187024D01*
X0082200Y0183224D01*
X0081800Y0183224D01*
X0081800Y0187024D01*
X0080343Y0187024D01*
X0078000Y0184680D01*
X0078000Y0183224D01*
X0081800Y0183224D01*
X0081800Y0182824D01*
X0078000Y0182824D01*
X0078000Y0181367D01*
X0080343Y0179024D01*
X0081800Y0179024D01*
X0081800Y0182824D01*
X0082200Y0182824D01*
X0082200Y0183224D01*
X0086000Y0183224D01*
X0086000Y0183564D01*
X0093859Y0175705D01*
X0091808Y0175705D01*
X0090519Y0174416D01*
X0090519Y0172470D01*
X0083418Y0167624D01*
X0080095Y0167624D01*
X0077400Y0164929D01*
X0077400Y0161118D01*
X0080095Y0158424D01*
X0083905Y0158424D01*
X0086600Y0161118D01*
X0086600Y0162531D01*
X0093942Y0167543D01*
X0097392Y0167543D01*
X0098681Y0168831D01*
X0098681Y0170883D01*
X0106700Y0162864D01*
X0106700Y0152143D01*
X0104400Y0149843D01*
X0104400Y0148975D01*
X0102879Y0148584D01*
X0099600Y0149137D01*
X0099600Y0150798D01*
X0098854Y0152599D01*
X0097476Y0153978D01*
X0095675Y0154724D01*
X0093725Y0154724D01*
X0091924Y0153978D01*
X0090546Y0152599D01*
X0089800Y0150798D01*
X0089800Y0143449D01*
X0090054Y0142837D01*
X0089455Y0142742D01*
X0089284Y0142687D01*
X0089600Y0143449D01*
X0089600Y0150798D01*
X0088854Y0152599D01*
X0087476Y0153978D01*
X0085675Y0154724D01*
X0083725Y0154724D01*
X0081924Y0153978D01*
X0080546Y0152599D01*
X0079800Y0150798D01*
X0079800Y0143449D01*
X0080054Y0142837D01*
X0079455Y0142742D01*
X0078786Y0142525D01*
X0078160Y0142206D01*
X0077592Y0141793D01*
X0077095Y0141296D01*
X0076682Y0140728D01*
X0076363Y0140101D01*
X0076146Y0139433D01*
X0076036Y0138739D01*
X0076036Y0135878D01*
X0080145Y0135878D01*
X0080145Y0135169D01*
X0076036Y0135169D01*
X0076036Y0132308D01*
X0076146Y0131614D01*
X0076363Y0130946D01*
X0076682Y0130320D01*
X0077095Y0129751D01*
X0077592Y0129254D01*
X0078160Y0128841D01*
X0078786Y0128522D01*
X0079455Y0128305D01*
X0080145Y0128196D01*
X0080145Y0135169D01*
X0080855Y0135169D01*
X0080855Y0135878D01*
X0084964Y0135878D01*
X0084964Y0138739D01*
X0084854Y0139433D01*
X0084825Y0139524D01*
X0085675Y0139524D01*
X0086253Y0139763D01*
X0086146Y0139433D01*
X0086036Y0138739D01*
X0086036Y0135878D01*
X0090145Y0135878D01*
X0090145Y0135169D01*
X0086036Y0135169D01*
X0086036Y0132308D01*
X0086146Y0131614D01*
X0086363Y0130946D01*
X0086682Y0130320D01*
X0087095Y0129751D01*
X0087592Y0129254D01*
X0088160Y0128841D01*
X0088786Y0128522D01*
X0089455Y0128305D01*
X0090145Y0128196D01*
X0090145Y0135169D01*
X0090855Y0135169D01*
X0090855Y0128196D01*
X0091545Y0128305D01*
X0092214Y0128522D01*
X0090855Y0128479D02*
X0090145Y0128479D01*
X0090145Y0129677D02*
X0090855Y0129677D01*
X0090855Y0130876D02*
X0090145Y0130876D01*
X0090145Y0132074D02*
X0090855Y0132074D01*
X0090855Y0133273D02*
X0090145Y0133273D01*
X0090145Y0134472D02*
X0090855Y0134472D01*
X0090855Y0135670D02*
X0100145Y0135670D01*
X0100855Y0135670D02*
X0110145Y0135670D01*
X0110855Y0135670D02*
X0199382Y0135670D01*
X0199100Y0136350D02*
X0199100Y0138697D01*
X0199998Y0140866D01*
X0201656Y0142524D01*
X0199998Y0144182D01*
X0199100Y0146350D01*
X0199100Y0148697D01*
X0199998Y0150866D01*
X0201656Y0152524D01*
X0199998Y0154182D01*
X0199100Y0156350D01*
X0199100Y0158697D01*
X0199998Y0160866D01*
X0201656Y0162524D01*
X0199998Y0164182D01*
X0199100Y0166350D01*
X0199100Y0168697D01*
X0199998Y0170866D01*
X0201656Y0172524D01*
X0199998Y0174182D01*
X0199100Y0176350D01*
X0199100Y0178697D01*
X0199998Y0180866D01*
X0201658Y0182525D01*
X0202473Y0182863D01*
X0202222Y0182991D01*
X0201547Y0183481D01*
X0200957Y0184071D01*
X0200467Y0184746D01*
X0200088Y0185489D01*
X0199830Y0186283D01*
X0199700Y0187106D01*
X0199700Y0187124D01*
X0204600Y0187124D01*
X0204600Y0187924D01*
X0205400Y0187924D01*
X0205400Y0192224D01*
X0205400Y0197124D01*
X0210300Y0197124D01*
X0210300Y0197106D01*
X0210169Y0196283D01*
X0209912Y0195489D01*
X0209533Y0194746D01*
X0209043Y0194071D01*
X0208453Y0193481D01*
X0207778Y0192991D01*
X0207034Y0192612D01*
X0206763Y0192524D01*
X0207034Y0192435D01*
X0207778Y0192057D01*
X0208453Y0191566D01*
X0209043Y0190976D01*
X0209533Y0190301D01*
X0209912Y0189558D01*
X0210169Y0188765D01*
X0210300Y0187941D01*
X0210300Y0187924D01*
X0205400Y0187924D01*
X0205400Y0187124D01*
X0210300Y0187124D01*
X0210300Y0187106D01*
X0210169Y0186283D01*
X0209912Y0185489D01*
X0209533Y0184746D01*
X0209043Y0184071D01*
X0208453Y0183481D01*
X0207778Y0182991D01*
X0207527Y0182863D01*
X0208342Y0182525D01*
X0210002Y0180866D01*
X0210900Y0178697D01*
X0210900Y0176350D01*
X0210002Y0174182D01*
X0208344Y0172524D01*
X0210002Y0170866D01*
X0210900Y0168697D01*
X0210900Y0166350D01*
X0210002Y0164182D01*
X0208344Y0162524D01*
X0210002Y0160866D01*
X0210900Y0158697D01*
X0210900Y0156350D01*
X0210002Y0154182D01*
X0208344Y0152524D01*
X0210002Y0150866D01*
X0210900Y0148697D01*
X0210900Y0146350D01*
X0210002Y0144182D01*
X0208344Y0142524D01*
X0210002Y0140866D01*
X0210900Y0138697D01*
X0210900Y0136350D01*
X0210002Y0134182D01*
X0208342Y0132522D01*
X0206174Y0131624D01*
X0203826Y0131624D01*
X0201658Y0132522D01*
X0199998Y0134182D01*
X0199100Y0136350D01*
X0199100Y0136869D02*
X0114964Y0136869D01*
X0114964Y0138067D02*
X0199100Y0138067D01*
X0199335Y0139266D02*
X0114881Y0139266D01*
X0114452Y0140464D02*
X0199832Y0140464D01*
X0200795Y0141663D02*
X0113538Y0141663D01*
X0113257Y0142861D02*
X0116743Y0142861D01*
X0115544Y0144060D02*
X0114456Y0144060D01*
X0110000Y0147524D02*
X0103000Y0145724D01*
X0094700Y0147124D01*
X0089800Y0147655D02*
X0089600Y0147655D01*
X0089600Y0146457D02*
X0089800Y0146457D01*
X0089800Y0145258D02*
X0089600Y0145258D01*
X0089600Y0144060D02*
X0089800Y0144060D01*
X0090043Y0142861D02*
X0089356Y0142861D01*
X0086119Y0139266D02*
X0084881Y0139266D01*
X0084964Y0138067D02*
X0086036Y0138067D01*
X0086036Y0136869D02*
X0084964Y0136869D01*
X0084964Y0135169D02*
X0080855Y0135169D01*
X0080855Y0128196D01*
X0081545Y0128305D01*
X0082214Y0128522D01*
X0082840Y0128841D01*
X0083408Y0129254D01*
X0083905Y0129751D01*
X0084318Y0130320D01*
X0084637Y0130946D01*
X0084854Y0131614D01*
X0084964Y0132308D01*
X0084964Y0135169D01*
X0084964Y0134472D02*
X0086036Y0134472D01*
X0086036Y0133273D02*
X0084964Y0133273D01*
X0084927Y0132074D02*
X0086073Y0132074D01*
X0086398Y0130876D02*
X0084602Y0130876D01*
X0083831Y0129677D02*
X0087169Y0129677D01*
X0088920Y0128479D02*
X0082080Y0128479D01*
X0080855Y0128479D02*
X0080145Y0128479D01*
X0080145Y0129677D02*
X0080855Y0129677D01*
X0080855Y0130876D02*
X0080145Y0130876D01*
X0080145Y0132074D02*
X0080855Y0132074D01*
X0080855Y0133273D02*
X0080145Y0133273D01*
X0080145Y0134472D02*
X0080855Y0134472D01*
X0080855Y0135670D02*
X0090145Y0135670D01*
X0094964Y0134472D02*
X0096036Y0134472D01*
X0096036Y0133273D02*
X0094964Y0133273D01*
X0094927Y0132074D02*
X0096073Y0132074D01*
X0096398Y0130876D02*
X0094602Y0130876D01*
X0093831Y0129677D02*
X0097169Y0129677D01*
X0100145Y0129677D02*
X0100855Y0129677D01*
X0100855Y0128479D02*
X0100145Y0128479D01*
X0100855Y0128196D02*
X0101545Y0128305D01*
X0102214Y0128522D01*
X0102840Y0128841D01*
X0103408Y0129254D01*
X0103905Y0129751D01*
X0104318Y0130320D01*
X0104637Y0130946D01*
X0104854Y0131614D01*
X0104964Y0132308D01*
X0104964Y0135169D01*
X0100855Y0135169D01*
X0100855Y0128196D01*
X0102080Y0128479D02*
X0108920Y0128479D01*
X0110145Y0128479D02*
X0110855Y0128479D01*
X0110855Y0128196D02*
X0111545Y0128305D01*
X0112214Y0128522D01*
X0112840Y0128841D01*
X0113408Y0129254D01*
X0113905Y0129751D01*
X0114318Y0130320D01*
X0114637Y0130946D01*
X0114854Y0131614D01*
X0114964Y0132308D01*
X0114964Y0135169D01*
X0110855Y0135169D01*
X0110855Y0128196D01*
X0112080Y0128479D02*
X0212721Y0128479D01*
X0212721Y0129677D02*
X0113831Y0129677D01*
X0114602Y0130876D02*
X0212721Y0130876D01*
X0212721Y0132074D02*
X0207262Y0132074D01*
X0209093Y0133273D02*
X0212721Y0133273D01*
X0212721Y0134472D02*
X0210122Y0134472D01*
X0210618Y0135670D02*
X0212721Y0135670D01*
X0212721Y0136869D02*
X0210900Y0136869D01*
X0210900Y0138067D02*
X0212721Y0138067D01*
X0212721Y0139266D02*
X0210665Y0139266D01*
X0210168Y0140464D02*
X0212721Y0140464D01*
X0212721Y0141663D02*
X0209205Y0141663D01*
X0208681Y0142861D02*
X0212721Y0142861D01*
X0212721Y0144060D02*
X0209880Y0144060D01*
X0210448Y0145258D02*
X0212721Y0145258D01*
X0212721Y0146457D02*
X0210900Y0146457D01*
X0210900Y0147655D02*
X0212721Y0147655D01*
X0212721Y0148854D02*
X0210835Y0148854D01*
X0210339Y0150052D02*
X0212721Y0150052D01*
X0212721Y0151251D02*
X0209617Y0151251D01*
X0208418Y0152449D02*
X0212721Y0152449D01*
X0212721Y0153648D02*
X0209468Y0153648D01*
X0210277Y0154846D02*
X0212721Y0154846D01*
X0212721Y0156045D02*
X0210774Y0156045D01*
X0210900Y0157243D02*
X0212721Y0157243D01*
X0212721Y0158442D02*
X0210900Y0158442D01*
X0210509Y0159640D02*
X0212721Y0159640D01*
X0212721Y0160839D02*
X0210013Y0160839D01*
X0208830Y0162037D02*
X0212721Y0162037D01*
X0212721Y0163236D02*
X0209056Y0163236D01*
X0210106Y0164434D02*
X0212721Y0164434D01*
X0212721Y0165633D02*
X0210603Y0165633D01*
X0210900Y0166831D02*
X0212721Y0166831D01*
X0212721Y0168030D02*
X0210900Y0168030D01*
X0210680Y0169228D02*
X0212721Y0169228D01*
X0212721Y0170427D02*
X0210184Y0170427D01*
X0209242Y0171625D02*
X0212721Y0171625D01*
X0212721Y0172824D02*
X0208644Y0172824D01*
X0209843Y0174022D02*
X0212721Y0174022D01*
X0212721Y0175221D02*
X0210432Y0175221D01*
X0210900Y0176419D02*
X0212721Y0176419D01*
X0212721Y0177618D02*
X0210900Y0177618D01*
X0210851Y0178816D02*
X0212721Y0178816D01*
X0212721Y0180015D02*
X0210354Y0180015D01*
X0209654Y0181213D02*
X0212721Y0181213D01*
X0212721Y0182412D02*
X0208455Y0182412D01*
X0208582Y0183610D02*
X0212721Y0183610D01*
X0212721Y0184809D02*
X0209565Y0184809D01*
X0210080Y0186008D02*
X0212721Y0186008D01*
X0212721Y0187206D02*
X0205400Y0187206D01*
X0204600Y0187206D02*
X0181600Y0187206D01*
X0181600Y0186008D02*
X0199920Y0186008D01*
X0200435Y0184809D02*
X0180791Y0184809D01*
X0179592Y0183610D02*
X0201418Y0183610D01*
X0201544Y0182412D02*
X0175300Y0182412D01*
X0175300Y0181213D02*
X0200346Y0181213D01*
X0199646Y0180015D02*
X0175254Y0180015D01*
X0174635Y0178816D02*
X0199149Y0178816D01*
X0199100Y0177618D02*
X0166268Y0177618D01*
X0171000Y0174180D02*
X0171000Y0172724D01*
X0174800Y0172724D01*
X0174800Y0176524D01*
X0173343Y0176524D01*
X0171000Y0174180D01*
X0171000Y0174022D02*
X0144418Y0174022D01*
X0145600Y0175221D02*
X0172040Y0175221D01*
X0173239Y0176419D02*
X0145600Y0176419D01*
X0145600Y0177618D02*
X0158732Y0177618D01*
X0158419Y0178816D02*
X0145600Y0178816D01*
X0145428Y0180015D02*
X0158419Y0180015D01*
X0158419Y0181213D02*
X0144230Y0181213D01*
X0143031Y0182412D02*
X0158419Y0182412D01*
X0160786Y0184805D02*
X0161600Y0185618D01*
X0161600Y0189429D01*
X0160700Y0190329D01*
X0160700Y0192564D01*
X0165000Y0196864D01*
X0165000Y0192029D01*
X0162400Y0189429D01*
X0162400Y0185618D01*
X0163214Y0184805D01*
X0160786Y0184805D01*
X0160791Y0184809D02*
X0163209Y0184809D01*
X0162400Y0186008D02*
X0161600Y0186008D01*
X0161600Y0187206D02*
X0162400Y0187206D01*
X0162400Y0188405D02*
X0161600Y0188405D01*
X0161426Y0189603D02*
X0162574Y0189603D01*
X0163773Y0190802D02*
X0160700Y0190802D01*
X0160700Y0192000D02*
X0164971Y0192000D01*
X0165000Y0193199D02*
X0161335Y0193199D01*
X0162533Y0194397D02*
X0165000Y0194397D01*
X0165000Y0195596D02*
X0163732Y0195596D01*
X0164930Y0196794D02*
X0165000Y0196794D01*
X0167800Y0200324D02*
X0192000Y0224524D01*
X0153500Y0263024D01*
X0062200Y0263024D01*
X0045700Y0246524D01*
X0041300Y0246524D01*
X0041000Y0245524D01*
X0037681Y0242338D02*
X0033471Y0242338D01*
X0032657Y0241524D02*
X0031200Y0241524D01*
X0031200Y0245324D01*
X0031200Y0245724D01*
X0030800Y0245724D01*
X0030800Y0249524D01*
X0029343Y0249524D01*
X0027000Y0247180D01*
X0027000Y0245724D01*
X0030800Y0245724D01*
X0030800Y0245324D01*
X0027000Y0245324D01*
X0027000Y0243867D01*
X0029343Y0241524D01*
X0030800Y0241524D01*
X0030800Y0245324D01*
X0031200Y0245324D01*
X0035000Y0245324D01*
X0035000Y0243867D01*
X0032657Y0241524D01*
X0031200Y0242338D02*
X0030800Y0242338D01*
X0030800Y0243536D02*
X0031200Y0243536D01*
X0031200Y0244735D02*
X0030800Y0244735D01*
X0031000Y0245524D02*
X0031400Y0246524D01*
X0035800Y0246524D01*
X0049000Y0259724D01*
X0052300Y0259724D01*
X0053000Y0260524D01*
X0046300Y0274524D01*
X0050730Y0263911D02*
X0036118Y0263911D01*
X0035606Y0264423D02*
X0033915Y0265124D01*
X0032085Y0265124D01*
X0030394Y0264423D01*
X0029100Y0263129D01*
X0028400Y0261439D01*
X0028400Y0259609D01*
X0029100Y0257918D01*
X0020900Y0257918D01*
X0020900Y0258697D02*
X0020002Y0260866D01*
X0018344Y0262524D01*
X0020002Y0264182D01*
X0020900Y0266350D01*
X0020900Y0268697D01*
X0020002Y0270866D01*
X0018344Y0272524D01*
X0020002Y0274182D01*
X0020900Y0276350D01*
X0020900Y0278697D01*
X0020002Y0280866D01*
X0018342Y0282525D01*
X0016174Y0283424D01*
X0013826Y0283424D01*
X0011658Y0282525D01*
X0009998Y0280866D01*
X0009100Y0278697D01*
X0009100Y0276350D01*
X0009998Y0274182D01*
X0011656Y0272524D01*
X0009998Y0270866D01*
X0009100Y0268697D01*
X0009100Y0266350D01*
X0009998Y0264182D01*
X0011656Y0262524D01*
X0009998Y0260866D01*
X0009100Y0258697D01*
X0009100Y0256350D01*
X0009998Y0254182D01*
X0011656Y0252524D01*
X0009998Y0250866D01*
X0009100Y0248697D01*
X0009100Y0246350D01*
X0009998Y0244182D01*
X0011656Y0242524D01*
X0009998Y0240866D01*
X0009100Y0238697D01*
X0009100Y0236350D01*
X0009998Y0234182D01*
X0011656Y0232524D01*
X0009998Y0230866D01*
X0009100Y0228697D01*
X0009100Y0226350D01*
X0009998Y0224182D01*
X0011656Y0222524D01*
X0009998Y0220866D01*
X0009100Y0218697D01*
X0009100Y0216350D01*
X0009998Y0214182D01*
X0011656Y0212524D01*
X0009998Y0210866D01*
X0009100Y0208697D01*
X0009100Y0206350D01*
X0009998Y0204182D01*
X0011658Y0202522D01*
X0013826Y0201624D01*
X0016174Y0201624D01*
X0018342Y0202522D01*
X0020002Y0204182D01*
X0020900Y0206350D01*
X0020900Y0208697D01*
X0020002Y0210866D01*
X0018344Y0212524D01*
X0020002Y0214182D01*
X0020900Y0216350D01*
X0020900Y0218697D01*
X0020002Y0220866D01*
X0018344Y0222524D01*
X0020002Y0224182D01*
X0020900Y0226350D01*
X0020900Y0228697D01*
X0020002Y0230866D01*
X0018344Y0232524D01*
X0020002Y0234182D01*
X0020900Y0236350D01*
X0020900Y0238697D01*
X0020002Y0240866D01*
X0018344Y0242524D01*
X0020002Y0244182D01*
X0020900Y0246350D01*
X0020900Y0248697D01*
X0020002Y0250866D01*
X0018344Y0252524D01*
X0020002Y0254182D01*
X0020900Y0256350D01*
X0020900Y0258697D01*
X0020726Y0259117D02*
X0028604Y0259117D01*
X0028400Y0260315D02*
X0020230Y0260315D01*
X0019354Y0261514D02*
X0028431Y0261514D01*
X0028928Y0262712D02*
X0018532Y0262712D01*
X0019731Y0263911D02*
X0029882Y0263911D01*
X0032050Y0265109D02*
X0020386Y0265109D01*
X0020882Y0266308D02*
X0062625Y0266308D01*
X0063309Y0266024D02*
X0066691Y0266024D01*
X0069814Y0267318D01*
X0072205Y0269709D01*
X0073499Y0272833D01*
X0073499Y0276214D01*
X0072205Y0279338D01*
X0069814Y0281729D01*
X0066691Y0283023D01*
X0063309Y0283023D01*
X0060186Y0281729D01*
X0057795Y0279338D01*
X0056501Y0276214D01*
X0056501Y0272833D01*
X0057795Y0269709D01*
X0060186Y0267318D01*
X0063309Y0266024D01*
X0063360Y0260224D02*
X0065340Y0260224D01*
X0054440Y0249324D01*
X0053705Y0249324D01*
X0053083Y0249946D01*
X0063360Y0260224D01*
X0064233Y0259117D02*
X0062253Y0259117D01*
X0063035Y0257918D02*
X0061054Y0257918D01*
X0061836Y0256720D02*
X0059856Y0256720D01*
X0060638Y0255521D02*
X0058657Y0255521D01*
X0059439Y0254323D02*
X0057459Y0254323D01*
X0058241Y0253124D02*
X0056260Y0253124D01*
X0057042Y0251926D02*
X0055062Y0251926D01*
X0055844Y0250727D02*
X0053863Y0250727D01*
X0053500Y0249529D02*
X0054645Y0249529D01*
X0055600Y0246524D02*
X0069900Y0260824D01*
X0152400Y0260824D01*
X0182100Y0231124D01*
X0182100Y0217924D01*
X0157900Y0193724D01*
X0157900Y0188224D01*
X0157000Y0187524D01*
X0154408Y0183610D02*
X0117800Y0183610D01*
X0117800Y0184809D02*
X0153209Y0184809D01*
X0152400Y0186008D02*
X0117582Y0186008D01*
X0116677Y0187206D02*
X0152400Y0187206D01*
X0152400Y0188405D02*
X0115479Y0188405D01*
X0114280Y0189603D02*
X0152574Y0189603D01*
X0153773Y0190802D02*
X0113082Y0190802D01*
X0112396Y0192000D02*
X0117604Y0192000D01*
X0116405Y0193199D02*
X0113595Y0193199D01*
X0114793Y0194397D02*
X0115207Y0194397D01*
X0116145Y0201588D02*
X0113855Y0201588D01*
X0112657Y0202787D02*
X0117343Y0202787D01*
X0117279Y0203985D02*
X0099898Y0203985D01*
X0098700Y0205184D02*
X0116080Y0205184D01*
X0114882Y0206382D02*
X0097501Y0206382D01*
X0096303Y0207581D02*
X0113683Y0207581D01*
X0112485Y0208779D02*
X0095104Y0208779D01*
X0093906Y0209978D02*
X0111286Y0209978D01*
X0110088Y0211176D02*
X0092707Y0211176D01*
X0091509Y0212375D02*
X0108889Y0212375D01*
X0107691Y0213573D02*
X0073230Y0213573D01*
X0073600Y0214772D02*
X0106492Y0214772D01*
X0105294Y0215970D02*
X0073600Y0215970D01*
X0073600Y0217169D02*
X0104095Y0217169D01*
X0102897Y0218367D02*
X0073600Y0218367D01*
X0073600Y0219566D02*
X0101698Y0219566D01*
X0100499Y0220764D02*
X0073600Y0220764D01*
X0073600Y0221963D02*
X0099301Y0221963D01*
X0098102Y0223161D02*
X0073600Y0223161D01*
X0073600Y0224360D02*
X0096904Y0224360D01*
X0095705Y0225558D02*
X0074208Y0225558D01*
X0074881Y0226757D02*
X0094507Y0226757D01*
X0093308Y0227955D02*
X0074881Y0227955D01*
X0074881Y0229154D02*
X0092110Y0229154D01*
X0090911Y0230352D02*
X0074881Y0230352D01*
X0074881Y0231551D02*
X0089713Y0231551D01*
X0088514Y0232749D02*
X0073948Y0232749D01*
X0070800Y0229024D02*
X0070800Y0215024D01*
X0061000Y0215024D01*
X0061000Y0205524D01*
X0061100Y0205824D01*
X0065500Y0210224D01*
X0089700Y0210224D01*
X0115000Y0184924D01*
X0115000Y0175024D01*
X0119400Y0170624D01*
X0119400Y0147524D01*
X0120000Y0147524D01*
X0122994Y0152449D02*
X0127855Y0152449D01*
X0126656Y0151251D02*
X0124193Y0151251D01*
X0125391Y0150052D02*
X0125458Y0150052D01*
X0122200Y0153648D02*
X0149400Y0153648D01*
X0149400Y0153308D02*
X0150024Y0151801D01*
X0151178Y0150648D01*
X0152684Y0150024D01*
X0154316Y0150024D01*
X0155822Y0150648D01*
X0156976Y0151801D01*
X0157600Y0153308D01*
X0157600Y0154264D01*
X0166560Y0163224D01*
X0167516Y0163224D01*
X0169022Y0163848D01*
X0170176Y0165001D01*
X0170800Y0166508D01*
X0170800Y0168139D01*
X0170176Y0169646D01*
X0169022Y0170799D01*
X0167516Y0171424D01*
X0165884Y0171424D01*
X0164378Y0170799D01*
X0163224Y0169646D01*
X0162600Y0168139D01*
X0162600Y0167183D01*
X0153640Y0158224D01*
X0152684Y0158224D01*
X0151178Y0157599D01*
X0150024Y0156446D01*
X0149400Y0154939D01*
X0149400Y0153308D01*
X0149756Y0152449D02*
X0142145Y0152449D01*
X0142071Y0152524D02*
X0140200Y0152524D01*
X0140200Y0147724D01*
X0139800Y0147724D01*
X0139800Y0152524D01*
X0137929Y0152524D01*
X0135000Y0149595D01*
X0132071Y0152524D01*
X0130200Y0152524D01*
X0130200Y0147724D01*
X0135000Y0147724D01*
X0135000Y0149595D01*
X0135000Y0147724D01*
X0139800Y0147724D01*
X0139800Y0147324D01*
X0135000Y0147324D01*
X0130200Y0147324D01*
X0130200Y0142524D01*
X0132071Y0142524D01*
X0135000Y0145453D01*
X0135000Y0147324D01*
X0135000Y0145453D01*
X0137929Y0142524D01*
X0139800Y0142524D01*
X0139800Y0147324D01*
X0140200Y0147324D01*
X0140200Y0147724D01*
X0145000Y0147724D01*
X0145000Y0149595D01*
X0142071Y0152524D01*
X0143344Y0151251D02*
X0150575Y0151251D01*
X0152616Y0150052D02*
X0144542Y0150052D01*
X0145000Y0148854D02*
X0172165Y0148854D01*
X0173095Y0147924D02*
X0176905Y0147924D01*
X0179600Y0150618D01*
X0179600Y0154429D01*
X0176905Y0157124D01*
X0173095Y0157124D01*
X0170400Y0154429D01*
X0170400Y0150618D01*
X0173095Y0147924D01*
X0170966Y0150052D02*
X0154384Y0150052D01*
X0156425Y0151251D02*
X0170400Y0151251D01*
X0170400Y0152449D02*
X0157244Y0152449D01*
X0157600Y0153648D02*
X0170400Y0153648D01*
X0170817Y0154846D02*
X0158182Y0154846D01*
X0159381Y0156045D02*
X0172016Y0156045D01*
X0167545Y0163236D02*
X0200944Y0163236D01*
X0201170Y0162037D02*
X0165373Y0162037D01*
X0164175Y0160839D02*
X0199987Y0160839D01*
X0199491Y0159640D02*
X0162976Y0159640D01*
X0161778Y0158442D02*
X0199100Y0158442D01*
X0199100Y0157243D02*
X0160579Y0157243D01*
X0156255Y0160839D02*
X0122200Y0160839D01*
X0122200Y0162037D02*
X0157454Y0162037D01*
X0158652Y0163236D02*
X0153986Y0163236D01*
X0153392Y0162643D02*
X0154681Y0163931D01*
X0154681Y0169516D01*
X0153392Y0170805D01*
X0147808Y0170805D01*
X0147527Y0170524D01*
X0133373Y0170524D01*
X0133092Y0170805D01*
X0127508Y0170805D01*
X0126219Y0169516D01*
X0126219Y0163931D01*
X0127508Y0162643D01*
X0133092Y0162643D01*
X0133373Y0162924D01*
X0147527Y0162924D01*
X0147808Y0162643D01*
X0153392Y0162643D01*
X0154681Y0164434D02*
X0159851Y0164434D01*
X0161049Y0165633D02*
X0154681Y0165633D01*
X0154681Y0166831D02*
X0162248Y0166831D01*
X0162600Y0168030D02*
X0154681Y0168030D01*
X0154681Y0169228D02*
X0163051Y0169228D01*
X0164005Y0170427D02*
X0153770Y0170427D01*
X0155057Y0159640D02*
X0122200Y0159640D01*
X0122200Y0158442D02*
X0153858Y0158442D01*
X0153500Y0154124D02*
X0166700Y0167324D01*
X0169609Y0164434D02*
X0199894Y0164434D01*
X0199397Y0165633D02*
X0170437Y0165633D01*
X0170800Y0166831D02*
X0199100Y0166831D01*
X0199100Y0168030D02*
X0170800Y0168030D01*
X0170349Y0169228D02*
X0172638Y0169228D01*
X0173343Y0168524D02*
X0171000Y0170867D01*
X0171000Y0172324D01*
X0174800Y0172324D01*
X0174800Y0172724D01*
X0175200Y0172724D01*
X0175200Y0176524D01*
X0176657Y0176524D01*
X0179000Y0174180D01*
X0179000Y0172724D01*
X0175200Y0172724D01*
X0175200Y0172324D01*
X0179000Y0172324D01*
X0179000Y0170867D01*
X0176657Y0168524D01*
X0175200Y0168524D01*
X0175200Y0172324D01*
X0174800Y0172324D01*
X0174800Y0168524D01*
X0173343Y0168524D01*
X0174800Y0169228D02*
X0175200Y0169228D01*
X0175200Y0170427D02*
X0174800Y0170427D01*
X0174800Y0171625D02*
X0175200Y0171625D01*
X0175200Y0172824D02*
X0174800Y0172824D01*
X0174800Y0174022D02*
X0175200Y0174022D01*
X0175200Y0175221D02*
X0174800Y0175221D01*
X0174800Y0176419D02*
X0175200Y0176419D01*
X0176761Y0176419D02*
X0199100Y0176419D01*
X0199568Y0175221D02*
X0177960Y0175221D01*
X0179000Y0174022D02*
X0200157Y0174022D01*
X0201356Y0172824D02*
X0179000Y0172824D01*
X0179000Y0171625D02*
X0200758Y0171625D01*
X0199816Y0170427D02*
X0178560Y0170427D01*
X0177362Y0169228D02*
X0199320Y0169228D01*
X0199226Y0156045D02*
X0177984Y0156045D01*
X0179183Y0154846D02*
X0199723Y0154846D01*
X0200532Y0153648D02*
X0179600Y0153648D01*
X0179600Y0152449D02*
X0201582Y0152449D01*
X0200383Y0151251D02*
X0179600Y0151251D01*
X0179034Y0150052D02*
X0199661Y0150052D01*
X0199165Y0148854D02*
X0177835Y0148854D01*
X0171440Y0170427D02*
X0169395Y0170427D01*
X0171000Y0171625D02*
X0122016Y0171625D01*
X0122200Y0170427D02*
X0127130Y0170427D01*
X0126219Y0169228D02*
X0122200Y0169228D01*
X0122200Y0168030D02*
X0126219Y0168030D01*
X0126219Y0166831D02*
X0122200Y0166831D01*
X0122200Y0165633D02*
X0126219Y0165633D01*
X0126219Y0164434D02*
X0122200Y0164434D01*
X0122200Y0163236D02*
X0126914Y0163236D01*
X0122200Y0157243D02*
X0150821Y0157243D01*
X0149858Y0156045D02*
X0122200Y0156045D01*
X0122200Y0154846D02*
X0149400Y0154846D01*
X0145000Y0147324D02*
X0140200Y0147324D01*
X0140200Y0142524D01*
X0142071Y0142524D01*
X0145000Y0145453D01*
X0145000Y0147324D01*
X0145000Y0146457D02*
X0199100Y0146457D01*
X0199100Y0147655D02*
X0140200Y0147655D01*
X0139800Y0147655D02*
X0130200Y0147655D01*
X0130200Y0146457D02*
X0129800Y0146457D01*
X0129800Y0145258D02*
X0130200Y0145258D01*
X0130200Y0144060D02*
X0129800Y0144060D01*
X0129800Y0142861D02*
X0130200Y0142861D01*
X0132409Y0142861D02*
X0137591Y0142861D01*
X0136393Y0144060D02*
X0133607Y0144060D01*
X0134806Y0145258D02*
X0135194Y0145258D01*
X0135000Y0146457D02*
X0135000Y0146457D01*
X0135000Y0148854D02*
X0135000Y0148854D01*
X0134542Y0150052D02*
X0135457Y0150052D01*
X0136656Y0151251D02*
X0133344Y0151251D01*
X0132145Y0152449D02*
X0137855Y0152449D01*
X0139800Y0152449D02*
X0140200Y0152449D01*
X0140200Y0151251D02*
X0139800Y0151251D01*
X0139800Y0150052D02*
X0140200Y0150052D01*
X0140200Y0148854D02*
X0139800Y0148854D01*
X0139800Y0146457D02*
X0140200Y0146457D01*
X0140200Y0145258D02*
X0139800Y0145258D01*
X0139800Y0144060D02*
X0140200Y0144060D01*
X0140200Y0142861D02*
X0139800Y0142861D01*
X0142409Y0142861D02*
X0201319Y0142861D01*
X0200120Y0144060D02*
X0143607Y0144060D01*
X0144806Y0145258D02*
X0199552Y0145258D01*
X0199878Y0134472D02*
X0114964Y0134472D01*
X0114964Y0133273D02*
X0200907Y0133273D01*
X0202738Y0132074D02*
X0114927Y0132074D01*
X0110855Y0132074D02*
X0110145Y0132074D01*
X0110145Y0130876D02*
X0110855Y0130876D01*
X0110855Y0129677D02*
X0110145Y0129677D01*
X0107169Y0129677D02*
X0103831Y0129677D01*
X0104602Y0130876D02*
X0106398Y0130876D01*
X0106073Y0132074D02*
X0104927Y0132074D01*
X0104964Y0133273D02*
X0106036Y0133273D01*
X0106036Y0134472D02*
X0104964Y0134472D01*
X0104964Y0136869D02*
X0106036Y0136869D01*
X0106036Y0138067D02*
X0104964Y0138067D01*
X0104881Y0139266D02*
X0106119Y0139266D01*
X0106548Y0140464D02*
X0104452Y0140464D01*
X0103538Y0141663D02*
X0107462Y0141663D01*
X0106743Y0142861D02*
X0099356Y0142861D01*
X0100145Y0141663D02*
X0100855Y0141663D01*
X0100855Y0140464D02*
X0100145Y0140464D01*
X0100145Y0139266D02*
X0100855Y0139266D01*
X0100855Y0138067D02*
X0100145Y0138067D01*
X0100145Y0136869D02*
X0100855Y0136869D01*
X0100855Y0134472D02*
X0100145Y0134472D01*
X0100145Y0133273D02*
X0100855Y0133273D01*
X0100855Y0132074D02*
X0100145Y0132074D01*
X0100145Y0130876D02*
X0100855Y0130876D01*
X0096036Y0136869D02*
X0094964Y0136869D01*
X0094964Y0138067D02*
X0096036Y0138067D01*
X0096119Y0139266D02*
X0094881Y0139266D01*
X0089800Y0148854D02*
X0089600Y0148854D01*
X0089600Y0150052D02*
X0089800Y0150052D01*
X0089987Y0151251D02*
X0089413Y0151251D01*
X0088916Y0152449D02*
X0090484Y0152449D01*
X0091594Y0153648D02*
X0087806Y0153648D01*
X0083923Y0158442D02*
X0106700Y0158442D01*
X0106700Y0159640D02*
X0085122Y0159640D01*
X0086321Y0160839D02*
X0106700Y0160839D01*
X0106700Y0162037D02*
X0086600Y0162037D01*
X0087632Y0163236D02*
X0106328Y0163236D01*
X0105130Y0164434D02*
X0089388Y0164434D01*
X0091144Y0165633D02*
X0103931Y0165633D01*
X0102732Y0166831D02*
X0092900Y0166831D01*
X0089281Y0171625D02*
X0046458Y0171625D01*
X0047657Y0170427D02*
X0087525Y0170427D01*
X0085769Y0169228D02*
X0048855Y0169228D01*
X0050054Y0168030D02*
X0084013Y0168030D01*
X0079302Y0166831D02*
X0051252Y0166831D01*
X0052451Y0165633D02*
X0078104Y0165633D01*
X0077400Y0164434D02*
X0053649Y0164434D01*
X0054848Y0163236D02*
X0077400Y0163236D01*
X0077400Y0162037D02*
X0056046Y0162037D01*
X0057245Y0160839D02*
X0058810Y0160839D01*
X0063190Y0160839D02*
X0068810Y0160839D01*
X0069095Y0161124D02*
X0066400Y0158429D01*
X0066400Y0154618D01*
X0069095Y0151924D01*
X0072905Y0151924D01*
X0075600Y0154618D01*
X0075600Y0158429D01*
X0072905Y0161124D01*
X0069095Y0161124D01*
X0067611Y0159640D02*
X0064389Y0159640D01*
X0065587Y0158442D02*
X0066413Y0158442D01*
X0066400Y0157243D02*
X0065600Y0157243D01*
X0065600Y0156045D02*
X0066400Y0156045D01*
X0066400Y0154846D02*
X0065600Y0154846D01*
X0064629Y0153648D02*
X0067371Y0153648D01*
X0068569Y0152449D02*
X0063431Y0152449D01*
X0061628Y0147655D02*
X0079800Y0147655D01*
X0079800Y0146457D02*
X0062827Y0146457D01*
X0064025Y0145258D02*
X0079800Y0145258D01*
X0079800Y0144060D02*
X0065224Y0144060D01*
X0066422Y0142861D02*
X0080043Y0142861D01*
X0077462Y0141663D02*
X0073538Y0141663D01*
X0074452Y0140464D02*
X0076548Y0140464D01*
X0076119Y0139266D02*
X0074881Y0139266D01*
X0074964Y0138067D02*
X0076036Y0138067D01*
X0076036Y0136869D02*
X0074964Y0136869D01*
X0074964Y0134472D02*
X0076036Y0134472D01*
X0076036Y0133273D02*
X0074964Y0133273D01*
X0074927Y0132074D02*
X0076073Y0132074D01*
X0076398Y0130876D02*
X0074602Y0130876D01*
X0073831Y0129677D02*
X0077169Y0129677D01*
X0078920Y0128479D02*
X0072080Y0128479D01*
X0072103Y0127280D02*
X0212721Y0127280D01*
X0212721Y0126082D02*
X0073301Y0126082D01*
X0074500Y0124883D02*
X0212721Y0124883D01*
X0212721Y0123685D02*
X0075698Y0123685D01*
X0076897Y0122486D02*
X0212721Y0122486D01*
X0212721Y0121288D02*
X0078096Y0121288D01*
X0079294Y0120089D02*
X0212721Y0120089D01*
X0212721Y0118891D02*
X0080493Y0118891D01*
X0081691Y0117692D02*
X0212721Y0117692D01*
X0212721Y0116494D02*
X0082890Y0116494D01*
X0078446Y0113018D02*
X0077631Y0112681D01*
X0077217Y0112266D01*
X0061228Y0128255D01*
X0061545Y0128305D01*
X0062214Y0128522D01*
X0062840Y0128841D01*
X0062900Y0128885D01*
X0063126Y0128338D01*
X0078446Y0113018D01*
X0078156Y0112898D02*
X0076585Y0112898D01*
X0077367Y0114097D02*
X0075387Y0114097D01*
X0076168Y0115295D02*
X0074188Y0115295D01*
X0074970Y0116494D02*
X0072990Y0116494D01*
X0073771Y0117692D02*
X0071791Y0117692D01*
X0072573Y0118891D02*
X0070593Y0118891D01*
X0071374Y0120089D02*
X0069394Y0120089D01*
X0070176Y0121288D02*
X0068196Y0121288D01*
X0068977Y0122486D02*
X0066997Y0122486D01*
X0067779Y0123685D02*
X0065798Y0123685D01*
X0066580Y0124883D02*
X0064600Y0124883D01*
X0065382Y0126082D02*
X0063401Y0126082D01*
X0064183Y0127280D02*
X0062203Y0127280D01*
X0062080Y0128479D02*
X0063068Y0128479D01*
X0059077Y0122486D02*
X0057097Y0122486D01*
X0057879Y0123685D02*
X0055898Y0123685D01*
X0056680Y0124883D02*
X0054700Y0124883D01*
X0055482Y0126082D02*
X0053501Y0126082D01*
X0054283Y0127280D02*
X0052303Y0127280D01*
X0052080Y0128479D02*
X0053168Y0128479D01*
X0053226Y0128338D02*
X0068516Y0113048D01*
X0067631Y0112681D01*
X0067267Y0112316D01*
X0051315Y0128269D01*
X0051545Y0128305D01*
X0052214Y0128522D01*
X0052840Y0128841D01*
X0052976Y0128941D01*
X0053226Y0128338D01*
X0058296Y0121288D02*
X0060276Y0121288D01*
X0059494Y0120089D02*
X0061474Y0120089D01*
X0060693Y0118891D02*
X0062673Y0118891D01*
X0061891Y0117692D02*
X0063871Y0117692D01*
X0063090Y0116494D02*
X0065070Y0116494D01*
X0064288Y0115295D02*
X0066268Y0115295D01*
X0065487Y0114097D02*
X0067467Y0114097D01*
X0068156Y0112898D02*
X0066685Y0112898D01*
X0069900Y0105724D02*
X0070500Y0105524D01*
X0069900Y0105724D02*
X0045700Y0129924D01*
X0045700Y0139824D01*
X0044200Y0143624D01*
X0046800Y0144664D02*
X0048902Y0142562D01*
X0048786Y0142525D01*
X0048160Y0142206D01*
X0047857Y0141985D01*
X0047000Y0144156D01*
X0047000Y0144181D01*
X0046800Y0144664D01*
X0047038Y0144060D02*
X0047404Y0144060D01*
X0047511Y0142861D02*
X0048603Y0142861D01*
X0052927Y0146457D02*
X0054907Y0146457D01*
X0054326Y0147038D02*
X0053900Y0148067D01*
X0053900Y0152918D01*
X0052905Y0151924D01*
X0049600Y0151924D01*
X0049600Y0149783D01*
X0057186Y0142197D01*
X0057591Y0141792D01*
X0057592Y0141793D01*
X0058160Y0142206D01*
X0058786Y0142525D01*
X0058826Y0142538D01*
X0054326Y0147038D01*
X0054070Y0147655D02*
X0051728Y0147655D01*
X0050530Y0148854D02*
X0053900Y0148854D01*
X0053900Y0150052D02*
X0049600Y0150052D01*
X0049600Y0151251D02*
X0053900Y0151251D01*
X0053900Y0152449D02*
X0053431Y0152449D01*
X0054125Y0145258D02*
X0056106Y0145258D01*
X0055324Y0144060D02*
X0057304Y0144060D01*
X0056522Y0142861D02*
X0058503Y0142861D01*
X0060430Y0148854D02*
X0079800Y0148854D01*
X0079800Y0150052D02*
X0059500Y0150052D01*
X0059500Y0151251D02*
X0079987Y0151251D01*
X0080484Y0152449D02*
X0073431Y0152449D01*
X0074629Y0153648D02*
X0081594Y0153648D01*
X0080076Y0158442D02*
X0075587Y0158442D01*
X0075600Y0157243D02*
X0106700Y0157243D01*
X0106700Y0156045D02*
X0075600Y0156045D01*
X0075600Y0154846D02*
X0106700Y0154846D01*
X0106700Y0153648D02*
X0097806Y0153648D01*
X0098916Y0152449D02*
X0106700Y0152449D01*
X0105807Y0151251D02*
X0099413Y0151251D01*
X0099600Y0150052D02*
X0104609Y0150052D01*
X0103929Y0148854D02*
X0101278Y0148854D01*
X0109500Y0147524D02*
X0109500Y0164024D01*
X0098500Y0175024D01*
X0099600Y0175024D01*
X0109500Y0184924D01*
X0105400Y0184809D02*
X0092674Y0184809D01*
X0091476Y0186008D02*
X0105511Y0186008D01*
X0105400Y0185739D02*
X0105400Y0184783D01*
X0099050Y0178433D01*
X0074733Y0202751D01*
X0075600Y0203618D01*
X0075600Y0207424D01*
X0088540Y0207424D01*
X0107451Y0188513D01*
X0107178Y0188399D01*
X0106024Y0187246D01*
X0105400Y0185739D01*
X0106008Y0187206D02*
X0090277Y0187206D01*
X0089079Y0188405D02*
X0107190Y0188405D01*
X0106361Y0189603D02*
X0087880Y0189603D01*
X0086682Y0190802D02*
X0105162Y0190802D01*
X0103964Y0192000D02*
X0085483Y0192000D01*
X0084285Y0193199D02*
X0102765Y0193199D01*
X0101567Y0194397D02*
X0083086Y0194397D01*
X0081888Y0195596D02*
X0100368Y0195596D01*
X0099170Y0196794D02*
X0080689Y0196794D01*
X0079491Y0197993D02*
X0097971Y0197993D01*
X0096773Y0199191D02*
X0078292Y0199191D01*
X0077094Y0200390D02*
X0095574Y0200390D01*
X0094376Y0201588D02*
X0075895Y0201588D01*
X0074768Y0202787D02*
X0093177Y0202787D01*
X0091979Y0203985D02*
X0075600Y0203985D01*
X0075600Y0205184D02*
X0090780Y0205184D01*
X0089582Y0206382D02*
X0075600Y0206382D01*
X0071000Y0205524D02*
X0071000Y0202524D01*
X0098500Y0175024D01*
X0098667Y0178816D02*
X0099433Y0178816D01*
X0100632Y0180015D02*
X0097468Y0180015D01*
X0096270Y0181213D02*
X0101830Y0181213D01*
X0103029Y0182412D02*
X0095071Y0182412D01*
X0093873Y0183610D02*
X0104227Y0183610D01*
X0104400Y0175864D02*
X0103010Y0174474D01*
X0111086Y0166397D01*
X0111874Y0165610D01*
X0112300Y0164581D01*
X0112300Y0153124D01*
X0112320Y0153124D01*
X0115000Y0150443D01*
X0116600Y0152043D01*
X0116600Y0169464D01*
X0113414Y0172650D01*
X0113230Y0172834D01*
X0112320Y0171924D01*
X0107680Y0171924D01*
X0104400Y0175204D01*
X0104400Y0175864D01*
X0104400Y0175221D02*
X0103757Y0175221D01*
X0103461Y0174022D02*
X0105582Y0174022D01*
X0104660Y0172824D02*
X0106780Y0172824D01*
X0105858Y0171625D02*
X0114438Y0171625D01*
X0113240Y0172824D02*
X0113220Y0172824D01*
X0115637Y0170427D02*
X0107057Y0170427D01*
X0108255Y0169228D02*
X0116600Y0169228D01*
X0116600Y0168030D02*
X0109454Y0168030D01*
X0110652Y0166831D02*
X0116600Y0166831D01*
X0116600Y0165633D02*
X0111851Y0165633D01*
X0112300Y0164434D02*
X0116600Y0164434D01*
X0116600Y0163236D02*
X0112300Y0163236D01*
X0112300Y0162037D02*
X0116600Y0162037D01*
X0116600Y0160839D02*
X0112300Y0160839D01*
X0112300Y0159640D02*
X0116600Y0159640D01*
X0116600Y0158442D02*
X0112300Y0158442D01*
X0112300Y0157243D02*
X0116600Y0157243D01*
X0116600Y0156045D02*
X0112300Y0156045D01*
X0112300Y0154846D02*
X0116600Y0154846D01*
X0116600Y0153648D02*
X0112300Y0153648D01*
X0112994Y0152449D02*
X0116600Y0152449D01*
X0115807Y0151251D02*
X0114193Y0151251D01*
X0123257Y0142861D02*
X0127591Y0142861D01*
X0126393Y0144060D02*
X0124456Y0144060D01*
X0129800Y0148854D02*
X0130200Y0148854D01*
X0130200Y0150052D02*
X0129800Y0150052D01*
X0129800Y0151251D02*
X0130200Y0151251D01*
X0130200Y0152449D02*
X0129800Y0152449D01*
X0126780Y0172824D02*
X0123220Y0172824D01*
X0124418Y0174022D02*
X0125582Y0174022D01*
X0125770Y0181213D02*
X0124230Y0181213D01*
X0123031Y0182412D02*
X0126969Y0182412D01*
X0133031Y0182412D02*
X0136969Y0182412D01*
X0135770Y0181213D02*
X0134230Y0181213D01*
X0134418Y0174022D02*
X0135582Y0174022D01*
X0136780Y0172824D02*
X0133220Y0172824D01*
X0143220Y0172824D02*
X0171000Y0172824D01*
X0167000Y0187524D02*
X0167800Y0188224D01*
X0167800Y0200324D01*
X0170627Y0199191D02*
X0175325Y0199191D01*
X0174126Y0197993D02*
X0170600Y0197993D01*
X0170600Y0196794D02*
X0172928Y0196794D01*
X0171729Y0195596D02*
X0170600Y0195596D01*
X0171826Y0200390D02*
X0176523Y0200390D01*
X0177722Y0201588D02*
X0173024Y0201588D01*
X0174223Y0202787D02*
X0178920Y0202787D01*
X0180119Y0203985D02*
X0175421Y0203985D01*
X0176620Y0205184D02*
X0181317Y0205184D01*
X0182516Y0206382D02*
X0177818Y0206382D01*
X0179017Y0207581D02*
X0183714Y0207581D01*
X0184913Y0208779D02*
X0180215Y0208779D01*
X0181414Y0209978D02*
X0186268Y0209978D01*
X0183811Y0212375D02*
X0201507Y0212375D01*
X0200309Y0211176D02*
X0182612Y0211176D01*
X0185009Y0213573D02*
X0212721Y0213573D01*
X0212721Y0212375D02*
X0208493Y0212375D01*
X0209691Y0211176D02*
X0212721Y0211176D01*
X0212721Y0209978D02*
X0210370Y0209978D01*
X0210866Y0208779D02*
X0212721Y0208779D01*
X0212721Y0207581D02*
X0210900Y0207581D01*
X0210900Y0206382D02*
X0212721Y0206382D01*
X0212721Y0205184D02*
X0210417Y0205184D01*
X0209805Y0203985D02*
X0212721Y0203985D01*
X0212721Y0202787D02*
X0208607Y0202787D01*
X0208423Y0201588D02*
X0212721Y0201588D01*
X0212721Y0200390D02*
X0209469Y0200390D01*
X0210031Y0199191D02*
X0212721Y0199191D01*
X0212721Y0197993D02*
X0210292Y0197993D01*
X0210251Y0196794D02*
X0212721Y0196794D01*
X0212721Y0195596D02*
X0209946Y0195596D01*
X0209280Y0194397D02*
X0212721Y0194397D01*
X0212721Y0193199D02*
X0208064Y0193199D01*
X0207856Y0192000D02*
X0212721Y0192000D01*
X0212721Y0190802D02*
X0209170Y0190802D01*
X0209889Y0189603D02*
X0212721Y0189603D01*
X0212721Y0188405D02*
X0210227Y0188405D01*
X0205400Y0188405D02*
X0204600Y0188405D01*
X0204600Y0189603D02*
X0205400Y0189603D01*
X0205400Y0190802D02*
X0204600Y0190802D01*
X0204600Y0192000D02*
X0205400Y0192000D01*
X0205400Y0193199D02*
X0204600Y0193199D01*
X0204600Y0194397D02*
X0205400Y0194397D01*
X0205400Y0195596D02*
X0204600Y0195596D01*
X0204600Y0196794D02*
X0205400Y0196794D01*
X0201936Y0193199D02*
X0177818Y0193199D01*
X0179016Y0194397D02*
X0200720Y0194397D01*
X0200054Y0195596D02*
X0180215Y0195596D01*
X0181413Y0196794D02*
X0199749Y0196794D01*
X0199708Y0197993D02*
X0182612Y0197993D01*
X0183810Y0199191D02*
X0199969Y0199191D01*
X0200531Y0200390D02*
X0185009Y0200390D01*
X0186207Y0201588D02*
X0201577Y0201588D01*
X0201393Y0202787D02*
X0187406Y0202787D01*
X0188604Y0203985D02*
X0200195Y0203985D01*
X0202144Y0192000D02*
X0179029Y0192000D01*
X0180227Y0190802D02*
X0200830Y0190802D01*
X0200111Y0189603D02*
X0181426Y0189603D01*
X0181600Y0188405D02*
X0199773Y0188405D01*
X0212721Y0214772D02*
X0186208Y0214772D01*
X0187406Y0215970D02*
X0212721Y0215970D01*
X0212721Y0217169D02*
X0188605Y0217169D01*
X0189803Y0218367D02*
X0212721Y0218367D01*
X0212721Y0219566D02*
X0191002Y0219566D01*
X0192200Y0220764D02*
X0212721Y0220764D01*
X0212721Y0221963D02*
X0206993Y0221963D01*
X0208982Y0223161D02*
X0212721Y0223161D01*
X0212721Y0224360D02*
X0210076Y0224360D01*
X0210572Y0225558D02*
X0212721Y0225558D01*
X0212721Y0226757D02*
X0210900Y0226757D01*
X0210900Y0227955D02*
X0212721Y0227955D01*
X0212721Y0229154D02*
X0210711Y0229154D01*
X0210214Y0230352D02*
X0212721Y0230352D01*
X0212721Y0231551D02*
X0209317Y0231551D01*
X0208570Y0232749D02*
X0212721Y0232749D01*
X0212721Y0233948D02*
X0209768Y0233948D01*
X0210401Y0235146D02*
X0212721Y0235146D01*
X0212721Y0236345D02*
X0210898Y0236345D01*
X0210900Y0237543D02*
X0212721Y0237543D01*
X0212721Y0238742D02*
X0210881Y0238742D01*
X0210385Y0239941D02*
X0212721Y0239941D01*
X0212721Y0241139D02*
X0209728Y0241139D01*
X0208530Y0242338D02*
X0212721Y0242338D01*
X0212721Y0243536D02*
X0209356Y0243536D01*
X0210231Y0244735D02*
X0212721Y0244735D01*
X0212721Y0245933D02*
X0210727Y0245933D01*
X0210900Y0247132D02*
X0212721Y0247132D01*
X0212721Y0248330D02*
X0210900Y0248330D01*
X0210556Y0249529D02*
X0212721Y0249529D01*
X0212721Y0250727D02*
X0210059Y0250727D01*
X0208942Y0251926D02*
X0212721Y0251926D01*
X0212721Y0253124D02*
X0208944Y0253124D01*
X0210060Y0254323D02*
X0212721Y0254323D01*
X0212721Y0255521D02*
X0210557Y0255521D01*
X0210900Y0256720D02*
X0212721Y0256720D01*
X0212721Y0257918D02*
X0210900Y0257918D01*
X0210726Y0259117D02*
X0212721Y0259117D01*
X0212721Y0260315D02*
X0210230Y0260315D01*
X0209354Y0261514D02*
X0212721Y0261514D01*
X0212721Y0262712D02*
X0208532Y0262712D01*
X0209731Y0263911D02*
X0212721Y0263911D01*
X0212721Y0265109D02*
X0210386Y0265109D01*
X0210882Y0266308D02*
X0212721Y0266308D01*
X0212721Y0267506D02*
X0210900Y0267506D01*
X0210897Y0268705D02*
X0212721Y0268705D01*
X0212721Y0269903D02*
X0210400Y0269903D01*
X0209766Y0271102D02*
X0212721Y0271102D01*
X0212721Y0272300D02*
X0208567Y0272300D01*
X0209319Y0273499D02*
X0212721Y0273499D01*
X0212721Y0274697D02*
X0210215Y0274697D01*
X0210712Y0275896D02*
X0212721Y0275896D01*
X0212721Y0277094D02*
X0210900Y0277094D01*
X0210900Y0278293D02*
X0212721Y0278293D01*
X0212721Y0279491D02*
X0210571Y0279491D01*
X0210075Y0280690D02*
X0212721Y0280690D01*
X0212721Y0281888D02*
X0208979Y0281888D01*
X0206986Y0283087D02*
X0212721Y0283087D01*
X0212721Y0284285D02*
X0007200Y0284285D01*
X0007200Y0283087D02*
X0013014Y0283087D01*
X0011021Y0281888D02*
X0007200Y0281888D01*
X0007200Y0280690D02*
X0009925Y0280690D01*
X0009429Y0279491D02*
X0007200Y0279491D01*
X0007200Y0278293D02*
X0009100Y0278293D01*
X0009100Y0277094D02*
X0007200Y0277094D01*
X0007200Y0275896D02*
X0009288Y0275896D01*
X0009785Y0274697D02*
X0007200Y0274697D01*
X0007200Y0273499D02*
X0010681Y0273499D01*
X0011433Y0272300D02*
X0007200Y0272300D01*
X0007200Y0271102D02*
X0010234Y0271102D01*
X0009600Y0269903D02*
X0007200Y0269903D01*
X0007200Y0268705D02*
X0009103Y0268705D01*
X0009100Y0267506D02*
X0007200Y0267506D01*
X0007200Y0266308D02*
X0009117Y0266308D01*
X0009614Y0265109D02*
X0007200Y0265109D01*
X0007200Y0263911D02*
X0010269Y0263911D01*
X0011468Y0262712D02*
X0007200Y0262712D01*
X0007200Y0261514D02*
X0010646Y0261514D01*
X0009770Y0260315D02*
X0007200Y0260315D01*
X0007200Y0259117D02*
X0009274Y0259117D01*
X0009100Y0257918D02*
X0007200Y0257918D01*
X0007200Y0256720D02*
X0009100Y0256720D01*
X0009443Y0255521D02*
X0007200Y0255521D01*
X0007200Y0254323D02*
X0009940Y0254323D01*
X0011056Y0253124D02*
X0007200Y0253124D01*
X0007200Y0251926D02*
X0011058Y0251926D01*
X0009941Y0250727D02*
X0007200Y0250727D01*
X0007200Y0249529D02*
X0009444Y0249529D01*
X0009100Y0248330D02*
X0007200Y0248330D01*
X0007200Y0247132D02*
X0009100Y0247132D01*
X0009273Y0245933D02*
X0007200Y0245933D01*
X0007200Y0244735D02*
X0009769Y0244735D01*
X0010644Y0243536D02*
X0007200Y0243536D01*
X0007200Y0242338D02*
X0011470Y0242338D01*
X0010272Y0241139D02*
X0007200Y0241139D01*
X0007200Y0239941D02*
X0009615Y0239941D01*
X0009119Y0238742D02*
X0007200Y0238742D01*
X0007200Y0237543D02*
X0009100Y0237543D01*
X0009102Y0236345D02*
X0007200Y0236345D01*
X0007200Y0235146D02*
X0009599Y0235146D01*
X0010232Y0233948D02*
X0007200Y0233948D01*
X0007200Y0232749D02*
X0011430Y0232749D01*
X0010683Y0231551D02*
X0007200Y0231551D01*
X0007200Y0230352D02*
X0009786Y0230352D01*
X0009289Y0229154D02*
X0007200Y0229154D01*
X0007200Y0227955D02*
X0009100Y0227955D01*
X0009100Y0226757D02*
X0007200Y0226757D01*
X0007200Y0225558D02*
X0009428Y0225558D01*
X0009924Y0224360D02*
X0007200Y0224360D01*
X0007200Y0223161D02*
X0011018Y0223161D01*
X0011095Y0221963D02*
X0007200Y0221963D01*
X0007200Y0220764D02*
X0009956Y0220764D01*
X0009460Y0219566D02*
X0007200Y0219566D01*
X0007200Y0218367D02*
X0009100Y0218367D01*
X0009100Y0217169D02*
X0007200Y0217169D01*
X0007200Y0215970D02*
X0009257Y0215970D01*
X0009754Y0214772D02*
X0007200Y0214772D01*
X0007200Y0213573D02*
X0010606Y0213573D01*
X0011507Y0212375D02*
X0007200Y0212375D01*
X0007200Y0211176D02*
X0010309Y0211176D01*
X0009630Y0209978D02*
X0007200Y0209978D01*
X0007200Y0208779D02*
X0009134Y0208779D01*
X0009100Y0207581D02*
X0007200Y0207581D01*
X0007200Y0206382D02*
X0009100Y0206382D01*
X0009583Y0205184D02*
X0007200Y0205184D01*
X0007200Y0203985D02*
X0010195Y0203985D01*
X0011393Y0202787D02*
X0007200Y0202787D01*
X0007200Y0201588D02*
X0028430Y0201588D01*
X0029243Y0200524D02*
X0026900Y0198180D01*
X0026900Y0196724D01*
X0030700Y0196724D01*
X0030700Y0200524D01*
X0029243Y0200524D01*
X0029109Y0200390D02*
X0007200Y0200390D01*
X0007200Y0199191D02*
X0027911Y0199191D01*
X0026900Y0197993D02*
X0017214Y0197993D01*
X0019073Y0196794D02*
X0026900Y0196794D01*
X0026900Y0196324D02*
X0026900Y0194867D01*
X0029243Y0192524D01*
X0030700Y0192524D01*
X0030700Y0196324D01*
X0026900Y0196324D01*
X0026900Y0195596D02*
X0020114Y0195596D01*
X0020610Y0194397D02*
X0027370Y0194397D01*
X0028568Y0193199D02*
X0024885Y0193199D01*
X0026083Y0192000D02*
X0049018Y0192000D01*
X0047820Y0193199D02*
X0043332Y0193199D01*
X0042657Y0192524D02*
X0045000Y0194867D01*
X0045000Y0196324D01*
X0041200Y0196324D01*
X0041200Y0196724D01*
X0040800Y0196724D01*
X0040800Y0200524D01*
X0039343Y0200524D01*
X0037000Y0198180D01*
X0037000Y0196724D01*
X0040800Y0196724D01*
X0040800Y0196324D01*
X0037000Y0196324D01*
X0037000Y0194867D01*
X0039343Y0192524D01*
X0040800Y0192524D01*
X0040800Y0196324D01*
X0041200Y0196324D01*
X0041200Y0192524D01*
X0042657Y0192524D01*
X0041200Y0193199D02*
X0040800Y0193199D01*
X0040800Y0194397D02*
X0041200Y0194397D01*
X0041200Y0195596D02*
X0040800Y0195596D01*
X0041200Y0196724D02*
X0045000Y0196724D01*
X0045000Y0198180D01*
X0042657Y0200524D01*
X0041200Y0200524D01*
X0041200Y0196724D01*
X0041200Y0196794D02*
X0040800Y0196794D01*
X0040800Y0197993D02*
X0041200Y0197993D01*
X0041200Y0199191D02*
X0040800Y0199191D01*
X0040800Y0200390D02*
X0041200Y0200390D01*
X0041200Y0201524D02*
X0042657Y0201524D01*
X0045000Y0203867D01*
X0045000Y0205324D01*
X0041200Y0205324D01*
X0041200Y0205724D01*
X0040800Y0205724D01*
X0040800Y0209524D01*
X0039343Y0209524D01*
X0037000Y0207180D01*
X0037000Y0205724D01*
X0040800Y0205724D01*
X0040800Y0205324D01*
X0037000Y0205324D01*
X0037000Y0203867D01*
X0039343Y0201524D01*
X0040800Y0201524D01*
X0040800Y0205324D01*
X0041200Y0205324D01*
X0041200Y0201524D01*
X0041200Y0201588D02*
X0040800Y0201588D01*
X0040800Y0202787D02*
X0041200Y0202787D01*
X0041200Y0203985D02*
X0040800Y0203985D01*
X0040800Y0205184D02*
X0041200Y0205184D01*
X0041000Y0205524D02*
X0041300Y0205824D01*
X0050100Y0205824D01*
X0051000Y0205524D01*
X0050800Y0205184D02*
X0051200Y0205184D01*
X0051200Y0206382D02*
X0050800Y0206382D01*
X0050800Y0207581D02*
X0051200Y0207581D01*
X0051200Y0208779D02*
X0050800Y0208779D01*
X0048599Y0208779D02*
X0043401Y0208779D01*
X0042657Y0209524D02*
X0045000Y0207180D01*
X0045000Y0205724D01*
X0041200Y0205724D01*
X0041200Y0209524D01*
X0042657Y0209524D01*
X0041200Y0208779D02*
X0040800Y0208779D01*
X0040800Y0207581D02*
X0041200Y0207581D01*
X0041200Y0206382D02*
X0040800Y0206382D01*
X0038599Y0208779D02*
X0035015Y0208779D01*
X0035448Y0207581D02*
X0037400Y0207581D01*
X0037000Y0206382D02*
X0035600Y0206382D01*
X0035600Y0205184D02*
X0037000Y0205184D01*
X0037000Y0203985D02*
X0035600Y0203985D01*
X0034768Y0202787D02*
X0038080Y0202787D01*
X0039279Y0201588D02*
X0033570Y0201588D01*
X0032557Y0200524D02*
X0031100Y0200524D01*
X0031100Y0196724D01*
X0030700Y0196724D01*
X0030700Y0196324D01*
X0031100Y0196324D01*
X0031100Y0196724D01*
X0034900Y0196724D01*
X0034900Y0198180D01*
X0032557Y0200524D01*
X0032691Y0200390D02*
X0039209Y0200390D01*
X0038011Y0199191D02*
X0033889Y0199191D01*
X0034900Y0197993D02*
X0037000Y0197993D01*
X0037000Y0196794D02*
X0034900Y0196794D01*
X0034900Y0196324D02*
X0031100Y0196324D01*
X0031100Y0192524D01*
X0032557Y0192524D01*
X0034900Y0194867D01*
X0034900Y0196324D01*
X0034900Y0195596D02*
X0037000Y0195596D01*
X0037470Y0194397D02*
X0034430Y0194397D01*
X0033232Y0193199D02*
X0038668Y0193199D01*
X0044530Y0194397D02*
X0046621Y0194397D01*
X0046400Y0195596D02*
X0045000Y0195596D01*
X0045000Y0196794D02*
X0046400Y0196794D01*
X0046400Y0197993D02*
X0045000Y0197993D01*
X0043989Y0199191D02*
X0047162Y0199191D01*
X0048361Y0200390D02*
X0042791Y0200390D01*
X0042721Y0201588D02*
X0049279Y0201588D01*
X0050800Y0201588D02*
X0051123Y0201588D01*
X0051200Y0202787D02*
X0050800Y0202787D01*
X0050800Y0203985D02*
X0051200Y0203985D01*
X0048080Y0202787D02*
X0043920Y0202787D01*
X0045000Y0203985D02*
X0047000Y0203985D01*
X0047000Y0205184D02*
X0045000Y0205184D01*
X0045000Y0206382D02*
X0047000Y0206382D01*
X0047400Y0207581D02*
X0044600Y0207581D01*
X0039809Y0213573D02*
X0053300Y0213573D01*
X0053300Y0212375D02*
X0038611Y0212375D01*
X0037412Y0211176D02*
X0053300Y0211176D01*
X0053300Y0209978D02*
X0036214Y0209978D01*
X0033088Y0214772D02*
X0020246Y0214772D01*
X0020743Y0215970D02*
X0034287Y0215970D01*
X0035485Y0217169D02*
X0020900Y0217169D01*
X0020900Y0218367D02*
X0036684Y0218367D01*
X0037882Y0219566D02*
X0020540Y0219566D01*
X0020044Y0220764D02*
X0039081Y0220764D01*
X0040279Y0221963D02*
X0018905Y0221963D01*
X0018982Y0223161D02*
X0041478Y0223161D01*
X0042676Y0224360D02*
X0020076Y0224360D01*
X0020572Y0225558D02*
X0043875Y0225558D01*
X0045073Y0226757D02*
X0020900Y0226757D01*
X0020900Y0227955D02*
X0046272Y0227955D01*
X0047471Y0229154D02*
X0020711Y0229154D01*
X0020214Y0230352D02*
X0048669Y0230352D01*
X0049868Y0231551D02*
X0019317Y0231551D01*
X0018570Y0232749D02*
X0051066Y0232749D01*
X0052265Y0233948D02*
X0019768Y0233948D01*
X0020401Y0235146D02*
X0053463Y0235146D01*
X0054662Y0236345D02*
X0020898Y0236345D01*
X0020900Y0237543D02*
X0055860Y0237543D01*
X0057059Y0238742D02*
X0020881Y0238742D01*
X0020385Y0239941D02*
X0058257Y0239941D01*
X0058879Y0241139D02*
X0053121Y0241139D01*
X0054319Y0242338D02*
X0057681Y0242338D01*
X0056482Y0243536D02*
X0055518Y0243536D01*
X0055600Y0246524D02*
X0051200Y0246524D01*
X0051000Y0245524D01*
X0047681Y0242338D02*
X0044319Y0242338D01*
X0045518Y0243536D02*
X0046482Y0243536D01*
X0048879Y0241139D02*
X0043121Y0241139D01*
X0038879Y0241139D02*
X0019728Y0241139D01*
X0018530Y0242338D02*
X0028529Y0242338D01*
X0027331Y0243536D02*
X0019356Y0243536D01*
X0020231Y0244735D02*
X0027000Y0244735D01*
X0027000Y0245933D02*
X0020727Y0245933D01*
X0020900Y0247132D02*
X0027000Y0247132D01*
X0028150Y0248330D02*
X0020900Y0248330D01*
X0020556Y0249529D02*
X0038500Y0249529D01*
X0037301Y0248330D02*
X0033850Y0248330D01*
X0035000Y0247180D02*
X0032657Y0249524D01*
X0031200Y0249524D01*
X0031200Y0245724D01*
X0035000Y0245724D01*
X0035000Y0247180D01*
X0035000Y0247132D02*
X0036400Y0247132D01*
X0036400Y0245933D02*
X0035000Y0245933D01*
X0035000Y0244735D02*
X0036400Y0244735D01*
X0036482Y0243536D02*
X0034669Y0243536D01*
X0031200Y0245933D02*
X0030800Y0245933D01*
X0030800Y0247132D02*
X0031200Y0247132D01*
X0031200Y0248330D02*
X0030800Y0248330D01*
X0032085Y0255924D02*
X0033915Y0255924D01*
X0035606Y0256624D01*
X0036900Y0257918D01*
X0049949Y0257918D01*
X0049000Y0259117D02*
X0037396Y0259117D01*
X0037600Y0259609D02*
X0036900Y0257918D01*
X0035701Y0256720D02*
X0051147Y0256720D01*
X0050738Y0255521D02*
X0020557Y0255521D01*
X0020900Y0256720D02*
X0030299Y0256720D01*
X0030394Y0256624D02*
X0029100Y0257918D01*
X0030394Y0256624D02*
X0032085Y0255924D01*
X0037600Y0259609D02*
X0037600Y0261439D01*
X0036900Y0263129D01*
X0035606Y0264423D01*
X0033950Y0265109D02*
X0060326Y0265109D01*
X0059127Y0263911D02*
X0055270Y0263911D01*
X0056468Y0262712D02*
X0057929Y0262712D01*
X0053200Y0262712D02*
X0052800Y0262712D01*
X0052800Y0261514D02*
X0053200Y0261514D01*
X0053200Y0263911D02*
X0052800Y0263911D01*
X0049532Y0262712D02*
X0037072Y0262712D01*
X0037569Y0261514D02*
X0049000Y0261514D01*
X0049000Y0260315D02*
X0037600Y0260315D01*
X0043500Y0249529D02*
X0044745Y0249529D01*
X0045944Y0250727D02*
X0020059Y0250727D01*
X0018942Y0251926D02*
X0047142Y0251926D01*
X0048341Y0253124D02*
X0018944Y0253124D01*
X0020060Y0254323D02*
X0049539Y0254323D01*
X0059998Y0267506D02*
X0020900Y0267506D01*
X0020897Y0268705D02*
X0058799Y0268705D01*
X0057714Y0269903D02*
X0020400Y0269903D01*
X0019766Y0271102D02*
X0057218Y0271102D01*
X0056721Y0272300D02*
X0018567Y0272300D01*
X0019319Y0273499D02*
X0056501Y0273499D01*
X0056501Y0274697D02*
X0020215Y0274697D01*
X0020712Y0275896D02*
X0056501Y0275896D01*
X0056865Y0277094D02*
X0020900Y0277094D01*
X0020900Y0278293D02*
X0057362Y0278293D01*
X0057948Y0279491D02*
X0020571Y0279491D01*
X0020075Y0280690D02*
X0059147Y0280690D01*
X0060571Y0281888D02*
X0018979Y0281888D01*
X0016986Y0283087D02*
X0203014Y0283087D01*
X0201021Y0281888D02*
X0169429Y0281888D01*
X0169814Y0281729D02*
X0166691Y0283023D01*
X0163309Y0283023D01*
X0160186Y0281729D01*
X0157795Y0279338D01*
X0156501Y0276214D01*
X0156501Y0272833D01*
X0157795Y0269709D01*
X0160186Y0267318D01*
X0163309Y0266024D01*
X0166691Y0266024D01*
X0169814Y0267318D01*
X0172205Y0269709D01*
X0173499Y0272833D01*
X0173499Y0276214D01*
X0172205Y0279338D01*
X0169814Y0281729D01*
X0170853Y0280690D02*
X0199925Y0280690D01*
X0199429Y0279491D02*
X0172052Y0279491D01*
X0172638Y0278293D02*
X0199100Y0278293D01*
X0199100Y0277094D02*
X0173135Y0277094D01*
X0173499Y0275896D02*
X0199288Y0275896D01*
X0199785Y0274697D02*
X0173499Y0274697D01*
X0173499Y0273499D02*
X0200681Y0273499D01*
X0201433Y0272300D02*
X0173279Y0272300D01*
X0172782Y0271102D02*
X0200234Y0271102D01*
X0199600Y0269903D02*
X0172286Y0269903D01*
X0171201Y0268705D02*
X0199103Y0268705D01*
X0199100Y0267506D02*
X0170002Y0267506D01*
X0167375Y0266308D02*
X0199117Y0266308D01*
X0199614Y0265109D02*
X0155374Y0265109D01*
X0156573Y0263911D02*
X0200269Y0263911D01*
X0201468Y0262712D02*
X0157771Y0262712D01*
X0158970Y0261514D02*
X0200646Y0261514D01*
X0199770Y0260315D02*
X0160168Y0260315D01*
X0161367Y0259117D02*
X0199274Y0259117D01*
X0199100Y0257918D02*
X0162565Y0257918D01*
X0163764Y0256720D02*
X0199100Y0256720D01*
X0199443Y0255521D02*
X0164962Y0255521D01*
X0166161Y0254323D02*
X0199940Y0254323D01*
X0201056Y0253124D02*
X0167359Y0253124D01*
X0168558Y0251926D02*
X0201058Y0251926D01*
X0199941Y0250727D02*
X0169756Y0250727D01*
X0170955Y0249529D02*
X0199444Y0249529D01*
X0199100Y0248330D02*
X0172153Y0248330D01*
X0173352Y0247132D02*
X0199100Y0247132D01*
X0199273Y0245933D02*
X0174550Y0245933D01*
X0175749Y0244735D02*
X0199769Y0244735D01*
X0200644Y0243536D02*
X0176947Y0243536D01*
X0178146Y0242338D02*
X0201470Y0242338D01*
X0200272Y0241139D02*
X0179344Y0241139D01*
X0180543Y0239941D02*
X0199615Y0239941D01*
X0199119Y0238742D02*
X0181741Y0238742D01*
X0182940Y0237543D02*
X0199100Y0237543D01*
X0199102Y0236345D02*
X0184138Y0236345D01*
X0185337Y0235146D02*
X0198663Y0235146D01*
X0197465Y0233948D02*
X0186535Y0233948D01*
X0187734Y0232749D02*
X0196266Y0232749D01*
X0195068Y0231551D02*
X0188932Y0231551D01*
X0190131Y0230352D02*
X0193869Y0230352D01*
X0192671Y0229154D02*
X0191329Y0229154D01*
X0192000Y0224524D02*
X0205000Y0237524D01*
X0199100Y0226757D02*
X0198193Y0226757D01*
X0196995Y0225558D02*
X0199428Y0225558D01*
X0199924Y0224360D02*
X0195796Y0224360D01*
X0194598Y0223161D02*
X0201018Y0223161D01*
X0203007Y0221963D02*
X0193399Y0221963D01*
X0194374Y0222938D02*
X0194374Y0222938D01*
X0188040Y0224524D02*
X0184900Y0227664D01*
X0184900Y0221383D01*
X0188040Y0224524D01*
X0187876Y0224360D02*
X0184900Y0224360D01*
X0184900Y0225558D02*
X0187005Y0225558D01*
X0185807Y0226757D02*
X0184900Y0226757D01*
X0184900Y0223161D02*
X0186678Y0223161D01*
X0185479Y0221963D02*
X0184900Y0221963D01*
X0179300Y0221963D02*
X0142359Y0221963D01*
X0142320Y0221924D02*
X0145600Y0225204D01*
X0145600Y0229843D01*
X0142320Y0233124D01*
X0137680Y0233124D01*
X0135000Y0230443D01*
X0132320Y0233124D01*
X0127680Y0233124D01*
X0125000Y0230443D01*
X0122320Y0233124D01*
X0117680Y0233124D01*
X0115000Y0230443D01*
X0112320Y0233124D01*
X0107680Y0233124D01*
X0104400Y0229843D01*
X0104400Y0225204D01*
X0107680Y0221924D01*
X0112320Y0221924D01*
X0115000Y0224604D01*
X0117680Y0221924D01*
X0122320Y0221924D01*
X0125000Y0224604D01*
X0127680Y0221924D01*
X0132320Y0221924D01*
X0135000Y0224604D01*
X0137680Y0221924D01*
X0142320Y0221924D01*
X0143557Y0223161D02*
X0154857Y0223161D01*
X0153658Y0224360D02*
X0144756Y0224360D01*
X0145600Y0225558D02*
X0152460Y0225558D01*
X0152400Y0226757D02*
X0145600Y0226757D01*
X0145600Y0227955D02*
X0152400Y0227955D01*
X0152400Y0229154D02*
X0145600Y0229154D01*
X0145091Y0230352D02*
X0153323Y0230352D01*
X0154522Y0231551D02*
X0143892Y0231551D01*
X0142694Y0232749D02*
X0157814Y0232749D01*
X0156616Y0233948D02*
X0095235Y0233948D01*
X0094037Y0235146D02*
X0155417Y0235146D01*
X0154219Y0236345D02*
X0092838Y0236345D01*
X0091640Y0237543D02*
X0153020Y0237543D01*
X0151822Y0238742D02*
X0090441Y0238742D01*
X0089243Y0239941D02*
X0150623Y0239941D01*
X0149425Y0241139D02*
X0088044Y0241139D01*
X0086400Y0238824D02*
X0069900Y0238824D01*
X0065500Y0243224D01*
X0031400Y0209124D01*
X0031400Y0205824D01*
X0031000Y0205524D01*
X0031100Y0200390D02*
X0030700Y0200390D01*
X0030700Y0199191D02*
X0031100Y0199191D01*
X0031100Y0197993D02*
X0030700Y0197993D01*
X0030700Y0196794D02*
X0031100Y0196794D01*
X0031100Y0195596D02*
X0030700Y0195596D01*
X0030700Y0194397D02*
X0031100Y0194397D01*
X0031100Y0193199D02*
X0030700Y0193199D01*
X0028480Y0189603D02*
X0079961Y0189603D01*
X0081159Y0188405D02*
X0029679Y0188405D01*
X0030877Y0187206D02*
X0082358Y0187206D01*
X0082200Y0186008D02*
X0081800Y0186008D01*
X0081800Y0184809D02*
X0082200Y0184809D01*
X0082200Y0183610D02*
X0081800Y0183610D01*
X0082200Y0182824D02*
X0086000Y0182824D01*
X0086000Y0181367D01*
X0083657Y0179024D01*
X0082200Y0179024D01*
X0082200Y0182824D01*
X0082200Y0182412D02*
X0081800Y0182412D01*
X0081800Y0181213D02*
X0082200Y0181213D01*
X0082200Y0180015D02*
X0081800Y0180015D01*
X0079352Y0180015D02*
X0038068Y0180015D01*
X0036870Y0181213D02*
X0078153Y0181213D01*
X0078000Y0182412D02*
X0035671Y0182412D01*
X0034473Y0183610D02*
X0078000Y0183610D01*
X0078129Y0184809D02*
X0033274Y0184809D01*
X0032076Y0186008D02*
X0079327Y0186008D01*
X0078762Y0190802D02*
X0027282Y0190802D01*
X0024156Y0186008D02*
X0019860Y0186008D01*
X0020439Y0184809D02*
X0025355Y0184809D01*
X0024573Y0183610D02*
X0026553Y0183610D01*
X0025771Y0182412D02*
X0027752Y0182412D01*
X0026970Y0181213D02*
X0028950Y0181213D01*
X0028168Y0180015D02*
X0030149Y0180015D01*
X0029367Y0178816D02*
X0031347Y0178816D01*
X0030565Y0177618D02*
X0032546Y0177618D01*
X0031764Y0176419D02*
X0033744Y0176419D01*
X0032963Y0175221D02*
X0034943Y0175221D01*
X0034161Y0174022D02*
X0036141Y0174022D01*
X0035360Y0172824D02*
X0037340Y0172824D01*
X0041664Y0176419D02*
X0093144Y0176419D01*
X0091946Y0177618D02*
X0040465Y0177618D01*
X0039267Y0178816D02*
X0090747Y0178816D01*
X0089549Y0180015D02*
X0084648Y0180015D01*
X0085847Y0181213D02*
X0088350Y0181213D01*
X0087152Y0182412D02*
X0086000Y0182412D01*
X0091324Y0175221D02*
X0042863Y0175221D01*
X0044061Y0174022D02*
X0090519Y0174022D01*
X0090519Y0172824D02*
X0045260Y0172824D01*
X0046800Y0157424D02*
X0022600Y0181624D01*
X0016000Y0181624D01*
X0015000Y0182524D01*
X0018661Y0187206D02*
X0022958Y0187206D01*
X0021759Y0188405D02*
X0019225Y0188405D01*
X0012786Y0197993D02*
X0007200Y0197993D01*
X0018607Y0202787D02*
X0027232Y0202787D01*
X0026400Y0203985D02*
X0019805Y0203985D01*
X0020417Y0205184D02*
X0026400Y0205184D01*
X0026400Y0206382D02*
X0020900Y0206382D01*
X0020900Y0207581D02*
X0026552Y0207581D01*
X0027750Y0208779D02*
X0020866Y0208779D01*
X0020370Y0209978D02*
X0028723Y0209978D01*
X0029493Y0211176D02*
X0019691Y0211176D01*
X0018493Y0212375D02*
X0030691Y0212375D01*
X0031890Y0213573D02*
X0019394Y0213573D01*
X0041008Y0214772D02*
X0053300Y0214772D01*
X0053300Y0215970D02*
X0042206Y0215970D01*
X0043405Y0217169D02*
X0053300Y0217169D01*
X0052883Y0218367D02*
X0044603Y0218367D01*
X0045802Y0219566D02*
X0052019Y0219566D01*
X0052019Y0220764D02*
X0047000Y0220764D01*
X0048199Y0221963D02*
X0052019Y0221963D01*
X0052019Y0223161D02*
X0049398Y0223161D01*
X0050596Y0224360D02*
X0052019Y0224360D01*
X0051795Y0225558D02*
X0052761Y0225558D01*
X0052993Y0226757D02*
X0066719Y0226757D01*
X0066719Y0227955D02*
X0054192Y0227955D01*
X0055390Y0229154D02*
X0066719Y0229154D01*
X0066719Y0230352D02*
X0056589Y0230352D01*
X0057787Y0231551D02*
X0066719Y0231551D01*
X0067652Y0232749D02*
X0058986Y0232749D01*
X0060184Y0233948D02*
X0087316Y0233948D01*
X0086117Y0235146D02*
X0061383Y0235146D01*
X0062581Y0236345D02*
X0068567Y0236345D01*
X0067220Y0237543D02*
X0063780Y0237543D01*
X0064978Y0238742D02*
X0066022Y0238742D01*
X0065500Y0243224D02*
X0066600Y0244324D01*
X0066600Y0247624D01*
X0077600Y0258624D01*
X0094100Y0258624D01*
X0099600Y0253124D01*
X0100000Y0252524D01*
X0103865Y0256720D02*
X0106135Y0256720D01*
X0105000Y0255585D02*
X0107439Y0258024D01*
X0102561Y0258024D01*
X0105000Y0255585D01*
X0102666Y0257918D02*
X0107334Y0257918D01*
X0112561Y0258024D02*
X0117439Y0258024D01*
X0115000Y0255585D01*
X0112561Y0258024D01*
X0112666Y0257918D02*
X0117334Y0257918D01*
X0116135Y0256720D02*
X0113865Y0256720D01*
X0113867Y0248330D02*
X0116133Y0248330D01*
X0117331Y0247132D02*
X0112669Y0247132D01*
X0107331Y0247132D02*
X0102669Y0247132D01*
X0103867Y0248330D02*
X0106133Y0248330D01*
X0097331Y0247132D02*
X0092669Y0247132D01*
X0093867Y0248330D02*
X0096133Y0248330D01*
X0087331Y0247132D02*
X0075600Y0247132D01*
X0075600Y0245933D02*
X0132531Y0245933D01*
X0133729Y0244735D02*
X0075600Y0244735D01*
X0075518Y0243536D02*
X0147028Y0243536D01*
X0148226Y0242338D02*
X0074319Y0242338D01*
X0074699Y0248330D02*
X0076981Y0248330D01*
X0075783Y0249529D02*
X0073500Y0249529D01*
X0073663Y0250727D02*
X0074900Y0250727D01*
X0074862Y0251926D02*
X0074900Y0251926D01*
X0071736Y0256720D02*
X0069756Y0256720D01*
X0070538Y0255521D02*
X0068557Y0255521D01*
X0069339Y0254323D02*
X0067359Y0254323D01*
X0068141Y0253124D02*
X0066160Y0253124D01*
X0066942Y0251926D02*
X0064962Y0251926D01*
X0065744Y0250727D02*
X0063763Y0250727D01*
X0063033Y0249996D02*
X0064107Y0248922D01*
X0064226Y0249210D01*
X0073040Y0258024D01*
X0071060Y0258024D01*
X0063033Y0249996D01*
X0063500Y0249529D02*
X0064545Y0249529D01*
X0070954Y0257918D02*
X0072935Y0257918D01*
X0079600Y0251926D02*
X0080400Y0251926D01*
X0080400Y0250727D02*
X0079600Y0250727D01*
X0079600Y0249529D02*
X0080400Y0249529D01*
X0080400Y0248330D02*
X0079600Y0248330D01*
X0083019Y0248330D02*
X0086133Y0248330D01*
X0084934Y0249529D02*
X0084217Y0249529D01*
X0084576Y0255160D02*
X0083912Y0255824D01*
X0085239Y0255824D01*
X0084576Y0255160D01*
X0084215Y0255521D02*
X0084937Y0255521D01*
X0086400Y0238824D02*
X0127100Y0198124D01*
X0129300Y0198124D01*
X0130000Y0197524D01*
X0133855Y0201588D02*
X0136993Y0201588D01*
X0135795Y0200390D02*
X0135054Y0200390D01*
X0132657Y0202787D02*
X0163003Y0202787D01*
X0164202Y0203985D02*
X0125198Y0203985D01*
X0124000Y0205184D02*
X0165400Y0205184D01*
X0166599Y0206382D02*
X0122801Y0206382D01*
X0121603Y0207581D02*
X0167797Y0207581D01*
X0168996Y0208779D02*
X0120404Y0208779D01*
X0119206Y0209978D02*
X0170194Y0209978D01*
X0171393Y0211176D02*
X0118007Y0211176D01*
X0116809Y0212375D02*
X0172591Y0212375D01*
X0173790Y0213573D02*
X0115610Y0213573D01*
X0114412Y0214772D02*
X0174988Y0214772D01*
X0176187Y0215970D02*
X0113213Y0215970D01*
X0112015Y0217169D02*
X0177385Y0217169D01*
X0178584Y0218367D02*
X0110816Y0218367D01*
X0109618Y0219566D02*
X0179300Y0219566D01*
X0179300Y0220764D02*
X0108419Y0220764D01*
X0107641Y0221963D02*
X0107221Y0221963D01*
X0106443Y0223161D02*
X0106022Y0223161D01*
X0105244Y0224360D02*
X0104824Y0224360D01*
X0104400Y0225558D02*
X0103625Y0225558D01*
X0104400Y0226757D02*
X0102427Y0226757D01*
X0101228Y0227955D02*
X0104400Y0227955D01*
X0104400Y0229154D02*
X0100029Y0229154D01*
X0098831Y0230352D02*
X0104909Y0230352D01*
X0106108Y0231551D02*
X0097632Y0231551D01*
X0096434Y0232749D02*
X0107306Y0232749D01*
X0112694Y0232749D02*
X0117306Y0232749D01*
X0116108Y0231551D02*
X0113892Y0231551D01*
X0114756Y0224360D02*
X0115244Y0224360D01*
X0116443Y0223161D02*
X0113557Y0223161D01*
X0112359Y0221963D02*
X0117641Y0221963D01*
X0122359Y0221963D02*
X0127641Y0221963D01*
X0126443Y0223161D02*
X0123557Y0223161D01*
X0124756Y0224360D02*
X0125244Y0224360D01*
X0126108Y0231551D02*
X0123892Y0231551D01*
X0122694Y0232749D02*
X0127306Y0232749D01*
X0132694Y0232749D02*
X0137306Y0232749D01*
X0136108Y0231551D02*
X0133892Y0231551D01*
X0134756Y0224360D02*
X0135244Y0224360D01*
X0136443Y0223161D02*
X0133557Y0223161D01*
X0132359Y0221963D02*
X0137641Y0221963D01*
X0140200Y0202524D02*
X0140200Y0197724D01*
X0145000Y0197724D01*
X0145000Y0199595D01*
X0142071Y0202524D01*
X0140200Y0202524D01*
X0140200Y0201588D02*
X0139800Y0201588D01*
X0139800Y0200390D02*
X0140200Y0200390D01*
X0140200Y0199191D02*
X0139800Y0199191D01*
X0139800Y0197993D02*
X0140200Y0197993D01*
X0140200Y0197324D02*
X0145000Y0197324D01*
X0145000Y0195453D01*
X0142071Y0192524D01*
X0140200Y0192524D01*
X0140200Y0197324D01*
X0140200Y0196794D02*
X0139800Y0196794D01*
X0139800Y0195596D02*
X0140200Y0195596D01*
X0140200Y0194397D02*
X0139800Y0194397D01*
X0139800Y0193199D02*
X0140200Y0193199D01*
X0142746Y0193199D02*
X0155100Y0193199D01*
X0155148Y0194397D02*
X0143945Y0194397D01*
X0145000Y0195596D02*
X0155812Y0195596D01*
X0157011Y0196794D02*
X0145000Y0196794D01*
X0145000Y0197993D02*
X0158209Y0197993D01*
X0159408Y0199191D02*
X0145000Y0199191D01*
X0144205Y0200390D02*
X0160606Y0200390D01*
X0161805Y0201588D02*
X0143007Y0201588D01*
X0137254Y0193199D02*
X0133595Y0193199D01*
X0134793Y0194397D02*
X0136055Y0194397D01*
X0132396Y0192000D02*
X0154971Y0192000D01*
X0159143Y0223161D02*
X0164857Y0223161D01*
X0163658Y0224360D02*
X0160342Y0224360D01*
X0161540Y0225558D02*
X0162460Y0225558D01*
X0162400Y0226757D02*
X0161600Y0226757D01*
X0161600Y0227955D02*
X0162400Y0227955D01*
X0165734Y0232749D02*
X0173214Y0232749D01*
X0173800Y0231551D02*
X0169478Y0231551D01*
X0170677Y0230352D02*
X0173323Y0230352D01*
X0172400Y0229154D02*
X0171600Y0229154D01*
X0171600Y0227955D02*
X0172400Y0227955D01*
X0172400Y0226757D02*
X0171600Y0226757D01*
X0171540Y0225558D02*
X0172460Y0225558D01*
X0173658Y0224360D02*
X0170342Y0224360D01*
X0169143Y0223161D02*
X0174857Y0223161D01*
X0179143Y0223161D02*
X0179300Y0223161D01*
X0177000Y0227524D02*
X0176600Y0227824D01*
X0176600Y0233324D01*
X0151300Y0258624D01*
X0145800Y0258624D01*
X0140300Y0253124D01*
X0140000Y0252524D01*
X0136135Y0256720D02*
X0133865Y0256720D01*
X0135000Y0255585D02*
X0132561Y0258024D01*
X0137439Y0258024D01*
X0135000Y0255585D01*
X0132666Y0257918D02*
X0137334Y0257918D01*
X0130400Y0252024D02*
X0130000Y0252524D01*
X0130400Y0252024D02*
X0135900Y0246524D01*
X0148000Y0246524D01*
X0167000Y0227524D01*
X0164535Y0233948D02*
X0172016Y0233948D01*
X0170817Y0235146D02*
X0163337Y0235146D01*
X0162138Y0236345D02*
X0169619Y0236345D01*
X0168420Y0237543D02*
X0160940Y0237543D01*
X0159741Y0238742D02*
X0167222Y0238742D01*
X0166023Y0239941D02*
X0158543Y0239941D01*
X0157344Y0241139D02*
X0164825Y0241139D01*
X0163626Y0242338D02*
X0156146Y0242338D01*
X0154947Y0243536D02*
X0162428Y0243536D01*
X0161229Y0244735D02*
X0153749Y0244735D01*
X0152550Y0245933D02*
X0160031Y0245933D01*
X0158832Y0247132D02*
X0152669Y0247132D01*
X0153867Y0248330D02*
X0157634Y0248330D01*
X0156435Y0249529D02*
X0155066Y0249529D01*
X0145139Y0249324D02*
X0144861Y0249324D01*
X0145000Y0249463D01*
X0145139Y0249324D01*
X0159998Y0267506D02*
X0070002Y0267506D01*
X0071201Y0268705D02*
X0158799Y0268705D01*
X0157714Y0269903D02*
X0072286Y0269903D01*
X0072782Y0271102D02*
X0157218Y0271102D01*
X0156721Y0272300D02*
X0073279Y0272300D01*
X0073499Y0273499D02*
X0156501Y0273499D01*
X0156501Y0274697D02*
X0073499Y0274697D01*
X0073499Y0275896D02*
X0156501Y0275896D01*
X0156865Y0277094D02*
X0073135Y0277094D01*
X0072638Y0278293D02*
X0157362Y0278293D01*
X0157948Y0279491D02*
X0072052Y0279491D01*
X0070853Y0280690D02*
X0159147Y0280690D01*
X0160571Y0281888D02*
X0069429Y0281888D01*
X0067375Y0266308D02*
X0162625Y0266308D01*
X0127439Y0258024D02*
X0125000Y0255585D01*
X0122561Y0258024D01*
X0127439Y0258024D01*
X0127334Y0257918D02*
X0122666Y0257918D01*
X0123865Y0256720D02*
X0126135Y0256720D01*
X0126133Y0248330D02*
X0123867Y0248330D01*
X0122669Y0247132D02*
X0127331Y0247132D01*
X0127343Y0202787D02*
X0126397Y0202787D01*
X0125207Y0194397D02*
X0124793Y0194397D01*
X0123595Y0193199D02*
X0126405Y0193199D01*
X0127604Y0192000D02*
X0122396Y0192000D01*
X0107343Y0202787D02*
X0101097Y0202787D01*
X0102295Y0201588D02*
X0106145Y0201588D01*
X0104946Y0200390D02*
X0103494Y0200390D01*
X0099137Y0170427D02*
X0098681Y0170427D01*
X0098681Y0169228D02*
X0100335Y0169228D01*
X0101534Y0168030D02*
X0097880Y0168030D01*
X0078878Y0159640D02*
X0074389Y0159640D01*
X0073190Y0160839D02*
X0077679Y0160839D01*
X0070855Y0141663D02*
X0070145Y0141663D01*
X0070145Y0140464D02*
X0070855Y0140464D01*
X0070855Y0139266D02*
X0070145Y0139266D01*
X0070145Y0138067D02*
X0070855Y0138067D01*
X0070855Y0136869D02*
X0070145Y0136869D01*
X0070855Y0135670D02*
X0080145Y0135670D01*
X0057567Y0114097D02*
X0027387Y0114097D01*
X0028461Y0112898D02*
X0038156Y0112898D01*
X0036650Y0111700D02*
X0028800Y0111700D01*
X0028800Y0110501D02*
X0035894Y0110501D01*
X0035436Y0109303D02*
X0028800Y0109303D01*
X0029325Y0108104D02*
X0035436Y0108104D01*
X0035436Y0106906D02*
X0030523Y0106906D01*
X0030600Y0105707D02*
X0035436Y0105707D01*
X0035436Y0104509D02*
X0030600Y0104509D01*
X0030600Y0103310D02*
X0035436Y0103310D01*
X0035436Y0102112D02*
X0029693Y0102112D01*
X0028495Y0100913D02*
X0035742Y0100913D01*
X0043519Y0098516D02*
X0047481Y0098516D01*
X0046283Y0099715D02*
X0044717Y0099715D01*
X0045258Y0100913D02*
X0045742Y0100913D01*
X0053519Y0098516D02*
X0057481Y0098516D01*
X0056283Y0099715D02*
X0054717Y0099715D01*
X0055258Y0100913D02*
X0055742Y0100913D01*
X0055894Y0110501D02*
X0055106Y0110501D01*
X0054350Y0111700D02*
X0056650Y0111700D01*
X0058156Y0112898D02*
X0052844Y0112898D01*
X0056368Y0115295D02*
X0026188Y0115295D01*
X0026000Y0111524D02*
X0015000Y0122524D01*
X0018587Y0127280D02*
X0022700Y0127280D01*
X0022000Y0126082D02*
X0019786Y0126082D01*
X0020409Y0124883D02*
X0025800Y0124883D01*
X0025800Y0126082D02*
X0026200Y0126082D01*
X0026200Y0127280D02*
X0025800Y0127280D01*
X0025800Y0128479D02*
X0026200Y0128479D01*
X0023898Y0128479D02*
X0018450Y0128479D01*
X0020900Y0123685D02*
X0022000Y0123685D01*
X0022780Y0122486D02*
X0020900Y0122486D01*
X0026000Y0111524D02*
X0026000Y0104924D01*
X0042844Y0112898D02*
X0048156Y0112898D01*
X0046650Y0111700D02*
X0044350Y0111700D01*
X0045106Y0110501D02*
X0045894Y0110501D01*
X0045582Y0126082D02*
X0030000Y0126082D01*
X0063519Y0098516D02*
X0067481Y0098516D01*
X0066283Y0099715D02*
X0064717Y0099715D01*
X0065258Y0100913D02*
X0065742Y0100913D01*
X0073519Y0098516D02*
X0077481Y0098516D01*
X0076283Y0099715D02*
X0074717Y0099715D01*
X0075258Y0100913D02*
X0075742Y0100913D01*
X0110145Y0133273D02*
X0110855Y0133273D01*
X0110855Y0134472D02*
X0110145Y0134472D01*
X0137173Y0110501D02*
X0141372Y0110501D01*
X0140702Y0109303D02*
X0138013Y0109303D01*
X0138497Y0108104D02*
X0140206Y0108104D01*
X0149811Y0100824D02*
X0150269Y0101013D01*
X0152097Y0102842D01*
X0153087Y0105231D01*
X0153087Y0107817D01*
X0152097Y0110206D01*
X0151679Y0110624D01*
X0156063Y0110624D01*
X0155807Y0110367D01*
X0155261Y0109616D01*
X0154839Y0108788D01*
X0154552Y0107905D01*
X0154407Y0106988D01*
X0154407Y0106908D01*
X0159923Y0106908D01*
X0159923Y0106139D01*
X0154407Y0106139D01*
X0154407Y0106059D01*
X0154552Y0105142D01*
X0154839Y0104259D01*
X0155261Y0103431D01*
X0155807Y0102680D01*
X0156463Y0102023D01*
X0157215Y0101477D01*
X0158042Y0101056D01*
X0158757Y0100824D01*
X0149811Y0100824D01*
X0150027Y0100913D02*
X0158481Y0100913D01*
X0159923Y0100913D02*
X0160691Y0100913D01*
X0160691Y0102112D02*
X0159923Y0102112D01*
X0159923Y0103310D02*
X0160691Y0103310D01*
X0160691Y0104509D02*
X0159923Y0104509D01*
X0159923Y0105707D02*
X0160691Y0105707D01*
X0159923Y0106906D02*
X0153087Y0106906D01*
X0153087Y0105707D02*
X0154463Y0105707D01*
X0154758Y0104509D02*
X0152788Y0104509D01*
X0152291Y0103310D02*
X0155349Y0103310D01*
X0156375Y0102112D02*
X0151367Y0102112D01*
X0152967Y0108104D02*
X0154617Y0108104D01*
X0155101Y0109303D02*
X0152471Y0109303D01*
X0151801Y0110501D02*
X0155941Y0110501D01*
X0162133Y0100913D02*
X0164530Y0100913D01*
X0164239Y0102112D02*
X0165728Y0102112D01*
X0165265Y0103310D02*
X0166927Y0103310D01*
X0167886Y0104509D02*
X0165856Y0104509D01*
X0166151Y0105707D02*
X0167587Y0105707D01*
X0179301Y0110501D02*
X0183441Y0110501D01*
X0182601Y0109303D02*
X0179971Y0109303D01*
X0180467Y0108104D02*
X0182117Y0108104D01*
X0077564Y0192000D02*
X0052982Y0192000D01*
X0054180Y0193199D02*
X0058668Y0193199D01*
X0059343Y0192524D02*
X0057000Y0194867D01*
X0057000Y0196324D01*
X0060800Y0196324D01*
X0060800Y0196724D01*
X0060800Y0200524D01*
X0059343Y0200524D01*
X0057000Y0198180D01*
X0057000Y0196724D01*
X0060800Y0196724D01*
X0061200Y0196724D01*
X0061200Y0200524D01*
X0062657Y0200524D01*
X0065000Y0198180D01*
X0065000Y0196724D01*
X0061200Y0196724D01*
X0061200Y0196324D01*
X0065000Y0196324D01*
X0065000Y0194867D01*
X0062657Y0192524D01*
X0061200Y0192524D01*
X0061200Y0196324D01*
X0060800Y0196324D01*
X0060800Y0192524D01*
X0059343Y0192524D01*
X0060800Y0193199D02*
X0061200Y0193199D01*
X0061200Y0194397D02*
X0060800Y0194397D01*
X0060800Y0195596D02*
X0061200Y0195596D01*
X0061200Y0196794D02*
X0060800Y0196794D01*
X0060800Y0197993D02*
X0061200Y0197993D01*
X0061200Y0199191D02*
X0060800Y0199191D01*
X0060800Y0200390D02*
X0061200Y0200390D01*
X0062791Y0200390D02*
X0069174Y0200390D01*
X0068357Y0201588D02*
X0063570Y0201588D01*
X0064768Y0202787D02*
X0067232Y0202787D01*
X0066400Y0203985D02*
X0065600Y0203985D01*
X0065600Y0205184D02*
X0066400Y0205184D01*
X0066400Y0206382D02*
X0065618Y0206382D01*
X0063989Y0199191D02*
X0068011Y0199191D01*
X0067000Y0197993D02*
X0065000Y0197993D01*
X0065000Y0196794D02*
X0067000Y0196794D01*
X0067000Y0195596D02*
X0065000Y0195596D01*
X0064530Y0194397D02*
X0067470Y0194397D01*
X0068668Y0193199D02*
X0063332Y0193199D01*
X0057470Y0194397D02*
X0055379Y0194397D01*
X0055600Y0195596D02*
X0057000Y0195596D01*
X0057000Y0196794D02*
X0055600Y0196794D01*
X0055600Y0197993D02*
X0057000Y0197993D01*
X0056279Y0199191D02*
X0058011Y0199191D01*
X0057117Y0200390D02*
X0059209Y0200390D01*
X0058430Y0201588D02*
X0057954Y0201588D01*
X0056100Y0203824D02*
X0056100Y0222024D01*
X0060181Y0221963D02*
X0068000Y0221963D01*
X0068000Y0223161D02*
X0060181Y0223161D01*
X0060181Y0224360D02*
X0068000Y0224360D01*
X0067392Y0225558D02*
X0059439Y0225558D01*
X0060181Y0220764D02*
X0068000Y0220764D01*
X0068000Y0219566D02*
X0060181Y0219566D01*
X0059317Y0218367D02*
X0068000Y0218367D01*
X0059185Y0217169D02*
X0058900Y0217169D01*
X0056100Y0203824D02*
X0051000Y0196524D01*
X0070800Y0195596D02*
X0071200Y0195596D01*
X0071200Y0194397D02*
X0070800Y0194397D01*
X0070800Y0193199D02*
X0071200Y0193199D01*
X0073332Y0193199D02*
X0076365Y0193199D01*
X0075167Y0194397D02*
X0074530Y0194397D01*
X0022646Y0177618D02*
X0018438Y0177618D01*
X0019637Y0178816D02*
X0021447Y0178816D01*
D20*
X0046300Y0274524D03*
X0183500Y0275224D03*
X0201000Y0124724D03*
D21*
X0172300Y0180724D02*
X0162500Y0180724D01*
X0172300Y0180724D02*
X0172300Y0191924D01*
X0187700Y0207324D01*
X0205000Y0207524D01*
X0134800Y0105724D02*
X0132807Y0106524D01*
X0094600Y0171624D02*
X0082000Y0163024D01*
D22*
X0094600Y0171624D03*
X0130300Y0166724D03*
X0150600Y0166724D03*
X0162500Y0180724D03*
X0070800Y0229024D03*
X0056100Y0222024D03*
D23*
X0109500Y0184924D03*
X0153500Y0154124D03*
X0166700Y0167324D03*
M02*
