G75*
%MOIN*%
%OFA0B0*%
%FSLAX25Y25*%
%IPPOS*%
%LPD*%
%AMOC8*
5,1,8,0,0,1.08239X$1,22.5*
%
%ADD10C,0.00400*%
%ADD11C,0.03200*%
%ADD12C,0.00300*%
%ADD13C,0.00800*%
%ADD14C,0.01000*%
%ADD15C,0.00500*%
%ADD16C,0.00600*%
%ADD17R,0.02400X0.03400*%
%ADD18R,0.04000X0.01500*%
%ADD19C,0.01200*%
%ADD20C,0.00060*%
%ADD21R,0.01700X0.07400*%
D10*
X0119211Y0100461D02*
X0119211Y0101996D01*
X0119211Y0101229D02*
X0123048Y0101229D01*
X0123815Y0100461D01*
X0123815Y0099694D01*
X0123048Y0098927D01*
X0123048Y0103531D02*
X0123815Y0104298D01*
X0123815Y0105833D01*
X0123048Y0106600D01*
X0122280Y0106600D01*
X0121513Y0105833D01*
X0121513Y0105065D01*
X0121513Y0105833D02*
X0120746Y0106600D01*
X0119978Y0106600D01*
X0119211Y0105833D01*
X0119211Y0104298D01*
X0119978Y0103531D01*
X0128400Y0122124D02*
X0128400Y0126728D01*
X0130702Y0126728D01*
X0131469Y0125960D01*
X0131469Y0124426D01*
X0130702Y0123658D01*
X0128400Y0123658D01*
X0129935Y0123658D02*
X0131469Y0122124D01*
X0133004Y0122891D02*
X0133004Y0124426D01*
X0133771Y0125193D01*
X0135306Y0125193D01*
X0136073Y0124426D01*
X0136073Y0123658D01*
X0133004Y0123658D01*
X0133004Y0122891D02*
X0133771Y0122124D01*
X0135306Y0122124D01*
X0137608Y0125193D02*
X0139142Y0122124D01*
X0140677Y0125193D01*
X0141444Y0129624D02*
X0140677Y0130391D01*
X0140677Y0131926D01*
X0141444Y0132693D01*
X0142979Y0132693D01*
X0143746Y0131926D01*
X0143746Y0131158D01*
X0140677Y0131158D01*
X0141444Y0129624D02*
X0142979Y0129624D01*
X0145281Y0129624D02*
X0145281Y0132693D01*
X0146048Y0132693D01*
X0146816Y0131926D01*
X0147583Y0132693D01*
X0148350Y0131926D01*
X0148350Y0129624D01*
X0146816Y0129624D02*
X0146816Y0131926D01*
X0147583Y0137124D02*
X0146816Y0137891D01*
X0147583Y0138658D01*
X0149885Y0138658D01*
X0149885Y0139426D02*
X0149885Y0137124D01*
X0147583Y0137124D01*
X0145281Y0137891D02*
X0144514Y0137124D01*
X0142979Y0137124D01*
X0142212Y0137891D01*
X0142212Y0140960D01*
X0142979Y0141728D01*
X0144514Y0141728D01*
X0145281Y0140960D01*
X0147583Y0140193D02*
X0149118Y0140193D01*
X0149885Y0139426D01*
X0151420Y0141728D02*
X0152187Y0141728D01*
X0152187Y0137124D01*
X0151420Y0137124D02*
X0152954Y0137124D01*
X0154489Y0137124D02*
X0156024Y0137124D01*
X0155256Y0137124D02*
X0155256Y0141728D01*
X0154489Y0141728D01*
X0155256Y0133460D02*
X0155256Y0130391D01*
X0156024Y0129624D01*
X0157558Y0129624D02*
X0157558Y0132693D01*
X0156024Y0132693D02*
X0154489Y0132693D01*
X0152954Y0131926D02*
X0152954Y0131158D01*
X0149885Y0131158D01*
X0149885Y0130391D02*
X0149885Y0131926D01*
X0150652Y0132693D01*
X0152187Y0132693D01*
X0152954Y0131926D01*
X0152187Y0129624D02*
X0150652Y0129624D01*
X0149885Y0130391D01*
X0149885Y0124426D02*
X0146816Y0124426D01*
X0151420Y0124426D02*
X0154489Y0124426D01*
X0157558Y0131158D02*
X0159093Y0132693D01*
X0159860Y0132693D01*
X0161395Y0132693D02*
X0161395Y0130391D01*
X0162162Y0129624D01*
X0164464Y0129624D01*
X0164464Y0128856D02*
X0163697Y0128089D01*
X0162929Y0128089D01*
X0164464Y0128856D02*
X0164464Y0132693D01*
X0170603Y0132693D02*
X0171370Y0131926D01*
X0172905Y0131926D01*
X0173672Y0131158D01*
X0173672Y0130391D01*
X0172905Y0129624D01*
X0171370Y0129624D01*
X0170603Y0130391D01*
X0170603Y0132693D02*
X0170603Y0133460D01*
X0171370Y0134228D01*
X0172905Y0134228D01*
X0173672Y0133460D01*
X0175207Y0134228D02*
X0175207Y0129624D01*
X0175207Y0131926D02*
X0175974Y0132693D01*
X0177509Y0132693D01*
X0178276Y0131926D01*
X0178276Y0129624D01*
X0179810Y0129624D02*
X0181345Y0129624D01*
X0180578Y0129624D02*
X0180578Y0132693D01*
X0179810Y0132693D01*
X0180578Y0134228D02*
X0180578Y0134995D01*
X0183647Y0132693D02*
X0185182Y0132693D01*
X0185949Y0131926D01*
X0185949Y0131158D01*
X0182880Y0131158D01*
X0182880Y0130391D02*
X0182880Y0131926D01*
X0183647Y0132693D01*
X0182880Y0130391D02*
X0183647Y0129624D01*
X0185182Y0129624D01*
X0187484Y0129624D02*
X0189018Y0129624D01*
X0188251Y0129624D02*
X0188251Y0134228D01*
X0187484Y0134228D01*
X0190553Y0131926D02*
X0190553Y0130391D01*
X0191320Y0129624D01*
X0193622Y0129624D01*
X0193622Y0134228D01*
X0193622Y0132693D02*
X0191320Y0132693D01*
X0190553Y0131926D01*
X0140677Y0137124D02*
X0139142Y0138658D01*
X0138375Y0137124D02*
X0137608Y0137891D01*
X0137608Y0140960D01*
X0138375Y0141728D01*
X0139910Y0141728D01*
X0140677Y0140960D01*
X0140677Y0137891D01*
X0139910Y0137124D01*
X0138375Y0137124D01*
X0136073Y0137891D02*
X0135306Y0137124D01*
X0133771Y0137124D01*
X0133004Y0137891D01*
X0133771Y0139426D02*
X0135306Y0139426D01*
X0136073Y0138658D01*
X0136073Y0137891D01*
X0133771Y0139426D02*
X0133004Y0140193D01*
X0133004Y0140960D01*
X0133771Y0141728D01*
X0135306Y0141728D01*
X0136073Y0140960D01*
X0131469Y0141728D02*
X0128400Y0141728D01*
X0128400Y0137124D01*
X0128400Y0139426D02*
X0129935Y0139426D01*
X0129935Y0134228D02*
X0129935Y0129624D01*
X0131469Y0134228D02*
X0128400Y0134228D01*
X0133004Y0131926D02*
X0133004Y0130391D01*
X0133771Y0129624D01*
X0135306Y0129624D01*
X0136073Y0131158D02*
X0133004Y0131158D01*
X0133004Y0131926D02*
X0133771Y0132693D01*
X0135306Y0132693D01*
X0136073Y0131926D01*
X0136073Y0131158D01*
X0137608Y0129624D02*
X0139142Y0129624D01*
X0138375Y0129624D02*
X0138375Y0134228D01*
X0137608Y0134228D01*
X0111833Y0262824D02*
X0108763Y0262824D01*
X0107996Y0263591D01*
X0107996Y0265126D01*
X0108763Y0265893D01*
X0111833Y0262824D01*
X0112600Y0263591D01*
X0112600Y0265126D01*
X0111833Y0265893D01*
X0108763Y0265893D01*
X0110298Y0267428D02*
X0110298Y0270497D01*
X0110298Y0272031D02*
X0110298Y0275101D01*
X0110298Y0276635D02*
X0107996Y0276635D01*
X0107996Y0279705D01*
X0109531Y0278937D02*
X0110298Y0279705D01*
X0111833Y0279705D01*
X0112600Y0278937D01*
X0112600Y0277403D01*
X0111833Y0276635D01*
X0110298Y0276635D02*
X0109531Y0278170D01*
X0109531Y0278937D01*
X0109531Y0281239D02*
X0107996Y0282774D01*
X0109531Y0284309D01*
X0112600Y0284309D01*
X0110298Y0284309D02*
X0110298Y0281239D01*
X0109531Y0281239D02*
X0112600Y0281239D01*
X0117796Y0281939D02*
X0120865Y0281939D01*
X0122400Y0283474D01*
X0120865Y0285009D01*
X0117796Y0285009D01*
X0117796Y0280405D02*
X0118563Y0278870D01*
X0120098Y0277335D01*
X0120098Y0279637D01*
X0120865Y0280405D01*
X0121633Y0280405D01*
X0122400Y0279637D01*
X0122400Y0278103D01*
X0121633Y0277335D01*
X0120098Y0277335D01*
X0122400Y0275801D02*
X0122400Y0272731D01*
X0122400Y0274266D02*
X0117796Y0274266D01*
X0119331Y0272731D01*
X0120098Y0271197D02*
X0120098Y0268128D01*
X0118563Y0266593D02*
X0117796Y0265826D01*
X0117796Y0264291D01*
X0118563Y0263524D01*
X0121633Y0263524D01*
X0118563Y0266593D01*
X0121633Y0266593D01*
X0122400Y0265826D01*
X0122400Y0264291D01*
X0121633Y0263524D01*
X0127596Y0264991D02*
X0127596Y0266526D01*
X0128363Y0267293D01*
X0131433Y0264224D01*
X0132200Y0264991D01*
X0132200Y0266526D01*
X0131433Y0267293D01*
X0128363Y0267293D01*
X0129898Y0268828D02*
X0129898Y0271897D01*
X0129131Y0273431D02*
X0127596Y0274966D01*
X0132200Y0274966D01*
X0132200Y0273431D02*
X0132200Y0276501D01*
X0131433Y0278035D02*
X0132200Y0278803D01*
X0132200Y0280337D01*
X0131433Y0281105D01*
X0130665Y0281105D01*
X0129898Y0280337D01*
X0129898Y0278035D01*
X0131433Y0278035D01*
X0129898Y0278035D02*
X0128363Y0279570D01*
X0127596Y0281105D01*
X0127596Y0282639D02*
X0130665Y0282639D01*
X0132200Y0284174D01*
X0130665Y0285709D01*
X0127596Y0285709D01*
X0138096Y0285009D02*
X0141165Y0285009D01*
X0142700Y0283474D01*
X0141165Y0281939D01*
X0138096Y0281939D01*
X0138096Y0280405D02*
X0138863Y0278870D01*
X0140398Y0277335D01*
X0140398Y0279637D01*
X0141165Y0280405D01*
X0141933Y0280405D01*
X0142700Y0279637D01*
X0142700Y0278103D01*
X0141933Y0277335D01*
X0140398Y0277335D01*
X0142700Y0275801D02*
X0142700Y0272731D01*
X0142700Y0274266D02*
X0138096Y0274266D01*
X0139631Y0272731D01*
X0140398Y0271197D02*
X0140398Y0268128D01*
X0138863Y0266593D02*
X0141933Y0263524D01*
X0142700Y0264291D01*
X0142700Y0265826D01*
X0141933Y0266593D01*
X0138863Y0266593D01*
X0138096Y0265826D01*
X0138096Y0264291D01*
X0138863Y0263524D01*
X0141933Y0263524D01*
X0148596Y0264224D02*
X0150898Y0264224D01*
X0150131Y0265758D01*
X0150131Y0266526D01*
X0150898Y0267293D01*
X0152433Y0267293D01*
X0153200Y0266526D01*
X0153200Y0264991D01*
X0152433Y0264224D01*
X0151665Y0268828D02*
X0153200Y0270362D01*
X0151665Y0271897D01*
X0148596Y0271897D01*
X0148596Y0273431D02*
X0148596Y0275733D01*
X0149363Y0276501D01*
X0152433Y0276501D01*
X0153200Y0275733D01*
X0153200Y0273431D01*
X0148596Y0273431D01*
X0149363Y0278035D02*
X0152433Y0278035D01*
X0153200Y0278803D01*
X0153200Y0280337D01*
X0152433Y0281105D01*
X0149363Y0281105D02*
X0148596Y0280337D01*
X0148596Y0278803D01*
X0149363Y0278035D01*
X0148596Y0268828D02*
X0151665Y0268828D01*
X0148596Y0267293D02*
X0148596Y0264224D01*
X0131433Y0264224D02*
X0128363Y0264224D01*
X0127596Y0264991D01*
X0102800Y0264358D02*
X0098196Y0264358D01*
X0098196Y0262824D02*
X0098196Y0265893D01*
X0098196Y0267428D02*
X0102800Y0267428D01*
X0102800Y0270497D01*
X0102800Y0272031D02*
X0098196Y0272031D01*
X0099731Y0273566D01*
X0098196Y0275101D01*
X0102800Y0275101D01*
X0102800Y0276635D02*
X0098196Y0276635D01*
X0098196Y0278937D01*
X0098963Y0279705D01*
X0100498Y0279705D01*
X0101265Y0278937D01*
X0101265Y0276635D01*
X0099731Y0281239D02*
X0098196Y0282774D01*
X0102800Y0282774D01*
X0102800Y0281239D02*
X0102800Y0284309D01*
X0091600Y0284309D02*
X0091600Y0281239D01*
X0088531Y0284309D01*
X0087763Y0284309D01*
X0086996Y0283541D01*
X0086996Y0282007D01*
X0087763Y0281239D01*
X0087763Y0279705D02*
X0089298Y0279705D01*
X0090065Y0278937D01*
X0090065Y0276635D01*
X0091600Y0276635D02*
X0086996Y0276635D01*
X0086996Y0278937D01*
X0087763Y0279705D01*
X0086996Y0275101D02*
X0091600Y0275101D01*
X0091600Y0272031D02*
X0086996Y0272031D01*
X0088531Y0273566D01*
X0086996Y0275101D01*
X0086996Y0270497D02*
X0086996Y0267428D01*
X0091600Y0267428D01*
X0091600Y0270497D01*
X0089298Y0268962D02*
X0089298Y0267428D01*
X0086996Y0265893D02*
X0086996Y0262824D01*
X0086996Y0264358D02*
X0091600Y0264358D01*
X0098196Y0267428D02*
X0098196Y0270497D01*
X0100498Y0268962D02*
X0100498Y0267428D01*
X0082500Y0268128D02*
X0077896Y0268128D01*
X0082500Y0271197D01*
X0077896Y0271197D01*
X0077896Y0272731D02*
X0077896Y0275033D01*
X0078663Y0275801D01*
X0081733Y0275801D01*
X0082500Y0275033D01*
X0082500Y0272731D01*
X0077896Y0272731D01*
X0078663Y0266593D02*
X0077896Y0265826D01*
X0077896Y0264291D01*
X0078663Y0263524D01*
X0081733Y0263524D01*
X0082500Y0264291D01*
X0082500Y0265826D01*
X0081733Y0266593D01*
X0080198Y0266593D01*
X0080198Y0265058D01*
D11*
X0107786Y0206624D02*
X0107788Y0206718D01*
X0107794Y0206812D01*
X0107804Y0206905D01*
X0107818Y0206998D01*
X0107836Y0207090D01*
X0107857Y0207182D01*
X0107883Y0207272D01*
X0107912Y0207362D01*
X0107946Y0207450D01*
X0107983Y0207536D01*
X0108023Y0207621D01*
X0108067Y0207704D01*
X0108115Y0207785D01*
X0108166Y0207864D01*
X0108220Y0207941D01*
X0108277Y0208015D01*
X0108338Y0208087D01*
X0108402Y0208156D01*
X0108468Y0208222D01*
X0108537Y0208286D01*
X0108609Y0208347D01*
X0108683Y0208404D01*
X0108760Y0208458D01*
X0108839Y0208509D01*
X0108920Y0208557D01*
X0109003Y0208601D01*
X0109088Y0208641D01*
X0109174Y0208678D01*
X0109262Y0208712D01*
X0109352Y0208741D01*
X0109442Y0208767D01*
X0109534Y0208788D01*
X0109626Y0208806D01*
X0109719Y0208820D01*
X0109812Y0208830D01*
X0109906Y0208836D01*
X0110000Y0208838D01*
X0110094Y0208836D01*
X0110188Y0208830D01*
X0110281Y0208820D01*
X0110374Y0208806D01*
X0110466Y0208788D01*
X0110558Y0208767D01*
X0110648Y0208741D01*
X0110738Y0208712D01*
X0110826Y0208678D01*
X0110912Y0208641D01*
X0110997Y0208601D01*
X0111080Y0208557D01*
X0111161Y0208509D01*
X0111240Y0208458D01*
X0111317Y0208404D01*
X0111391Y0208347D01*
X0111463Y0208286D01*
X0111532Y0208222D01*
X0111598Y0208156D01*
X0111662Y0208087D01*
X0111723Y0208015D01*
X0111780Y0207941D01*
X0111834Y0207864D01*
X0111885Y0207785D01*
X0111933Y0207704D01*
X0111977Y0207621D01*
X0112017Y0207536D01*
X0112054Y0207450D01*
X0112088Y0207362D01*
X0112117Y0207272D01*
X0112143Y0207182D01*
X0112164Y0207090D01*
X0112182Y0206998D01*
X0112196Y0206905D01*
X0112206Y0206812D01*
X0112212Y0206718D01*
X0112214Y0206624D01*
X0112212Y0206530D01*
X0112206Y0206436D01*
X0112196Y0206343D01*
X0112182Y0206250D01*
X0112164Y0206158D01*
X0112143Y0206066D01*
X0112117Y0205976D01*
X0112088Y0205886D01*
X0112054Y0205798D01*
X0112017Y0205712D01*
X0111977Y0205627D01*
X0111933Y0205544D01*
X0111885Y0205463D01*
X0111834Y0205384D01*
X0111780Y0205307D01*
X0111723Y0205233D01*
X0111662Y0205161D01*
X0111598Y0205092D01*
X0111532Y0205026D01*
X0111463Y0204962D01*
X0111391Y0204901D01*
X0111317Y0204844D01*
X0111240Y0204790D01*
X0111161Y0204739D01*
X0111080Y0204691D01*
X0110997Y0204647D01*
X0110912Y0204607D01*
X0110826Y0204570D01*
X0110738Y0204536D01*
X0110648Y0204507D01*
X0110558Y0204481D01*
X0110466Y0204460D01*
X0110374Y0204442D01*
X0110281Y0204428D01*
X0110188Y0204418D01*
X0110094Y0204412D01*
X0110000Y0204410D01*
X0109906Y0204412D01*
X0109812Y0204418D01*
X0109719Y0204428D01*
X0109626Y0204442D01*
X0109534Y0204460D01*
X0109442Y0204481D01*
X0109352Y0204507D01*
X0109262Y0204536D01*
X0109174Y0204570D01*
X0109088Y0204607D01*
X0109003Y0204647D01*
X0108920Y0204691D01*
X0108839Y0204739D01*
X0108760Y0204790D01*
X0108683Y0204844D01*
X0108609Y0204901D01*
X0108537Y0204962D01*
X0108468Y0205026D01*
X0108402Y0205092D01*
X0108338Y0205161D01*
X0108277Y0205233D01*
X0108220Y0205307D01*
X0108166Y0205384D01*
X0108115Y0205463D01*
X0108067Y0205544D01*
X0108023Y0205627D01*
X0107983Y0205712D01*
X0107946Y0205798D01*
X0107912Y0205886D01*
X0107883Y0205976D01*
X0107857Y0206066D01*
X0107836Y0206158D01*
X0107818Y0206250D01*
X0107804Y0206343D01*
X0107794Y0206436D01*
X0107788Y0206530D01*
X0107786Y0206624D01*
X0107786Y0156924D02*
X0107788Y0157018D01*
X0107794Y0157112D01*
X0107804Y0157205D01*
X0107818Y0157298D01*
X0107836Y0157390D01*
X0107857Y0157482D01*
X0107883Y0157572D01*
X0107912Y0157662D01*
X0107946Y0157750D01*
X0107983Y0157836D01*
X0108023Y0157921D01*
X0108067Y0158004D01*
X0108115Y0158085D01*
X0108166Y0158164D01*
X0108220Y0158241D01*
X0108277Y0158315D01*
X0108338Y0158387D01*
X0108402Y0158456D01*
X0108468Y0158522D01*
X0108537Y0158586D01*
X0108609Y0158647D01*
X0108683Y0158704D01*
X0108760Y0158758D01*
X0108839Y0158809D01*
X0108920Y0158857D01*
X0109003Y0158901D01*
X0109088Y0158941D01*
X0109174Y0158978D01*
X0109262Y0159012D01*
X0109352Y0159041D01*
X0109442Y0159067D01*
X0109534Y0159088D01*
X0109626Y0159106D01*
X0109719Y0159120D01*
X0109812Y0159130D01*
X0109906Y0159136D01*
X0110000Y0159138D01*
X0110094Y0159136D01*
X0110188Y0159130D01*
X0110281Y0159120D01*
X0110374Y0159106D01*
X0110466Y0159088D01*
X0110558Y0159067D01*
X0110648Y0159041D01*
X0110738Y0159012D01*
X0110826Y0158978D01*
X0110912Y0158941D01*
X0110997Y0158901D01*
X0111080Y0158857D01*
X0111161Y0158809D01*
X0111240Y0158758D01*
X0111317Y0158704D01*
X0111391Y0158647D01*
X0111463Y0158586D01*
X0111532Y0158522D01*
X0111598Y0158456D01*
X0111662Y0158387D01*
X0111723Y0158315D01*
X0111780Y0158241D01*
X0111834Y0158164D01*
X0111885Y0158085D01*
X0111933Y0158004D01*
X0111977Y0157921D01*
X0112017Y0157836D01*
X0112054Y0157750D01*
X0112088Y0157662D01*
X0112117Y0157572D01*
X0112143Y0157482D01*
X0112164Y0157390D01*
X0112182Y0157298D01*
X0112196Y0157205D01*
X0112206Y0157112D01*
X0112212Y0157018D01*
X0112214Y0156924D01*
X0112212Y0156830D01*
X0112206Y0156736D01*
X0112196Y0156643D01*
X0112182Y0156550D01*
X0112164Y0156458D01*
X0112143Y0156366D01*
X0112117Y0156276D01*
X0112088Y0156186D01*
X0112054Y0156098D01*
X0112017Y0156012D01*
X0111977Y0155927D01*
X0111933Y0155844D01*
X0111885Y0155763D01*
X0111834Y0155684D01*
X0111780Y0155607D01*
X0111723Y0155533D01*
X0111662Y0155461D01*
X0111598Y0155392D01*
X0111532Y0155326D01*
X0111463Y0155262D01*
X0111391Y0155201D01*
X0111317Y0155144D01*
X0111240Y0155090D01*
X0111161Y0155039D01*
X0111080Y0154991D01*
X0110997Y0154947D01*
X0110912Y0154907D01*
X0110826Y0154870D01*
X0110738Y0154836D01*
X0110648Y0154807D01*
X0110558Y0154781D01*
X0110466Y0154760D01*
X0110374Y0154742D01*
X0110281Y0154728D01*
X0110188Y0154718D01*
X0110094Y0154712D01*
X0110000Y0154710D01*
X0109906Y0154712D01*
X0109812Y0154718D01*
X0109719Y0154728D01*
X0109626Y0154742D01*
X0109534Y0154760D01*
X0109442Y0154781D01*
X0109352Y0154807D01*
X0109262Y0154836D01*
X0109174Y0154870D01*
X0109088Y0154907D01*
X0109003Y0154947D01*
X0108920Y0154991D01*
X0108839Y0155039D01*
X0108760Y0155090D01*
X0108683Y0155144D01*
X0108609Y0155201D01*
X0108537Y0155262D01*
X0108468Y0155326D01*
X0108402Y0155392D01*
X0108338Y0155461D01*
X0108277Y0155533D01*
X0108220Y0155607D01*
X0108166Y0155684D01*
X0108115Y0155763D01*
X0108067Y0155844D01*
X0108023Y0155927D01*
X0107983Y0156012D01*
X0107946Y0156098D01*
X0107912Y0156186D01*
X0107883Y0156276D01*
X0107857Y0156366D01*
X0107836Y0156458D01*
X0107818Y0156550D01*
X0107804Y0156643D01*
X0107794Y0156736D01*
X0107788Y0156830D01*
X0107786Y0156924D01*
D12*
X0123934Y0117976D02*
X0123450Y0117492D01*
X0123450Y0115557D01*
X0123934Y0115074D01*
X0124901Y0115074D01*
X0125385Y0115557D01*
X0125385Y0116525D01*
X0124417Y0116525D01*
X0125385Y0117492D02*
X0124901Y0117976D01*
X0123934Y0117976D01*
X0157750Y0118192D02*
X0157750Y0116257D01*
X0158234Y0115774D01*
X0159201Y0115774D01*
X0159685Y0116257D01*
X0159685Y0117225D01*
X0158717Y0117225D01*
X0157750Y0118192D02*
X0158234Y0118676D01*
X0159201Y0118676D01*
X0159685Y0118192D01*
X0174468Y0121542D02*
X0174952Y0121059D01*
X0175435Y0121059D01*
X0175919Y0121542D01*
X0175919Y0123961D01*
X0175435Y0123961D02*
X0176403Y0123961D01*
X0177415Y0123477D02*
X0177898Y0123961D01*
X0178866Y0123961D01*
X0179349Y0123477D01*
X0179349Y0122994D01*
X0177415Y0121059D01*
X0179349Y0121059D01*
X0189250Y0118192D02*
X0189250Y0116257D01*
X0189734Y0115774D01*
X0190701Y0115774D01*
X0191185Y0116257D01*
X0191185Y0117225D01*
X0190217Y0117225D01*
X0189250Y0118192D02*
X0189734Y0118676D01*
X0190701Y0118676D01*
X0191185Y0118192D01*
X0205468Y0121542D02*
X0205952Y0121059D01*
X0206435Y0121059D01*
X0206919Y0121542D01*
X0206919Y0123961D01*
X0206435Y0123961D02*
X0207403Y0123961D01*
X0208415Y0122994D02*
X0209382Y0123961D01*
X0209382Y0121059D01*
X0208415Y0121059D02*
X0210349Y0121059D01*
D13*
X0145000Y0152524D02*
X0105000Y0152524D01*
X0105000Y0156524D01*
X0105000Y0158524D01*
X0105000Y0156524D02*
X0105000Y0172524D01*
X0145000Y0172524D01*
X0145000Y0152524D01*
X0118500Y0140024D02*
X0118500Y0127024D01*
X0118500Y0114024D01*
X0116500Y0114024D01*
X0116500Y0127024D01*
X0118500Y0127024D01*
X0113500Y0128024D02*
X0113500Y0113024D01*
X0107500Y0113024D01*
X0107500Y0128024D01*
X0113500Y0128024D01*
X0118500Y0140024D02*
X0032500Y0140024D01*
X0032500Y0127024D01*
X0032500Y0114024D01*
X0032500Y0101024D01*
X0118500Y0101024D01*
X0118500Y0114024D01*
X0103500Y0113024D02*
X0097500Y0113024D01*
X0097500Y0128024D01*
X0103500Y0128024D01*
X0103500Y0113024D01*
X0093500Y0113024D02*
X0087500Y0113024D01*
X0087500Y0128024D01*
X0093500Y0128024D01*
X0093500Y0113024D01*
X0083500Y0113024D02*
X0083500Y0128024D01*
X0077500Y0128024D01*
X0077500Y0113024D01*
X0083500Y0113024D01*
X0073500Y0113024D02*
X0073500Y0128024D01*
X0067500Y0128024D01*
X0067500Y0113024D01*
X0073500Y0113024D01*
X0063500Y0113024D02*
X0057500Y0113024D01*
X0057500Y0128024D01*
X0063500Y0128024D01*
X0063500Y0113024D01*
X0053500Y0113024D02*
X0053500Y0128024D01*
X0047500Y0128024D01*
X0047500Y0113024D01*
X0053500Y0113024D01*
X0043500Y0113024D02*
X0037500Y0113024D01*
X0037500Y0128024D01*
X0043500Y0128024D01*
X0043500Y0113024D01*
X0034500Y0114024D02*
X0034500Y0127024D01*
X0032500Y0127024D01*
X0032500Y0114024D02*
X0034500Y0114024D01*
X0105000Y0202524D02*
X0105000Y0206524D01*
X0105000Y0208524D01*
X0105000Y0206524D02*
X0105000Y0222524D01*
X0145000Y0222524D01*
X0145000Y0202524D01*
X0105000Y0202524D01*
D14*
X0107172Y0207524D02*
X0107174Y0207630D01*
X0107180Y0207735D01*
X0107190Y0207841D01*
X0107204Y0207945D01*
X0107221Y0208050D01*
X0107243Y0208153D01*
X0107268Y0208256D01*
X0107298Y0208358D01*
X0107331Y0208458D01*
X0107367Y0208557D01*
X0107408Y0208655D01*
X0107452Y0208751D01*
X0107500Y0208845D01*
X0107551Y0208938D01*
X0107605Y0209029D01*
X0107663Y0209117D01*
X0107725Y0209203D01*
X0107789Y0209287D01*
X0107856Y0209369D01*
X0107927Y0209448D01*
X0108000Y0209524D01*
X0108076Y0209597D01*
X0108155Y0209668D01*
X0108237Y0209735D01*
X0108321Y0209799D01*
X0108407Y0209861D01*
X0108495Y0209919D01*
X0108586Y0209973D01*
X0108679Y0210024D01*
X0108773Y0210072D01*
X0108869Y0210116D01*
X0108967Y0210157D01*
X0109066Y0210193D01*
X0109166Y0210226D01*
X0109268Y0210256D01*
X0109371Y0210281D01*
X0109474Y0210303D01*
X0109579Y0210320D01*
X0109683Y0210334D01*
X0109789Y0210344D01*
X0109894Y0210350D01*
X0110000Y0210352D01*
X0110106Y0210350D01*
X0110211Y0210344D01*
X0110317Y0210334D01*
X0110421Y0210320D01*
X0110526Y0210303D01*
X0110629Y0210281D01*
X0110732Y0210256D01*
X0110834Y0210226D01*
X0110934Y0210193D01*
X0111033Y0210157D01*
X0111131Y0210116D01*
X0111227Y0210072D01*
X0111321Y0210024D01*
X0111414Y0209973D01*
X0111505Y0209919D01*
X0111593Y0209861D01*
X0111679Y0209799D01*
X0111763Y0209735D01*
X0111845Y0209668D01*
X0111924Y0209597D01*
X0112000Y0209524D01*
X0112073Y0209448D01*
X0112144Y0209369D01*
X0112211Y0209287D01*
X0112275Y0209203D01*
X0112337Y0209117D01*
X0112395Y0209029D01*
X0112449Y0208938D01*
X0112500Y0208845D01*
X0112548Y0208751D01*
X0112592Y0208655D01*
X0112633Y0208557D01*
X0112669Y0208458D01*
X0112702Y0208358D01*
X0112732Y0208256D01*
X0112757Y0208153D01*
X0112779Y0208050D01*
X0112796Y0207945D01*
X0112810Y0207841D01*
X0112820Y0207735D01*
X0112826Y0207630D01*
X0112828Y0207524D01*
X0112826Y0207418D01*
X0112820Y0207313D01*
X0112810Y0207207D01*
X0112796Y0207103D01*
X0112779Y0206998D01*
X0112757Y0206895D01*
X0112732Y0206792D01*
X0112702Y0206690D01*
X0112669Y0206590D01*
X0112633Y0206491D01*
X0112592Y0206393D01*
X0112548Y0206297D01*
X0112500Y0206203D01*
X0112449Y0206110D01*
X0112395Y0206019D01*
X0112337Y0205931D01*
X0112275Y0205845D01*
X0112211Y0205761D01*
X0112144Y0205679D01*
X0112073Y0205600D01*
X0112000Y0205524D01*
X0111924Y0205451D01*
X0111845Y0205380D01*
X0111763Y0205313D01*
X0111679Y0205249D01*
X0111593Y0205187D01*
X0111505Y0205129D01*
X0111414Y0205075D01*
X0111321Y0205024D01*
X0111227Y0204976D01*
X0111131Y0204932D01*
X0111033Y0204891D01*
X0110934Y0204855D01*
X0110834Y0204822D01*
X0110732Y0204792D01*
X0110629Y0204767D01*
X0110526Y0204745D01*
X0110421Y0204728D01*
X0110317Y0204714D01*
X0110211Y0204704D01*
X0110106Y0204698D01*
X0110000Y0204696D01*
X0109894Y0204698D01*
X0109789Y0204704D01*
X0109683Y0204714D01*
X0109579Y0204728D01*
X0109474Y0204745D01*
X0109371Y0204767D01*
X0109268Y0204792D01*
X0109166Y0204822D01*
X0109066Y0204855D01*
X0108967Y0204891D01*
X0108869Y0204932D01*
X0108773Y0204976D01*
X0108679Y0205024D01*
X0108586Y0205075D01*
X0108495Y0205129D01*
X0108407Y0205187D01*
X0108321Y0205249D01*
X0108237Y0205313D01*
X0108155Y0205380D01*
X0108076Y0205451D01*
X0108000Y0205524D01*
X0107927Y0205600D01*
X0107856Y0205679D01*
X0107789Y0205761D01*
X0107725Y0205845D01*
X0107663Y0205931D01*
X0107605Y0206019D01*
X0107551Y0206110D01*
X0107500Y0206203D01*
X0107452Y0206297D01*
X0107408Y0206393D01*
X0107367Y0206491D01*
X0107331Y0206590D01*
X0107298Y0206690D01*
X0107268Y0206792D01*
X0107243Y0206895D01*
X0107221Y0206998D01*
X0107204Y0207103D01*
X0107190Y0207207D01*
X0107180Y0207313D01*
X0107174Y0207418D01*
X0107172Y0207524D01*
X0107172Y0157524D02*
X0107174Y0157630D01*
X0107180Y0157735D01*
X0107190Y0157841D01*
X0107204Y0157945D01*
X0107221Y0158050D01*
X0107243Y0158153D01*
X0107268Y0158256D01*
X0107298Y0158358D01*
X0107331Y0158458D01*
X0107367Y0158557D01*
X0107408Y0158655D01*
X0107452Y0158751D01*
X0107500Y0158845D01*
X0107551Y0158938D01*
X0107605Y0159029D01*
X0107663Y0159117D01*
X0107725Y0159203D01*
X0107789Y0159287D01*
X0107856Y0159369D01*
X0107927Y0159448D01*
X0108000Y0159524D01*
X0108076Y0159597D01*
X0108155Y0159668D01*
X0108237Y0159735D01*
X0108321Y0159799D01*
X0108407Y0159861D01*
X0108495Y0159919D01*
X0108586Y0159973D01*
X0108679Y0160024D01*
X0108773Y0160072D01*
X0108869Y0160116D01*
X0108967Y0160157D01*
X0109066Y0160193D01*
X0109166Y0160226D01*
X0109268Y0160256D01*
X0109371Y0160281D01*
X0109474Y0160303D01*
X0109579Y0160320D01*
X0109683Y0160334D01*
X0109789Y0160344D01*
X0109894Y0160350D01*
X0110000Y0160352D01*
X0110106Y0160350D01*
X0110211Y0160344D01*
X0110317Y0160334D01*
X0110421Y0160320D01*
X0110526Y0160303D01*
X0110629Y0160281D01*
X0110732Y0160256D01*
X0110834Y0160226D01*
X0110934Y0160193D01*
X0111033Y0160157D01*
X0111131Y0160116D01*
X0111227Y0160072D01*
X0111321Y0160024D01*
X0111414Y0159973D01*
X0111505Y0159919D01*
X0111593Y0159861D01*
X0111679Y0159799D01*
X0111763Y0159735D01*
X0111845Y0159668D01*
X0111924Y0159597D01*
X0112000Y0159524D01*
X0112073Y0159448D01*
X0112144Y0159369D01*
X0112211Y0159287D01*
X0112275Y0159203D01*
X0112337Y0159117D01*
X0112395Y0159029D01*
X0112449Y0158938D01*
X0112500Y0158845D01*
X0112548Y0158751D01*
X0112592Y0158655D01*
X0112633Y0158557D01*
X0112669Y0158458D01*
X0112702Y0158358D01*
X0112732Y0158256D01*
X0112757Y0158153D01*
X0112779Y0158050D01*
X0112796Y0157945D01*
X0112810Y0157841D01*
X0112820Y0157735D01*
X0112826Y0157630D01*
X0112828Y0157524D01*
X0112826Y0157418D01*
X0112820Y0157313D01*
X0112810Y0157207D01*
X0112796Y0157103D01*
X0112779Y0156998D01*
X0112757Y0156895D01*
X0112732Y0156792D01*
X0112702Y0156690D01*
X0112669Y0156590D01*
X0112633Y0156491D01*
X0112592Y0156393D01*
X0112548Y0156297D01*
X0112500Y0156203D01*
X0112449Y0156110D01*
X0112395Y0156019D01*
X0112337Y0155931D01*
X0112275Y0155845D01*
X0112211Y0155761D01*
X0112144Y0155679D01*
X0112073Y0155600D01*
X0112000Y0155524D01*
X0111924Y0155451D01*
X0111845Y0155380D01*
X0111763Y0155313D01*
X0111679Y0155249D01*
X0111593Y0155187D01*
X0111505Y0155129D01*
X0111414Y0155075D01*
X0111321Y0155024D01*
X0111227Y0154976D01*
X0111131Y0154932D01*
X0111033Y0154891D01*
X0110934Y0154855D01*
X0110834Y0154822D01*
X0110732Y0154792D01*
X0110629Y0154767D01*
X0110526Y0154745D01*
X0110421Y0154728D01*
X0110317Y0154714D01*
X0110211Y0154704D01*
X0110106Y0154698D01*
X0110000Y0154696D01*
X0109894Y0154698D01*
X0109789Y0154704D01*
X0109683Y0154714D01*
X0109579Y0154728D01*
X0109474Y0154745D01*
X0109371Y0154767D01*
X0109268Y0154792D01*
X0109166Y0154822D01*
X0109066Y0154855D01*
X0108967Y0154891D01*
X0108869Y0154932D01*
X0108773Y0154976D01*
X0108679Y0155024D01*
X0108586Y0155075D01*
X0108495Y0155129D01*
X0108407Y0155187D01*
X0108321Y0155249D01*
X0108237Y0155313D01*
X0108155Y0155380D01*
X0108076Y0155451D01*
X0108000Y0155524D01*
X0107927Y0155600D01*
X0107856Y0155679D01*
X0107789Y0155761D01*
X0107725Y0155845D01*
X0107663Y0155931D01*
X0107605Y0156019D01*
X0107551Y0156110D01*
X0107500Y0156203D01*
X0107452Y0156297D01*
X0107408Y0156393D01*
X0107367Y0156491D01*
X0107331Y0156590D01*
X0107298Y0156690D01*
X0107268Y0156792D01*
X0107243Y0156895D01*
X0107221Y0156998D01*
X0107204Y0157103D01*
X0107190Y0157207D01*
X0107180Y0157313D01*
X0107174Y0157418D01*
X0107172Y0157524D01*
D15*
X0100850Y0160374D02*
X0100850Y0161875D01*
X0100850Y0161124D02*
X0096346Y0161124D01*
X0096346Y0160374D02*
X0096346Y0161875D01*
X0097097Y0163443D02*
X0100099Y0163443D01*
X0100850Y0164194D01*
X0100850Y0165695D01*
X0100099Y0166445D01*
X0100850Y0168047D02*
X0100850Y0171049D01*
X0100850Y0169548D02*
X0096346Y0169548D01*
X0097847Y0168047D01*
X0097097Y0166445D02*
X0096346Y0165695D01*
X0096346Y0164194D01*
X0097097Y0163443D01*
X0074750Y0174774D02*
X0070246Y0174774D01*
X0070246Y0177026D01*
X0070997Y0177776D01*
X0072498Y0177776D01*
X0073249Y0177026D01*
X0073249Y0174774D01*
X0073249Y0176275D02*
X0074750Y0177776D01*
X0074750Y0179378D02*
X0074750Y0182380D01*
X0074750Y0180879D02*
X0070246Y0180879D01*
X0071747Y0179378D01*
X0070997Y0183981D02*
X0070246Y0184732D01*
X0070246Y0186233D01*
X0070997Y0186984D01*
X0071747Y0186984D01*
X0074750Y0183981D01*
X0074750Y0186984D01*
X0061750Y0186422D02*
X0061750Y0184920D01*
X0060999Y0184170D01*
X0061750Y0182568D02*
X0060249Y0181067D01*
X0060249Y0181818D02*
X0060249Y0179566D01*
X0061750Y0179566D02*
X0057246Y0179566D01*
X0057246Y0181818D01*
X0057997Y0182568D01*
X0059498Y0182568D01*
X0060249Y0181818D01*
X0057997Y0184170D02*
X0057246Y0184920D01*
X0057246Y0186422D01*
X0057997Y0187172D01*
X0058747Y0187172D01*
X0059498Y0186422D01*
X0060249Y0187172D01*
X0060999Y0187172D01*
X0061750Y0186422D01*
X0059498Y0186422D02*
X0059498Y0185671D01*
X0052450Y0175272D02*
X0052450Y0172270D01*
X0052450Y0173771D02*
X0047946Y0173771D01*
X0049447Y0172270D01*
X0047946Y0169167D02*
X0052450Y0169167D01*
X0052450Y0167666D02*
X0052450Y0170668D01*
X0049447Y0167666D02*
X0047946Y0169167D01*
X0048697Y0166064D02*
X0050198Y0166064D01*
X0050949Y0165314D01*
X0050949Y0163062D01*
X0052450Y0163062D02*
X0047946Y0163062D01*
X0047946Y0165314D01*
X0048697Y0166064D01*
X0050949Y0164563D02*
X0052450Y0166064D01*
X0041750Y0179566D02*
X0037246Y0179566D01*
X0037246Y0181818D01*
X0037997Y0182568D01*
X0039498Y0182568D01*
X0040249Y0181818D01*
X0040249Y0179566D01*
X0040249Y0181067D02*
X0041750Y0182568D01*
X0040999Y0184170D02*
X0041750Y0184920D01*
X0041750Y0186422D01*
X0040999Y0187172D01*
X0040249Y0187172D01*
X0039498Y0186422D01*
X0039498Y0184920D01*
X0038747Y0184170D01*
X0037997Y0184170D01*
X0037246Y0184920D01*
X0037246Y0186422D01*
X0037997Y0187172D01*
X0038747Y0187172D01*
X0039498Y0186422D01*
X0039498Y0184920D02*
X0040249Y0184170D01*
X0040999Y0184170D01*
X0040356Y0148777D02*
X0040356Y0144274D01*
X0038855Y0145775D01*
X0037354Y0144274D01*
X0037354Y0148777D01*
X0035753Y0148027D02*
X0035002Y0148777D01*
X0033501Y0148777D01*
X0032750Y0148027D01*
X0032750Y0147276D01*
X0033501Y0146526D01*
X0035002Y0146526D01*
X0035753Y0145775D01*
X0035753Y0145024D01*
X0035002Y0144274D01*
X0033501Y0144274D01*
X0032750Y0145024D01*
X0041958Y0144274D02*
X0044960Y0144274D01*
X0043459Y0144274D02*
X0043459Y0148777D01*
X0041958Y0147276D01*
X0043249Y0223774D02*
X0043249Y0226026D01*
X0042498Y0226776D01*
X0040997Y0226776D01*
X0040246Y0226026D01*
X0040246Y0223774D01*
X0044750Y0223774D01*
X0043249Y0225275D02*
X0044750Y0226776D01*
X0043999Y0228378D02*
X0044750Y0229128D01*
X0044750Y0230629D01*
X0043999Y0231380D01*
X0040997Y0231380D01*
X0040246Y0230629D01*
X0040246Y0229128D01*
X0040997Y0228378D01*
X0041747Y0228378D01*
X0042498Y0229128D01*
X0042498Y0231380D01*
X0050246Y0229879D02*
X0054750Y0229879D01*
X0054750Y0228378D02*
X0054750Y0231380D01*
X0053999Y0232981D02*
X0054750Y0233732D01*
X0054750Y0235233D01*
X0053999Y0235984D01*
X0050997Y0235984D01*
X0053999Y0232981D01*
X0050997Y0232981D01*
X0050246Y0233732D01*
X0050246Y0235233D01*
X0050997Y0235984D01*
X0050246Y0229879D02*
X0051747Y0228378D01*
X0050997Y0226776D02*
X0052498Y0226776D01*
X0053249Y0226026D01*
X0053249Y0223774D01*
X0053249Y0225275D02*
X0054750Y0226776D01*
X0054750Y0223774D02*
X0050246Y0223774D01*
X0050246Y0226026D01*
X0050997Y0226776D01*
X0060246Y0226026D02*
X0060246Y0223774D01*
X0064750Y0223774D01*
X0063249Y0223774D02*
X0063249Y0226026D01*
X0062498Y0226776D01*
X0060997Y0226776D01*
X0060246Y0226026D01*
X0062498Y0228378D02*
X0062498Y0230629D01*
X0063249Y0231380D01*
X0063999Y0231380D01*
X0064750Y0230629D01*
X0064750Y0229128D01*
X0063999Y0228378D01*
X0062498Y0228378D01*
X0060997Y0229879D01*
X0060246Y0231380D01*
X0064750Y0226776D02*
X0063249Y0225275D01*
X0070246Y0226026D02*
X0070246Y0223774D01*
X0074750Y0223774D01*
X0073249Y0223774D02*
X0073249Y0226026D01*
X0072498Y0226776D01*
X0070997Y0226776D01*
X0070246Y0226026D01*
X0070246Y0228378D02*
X0070246Y0231380D01*
X0070997Y0231380D01*
X0073999Y0228378D01*
X0074750Y0228378D01*
X0074750Y0226776D02*
X0073249Y0225275D01*
X0075000Y0247524D02*
X0075000Y0257524D01*
X0155000Y0257524D01*
X0155000Y0247524D01*
X0075000Y0247524D01*
X0095746Y0231699D02*
X0095746Y0230197D01*
X0096497Y0229447D01*
X0096497Y0227845D02*
X0095746Y0227095D01*
X0095746Y0225594D01*
X0096497Y0224843D01*
X0099499Y0224843D01*
X0100250Y0225594D01*
X0100250Y0227095D01*
X0099499Y0227845D01*
X0100250Y0229447D02*
X0097247Y0232449D01*
X0096497Y0232449D01*
X0095746Y0231699D01*
X0100250Y0232449D02*
X0100250Y0229447D01*
X0100250Y0223275D02*
X0100250Y0221774D01*
X0100250Y0222524D02*
X0095746Y0222524D01*
X0095746Y0221774D02*
X0095746Y0223275D01*
X0113838Y0235124D02*
X0114589Y0234374D01*
X0116090Y0234374D01*
X0116841Y0235124D01*
X0118442Y0234374D02*
X0118442Y0238877D01*
X0121445Y0234374D01*
X0121445Y0238877D01*
X0123046Y0237376D02*
X0124547Y0238877D01*
X0124547Y0234374D01*
X0123046Y0234374D02*
X0126049Y0234374D01*
X0116841Y0238127D02*
X0116090Y0238877D01*
X0114589Y0238877D01*
X0113838Y0238127D01*
X0113838Y0235124D01*
X0154146Y0213380D02*
X0154146Y0210378D01*
X0156398Y0210378D01*
X0155647Y0211879D01*
X0155647Y0212629D01*
X0156398Y0213380D01*
X0157899Y0213380D01*
X0158650Y0212629D01*
X0158650Y0211128D01*
X0157899Y0210378D01*
X0158650Y0208776D02*
X0157149Y0207275D01*
X0157149Y0208026D02*
X0157149Y0205774D01*
X0158650Y0205774D02*
X0154146Y0205774D01*
X0154146Y0208026D01*
X0154897Y0208776D01*
X0156398Y0208776D01*
X0157149Y0208026D01*
X0162046Y0210674D02*
X0162046Y0212926D01*
X0162797Y0213676D01*
X0164298Y0213676D01*
X0165049Y0212926D01*
X0165049Y0210674D01*
X0165049Y0212175D02*
X0166550Y0213676D01*
X0164298Y0215278D02*
X0164298Y0218280D01*
X0162046Y0217529D02*
X0164298Y0215278D01*
X0166550Y0217529D02*
X0162046Y0217529D01*
X0162046Y0210674D02*
X0166550Y0210674D01*
X0181846Y0207679D02*
X0186350Y0207679D01*
X0186350Y0206178D02*
X0186350Y0209180D01*
X0186350Y0204576D02*
X0184849Y0203075D01*
X0184849Y0203826D02*
X0184849Y0201574D01*
X0186350Y0201574D02*
X0181846Y0201574D01*
X0181846Y0203826D01*
X0182597Y0204576D01*
X0184098Y0204576D01*
X0184849Y0203826D01*
X0183347Y0206178D02*
X0181846Y0207679D01*
X0168950Y0162072D02*
X0168950Y0159070D01*
X0165947Y0162072D01*
X0165197Y0162072D01*
X0164446Y0161322D01*
X0164446Y0159820D01*
X0165197Y0159070D01*
X0165197Y0157468D02*
X0164446Y0156718D01*
X0164446Y0155216D01*
X0165197Y0154466D01*
X0168199Y0154466D01*
X0168950Y0155216D01*
X0168950Y0156718D01*
X0168199Y0157468D01*
X0181173Y0119909D02*
X0153614Y0119909D01*
X0153614Y0097862D01*
X0181173Y0097862D01*
X0181173Y0119909D01*
X0184614Y0119909D02*
X0212173Y0119909D01*
X0212173Y0097862D01*
X0184614Y0097862D01*
X0184614Y0092350D01*
X0212173Y0092350D01*
X0212173Y0097862D01*
X0184614Y0097862D02*
X0184614Y0119909D01*
X0181173Y0097862D02*
X0181173Y0092350D01*
X0153614Y0092350D01*
X0153614Y0097862D01*
X0150173Y0097862D02*
X0122614Y0097862D01*
X0122614Y0092350D01*
X0150173Y0092350D01*
X0150173Y0097862D01*
X0150173Y0119909D01*
X0122614Y0119909D01*
X0122614Y0097862D01*
X0032750Y0223566D02*
X0028246Y0223566D01*
X0028246Y0225818D01*
X0028997Y0226568D01*
X0030498Y0226568D01*
X0031249Y0225818D01*
X0031249Y0223566D01*
X0031249Y0225067D02*
X0032750Y0226568D01*
X0032750Y0228170D02*
X0029747Y0231172D01*
X0028997Y0231172D01*
X0028246Y0230422D01*
X0028246Y0228920D01*
X0028997Y0228170D01*
X0032750Y0228170D02*
X0032750Y0231172D01*
X0032356Y0247274D02*
X0029354Y0247274D01*
X0030855Y0247274D02*
X0030855Y0251777D01*
X0029354Y0250276D01*
X0027753Y0251027D02*
X0027002Y0251777D01*
X0025501Y0251777D01*
X0024750Y0251027D01*
X0024750Y0248024D01*
X0025501Y0247274D01*
X0027002Y0247274D01*
X0027753Y0248024D01*
X0045250Y0255677D02*
X0047519Y0255677D01*
X0046384Y0255677D02*
X0046384Y0252274D01*
X0048841Y0255677D02*
X0051110Y0255677D01*
X0049975Y0255677D02*
X0049975Y0252274D01*
D16*
X0020300Y0101391D02*
X0020867Y0100824D01*
X0022001Y0100824D01*
X0022569Y0101391D01*
X0022569Y0101958D01*
X0022001Y0102525D01*
X0020867Y0102525D01*
X0020300Y0103092D01*
X0020300Y0103659D01*
X0020867Y0104227D01*
X0022001Y0104227D01*
X0022569Y0103659D01*
X0023983Y0103659D02*
X0023983Y0101391D01*
X0024550Y0100824D01*
X0025685Y0100824D01*
X0026252Y0101391D01*
X0027666Y0100824D02*
X0029935Y0100824D01*
X0027666Y0100824D02*
X0027666Y0104227D01*
X0026252Y0103659D02*
X0025685Y0104227D01*
X0024550Y0104227D01*
X0023983Y0103659D01*
X0023983Y0110824D02*
X0025685Y0110824D01*
X0026252Y0111391D01*
X0026252Y0113659D01*
X0025685Y0114227D01*
X0023983Y0114227D01*
X0023983Y0110824D01*
X0022569Y0111391D02*
X0022001Y0110824D01*
X0020867Y0110824D01*
X0020300Y0111391D01*
X0020867Y0112525D02*
X0022001Y0112525D01*
X0022569Y0111958D01*
X0022569Y0111391D01*
X0020867Y0112525D02*
X0020300Y0113092D01*
X0020300Y0113659D01*
X0020867Y0114227D01*
X0022001Y0114227D01*
X0022569Y0113659D01*
X0027666Y0113092D02*
X0028801Y0114227D01*
X0029935Y0113092D01*
X0029935Y0110824D01*
X0029935Y0112525D02*
X0027666Y0112525D01*
X0027666Y0113092D02*
X0027666Y0110824D01*
X0027666Y0120824D02*
X0029935Y0120824D01*
X0031349Y0120824D02*
X0031349Y0124227D01*
X0033618Y0124227D01*
X0032484Y0122525D02*
X0031349Y0122525D01*
X0029935Y0124227D02*
X0027666Y0124227D01*
X0027666Y0120824D01*
X0026252Y0120824D02*
X0025117Y0121958D01*
X0025685Y0121958D02*
X0023983Y0121958D01*
X0023983Y0120824D02*
X0023983Y0124227D01*
X0025685Y0124227D01*
X0026252Y0123659D01*
X0026252Y0122525D01*
X0025685Y0121958D01*
X0027666Y0122525D02*
X0028801Y0122525D01*
X0022569Y0122525D02*
X0020300Y0122525D01*
X0020300Y0123092D02*
X0020300Y0120824D01*
X0020300Y0123092D02*
X0021434Y0124227D01*
X0022569Y0123092D01*
X0022569Y0120824D01*
X0022001Y0130824D02*
X0020867Y0130824D01*
X0020300Y0131391D01*
X0020300Y0133659D01*
X0020867Y0134227D01*
X0022001Y0134227D01*
X0022569Y0133659D01*
X0022569Y0132525D02*
X0021434Y0132525D01*
X0022569Y0132525D02*
X0022569Y0131391D01*
X0022001Y0130824D01*
X0023983Y0130824D02*
X0023983Y0134227D01*
X0026252Y0130824D01*
X0026252Y0134227D01*
X0027666Y0134227D02*
X0029368Y0134227D01*
X0029935Y0133659D01*
X0029935Y0131391D01*
X0029368Y0130824D01*
X0027666Y0130824D01*
X0027666Y0134227D01*
X0025685Y0140824D02*
X0024550Y0140824D01*
X0023983Y0141391D01*
X0022569Y0140824D02*
X0020300Y0140824D01*
X0021434Y0140824D02*
X0021434Y0144227D01*
X0020300Y0143092D01*
X0023983Y0143659D02*
X0024550Y0144227D01*
X0025685Y0144227D01*
X0026252Y0143659D01*
X0026252Y0143092D01*
X0025685Y0142525D01*
X0026252Y0141958D01*
X0026252Y0141391D01*
X0025685Y0140824D01*
X0025685Y0142525D02*
X0025117Y0142525D01*
X0023983Y0150824D02*
X0026252Y0153092D01*
X0026252Y0153659D01*
X0025685Y0154227D01*
X0024550Y0154227D01*
X0023983Y0153659D01*
X0023983Y0150824D02*
X0026252Y0150824D01*
X0022569Y0150824D02*
X0020300Y0150824D01*
X0021434Y0150824D02*
X0021434Y0154227D01*
X0020300Y0153092D01*
X0020300Y0160824D02*
X0022569Y0160824D01*
X0021434Y0160824D02*
X0021434Y0164227D01*
X0020300Y0163092D01*
X0023983Y0163092D02*
X0025117Y0164227D01*
X0025117Y0160824D01*
X0023983Y0160824D02*
X0026252Y0160824D01*
X0025685Y0170824D02*
X0024550Y0170824D01*
X0023983Y0171391D01*
X0026252Y0173659D01*
X0026252Y0171391D01*
X0025685Y0170824D01*
X0023983Y0171391D02*
X0023983Y0173659D01*
X0024550Y0174227D01*
X0025685Y0174227D01*
X0026252Y0173659D01*
X0022569Y0170824D02*
X0020300Y0170824D01*
X0021434Y0170824D02*
X0021434Y0174227D01*
X0020300Y0173092D01*
X0020867Y0180824D02*
X0022001Y0180824D01*
X0022569Y0181391D01*
X0022569Y0183659D01*
X0022001Y0184227D01*
X0020867Y0184227D01*
X0020300Y0183659D01*
X0020300Y0183092D01*
X0020867Y0182525D01*
X0022569Y0182525D01*
X0020867Y0180824D02*
X0020300Y0181391D01*
X0020867Y0190824D02*
X0020300Y0191391D01*
X0020300Y0191958D01*
X0020867Y0192525D01*
X0022001Y0192525D01*
X0022569Y0191958D01*
X0022569Y0191391D01*
X0022001Y0190824D01*
X0020867Y0190824D01*
X0020867Y0192525D02*
X0020300Y0193092D01*
X0020300Y0193659D01*
X0020867Y0194227D01*
X0022001Y0194227D01*
X0022569Y0193659D01*
X0022569Y0193092D01*
X0022001Y0192525D01*
X0020300Y0205824D02*
X0020300Y0206391D01*
X0022569Y0208659D01*
X0022569Y0209227D01*
X0020300Y0209227D01*
X0020867Y0215824D02*
X0022001Y0215824D01*
X0022569Y0216391D01*
X0022569Y0216958D01*
X0022001Y0217525D01*
X0020300Y0217525D01*
X0020300Y0216391D01*
X0020867Y0215824D01*
X0020300Y0217525D02*
X0021434Y0218659D01*
X0022569Y0219227D01*
X0026500Y0215524D02*
X0026500Y0214024D01*
X0026502Y0213964D01*
X0026507Y0213903D01*
X0026516Y0213844D01*
X0026529Y0213785D01*
X0026545Y0213726D01*
X0026565Y0213669D01*
X0026588Y0213614D01*
X0026615Y0213559D01*
X0026644Y0213507D01*
X0026677Y0213456D01*
X0026713Y0213407D01*
X0026751Y0213361D01*
X0026793Y0213317D01*
X0026837Y0213275D01*
X0026883Y0213237D01*
X0026932Y0213201D01*
X0026983Y0213168D01*
X0027035Y0213139D01*
X0027090Y0213112D01*
X0027145Y0213089D01*
X0027202Y0213069D01*
X0027261Y0213053D01*
X0027320Y0213040D01*
X0027379Y0213031D01*
X0027440Y0213026D01*
X0027500Y0213024D01*
X0034500Y0213024D01*
X0034560Y0213026D01*
X0034621Y0213031D01*
X0034680Y0213040D01*
X0034739Y0213053D01*
X0034798Y0213069D01*
X0034855Y0213089D01*
X0034910Y0213112D01*
X0034965Y0213139D01*
X0035017Y0213168D01*
X0035068Y0213201D01*
X0035117Y0213237D01*
X0035163Y0213275D01*
X0035207Y0213317D01*
X0035249Y0213361D01*
X0035287Y0213407D01*
X0035323Y0213456D01*
X0035356Y0213507D01*
X0035385Y0213559D01*
X0035412Y0213614D01*
X0035435Y0213669D01*
X0035455Y0213726D01*
X0035471Y0213785D01*
X0035484Y0213844D01*
X0035493Y0213903D01*
X0035498Y0213964D01*
X0035500Y0214024D01*
X0035500Y0215524D01*
X0035000Y0216024D01*
X0035000Y0235024D01*
X0035500Y0235524D01*
X0035500Y0237024D01*
X0036500Y0237024D02*
X0036500Y0235524D01*
X0037000Y0235024D01*
X0037000Y0216024D01*
X0036500Y0215524D01*
X0036500Y0214024D01*
X0036502Y0213964D01*
X0036507Y0213903D01*
X0036516Y0213844D01*
X0036529Y0213785D01*
X0036545Y0213726D01*
X0036565Y0213669D01*
X0036588Y0213614D01*
X0036615Y0213559D01*
X0036644Y0213507D01*
X0036677Y0213456D01*
X0036713Y0213407D01*
X0036751Y0213361D01*
X0036793Y0213317D01*
X0036837Y0213275D01*
X0036883Y0213237D01*
X0036932Y0213201D01*
X0036983Y0213168D01*
X0037035Y0213139D01*
X0037090Y0213112D01*
X0037145Y0213089D01*
X0037202Y0213069D01*
X0037261Y0213053D01*
X0037320Y0213040D01*
X0037379Y0213031D01*
X0037440Y0213026D01*
X0037500Y0213024D01*
X0044500Y0213024D01*
X0044560Y0213026D01*
X0044621Y0213031D01*
X0044680Y0213040D01*
X0044739Y0213053D01*
X0044798Y0213069D01*
X0044855Y0213089D01*
X0044910Y0213112D01*
X0044965Y0213139D01*
X0045017Y0213168D01*
X0045068Y0213201D01*
X0045117Y0213237D01*
X0045163Y0213275D01*
X0045207Y0213317D01*
X0045249Y0213361D01*
X0045287Y0213407D01*
X0045323Y0213456D01*
X0045356Y0213507D01*
X0045385Y0213559D01*
X0045412Y0213614D01*
X0045435Y0213669D01*
X0045455Y0213726D01*
X0045471Y0213785D01*
X0045484Y0213844D01*
X0045493Y0213903D01*
X0045498Y0213964D01*
X0045500Y0214024D01*
X0045500Y0215524D01*
X0045000Y0216024D01*
X0045000Y0235024D01*
X0045500Y0235524D01*
X0045500Y0237024D01*
X0046500Y0237024D02*
X0046500Y0235524D01*
X0047000Y0235024D01*
X0047000Y0216024D01*
X0046500Y0215524D01*
X0046500Y0214024D01*
X0046502Y0213964D01*
X0046507Y0213903D01*
X0046516Y0213844D01*
X0046529Y0213785D01*
X0046545Y0213726D01*
X0046565Y0213669D01*
X0046588Y0213614D01*
X0046615Y0213559D01*
X0046644Y0213507D01*
X0046677Y0213456D01*
X0046713Y0213407D01*
X0046751Y0213361D01*
X0046793Y0213317D01*
X0046837Y0213275D01*
X0046883Y0213237D01*
X0046932Y0213201D01*
X0046983Y0213168D01*
X0047035Y0213139D01*
X0047090Y0213112D01*
X0047145Y0213089D01*
X0047202Y0213069D01*
X0047261Y0213053D01*
X0047320Y0213040D01*
X0047379Y0213031D01*
X0047440Y0213026D01*
X0047500Y0213024D01*
X0054500Y0213024D01*
X0054560Y0213026D01*
X0054621Y0213031D01*
X0054680Y0213040D01*
X0054739Y0213053D01*
X0054798Y0213069D01*
X0054855Y0213089D01*
X0054910Y0213112D01*
X0054965Y0213139D01*
X0055017Y0213168D01*
X0055068Y0213201D01*
X0055117Y0213237D01*
X0055163Y0213275D01*
X0055207Y0213317D01*
X0055249Y0213361D01*
X0055287Y0213407D01*
X0055323Y0213456D01*
X0055356Y0213507D01*
X0055385Y0213559D01*
X0055412Y0213614D01*
X0055435Y0213669D01*
X0055455Y0213726D01*
X0055471Y0213785D01*
X0055484Y0213844D01*
X0055493Y0213903D01*
X0055498Y0213964D01*
X0055500Y0214024D01*
X0055500Y0215524D01*
X0055000Y0216024D01*
X0055000Y0235024D01*
X0055500Y0235524D01*
X0055500Y0237024D01*
X0055498Y0237084D01*
X0055493Y0237145D01*
X0055484Y0237204D01*
X0055471Y0237263D01*
X0055455Y0237322D01*
X0055435Y0237379D01*
X0055412Y0237434D01*
X0055385Y0237489D01*
X0055356Y0237541D01*
X0055323Y0237592D01*
X0055287Y0237641D01*
X0055249Y0237687D01*
X0055207Y0237731D01*
X0055163Y0237773D01*
X0055117Y0237811D01*
X0055068Y0237847D01*
X0055017Y0237880D01*
X0054965Y0237909D01*
X0054910Y0237936D01*
X0054855Y0237959D01*
X0054798Y0237979D01*
X0054739Y0237995D01*
X0054680Y0238008D01*
X0054621Y0238017D01*
X0054560Y0238022D01*
X0054500Y0238024D01*
X0047500Y0238024D01*
X0047440Y0238022D01*
X0047379Y0238017D01*
X0047320Y0238008D01*
X0047261Y0237995D01*
X0047202Y0237979D01*
X0047145Y0237959D01*
X0047090Y0237936D01*
X0047035Y0237909D01*
X0046983Y0237880D01*
X0046932Y0237847D01*
X0046883Y0237811D01*
X0046837Y0237773D01*
X0046793Y0237731D01*
X0046751Y0237687D01*
X0046713Y0237641D01*
X0046677Y0237592D01*
X0046644Y0237541D01*
X0046615Y0237489D01*
X0046588Y0237434D01*
X0046565Y0237379D01*
X0046545Y0237322D01*
X0046529Y0237263D01*
X0046516Y0237204D01*
X0046507Y0237145D01*
X0046502Y0237084D01*
X0046500Y0237024D01*
X0045500Y0237024D02*
X0045498Y0237084D01*
X0045493Y0237145D01*
X0045484Y0237204D01*
X0045471Y0237263D01*
X0045455Y0237322D01*
X0045435Y0237379D01*
X0045412Y0237434D01*
X0045385Y0237489D01*
X0045356Y0237541D01*
X0045323Y0237592D01*
X0045287Y0237641D01*
X0045249Y0237687D01*
X0045207Y0237731D01*
X0045163Y0237773D01*
X0045117Y0237811D01*
X0045068Y0237847D01*
X0045017Y0237880D01*
X0044965Y0237909D01*
X0044910Y0237936D01*
X0044855Y0237959D01*
X0044798Y0237979D01*
X0044739Y0237995D01*
X0044680Y0238008D01*
X0044621Y0238017D01*
X0044560Y0238022D01*
X0044500Y0238024D01*
X0037500Y0238024D01*
X0037440Y0238022D01*
X0037379Y0238017D01*
X0037320Y0238008D01*
X0037261Y0237995D01*
X0037202Y0237979D01*
X0037145Y0237959D01*
X0037090Y0237936D01*
X0037035Y0237909D01*
X0036983Y0237880D01*
X0036932Y0237847D01*
X0036883Y0237811D01*
X0036837Y0237773D01*
X0036793Y0237731D01*
X0036751Y0237687D01*
X0036713Y0237641D01*
X0036677Y0237592D01*
X0036644Y0237541D01*
X0036615Y0237489D01*
X0036588Y0237434D01*
X0036565Y0237379D01*
X0036545Y0237322D01*
X0036529Y0237263D01*
X0036516Y0237204D01*
X0036507Y0237145D01*
X0036502Y0237084D01*
X0036500Y0237024D01*
X0035500Y0237024D02*
X0035498Y0237084D01*
X0035493Y0237145D01*
X0035484Y0237204D01*
X0035471Y0237263D01*
X0035455Y0237322D01*
X0035435Y0237379D01*
X0035412Y0237434D01*
X0035385Y0237489D01*
X0035356Y0237541D01*
X0035323Y0237592D01*
X0035287Y0237641D01*
X0035249Y0237687D01*
X0035207Y0237731D01*
X0035163Y0237773D01*
X0035117Y0237811D01*
X0035068Y0237847D01*
X0035017Y0237880D01*
X0034965Y0237909D01*
X0034910Y0237936D01*
X0034855Y0237959D01*
X0034798Y0237979D01*
X0034739Y0237995D01*
X0034680Y0238008D01*
X0034621Y0238017D01*
X0034560Y0238022D01*
X0034500Y0238024D01*
X0027500Y0238024D01*
X0027440Y0238022D01*
X0027379Y0238017D01*
X0027320Y0238008D01*
X0027261Y0237995D01*
X0027202Y0237979D01*
X0027145Y0237959D01*
X0027090Y0237936D01*
X0027035Y0237909D01*
X0026983Y0237880D01*
X0026932Y0237847D01*
X0026883Y0237811D01*
X0026837Y0237773D01*
X0026793Y0237731D01*
X0026751Y0237687D01*
X0026713Y0237641D01*
X0026677Y0237592D01*
X0026644Y0237541D01*
X0026615Y0237489D01*
X0026588Y0237434D01*
X0026565Y0237379D01*
X0026545Y0237322D01*
X0026529Y0237263D01*
X0026516Y0237204D01*
X0026507Y0237145D01*
X0026502Y0237084D01*
X0026500Y0237024D01*
X0026500Y0235524D01*
X0027000Y0235024D01*
X0027000Y0216024D01*
X0026500Y0215524D01*
X0022001Y0225824D02*
X0020867Y0225824D01*
X0020300Y0226391D01*
X0020300Y0227525D02*
X0021434Y0228092D01*
X0022001Y0228092D01*
X0022569Y0227525D01*
X0022569Y0226391D01*
X0022001Y0225824D01*
X0020300Y0227525D02*
X0020300Y0229227D01*
X0022569Y0229227D01*
X0022001Y0235824D02*
X0022001Y0239227D01*
X0020300Y0237525D01*
X0022569Y0237525D01*
X0022001Y0245824D02*
X0020867Y0245824D01*
X0020300Y0246391D01*
X0021434Y0247525D02*
X0022001Y0247525D01*
X0022569Y0246958D01*
X0022569Y0246391D01*
X0022001Y0245824D01*
X0022001Y0247525D02*
X0022569Y0248092D01*
X0022569Y0248659D01*
X0022001Y0249227D01*
X0020867Y0249227D01*
X0020300Y0248659D01*
X0020300Y0255824D02*
X0022569Y0258092D01*
X0022569Y0258659D01*
X0022001Y0259227D01*
X0020867Y0259227D01*
X0020300Y0258659D01*
X0020300Y0255824D02*
X0022569Y0255824D01*
X0021434Y0265824D02*
X0021434Y0269227D01*
X0020300Y0269227D02*
X0022569Y0269227D01*
X0023983Y0269227D02*
X0026252Y0265824D01*
X0023983Y0265824D02*
X0026252Y0269227D01*
X0026252Y0275824D02*
X0023983Y0279227D01*
X0022569Y0278659D02*
X0022569Y0277525D01*
X0022001Y0276958D01*
X0020300Y0276958D01*
X0021434Y0276958D02*
X0022569Y0275824D01*
X0023983Y0275824D02*
X0026252Y0279227D01*
X0022569Y0278659D02*
X0022001Y0279227D01*
X0020300Y0279227D01*
X0020300Y0275824D01*
X0036000Y0265524D02*
X0039000Y0265524D01*
X0037500Y0267024D02*
X0037500Y0264024D01*
X0041000Y0264024D02*
X0041000Y0260524D01*
X0041000Y0257024D01*
X0042300Y0257024D01*
X0042300Y0264024D01*
X0041000Y0264024D01*
X0041000Y0260524D02*
X0037000Y0260524D01*
X0045000Y0260524D02*
X0049000Y0260524D01*
X0057500Y0238024D02*
X0064500Y0238024D01*
X0064560Y0238022D01*
X0064621Y0238017D01*
X0064680Y0238008D01*
X0064739Y0237995D01*
X0064798Y0237979D01*
X0064855Y0237959D01*
X0064910Y0237936D01*
X0064965Y0237909D01*
X0065017Y0237880D01*
X0065068Y0237847D01*
X0065117Y0237811D01*
X0065163Y0237773D01*
X0065207Y0237731D01*
X0065249Y0237687D01*
X0065287Y0237641D01*
X0065323Y0237592D01*
X0065356Y0237541D01*
X0065385Y0237489D01*
X0065412Y0237434D01*
X0065435Y0237379D01*
X0065455Y0237322D01*
X0065471Y0237263D01*
X0065484Y0237204D01*
X0065493Y0237145D01*
X0065498Y0237084D01*
X0065500Y0237024D01*
X0065500Y0235524D01*
X0065000Y0235024D01*
X0065000Y0216024D01*
X0065500Y0215524D01*
X0065500Y0214024D01*
X0066500Y0214024D02*
X0066500Y0215524D01*
X0067000Y0216024D01*
X0067000Y0235024D01*
X0066500Y0235524D01*
X0066500Y0237024D01*
X0066502Y0237084D01*
X0066507Y0237145D01*
X0066516Y0237204D01*
X0066529Y0237263D01*
X0066545Y0237322D01*
X0066565Y0237379D01*
X0066588Y0237434D01*
X0066615Y0237489D01*
X0066644Y0237541D01*
X0066677Y0237592D01*
X0066713Y0237641D01*
X0066751Y0237687D01*
X0066793Y0237731D01*
X0066837Y0237773D01*
X0066883Y0237811D01*
X0066932Y0237847D01*
X0066983Y0237880D01*
X0067035Y0237909D01*
X0067090Y0237936D01*
X0067145Y0237959D01*
X0067202Y0237979D01*
X0067261Y0237995D01*
X0067320Y0238008D01*
X0067379Y0238017D01*
X0067440Y0238022D01*
X0067500Y0238024D01*
X0074500Y0238024D01*
X0074560Y0238022D01*
X0074621Y0238017D01*
X0074680Y0238008D01*
X0074739Y0237995D01*
X0074798Y0237979D01*
X0074855Y0237959D01*
X0074910Y0237936D01*
X0074965Y0237909D01*
X0075017Y0237880D01*
X0075068Y0237847D01*
X0075117Y0237811D01*
X0075163Y0237773D01*
X0075207Y0237731D01*
X0075249Y0237687D01*
X0075287Y0237641D01*
X0075323Y0237592D01*
X0075356Y0237541D01*
X0075385Y0237489D01*
X0075412Y0237434D01*
X0075435Y0237379D01*
X0075455Y0237322D01*
X0075471Y0237263D01*
X0075484Y0237204D01*
X0075493Y0237145D01*
X0075498Y0237084D01*
X0075500Y0237024D01*
X0075500Y0235524D01*
X0075000Y0235024D01*
X0075000Y0216024D01*
X0075500Y0215524D01*
X0075500Y0214024D01*
X0075498Y0213964D01*
X0075493Y0213903D01*
X0075484Y0213844D01*
X0075471Y0213785D01*
X0075455Y0213726D01*
X0075435Y0213669D01*
X0075412Y0213614D01*
X0075385Y0213559D01*
X0075356Y0213507D01*
X0075323Y0213456D01*
X0075287Y0213407D01*
X0075249Y0213361D01*
X0075207Y0213317D01*
X0075163Y0213275D01*
X0075117Y0213237D01*
X0075068Y0213201D01*
X0075017Y0213168D01*
X0074965Y0213139D01*
X0074910Y0213112D01*
X0074855Y0213089D01*
X0074798Y0213069D01*
X0074739Y0213053D01*
X0074680Y0213040D01*
X0074621Y0213031D01*
X0074560Y0213026D01*
X0074500Y0213024D01*
X0067500Y0213024D01*
X0067440Y0213026D01*
X0067379Y0213031D01*
X0067320Y0213040D01*
X0067261Y0213053D01*
X0067202Y0213069D01*
X0067145Y0213089D01*
X0067090Y0213112D01*
X0067035Y0213139D01*
X0066983Y0213168D01*
X0066932Y0213201D01*
X0066883Y0213237D01*
X0066837Y0213275D01*
X0066793Y0213317D01*
X0066751Y0213361D01*
X0066713Y0213407D01*
X0066677Y0213456D01*
X0066644Y0213507D01*
X0066615Y0213559D01*
X0066588Y0213614D01*
X0066565Y0213669D01*
X0066545Y0213726D01*
X0066529Y0213785D01*
X0066516Y0213844D01*
X0066507Y0213903D01*
X0066502Y0213964D01*
X0066500Y0214024D01*
X0065500Y0214024D02*
X0065498Y0213964D01*
X0065493Y0213903D01*
X0065484Y0213844D01*
X0065471Y0213785D01*
X0065455Y0213726D01*
X0065435Y0213669D01*
X0065412Y0213614D01*
X0065385Y0213559D01*
X0065356Y0213507D01*
X0065323Y0213456D01*
X0065287Y0213407D01*
X0065249Y0213361D01*
X0065207Y0213317D01*
X0065163Y0213275D01*
X0065117Y0213237D01*
X0065068Y0213201D01*
X0065017Y0213168D01*
X0064965Y0213139D01*
X0064910Y0213112D01*
X0064855Y0213089D01*
X0064798Y0213069D01*
X0064739Y0213053D01*
X0064680Y0213040D01*
X0064621Y0213031D01*
X0064560Y0213026D01*
X0064500Y0213024D01*
X0057500Y0213024D01*
X0057440Y0213026D01*
X0057379Y0213031D01*
X0057320Y0213040D01*
X0057261Y0213053D01*
X0057202Y0213069D01*
X0057145Y0213089D01*
X0057090Y0213112D01*
X0057035Y0213139D01*
X0056983Y0213168D01*
X0056932Y0213201D01*
X0056883Y0213237D01*
X0056837Y0213275D01*
X0056793Y0213317D01*
X0056751Y0213361D01*
X0056713Y0213407D01*
X0056677Y0213456D01*
X0056644Y0213507D01*
X0056615Y0213559D01*
X0056588Y0213614D01*
X0056565Y0213669D01*
X0056545Y0213726D01*
X0056529Y0213785D01*
X0056516Y0213844D01*
X0056507Y0213903D01*
X0056502Y0213964D01*
X0056500Y0214024D01*
X0056500Y0215524D01*
X0057000Y0216024D01*
X0057000Y0235024D01*
X0056500Y0235524D01*
X0056500Y0237024D01*
X0056502Y0237084D01*
X0056507Y0237145D01*
X0056516Y0237204D01*
X0056529Y0237263D01*
X0056545Y0237322D01*
X0056565Y0237379D01*
X0056588Y0237434D01*
X0056615Y0237489D01*
X0056644Y0237541D01*
X0056677Y0237592D01*
X0056713Y0237641D01*
X0056751Y0237687D01*
X0056793Y0237731D01*
X0056837Y0237773D01*
X0056883Y0237811D01*
X0056932Y0237847D01*
X0056983Y0237880D01*
X0057035Y0237909D01*
X0057090Y0237936D01*
X0057145Y0237959D01*
X0057202Y0237979D01*
X0057261Y0237995D01*
X0057320Y0238008D01*
X0057379Y0238017D01*
X0057440Y0238022D01*
X0057500Y0238024D01*
X0057500Y0189024D02*
X0064500Y0189024D01*
X0064560Y0189022D01*
X0064621Y0189017D01*
X0064680Y0189008D01*
X0064739Y0188995D01*
X0064798Y0188979D01*
X0064855Y0188959D01*
X0064910Y0188936D01*
X0064965Y0188909D01*
X0065017Y0188880D01*
X0065068Y0188847D01*
X0065117Y0188811D01*
X0065163Y0188773D01*
X0065207Y0188731D01*
X0065249Y0188687D01*
X0065287Y0188641D01*
X0065323Y0188592D01*
X0065356Y0188541D01*
X0065385Y0188489D01*
X0065412Y0188434D01*
X0065435Y0188379D01*
X0065455Y0188322D01*
X0065471Y0188263D01*
X0065484Y0188204D01*
X0065493Y0188145D01*
X0065498Y0188084D01*
X0065500Y0188024D01*
X0065500Y0186524D01*
X0065000Y0186024D01*
X0065000Y0167024D01*
X0065500Y0166524D01*
X0065500Y0165024D01*
X0066500Y0165024D02*
X0066500Y0166524D01*
X0067000Y0167024D01*
X0067000Y0186024D01*
X0066500Y0186524D01*
X0066500Y0188024D01*
X0066502Y0188084D01*
X0066507Y0188145D01*
X0066516Y0188204D01*
X0066529Y0188263D01*
X0066545Y0188322D01*
X0066565Y0188379D01*
X0066588Y0188434D01*
X0066615Y0188489D01*
X0066644Y0188541D01*
X0066677Y0188592D01*
X0066713Y0188641D01*
X0066751Y0188687D01*
X0066793Y0188731D01*
X0066837Y0188773D01*
X0066883Y0188811D01*
X0066932Y0188847D01*
X0066983Y0188880D01*
X0067035Y0188909D01*
X0067090Y0188936D01*
X0067145Y0188959D01*
X0067202Y0188979D01*
X0067261Y0188995D01*
X0067320Y0189008D01*
X0067379Y0189017D01*
X0067440Y0189022D01*
X0067500Y0189024D01*
X0074500Y0189024D01*
X0074560Y0189022D01*
X0074621Y0189017D01*
X0074680Y0189008D01*
X0074739Y0188995D01*
X0074798Y0188979D01*
X0074855Y0188959D01*
X0074910Y0188936D01*
X0074965Y0188909D01*
X0075017Y0188880D01*
X0075068Y0188847D01*
X0075117Y0188811D01*
X0075163Y0188773D01*
X0075207Y0188731D01*
X0075249Y0188687D01*
X0075287Y0188641D01*
X0075323Y0188592D01*
X0075356Y0188541D01*
X0075385Y0188489D01*
X0075412Y0188434D01*
X0075435Y0188379D01*
X0075455Y0188322D01*
X0075471Y0188263D01*
X0075484Y0188204D01*
X0075493Y0188145D01*
X0075498Y0188084D01*
X0075500Y0188024D01*
X0075500Y0186524D01*
X0075000Y0186024D01*
X0075000Y0167024D01*
X0075500Y0166524D01*
X0075500Y0165024D01*
X0075498Y0164964D01*
X0075493Y0164903D01*
X0075484Y0164844D01*
X0075471Y0164785D01*
X0075455Y0164726D01*
X0075435Y0164669D01*
X0075412Y0164614D01*
X0075385Y0164559D01*
X0075356Y0164507D01*
X0075323Y0164456D01*
X0075287Y0164407D01*
X0075249Y0164361D01*
X0075207Y0164317D01*
X0075163Y0164275D01*
X0075117Y0164237D01*
X0075068Y0164201D01*
X0075017Y0164168D01*
X0074965Y0164139D01*
X0074910Y0164112D01*
X0074855Y0164089D01*
X0074798Y0164069D01*
X0074739Y0164053D01*
X0074680Y0164040D01*
X0074621Y0164031D01*
X0074560Y0164026D01*
X0074500Y0164024D01*
X0067500Y0164024D01*
X0067440Y0164026D01*
X0067379Y0164031D01*
X0067320Y0164040D01*
X0067261Y0164053D01*
X0067202Y0164069D01*
X0067145Y0164089D01*
X0067090Y0164112D01*
X0067035Y0164139D01*
X0066983Y0164168D01*
X0066932Y0164201D01*
X0066883Y0164237D01*
X0066837Y0164275D01*
X0066793Y0164317D01*
X0066751Y0164361D01*
X0066713Y0164407D01*
X0066677Y0164456D01*
X0066644Y0164507D01*
X0066615Y0164559D01*
X0066588Y0164614D01*
X0066565Y0164669D01*
X0066545Y0164726D01*
X0066529Y0164785D01*
X0066516Y0164844D01*
X0066507Y0164903D01*
X0066502Y0164964D01*
X0066500Y0165024D01*
X0065500Y0165024D02*
X0065498Y0164964D01*
X0065493Y0164903D01*
X0065484Y0164844D01*
X0065471Y0164785D01*
X0065455Y0164726D01*
X0065435Y0164669D01*
X0065412Y0164614D01*
X0065385Y0164559D01*
X0065356Y0164507D01*
X0065323Y0164456D01*
X0065287Y0164407D01*
X0065249Y0164361D01*
X0065207Y0164317D01*
X0065163Y0164275D01*
X0065117Y0164237D01*
X0065068Y0164201D01*
X0065017Y0164168D01*
X0064965Y0164139D01*
X0064910Y0164112D01*
X0064855Y0164089D01*
X0064798Y0164069D01*
X0064739Y0164053D01*
X0064680Y0164040D01*
X0064621Y0164031D01*
X0064560Y0164026D01*
X0064500Y0164024D01*
X0057500Y0164024D01*
X0057440Y0164026D01*
X0057379Y0164031D01*
X0057320Y0164040D01*
X0057261Y0164053D01*
X0057202Y0164069D01*
X0057145Y0164089D01*
X0057090Y0164112D01*
X0057035Y0164139D01*
X0056983Y0164168D01*
X0056932Y0164201D01*
X0056883Y0164237D01*
X0056837Y0164275D01*
X0056793Y0164317D01*
X0056751Y0164361D01*
X0056713Y0164407D01*
X0056677Y0164456D01*
X0056644Y0164507D01*
X0056615Y0164559D01*
X0056588Y0164614D01*
X0056565Y0164669D01*
X0056545Y0164726D01*
X0056529Y0164785D01*
X0056516Y0164844D01*
X0056507Y0164903D01*
X0056502Y0164964D01*
X0056500Y0165024D01*
X0056500Y0166524D01*
X0057000Y0167024D01*
X0057000Y0186024D01*
X0056500Y0186524D01*
X0056500Y0188024D01*
X0056502Y0188084D01*
X0056507Y0188145D01*
X0056516Y0188204D01*
X0056529Y0188263D01*
X0056545Y0188322D01*
X0056565Y0188379D01*
X0056588Y0188434D01*
X0056615Y0188489D01*
X0056644Y0188541D01*
X0056677Y0188592D01*
X0056713Y0188641D01*
X0056751Y0188687D01*
X0056793Y0188731D01*
X0056837Y0188773D01*
X0056883Y0188811D01*
X0056932Y0188847D01*
X0056983Y0188880D01*
X0057035Y0188909D01*
X0057090Y0188936D01*
X0057145Y0188959D01*
X0057202Y0188979D01*
X0057261Y0188995D01*
X0057320Y0189008D01*
X0057379Y0189017D01*
X0057440Y0189022D01*
X0057500Y0189024D01*
X0055500Y0188024D02*
X0055500Y0186524D01*
X0055000Y0186024D01*
X0055000Y0167024D01*
X0055500Y0166524D01*
X0055500Y0165024D01*
X0055498Y0164964D01*
X0055493Y0164903D01*
X0055484Y0164844D01*
X0055471Y0164785D01*
X0055455Y0164726D01*
X0055435Y0164669D01*
X0055412Y0164614D01*
X0055385Y0164559D01*
X0055356Y0164507D01*
X0055323Y0164456D01*
X0055287Y0164407D01*
X0055249Y0164361D01*
X0055207Y0164317D01*
X0055163Y0164275D01*
X0055117Y0164237D01*
X0055068Y0164201D01*
X0055017Y0164168D01*
X0054965Y0164139D01*
X0054910Y0164112D01*
X0054855Y0164089D01*
X0054798Y0164069D01*
X0054739Y0164053D01*
X0054680Y0164040D01*
X0054621Y0164031D01*
X0054560Y0164026D01*
X0054500Y0164024D01*
X0047500Y0164024D01*
X0047440Y0164026D01*
X0047379Y0164031D01*
X0047320Y0164040D01*
X0047261Y0164053D01*
X0047202Y0164069D01*
X0047145Y0164089D01*
X0047090Y0164112D01*
X0047035Y0164139D01*
X0046983Y0164168D01*
X0046932Y0164201D01*
X0046883Y0164237D01*
X0046837Y0164275D01*
X0046793Y0164317D01*
X0046751Y0164361D01*
X0046713Y0164407D01*
X0046677Y0164456D01*
X0046644Y0164507D01*
X0046615Y0164559D01*
X0046588Y0164614D01*
X0046565Y0164669D01*
X0046545Y0164726D01*
X0046529Y0164785D01*
X0046516Y0164844D01*
X0046507Y0164903D01*
X0046502Y0164964D01*
X0046500Y0165024D01*
X0046500Y0166524D01*
X0047000Y0167024D01*
X0047000Y0186024D01*
X0046500Y0186524D01*
X0046500Y0188024D01*
X0046502Y0188084D01*
X0046507Y0188145D01*
X0046516Y0188204D01*
X0046529Y0188263D01*
X0046545Y0188322D01*
X0046565Y0188379D01*
X0046588Y0188434D01*
X0046615Y0188489D01*
X0046644Y0188541D01*
X0046677Y0188592D01*
X0046713Y0188641D01*
X0046751Y0188687D01*
X0046793Y0188731D01*
X0046837Y0188773D01*
X0046883Y0188811D01*
X0046932Y0188847D01*
X0046983Y0188880D01*
X0047035Y0188909D01*
X0047090Y0188936D01*
X0047145Y0188959D01*
X0047202Y0188979D01*
X0047261Y0188995D01*
X0047320Y0189008D01*
X0047379Y0189017D01*
X0047440Y0189022D01*
X0047500Y0189024D01*
X0054500Y0189024D01*
X0054560Y0189022D01*
X0054621Y0189017D01*
X0054680Y0189008D01*
X0054739Y0188995D01*
X0054798Y0188979D01*
X0054855Y0188959D01*
X0054910Y0188936D01*
X0054965Y0188909D01*
X0055017Y0188880D01*
X0055068Y0188847D01*
X0055117Y0188811D01*
X0055163Y0188773D01*
X0055207Y0188731D01*
X0055249Y0188687D01*
X0055287Y0188641D01*
X0055323Y0188592D01*
X0055356Y0188541D01*
X0055385Y0188489D01*
X0055412Y0188434D01*
X0055435Y0188379D01*
X0055455Y0188322D01*
X0055471Y0188263D01*
X0055484Y0188204D01*
X0055493Y0188145D01*
X0055498Y0188084D01*
X0055500Y0188024D01*
X0045500Y0188024D02*
X0045500Y0186524D01*
X0045000Y0186024D01*
X0045000Y0167024D01*
X0045500Y0166524D01*
X0045500Y0165024D01*
X0045498Y0164964D01*
X0045493Y0164903D01*
X0045484Y0164844D01*
X0045471Y0164785D01*
X0045455Y0164726D01*
X0045435Y0164669D01*
X0045412Y0164614D01*
X0045385Y0164559D01*
X0045356Y0164507D01*
X0045323Y0164456D01*
X0045287Y0164407D01*
X0045249Y0164361D01*
X0045207Y0164317D01*
X0045163Y0164275D01*
X0045117Y0164237D01*
X0045068Y0164201D01*
X0045017Y0164168D01*
X0044965Y0164139D01*
X0044910Y0164112D01*
X0044855Y0164089D01*
X0044798Y0164069D01*
X0044739Y0164053D01*
X0044680Y0164040D01*
X0044621Y0164031D01*
X0044560Y0164026D01*
X0044500Y0164024D01*
X0037500Y0164024D01*
X0037440Y0164026D01*
X0037379Y0164031D01*
X0037320Y0164040D01*
X0037261Y0164053D01*
X0037202Y0164069D01*
X0037145Y0164089D01*
X0037090Y0164112D01*
X0037035Y0164139D01*
X0036983Y0164168D01*
X0036932Y0164201D01*
X0036883Y0164237D01*
X0036837Y0164275D01*
X0036793Y0164317D01*
X0036751Y0164361D01*
X0036713Y0164407D01*
X0036677Y0164456D01*
X0036644Y0164507D01*
X0036615Y0164559D01*
X0036588Y0164614D01*
X0036565Y0164669D01*
X0036545Y0164726D01*
X0036529Y0164785D01*
X0036516Y0164844D01*
X0036507Y0164903D01*
X0036502Y0164964D01*
X0036500Y0165024D01*
X0036500Y0166524D01*
X0037000Y0167024D01*
X0037000Y0186024D01*
X0036500Y0186524D01*
X0036500Y0188024D01*
X0036502Y0188084D01*
X0036507Y0188145D01*
X0036516Y0188204D01*
X0036529Y0188263D01*
X0036545Y0188322D01*
X0036565Y0188379D01*
X0036588Y0188434D01*
X0036615Y0188489D01*
X0036644Y0188541D01*
X0036677Y0188592D01*
X0036713Y0188641D01*
X0036751Y0188687D01*
X0036793Y0188731D01*
X0036837Y0188773D01*
X0036883Y0188811D01*
X0036932Y0188847D01*
X0036983Y0188880D01*
X0037035Y0188909D01*
X0037090Y0188936D01*
X0037145Y0188959D01*
X0037202Y0188979D01*
X0037261Y0188995D01*
X0037320Y0189008D01*
X0037379Y0189017D01*
X0037440Y0189022D01*
X0037500Y0189024D01*
X0044500Y0189024D01*
X0044560Y0189022D01*
X0044621Y0189017D01*
X0044680Y0189008D01*
X0044739Y0188995D01*
X0044798Y0188979D01*
X0044855Y0188959D01*
X0044910Y0188936D01*
X0044965Y0188909D01*
X0045017Y0188880D01*
X0045068Y0188847D01*
X0045117Y0188811D01*
X0045163Y0188773D01*
X0045207Y0188731D01*
X0045249Y0188687D01*
X0045287Y0188641D01*
X0045323Y0188592D01*
X0045356Y0188541D01*
X0045385Y0188489D01*
X0045412Y0188434D01*
X0045435Y0188379D01*
X0045455Y0188322D01*
X0045471Y0188263D01*
X0045484Y0188204D01*
X0045493Y0188145D01*
X0045498Y0188084D01*
X0045500Y0188024D01*
X0152500Y0196024D02*
X0152500Y0197524D01*
X0153000Y0198024D01*
X0153000Y0217024D01*
X0152500Y0217524D01*
X0152500Y0219024D01*
X0152502Y0219084D01*
X0152507Y0219145D01*
X0152516Y0219204D01*
X0152529Y0219263D01*
X0152545Y0219322D01*
X0152565Y0219379D01*
X0152588Y0219434D01*
X0152615Y0219489D01*
X0152644Y0219541D01*
X0152677Y0219592D01*
X0152713Y0219641D01*
X0152751Y0219687D01*
X0152793Y0219731D01*
X0152837Y0219773D01*
X0152883Y0219811D01*
X0152932Y0219847D01*
X0152983Y0219880D01*
X0153035Y0219909D01*
X0153090Y0219936D01*
X0153145Y0219959D01*
X0153202Y0219979D01*
X0153261Y0219995D01*
X0153320Y0220008D01*
X0153379Y0220017D01*
X0153440Y0220022D01*
X0153500Y0220024D01*
X0160500Y0220024D01*
X0160560Y0220022D01*
X0160621Y0220017D01*
X0160680Y0220008D01*
X0160739Y0219995D01*
X0160798Y0219979D01*
X0160855Y0219959D01*
X0160910Y0219936D01*
X0160965Y0219909D01*
X0161017Y0219880D01*
X0161068Y0219847D01*
X0161117Y0219811D01*
X0161163Y0219773D01*
X0161207Y0219731D01*
X0161249Y0219687D01*
X0161287Y0219641D01*
X0161323Y0219592D01*
X0161356Y0219541D01*
X0161385Y0219489D01*
X0161412Y0219434D01*
X0161435Y0219379D01*
X0161455Y0219322D01*
X0161471Y0219263D01*
X0161484Y0219204D01*
X0161493Y0219145D01*
X0161498Y0219084D01*
X0161500Y0219024D01*
X0161500Y0217524D01*
X0161000Y0217024D01*
X0161000Y0198024D01*
X0161500Y0197524D01*
X0161500Y0196024D01*
X0161498Y0195964D01*
X0161493Y0195903D01*
X0161484Y0195844D01*
X0161471Y0195785D01*
X0161455Y0195726D01*
X0161435Y0195669D01*
X0161412Y0195614D01*
X0161385Y0195559D01*
X0161356Y0195507D01*
X0161323Y0195456D01*
X0161287Y0195407D01*
X0161249Y0195361D01*
X0161207Y0195317D01*
X0161163Y0195275D01*
X0161117Y0195237D01*
X0161068Y0195201D01*
X0161017Y0195168D01*
X0160965Y0195139D01*
X0160910Y0195112D01*
X0160855Y0195089D01*
X0160798Y0195069D01*
X0160739Y0195053D01*
X0160680Y0195040D01*
X0160621Y0195031D01*
X0160560Y0195026D01*
X0160500Y0195024D01*
X0153500Y0195024D01*
X0153440Y0195026D01*
X0153379Y0195031D01*
X0153320Y0195040D01*
X0153261Y0195053D01*
X0153202Y0195069D01*
X0153145Y0195089D01*
X0153090Y0195112D01*
X0153035Y0195139D01*
X0152983Y0195168D01*
X0152932Y0195201D01*
X0152883Y0195237D01*
X0152837Y0195275D01*
X0152793Y0195317D01*
X0152751Y0195361D01*
X0152713Y0195407D01*
X0152677Y0195456D01*
X0152644Y0195507D01*
X0152615Y0195559D01*
X0152588Y0195614D01*
X0152565Y0195669D01*
X0152545Y0195726D01*
X0152529Y0195785D01*
X0152516Y0195844D01*
X0152507Y0195903D01*
X0152502Y0195964D01*
X0152500Y0196024D01*
X0162500Y0196024D02*
X0162500Y0197524D01*
X0163000Y0198024D01*
X0163000Y0217024D01*
X0162500Y0217524D01*
X0162500Y0219024D01*
X0162502Y0219084D01*
X0162507Y0219145D01*
X0162516Y0219204D01*
X0162529Y0219263D01*
X0162545Y0219322D01*
X0162565Y0219379D01*
X0162588Y0219434D01*
X0162615Y0219489D01*
X0162644Y0219541D01*
X0162677Y0219592D01*
X0162713Y0219641D01*
X0162751Y0219687D01*
X0162793Y0219731D01*
X0162837Y0219773D01*
X0162883Y0219811D01*
X0162932Y0219847D01*
X0162983Y0219880D01*
X0163035Y0219909D01*
X0163090Y0219936D01*
X0163145Y0219959D01*
X0163202Y0219979D01*
X0163261Y0219995D01*
X0163320Y0220008D01*
X0163379Y0220017D01*
X0163440Y0220022D01*
X0163500Y0220024D01*
X0170500Y0220024D01*
X0170560Y0220022D01*
X0170621Y0220017D01*
X0170680Y0220008D01*
X0170739Y0219995D01*
X0170798Y0219979D01*
X0170855Y0219959D01*
X0170910Y0219936D01*
X0170965Y0219909D01*
X0171017Y0219880D01*
X0171068Y0219847D01*
X0171117Y0219811D01*
X0171163Y0219773D01*
X0171207Y0219731D01*
X0171249Y0219687D01*
X0171287Y0219641D01*
X0171323Y0219592D01*
X0171356Y0219541D01*
X0171385Y0219489D01*
X0171412Y0219434D01*
X0171435Y0219379D01*
X0171455Y0219322D01*
X0171471Y0219263D01*
X0171484Y0219204D01*
X0171493Y0219145D01*
X0171498Y0219084D01*
X0171500Y0219024D01*
X0171500Y0217524D01*
X0171000Y0217024D01*
X0171000Y0198024D01*
X0171500Y0197524D01*
X0171500Y0196024D01*
X0172500Y0196024D02*
X0172500Y0197524D01*
X0173000Y0198024D01*
X0173000Y0217024D01*
X0172500Y0217524D01*
X0172500Y0219024D01*
X0172502Y0219084D01*
X0172507Y0219145D01*
X0172516Y0219204D01*
X0172529Y0219263D01*
X0172545Y0219322D01*
X0172565Y0219379D01*
X0172588Y0219434D01*
X0172615Y0219489D01*
X0172644Y0219541D01*
X0172677Y0219592D01*
X0172713Y0219641D01*
X0172751Y0219687D01*
X0172793Y0219731D01*
X0172837Y0219773D01*
X0172883Y0219811D01*
X0172932Y0219847D01*
X0172983Y0219880D01*
X0173035Y0219909D01*
X0173090Y0219936D01*
X0173145Y0219959D01*
X0173202Y0219979D01*
X0173261Y0219995D01*
X0173320Y0220008D01*
X0173379Y0220017D01*
X0173440Y0220022D01*
X0173500Y0220024D01*
X0180500Y0220024D01*
X0180560Y0220022D01*
X0180621Y0220017D01*
X0180680Y0220008D01*
X0180739Y0219995D01*
X0180798Y0219979D01*
X0180855Y0219959D01*
X0180910Y0219936D01*
X0180965Y0219909D01*
X0181017Y0219880D01*
X0181068Y0219847D01*
X0181117Y0219811D01*
X0181163Y0219773D01*
X0181207Y0219731D01*
X0181249Y0219687D01*
X0181287Y0219641D01*
X0181323Y0219592D01*
X0181356Y0219541D01*
X0181385Y0219489D01*
X0181412Y0219434D01*
X0181435Y0219379D01*
X0181455Y0219322D01*
X0181471Y0219263D01*
X0181484Y0219204D01*
X0181493Y0219145D01*
X0181498Y0219084D01*
X0181500Y0219024D01*
X0181500Y0217524D01*
X0181000Y0217024D01*
X0181000Y0198024D01*
X0181500Y0197524D01*
X0181500Y0196024D01*
X0181498Y0195964D01*
X0181493Y0195903D01*
X0181484Y0195844D01*
X0181471Y0195785D01*
X0181455Y0195726D01*
X0181435Y0195669D01*
X0181412Y0195614D01*
X0181385Y0195559D01*
X0181356Y0195507D01*
X0181323Y0195456D01*
X0181287Y0195407D01*
X0181249Y0195361D01*
X0181207Y0195317D01*
X0181163Y0195275D01*
X0181117Y0195237D01*
X0181068Y0195201D01*
X0181017Y0195168D01*
X0180965Y0195139D01*
X0180910Y0195112D01*
X0180855Y0195089D01*
X0180798Y0195069D01*
X0180739Y0195053D01*
X0180680Y0195040D01*
X0180621Y0195031D01*
X0180560Y0195026D01*
X0180500Y0195024D01*
X0173500Y0195024D01*
X0173440Y0195026D01*
X0173379Y0195031D01*
X0173320Y0195040D01*
X0173261Y0195053D01*
X0173202Y0195069D01*
X0173145Y0195089D01*
X0173090Y0195112D01*
X0173035Y0195139D01*
X0172983Y0195168D01*
X0172932Y0195201D01*
X0172883Y0195237D01*
X0172837Y0195275D01*
X0172793Y0195317D01*
X0172751Y0195361D01*
X0172713Y0195407D01*
X0172677Y0195456D01*
X0172644Y0195507D01*
X0172615Y0195559D01*
X0172588Y0195614D01*
X0172565Y0195669D01*
X0172545Y0195726D01*
X0172529Y0195785D01*
X0172516Y0195844D01*
X0172507Y0195903D01*
X0172502Y0195964D01*
X0172500Y0196024D01*
X0171500Y0196024D02*
X0171498Y0195964D01*
X0171493Y0195903D01*
X0171484Y0195844D01*
X0171471Y0195785D01*
X0171455Y0195726D01*
X0171435Y0195669D01*
X0171412Y0195614D01*
X0171385Y0195559D01*
X0171356Y0195507D01*
X0171323Y0195456D01*
X0171287Y0195407D01*
X0171249Y0195361D01*
X0171207Y0195317D01*
X0171163Y0195275D01*
X0171117Y0195237D01*
X0171068Y0195201D01*
X0171017Y0195168D01*
X0170965Y0195139D01*
X0170910Y0195112D01*
X0170855Y0195089D01*
X0170798Y0195069D01*
X0170739Y0195053D01*
X0170680Y0195040D01*
X0170621Y0195031D01*
X0170560Y0195026D01*
X0170500Y0195024D01*
X0163500Y0195024D01*
X0163440Y0195026D01*
X0163379Y0195031D01*
X0163320Y0195040D01*
X0163261Y0195053D01*
X0163202Y0195069D01*
X0163145Y0195089D01*
X0163090Y0195112D01*
X0163035Y0195139D01*
X0162983Y0195168D01*
X0162932Y0195201D01*
X0162883Y0195237D01*
X0162837Y0195275D01*
X0162793Y0195317D01*
X0162751Y0195361D01*
X0162713Y0195407D01*
X0162677Y0195456D01*
X0162644Y0195507D01*
X0162615Y0195559D01*
X0162588Y0195614D01*
X0162565Y0195669D01*
X0162545Y0195726D01*
X0162529Y0195785D01*
X0162516Y0195844D01*
X0162507Y0195903D01*
X0162502Y0195964D01*
X0162500Y0196024D01*
X0171000Y0177024D02*
X0179000Y0177024D01*
X0179060Y0177022D01*
X0179121Y0177017D01*
X0179180Y0177008D01*
X0179239Y0176995D01*
X0179298Y0176979D01*
X0179355Y0176959D01*
X0179410Y0176936D01*
X0179465Y0176909D01*
X0179517Y0176880D01*
X0179568Y0176847D01*
X0179617Y0176811D01*
X0179663Y0176773D01*
X0179707Y0176731D01*
X0179749Y0176687D01*
X0179787Y0176641D01*
X0179823Y0176592D01*
X0179856Y0176541D01*
X0179885Y0176489D01*
X0179912Y0176434D01*
X0179935Y0176379D01*
X0179955Y0176322D01*
X0179971Y0176263D01*
X0179984Y0176204D01*
X0179993Y0176145D01*
X0179998Y0176084D01*
X0180000Y0176024D01*
X0180000Y0149024D01*
X0179998Y0148964D01*
X0179993Y0148903D01*
X0179984Y0148844D01*
X0179971Y0148785D01*
X0179955Y0148726D01*
X0179935Y0148669D01*
X0179912Y0148614D01*
X0179885Y0148559D01*
X0179856Y0148507D01*
X0179823Y0148456D01*
X0179787Y0148407D01*
X0179749Y0148361D01*
X0179707Y0148317D01*
X0179663Y0148275D01*
X0179617Y0148237D01*
X0179568Y0148201D01*
X0179517Y0148168D01*
X0179465Y0148139D01*
X0179410Y0148112D01*
X0179355Y0148089D01*
X0179298Y0148069D01*
X0179239Y0148053D01*
X0179180Y0148040D01*
X0179121Y0148031D01*
X0179060Y0148026D01*
X0179000Y0148024D01*
X0171000Y0148024D01*
X0170940Y0148026D01*
X0170879Y0148031D01*
X0170820Y0148040D01*
X0170761Y0148053D01*
X0170702Y0148069D01*
X0170645Y0148089D01*
X0170590Y0148112D01*
X0170535Y0148139D01*
X0170483Y0148168D01*
X0170432Y0148201D01*
X0170383Y0148237D01*
X0170337Y0148275D01*
X0170293Y0148317D01*
X0170251Y0148361D01*
X0170213Y0148407D01*
X0170177Y0148456D01*
X0170144Y0148507D01*
X0170115Y0148559D01*
X0170088Y0148614D01*
X0170065Y0148669D01*
X0170045Y0148726D01*
X0170029Y0148785D01*
X0170016Y0148844D01*
X0170007Y0148903D01*
X0170002Y0148964D01*
X0170000Y0149024D01*
X0170000Y0176024D01*
X0170002Y0176084D01*
X0170007Y0176145D01*
X0170016Y0176204D01*
X0170029Y0176263D01*
X0170045Y0176322D01*
X0170065Y0176379D01*
X0170088Y0176434D01*
X0170115Y0176489D01*
X0170144Y0176541D01*
X0170177Y0176592D01*
X0170213Y0176641D01*
X0170251Y0176687D01*
X0170293Y0176731D01*
X0170337Y0176773D01*
X0170383Y0176811D01*
X0170432Y0176847D01*
X0170483Y0176880D01*
X0170535Y0176909D01*
X0170590Y0176936D01*
X0170645Y0176959D01*
X0170702Y0176979D01*
X0170761Y0176995D01*
X0170820Y0177008D01*
X0170879Y0177017D01*
X0170940Y0177022D01*
X0171000Y0177024D01*
X0175000Y0168524D02*
X0175000Y0163824D01*
X0175000Y0161324D02*
X0175000Y0156524D01*
X0182662Y0149227D02*
X0183796Y0149227D01*
X0183229Y0149227D02*
X0183229Y0145824D01*
X0182662Y0145824D02*
X0183796Y0145824D01*
X0185117Y0146391D02*
X0185117Y0148659D01*
X0185685Y0149227D01*
X0186819Y0149227D01*
X0187386Y0148659D01*
X0187386Y0146391D01*
X0186819Y0145824D01*
X0185685Y0145824D01*
X0185117Y0146391D01*
X0188801Y0146958D02*
X0190502Y0146958D01*
X0191069Y0147525D01*
X0191069Y0148659D01*
X0190502Y0149227D01*
X0188801Y0149227D01*
X0188801Y0145824D01*
X0189935Y0146958D02*
X0191069Y0145824D01*
X0192484Y0145824D02*
X0194752Y0145824D01*
X0196167Y0145824D02*
X0196167Y0149227D01*
X0198435Y0149227D01*
X0197301Y0147525D02*
X0196167Y0147525D01*
X0194752Y0149227D02*
X0192484Y0149227D01*
X0192484Y0145824D01*
X0192484Y0147525D02*
X0193618Y0147525D01*
X0193051Y0155824D02*
X0192484Y0156391D01*
X0193051Y0155824D02*
X0194185Y0155824D01*
X0194752Y0156391D01*
X0194752Y0156958D01*
X0194185Y0157525D01*
X0193051Y0157525D01*
X0192484Y0158092D01*
X0192484Y0158659D01*
X0193051Y0159227D01*
X0194185Y0159227D01*
X0194752Y0158659D01*
X0196167Y0159227D02*
X0198435Y0159227D01*
X0197301Y0159227D02*
X0197301Y0155824D01*
X0191069Y0155824D02*
X0189935Y0156958D01*
X0190502Y0156958D02*
X0188801Y0156958D01*
X0188801Y0155824D02*
X0188801Y0159227D01*
X0190502Y0159227D01*
X0191069Y0158659D01*
X0191069Y0157525D01*
X0190502Y0156958D01*
X0190642Y0165824D02*
X0191209Y0165824D01*
X0191209Y0166391D01*
X0190642Y0166391D01*
X0190642Y0165824D01*
X0189228Y0166391D02*
X0188660Y0165824D01*
X0187526Y0165824D01*
X0186959Y0166391D01*
X0188093Y0167525D02*
X0188660Y0167525D01*
X0189228Y0166958D01*
X0189228Y0166391D01*
X0188660Y0167525D02*
X0189228Y0168092D01*
X0189228Y0168659D01*
X0188660Y0169227D01*
X0187526Y0169227D01*
X0186959Y0168659D01*
X0185544Y0167525D02*
X0183276Y0167525D01*
X0184410Y0168659D02*
X0184410Y0166391D01*
X0192484Y0166391D02*
X0193051Y0165824D01*
X0194185Y0165824D01*
X0194752Y0166391D01*
X0194752Y0166958D01*
X0194185Y0167525D01*
X0193618Y0167525D01*
X0194185Y0167525D02*
X0194752Y0168092D01*
X0194752Y0168659D01*
X0194185Y0169227D01*
X0193051Y0169227D01*
X0192484Y0168659D01*
X0196167Y0169227D02*
X0196167Y0166958D01*
X0197301Y0165824D01*
X0198435Y0166958D01*
X0198435Y0169227D01*
X0197301Y0175824D02*
X0198435Y0176958D01*
X0198435Y0179227D01*
X0196167Y0179227D02*
X0196167Y0176958D01*
X0197301Y0175824D01*
X0194752Y0176391D02*
X0194185Y0175824D01*
X0193051Y0175824D01*
X0192484Y0176391D01*
X0192484Y0177525D02*
X0193618Y0178092D01*
X0194185Y0178092D01*
X0194752Y0177525D01*
X0194752Y0176391D01*
X0192484Y0177525D02*
X0192484Y0179227D01*
X0194752Y0179227D01*
X0191069Y0177525D02*
X0188801Y0177525D01*
X0189935Y0178659D02*
X0189935Y0176391D01*
X0190502Y0185824D02*
X0191069Y0186391D01*
X0191069Y0187525D01*
X0189935Y0187525D01*
X0191069Y0188659D02*
X0190502Y0189227D01*
X0189368Y0189227D01*
X0188801Y0188659D01*
X0188801Y0186391D01*
X0189368Y0185824D01*
X0190502Y0185824D01*
X0192484Y0185824D02*
X0192484Y0189227D01*
X0194752Y0185824D01*
X0194752Y0189227D01*
X0196167Y0189227D02*
X0196167Y0185824D01*
X0197868Y0185824D01*
X0198435Y0186391D01*
X0198435Y0188659D01*
X0197868Y0189227D01*
X0196167Y0189227D01*
X0196167Y0195824D02*
X0197868Y0195824D01*
X0198435Y0196391D01*
X0198435Y0198659D01*
X0197868Y0199227D01*
X0196167Y0199227D01*
X0196167Y0195824D01*
X0194752Y0195824D02*
X0194752Y0199227D01*
X0192484Y0199227D02*
X0192484Y0195824D01*
X0191069Y0196391D02*
X0191069Y0197525D01*
X0189935Y0197525D01*
X0191069Y0196391D02*
X0190502Y0195824D01*
X0189368Y0195824D01*
X0188801Y0196391D01*
X0188801Y0198659D01*
X0189368Y0199227D01*
X0190502Y0199227D01*
X0191069Y0198659D01*
X0192484Y0199227D02*
X0194752Y0195824D01*
X0194846Y0205824D02*
X0193711Y0205824D01*
X0194279Y0205824D02*
X0194279Y0209227D01*
X0194846Y0209227D02*
X0193711Y0209227D01*
X0192297Y0209227D02*
X0192297Y0206958D01*
X0191163Y0205824D01*
X0190028Y0206958D01*
X0190028Y0209227D01*
X0196167Y0209227D02*
X0196167Y0205824D01*
X0198435Y0205824D02*
X0196167Y0209227D01*
X0198435Y0209227D02*
X0198435Y0205824D01*
X0197868Y0225824D02*
X0196734Y0225824D01*
X0196167Y0226391D01*
X0198435Y0228659D01*
X0198435Y0226391D01*
X0197868Y0225824D01*
X0196167Y0226391D02*
X0196167Y0228659D01*
X0196734Y0229227D01*
X0197868Y0229227D01*
X0198435Y0228659D01*
X0198435Y0235824D02*
X0196167Y0235824D01*
X0197301Y0235824D02*
X0197301Y0239227D01*
X0196167Y0238092D01*
X0193250Y0237631D02*
X0190981Y0237631D01*
X0189847Y0238765D01*
X0190981Y0239899D01*
X0193250Y0239899D01*
X0193250Y0241314D02*
X0190981Y0241314D01*
X0190981Y0243015D01*
X0191549Y0243582D01*
X0193250Y0243582D01*
X0192683Y0244997D02*
X0192116Y0245564D01*
X0192116Y0247266D01*
X0191549Y0247266D02*
X0193250Y0247266D01*
X0193250Y0245564D01*
X0192683Y0244997D01*
X0190981Y0245564D02*
X0190981Y0246698D01*
X0191549Y0247266D01*
X0193250Y0248680D02*
X0193250Y0249814D01*
X0193250Y0249247D02*
X0189847Y0249247D01*
X0189847Y0248680D01*
X0191549Y0251136D02*
X0190981Y0251703D01*
X0190981Y0252837D01*
X0191549Y0253404D01*
X0192683Y0253404D01*
X0193250Y0252837D01*
X0193250Y0251703D01*
X0192683Y0251136D01*
X0191549Y0251136D01*
X0191549Y0254819D02*
X0192683Y0254819D01*
X0193250Y0255386D01*
X0193250Y0257087D01*
X0193817Y0257087D02*
X0190981Y0257087D01*
X0190981Y0255386D01*
X0191549Y0254819D01*
X0194384Y0255953D02*
X0194384Y0256520D01*
X0193817Y0257087D01*
X0196167Y0256391D02*
X0196734Y0255824D01*
X0197868Y0255824D01*
X0198435Y0256391D01*
X0198435Y0256958D01*
X0197868Y0257525D01*
X0197301Y0257525D01*
X0197868Y0257525D02*
X0198435Y0258092D01*
X0198435Y0258659D01*
X0197868Y0259227D01*
X0196734Y0259227D01*
X0196167Y0258659D01*
X0193250Y0262185D02*
X0193250Y0263319D01*
X0193250Y0262752D02*
X0189847Y0262752D01*
X0189847Y0262185D02*
X0189847Y0263319D01*
X0190981Y0264640D02*
X0190981Y0266342D01*
X0191549Y0266909D01*
X0193250Y0266909D01*
X0193250Y0264640D02*
X0190981Y0264640D01*
X0196167Y0267525D02*
X0198435Y0267525D01*
X0197868Y0265824D02*
X0197868Y0269227D01*
X0196167Y0267525D01*
X0196734Y0275824D02*
X0196167Y0276391D01*
X0196734Y0275824D02*
X0197868Y0275824D01*
X0198435Y0276391D01*
X0198435Y0277525D01*
X0197868Y0278092D01*
X0197301Y0278092D01*
X0196167Y0277525D01*
X0196167Y0279227D01*
X0198435Y0279227D01*
X0197868Y0249227D02*
X0196734Y0249227D01*
X0196167Y0248659D01*
X0197868Y0249227D02*
X0198435Y0248659D01*
X0198435Y0248092D01*
X0196167Y0245824D01*
X0198435Y0245824D01*
X0191549Y0239899D02*
X0191549Y0237631D01*
D17*
X0177000Y0221724D03*
X0167000Y0221724D03*
X0157000Y0221724D03*
X0157000Y0193324D03*
X0167000Y0193324D03*
X0177000Y0193324D03*
X0071000Y0190724D03*
X0061000Y0190724D03*
X0051000Y0190724D03*
X0041000Y0190724D03*
X0041000Y0211324D03*
X0031000Y0211324D03*
X0051000Y0211324D03*
X0061000Y0211324D03*
X0071000Y0211324D03*
X0071000Y0239724D03*
X0061000Y0239724D03*
X0051000Y0239724D03*
X0041000Y0239724D03*
X0031000Y0239724D03*
X0041000Y0162324D03*
X0051000Y0162324D03*
X0061000Y0162324D03*
X0071000Y0162324D03*
D18*
X0070500Y0119774D03*
X0070500Y0117274D03*
X0070500Y0114774D03*
X0060500Y0114774D03*
X0060500Y0117274D03*
X0060500Y0119774D03*
X0050500Y0119774D03*
X0050500Y0117274D03*
X0050500Y0114774D03*
X0040500Y0114774D03*
X0040500Y0117274D03*
X0040500Y0119774D03*
X0080500Y0119774D03*
X0080500Y0117274D03*
X0080500Y0114774D03*
X0090500Y0114774D03*
X0090500Y0117274D03*
X0090500Y0119774D03*
X0100500Y0119774D03*
X0100500Y0117274D03*
X0100500Y0114774D03*
X0110500Y0114774D03*
X0110500Y0117274D03*
X0110500Y0119774D03*
D19*
X0172500Y0161324D02*
X0175000Y0161324D01*
X0177500Y0161324D01*
X0177500Y0163824D02*
X0175000Y0163824D01*
X0172500Y0163824D01*
D20*
X0031173Y0257182D02*
X0031693Y0257328D01*
X0031692Y0257327D02*
X0031774Y0257051D01*
X0031862Y0256778D01*
X0031957Y0256507D01*
X0032059Y0256238D01*
X0032167Y0255972D01*
X0032281Y0255708D01*
X0032402Y0255447D01*
X0032530Y0255190D01*
X0032663Y0254935D01*
X0032803Y0254684D01*
X0032949Y0254436D01*
X0033101Y0254192D01*
X0033258Y0253952D01*
X0033422Y0253716D01*
X0033591Y0253484D01*
X0033766Y0253256D01*
X0033947Y0253032D01*
X0034133Y0252813D01*
X0034324Y0252598D01*
X0034521Y0252389D01*
X0034722Y0252184D01*
X0034928Y0251984D01*
X0035140Y0251789D01*
X0035356Y0251599D01*
X0035576Y0251415D01*
X0035801Y0251236D01*
X0036031Y0251063D01*
X0036264Y0250895D01*
X0036501Y0250733D01*
X0036743Y0250577D01*
X0036988Y0250427D01*
X0037237Y0250283D01*
X0037489Y0250146D01*
X0037744Y0250014D01*
X0038003Y0249888D01*
X0038264Y0249769D01*
X0038529Y0249657D01*
X0038796Y0249551D01*
X0039066Y0249451D01*
X0039338Y0249358D01*
X0039612Y0249272D01*
X0039888Y0249193D01*
X0040166Y0249120D01*
X0040446Y0249054D01*
X0040727Y0248995D01*
X0041010Y0248943D01*
X0041293Y0248898D01*
X0041578Y0248859D01*
X0041864Y0248828D01*
X0042150Y0248804D01*
X0042437Y0248786D01*
X0042724Y0248776D01*
X0043012Y0248773D01*
X0043299Y0248777D01*
X0043586Y0248788D01*
X0043873Y0248805D01*
X0044160Y0248830D01*
X0044445Y0248862D01*
X0044730Y0248901D01*
X0045014Y0248947D01*
X0045296Y0249000D01*
X0045577Y0249059D01*
X0045857Y0249126D01*
X0046135Y0249199D01*
X0046411Y0249279D01*
X0046685Y0249366D01*
X0046957Y0249459D01*
X0047226Y0249559D01*
X0047493Y0249666D01*
X0047757Y0249779D01*
X0048018Y0249899D01*
X0048277Y0250024D01*
X0048532Y0250157D01*
X0048784Y0250295D01*
X0049032Y0250439D01*
X0049277Y0250590D01*
X0049518Y0250747D01*
X0049755Y0250909D01*
X0049988Y0251077D01*
X0050217Y0251251D01*
X0050442Y0251430D01*
X0050662Y0251615D01*
X0050878Y0251805D01*
X0051089Y0252000D01*
X0051295Y0252200D01*
X0051496Y0252406D01*
X0051692Y0252616D01*
X0051883Y0252831D01*
X0052068Y0253050D01*
X0052248Y0253274D01*
X0052423Y0253503D01*
X0052592Y0253735D01*
X0052755Y0253972D01*
X0052912Y0254212D01*
X0053063Y0254457D01*
X0053209Y0254704D01*
X0053348Y0254956D01*
X0053481Y0255211D01*
X0053608Y0255469D01*
X0053728Y0255729D01*
X0053842Y0255993D01*
X0053950Y0256260D01*
X0054051Y0256529D01*
X0054145Y0256800D01*
X0054233Y0257074D01*
X0054749Y0256917D01*
X0054750Y0256917D01*
X0054658Y0256630D01*
X0054559Y0256346D01*
X0054454Y0256065D01*
X0054341Y0255786D01*
X0054222Y0255510D01*
X0054096Y0255237D01*
X0053963Y0254968D01*
X0053824Y0254701D01*
X0053678Y0254438D01*
X0053526Y0254179D01*
X0053368Y0253923D01*
X0053204Y0253672D01*
X0053033Y0253424D01*
X0052856Y0253181D01*
X0052674Y0252942D01*
X0052485Y0252708D01*
X0052291Y0252478D01*
X0052092Y0252253D01*
X0051887Y0252033D01*
X0051676Y0251818D01*
X0051461Y0251609D01*
X0051240Y0251405D01*
X0051015Y0251206D01*
X0050785Y0251012D01*
X0050550Y0250825D01*
X0050310Y0250643D01*
X0050066Y0250467D01*
X0049818Y0250298D01*
X0049566Y0250134D01*
X0049310Y0249976D01*
X0049050Y0249825D01*
X0048787Y0249680D01*
X0048520Y0249542D01*
X0048249Y0249410D01*
X0047976Y0249285D01*
X0047700Y0249167D01*
X0047421Y0249055D01*
X0047139Y0248951D01*
X0046854Y0248853D01*
X0046568Y0248762D01*
X0046279Y0248679D01*
X0045988Y0248602D01*
X0045696Y0248532D01*
X0045402Y0248470D01*
X0045106Y0248415D01*
X0044810Y0248367D01*
X0044512Y0248326D01*
X0044213Y0248293D01*
X0043913Y0248267D01*
X0043613Y0248248D01*
X0043313Y0248237D01*
X0043012Y0248233D01*
X0042712Y0248236D01*
X0042411Y0248247D01*
X0042111Y0248265D01*
X0041812Y0248291D01*
X0041513Y0248323D01*
X0041215Y0248363D01*
X0040918Y0248411D01*
X0040622Y0248465D01*
X0040328Y0248527D01*
X0040035Y0248596D01*
X0039745Y0248672D01*
X0039456Y0248755D01*
X0039169Y0248845D01*
X0038884Y0248942D01*
X0038602Y0249047D01*
X0038323Y0249158D01*
X0038046Y0249275D01*
X0037773Y0249400D01*
X0037502Y0249531D01*
X0037235Y0249669D01*
X0036971Y0249813D01*
X0036711Y0249964D01*
X0036455Y0250121D01*
X0036202Y0250284D01*
X0035954Y0250453D01*
X0035710Y0250629D01*
X0035470Y0250810D01*
X0035235Y0250997D01*
X0035004Y0251190D01*
X0034778Y0251388D01*
X0034557Y0251592D01*
X0034341Y0251801D01*
X0034130Y0252015D01*
X0033925Y0252235D01*
X0033725Y0252459D01*
X0033530Y0252689D01*
X0033342Y0252923D01*
X0033159Y0253161D01*
X0032981Y0253404D01*
X0032810Y0253651D01*
X0032645Y0253902D01*
X0032486Y0254158D01*
X0032334Y0254417D01*
X0032188Y0254679D01*
X0032048Y0254946D01*
X0031915Y0255215D01*
X0031788Y0255488D01*
X0031668Y0255763D01*
X0031555Y0256042D01*
X0031449Y0256323D01*
X0031350Y0256607D01*
X0031258Y0256893D01*
X0031172Y0257181D01*
X0031226Y0257197D01*
X0031311Y0256910D01*
X0031403Y0256625D01*
X0031502Y0256342D01*
X0031608Y0256062D01*
X0031720Y0255785D01*
X0031839Y0255511D01*
X0031965Y0255239D01*
X0032098Y0254971D01*
X0032237Y0254706D01*
X0032382Y0254444D01*
X0032534Y0254186D01*
X0032692Y0253932D01*
X0032857Y0253682D01*
X0033027Y0253436D01*
X0033203Y0253194D01*
X0033386Y0252957D01*
X0033574Y0252724D01*
X0033767Y0252496D01*
X0033966Y0252273D01*
X0034171Y0252054D01*
X0034381Y0251841D01*
X0034595Y0251632D01*
X0034815Y0251430D01*
X0035040Y0251232D01*
X0035270Y0251040D01*
X0035504Y0250854D01*
X0035743Y0250674D01*
X0035986Y0250499D01*
X0036233Y0250330D01*
X0036485Y0250168D01*
X0036740Y0250012D01*
X0036999Y0249862D01*
X0037261Y0249718D01*
X0037527Y0249581D01*
X0037797Y0249451D01*
X0038069Y0249327D01*
X0038344Y0249209D01*
X0038623Y0249099D01*
X0038903Y0248995D01*
X0039186Y0248899D01*
X0039472Y0248809D01*
X0039760Y0248726D01*
X0040049Y0248650D01*
X0040340Y0248582D01*
X0040633Y0248520D01*
X0040927Y0248466D01*
X0041223Y0248419D01*
X0041520Y0248379D01*
X0041817Y0248346D01*
X0042115Y0248321D01*
X0042414Y0248303D01*
X0042713Y0248292D01*
X0043012Y0248289D01*
X0043312Y0248293D01*
X0043611Y0248304D01*
X0043909Y0248323D01*
X0044207Y0248349D01*
X0044505Y0248382D01*
X0044801Y0248422D01*
X0045097Y0248470D01*
X0045391Y0248525D01*
X0045684Y0248587D01*
X0045975Y0248656D01*
X0046264Y0248732D01*
X0046552Y0248816D01*
X0046837Y0248906D01*
X0047120Y0249004D01*
X0047400Y0249108D01*
X0047678Y0249219D01*
X0047953Y0249337D01*
X0048226Y0249461D01*
X0048495Y0249592D01*
X0048760Y0249730D01*
X0049023Y0249874D01*
X0049281Y0250024D01*
X0049536Y0250181D01*
X0049787Y0250344D01*
X0050034Y0250513D01*
X0050277Y0250688D01*
X0050515Y0250869D01*
X0050749Y0251056D01*
X0050978Y0251248D01*
X0051203Y0251446D01*
X0051422Y0251649D01*
X0051637Y0251858D01*
X0051846Y0252072D01*
X0052050Y0252291D01*
X0052249Y0252515D01*
X0052442Y0252743D01*
X0052630Y0252976D01*
X0052811Y0253214D01*
X0052987Y0253456D01*
X0053157Y0253703D01*
X0053321Y0253953D01*
X0053478Y0254208D01*
X0053630Y0254466D01*
X0053775Y0254727D01*
X0053913Y0254993D01*
X0054045Y0255261D01*
X0054171Y0255533D01*
X0054289Y0255808D01*
X0054401Y0256085D01*
X0054507Y0256365D01*
X0054605Y0256648D01*
X0054696Y0256933D01*
X0054643Y0256949D01*
X0054552Y0256666D01*
X0054454Y0256384D01*
X0054349Y0256105D01*
X0054238Y0255829D01*
X0054120Y0255556D01*
X0053995Y0255285D01*
X0053863Y0255018D01*
X0053725Y0254754D01*
X0053581Y0254493D01*
X0053430Y0254236D01*
X0053274Y0253983D01*
X0053110Y0253734D01*
X0052941Y0253489D01*
X0052766Y0253248D01*
X0052585Y0253011D01*
X0052399Y0252779D01*
X0052207Y0252551D01*
X0052009Y0252328D01*
X0051806Y0252110D01*
X0051597Y0251898D01*
X0051384Y0251690D01*
X0051165Y0251488D01*
X0050942Y0251291D01*
X0050714Y0251099D01*
X0050481Y0250913D01*
X0050243Y0250733D01*
X0050002Y0250559D01*
X0049756Y0250391D01*
X0049506Y0250228D01*
X0049252Y0250072D01*
X0048995Y0249923D01*
X0048734Y0249779D01*
X0048469Y0249642D01*
X0048202Y0249512D01*
X0047931Y0249388D01*
X0047657Y0249270D01*
X0047380Y0249160D01*
X0047101Y0249056D01*
X0046819Y0248959D01*
X0046535Y0248869D01*
X0046249Y0248786D01*
X0045961Y0248710D01*
X0045671Y0248642D01*
X0045380Y0248580D01*
X0045087Y0248525D01*
X0044793Y0248478D01*
X0044498Y0248437D01*
X0044202Y0248404D01*
X0043905Y0248379D01*
X0043608Y0248360D01*
X0043310Y0248349D01*
X0043012Y0248345D01*
X0042714Y0248348D01*
X0042417Y0248359D01*
X0042119Y0248377D01*
X0041823Y0248402D01*
X0041526Y0248434D01*
X0041231Y0248474D01*
X0040937Y0248521D01*
X0040644Y0248575D01*
X0040353Y0248636D01*
X0040063Y0248705D01*
X0039774Y0248780D01*
X0039488Y0248862D01*
X0039204Y0248952D01*
X0038922Y0249048D01*
X0038643Y0249151D01*
X0038366Y0249261D01*
X0038092Y0249378D01*
X0037821Y0249501D01*
X0037553Y0249631D01*
X0037288Y0249768D01*
X0037026Y0249911D01*
X0036769Y0250060D01*
X0036515Y0250215D01*
X0036264Y0250377D01*
X0036018Y0250545D01*
X0035776Y0250719D01*
X0035539Y0250898D01*
X0035305Y0251084D01*
X0035077Y0251275D01*
X0034853Y0251471D01*
X0034634Y0251673D01*
X0034420Y0251880D01*
X0034211Y0252093D01*
X0034008Y0252310D01*
X0033809Y0252533D01*
X0033617Y0252760D01*
X0033430Y0252992D01*
X0033248Y0253228D01*
X0033073Y0253469D01*
X0032903Y0253714D01*
X0032740Y0253962D01*
X0032582Y0254215D01*
X0032431Y0254472D01*
X0032286Y0254732D01*
X0032148Y0254996D01*
X0032016Y0255263D01*
X0031890Y0255533D01*
X0031772Y0255807D01*
X0031660Y0256083D01*
X0031554Y0256361D01*
X0031456Y0256642D01*
X0031365Y0256926D01*
X0031280Y0257212D01*
X0031334Y0257227D01*
X0031418Y0256942D01*
X0031509Y0256660D01*
X0031607Y0256380D01*
X0031712Y0256103D01*
X0031823Y0255828D01*
X0031942Y0255556D01*
X0032066Y0255287D01*
X0032198Y0255021D01*
X0032336Y0254759D01*
X0032480Y0254500D01*
X0032630Y0254244D01*
X0032787Y0253993D01*
X0032950Y0253745D01*
X0033118Y0253501D01*
X0033293Y0253261D01*
X0033474Y0253026D01*
X0033660Y0252795D01*
X0033852Y0252569D01*
X0034049Y0252348D01*
X0034252Y0252132D01*
X0034460Y0251920D01*
X0034673Y0251714D01*
X0034890Y0251513D01*
X0035113Y0251317D01*
X0035341Y0251127D01*
X0035573Y0250942D01*
X0035810Y0250764D01*
X0036050Y0250591D01*
X0036295Y0250424D01*
X0036544Y0250263D01*
X0036797Y0250108D01*
X0037054Y0249959D01*
X0037314Y0249817D01*
X0037578Y0249681D01*
X0037844Y0249552D01*
X0038114Y0249429D01*
X0038387Y0249313D01*
X0038663Y0249203D01*
X0038941Y0249101D01*
X0039221Y0249005D01*
X0039504Y0248916D01*
X0039789Y0248834D01*
X0040076Y0248759D01*
X0040365Y0248691D01*
X0040655Y0248630D01*
X0040946Y0248576D01*
X0041239Y0248530D01*
X0041533Y0248490D01*
X0041828Y0248458D01*
X0042123Y0248433D01*
X0042419Y0248415D01*
X0042716Y0248404D01*
X0043012Y0248401D01*
X0043309Y0248405D01*
X0043605Y0248416D01*
X0043901Y0248435D01*
X0044196Y0248460D01*
X0044491Y0248493D01*
X0044785Y0248533D01*
X0045078Y0248580D01*
X0045369Y0248635D01*
X0045659Y0248696D01*
X0045948Y0248765D01*
X0046234Y0248840D01*
X0046519Y0248923D01*
X0046802Y0249013D01*
X0047082Y0249109D01*
X0047360Y0249212D01*
X0047635Y0249322D01*
X0047908Y0249439D01*
X0048178Y0249562D01*
X0048444Y0249692D01*
X0048707Y0249829D01*
X0048967Y0249971D01*
X0049224Y0250120D01*
X0049476Y0250276D01*
X0049725Y0250437D01*
X0049970Y0250605D01*
X0050210Y0250778D01*
X0050446Y0250957D01*
X0050678Y0251142D01*
X0050905Y0251333D01*
X0051128Y0251529D01*
X0051345Y0251730D01*
X0051558Y0251937D01*
X0051765Y0252149D01*
X0051967Y0252366D01*
X0052164Y0252588D01*
X0052356Y0252814D01*
X0052541Y0253045D01*
X0052721Y0253281D01*
X0052896Y0253521D01*
X0053064Y0253765D01*
X0053226Y0254013D01*
X0053382Y0254265D01*
X0053532Y0254521D01*
X0053676Y0254780D01*
X0053813Y0255043D01*
X0053944Y0255309D01*
X0054068Y0255578D01*
X0054186Y0255851D01*
X0054297Y0256126D01*
X0054401Y0256403D01*
X0054499Y0256683D01*
X0054589Y0256966D01*
X0054535Y0256982D01*
X0054445Y0256701D01*
X0054348Y0256422D01*
X0054245Y0256146D01*
X0054134Y0255872D01*
X0054017Y0255601D01*
X0053894Y0255333D01*
X0053763Y0255068D01*
X0053627Y0254807D01*
X0053484Y0254549D01*
X0053334Y0254294D01*
X0053179Y0254043D01*
X0053017Y0253796D01*
X0052850Y0253553D01*
X0052676Y0253314D01*
X0052497Y0253080D01*
X0052312Y0252850D01*
X0052122Y0252624D01*
X0051926Y0252404D01*
X0051725Y0252188D01*
X0051518Y0251977D01*
X0051307Y0251771D01*
X0051090Y0251571D01*
X0050869Y0251375D01*
X0050642Y0251186D01*
X0050412Y0251002D01*
X0050177Y0250823D01*
X0049937Y0250650D01*
X0049694Y0250484D01*
X0049446Y0250323D01*
X0049195Y0250168D01*
X0048940Y0250020D01*
X0048681Y0249878D01*
X0048419Y0249742D01*
X0048154Y0249613D01*
X0047885Y0249490D01*
X0047614Y0249374D01*
X0047340Y0249264D01*
X0047063Y0249162D01*
X0046784Y0249066D01*
X0046503Y0248977D01*
X0046219Y0248894D01*
X0045934Y0248819D01*
X0045647Y0248751D01*
X0045358Y0248690D01*
X0045068Y0248636D01*
X0044777Y0248588D01*
X0044484Y0248549D01*
X0044191Y0248516D01*
X0043897Y0248490D01*
X0043602Y0248472D01*
X0043307Y0248461D01*
X0043012Y0248457D01*
X0042717Y0248460D01*
X0042422Y0248471D01*
X0042127Y0248489D01*
X0041833Y0248514D01*
X0041540Y0248546D01*
X0041247Y0248585D01*
X0040956Y0248631D01*
X0040666Y0248685D01*
X0040377Y0248746D01*
X0040090Y0248813D01*
X0039804Y0248888D01*
X0039520Y0248970D01*
X0039239Y0249058D01*
X0038960Y0249154D01*
X0038683Y0249256D01*
X0038408Y0249365D01*
X0038137Y0249480D01*
X0037868Y0249603D01*
X0037603Y0249731D01*
X0037340Y0249867D01*
X0037081Y0250008D01*
X0036826Y0250156D01*
X0036574Y0250310D01*
X0036326Y0250470D01*
X0036083Y0250637D01*
X0035843Y0250809D01*
X0035607Y0250987D01*
X0035376Y0251170D01*
X0035150Y0251360D01*
X0034928Y0251554D01*
X0034711Y0251754D01*
X0034499Y0251960D01*
X0034292Y0252170D01*
X0034090Y0252386D01*
X0033894Y0252606D01*
X0033703Y0252831D01*
X0033518Y0253061D01*
X0033338Y0253295D01*
X0033164Y0253533D01*
X0032996Y0253776D01*
X0032834Y0254023D01*
X0032678Y0254273D01*
X0032528Y0254528D01*
X0032385Y0254785D01*
X0032248Y0255047D01*
X0032117Y0255311D01*
X0031993Y0255579D01*
X0031875Y0255850D01*
X0031764Y0256123D01*
X0031660Y0256399D01*
X0031562Y0256678D01*
X0031472Y0256959D01*
X0031388Y0257242D01*
X0031442Y0257257D01*
X0031525Y0256975D01*
X0031615Y0256696D01*
X0031712Y0256418D01*
X0031816Y0256144D01*
X0031927Y0255871D01*
X0032044Y0255602D01*
X0032168Y0255335D01*
X0032298Y0255072D01*
X0032434Y0254812D01*
X0032577Y0254555D01*
X0032726Y0254302D01*
X0032881Y0254053D01*
X0033043Y0253807D01*
X0033210Y0253566D01*
X0033383Y0253328D01*
X0033562Y0253095D01*
X0033746Y0252867D01*
X0033936Y0252643D01*
X0034132Y0252423D01*
X0034333Y0252209D01*
X0034539Y0251999D01*
X0034750Y0251795D01*
X0034966Y0251596D01*
X0035186Y0251402D01*
X0035412Y0251214D01*
X0035642Y0251031D01*
X0035876Y0250854D01*
X0036115Y0250682D01*
X0036357Y0250517D01*
X0036604Y0250358D01*
X0036855Y0250204D01*
X0037109Y0250057D01*
X0037367Y0249916D01*
X0037628Y0249781D01*
X0037892Y0249653D01*
X0038160Y0249532D01*
X0038430Y0249416D01*
X0038703Y0249308D01*
X0038978Y0249206D01*
X0039256Y0249111D01*
X0039537Y0249023D01*
X0039819Y0248942D01*
X0040103Y0248868D01*
X0040389Y0248800D01*
X0040677Y0248740D01*
X0040965Y0248687D01*
X0041256Y0248640D01*
X0041547Y0248601D01*
X0041839Y0248569D01*
X0042131Y0248544D01*
X0042425Y0248527D01*
X0042718Y0248516D01*
X0043012Y0248513D01*
X0043306Y0248517D01*
X0043599Y0248528D01*
X0043893Y0248546D01*
X0044185Y0248572D01*
X0044477Y0248604D01*
X0044768Y0248644D01*
X0045058Y0248691D01*
X0045347Y0248745D01*
X0045634Y0248805D01*
X0045920Y0248873D01*
X0046204Y0248948D01*
X0046486Y0249030D01*
X0046767Y0249119D01*
X0047044Y0249214D01*
X0047320Y0249317D01*
X0047592Y0249426D01*
X0047863Y0249541D01*
X0048130Y0249664D01*
X0048394Y0249792D01*
X0048655Y0249927D01*
X0048912Y0250069D01*
X0049166Y0250217D01*
X0049416Y0250370D01*
X0049663Y0250530D01*
X0049905Y0250696D01*
X0050143Y0250868D01*
X0050377Y0251046D01*
X0050607Y0251229D01*
X0050832Y0251418D01*
X0051052Y0251612D01*
X0051268Y0251812D01*
X0051479Y0252016D01*
X0051684Y0252226D01*
X0051884Y0252441D01*
X0052079Y0252661D01*
X0052269Y0252885D01*
X0052453Y0253114D01*
X0052631Y0253348D01*
X0052804Y0253585D01*
X0052971Y0253827D01*
X0053132Y0254073D01*
X0053286Y0254323D01*
X0053435Y0254576D01*
X0053577Y0254833D01*
X0053713Y0255094D01*
X0053843Y0255357D01*
X0053966Y0255624D01*
X0054083Y0255894D01*
X0054192Y0256166D01*
X0054296Y0256441D01*
X0054392Y0256719D01*
X0054482Y0256998D01*
X0054428Y0257015D01*
X0054339Y0256736D01*
X0054243Y0256460D01*
X0054140Y0256186D01*
X0054031Y0255915D01*
X0053915Y0255647D01*
X0053792Y0255381D01*
X0053663Y0255119D01*
X0053528Y0254860D01*
X0053386Y0254604D01*
X0053238Y0254352D01*
X0053084Y0254103D01*
X0052924Y0253858D01*
X0052758Y0253618D01*
X0052586Y0253381D01*
X0052409Y0253149D01*
X0052226Y0252921D01*
X0052037Y0252697D01*
X0051843Y0252479D01*
X0051644Y0252265D01*
X0051439Y0252056D01*
X0051229Y0251852D01*
X0051015Y0251654D01*
X0050795Y0251460D01*
X0050571Y0251272D01*
X0050343Y0251090D01*
X0050110Y0250913D01*
X0049873Y0250742D01*
X0049632Y0250577D01*
X0049386Y0250418D01*
X0049137Y0250265D01*
X0048884Y0250118D01*
X0048628Y0249977D01*
X0048369Y0249842D01*
X0048106Y0249714D01*
X0047840Y0249592D01*
X0047571Y0249477D01*
X0047300Y0249369D01*
X0047025Y0249267D01*
X0046749Y0249172D01*
X0046470Y0249084D01*
X0046189Y0249002D01*
X0045907Y0248928D01*
X0045622Y0248860D01*
X0045336Y0248799D01*
X0045049Y0248746D01*
X0044760Y0248699D01*
X0044470Y0248660D01*
X0044180Y0248627D01*
X0043888Y0248602D01*
X0043597Y0248584D01*
X0043304Y0248573D01*
X0043012Y0248569D01*
X0042720Y0248572D01*
X0042427Y0248583D01*
X0042136Y0248600D01*
X0041844Y0248625D01*
X0041554Y0248657D01*
X0041264Y0248696D01*
X0040975Y0248742D01*
X0040687Y0248795D01*
X0040401Y0248855D01*
X0040117Y0248922D01*
X0039834Y0248996D01*
X0039553Y0249077D01*
X0039274Y0249165D01*
X0038997Y0249259D01*
X0038723Y0249360D01*
X0038451Y0249468D01*
X0038182Y0249583D01*
X0037916Y0249704D01*
X0037653Y0249831D01*
X0037393Y0249965D01*
X0037136Y0250106D01*
X0036883Y0250252D01*
X0036634Y0250405D01*
X0036388Y0250564D01*
X0036147Y0250728D01*
X0035909Y0250899D01*
X0035676Y0251075D01*
X0035447Y0251257D01*
X0035223Y0251445D01*
X0035003Y0251637D01*
X0034788Y0251836D01*
X0034578Y0252039D01*
X0034373Y0252248D01*
X0034173Y0252461D01*
X0033979Y0252679D01*
X0033790Y0252902D01*
X0033606Y0253130D01*
X0033428Y0253362D01*
X0033256Y0253598D01*
X0033089Y0253838D01*
X0032929Y0254083D01*
X0032774Y0254331D01*
X0032626Y0254583D01*
X0032483Y0254838D01*
X0032348Y0255097D01*
X0032218Y0255360D01*
X0032095Y0255625D01*
X0031978Y0255893D01*
X0031868Y0256164D01*
X0031765Y0256437D01*
X0031669Y0256713D01*
X0031579Y0256992D01*
X0031496Y0257272D01*
X0031550Y0257287D01*
X0031632Y0257008D01*
X0031722Y0256731D01*
X0031818Y0256456D01*
X0031921Y0256184D01*
X0032030Y0255914D01*
X0032146Y0255648D01*
X0032269Y0255384D01*
X0032398Y0255123D01*
X0032533Y0254865D01*
X0032674Y0254611D01*
X0032822Y0254360D01*
X0032976Y0254113D01*
X0033136Y0253870D01*
X0033301Y0253630D01*
X0033473Y0253395D01*
X0033650Y0253164D01*
X0033833Y0252938D01*
X0034021Y0252716D01*
X0034215Y0252499D01*
X0034414Y0252286D01*
X0034618Y0252079D01*
X0034827Y0251876D01*
X0035041Y0251679D01*
X0035259Y0251487D01*
X0035483Y0251300D01*
X0035710Y0251119D01*
X0035943Y0250944D01*
X0036179Y0250774D01*
X0036419Y0250610D01*
X0036664Y0250452D01*
X0036912Y0250300D01*
X0037164Y0250154D01*
X0037419Y0250015D01*
X0037678Y0249882D01*
X0037940Y0249755D01*
X0038205Y0249634D01*
X0038472Y0249520D01*
X0038743Y0249413D01*
X0039016Y0249312D01*
X0039291Y0249218D01*
X0039569Y0249130D01*
X0039849Y0249050D01*
X0040130Y0248976D01*
X0040413Y0248910D01*
X0040698Y0248850D01*
X0040984Y0248797D01*
X0041272Y0248751D01*
X0041560Y0248712D01*
X0041850Y0248681D01*
X0042140Y0248656D01*
X0042430Y0248639D01*
X0042721Y0248628D01*
X0043012Y0248625D01*
X0043303Y0248629D01*
X0043594Y0248640D01*
X0043884Y0248658D01*
X0044174Y0248683D01*
X0044463Y0248715D01*
X0044752Y0248755D01*
X0045039Y0248801D01*
X0045325Y0248854D01*
X0045610Y0248915D01*
X0045893Y0248982D01*
X0046174Y0249056D01*
X0046454Y0249137D01*
X0046731Y0249225D01*
X0047007Y0249320D01*
X0047279Y0249421D01*
X0047550Y0249529D01*
X0047817Y0249644D01*
X0048082Y0249765D01*
X0048343Y0249892D01*
X0048602Y0250026D01*
X0048857Y0250166D01*
X0049108Y0250313D01*
X0049356Y0250465D01*
X0049600Y0250623D01*
X0049841Y0250788D01*
X0050077Y0250958D01*
X0050308Y0251134D01*
X0050536Y0251316D01*
X0050759Y0251503D01*
X0050977Y0251695D01*
X0051191Y0251893D01*
X0051399Y0252096D01*
X0051603Y0252304D01*
X0051801Y0252516D01*
X0051995Y0252734D01*
X0052182Y0252956D01*
X0052365Y0253183D01*
X0052541Y0253414D01*
X0052713Y0253650D01*
X0052878Y0253889D01*
X0053037Y0254133D01*
X0053190Y0254380D01*
X0053338Y0254631D01*
X0053479Y0254886D01*
X0053613Y0255144D01*
X0053742Y0255405D01*
X0053864Y0255669D01*
X0053979Y0255937D01*
X0054088Y0256206D01*
X0054190Y0256479D01*
X0054286Y0256754D01*
X0054375Y0257031D01*
X0054321Y0257047D01*
X0054233Y0256771D01*
X0054138Y0256498D01*
X0054036Y0256227D01*
X0053927Y0255958D01*
X0053812Y0255692D01*
X0053691Y0255429D01*
X0053563Y0255169D01*
X0053429Y0254912D01*
X0053289Y0254659D01*
X0053142Y0254409D01*
X0052990Y0254163D01*
X0052831Y0253921D01*
X0052667Y0253682D01*
X0052497Y0253448D01*
X0052321Y0253218D01*
X0052139Y0252992D01*
X0051952Y0252771D01*
X0051760Y0252554D01*
X0051562Y0252342D01*
X0051360Y0252135D01*
X0051152Y0251933D01*
X0050940Y0251737D01*
X0050722Y0251545D01*
X0050500Y0251359D01*
X0050274Y0251178D01*
X0050043Y0251003D01*
X0049808Y0250834D01*
X0049569Y0250670D01*
X0049326Y0250512D01*
X0049080Y0250361D01*
X0048829Y0250215D01*
X0048575Y0250075D01*
X0048318Y0249942D01*
X0048058Y0249815D01*
X0047794Y0249695D01*
X0047528Y0249581D01*
X0047259Y0249473D01*
X0046988Y0249373D01*
X0046714Y0249278D01*
X0046438Y0249191D01*
X0046159Y0249110D01*
X0045879Y0249036D01*
X0045598Y0248969D01*
X0045314Y0248909D01*
X0045029Y0248856D01*
X0044743Y0248810D01*
X0044456Y0248771D01*
X0044169Y0248739D01*
X0043880Y0248714D01*
X0043591Y0248696D01*
X0043302Y0248685D01*
X0043012Y0248681D01*
X0042722Y0248684D01*
X0042433Y0248695D01*
X0042144Y0248712D01*
X0041855Y0248736D01*
X0041567Y0248768D01*
X0041280Y0248807D01*
X0040994Y0248852D01*
X0040709Y0248905D01*
X0040426Y0248964D01*
X0040144Y0249031D01*
X0039864Y0249104D01*
X0039585Y0249184D01*
X0039309Y0249271D01*
X0039035Y0249365D01*
X0038763Y0249465D01*
X0038494Y0249572D01*
X0038227Y0249685D01*
X0037964Y0249805D01*
X0037703Y0249932D01*
X0037446Y0250064D01*
X0037191Y0250203D01*
X0036941Y0250348D01*
X0036694Y0250500D01*
X0036450Y0250657D01*
X0036211Y0250820D01*
X0035976Y0250989D01*
X0035745Y0251164D01*
X0035518Y0251344D01*
X0035296Y0251529D01*
X0035078Y0251721D01*
X0034865Y0251917D01*
X0034657Y0252118D01*
X0034454Y0252325D01*
X0034256Y0252536D01*
X0034063Y0252753D01*
X0033876Y0252974D01*
X0033694Y0253199D01*
X0033518Y0253429D01*
X0033347Y0253663D01*
X0033182Y0253901D01*
X0033023Y0254143D01*
X0032870Y0254389D01*
X0032723Y0254638D01*
X0032582Y0254892D01*
X0032447Y0255148D01*
X0032319Y0255408D01*
X0032197Y0255670D01*
X0032082Y0255936D01*
X0031973Y0256204D01*
X0031871Y0256475D01*
X0031775Y0256749D01*
X0031686Y0257024D01*
X0031604Y0257302D01*
X0031658Y0257317D01*
X0031739Y0257041D01*
X0031828Y0256767D01*
X0031923Y0256494D01*
X0032025Y0256225D01*
X0032133Y0255958D01*
X0032248Y0255693D01*
X0032370Y0255432D01*
X0032497Y0255173D01*
X0032631Y0254918D01*
X0032772Y0254666D01*
X0032918Y0254418D01*
X0033070Y0254173D01*
X0033229Y0253932D01*
X0033393Y0253695D01*
X0033563Y0253462D01*
X0033738Y0253234D01*
X0033919Y0253009D01*
X0034106Y0252789D01*
X0034297Y0252574D01*
X0034495Y0252364D01*
X0034697Y0252158D01*
X0034904Y0251958D01*
X0035116Y0251762D01*
X0035332Y0251572D01*
X0035553Y0251387D01*
X0035779Y0251208D01*
X0036009Y0251034D01*
X0036243Y0250866D01*
X0036482Y0250703D01*
X0036724Y0250547D01*
X0036970Y0250396D01*
X0037219Y0250252D01*
X0037472Y0250114D01*
X0037728Y0249982D01*
X0037988Y0249856D01*
X0038250Y0249736D01*
X0038515Y0249624D01*
X0038783Y0249517D01*
X0039054Y0249417D01*
X0039326Y0249324D01*
X0039601Y0249238D01*
X0039878Y0249158D01*
X0040157Y0249085D01*
X0040438Y0249019D01*
X0040720Y0248960D01*
X0041003Y0248907D01*
X0041288Y0248862D01*
X0041574Y0248824D01*
X0041860Y0248792D01*
X0042148Y0248768D01*
X0042435Y0248751D01*
X0042724Y0248740D01*
X0043012Y0248737D01*
X0043300Y0248741D01*
X0043588Y0248752D01*
X0043876Y0248770D01*
X0044163Y0248795D01*
X0044450Y0248826D01*
X0044735Y0248865D01*
X0045020Y0248911D01*
X0045303Y0248964D01*
X0045585Y0249024D01*
X0045866Y0249091D01*
X0046144Y0249164D01*
X0046421Y0249244D01*
X0046696Y0249332D01*
X0046969Y0249425D01*
X0047239Y0249526D01*
X0047507Y0249633D01*
X0047772Y0249746D01*
X0048034Y0249866D01*
X0048293Y0249992D01*
X0048549Y0250125D01*
X0048802Y0250264D01*
X0049051Y0250409D01*
X0049296Y0250560D01*
X0049538Y0250717D01*
X0049776Y0250879D01*
X0050010Y0251048D01*
X0050240Y0251222D01*
X0050465Y0251402D01*
X0050686Y0251587D01*
X0050902Y0251778D01*
X0051113Y0251974D01*
X0051320Y0252175D01*
X0051522Y0252381D01*
X0051718Y0252592D01*
X0051910Y0252807D01*
X0052096Y0253027D01*
X0052276Y0253252D01*
X0052452Y0253481D01*
X0052621Y0253714D01*
X0052785Y0253952D01*
X0052942Y0254193D01*
X0053094Y0254438D01*
X0053240Y0254687D01*
X0053380Y0254939D01*
X0053513Y0255194D01*
X0053640Y0255453D01*
X0053761Y0255715D01*
X0053876Y0255979D01*
X0053984Y0256247D01*
X0054085Y0256517D01*
X0054180Y0256789D01*
X0054268Y0257063D01*
X0054749Y0264131D02*
X0054233Y0263974D01*
X0054146Y0264246D01*
X0054052Y0264517D01*
X0053951Y0264784D01*
X0053845Y0265050D01*
X0053731Y0265312D01*
X0053611Y0265572D01*
X0053485Y0265829D01*
X0053353Y0266082D01*
X0053215Y0266333D01*
X0053071Y0266580D01*
X0052920Y0266823D01*
X0052764Y0267062D01*
X0052602Y0267298D01*
X0052434Y0267530D01*
X0052261Y0267757D01*
X0052082Y0267981D01*
X0051898Y0268199D01*
X0051709Y0268414D01*
X0051514Y0268623D01*
X0051314Y0268828D01*
X0051110Y0269028D01*
X0050900Y0269223D01*
X0050686Y0269413D01*
X0050468Y0269597D01*
X0050245Y0269776D01*
X0050017Y0269950D01*
X0049786Y0270118D01*
X0049550Y0270280D01*
X0049311Y0270436D01*
X0049068Y0270587D01*
X0048821Y0270732D01*
X0048571Y0270870D01*
X0048318Y0271003D01*
X0048061Y0271129D01*
X0047802Y0271249D01*
X0047539Y0271363D01*
X0047274Y0271470D01*
X0047006Y0271571D01*
X0046736Y0271665D01*
X0046464Y0271753D01*
X0046190Y0271834D01*
X0045913Y0271908D01*
X0045636Y0271976D01*
X0045356Y0272036D01*
X0045075Y0272090D01*
X0044793Y0272137D01*
X0044510Y0272178D01*
X0044226Y0272211D01*
X0043941Y0272237D01*
X0043656Y0272257D01*
X0043370Y0272269D01*
X0043084Y0272275D01*
X0042798Y0272273D01*
X0042512Y0272265D01*
X0042227Y0272250D01*
X0041941Y0272227D01*
X0041657Y0272198D01*
X0041373Y0272162D01*
X0041090Y0272119D01*
X0040809Y0272069D01*
X0040529Y0272012D01*
X0040250Y0271949D01*
X0039972Y0271878D01*
X0039697Y0271801D01*
X0039424Y0271718D01*
X0039152Y0271627D01*
X0038883Y0271530D01*
X0038616Y0271427D01*
X0038352Y0271317D01*
X0038091Y0271201D01*
X0037833Y0271078D01*
X0037577Y0270949D01*
X0037325Y0270814D01*
X0037077Y0270673D01*
X0036831Y0270526D01*
X0036590Y0270373D01*
X0036352Y0270214D01*
X0036118Y0270049D01*
X0035888Y0269879D01*
X0035663Y0269703D01*
X0035442Y0269522D01*
X0035225Y0269335D01*
X0035013Y0269143D01*
X0034805Y0268946D01*
X0034603Y0268744D01*
X0034405Y0268537D01*
X0034213Y0268326D01*
X0034025Y0268110D01*
X0033844Y0267889D01*
X0033667Y0267664D01*
X0033496Y0267435D01*
X0033331Y0267201D01*
X0033171Y0266964D01*
X0033017Y0266723D01*
X0032869Y0266478D01*
X0032727Y0266230D01*
X0032591Y0265978D01*
X0032462Y0265723D01*
X0032338Y0265465D01*
X0032221Y0265204D01*
X0032111Y0264941D01*
X0032006Y0264674D01*
X0031909Y0264406D01*
X0031817Y0264134D01*
X0031304Y0264299D01*
X0031303Y0264299D01*
X0031398Y0264583D01*
X0031501Y0264864D01*
X0031610Y0265142D01*
X0031725Y0265418D01*
X0031848Y0265691D01*
X0031977Y0265961D01*
X0032113Y0266228D01*
X0032255Y0266491D01*
X0032403Y0266751D01*
X0032558Y0267007D01*
X0032719Y0267259D01*
X0032886Y0267507D01*
X0033059Y0267752D01*
X0033237Y0267991D01*
X0033422Y0268227D01*
X0033612Y0268458D01*
X0033808Y0268684D01*
X0034010Y0268905D01*
X0034216Y0269121D01*
X0034428Y0269333D01*
X0034645Y0269539D01*
X0034867Y0269739D01*
X0035094Y0269935D01*
X0035325Y0270124D01*
X0035561Y0270308D01*
X0035801Y0270486D01*
X0036046Y0270659D01*
X0036295Y0270825D01*
X0036547Y0270985D01*
X0036804Y0271139D01*
X0037064Y0271287D01*
X0037328Y0271428D01*
X0037595Y0271563D01*
X0037865Y0271691D01*
X0038138Y0271813D01*
X0038415Y0271928D01*
X0038694Y0272036D01*
X0038975Y0272137D01*
X0039259Y0272232D01*
X0039545Y0272319D01*
X0039833Y0272400D01*
X0040123Y0272474D01*
X0040415Y0272540D01*
X0040708Y0272599D01*
X0041003Y0272652D01*
X0041298Y0272697D01*
X0041595Y0272734D01*
X0041893Y0272765D01*
X0042191Y0272788D01*
X0042490Y0272804D01*
X0042789Y0272813D01*
X0043088Y0272815D01*
X0043387Y0272809D01*
X0043686Y0272796D01*
X0043984Y0272776D01*
X0044282Y0272748D01*
X0044579Y0272713D01*
X0044876Y0272671D01*
X0045171Y0272622D01*
X0045465Y0272565D01*
X0045757Y0272502D01*
X0046048Y0272431D01*
X0046337Y0272353D01*
X0046623Y0272269D01*
X0046908Y0272177D01*
X0047191Y0272079D01*
X0047471Y0271973D01*
X0047748Y0271861D01*
X0048023Y0271742D01*
X0048294Y0271616D01*
X0048563Y0271484D01*
X0048828Y0271346D01*
X0049089Y0271201D01*
X0049347Y0271049D01*
X0049602Y0270892D01*
X0049852Y0270728D01*
X0050098Y0270558D01*
X0050340Y0270382D01*
X0050578Y0270201D01*
X0050812Y0270013D01*
X0051040Y0269820D01*
X0051264Y0269622D01*
X0051483Y0269418D01*
X0051697Y0269209D01*
X0051906Y0268995D01*
X0052109Y0268776D01*
X0052307Y0268551D01*
X0052500Y0268322D01*
X0052687Y0268089D01*
X0052868Y0267851D01*
X0053044Y0267609D01*
X0053213Y0267362D01*
X0053377Y0267111D01*
X0053534Y0266857D01*
X0053685Y0266599D01*
X0053830Y0266337D01*
X0053968Y0266071D01*
X0054100Y0265803D01*
X0054225Y0265531D01*
X0054343Y0265256D01*
X0054455Y0264979D01*
X0054560Y0264699D01*
X0054658Y0264416D01*
X0054750Y0264131D01*
X0054696Y0264115D01*
X0054605Y0264399D01*
X0054508Y0264680D01*
X0054403Y0264959D01*
X0054292Y0265235D01*
X0054174Y0265508D01*
X0054049Y0265779D01*
X0053918Y0266046D01*
X0053780Y0266310D01*
X0053636Y0266571D01*
X0053486Y0266828D01*
X0053329Y0267081D01*
X0053167Y0267331D01*
X0052998Y0267576D01*
X0052823Y0267818D01*
X0052643Y0268055D01*
X0052457Y0268287D01*
X0052265Y0268515D01*
X0052068Y0268738D01*
X0051865Y0268956D01*
X0051657Y0269170D01*
X0051444Y0269378D01*
X0051226Y0269581D01*
X0051003Y0269778D01*
X0050776Y0269970D01*
X0050544Y0270157D01*
X0050307Y0270337D01*
X0050066Y0270512D01*
X0049821Y0270681D01*
X0049572Y0270844D01*
X0049318Y0271001D01*
X0049062Y0271152D01*
X0048801Y0271296D01*
X0048537Y0271434D01*
X0048270Y0271566D01*
X0048000Y0271691D01*
X0047726Y0271809D01*
X0047450Y0271921D01*
X0047172Y0272026D01*
X0046890Y0272124D01*
X0046607Y0272215D01*
X0046321Y0272300D01*
X0046034Y0272377D01*
X0045744Y0272447D01*
X0045453Y0272511D01*
X0045161Y0272567D01*
X0044867Y0272616D01*
X0044572Y0272658D01*
X0044276Y0272692D01*
X0043980Y0272720D01*
X0043683Y0272740D01*
X0043385Y0272753D01*
X0043088Y0272759D01*
X0042790Y0272757D01*
X0042492Y0272748D01*
X0042195Y0272732D01*
X0041898Y0272709D01*
X0041602Y0272679D01*
X0041306Y0272641D01*
X0041012Y0272596D01*
X0040718Y0272544D01*
X0040427Y0272485D01*
X0040136Y0272419D01*
X0039848Y0272346D01*
X0039561Y0272266D01*
X0039276Y0272178D01*
X0038993Y0272084D01*
X0038713Y0271983D01*
X0038436Y0271876D01*
X0038161Y0271761D01*
X0037889Y0271640D01*
X0037620Y0271512D01*
X0037354Y0271378D01*
X0037091Y0271238D01*
X0036832Y0271091D01*
X0036577Y0270937D01*
X0036325Y0270778D01*
X0036078Y0270612D01*
X0035834Y0270441D01*
X0035595Y0270264D01*
X0035360Y0270081D01*
X0035130Y0269892D01*
X0034904Y0269697D01*
X0034683Y0269498D01*
X0034467Y0269293D01*
X0034256Y0269082D01*
X0034051Y0268867D01*
X0033850Y0268647D01*
X0033655Y0268422D01*
X0033466Y0268192D01*
X0033282Y0267957D01*
X0033104Y0267719D01*
X0032932Y0267476D01*
X0032766Y0267229D01*
X0032605Y0266978D01*
X0032451Y0266723D01*
X0032304Y0266464D01*
X0032162Y0266202D01*
X0032027Y0265936D01*
X0031899Y0265668D01*
X0031777Y0265396D01*
X0031662Y0265122D01*
X0031553Y0264844D01*
X0031451Y0264564D01*
X0031356Y0264282D01*
X0031410Y0264265D01*
X0031504Y0264546D01*
X0031606Y0264825D01*
X0031714Y0265101D01*
X0031828Y0265374D01*
X0031950Y0265644D01*
X0032078Y0265912D01*
X0032212Y0266176D01*
X0032353Y0266437D01*
X0032500Y0266694D01*
X0032653Y0266948D01*
X0032812Y0267198D01*
X0032978Y0267444D01*
X0033149Y0267686D01*
X0033327Y0267923D01*
X0033510Y0268157D01*
X0033698Y0268385D01*
X0033892Y0268610D01*
X0034092Y0268829D01*
X0034296Y0269043D01*
X0034506Y0269252D01*
X0034721Y0269457D01*
X0034941Y0269655D01*
X0035166Y0269849D01*
X0035395Y0270037D01*
X0035629Y0270219D01*
X0035867Y0270396D01*
X0036109Y0270566D01*
X0036356Y0270731D01*
X0036606Y0270890D01*
X0036860Y0271042D01*
X0037118Y0271189D01*
X0037380Y0271329D01*
X0037644Y0271462D01*
X0037912Y0271589D01*
X0038183Y0271710D01*
X0038457Y0271824D01*
X0038733Y0271931D01*
X0039012Y0272031D01*
X0039293Y0272125D01*
X0039576Y0272212D01*
X0039862Y0272292D01*
X0040149Y0272365D01*
X0040438Y0272431D01*
X0040729Y0272489D01*
X0041021Y0272541D01*
X0041314Y0272586D01*
X0041608Y0272623D01*
X0041903Y0272653D01*
X0042198Y0272677D01*
X0042494Y0272692D01*
X0042791Y0272701D01*
X0043087Y0272703D01*
X0043384Y0272697D01*
X0043680Y0272684D01*
X0043975Y0272664D01*
X0044271Y0272637D01*
X0044565Y0272602D01*
X0044859Y0272560D01*
X0045151Y0272512D01*
X0045442Y0272456D01*
X0045732Y0272393D01*
X0046020Y0272323D01*
X0046306Y0272246D01*
X0046590Y0272162D01*
X0046873Y0272071D01*
X0047152Y0271973D01*
X0047430Y0271869D01*
X0047705Y0271758D01*
X0047977Y0271640D01*
X0048246Y0271515D01*
X0048512Y0271384D01*
X0048774Y0271247D01*
X0049034Y0271103D01*
X0049289Y0270953D01*
X0049541Y0270797D01*
X0049789Y0270635D01*
X0050034Y0270467D01*
X0050273Y0270293D01*
X0050509Y0270113D01*
X0050740Y0269927D01*
X0050967Y0269736D01*
X0051189Y0269539D01*
X0051406Y0269337D01*
X0051618Y0269130D01*
X0051825Y0268918D01*
X0052026Y0268701D01*
X0052223Y0268478D01*
X0052413Y0268252D01*
X0052599Y0268020D01*
X0052778Y0267784D01*
X0052952Y0267544D01*
X0053120Y0267300D01*
X0053282Y0267052D01*
X0053438Y0266799D01*
X0053587Y0266543D01*
X0053731Y0266284D01*
X0053868Y0266021D01*
X0053998Y0265755D01*
X0054122Y0265486D01*
X0054240Y0265214D01*
X0054351Y0264939D01*
X0054455Y0264661D01*
X0054552Y0264381D01*
X0054643Y0264099D01*
X0054589Y0264082D01*
X0054499Y0264363D01*
X0054402Y0264642D01*
X0054298Y0264918D01*
X0054188Y0265192D01*
X0054071Y0265463D01*
X0053948Y0265731D01*
X0053818Y0265996D01*
X0053681Y0266258D01*
X0053539Y0266516D01*
X0053390Y0266771D01*
X0053235Y0267022D01*
X0053073Y0267269D01*
X0052906Y0267512D01*
X0052733Y0267751D01*
X0052555Y0267986D01*
X0052370Y0268216D01*
X0052180Y0268442D01*
X0051985Y0268663D01*
X0051784Y0268879D01*
X0051578Y0269091D01*
X0051367Y0269297D01*
X0051151Y0269498D01*
X0050930Y0269694D01*
X0050705Y0269884D01*
X0050474Y0270069D01*
X0050240Y0270248D01*
X0050001Y0270421D01*
X0049758Y0270588D01*
X0049511Y0270750D01*
X0049260Y0270905D01*
X0049006Y0271055D01*
X0048748Y0271198D01*
X0048486Y0271335D01*
X0048222Y0271465D01*
X0047954Y0271589D01*
X0047683Y0271706D01*
X0047409Y0271817D01*
X0047133Y0271921D01*
X0046855Y0272018D01*
X0046574Y0272108D01*
X0046291Y0272192D01*
X0046006Y0272268D01*
X0045719Y0272338D01*
X0045431Y0272401D01*
X0045141Y0272456D01*
X0044850Y0272505D01*
X0044558Y0272546D01*
X0044265Y0272581D01*
X0043971Y0272608D01*
X0043677Y0272628D01*
X0043382Y0272641D01*
X0043087Y0272647D01*
X0042792Y0272645D01*
X0042497Y0272637D01*
X0042202Y0272621D01*
X0041908Y0272598D01*
X0041614Y0272568D01*
X0041322Y0272530D01*
X0041030Y0272486D01*
X0040739Y0272434D01*
X0040450Y0272376D01*
X0040162Y0272310D01*
X0039876Y0272238D01*
X0039592Y0272158D01*
X0039310Y0272072D01*
X0039030Y0271979D01*
X0038753Y0271879D01*
X0038477Y0271772D01*
X0038205Y0271658D01*
X0037935Y0271538D01*
X0037669Y0271412D01*
X0037405Y0271279D01*
X0037145Y0271140D01*
X0036889Y0270994D01*
X0036636Y0270842D01*
X0036386Y0270684D01*
X0036141Y0270520D01*
X0035900Y0270350D01*
X0035663Y0270175D01*
X0035430Y0269993D01*
X0035202Y0269806D01*
X0034978Y0269614D01*
X0034759Y0269416D01*
X0034545Y0269212D01*
X0034337Y0269004D01*
X0034133Y0268791D01*
X0033934Y0268572D01*
X0033741Y0268349D01*
X0033553Y0268122D01*
X0033371Y0267890D01*
X0033195Y0267653D01*
X0033024Y0267412D01*
X0032859Y0267167D01*
X0032701Y0266919D01*
X0032548Y0266666D01*
X0032402Y0266410D01*
X0032262Y0266150D01*
X0032128Y0265887D01*
X0032001Y0265621D01*
X0031880Y0265352D01*
X0031766Y0265080D01*
X0031658Y0264805D01*
X0031557Y0264528D01*
X0031463Y0264248D01*
X0031516Y0264231D01*
X0031610Y0264509D01*
X0031710Y0264785D01*
X0031817Y0265059D01*
X0031931Y0265330D01*
X0032051Y0265598D01*
X0032178Y0265862D01*
X0032311Y0266124D01*
X0032451Y0266383D01*
X0032596Y0266638D01*
X0032748Y0266889D01*
X0032906Y0267137D01*
X0033070Y0267381D01*
X0033240Y0267620D01*
X0033416Y0267856D01*
X0033597Y0268087D01*
X0033784Y0268313D01*
X0033976Y0268535D01*
X0034174Y0268753D01*
X0034377Y0268965D01*
X0034585Y0269172D01*
X0034798Y0269375D01*
X0035015Y0269572D01*
X0035238Y0269763D01*
X0035465Y0269949D01*
X0035697Y0270130D01*
X0035933Y0270305D01*
X0036173Y0270474D01*
X0036417Y0270637D01*
X0036665Y0270794D01*
X0036917Y0270946D01*
X0037172Y0271091D01*
X0037431Y0271229D01*
X0037694Y0271362D01*
X0037959Y0271488D01*
X0038227Y0271607D01*
X0038498Y0271720D01*
X0038772Y0271826D01*
X0039049Y0271926D01*
X0039327Y0272018D01*
X0039608Y0272104D01*
X0039891Y0272184D01*
X0040176Y0272256D01*
X0040462Y0272321D01*
X0040750Y0272379D01*
X0041039Y0272431D01*
X0041329Y0272475D01*
X0041621Y0272512D01*
X0041913Y0272542D01*
X0042206Y0272565D01*
X0042499Y0272581D01*
X0042793Y0272589D01*
X0043086Y0272591D01*
X0043380Y0272585D01*
X0043673Y0272572D01*
X0043966Y0272552D01*
X0044259Y0272525D01*
X0044551Y0272491D01*
X0044841Y0272450D01*
X0045131Y0272401D01*
X0045420Y0272346D01*
X0045707Y0272284D01*
X0045992Y0272214D01*
X0046276Y0272138D01*
X0046557Y0272055D01*
X0046837Y0271965D01*
X0047114Y0271868D01*
X0047389Y0271764D01*
X0047661Y0271654D01*
X0047931Y0271538D01*
X0048197Y0271414D01*
X0048461Y0271285D01*
X0048721Y0271148D01*
X0048978Y0271006D01*
X0049231Y0270857D01*
X0049481Y0270703D01*
X0049727Y0270542D01*
X0049969Y0270375D01*
X0050206Y0270203D01*
X0050440Y0270025D01*
X0050669Y0269841D01*
X0050893Y0269651D01*
X0051113Y0269456D01*
X0051328Y0269256D01*
X0051538Y0269051D01*
X0051743Y0268841D01*
X0051943Y0268625D01*
X0052138Y0268405D01*
X0052327Y0268181D01*
X0052510Y0267951D01*
X0052688Y0267718D01*
X0052860Y0267480D01*
X0053027Y0267238D01*
X0053187Y0266992D01*
X0053342Y0266742D01*
X0053490Y0266488D01*
X0053632Y0266231D01*
X0053768Y0265971D01*
X0053897Y0265707D01*
X0054020Y0265440D01*
X0054136Y0265171D01*
X0054246Y0264898D01*
X0054349Y0264623D01*
X0054446Y0264346D01*
X0054535Y0264066D01*
X0054482Y0264050D01*
X0054393Y0264328D01*
X0054297Y0264604D01*
X0054194Y0264878D01*
X0054085Y0265149D01*
X0053969Y0265418D01*
X0053847Y0265683D01*
X0053718Y0265946D01*
X0053583Y0266205D01*
X0053441Y0266461D01*
X0053294Y0266713D01*
X0053140Y0266962D01*
X0052980Y0267207D01*
X0052815Y0267448D01*
X0052643Y0267684D01*
X0052466Y0267917D01*
X0052283Y0268145D01*
X0052095Y0268369D01*
X0051902Y0268588D01*
X0051703Y0268802D01*
X0051499Y0269012D01*
X0051289Y0269216D01*
X0051075Y0269415D01*
X0050857Y0269609D01*
X0050633Y0269797D01*
X0050405Y0269980D01*
X0050173Y0270158D01*
X0049936Y0270330D01*
X0049696Y0270496D01*
X0049451Y0270656D01*
X0049203Y0270810D01*
X0048950Y0270957D01*
X0048695Y0271099D01*
X0048436Y0271235D01*
X0048173Y0271364D01*
X0047908Y0271486D01*
X0047640Y0271603D01*
X0047369Y0271712D01*
X0047095Y0271815D01*
X0046819Y0271912D01*
X0046541Y0272001D01*
X0046260Y0272084D01*
X0045978Y0272160D01*
X0045694Y0272229D01*
X0045408Y0272291D01*
X0045121Y0272346D01*
X0044833Y0272394D01*
X0044543Y0272435D01*
X0044253Y0272469D01*
X0043962Y0272496D01*
X0043670Y0272516D01*
X0043378Y0272529D01*
X0043086Y0272535D01*
X0042794Y0272533D01*
X0042501Y0272525D01*
X0042209Y0272509D01*
X0041918Y0272486D01*
X0041627Y0272456D01*
X0041337Y0272419D01*
X0041048Y0272375D01*
X0040760Y0272324D01*
X0040474Y0272266D01*
X0040189Y0272201D01*
X0039905Y0272129D01*
X0039624Y0272051D01*
X0039344Y0271965D01*
X0039067Y0271873D01*
X0038792Y0271774D01*
X0038519Y0271668D01*
X0038249Y0271556D01*
X0037982Y0271437D01*
X0037718Y0271311D01*
X0037457Y0271180D01*
X0037200Y0271042D01*
X0036945Y0270897D01*
X0036695Y0270747D01*
X0036448Y0270590D01*
X0036205Y0270428D01*
X0035966Y0270260D01*
X0035731Y0270085D01*
X0035500Y0269906D01*
X0035274Y0269720D01*
X0035053Y0269530D01*
X0034836Y0269334D01*
X0034624Y0269132D01*
X0034417Y0268926D01*
X0034215Y0268714D01*
X0034018Y0268498D01*
X0033827Y0268277D01*
X0033641Y0268052D01*
X0033460Y0267822D01*
X0033285Y0267587D01*
X0033116Y0267349D01*
X0032953Y0267106D01*
X0032796Y0266860D01*
X0032645Y0266610D01*
X0032500Y0266356D01*
X0032361Y0266098D01*
X0032228Y0265838D01*
X0032102Y0265574D01*
X0031983Y0265307D01*
X0031869Y0265038D01*
X0031763Y0264766D01*
X0031663Y0264491D01*
X0031570Y0264214D01*
X0031623Y0264197D01*
X0031716Y0264472D01*
X0031815Y0264746D01*
X0031921Y0265017D01*
X0032034Y0265285D01*
X0032153Y0265551D01*
X0032279Y0265813D01*
X0032411Y0266073D01*
X0032549Y0266329D01*
X0032693Y0266581D01*
X0032844Y0266830D01*
X0033000Y0267076D01*
X0033163Y0267317D01*
X0033331Y0267554D01*
X0033505Y0267788D01*
X0033684Y0268017D01*
X0033869Y0268241D01*
X0034060Y0268461D01*
X0034256Y0268676D01*
X0034457Y0268887D01*
X0034663Y0269092D01*
X0034874Y0269293D01*
X0035090Y0269488D01*
X0035310Y0269678D01*
X0035535Y0269862D01*
X0035765Y0270041D01*
X0035998Y0270214D01*
X0036236Y0270382D01*
X0036478Y0270543D01*
X0036724Y0270699D01*
X0036974Y0270849D01*
X0037227Y0270993D01*
X0037483Y0271130D01*
X0037743Y0271261D01*
X0038006Y0271386D01*
X0038272Y0271504D01*
X0038540Y0271616D01*
X0038812Y0271721D01*
X0039085Y0271820D01*
X0039361Y0271912D01*
X0039640Y0271997D01*
X0039920Y0272075D01*
X0040202Y0272147D01*
X0040486Y0272212D01*
X0040771Y0272269D01*
X0041057Y0272320D01*
X0041345Y0272364D01*
X0041634Y0272401D01*
X0041923Y0272430D01*
X0042213Y0272453D01*
X0042504Y0272469D01*
X0042795Y0272477D01*
X0043086Y0272479D01*
X0043376Y0272473D01*
X0043667Y0272460D01*
X0043957Y0272441D01*
X0044247Y0272414D01*
X0044536Y0272380D01*
X0044824Y0272339D01*
X0045111Y0272291D01*
X0045397Y0272236D01*
X0045681Y0272174D01*
X0045964Y0272106D01*
X0046245Y0272030D01*
X0046524Y0271948D01*
X0046801Y0271859D01*
X0047076Y0271763D01*
X0047348Y0271660D01*
X0047618Y0271551D01*
X0047885Y0271435D01*
X0048149Y0271313D01*
X0048410Y0271185D01*
X0048668Y0271050D01*
X0048923Y0270909D01*
X0049174Y0270762D01*
X0049421Y0270608D01*
X0049664Y0270449D01*
X0049904Y0270284D01*
X0050139Y0270113D01*
X0050371Y0269936D01*
X0050598Y0269754D01*
X0050820Y0269567D01*
X0051038Y0269374D01*
X0051251Y0269175D01*
X0051459Y0268972D01*
X0051662Y0268764D01*
X0051860Y0268550D01*
X0052053Y0268332D01*
X0052240Y0268110D01*
X0052422Y0267883D01*
X0052598Y0267651D01*
X0052769Y0267415D01*
X0052934Y0267176D01*
X0053093Y0266932D01*
X0053246Y0266684D01*
X0053392Y0266433D01*
X0053533Y0266178D01*
X0053668Y0265920D01*
X0053796Y0265659D01*
X0053918Y0265395D01*
X0054033Y0265128D01*
X0054142Y0264858D01*
X0054244Y0264585D01*
X0054339Y0264311D01*
X0054428Y0264034D01*
X0054375Y0264017D01*
X0054286Y0264293D01*
X0054191Y0264567D01*
X0054090Y0264838D01*
X0053981Y0265106D01*
X0053866Y0265372D01*
X0053745Y0265635D01*
X0053618Y0265895D01*
X0053484Y0266152D01*
X0053344Y0266406D01*
X0053198Y0266656D01*
X0053045Y0266902D01*
X0052887Y0267145D01*
X0052723Y0267383D01*
X0052553Y0267618D01*
X0052378Y0267848D01*
X0052197Y0268074D01*
X0052010Y0268296D01*
X0051818Y0268513D01*
X0051621Y0268725D01*
X0051419Y0268933D01*
X0051212Y0269135D01*
X0051000Y0269332D01*
X0050783Y0269524D01*
X0050562Y0269711D01*
X0050336Y0269892D01*
X0050106Y0270068D01*
X0049872Y0270238D01*
X0049633Y0270403D01*
X0049391Y0270561D01*
X0049145Y0270714D01*
X0048895Y0270860D01*
X0048641Y0271001D01*
X0048385Y0271135D01*
X0048125Y0271263D01*
X0047862Y0271384D01*
X0047596Y0271499D01*
X0047328Y0271608D01*
X0047057Y0271710D01*
X0046783Y0271806D01*
X0046508Y0271894D01*
X0046230Y0271976D01*
X0045950Y0272051D01*
X0045669Y0272120D01*
X0045386Y0272181D01*
X0045101Y0272236D01*
X0044816Y0272284D01*
X0044529Y0272324D01*
X0044241Y0272358D01*
X0043953Y0272385D01*
X0043664Y0272404D01*
X0043375Y0272417D01*
X0043085Y0272423D01*
X0042796Y0272421D01*
X0042506Y0272413D01*
X0042217Y0272397D01*
X0041928Y0272375D01*
X0041640Y0272345D01*
X0041353Y0272308D01*
X0041066Y0272265D01*
X0040781Y0272214D01*
X0040497Y0272157D01*
X0040215Y0272092D01*
X0039934Y0272021D01*
X0039655Y0271943D01*
X0039378Y0271858D01*
X0039104Y0271767D01*
X0038831Y0271669D01*
X0038561Y0271564D01*
X0038294Y0271453D01*
X0038029Y0271335D01*
X0037768Y0271211D01*
X0037509Y0271080D01*
X0037254Y0270944D01*
X0037002Y0270801D01*
X0036754Y0270652D01*
X0036509Y0270497D01*
X0036268Y0270336D01*
X0036031Y0270169D01*
X0035799Y0269996D01*
X0035570Y0269818D01*
X0035346Y0269635D01*
X0035127Y0269446D01*
X0034912Y0269252D01*
X0034702Y0269052D01*
X0034497Y0268848D01*
X0034297Y0268638D01*
X0034102Y0268424D01*
X0033912Y0268205D01*
X0033728Y0267982D01*
X0033549Y0267754D01*
X0033376Y0267522D01*
X0033209Y0267285D01*
X0033047Y0267045D01*
X0032891Y0266801D01*
X0032741Y0266553D01*
X0032598Y0266302D01*
X0032460Y0266047D01*
X0032329Y0265789D01*
X0032204Y0265527D01*
X0032085Y0265263D01*
X0031973Y0264996D01*
X0031868Y0264726D01*
X0031769Y0264454D01*
X0031676Y0264180D01*
X0031730Y0264163D01*
X0031822Y0264436D01*
X0031920Y0264707D01*
X0032025Y0264975D01*
X0032137Y0265241D01*
X0032255Y0265504D01*
X0032379Y0265764D01*
X0032510Y0266021D01*
X0032647Y0266274D01*
X0032790Y0266525D01*
X0032939Y0266771D01*
X0033094Y0267014D01*
X0033255Y0267254D01*
X0033421Y0267489D01*
X0033594Y0267720D01*
X0033772Y0267947D01*
X0033955Y0268169D01*
X0034144Y0268387D01*
X0034338Y0268600D01*
X0034537Y0268809D01*
X0034741Y0269012D01*
X0034950Y0269211D01*
X0035164Y0269404D01*
X0035382Y0269592D01*
X0035605Y0269775D01*
X0035833Y0269952D01*
X0036064Y0270124D01*
X0036300Y0270289D01*
X0036539Y0270450D01*
X0036783Y0270604D01*
X0037030Y0270752D01*
X0037281Y0270895D01*
X0037535Y0271031D01*
X0037792Y0271161D01*
X0038053Y0271284D01*
X0038316Y0271401D01*
X0038582Y0271512D01*
X0038851Y0271616D01*
X0039122Y0271714D01*
X0039395Y0271805D01*
X0039671Y0271890D01*
X0039949Y0271967D01*
X0040228Y0272038D01*
X0040509Y0272102D01*
X0040792Y0272159D01*
X0041076Y0272210D01*
X0041360Y0272253D01*
X0041646Y0272289D01*
X0041933Y0272319D01*
X0042221Y0272341D01*
X0042508Y0272357D01*
X0042796Y0272365D01*
X0043085Y0272367D01*
X0043373Y0272361D01*
X0043661Y0272349D01*
X0043948Y0272329D01*
X0044235Y0272302D01*
X0044522Y0272269D01*
X0044807Y0272228D01*
X0045091Y0272181D01*
X0045375Y0272127D01*
X0045656Y0272065D01*
X0045936Y0271997D01*
X0046215Y0271922D01*
X0046491Y0271841D01*
X0046766Y0271752D01*
X0047038Y0271657D01*
X0047307Y0271556D01*
X0047575Y0271448D01*
X0047839Y0271333D01*
X0048101Y0271212D01*
X0048359Y0271085D01*
X0048615Y0270951D01*
X0048867Y0270812D01*
X0049116Y0270666D01*
X0049361Y0270514D01*
X0049602Y0270356D01*
X0049839Y0270193D01*
X0050072Y0270023D01*
X0050302Y0269848D01*
X0050526Y0269668D01*
X0050747Y0269482D01*
X0050962Y0269291D01*
X0051173Y0269094D01*
X0051380Y0268893D01*
X0051581Y0268687D01*
X0051777Y0268475D01*
X0051968Y0268259D01*
X0052153Y0268039D01*
X0052334Y0267814D01*
X0052508Y0267585D01*
X0052677Y0267351D01*
X0052840Y0267113D01*
X0052998Y0266872D01*
X0053149Y0266627D01*
X0053295Y0266378D01*
X0053434Y0266126D01*
X0053568Y0265870D01*
X0053695Y0265611D01*
X0053815Y0265350D01*
X0053930Y0265085D01*
X0054037Y0264818D01*
X0054139Y0264548D01*
X0054233Y0264275D01*
X0054321Y0264001D01*
X0054268Y0263985D01*
X0054180Y0264258D01*
X0054086Y0264529D01*
X0053985Y0264797D01*
X0053878Y0265063D01*
X0053764Y0265327D01*
X0053644Y0265587D01*
X0053518Y0265845D01*
X0053385Y0266099D01*
X0053246Y0266350D01*
X0053101Y0266598D01*
X0052951Y0266842D01*
X0052794Y0267082D01*
X0052631Y0267319D01*
X0052463Y0267551D01*
X0052289Y0267779D01*
X0052110Y0268003D01*
X0051925Y0268223D01*
X0051735Y0268438D01*
X0051540Y0268648D01*
X0051340Y0268853D01*
X0051135Y0269054D01*
X0050925Y0269249D01*
X0050710Y0269440D01*
X0050491Y0269625D01*
X0050267Y0269804D01*
X0050039Y0269978D01*
X0049807Y0270147D01*
X0049571Y0270310D01*
X0049330Y0270467D01*
X0049087Y0270618D01*
X0048839Y0270763D01*
X0048588Y0270902D01*
X0048334Y0271035D01*
X0048077Y0271162D01*
X0047816Y0271282D01*
X0047553Y0271396D01*
X0047287Y0271504D01*
X0047019Y0271605D01*
X0046748Y0271699D01*
X0046475Y0271787D01*
X0046199Y0271868D01*
X0045922Y0271943D01*
X0045644Y0272011D01*
X0045363Y0272072D01*
X0045082Y0272126D01*
X0044799Y0272173D01*
X0044515Y0272213D01*
X0044230Y0272247D01*
X0043944Y0272273D01*
X0043658Y0272293D01*
X0043371Y0272305D01*
X0043084Y0272311D01*
X0042797Y0272309D01*
X0042511Y0272301D01*
X0042224Y0272285D01*
X0041938Y0272263D01*
X0041653Y0272234D01*
X0041368Y0272198D01*
X0041085Y0272154D01*
X0040802Y0272104D01*
X0040521Y0272047D01*
X0040241Y0271984D01*
X0039963Y0271913D01*
X0039687Y0271836D01*
X0039413Y0271752D01*
X0039140Y0271661D01*
X0038870Y0271564D01*
X0038603Y0271460D01*
X0038338Y0271350D01*
X0038076Y0271233D01*
X0037817Y0271110D01*
X0037561Y0270981D01*
X0037308Y0270846D01*
X0037058Y0270704D01*
X0036812Y0270556D01*
X0036570Y0270403D01*
X0036332Y0270243D01*
X0036097Y0270078D01*
X0035867Y0269907D01*
X0035640Y0269731D01*
X0035418Y0269549D01*
X0035201Y0269362D01*
X0034988Y0269169D01*
X0034780Y0268972D01*
X0034577Y0268769D01*
X0034379Y0268562D01*
X0034186Y0268350D01*
X0033998Y0268133D01*
X0033815Y0267912D01*
X0033638Y0267686D01*
X0033467Y0267456D01*
X0033301Y0267222D01*
X0033141Y0266984D01*
X0032987Y0266742D01*
X0032838Y0266496D01*
X0032696Y0266247D01*
X0032560Y0265995D01*
X0032430Y0265739D01*
X0032306Y0265480D01*
X0032188Y0265219D01*
X0032077Y0264954D01*
X0031973Y0264687D01*
X0031875Y0264417D01*
X0031783Y0264145D01*
D21*
X0044350Y0260524D03*
M02*
