G75*
%MOIN*%
%OFA0B0*%
%FSLAX25Y25*%
%IPPOS*%
%LPD*%
%AMOC8*
5,1,8,0,0,1.08239X$1,22.5*
%
%ADD10C,0.00000*%
D10*
X0004921Y0092524D02*
X0004921Y0287924D01*
X0004900Y0287924D02*
X0214921Y0287124D01*
X0214921Y0287224D01*
X0214921Y0287124D02*
X0214921Y0092524D01*
X0005000Y0092524D01*
X0165701Y0275924D02*
X0165703Y0276082D01*
X0165709Y0276240D01*
X0165719Y0276398D01*
X0165733Y0276556D01*
X0165751Y0276713D01*
X0165772Y0276870D01*
X0165798Y0277026D01*
X0165828Y0277182D01*
X0165861Y0277337D01*
X0165899Y0277490D01*
X0165940Y0277643D01*
X0165985Y0277795D01*
X0166034Y0277946D01*
X0166087Y0278095D01*
X0166143Y0278243D01*
X0166203Y0278389D01*
X0166267Y0278534D01*
X0166335Y0278677D01*
X0166406Y0278819D01*
X0166480Y0278959D01*
X0166558Y0279096D01*
X0166640Y0279232D01*
X0166724Y0279366D01*
X0166813Y0279497D01*
X0166904Y0279626D01*
X0166999Y0279753D01*
X0167096Y0279878D01*
X0167197Y0280000D01*
X0167301Y0280119D01*
X0167408Y0280236D01*
X0167518Y0280350D01*
X0167631Y0280461D01*
X0167746Y0280570D01*
X0167864Y0280675D01*
X0167985Y0280777D01*
X0168108Y0280877D01*
X0168234Y0280973D01*
X0168362Y0281066D01*
X0168492Y0281156D01*
X0168625Y0281242D01*
X0168760Y0281326D01*
X0168896Y0281405D01*
X0169035Y0281482D01*
X0169176Y0281554D01*
X0169318Y0281624D01*
X0169462Y0281689D01*
X0169608Y0281751D01*
X0169755Y0281809D01*
X0169904Y0281864D01*
X0170054Y0281915D01*
X0170205Y0281962D01*
X0170357Y0282005D01*
X0170510Y0282044D01*
X0170665Y0282080D01*
X0170820Y0282111D01*
X0170976Y0282139D01*
X0171132Y0282163D01*
X0171289Y0282183D01*
X0171447Y0282199D01*
X0171604Y0282211D01*
X0171763Y0282219D01*
X0171921Y0282223D01*
X0172079Y0282223D01*
X0172237Y0282219D01*
X0172396Y0282211D01*
X0172553Y0282199D01*
X0172711Y0282183D01*
X0172868Y0282163D01*
X0173024Y0282139D01*
X0173180Y0282111D01*
X0173335Y0282080D01*
X0173490Y0282044D01*
X0173643Y0282005D01*
X0173795Y0281962D01*
X0173946Y0281915D01*
X0174096Y0281864D01*
X0174245Y0281809D01*
X0174392Y0281751D01*
X0174538Y0281689D01*
X0174682Y0281624D01*
X0174824Y0281554D01*
X0174965Y0281482D01*
X0175104Y0281405D01*
X0175240Y0281326D01*
X0175375Y0281242D01*
X0175508Y0281156D01*
X0175638Y0281066D01*
X0175766Y0280973D01*
X0175892Y0280877D01*
X0176015Y0280777D01*
X0176136Y0280675D01*
X0176254Y0280570D01*
X0176369Y0280461D01*
X0176482Y0280350D01*
X0176592Y0280236D01*
X0176699Y0280119D01*
X0176803Y0280000D01*
X0176904Y0279878D01*
X0177001Y0279753D01*
X0177096Y0279626D01*
X0177187Y0279497D01*
X0177276Y0279366D01*
X0177360Y0279232D01*
X0177442Y0279096D01*
X0177520Y0278959D01*
X0177594Y0278819D01*
X0177665Y0278677D01*
X0177733Y0278534D01*
X0177797Y0278389D01*
X0177857Y0278243D01*
X0177913Y0278095D01*
X0177966Y0277946D01*
X0178015Y0277795D01*
X0178060Y0277643D01*
X0178101Y0277490D01*
X0178139Y0277337D01*
X0178172Y0277182D01*
X0178202Y0277026D01*
X0178228Y0276870D01*
X0178249Y0276713D01*
X0178267Y0276556D01*
X0178281Y0276398D01*
X0178291Y0276240D01*
X0178297Y0276082D01*
X0178299Y0275924D01*
X0178297Y0275766D01*
X0178291Y0275608D01*
X0178281Y0275450D01*
X0178267Y0275292D01*
X0178249Y0275135D01*
X0178228Y0274978D01*
X0178202Y0274822D01*
X0178172Y0274666D01*
X0178139Y0274511D01*
X0178101Y0274358D01*
X0178060Y0274205D01*
X0178015Y0274053D01*
X0177966Y0273902D01*
X0177913Y0273753D01*
X0177857Y0273605D01*
X0177797Y0273459D01*
X0177733Y0273314D01*
X0177665Y0273171D01*
X0177594Y0273029D01*
X0177520Y0272889D01*
X0177442Y0272752D01*
X0177360Y0272616D01*
X0177276Y0272482D01*
X0177187Y0272351D01*
X0177096Y0272222D01*
X0177001Y0272095D01*
X0176904Y0271970D01*
X0176803Y0271848D01*
X0176699Y0271729D01*
X0176592Y0271612D01*
X0176482Y0271498D01*
X0176369Y0271387D01*
X0176254Y0271278D01*
X0176136Y0271173D01*
X0176015Y0271071D01*
X0175892Y0270971D01*
X0175766Y0270875D01*
X0175638Y0270782D01*
X0175508Y0270692D01*
X0175375Y0270606D01*
X0175240Y0270522D01*
X0175104Y0270443D01*
X0174965Y0270366D01*
X0174824Y0270294D01*
X0174682Y0270224D01*
X0174538Y0270159D01*
X0174392Y0270097D01*
X0174245Y0270039D01*
X0174096Y0269984D01*
X0173946Y0269933D01*
X0173795Y0269886D01*
X0173643Y0269843D01*
X0173490Y0269804D01*
X0173335Y0269768D01*
X0173180Y0269737D01*
X0173024Y0269709D01*
X0172868Y0269685D01*
X0172711Y0269665D01*
X0172553Y0269649D01*
X0172396Y0269637D01*
X0172237Y0269629D01*
X0172079Y0269625D01*
X0171921Y0269625D01*
X0171763Y0269629D01*
X0171604Y0269637D01*
X0171447Y0269649D01*
X0171289Y0269665D01*
X0171132Y0269685D01*
X0170976Y0269709D01*
X0170820Y0269737D01*
X0170665Y0269768D01*
X0170510Y0269804D01*
X0170357Y0269843D01*
X0170205Y0269886D01*
X0170054Y0269933D01*
X0169904Y0269984D01*
X0169755Y0270039D01*
X0169608Y0270097D01*
X0169462Y0270159D01*
X0169318Y0270224D01*
X0169176Y0270294D01*
X0169035Y0270366D01*
X0168896Y0270443D01*
X0168760Y0270522D01*
X0168625Y0270606D01*
X0168492Y0270692D01*
X0168362Y0270782D01*
X0168234Y0270875D01*
X0168108Y0270971D01*
X0167985Y0271071D01*
X0167864Y0271173D01*
X0167746Y0271278D01*
X0167631Y0271387D01*
X0167518Y0271498D01*
X0167408Y0271612D01*
X0167301Y0271729D01*
X0167197Y0271848D01*
X0167096Y0271970D01*
X0166999Y0272095D01*
X0166904Y0272222D01*
X0166813Y0272351D01*
X0166724Y0272482D01*
X0166640Y0272616D01*
X0166558Y0272752D01*
X0166480Y0272889D01*
X0166406Y0273029D01*
X0166335Y0273171D01*
X0166267Y0273314D01*
X0166203Y0273459D01*
X0166143Y0273605D01*
X0166087Y0273753D01*
X0166034Y0273902D01*
X0165985Y0274053D01*
X0165940Y0274205D01*
X0165899Y0274358D01*
X0165861Y0274511D01*
X0165828Y0274666D01*
X0165798Y0274822D01*
X0165772Y0274978D01*
X0165751Y0275135D01*
X0165733Y0275292D01*
X0165719Y0275450D01*
X0165709Y0275608D01*
X0165703Y0275766D01*
X0165701Y0275924D01*
M02*
