G75*
%MOIN*%
%OFA0B0*%
%FSLAX25Y25*%
%IPPOS*%
%LPD*%
%AMOC8*
5,1,8,0,0,1.08239X$1,22.5*
%
%ADD10C,0.13198*%
%ADD11OC8,0.07400*%
%ADD12OC8,0.05400*%
%ADD13C,0.06328*%
%ADD14C,0.05400*%
%ADD15OC8,0.07600*%
%ADD16C,0.08000*%
%ADD17C,0.09200*%
%ADD18C,0.04362*%
%ADD19C,0.04400*%
D10*
X0065000Y0274524D03*
X0165000Y0274524D03*
D11*
X0140000Y0227524D03*
X0130000Y0227524D03*
X0120000Y0227524D03*
X0110000Y0227524D03*
X0110000Y0197524D03*
X0120000Y0197524D03*
X0130000Y0197524D03*
X0140000Y0197524D03*
X0140000Y0177524D03*
X0130000Y0177524D03*
X0120000Y0177524D03*
X0110000Y0177524D03*
X0110000Y0147524D03*
X0120000Y0147524D03*
X0130000Y0147524D03*
X0140000Y0147524D03*
D12*
X0157000Y0187524D03*
X0167000Y0187524D03*
X0177000Y0187524D03*
X0175000Y0172524D03*
X0175000Y0152524D03*
X0177000Y0227524D03*
X0167000Y0227524D03*
X0157000Y0227524D03*
X0071000Y0245524D03*
X0061000Y0245524D03*
X0051000Y0245524D03*
X0041000Y0245524D03*
X0031000Y0245524D03*
X0053000Y0260524D03*
X0051000Y0205524D03*
X0051000Y0196524D03*
X0041000Y0196524D03*
X0041000Y0205524D03*
X0031000Y0205524D03*
X0061000Y0205524D03*
X0061000Y0196524D03*
X0071000Y0196524D03*
X0071000Y0205524D03*
X0071000Y0156524D03*
X0061000Y0156524D03*
X0051000Y0156524D03*
X0041000Y0156524D03*
D13*
X0040500Y0138388D02*
X0040500Y0132659D01*
X0050500Y0132659D02*
X0050500Y0138388D01*
X0060500Y0138388D02*
X0060500Y0132659D01*
X0070500Y0132659D02*
X0070500Y0138388D01*
X0080500Y0138388D02*
X0080500Y0132659D01*
X0090500Y0132659D02*
X0090500Y0138388D01*
X0100500Y0138388D02*
X0100500Y0132659D01*
X0110500Y0132659D02*
X0110500Y0138388D01*
X0110500Y0108388D02*
X0110500Y0102659D01*
X0100500Y0102659D02*
X0100500Y0108388D01*
X0090500Y0108388D02*
X0090500Y0102659D01*
X0080500Y0102659D02*
X0080500Y0108388D01*
X0070500Y0108388D02*
X0070500Y0102659D01*
X0060500Y0102659D02*
X0060500Y0108388D01*
X0050500Y0108388D02*
X0050500Y0102659D01*
X0040500Y0102659D02*
X0040500Y0108388D01*
D14*
X0033000Y0260524D03*
D15*
X0080000Y0252524D03*
X0090000Y0252524D03*
X0100000Y0252524D03*
X0110000Y0252524D03*
X0120000Y0252524D03*
X0130000Y0252524D03*
X0140000Y0252524D03*
X0150000Y0252524D03*
D16*
X0015000Y0102524D03*
X0015000Y0112524D03*
X0015000Y0122524D03*
X0015000Y0132524D03*
X0015000Y0142524D03*
X0015000Y0152524D03*
X0015000Y0162524D03*
X0015000Y0172524D03*
X0015000Y0182524D03*
X0015000Y0192524D03*
X0015000Y0207524D03*
X0015000Y0217524D03*
X0015000Y0227524D03*
X0015000Y0237524D03*
X0015000Y0247524D03*
X0015000Y0257524D03*
X0015000Y0267524D03*
X0015000Y0277524D03*
X0205000Y0277524D03*
X0205000Y0267524D03*
X0205000Y0257524D03*
X0205000Y0247524D03*
X0205000Y0237524D03*
X0205000Y0227524D03*
X0205000Y0207524D03*
X0205000Y0197524D03*
X0205000Y0187524D03*
X0205000Y0177524D03*
X0205000Y0167524D03*
X0205000Y0157524D03*
X0205000Y0147524D03*
X0205000Y0137524D03*
D17*
X0205087Y0106524D03*
X0191307Y0106524D03*
X0174087Y0106524D03*
X0160307Y0106524D03*
X0143087Y0106524D03*
X0129307Y0106524D03*
D18*
X0201000Y0124724D03*
X0183500Y0275224D03*
X0035100Y0278024D03*
D19*
X0109500Y0184924D03*
X0153500Y0154124D03*
X0166700Y0167324D03*
M02*
